<?xml version="1.0" encoding="UTF-8" standalone="no"?>
<!-- Created with Inkscape (http://www.inkscape.org/) -->

<svg
   xmlns:dc="http://purl.org/dc/elements/1.1/"
   xmlns:cc="http://creativecommons.org/ns#"
   xmlns:rdf="http://www.w3.org/1999/02/22-rdf-syntax-ns#"
   xmlns:svg="http://www.w3.org/2000/svg"
   xmlns="http://www.w3.org/2000/svg"
   xmlns:sodipodi="http://sodipodi.sourceforge.net/DTD/sodipodi-0.dtd"
   xmlns:inkscape="http://www.inkscape.org/namespaces/inkscape"
   id="svg8036"
   version="1.1"
   inkscape:version="0.48.2 r9819"
   width="462.01825"
   height="263"
   xml:space="preserve"
   sodipodi:docname="accelerated.svg"><sodipodi:namedview
     pagecolor="#ffffff"
     bordercolor="#666666"
     borderopacity="1"
     objecttolerance="10"
     gridtolerance="10"
     guidetolerance="10"
     inkscape:pageopacity="0"
     inkscape:pageshadow="2"
     inkscape:window-width="1037"
     inkscape:window-height="647"
     id="namedview8038"
     showgrid="false"
     inkscape:zoom="1.5"
     inkscape:cx="165.15628"
     inkscape:cy="133.23774"
     inkscape:window-x="45"
     inkscape:window-y="104"
     inkscape:window-maximized="0"
     inkscape:current-layer="g8044"
     fit-margin-top="0"
     fit-margin-left="0"
     fit-margin-right="0"
     fit-margin-bottom="0" /><metadata
     id="metadata8042"><rdf:RDF><cc:Work
         rdf:about=""><dc:format>image/svg+xml</dc:format><dc:type
           rdf:resource="http://purl.org/dc/dcmitype/StillImage" /><dc:title></dc:title></cc:Work></rdf:RDF></metadata><defs
     id="defs8040"><marker
       style="overflow:visible"
       id="Arrow1Mend"
       refX="0"
       refY="0"
       orient="auto"
       inkscape:stockid="Arrow1Mend"><path
         inkscape:connector-curvature="0"
         transform="matrix(-0.4,0,0,-0.4,-4,0)"
         style="fill-rule:evenodd;stroke:#000000;stroke-width:1pt;marker-start:none"
         d="M 0,0 5,-5 -12.5,0 5,5 0,0 z"
         id="path6522" /></marker><marker
       style="overflow:visible"
       id="Arrow1Lend"
       refX="0"
       refY="0"
       orient="auto"
       inkscape:stockid="Arrow1Lend"><path
         inkscape:connector-curvature="0"
         transform="matrix(-0.8,0,0,-0.8,-10,0)"
         style="fill-rule:evenodd;stroke:#000000;stroke-width:1pt;marker-start:none"
         d="M 0,0 5,-5 -12.5,0 5,5 0,0 z"
         id="path6516" /></marker><clipPath
       clipPathUnits="userSpaceOnUse"
       id="clipPath8048"><path
         inkscape:connector-curvature="0"
         d="m 47,12 0,189.9 360,0 0,-189.9"
         clip-rule="evenodd"
         id="path8050" /></clipPath><clipPath
       clipPathUnits="userSpaceOnUse"
       id="clipPath8060"><path
         inkscape:connector-curvature="0"
         d="m 0,4 0,206 535,0 0,-206"
         clip-rule="evenodd"
         id="path8062" /></clipPath><clipPath
       clipPathUnits="userSpaceOnUse"
       id="clipPath8072"><path
         inkscape:connector-curvature="0"
         d="m 47,12 0,190 360,0 0,-190"
         clip-rule="evenodd"
         id="path8074" /></clipPath><clipPath
       clipPathUnits="userSpaceOnUse"
       id="clipPath8080"><path
         inkscape:connector-curvature="0"
         d="m 45,10 0,194 364,0 0,-194"
         clip-rule="evenodd"
         id="path8082" /></clipPath><clipPath
       clipPathUnits="userSpaceOnUse"
       id="clipPath8088"><path
         inkscape:connector-curvature="0"
         d="m 47,12 0,190 360,0 0,-190"
         clip-rule="evenodd"
         id="path8090" /></clipPath><clipPath
       clipPathUnits="userSpaceOnUse"
       id="clipPath8096"><path
         inkscape:connector-curvature="0"
         d="m 47,17 0,180 360,0 0,-180"
         clip-rule="evenodd"
         id="path8098" /></clipPath><clipPath
       clipPathUnits="userSpaceOnUse"
       id="clipPath8104"><path
         inkscape:connector-curvature="0"
         d="m 47,17 0,180 360,0 0,-180"
         clip-rule="evenodd"
         id="path8106" /></clipPath><clipPath
       clipPathUnits="userSpaceOnUse"
       id="clipPath8112"><path
         inkscape:connector-curvature="0"
         d="m 47,17 0,180 360,0 0,-180"
         clip-rule="evenodd"
         id="path8114" /></clipPath><clipPath
       clipPathUnits="userSpaceOnUse"
       id="clipPath8180"><path
         inkscape:connector-curvature="0"
         d="m 57,109 0,12 13,0 0,-12"
         clip-rule="evenodd"
         id="path8182" /></clipPath><clipPath
       clipPathUnits="userSpaceOnUse"
       id="clipPath8192"><path
         inkscape:connector-curvature="0"
         d="m -2.237,-1.95 0,14 15,0 0,-14"
         clip-rule="evenodd"
         id="path8194" /></clipPath><clipPath
       clipPathUnits="userSpaceOnUse"
       id="clipPath8214"><path
         inkscape:connector-curvature="0"
         d="m 75,109 0,12 13,0 0,-12"
         clip-rule="evenodd"
         id="path8216" /></clipPath><clipPath
       clipPathUnits="userSpaceOnUse"
       id="clipPath8226"><path
         inkscape:connector-curvature="0"
         d="m -2.417,-1.95 0,14 15,0 0,-14"
         clip-rule="evenodd"
         id="path8228" /></clipPath><clipPath
       clipPathUnits="userSpaceOnUse"
       id="clipPath8248"><path
         inkscape:connector-curvature="0"
         d="m 94,109 0,12 12,0 0,-12"
         clip-rule="evenodd"
         id="path8250" /></clipPath><clipPath
       clipPathUnits="userSpaceOnUse"
       id="clipPath8260"><path
         inkscape:connector-curvature="0"
         d="m -1.596,-1.95 0,14 14,0 0,-14"
         clip-rule="evenodd"
         id="path8262" /></clipPath><clipPath
       clipPathUnits="userSpaceOnUse"
       id="clipPath8282"><path
         inkscape:connector-curvature="0"
         d="m 112,109 0,12 12,0 0,-12"
         clip-rule="evenodd"
         id="path8284" /></clipPath><clipPath
       clipPathUnits="userSpaceOnUse"
       id="clipPath8294"><path
         inkscape:connector-curvature="0"
         d="m -1.776,-1.95 0,14 14,0 0,-14"
         clip-rule="evenodd"
         id="path8296" /></clipPath><clipPath
       clipPathUnits="userSpaceOnUse"
       id="clipPath8316"><path
         inkscape:connector-curvature="0"
         d="m 130,109 0,12 12,0 0,-12"
         clip-rule="evenodd"
         id="path8318" /></clipPath><clipPath
       clipPathUnits="userSpaceOnUse"
       id="clipPath8328"><path
         inkscape:connector-curvature="0"
         d="m -1.955,-1.95 0,14 14,0 0,-14"
         clip-rule="evenodd"
         id="path8330" /></clipPath><clipPath
       clipPathUnits="userSpaceOnUse"
       id="clipPath8350"><path
         inkscape:connector-curvature="0"
         d="m 148,109 0,12 12,0 0,-12"
         clip-rule="evenodd"
         id="path8352" /></clipPath><clipPath
       clipPathUnits="userSpaceOnUse"
       id="clipPath8362"><path
         inkscape:connector-curvature="0"
         d="m -2.134,-1.95 0,14 14,0 0,-14"
         clip-rule="evenodd"
         id="path8364" /></clipPath><clipPath
       clipPathUnits="userSpaceOnUse"
       id="clipPath8384"><path
         inkscape:connector-curvature="0"
         d="m 166,109 0,12 13,0 0,-12"
         clip-rule="evenodd"
         id="path8386" /></clipPath><clipPath
       clipPathUnits="userSpaceOnUse"
       id="clipPath8396"><path
         inkscape:connector-curvature="0"
         d="m -2.314,-1.95 0,14 15,0 0,-14"
         clip-rule="evenodd"
         id="path8398" /></clipPath><clipPath
       clipPathUnits="userSpaceOnUse"
       id="clipPath8418"><path
         inkscape:connector-curvature="0"
         d="m 184,109 0,12 13,0 0,-12"
         clip-rule="evenodd"
         id="path8420" /></clipPath><clipPath
       clipPathUnits="userSpaceOnUse"
       id="clipPath8430"><path
         inkscape:connector-curvature="0"
         d="m -2.493,-1.95 0,14 15,0 0,-14"
         clip-rule="evenodd"
         id="path8432" /></clipPath><clipPath
       clipPathUnits="userSpaceOnUse"
       id="clipPath8452"><path
         inkscape:connector-curvature="0"
         d="m 203,109 0,12 12,0 0,-12"
         clip-rule="evenodd"
         id="path8454" /></clipPath><clipPath
       clipPathUnits="userSpaceOnUse"
       id="clipPath8464"><path
         inkscape:connector-curvature="0"
         d="m -1.672,-1.95 0,14 14,0 0,-14"
         clip-rule="evenodd"
         id="path8466" /></clipPath><clipPath
       clipPathUnits="userSpaceOnUse"
       id="clipPath8488"><path
         inkscape:connector-curvature="0"
         d="m -1.75,-1.95 0,14 8,0 0,-14"
         clip-rule="evenodd"
         id="path8490" /></clipPath><clipPath
       clipPathUnits="userSpaceOnUse"
       id="clipPath8506"><path
         inkscape:connector-curvature="0"
         d="m 242,109 0,12 6,0 0,-12"
         clip-rule="evenodd"
         id="path8508" /></clipPath><clipPath
       clipPathUnits="userSpaceOnUse"
       id="clipPath8518"><path
         inkscape:connector-curvature="0"
         d="m -1.929,-1.95 0,14 8,0 0,-14"
         clip-rule="evenodd"
         id="path8520" /></clipPath><clipPath
       clipPathUnits="userSpaceOnUse"
       id="clipPath8540"><path
         inkscape:connector-curvature="0"
         d="m 260,109 0,12 7,0 0,-12"
         clip-rule="evenodd"
         id="path8542" /></clipPath><clipPath
       clipPathUnits="userSpaceOnUse"
       id="clipPath8552"><path
         inkscape:connector-curvature="0"
         d="m -2.109,-1.95 0,14 9,0 0,-14"
         clip-rule="evenodd"
         id="path8554" /></clipPath><clipPath
       clipPathUnits="userSpaceOnUse"
       id="clipPath8574"><path
         inkscape:connector-curvature="0"
         d="m 278,109 0,12 7,0 0,-12"
         clip-rule="evenodd"
         id="path8576" /></clipPath><clipPath
       clipPathUnits="userSpaceOnUse"
       id="clipPath8586"><path
         inkscape:connector-curvature="0"
         d="m -2.288,-1.95 0,14 9,0 0,-14"
         clip-rule="evenodd"
         id="path8588" /></clipPath><clipPath
       clipPathUnits="userSpaceOnUse"
       id="clipPath8608"><path
         inkscape:connector-curvature="0"
         d="m 296,109 0,12 7,0 0,-12"
         clip-rule="evenodd"
         id="path8610" /></clipPath><clipPath
       clipPathUnits="userSpaceOnUse"
       id="clipPath8620"><path
         inkscape:connector-curvature="0"
         d="m -2.467,-1.95 0,14 9,0 0,-14"
         clip-rule="evenodd"
         id="path8622" /></clipPath><clipPath
       clipPathUnits="userSpaceOnUse"
       id="clipPath8642"><path
         inkscape:connector-curvature="0"
         d="m 315,109 0,12 6,0 0,-12"
         clip-rule="evenodd"
         id="path8644" /></clipPath><clipPath
       clipPathUnits="userSpaceOnUse"
       id="clipPath8654"><path
         inkscape:connector-curvature="0"
         d="m -1.647,-1.95 0,14 8,0 0,-14"
         clip-rule="evenodd"
         id="path8656" /></clipPath><clipPath
       clipPathUnits="userSpaceOnUse"
       id="clipPath8676"><path
         inkscape:connector-curvature="0"
         d="m 333,109 0,12 6,0 0,-12"
         clip-rule="evenodd"
         id="path8678" /></clipPath><clipPath
       clipPathUnits="userSpaceOnUse"
       id="clipPath8688"><path
         inkscape:connector-curvature="0"
         d="m -1.826,-1.95 0,14 8,0 0,-14"
         clip-rule="evenodd"
         id="path8690" /></clipPath><clipPath
       clipPathUnits="userSpaceOnUse"
       id="clipPath8710"><path
         inkscape:connector-curvature="0"
         d="m 351,109 0,12 7,0 0,-12"
         clip-rule="evenodd"
         id="path8712" /></clipPath><clipPath
       clipPathUnits="userSpaceOnUse"
       id="clipPath8722"><path
         inkscape:connector-curvature="0"
         d="m -2.006,-1.95 0,14 9,0 0,-14"
         clip-rule="evenodd"
         id="path8724" /></clipPath><clipPath
       clipPathUnits="userSpaceOnUse"
       id="clipPath8744"><path
         inkscape:connector-curvature="0"
         d="m 369,109 0,12 7,0 0,-12"
         clip-rule="evenodd"
         id="path8746" /></clipPath><clipPath
       clipPathUnits="userSpaceOnUse"
       id="clipPath8756"><path
         inkscape:connector-curvature="0"
         d="m -2.185,-1.95 0,14 9,0 0,-14"
         clip-rule="evenodd"
         id="path8758" /></clipPath><clipPath
       clipPathUnits="userSpaceOnUse"
       id="clipPath8778"><path
         inkscape:connector-curvature="0"
         d="m 387,109 0,12 7,0 0,-12"
         clip-rule="evenodd"
         id="path8780" /></clipPath><clipPath
       clipPathUnits="userSpaceOnUse"
       id="clipPath8790"><path
         inkscape:connector-curvature="0"
         d="m -2.364,-1.95 0,14 9,0 0,-14"
         clip-rule="evenodd"
         id="path8792" /></clipPath><clipPath
       clipPathUnits="userSpaceOnUse"
       id="clipPath8816"><path
         inkscape:connector-curvature="0"
         d="m 213,191 0,12 12,0 0,-12"
         clip-rule="evenodd"
         id="path8818" /></clipPath><clipPath
       clipPathUnits="userSpaceOnUse"
       id="clipPath8828"><path
         inkscape:connector-curvature="0"
         d="m -1.704,-1.9 0,14 14,0 0,-14"
         clip-rule="evenodd"
         id="path8830" /></clipPath><clipPath
       clipPathUnits="userSpaceOnUse"
       id="clipPath8854"><path
         inkscape:connector-curvature="0"
         d="m 213,173 0,12 12,0 0,-12"
         clip-rule="evenodd"
         id="path8856" /></clipPath><clipPath
       clipPathUnits="userSpaceOnUse"
       id="clipPath8866"><path
         inkscape:connector-curvature="0"
         d="m -1.704,-1.91 0,14 14,0 0,-14"
         clip-rule="evenodd"
         id="path8868" /></clipPath><clipPath
       clipPathUnits="userSpaceOnUse"
       id="clipPath8892"><path
         inkscape:connector-curvature="0"
         d="m 213,155 0,12 12,0 0,-12"
         clip-rule="evenodd"
         id="path8894" /></clipPath><clipPath
       clipPathUnits="userSpaceOnUse"
       id="clipPath8904"><path
         inkscape:connector-curvature="0"
         d="m -1.704,-1.92 0,14 14,0 0,-14"
         clip-rule="evenodd"
         id="path8906" /></clipPath><clipPath
       clipPathUnits="userSpaceOnUse"
       id="clipPath8930"><path
         inkscape:connector-curvature="0"
         d="m 213,137 0,12 12,0 0,-12"
         clip-rule="evenodd"
         id="path8932" /></clipPath><clipPath
       clipPathUnits="userSpaceOnUse"
       id="clipPath8942"><path
         inkscape:connector-curvature="0"
         d="m -1.704,-1.93 0,14 14,0 0,-14"
         clip-rule="evenodd"
         id="path8944" /></clipPath><clipPath
       clipPathUnits="userSpaceOnUse"
       id="clipPath8968"><path
         inkscape:connector-curvature="0"
         d="m 213,119 0,12 12,0 0,-12"
         clip-rule="evenodd"
         id="path8970" /></clipPath><clipPath
       clipPathUnits="userSpaceOnUse"
       id="clipPath8980"><path
         inkscape:connector-curvature="0"
         d="m -1.704,-1.94 0,14 14,0 0,-14"
         clip-rule="evenodd"
         id="path8982" /></clipPath><clipPath
       clipPathUnits="userSpaceOnUse"
       id="clipPath9008"><path
         inkscape:connector-curvature="0"
         d="m -1.5,-1.95 0,14 8,0 0,-14"
         clip-rule="evenodd"
         id="path9010" /></clipPath><clipPath
       clipPathUnits="userSpaceOnUse"
       id="clipPath9026"><path
         inkscape:connector-curvature="0"
         d="m 219,83 0,12 6,0 0,-12"
         clip-rule="evenodd"
         id="path9028" /></clipPath><clipPath
       clipPathUnits="userSpaceOnUse"
       id="clipPath9038"><path
         inkscape:connector-curvature="0"
         d="m -1.5,-1.96 0,14 8,0 0,-14"
         clip-rule="evenodd"
         id="path9040" /></clipPath><clipPath
       clipPathUnits="userSpaceOnUse"
       id="clipPath9060"><path
         inkscape:connector-curvature="0"
         d="m 219,65 0,12 6,0 0,-12"
         clip-rule="evenodd"
         id="path9062" /></clipPath><clipPath
       clipPathUnits="userSpaceOnUse"
       id="clipPath9072"><path
         inkscape:connector-curvature="0"
         d="m -1.5,-1.97 0,14 8,0 0,-14"
         clip-rule="evenodd"
         id="path9074" /></clipPath><clipPath
       clipPathUnits="userSpaceOnUse"
       id="clipPath9094"><path
         inkscape:connector-curvature="0"
         d="m 219,47 0,12 6,0 0,-12"
         clip-rule="evenodd"
         id="path9096" /></clipPath><clipPath
       clipPathUnits="userSpaceOnUse"
       id="clipPath9106"><path
         inkscape:connector-curvature="0"
         d="m -1.5,-1.98 0,14 8,0 0,-14"
         clip-rule="evenodd"
         id="path9108" /></clipPath><clipPath
       clipPathUnits="userSpaceOnUse"
       id="clipPath9128"><path
         inkscape:connector-curvature="0"
         d="m 219,29 0,12 6,0 0,-12"
         clip-rule="evenodd"
         id="path9130" /></clipPath><clipPath
       clipPathUnits="userSpaceOnUse"
       id="clipPath9140"><path
         inkscape:connector-curvature="0"
         d="m -1.5,-1.99 0,14 8,0 0,-14"
         clip-rule="evenodd"
         id="path9142" /></clipPath><clipPath
       clipPathUnits="userSpaceOnUse"
       id="clipPath9162"><path
         inkscape:connector-curvature="0"
         d="m 219,11 0,12 6,0 0,-12"
         clip-rule="evenodd"
         id="path9164" /></clipPath><clipPath
       clipPathUnits="userSpaceOnUse"
       id="clipPath9174"><path
         inkscape:connector-curvature="0"
         d="m -1.5,-2 0,14 8,0 0,-14"
         clip-rule="evenodd"
         id="path9176" /></clipPath><clipPath
       clipPathUnits="userSpaceOnUse"
       id="clipPath9194"><path
         inkscape:connector-curvature="0"
         d="m 47,17 0,180 360,0 0,-180"
         clip-rule="evenodd"
         id="path9196" /></clipPath><clipPath
       id="clipPath19049"
       clipPathUnits="userSpaceOnUse"><path
         id="path19051"
         clip-rule="evenodd"
         d="m 47,11 0,181 360,0 0,-181"
         inkscape:connector-curvature="0" /></clipPath><clipPath
       id="clipPath19041"
       clipPathUnits="userSpaceOnUse"><path
         id="path19043"
         clip-rule="evenodd"
         d="m 45,10 0,184 364,0 0,-184"
         inkscape:connector-curvature="0" /></clipPath><clipPath
       id="clipPath19033"
       clipPathUnits="userSpaceOnUse"><path
         id="path19035"
         clip-rule="evenodd"
         d="m 47,12 0,181 360,0 0,-181"
         inkscape:connector-curvature="0" /></clipPath><clipPath
       id="clipPath19021"
       clipPathUnits="userSpaceOnUse"><path
         id="path19023"
         clip-rule="evenodd"
         d="m 0,4 0,196 535,0 0,-196"
         inkscape:connector-curvature="0" /></clipPath><clipPath
       id="clipPath19009"
       clipPathUnits="userSpaceOnUse"><path
         id="path19011"
         clip-rule="evenodd"
         d="m 47,12 0,180.1 360,0 0,-180.1"
         inkscape:connector-curvature="0" /></clipPath><clipPath
       id="clipPath19275"
       clipPathUnits="userSpaceOnUse"><path
         id="path19277"
         clip-rule="evenodd"
         d="m 47,11 0,181 360,0 0,-181"
         inkscape:connector-curvature="0" /></clipPath><clipPath
       id="clipPath19267"
       clipPathUnits="userSpaceOnUse"><path
         id="path19269"
         clip-rule="evenodd"
         d="m 45,10 0,184 364,0 0,-184"
         inkscape:connector-curvature="0" /></clipPath><clipPath
       id="clipPath19259"
       clipPathUnits="userSpaceOnUse"><path
         id="path19261"
         clip-rule="evenodd"
         d="m 47,12 0,181 360,0 0,-181"
         inkscape:connector-curvature="0" /></clipPath><clipPath
       id="clipPath19247"
       clipPathUnits="userSpaceOnUse"><path
         id="path19249"
         clip-rule="evenodd"
         d="m 0,4 0,196 535,0 0,-196"
         inkscape:connector-curvature="0" /></clipPath><clipPath
       id="clipPath19235"
       clipPathUnits="userSpaceOnUse"><path
         id="path19237"
         clip-rule="evenodd"
         d="m 47,12 0,180.1 360,0 0,-180.1"
         inkscape:connector-curvature="0" /></clipPath></defs><g
     id="g8044"
     inkscape:groupmode="layer"
     inkscape:label="accelerated"
     transform="matrix(1.25,0,0,1.25,-57.749996,-3.9252414)"><g
       transform="translate(-0.80000333,4.823526)"
       inkscape:label="accelerated2"
       id="g19231"><g
         clip-path="url(#clipPath19235)"
         id="g19233"><g
           id="g19239" /><g
           id="g19241"><g
             id="g19243"><g
               clip-path="url(#clipPath19247)"
               id="g19245"><g
                 id="g19251"><path
                   id="path19253"
                   style="fill:#ffffff;fill-opacity:1;fill-rule:evenodd;stroke:none"
                   d="M 39,4 487,4 487,200 39,200 39,4 z"
                   inkscape:connector-curvature="0" /></g></g></g><g
             id="g19255"><g
               clip-path="url(#clipPath19259)"
               id="g19257"><g
                 id="g19263"><g
                   clip-path="url(#clipPath19267)"
                   id="g19265"><g
                     id="g19271"><g
                       clip-path="url(#clipPath19275)"
                       id="g19273"><g
                         id="g19279" /><g
                         id="g19281" /><g
                         id="g19283"><path
                           id="path19285"
                           style="fill:none;stroke:#426ab5;stroke-width:1.079;stroke-linecap:square;stroke-linejoin:miter;stroke-miterlimit:3.25;stroke-opacity:1;stroke-dasharray:none"
                           d="m 245.184,102.458 0.115,1.662 0.116,0.833 0.115,0.646 0.115,0.549 0.115,0.486 0.115,0.442 0.116,0.408 0.23,0.743 0.115,0.343 0.116,0.327 0.23,0.617 0.461,1.12 0.115,0.262 0.115,0.255 0.231,0.495 0.461,0.934 0.115,0.224 0.115,0.221 0.231,0.432 0.461,0.83 0.921,1.557 1.844,2.829 0.113,0.164 0.113,0.164 0.226,0.325 0.453,0.64 0.905,1.248 1.81,2.391 3.62,4.495 6.753,7.808 7.323,8.03 6.835,7.276 6.702,7.01 7.271,7.514 6.785,6.951 7.355,7.488 6.867,6.96 4.816,4.863"
                           inkscape:connector-curvature="0" /><path
                           id="path19287"
                           style="fill:none;stroke:#426ab5;stroke-width:1.079;stroke-linecap:square;stroke-linejoin:miter;stroke-miterlimit:3.25;stroke-opacity:1;stroke-dasharray:none"
                           d="m 245.184,101.642 0.115,-1.662 0.116,-0.833 0.115,-0.646 0.115,-0.549 0.115,-0.486 0.115,-0.442 0.116,-0.408 0.23,-0.743 0.115,-0.343 0.116,-0.327 0.23,-0.617 0.461,-1.12 0.115,-0.262 0.115,-0.255 0.231,-0.495 0.461,-0.934 0.115,-0.224 0.115,-0.221 0.231,-0.432 0.461,-0.83 0.921,-1.557 1.844,-2.829 0.113,-0.164 0.113,-0.164 0.226,-0.325 0.453,-0.64 0.905,-1.248 1.81,-2.391 3.62,-4.495 6.753,-7.808 7.323,-8.03 6.835,-7.276 6.702,-7.01 7.271,-7.514 6.785,-6.951 7.355,-7.488 6.867,-6.96 4.816,-4.863"
                           inkscape:connector-curvature="0" /><path
                           id="path19289"
                           style="fill:none;stroke:#426ab5;stroke-width:1.079;stroke-linecap:square;stroke-linejoin:miter;stroke-miterlimit:3.25;stroke-opacity:1;stroke-dasharray:none"
                           d="m 263.36,102.343 0.063,1.851 0.106,1.34 0.105,0.954 0.106,0.785 0.105,0.683 0.106,0.614 0.105,0.562 0.106,0.522 0.105,0.49 0.211,0.904 0.106,0.421 0.105,0.404 0.211,0.765 0.106,0.364 0.105,0.354 0.211,0.678 0.423,1.262 0.114,0.325 0.114,0.317 0.229,0.617 0.458,1.171 0.915,2.147 0.115,0.254 0.114,0.251 0.229,0.493 0.458,0.959 0.915,1.817 0.114,0.219 0.115,0.218 0.229,0.431 0.457,0.844 0.916,1.626 1.831,3.059 0.106,0.172 0.107,0.171 0.214,0.341 0.427,0.673 0.855,1.32 1.709,2.548 3.417,4.81 6.702,8.71 7.271,8.806 6.785,7.85 7.355,8.25 6.867,7.531 6.734,7.266 3.293,3.508"
                           inkscape:connector-curvature="0" /><path
                           id="path19291"
                           style="fill:none;stroke:#426ab5;stroke-width:1.079;stroke-linecap:square;stroke-linejoin:miter;stroke-miterlimit:3.25;stroke-opacity:1;stroke-dasharray:none"
                           d="m 263.36,101.757 0.063,-1.851 0.106,-1.34 0.105,-0.954 0.106,-0.785 0.105,-0.683 0.106,-0.614 0.105,-0.562 0.106,-0.522 0.105,-0.49 0.211,-0.904 0.106,-0.421 0.105,-0.404 0.211,-0.765 0.106,-0.364 0.105,-0.354 0.211,-0.678 0.423,-1.262 0.114,-0.325 0.114,-0.317 0.229,-0.617 0.458,-1.171 0.915,-2.147 0.115,-0.254 0.114,-0.251 0.229,-0.493 0.458,-0.959 0.915,-1.817 0.114,-0.219 0.115,-0.218 0.229,-0.431 0.457,-0.844 0.916,-1.626 1.831,-3.059 0.106,-0.172 0.107,-0.171 0.214,-0.341 0.427,-0.673 0.855,-1.32 1.709,-2.548 3.417,-4.81 6.702,-8.71 7.271,-8.806 6.785,-7.85 7.355,-8.25 6.867,-7.531 6.734,-7.266 3.293,-3.508"
                           inkscape:connector-curvature="0" /><path
                           id="path19293"
                           style="fill:none;stroke:#426ab5;stroke-width:1.079;stroke-linecap:square;stroke-linejoin:miter;stroke-miterlimit:3.25;stroke-opacity:1;stroke-dasharray:none"
                           d="m 281.542,102.709 0.037,1.427 0.105,1.858 0.104,1.231 0.105,0.991 0.105,0.855 0.104,0.762 0.105,0.696 0.209,1.246 0.105,0.568 0.105,0.54 0.209,1.008 0.419,1.804 0.105,0.417 0.105,0.405 0.209,0.781 0.419,1.46 0.837,2.619 0.105,0.305 0.105,0.301 0.209,0.59 0.419,1.139 0.838,2.136 0.113,0.277 0.114,0.275 0.227,0.542 0.455,1.055 0.909,2.014 1.818,3.721 3.635,6.619 0.106,0.181 0.106,0.181 0.212,0.359 0.424,0.712 0.849,1.4 1.696,2.713 3.392,5.15 7.355,10.288 6.867,8.911 6.734,8.315 7.303,8.693 4.102,4.746"
                           inkscape:connector-curvature="0" /><path
                           id="path19295"
                           style="fill:none;stroke:#426ab5;stroke-width:1.079;stroke-linecap:square;stroke-linejoin:miter;stroke-miterlimit:3.25;stroke-opacity:1;stroke-dasharray:none"
                           d="m 281.542,101.391 0.037,-1.427 0.105,-1.858 0.104,-1.231 0.105,-0.991 0.105,-0.855 0.104,-0.762 0.105,-0.696 0.209,-1.246 0.105,-0.568 0.105,-0.54 0.209,-1.008 0.419,-1.804 0.105,-0.417 0.105,-0.405 0.209,-0.781 0.419,-1.46 0.837,-2.619 0.105,-0.305 0.105,-0.301 0.209,-0.59 0.419,-1.139 0.838,-2.136 0.113,-0.277 0.114,-0.275 0.227,-0.542 0.455,-1.055 0.909,-2.014 1.818,-3.721 3.635,-6.619 0.106,-0.181 0.106,-0.181 0.212,-0.359 0.424,-0.712 0.849,-1.4 1.696,-2.713 3.392,-5.15 7.355,-10.288 6.867,-8.911 6.734,-8.315 7.303,-8.693 4.102,-4.746"
                           inkscape:connector-curvature="0" /><path
                           id="path19297"
                           style="fill:none;stroke:#426ab5;stroke-width:1.079;stroke-linecap:square;stroke-linejoin:miter;stroke-miterlimit:3.25;stroke-opacity:1;stroke-dasharray:none"
                           d="m 299.723,102.919 0.09,2.818 0.106,1.673 0.106,1.264 0.106,1.06 0.106,0.932 0.106,0.842 0.106,0.774 0.212,1.397 0.115,0.693 0.115,0.657 0.23,1.225 0.459,2.188 0.115,0.505 0.115,0.491 0.23,0.944 0.46,1.763 0.115,0.419 0.114,0.411 0.23,0.801 0.46,1.525 0.919,2.807 0.115,0.332 0.115,0.329 0.23,0.646 0.46,1.255 0.919,2.377 1.839,4.348 0.107,0.24 0.107,0.239 0.215,0.474 0.429,0.934 0.859,1.814 1.717,3.447 3.433,6.345 0.106,0.186 0.105,0.184 0.21,0.368 0.421,0.731 0.842,1.44 1.683,2.804 3.367,5.353 7.303,10.765 6.816,9.333 7.387,9.591 0.287,0.357"
                           inkscape:connector-curvature="0" /><path
                           id="path19299"
                           style="fill:none;stroke:#426ab5;stroke-width:1.079;stroke-linecap:square;stroke-linejoin:miter;stroke-miterlimit:3.25;stroke-opacity:1;stroke-dasharray:none"
                           d="m 299.723,101.181 0.09,-2.818 0.106,-1.673 0.106,-1.264 0.106,-1.06 0.106,-0.932 0.106,-0.842 0.106,-0.774 0.212,-1.397 0.115,-0.693 0.115,-0.657 0.23,-1.225 0.459,-2.188 0.115,-0.505 0.115,-0.491 0.23,-0.944 0.46,-1.763 0.115,-0.419 0.114,-0.411 0.23,-0.801 0.46,-1.525 0.919,-2.807 0.115,-0.332 0.115,-0.329 0.23,-0.646 0.46,-1.255 0.919,-2.377 1.839,-4.348 0.107,-0.24 0.107,-0.239 0.215,-0.474 0.429,-0.934 0.859,-1.814 1.717,-3.447 3.433,-6.345 0.106,-0.186 0.105,-0.184 0.21,-0.368 0.421,-0.731 0.842,-1.44 1.683,-2.804 3.367,-5.353 7.303,-10.765 6.816,-9.333 7.387,-9.591 0.287,-0.357"
                           inkscape:connector-curvature="0" /><path
                           id="path19301"
                           style="fill:none;stroke:#426ab5;stroke-width:1.079;stroke-linecap:square;stroke-linejoin:miter;stroke-miterlimit:3.25;stroke-opacity:1;stroke-dasharray:none"
                           d="m 317.898,102.418 0.036,2.219 0.106,2.457 0.105,1.605 0.105,1.288 0.105,1.108 0.105,0.987 0.106,0.9 0.105,0.832 0.105,0.777 0.105,0.733 0.211,1.358 0.105,0.635 0.105,0.611 0.21,1.157 0.421,2.112 0.106,0.494 0.105,0.482 0.21,0.933 0.421,1.758 0.842,3.181 0.114,0.404 0.114,0.399 0.228,0.78 0.457,1.504 0.912,2.814 1.826,5.057 0.114,0.296 0.115,0.294 0.228,0.583 0.456,1.143 0.913,2.206 1.826,4.147 0.106,0.233 0.107,0.231 0.213,0.461 0.426,0.91 0.852,1.781 1.704,3.422 3.408,6.395 7.387,12.458 7.252,11.039 5.206,7.398"
                           inkscape:connector-curvature="0" /><path
                           id="path19303"
                           style="fill:none;stroke:#426ab5;stroke-width:1.079;stroke-linecap:square;stroke-linejoin:miter;stroke-miterlimit:3.25;stroke-opacity:1;stroke-dasharray:none"
                           d="m 317.898,101.682 0.036,-2.219 0.106,-2.457 0.105,-1.605 0.105,-1.288 0.105,-1.108 0.105,-0.987 0.106,-0.9 0.105,-0.832 0.105,-0.777 0.105,-0.733 0.211,-1.358 0.105,-0.635 0.105,-0.611 0.21,-1.157 0.421,-2.112 0.106,-0.494 0.105,-0.482 0.21,-0.933 0.421,-1.758 0.842,-3.181 0.114,-0.404 0.114,-0.399 0.228,-0.78 0.457,-1.504 0.912,-2.814 1.826,-5.057 0.114,-0.296 0.115,-0.294 0.228,-0.583 0.456,-1.143 0.913,-2.206 1.826,-4.147 0.106,-0.233 0.107,-0.231 0.213,-0.461 0.426,-0.91 0.852,-1.781 1.704,-3.422 3.408,-6.395 7.387,-12.458 7.252,-11.039 5.206,-7.398"
                           inkscape:connector-curvature="0" /><path
                           id="path19305"
                           style="fill:none;stroke:#426ab5;stroke-width:1.079;stroke-linecap:square;stroke-linejoin:miter;stroke-miterlimit:3.25;stroke-opacity:1;stroke-dasharray:none"
                           d="m 336.077,102.394 0.006,0.818 0.115,3.939 0.115,2.021 0.116,1.564 0.115,1.324 0.116,1.169 0.115,1.059 0.115,0.975 0.231,1.765 0.116,0.809 0.115,0.771 0.231,1.445 0.115,0.682 0.116,0.658 0.231,1.256 0.461,2.312 0.116,0.544 0.115,0.532 0.231,1.032 0.462,1.951 0.115,0.468 0.115,0.46 0.231,0.899 0.462,1.724 0.923,3.204 1.847,5.696 0.113,0.326 0.114,0.323 0.226,0.64 0.453,1.254 0.907,2.416 1.813,4.524 3.626,8.147 0.106,0.224 0.105,0.223 0.212,0.443 0.422,0.88 0.846,1.729 1.691,3.351 3.383,6.344 7.335,12.56 4.565,7.145"
                           inkscape:connector-curvature="0" /><path
                           id="path19307"
                           style="fill:none;stroke:#426ab5;stroke-width:1.079;stroke-linecap:square;stroke-linejoin:miter;stroke-miterlimit:3.25;stroke-opacity:1;stroke-dasharray:none"
                           d="m 336.077,101.706 0.006,-0.818 0.115,-3.939 0.115,-2.021 0.116,-1.564 0.115,-1.324 0.116,-1.169 0.115,-1.059 0.115,-0.975 0.231,-1.765 0.116,-0.809 0.115,-0.771 0.231,-1.445 0.115,-0.682 0.116,-0.658 0.231,-1.256 0.461,-2.312 0.116,-0.544 0.115,-0.532 0.231,-1.032 0.462,-1.951 0.115,-0.468 0.115,-0.46 0.231,-0.899 0.462,-1.724 0.923,-3.204 1.847,-5.696 0.113,-0.326 0.114,-0.323 0.226,-0.64 0.453,-1.254 0.907,-2.416 1.813,-4.524 3.626,-8.147 0.106,-0.224 0.105,-0.223 0.212,-0.443 0.422,-0.88 0.846,-1.729 1.691,-3.351 3.383,-6.344 7.335,-12.56 4.565,-7.145"
                           inkscape:connector-curvature="0" /><path
                           id="path19309"
                           style="fill:none;stroke:#426ab5;stroke-width:1.079;stroke-linecap:square;stroke-linejoin:miter;stroke-miterlimit:3.25;stroke-opacity:1;stroke-dasharray:none"
                           d="m 354.259,103.023 0.027,1.772 0.106,3.077 0.105,1.942 0.106,1.546 0.106,1.325 0.105,1.179 0.106,1.071 0.106,0.99 0.105,0.925 0.106,0.871 0.212,1.612 0.105,0.754 0.106,0.723 0.211,1.371 0.423,2.5 0.106,0.584 0.106,0.57 0.211,1.103 0.423,2.075 0.114,0.536 0.115,0.527 0.229,1.026 0.459,1.956 0.917,3.6 0.114,0.425 0.115,0.421 0.229,0.828 0.458,1.606 0.917,3.038 0.115,0.366 0.115,0.362 0.229,0.717 0.458,1.402 0.917,2.69 1.834,5.008 0.107,0.28 0.107,0.278 0.214,0.552 0.428,1.089 0.856,2.125 1.712,4.061 3.424,7.517 6.713,13.131 5.417,9.446"
                           inkscape:connector-curvature="0" /><path
                           id="path19311"
                           style="fill:none;stroke:#426ab5;stroke-width:1.079;stroke-linecap:square;stroke-linejoin:miter;stroke-miterlimit:3.25;stroke-opacity:1;stroke-dasharray:none"
                           d="m 354.259,101.077 0.027,-1.772 0.106,-3.077 0.105,-1.942 0.106,-1.546 0.106,-1.325 0.105,-1.179 0.106,-1.071 0.106,-0.99 0.105,-0.925 0.106,-0.871 0.212,-1.612 0.105,-0.754 0.106,-0.723 0.211,-1.371 0.423,-2.5 0.106,-0.584 0.106,-0.57 0.211,-1.103 0.423,-2.075 0.114,-0.536 0.115,-0.527 0.229,-1.026 0.459,-1.956 0.917,-3.6 0.114,-0.425 0.115,-0.421 0.229,-0.828 0.458,-1.606 0.917,-3.038 0.115,-0.366 0.115,-0.362 0.229,-0.717 0.458,-1.402 0.917,-2.69 1.834,-5.008 0.107,-0.28 0.107,-0.278 0.214,-0.552 0.428,-1.089 0.856,-2.125 1.712,-4.061 3.424,-7.517 6.713,-13.131 5.417,-9.446"
                           inkscape:connector-curvature="0" /><path
                           id="path19313"
                           style="fill:none;stroke:#426ab5;stroke-width:1.079;stroke-linecap:square;stroke-linejoin:miter;stroke-miterlimit:3.25;stroke-opacity:1;stroke-dasharray:none"
                           d="m 372.44,103.268 0.037,2.238 0.105,3.013 0.105,2.002 0.105,1.614 0.104,1.39 0.105,1.239 0.105,1.13 0.105,1.045 0.21,1.898 0.105,0.874 0.105,0.833 0.21,1.564 0.104,0.738 0.105,0.714 0.21,1.363 0.42,2.511 0.105,0.591 0.105,0.578 0.209,1.121 0.42,2.121 0.839,3.858 0.105,0.453 0.105,0.448 0.21,0.878 0.419,1.699 0.839,3.196 0.114,0.415 0.114,0.412 0.228,0.812 0.455,1.582 0.91,3.016 1.821,5.557 0.114,0.33 0.114,0.328 0.228,0.65 0.455,1.281 0.91,2.487 1.821,4.713 0.106,0.265 0.107,0.265 0.212,0.526 0.425,1.042 0.849,2.042 1.7,3.935 3.398,7.382 0.118,0.247 0.119,0.247 0.237,0.492 0.474,0.976 0.949,1.927 1.896,3.753 0.119,0.23 0.119,0.23 0.237,0.459 0.474,0.912 0.948,1.802 0.119,0.224 0.118,0.223 0.237,0.445 0.223,0.416"
                           inkscape:connector-curvature="0" /><path
                           id="path19315"
                           style="fill:none;stroke:#426ab5;stroke-width:1.079;stroke-linecap:square;stroke-linejoin:miter;stroke-miterlimit:3.25;stroke-opacity:1;stroke-dasharray:none"
                           d="m 372.44,100.832 0.037,-2.238 0.105,-3.013 0.105,-2.002 0.105,-1.614 0.104,-1.39 0.105,-1.239 0.105,-1.13 0.105,-1.045 0.21,-1.898 0.105,-0.874 0.105,-0.833 0.21,-1.564 0.104,-0.738 0.105,-0.714 0.21,-1.363 0.42,-2.511 0.105,-0.591 0.105,-0.578 0.209,-1.121 0.42,-2.121 0.839,-3.858 0.105,-0.453 0.105,-0.448 0.21,-0.878 0.419,-1.699 0.839,-3.196 0.114,-0.415 0.114,-0.412 0.228,-0.812 0.455,-1.582 0.91,-3.016 1.821,-5.557 0.114,-0.33 0.114,-0.328 0.228,-0.65 0.455,-1.281 0.91,-2.487 1.821,-4.713 0.106,-0.265 0.107,-0.265 0.212,-0.526 0.425,-1.042 0.849,-2.042 1.7,-3.935 3.398,-7.382 0.118,-0.247 0.119,-0.247 0.237,-0.492 0.474,-0.976 0.949,-1.927 1.896,-3.753 0.119,-0.23 0.119,-0.23 0.237,-0.459 0.474,-0.912 0.948,-1.802 0.119,-0.224 0.118,-0.223 0.237,-0.445 0.223,-0.416"
                           inkscape:connector-curvature="0" /><path
                           id="path19317"
                           style="fill:none;stroke:#2d708c;stroke-width:1.079;stroke-linecap:square;stroke-linejoin:miter;stroke-miterlimit:3.25;stroke-opacity:0.5;stroke-dasharray:1, 4;stroke-dashoffset:0"
                           d="m 227,102.05 0.053,0.039 0.053,0.04 0.106,0.078 0.212,0.157 0.423,0.315 0.848,0.629 1.695,1.258 3.675,2.728 3.432,2.546 3.364,2.497 3.649,2.709 3.406,2.528 3.691,2.739 3.624,2.689 3.38,2.509 3.665,2.72 3.422,2.54 3.354,2.49 3.64,2.701 3.396,2.52 3.681,2.732 3.614,2.683 3.37,2.501 3.656,2.713 3.411,2.532 3.697,2.744 3.63,2.694 3.386,2.513 3.672,2.725 3.428,2.544 3.36,2.494 3.646,2.706 3.402,2.525 3.687,2.737 3.62,2.686 3.376,2.506 3.662,2.718 3.418,2.537 3.35,2.486 3.636,2.699 1.406,1.043"
                           inkscape:connector-curvature="0" /><path
                           id="path19319"
                           style="fill:none;stroke:#2d708c;stroke-width:1.079;stroke-linecap:square;stroke-linejoin:miter;stroke-miterlimit:3.25;stroke-opacity:0.5;stroke-dasharray:1, 4;stroke-dashoffset:0"
                           d="m 227,102.05 0.053,0.026 0.053,0.026 0.106,0.053 0.212,0.105 0.423,0.209 0.848,0.42 1.695,0.838 3.675,1.819 3.432,1.698 3.364,1.664 3.649,1.806 3.406,1.685 3.691,1.826 3.624,1.793 3.38,1.673 3.665,1.813 3.422,1.693 3.354,1.66 3.64,1.801 3.396,1.68 3.681,1.822 3.614,1.788 3.37,1.667 3.656,1.809 3.411,1.688 3.697,1.829 3.63,1.796 3.386,1.676 3.672,1.816 3.428,1.696 3.36,1.663 3.646,1.804 3.402,1.683 3.687,1.825 3.62,1.791 3.376,1.67 3.662,1.812 3.418,1.691 3.35,1.658 3.636,1.799 3.392,1.679 3.678,1.819 3.434,1.699 3.366,1.666 3.652,1.807 3.408,1.686 3.693,1.828 3.626,1.794 3.383,1.673 3.667,1.815 3.424,1.694 3.357,1.661 3.642,1.802 3.398,1.681 0.06,0.03 0.059,0.029 0.119,0.059 0.237,0.117 0.474,0.235 0.948,0.469 0.059,0.029 0.06,0.03 0.118,0.058 0.237,0.118 0.475,0.234 0.059,0.03 0.059,0.029 0.119,0.059 0.237,0.117 0.059,0.029 0.059,0.03 0.119,0.058 0.059,0.03 0.059,0.029 0.06,0.029 0.059,0.029"
                           inkscape:connector-curvature="0" /><path
                           id="path19321"
                           style="fill:none;stroke:#2d708c;stroke-width:1.079;stroke-linecap:square;stroke-linejoin:miter;stroke-miterlimit:3.25;stroke-opacity:0.5;stroke-dasharray:1, 4;stroke-dashoffset:0"
                           d="m 227,102.05 0.053,0.013 0.053,0.013 0.106,0.026 0.212,0.053 0.423,0.105 0.848,0.209 1.695,0.42 3.675,0.909 3.432,0.849 3.364,0.832 3.649,0.903 3.406,0.843 3.691,0.913 3.624,0.896 3.38,0.836 3.665,0.907 3.422,0.847 3.354,0.83 3.64,0.9 3.396,0.84 3.681,0.911 3.614,0.894 3.37,0.834 3.656,0.904 3.411,0.844 3.697,0.915 3.63,0.898 3.386,0.837 3.672,0.909 3.428,0.848 3.36,0.831 3.646,0.902 3.402,0.842 3.687,0.912 3.62,0.895 3.376,0.836 3.662,0.906 3.418,0.845 3.35,0.829 3.636,0.9 3.392,0.839 3.678,0.91 3.434,0.849 3.366,0.833 3.652,0.903 3.408,0.844 3.693,0.913 3.626,0.897 3.383,0.837 3.667,0.907 3.424,0.848 3.357,0.83 3.642,0.901 3.398,0.841 0.06,0.014 0.059,0.015 0.119,0.029 0.237,0.059 0.474,0.117 0.948,0.235 0.059,0.015 0.06,0.014 0.118,0.03 0.237,0.058 0.475,0.118 0.059,0.014 0.059,0.015 0.119,0.029 0.237,0.059 0.059,0.015 0.059,0.014 0.119,0.03 0.059,0.014 0.059,0.015 0.06,0.015 0.059,0.014"
                           inkscape:connector-curvature="0" /><path
                           id="path19323"
                           style="fill:none;stroke:#2d708c;stroke-width:1.079;stroke-linecap:square;stroke-linejoin:miter;stroke-miterlimit:3.25;stroke-opacity:0.5;stroke-dasharray:1, 4;stroke-dashoffset:0"
                           d="m 227,102.05 0.053,-0.013 0.053,-0.013 0.106,-0.026 0.212,-0.053 0.423,-0.105 0.848,-0.209 1.695,-0.42 3.675,-0.909 3.432,-0.849 3.364,-0.832 3.649,-0.903 3.406,-0.843 3.691,-0.913 3.624,-0.896 3.38,-0.836 3.665,-0.907 3.422,-0.847 3.354,-0.83 3.64,-0.9 3.396,-0.84 3.681,-0.911 3.614,-0.894 3.37,-0.834 3.656,-0.904 3.411,-0.844 3.697,-0.915 3.63,-0.898 3.386,-0.837 3.672,-0.909 3.428,-0.848 3.36,-0.831 3.646,-0.902 3.402,-0.842 3.687,-0.912 3.62,-0.895 3.376,-0.836 3.662,-0.906 3.418,-0.845 3.35,-0.829 3.636,-0.9 3.392,-0.839 3.678,-0.91 3.434,-0.849 3.366,-0.833 3.652,-0.903 3.408,-0.844 3.693,-0.913 3.626,-0.897 3.383,-0.837 3.667,-0.907 3.424,-0.848 3.357,-0.83 3.642,-0.901 3.398,-0.841 0.06,-0.014 0.059,-0.015 0.119,-0.029 0.237,-0.059 0.474,-0.117 0.948,-0.235 0.059,-0.015 0.06,-0.014 0.118,-0.03 0.237,-0.058 0.475,-0.118 0.059,-0.014 0.059,-0.015 0.119,-0.029 0.237,-0.059 0.059,-0.015 0.059,-0.014 0.119,-0.03 0.059,-0.014 0.059,-0.015 0.06,-0.015 0.059,-0.014"
                           inkscape:connector-curvature="0" /><path
                           id="path19325"
                           style="fill:none;stroke:#2d708c;stroke-width:1.079;stroke-linecap:square;stroke-linejoin:miter;stroke-miterlimit:3.25;stroke-opacity:0.5;stroke-dasharray:1, 4;stroke-dashoffset:0"
                           d="m 227,102.05 0.053,-0.026 0.053,-0.026 0.106,-0.053 0.212,-0.105 0.423,-0.209 0.848,-0.42 1.695,-0.838 3.675,-1.819 3.432,-1.698 3.364,-1.664 3.649,-1.806 3.406,-1.685 3.691,-1.826 3.624,-1.793 3.38,-1.673 3.665,-1.813 3.422,-1.693 3.354,-1.66 3.64,-1.801 3.396,-1.68 3.681,-1.822 3.614,-1.788 3.37,-1.667 3.656,-1.809 3.411,-1.688 3.697,-1.829 3.63,-1.796 3.386,-1.676 3.672,-1.816 3.428,-1.696 3.36,-1.663 3.646,-1.804 3.402,-1.683 3.687,-1.825 3.62,-1.791 3.376,-1.67 3.662,-1.812 3.418,-1.691 3.35,-1.658 3.636,-1.799 3.392,-1.679 3.678,-1.819 3.434,-1.699 3.366,-1.666 3.652,-1.807 3.408,-1.686 3.693,-1.828 3.626,-1.794 3.383,-1.673 3.667,-1.815 3.424,-1.694 3.357,-1.661 3.642,-1.802 3.398,-1.681 0.06,-0.03 0.059,-0.029 0.119,-0.059 0.237,-0.117 0.474,-0.235 0.948,-0.469 0.059,-0.029 0.06,-0.03 0.118,-0.058 0.237,-0.118 0.475,-0.234 0.059,-0.03 0.059,-0.029 0.119,-0.059 0.237,-0.117 0.059,-0.029 0.059,-0.03 0.119,-0.058 0.059,-0.03 0.059,-0.029 0.06,-0.029 0.059,-0.029"
                           inkscape:connector-curvature="0" /><path
                           id="path19327"
                           style="fill:none;stroke:#2d708c;stroke-width:1.079;stroke-linecap:square;stroke-linejoin:miter;stroke-miterlimit:3.25;stroke-opacity:0.5;stroke-dasharray:1, 4;stroke-dashoffset:0"
                           d="m 227,102.05 0.053,-0.039 0.053,-0.04 0.106,-0.078 0.212,-0.157 0.423,-0.315 0.848,-0.629 1.695,-1.258 3.675,-2.728 3.432,-2.546 3.364,-2.497 3.649,-2.709 3.406,-2.528 3.691,-2.739 3.624,-2.689 3.38,-2.509 3.665,-2.72 3.422,-2.54 3.354,-2.49 3.64,-2.701 3.396,-2.52 3.681,-2.732 3.614,-2.683 3.37,-2.501 3.656,-2.713 3.411,-2.532 3.697,-2.744 3.63,-2.694 3.386,-2.513 3.672,-2.725 3.428,-2.544 3.36,-2.494 3.646,-2.706 3.402,-2.525 3.687,-2.737 3.62,-2.686 3.376,-2.506 3.662,-2.718 3.418,-2.537 3.35,-2.486 3.636,-2.699 1.406,-1.043"
                           inkscape:connector-curvature="0" /><path
                           id="path19329"
                           style="fill:none;stroke:#000000;stroke-width:1.43900001;stroke-linecap:square;stroke-linejoin:miter;stroke-miterlimit:3.25;stroke-opacity:1;stroke-dasharray:4, 4;stroke-dashoffset:0"
                           d="m 227,102.05 0.053,0.052 0.053,0.053 0.106,0.105 0.212,0.209 0.423,0.42 0.848,0.838 1.695,1.678 3.675,3.636 3.432,3.396 3.364,3.329 3.649,3.612 3.406,3.37 3.691,3.653 3.624,3.586 3.38,3.345 3.665,3.627 3.422,3.386 3.354,3.319 3.64,3.602 3.396,3.36 3.681,3.643 3.614,3.576 3.37,3.336 3.656,3.617 3.411,3.376 3.697,3.659 3.63,3.592 3.386,3.351 3.672,3.633 3.428,3.392 3.36,3.325 3.646,3.608 3.402,3.367 3.687,3.649 3.62,3.582 3.376,3.341 3.662,3.623 3.418,3.383 3.35,3.315 3.636,3.598 3.392,3.357 3.678,3.639 3.434,3.399 3.366,3.331 3.652,3.614 3.408,3.372 3.693,3.655 3.626,3.588 3.383,3.348 3.667,3.629 3.424,3.388 3.357,3.322 3.642,3.604 3.398,3.363 0.06,0.059 0.059,0.058 0.119,0.118 0.237,0.234 0.474,0.469 0.948,0.939 0.059,0.059 0.06,0.058 0.118,0.118 0.237,0.234 0.475,0.469 0.059,0.059 0.059,0.059 0.119,0.117 0.237,0.235 0.059,0.058 0.059,0.059 0.119,0.117 0.059,0.059 0.059,0.059 0.06,0.058 0.059,0.059"
                           inkscape:connector-curvature="0" /><path
                           id="path19331"
                           style="fill:none;stroke:#000000;stroke-width:1.43900001;stroke-linecap:square;stroke-linejoin:miter;stroke-miterlimit:3.25;stroke-opacity:1;stroke-dasharray:4, 4;stroke-dashoffset:0"
                           d="m 227,102.05 0.053,-0.052 0.053,-0.053 0.106,-0.105 0.212,-0.209 0.423,-0.42 0.848,-0.838 1.695,-1.678 3.675,-3.636 3.432,-3.396 3.364,-3.329 3.649,-3.612 3.406,-3.37 3.691,-3.653 3.624,-3.586 3.38,-3.345 3.665,-3.627 3.422,-3.386 3.354,-3.319 3.64,-3.602 3.396,-3.36 3.681,-3.643 3.614,-3.576 3.37,-3.336 3.656,-3.617 3.411,-3.376 3.697,-3.659 3.63,-3.592 3.386,-3.351 3.672,-3.633 3.428,-3.392 3.36,-3.325 3.646,-3.608 3.402,-3.367 3.687,-3.649 3.62,-3.582 3.376,-3.341 3.662,-3.623 3.418,-3.383 3.35,-3.315 3.636,-3.598 3.392,-3.357 3.678,-3.639 3.434,-3.399 3.366,-3.331 3.652,-3.614 3.408,-3.372 3.693,-3.655 3.626,-3.588 3.383,-3.348 3.667,-3.629 3.424,-3.388 3.357,-3.322 3.642,-3.604 3.398,-3.363 0.06,-0.059 0.059,-0.058 0.119,-0.118 0.237,-0.234 0.474,-0.469 0.948,-0.939 0.059,-0.059 0.06,-0.058 0.118,-0.118 0.237,-0.234 0.475,-0.469 0.059,-0.059 0.059,-0.059 0.119,-0.117 0.237,-0.235 0.059,-0.058 0.059,-0.059 0.119,-0.117 0.059,-0.059 0.059,-0.059 0.06,-0.058 0.059,-0.059"
                           inkscape:connector-curvature="0" /><path
                           id="path19333"
                           style="fill:#2d708c;fill-opacity:0.3;fill-rule:evenodd;stroke:none"
                           d="m 54.296,192 0,-179.9 263.601,0 L 136.103,192"
                           inkscape:connector-curvature="0" /><path
                           id="path19335"
                           style="fill:#2d708c;fill-opacity:0.3;fill-rule:evenodd;stroke:none"
                           d="M 136.103,84.06 63.386,12.1 l 145.435,0"
                           inkscape:connector-curvature="0" /><path
                           id="path19337"
                           style="fill:none;stroke:#000000;stroke-width:0.5;stroke-linecap:square;stroke-linejoin:miter;stroke-miterlimit:3.25;stroke-opacity:1;stroke-dasharray:none"
                           d="M 63.386,12.1 136.103,84.06 208.821,12.1"
                           inkscape:connector-curvature="0" /><path
                           id="path19339"
                           style="fill:#000000;fill-opacity:1;fill-rule:evenodd;stroke:none"
                           d="m 137.902,84.06 c 0,-0.477 -0.189,-0.935 -0.527,-1.272 -0.337,-0.337 -0.795,-0.527 -1.272,-0.527 -0.477,0 -0.935,0.19 -1.272,0.527 -0.337,0.337 -0.527,0.795 -0.527,1.272 0,0.477 0.19,0.935 0.527,1.272 0.337,0.337 0.795,0.527 1.272,0.527 0.477,0 0.935,-0.19 1.272,-0.527 0.338,-0.337 0.527,-0.795 0.527,-1.272 z"
                           inkscape:connector-curvature="0" /></g><g
                         id="g19341"><path
                           id="path19343"
                           style="fill:none;stroke:#000000;stroke-width:0.2;stroke-linecap:butt;stroke-linejoin:miter;stroke-miterlimit:3.25;stroke-opacity:1;stroke-dasharray:none"
                           d="m 47.1,102.05 353.268,0"
                           inkscape:connector-curvature="0" /></g><path
                         id="path19345"
                         style="fill:#000000;fill-opacity:1;fill-rule:evenodd;stroke:none"
                         d="m 399.704,100.156 0.105,0.216 0.231,0.516 0.123,0.311 0.106,0.313 0.074,0.292 0.025,0.246 -0.025,0.222 -0.074,0.288 -0.106,0.324 -0.123,0.331 -0.231,0.564 -0.105,0.24 7.196,-1.969 -7.196,-1.894"
                         inkscape:connector-curvature="0" /><g
                         id="g19347"><path
                           id="path19349"
                           style="fill:none;stroke:#000000;stroke-width:0.2;stroke-linecap:butt;stroke-linejoin:miter;stroke-miterlimit:3.25;stroke-opacity:1;stroke-dasharray:none"
                           d="M 227,192 227,18.632"
                           inkscape:connector-curvature="0" /></g><path
                         id="path19351"
                         style="fill:#000000;fill-opacity:1;fill-rule:evenodd;stroke:none"
                         d="m 225.106,19.296 0.216,-0.105 0.516,-0.231 0.311,-0.123 0.313,-0.106 0.292,-0.074 0.246,-0.025 0.222,0.025 0.288,0.074 0.324,0.106 0.331,0.123 0.564,0.231 0.24,0.105 L 227,12.1 l -1.894,7.196"
                         inkscape:connector-curvature="0" /><g
                         id="g19353" /></g></g></g></g></g></g></g></g></g><g
       transform="matrix(0.55308681,0.13790004,-0.13790004,0.55308681,335.38422,12.419151)"
       id="g9779"><g
         style="font-style:normal;font-variant:normal;font-weight:normal;font-stretch:normal;letter-spacing:normal;word-spacing:normal;text-anchor:start;fill:none;stroke:#000000;stroke-linecap:butt;stroke-linejoin:miter;stroke-miterlimit:10.43299961;stroke-opacity:1;stroke-dasharray:none;stroke-dashoffset:0"
         id="content"
         transform="matrix(0.33910714,0,0,-0.33910714,-59.34375,337.5)"
         xml:space="preserve"
         stroke-miterlimit="10.433"
         font-style="normal"
         font-variant="normal"
         font-weight="normal"
         font-stretch="normal"
         font-size-adjust="none"
         letter-spacing="normal"
         word-spacing="normal"><path
           style="fill:#000000;stroke-width:0"
           inkscape:connector-curvature="0"
           d="m 479.83,420 0.05,0.16 0.04,0.17 0.04,0.15 0.04,0.16 0.04,0.16 0.03,0.15 0.03,0.16 0.03,0.17 0.02,0.17 0.03,0.17 0.01,0.09 0,0.09 0.01,0.1 0.01,0.1 0.01,0.1 0,0.1 0.01,0.1 0,0.11 0,0.12 0.01,0.11 0,0.12 0,0.13 c 0,3.23 -2,5.32 -5.74,5.32 -3.93,0 -6.53,-2.57 -7.71,-4.32 -0.25,2.84 -2.35,4.32 -4.6,4.32 -2.28,0 -3.23,-1.93 -3.69,-2.82 -0.89,-1.71 -1.54,-4.69 -1.54,-4.85 0,-0.5 0.5,-0.5 0.61,-0.5 0.5,0 0.54,0.07 0.84,1.16 0.84,3.53 1.84,5.92 3.64,5.92 0.84,0 1.55,-0.39 1.55,-2.28 0,-1.05 -0.16,-1.61 -0.8,-4.19 l -2.89,-11.51 c -0.16,-0.75 -0.45,-1.89 -0.45,-2.14 0,-0.89 0.7,-1.35 1.43,-1.35 0.61,0 1.5,0.39 1.85,1.39 0.06,0.11 0.65,2.44 0.95,3.69 l 1.1,4.48 c 0.29,1.1 0.59,2.19 0.84,3.35 0.11,0.3 0.5,1.94 0.55,2.23 0.15,0.46 1.7,3.25 3.39,4.6 1.09,0.79 2.64,1.73 4.78,1.73 2.14,0 2.69,-1.69 2.69,-3.48 0,-0.25 0,-1.14 -0.49,-3.14 l -5.69,-22.93 c -0.14,-0.59 -0.14,-0.68 -0.14,-0.79 0,-0.74 0.55,-1.35 1.39,-1.35 1.55,0 1.89,1.46 2.05,2 z"
           id="path9782" /><path
           style="fill:#000000;stroke-width:0"
           inkscape:connector-curvature="0"
           d="m 530.19,422.5 0.14,0 0.14,0 0.15,0 0.07,0.01 0.07,0 0.08,0.01 0.07,0.01 0.07,0.01 0.07,0.01 0.07,0.01 0.06,0.02 0.07,0.02 0.06,0.02 0.06,0.02 0.06,0.03 0.06,0.03 0.05,0.04 0.05,0.03 0.05,0.05 0.04,0.04 0.04,0.05 0.02,0.03 0.01,0.03 0.02,0.02 0.02,0.03 0.01,0.03 0.01,0.04 0.02,0.03 0.01,0.04 0.01,0.03 0,0.04 0.01,0.04 0.01,0.04 0,0.04 0.01,0.04 0,0.04 0,0.05 c 0,1 -0.95,1 -1.64,1 h -29.85 c -0.7,0 -1.64,0 -1.64,-1 0,-0.98 0.94,-0.98 1.69,-0.98 z"
           id="path9784" /><path
           style="fill:#000000;stroke-width:0"
           inkscape:connector-curvature="0"
           d="m 530.24,412.82 0.06,0 0.07,0 0.14,0.01 0.13,0 0.07,0 0.07,0.01 0.07,0.01 0.07,0 0.07,0.01 0.07,0.02 0.07,0.01 0.06,0.02 0.06,0.02 0.07,0.02 0.06,0.02 0.05,0.03 0.06,0.03 0.05,0.04 0.05,0.04 0.05,0.04 0.04,0.05 0.02,0.02 0.02,0.03 0.02,0.02 0.01,0.03 0.02,0.03 0.02,0.03 0.01,0.03 0.01,0.03 0.02,0.04 0.01,0.03 0.01,0.04 0,0.04 0.01,0.04 0.01,0.04 0,0.04 0.01,0.04 0,0.05 0,0.04 c 0,1 -0.95,1 -1.69,1 h -29.75 c -0.75,0 -1.69,0 -1.69,-1 0,-1 0.94,-1 1.64,-1 z"
           id="path9786" /><path
           style="fill:#000000;stroke-width:0"
           inkscape:connector-curvature="0"
           d="m 568.25,425.14 -0.15,0 -0.14,0 -0.15,-0.01 -0.14,0 -0.14,-0.01 -0.14,-0.02 -0.07,-0.01 -0.07,-0.01 -0.07,-0.02 -0.07,-0.01 -0.06,-0.02 -0.07,-0.02 -0.07,-0.02 -0.07,-0.02 -0.06,-0.03 -0.07,-0.03 -0.07,-0.03 -0.06,-0.04 -0.07,-0.04 -0.07,-0.04 -0.06,-0.05 -0.07,-0.04 -0.07,-0.06 -0.06,-0.05 -0.07,-0.06 -0.06,-0.07 c -0.8,-0.75 -0.89,-1.59 -0.89,-1.93 0,-1.21 0.89,-1.75 1.84,-1.75 1.44,0 2.8,1.2 2.8,3.18 0,2.44 -2.35,4.28 -5.89,4.28 -6.72,0 -13.35,-7.12 -13.35,-14.14 0,-4.48 2.89,-8.42 8.06,-8.42 7.13,0 11.32,5.28 11.32,5.88 0,0.29 -0.3,0.65 -0.6,0.65 -0.25,0 -0.34,-0.11 -0.65,-0.5 -3.94,-4.93 -9.36,-4.93 -9.96,-4.93 -3.14,0 -4.48,2.43 -4.48,5.43 0,2.03 0.98,6.88 2.69,9.96 1.54,2.84 4.28,4.98 7.01,4.98 1.71,0 3.6,-0.64 4.3,-1.98 z"
           id="path9788" /><path
           style="fill:#000000;stroke-width:0"
           inkscape:connector-curvature="0"
           d="m 593.47,419.79 -0.01,0.48 -0.03,0.47 -0.05,0.46 -0.07,0.44 -0.08,0.44 -0.11,0.42 -0.12,0.4 -0.14,0.4 -0.16,0.38 -0.17,0.36 -0.19,0.36 -0.21,0.34 -0.22,0.32 -0.23,0.31 -0.25,0.3 -0.26,0.28 -0.27,0.26 -0.29,0.25 -0.3,0.24 -0.31,0.22 -0.33,0.2 -0.33,0.19 -0.34,0.17 -0.36,0.15 -0.36,0.13 -0.38,0.12 -0.38,0.1 -0.39,0.09 -0.39,0.06 -0.41,0.05 -0.41,0.03 -0.42,0 c -6.67,0 -13.34,-7.06 -13.34,-14.14 0,-4.93 3.33,-8.42 7.97,-8.42 l 0.05,1.1 c -2.15,0 -4.33,1.54 -4.33,5.43 0,2.44 1.3,7.82 2.89,10.36 2.48,3.83 5.33,4.58 6.72,4.58 2.89,0 4.39,-2.39 4.39,-5.37 0,-1.96 -1,-7.18 -2.89,-10.43 -1.75,-2.89 -4.49,-4.57 -6.78,-4.57 h 0 l -0.05,-1.1 c 6.62,0 13.34,6.88 13.34,14.14 z"
           id="path9790" /><path
           style="fill:#000000;stroke-width:0"
           inkscape:connector-curvature="0"
           d="m 598.62,409.14 -0.01,-0.07 -0.02,-0.08 -0.02,-0.07 -0.01,-0.08 -0.04,-0.16 -0.04,-0.16 -0.03,-0.16 -0.04,-0.16 -0.04,-0.16 -0.03,-0.16 -0.02,-0.08 -0.02,-0.07 -0.01,-0.07 -0.02,-0.07 -0.01,-0.07 -0.02,-0.07 -0.01,-0.06 -0.01,-0.06 -0.01,-0.06 -0.01,-0.05 -0.01,-0.05 -0.01,-0.04 0,-0.04 -0.01,-0.04 0,-0.03 0,-0.02 c 0,-0.89 0.7,-1.35 1.43,-1.35 0.62,0 1.5,0.39 1.85,1.39 0.06,0.11 0.65,2.44 0.95,3.69 l 1.1,4.48 c 0.29,1.1 0.59,2.19 0.84,3.35 0.2,0.84 0.61,2.28 0.66,2.48 0.75,1.55 3.39,6.08 8.1,6.08 2.25,0 2.71,-1.84 2.71,-3.48 0,-3.1 -2.46,-9.47 -3.25,-11.61 -0.44,-1.14 -0.49,-1.75 -0.49,-2.3 0,-2.33 1.74,-4.08 4.08,-4.08 4.69,0 6.53,7.27 6.53,7.67 0,0.5 -0.45,0.5 -0.61,0.5 -0.48,0 -0.48,-0.15 -0.73,-0.9 -1,-3.38 -2.64,-6.17 -5.09,-6.17 -0.85,0 -1.19,0.5 -1.19,1.64 0,1.25 0.45,2.45 0.89,3.54 0.95,2.64 3.05,8.11 3.05,10.96 0,3.34 -2.15,5.32 -5.74,5.32 -4.48,0 -6.92,-3.18 -7.76,-4.32 -0.25,2.79 -2.3,4.32 -4.6,4.32 -2.28,0 -3.23,-1.93 -3.73,-2.82 -0.8,-1.71 -1.5,-4.64 -1.5,-4.85 0,-0.5 0.5,-0.5 0.61,-0.5 0.5,0 0.54,0.07 0.84,1.16 0.85,3.53 1.85,5.92 3.64,5.92 0.99,0 1.55,-0.64 1.55,-2.28 0,-1.05 -0.16,-1.61 -0.8,-4.19 z"
           id="path9792" /><path
           style="fill:#000000;stroke-width:0"
           inkscape:connector-curvature="0"
           d="m 643.59,424.84 -0.13,-0.01 -0.12,-0.01 -0.13,-0.02 -0.12,-0.03 -0.12,-0.03 -0.12,-0.04 -0.11,-0.04 -0.11,-0.04 -0.11,-0.05 -0.1,-0.06 -0.1,-0.06 -0.1,-0.06 -0.09,-0.07 -0.09,-0.07 -0.09,-0.07 -0.08,-0.08 -0.08,-0.08 -0.07,-0.08 -0.07,-0.09 -0.06,-0.08 -0.06,-0.09 -0.06,-0.1 -0.05,-0.09 -0.04,-0.1 -0.04,-0.09 -0.04,-0.1 -0.03,-0.1 -0.02,-0.1 -0.02,-0.1 -0.02,-0.11 0,-0.1 -0.01,-0.1 c 0,-0.7 0.44,-1.44 1.55,-1.44 1.09,0 2.28,0.85 2.28,2.78 0,2.25 -2.14,4.28 -5.92,4.28 -6.58,0 -8.42,-5.07 -8.42,-7.26 0,-3.89 3.69,-4.64 5.12,-4.94 2.6,-0.5 5.19,-1.05 5.19,-3.78 0,-1.3 -1.14,-5.48 -7.12,-5.48 -0.71,0 -4.54,0 -5.69,2.64 1.9,-0.25 3.14,1.25 3.14,2.64 0,1.14 -0.8,1.75 -1.85,1.75 -1.29,0 -2.78,-1.05 -2.78,-3.3 0,-2.84 2.85,-4.83 7.13,-4.83 8.06,0 10.01,6.03 10.01,8.27 0,1.79 -0.95,3.04 -1.54,3.64 -1.35,1.39 -2.8,1.64 -4.99,2.09 -1.79,0.39 -3.78,0.75 -3.78,2.99 0,1.45 1.19,4.48 5.58,4.48 1.23,0 3.73,-0.34 4.48,-2.28 z"
           id="path9794" /><path
           style="fill:#000000;stroke-width:0"
           inkscape:connector-curvature="0"
           d="m 657.77,426.12 h 4.69 c 0.99,0 1.49,0 1.49,1 0,0.55 -0.5,0.55 -1.4,0.55 h -4.39 c 1.8,7.08 2.05,8.08 2.05,8.37 0,0.85 -0.59,1.35 -1.44,1.35 -0.15,0 -1.54,-0.05 -2,-1.8 l -1.93,-7.92 h -4.69 c -1,0 -1.5,0 -1.5,-0.94 0,-0.61 0.4,-0.61 1.4,-0.61 h 4.38 c -3.58,-14.14 -3.78,-14.98 -3.78,-15.89 0,-2.69 1.89,-4.58 4.58,-4.58 5.07,0 7.92,7.27 7.92,7.67 0,0.5 -0.39,0.5 -0.6,0.5 -0.45,0 -0.5,-0.15 -0.75,-0.7 -2.14,-5.17 -4.78,-6.37 -6.46,-6.37 -1.05,0 -1.55,0.65 -1.55,2.29 0,1.19 0.09,1.55 0.3,2.39 z"
           id="path9796" /><path
           style="fill:#000000;stroke-width:0"
           inkscape:connector-curvature="0"
           d="m 675.07,408.84 0,0.13 -0.01,0.14 -0.02,0.13 -0.02,0.13 -0.03,0.12 -0.04,0.13 -0.04,0.12 -0.05,0.12 -0.05,0.12 -0.06,0.11 -0.06,0.11 -0.07,0.11 -0.08,0.1 -0.07,0.1 -0.09,0.1 -0.09,0.09 -0.09,0.09 -0.09,0.08 -0.1,0.08 -0.11,0.07 -0.1,0.07 -0.11,0.07 -0.12,0.06 -0.11,0.05 -0.12,0.05 -0.13,0.04 -0.12,0.04 -0.13,0.03 -0.13,0.02 -0.13,0.02 -0.13,0.01 -0.14,0 c -1.44,0 -2.64,-1.2 -2.64,-2.64 0,-1.44 1.2,-2.64 2.64,-2.64 1.45,0 2.64,1.2 2.64,2.64 z"
           id="path9798" /></g></g><g
       transform="matrix(0.5176248,-0.12905835,0.12905835,0.5176248,287.14151,-22.301021)"
       id="g10982"><g
         style="font-style:normal;font-variant:normal;font-weight:normal;font-stretch:normal;letter-spacing:normal;word-spacing:normal;text-anchor:start;fill:none;stroke:#000000;stroke-linecap:butt;stroke-linejoin:miter;stroke-miterlimit:10.43299961;stroke-opacity:1;stroke-dasharray:none;stroke-dashoffset:0"
         word-spacing="normal"
         letter-spacing="normal"
         font-size-adjust="none"
         font-stretch="normal"
         font-weight="normal"
         font-variant="normal"
         font-style="normal"
         stroke-miterlimit="10.433"
         xml:space="preserve"
         transform="matrix(0.33910714,0,0,-0.33910714,-59.34375,337.5)"
         id="g10984"><path
           style="fill:#000000;stroke-width:0"
           inkscape:connector-curvature="0"
           id="path10986"
           d="m 479.83,420 0.05,0.16 0.04,0.17 0.04,0.15 0.04,0.16 0.04,0.16 0.03,0.15 0.03,0.16 0.03,0.17 0.02,0.17 0.03,0.17 0.01,0.09 0,0.09 0.01,0.1 0.01,0.1 0.01,0.1 0,0.1 0.01,0.1 0,0.11 0,0.12 0.01,0.11 0,0.12 0,0.13 c 0,3.23 -2,5.32 -5.74,5.32 -3.93,0 -6.53,-2.57 -7.71,-4.32 -0.25,2.84 -2.35,4.32 -4.6,4.32 -2.28,0 -3.23,-1.93 -3.69,-2.82 -0.89,-1.71 -1.54,-4.69 -1.54,-4.85 0,-0.5 0.5,-0.5 0.61,-0.5 0.5,0 0.54,0.07 0.84,1.16 0.84,3.53 1.84,5.92 3.64,5.92 0.84,0 1.55,-0.39 1.55,-2.28 0,-1.05 -0.16,-1.61 -0.8,-4.19 l -2.89,-11.51 c -0.16,-0.75 -0.45,-1.89 -0.45,-2.14 0,-0.89 0.7,-1.35 1.43,-1.35 0.61,0 1.5,0.39 1.85,1.39 0.06,0.11 0.65,2.44 0.95,3.69 l 1.1,4.48 c 0.29,1.1 0.59,2.19 0.84,3.35 0.11,0.3 0.5,1.94 0.55,2.23 0.15,0.46 1.7,3.25 3.39,4.6 1.09,0.79 2.64,1.73 4.78,1.73 2.14,0 2.69,-1.69 2.69,-3.48 0,-0.25 0,-1.14 -0.49,-3.14 l -5.69,-22.93 c -0.14,-0.59 -0.14,-0.68 -0.14,-0.79 0,-0.74 0.55,-1.35 1.39,-1.35 1.55,0 1.89,1.46 2.05,2 z" /><path
           style="fill:#000000;stroke-width:0"
           inkscape:connector-curvature="0"
           id="path10988"
           d="m 530.19,422.5 0.14,0 0.14,0 0.15,0 0.07,0.01 0.07,0 0.08,0.01 0.07,0.01 0.07,0.01 0.07,0.01 0.07,0.01 0.06,0.02 0.07,0.02 0.06,0.02 0.06,0.02 0.06,0.03 0.06,0.03 0.05,0.04 0.05,0.03 0.05,0.05 0.04,0.04 0.04,0.05 0.02,0.03 0.01,0.03 0.02,0.02 0.02,0.03 0.01,0.03 0.01,0.04 0.02,0.03 0.01,0.04 0.01,0.03 0,0.04 0.01,0.04 0.01,0.04 0,0.04 0.01,0.04 0,0.04 0,0.05 c 0,1 -0.95,1 -1.64,1 h -29.85 c -0.7,0 -1.64,0 -1.64,-1 0,-0.98 0.94,-0.98 1.69,-0.98 z" /><path
           style="fill:#000000;stroke-width:0"
           inkscape:connector-curvature="0"
           id="path10990"
           d="m 530.24,412.82 0.06,0 0.07,0 0.14,0.01 0.13,0 0.07,0 0.07,0.01 0.07,0.01 0.07,0 0.07,0.01 0.07,0.02 0.07,0.01 0.06,0.02 0.06,0.02 0.07,0.02 0.06,0.02 0.05,0.03 0.06,0.03 0.05,0.04 0.05,0.04 0.05,0.04 0.04,0.05 0.02,0.02 0.02,0.03 0.02,0.02 0.01,0.03 0.02,0.03 0.02,0.03 0.01,0.03 0.01,0.03 0.02,0.04 0.01,0.03 0.01,0.04 0,0.04 0.01,0.04 0.01,0.04 0,0.04 0.01,0.04 0,0.05 0,0.04 c 0,1 -0.95,1 -1.69,1 h -29.75 c -0.75,0 -1.69,0 -1.69,-1 0,-1 0.94,-1 1.64,-1 z" /><path
           style="fill:#000000;stroke-width:0"
           inkscape:connector-curvature="0"
           id="path10992"
           d="m 568.25,425.14 -0.15,0 -0.14,0 -0.15,-0.01 -0.14,0 -0.14,-0.01 -0.14,-0.02 -0.07,-0.01 -0.07,-0.01 -0.07,-0.02 -0.07,-0.01 -0.06,-0.02 -0.07,-0.02 -0.07,-0.02 -0.07,-0.02 -0.06,-0.03 -0.07,-0.03 -0.07,-0.03 -0.06,-0.04 -0.07,-0.04 -0.07,-0.04 -0.06,-0.05 -0.07,-0.04 -0.07,-0.06 -0.06,-0.05 -0.07,-0.06 -0.06,-0.07 c -0.8,-0.75 -0.89,-1.59 -0.89,-1.93 0,-1.21 0.89,-1.75 1.84,-1.75 1.44,0 2.8,1.2 2.8,3.18 0,2.44 -2.35,4.28 -5.89,4.28 -6.72,0 -13.35,-7.12 -13.35,-14.14 0,-4.48 2.89,-8.42 8.06,-8.42 7.13,0 11.32,5.28 11.32,5.88 0,0.29 -0.3,0.65 -0.6,0.65 -0.25,0 -0.34,-0.11 -0.65,-0.5 -3.94,-4.93 -9.36,-4.93 -9.96,-4.93 -3.14,0 -4.48,2.43 -4.48,5.43 0,2.03 0.98,6.88 2.69,9.96 1.54,2.84 4.28,4.98 7.01,4.98 1.71,0 3.6,-0.64 4.3,-1.98 z" /><path
           style="fill:#000000;stroke-width:0"
           inkscape:connector-curvature="0"
           id="path10994"
           d="m 593.47,419.79 -0.01,0.48 -0.03,0.47 -0.05,0.46 -0.07,0.44 -0.08,0.44 -0.11,0.42 -0.12,0.4 -0.14,0.4 -0.16,0.38 -0.17,0.36 -0.19,0.36 -0.21,0.34 -0.22,0.32 -0.23,0.31 -0.25,0.3 -0.26,0.28 -0.27,0.26 -0.29,0.25 -0.3,0.24 -0.31,0.22 -0.33,0.2 -0.33,0.19 -0.34,0.17 -0.36,0.15 -0.36,0.13 -0.38,0.12 -0.38,0.1 -0.39,0.09 -0.39,0.06 -0.41,0.05 -0.41,0.03 -0.42,0 c -6.67,0 -13.34,-7.06 -13.34,-14.14 0,-4.93 3.33,-8.42 7.97,-8.42 l 0.05,1.1 c -2.15,0 -4.33,1.54 -4.33,5.43 0,2.44 1.3,7.82 2.89,10.36 2.48,3.83 5.33,4.58 6.72,4.58 2.89,0 4.39,-2.39 4.39,-5.37 0,-1.96 -1,-7.18 -2.89,-10.43 -1.75,-2.89 -4.49,-4.57 -6.78,-4.57 h 0 l -0.05,-1.1 c 6.62,0 13.34,6.88 13.34,14.14 z" /><path
           style="fill:#000000;stroke-width:0"
           inkscape:connector-curvature="0"
           id="path10996"
           d="m 598.62,409.14 -0.01,-0.07 -0.02,-0.08 -0.02,-0.07 -0.01,-0.08 -0.04,-0.16 -0.04,-0.16 -0.03,-0.16 -0.04,-0.16 -0.04,-0.16 -0.03,-0.16 -0.02,-0.08 -0.02,-0.07 -0.01,-0.07 -0.02,-0.07 -0.01,-0.07 -0.02,-0.07 -0.01,-0.06 -0.01,-0.06 -0.01,-0.06 -0.01,-0.05 -0.01,-0.05 -0.01,-0.04 0,-0.04 -0.01,-0.04 0,-0.03 0,-0.02 c 0,-0.89 0.7,-1.35 1.43,-1.35 0.62,0 1.5,0.39 1.85,1.39 0.06,0.11 0.65,2.44 0.95,3.69 l 1.1,4.48 c 0.29,1.1 0.59,2.19 0.84,3.35 0.2,0.84 0.61,2.28 0.66,2.48 0.75,1.55 3.39,6.08 8.1,6.08 2.25,0 2.71,-1.84 2.71,-3.48 0,-3.1 -2.46,-9.47 -3.25,-11.61 -0.44,-1.14 -0.49,-1.75 -0.49,-2.3 0,-2.33 1.74,-4.08 4.08,-4.08 4.69,0 6.53,7.27 6.53,7.67 0,0.5 -0.45,0.5 -0.61,0.5 -0.48,0 -0.48,-0.15 -0.73,-0.9 -1,-3.38 -2.64,-6.17 -5.09,-6.17 -0.85,0 -1.19,0.5 -1.19,1.64 0,1.25 0.45,2.45 0.89,3.54 0.95,2.64 3.05,8.11 3.05,10.96 0,3.34 -2.15,5.32 -5.74,5.32 -4.48,0 -6.92,-3.18 -7.76,-4.32 -0.25,2.79 -2.3,4.32 -4.6,4.32 -2.28,0 -3.23,-1.93 -3.73,-2.82 -0.8,-1.71 -1.5,-4.64 -1.5,-4.85 0,-0.5 0.5,-0.5 0.61,-0.5 0.5,0 0.54,0.07 0.84,1.16 0.85,3.53 1.85,5.92 3.64,5.92 0.99,0 1.55,-0.64 1.55,-2.28 0,-1.05 -0.16,-1.61 -0.8,-4.19 z" /><path
           style="fill:#000000;stroke-width:0"
           inkscape:connector-curvature="0"
           id="path10998"
           d="m 643.59,424.84 -0.13,-0.01 -0.12,-0.01 -0.13,-0.02 -0.12,-0.03 -0.12,-0.03 -0.12,-0.04 -0.11,-0.04 -0.11,-0.04 -0.11,-0.05 -0.1,-0.06 -0.1,-0.06 -0.1,-0.06 -0.09,-0.07 -0.09,-0.07 -0.09,-0.07 -0.08,-0.08 -0.08,-0.08 -0.07,-0.08 -0.07,-0.09 -0.06,-0.08 -0.06,-0.09 -0.06,-0.1 -0.05,-0.09 -0.04,-0.1 -0.04,-0.09 -0.04,-0.1 -0.03,-0.1 -0.02,-0.1 -0.02,-0.1 -0.02,-0.11 0,-0.1 -0.01,-0.1 c 0,-0.7 0.44,-1.44 1.55,-1.44 1.09,0 2.28,0.85 2.28,2.78 0,2.25 -2.14,4.28 -5.92,4.28 -6.58,0 -8.42,-5.07 -8.42,-7.26 0,-3.89 3.69,-4.64 5.12,-4.94 2.6,-0.5 5.19,-1.05 5.19,-3.78 0,-1.3 -1.14,-5.48 -7.12,-5.48 -0.71,0 -4.54,0 -5.69,2.64 1.9,-0.25 3.14,1.25 3.14,2.64 0,1.14 -0.8,1.75 -1.85,1.75 -1.29,0 -2.78,-1.05 -2.78,-3.3 0,-2.84 2.85,-4.83 7.13,-4.83 8.06,0 10.01,6.03 10.01,8.27 0,1.79 -0.95,3.04 -1.54,3.64 -1.35,1.39 -2.8,1.64 -4.99,2.09 -1.79,0.39 -3.78,0.75 -3.78,2.99 0,1.45 1.19,4.48 5.58,4.48 1.23,0 3.73,-0.34 4.48,-2.28 z" /><path
           style="fill:#000000;stroke-width:0"
           inkscape:connector-curvature="0"
           id="path11000"
           d="m 657.77,426.12 h 4.69 c 0.99,0 1.49,0 1.49,1 0,0.55 -0.5,0.55 -1.4,0.55 h -4.39 c 1.8,7.08 2.05,8.08 2.05,8.37 0,0.85 -0.59,1.35 -1.44,1.35 -0.15,0 -1.54,-0.05 -2,-1.8 l -1.93,-7.92 h -4.69 c -1,0 -1.5,0 -1.5,-0.94 0,-0.61 0.4,-0.61 1.4,-0.61 h 4.38 c -3.58,-14.14 -3.78,-14.98 -3.78,-15.89 0,-2.69 1.89,-4.58 4.58,-4.58 5.07,0 7.92,7.27 7.92,7.67 0,0.5 -0.39,0.5 -0.6,0.5 -0.45,0 -0.5,-0.15 -0.75,-0.7 -2.14,-5.17 -4.78,-6.37 -6.46,-6.37 -1.05,0 -1.55,0.65 -1.55,2.29 0,1.19 0.09,1.55 0.3,2.39 z" /><path
           style="fill:#000000;stroke-width:0"
           inkscape:connector-curvature="0"
           id="path11002"
           d="m 675.07,408.84 0,0.13 -0.01,0.14 -0.02,0.13 -0.02,0.13 -0.03,0.12 -0.04,0.13 -0.04,0.12 -0.05,0.12 -0.05,0.12 -0.06,0.11 -0.06,0.11 -0.07,0.11 -0.08,0.1 -0.07,0.1 -0.09,0.1 -0.09,0.09 -0.09,0.09 -0.09,0.08 -0.1,0.08 -0.11,0.07 -0.1,0.07 -0.11,0.07 -0.12,0.06 -0.11,0.05 -0.12,0.05 -0.13,0.04 -0.12,0.04 -0.13,0.03 -0.13,0.02 -0.13,0.02 -0.13,0.01 -0.14,0 c -1.44,0 -2.64,-1.2 -2.64,-2.64 0,-1.44 1.2,-2.64 2.64,-2.64 1.45,0 2.64,1.2 2.64,2.64 z" /></g></g><g
       transform="matrix(0.53320511,0,0,0.53320511,259.03243,-98.117386)"
       id="g12208"><g
         style="font-style:normal;font-variant:normal;font-weight:normal;font-stretch:normal;letter-spacing:normal;word-spacing:normal;text-anchor:start;fill:none;stroke:#000000;stroke-linecap:butt;stroke-linejoin:miter;stroke-miterlimit:10.43299961;stroke-opacity:1;stroke-dasharray:none;stroke-dashoffset:0"
         id="g12210"
         transform="matrix(0.33910714,0,0,-0.33910714,-59.34375,337.5)"
         xml:space="preserve"
         stroke-miterlimit="10.433"
         font-style="normal"
         font-variant="normal"
         font-weight="normal"
         font-stretch="normal"
         font-size-adjust="none"
         letter-spacing="normal"
         word-spacing="normal"><path
           style="fill:#000000;stroke-width:0"
           inkscape:connector-curvature="0"
           d="m 479.83,420 0.05,0.16 0.04,0.17 0.04,0.15 0.04,0.16 0.04,0.16 0.03,0.15 0.03,0.16 0.03,0.17 0.02,0.17 0.03,0.17 0.01,0.09 0,0.09 0.01,0.1 0.01,0.1 0.01,0.1 0,0.1 0.01,0.1 0,0.11 0,0.12 0.01,0.11 0,0.12 0,0.13 c 0,3.23 -2,5.32 -5.74,5.32 -3.93,0 -6.53,-2.57 -7.71,-4.32 -0.25,2.84 -2.35,4.32 -4.6,4.32 -2.28,0 -3.23,-1.93 -3.69,-2.82 -0.89,-1.71 -1.54,-4.69 -1.54,-4.85 0,-0.5 0.5,-0.5 0.61,-0.5 0.5,0 0.54,0.07 0.84,1.16 0.84,3.53 1.84,5.92 3.64,5.92 0.84,0 1.55,-0.39 1.55,-2.28 0,-1.05 -0.16,-1.61 -0.8,-4.19 l -2.89,-11.51 c -0.16,-0.75 -0.45,-1.89 -0.45,-2.14 0,-0.89 0.7,-1.35 1.43,-1.35 0.61,0 1.5,0.39 1.85,1.39 0.06,0.11 0.65,2.44 0.95,3.69 l 1.1,4.48 c 0.29,1.1 0.59,2.19 0.84,3.35 0.11,0.3 0.5,1.94 0.55,2.23 0.15,0.46 1.7,3.25 3.39,4.6 1.09,0.79 2.64,1.73 4.78,1.73 2.14,0 2.69,-1.69 2.69,-3.48 0,-0.25 0,-1.14 -0.49,-3.14 l -5.69,-22.93 c -0.14,-0.59 -0.14,-0.68 -0.14,-0.79 0,-0.74 0.55,-1.35 1.39,-1.35 1.55,0 1.89,1.46 2.05,2 z"
           id="path12212" /><path
           style="fill:#000000;stroke-width:0"
           inkscape:connector-curvature="0"
           d="m 537.5,417.65 -0.25,-0.19 -0.24,-0.2 -0.24,-0.19 -0.23,-0.2 -0.22,-0.19 -0.21,-0.19 -0.21,-0.19 -0.19,-0.19 -0.19,-0.18 -0.19,-0.18 -0.17,-0.18 -0.17,-0.18 -0.16,-0.17 -0.15,-0.17 -0.15,-0.17 -0.14,-0.16 -0.13,-0.15 -0.13,-0.16 -0.12,-0.15 -0.11,-0.14 -0.11,-0.14 -0.1,-0.13 -0.09,-0.13 -0.09,-0.12 -0.08,-0.11 -0.08,-0.11 -0.07,-0.11 -0.06,-0.09 -0.06,-0.09 -0.05,-0.08 -0.05,-0.07 -0.04,-0.07 c -2.24,-3.44 -2.64,-6.58 -2.64,-6.62 0,-0.6 0.61,-0.6 1,-0.6 0.84,0 0.89,0.1 1.09,1 1.16,4.88 4.1,9.06 9.72,11.36 0.59,0.19 0.75,0.3 0.75,0.64 0,0.35 -0.29,0.5 -0.41,0.55 -2.18,0.84 -8.21,3.34 -10.1,11.72 -0.16,0.59 -0.21,0.73 -1.05,0.73 -0.39,0 -1,0 -1,-0.59 0,-0.1 0.45,-3.24 2.55,-6.58 1,-1.48 2.43,-3.23 4.57,-4.83 h -37.01 c -0.89,0 -1.8,0 -1.8,-1 0,-1 0.91,-1 1.8,-1 z"
           id="path12214" /><path
           style="fill:#000000;stroke-width:0"
           inkscape:connector-curvature="0"
           d="m 579.93,417.65 h 13.91 c 0.68,0 1.64,0 1.64,1 0,1 -0.96,1 -1.64,1 h -13.91 v 13.96 c 0,0.68 0,1.64 -1,1.64 -0.98,0 -0.98,-0.96 -0.98,-1.64 v -13.96 h -13.96 c -0.7,0 -1.64,0 -1.64,-1 0,-1 0.94,-1 1.64,-1 h 13.96 v -13.94 c 0,-0.7 0,-1.65 0.98,-1.65 1,0 1,0.95 1,1.65 z"
           id="path12216" /><path
           style="fill:#000000;stroke-width:0"
           inkscape:connector-curvature="0"
           d="m 623.62,419.7 -0.24,0.31 -0.24,0.29 -0.22,0.29 -0.21,0.26 -0.2,0.26 -0.2,0.24 -0.18,0.23 -0.18,0.22 -0.17,0.2 -0.16,0.2 -0.15,0.19 -0.15,0.17 -0.14,0.17 -0.14,0.16 -0.13,0.16 -0.13,0.15 -0.13,0.14 -0.12,0.13 -0.12,0.13 -0.12,0.13 -0.24,0.23 -0.23,0.23 -0.24,0.22 -0.25,0.22 -0.26,0.22 -0.13,0.11 -0.14,0.11 c -2.8,2.25 -5.6,3.14 -8.13,3.14 -5.83,0 -9.62,-5.46 -9.62,-11.29 h 1.11 c 0,4.87 3.32,8.9 7.72,8.9 2.89,0 5.12,-2.09 6.17,-3.14 1.25,-1.34 2.39,-2.89 5.43,-6.81 h 0 c -2.04,-3.59 -5.73,-8.62 -11.36,-8.62 -5.28,0 -7.96,5.18 -7.96,9.67 h -1.11 c 0,-5.74 3.68,-11.27 9.42,-11.27 5.73,0 9.86,4.53 12.31,8.52 2.69,-3.39 3.28,-4.13 4.83,-5.38 2.78,-2.25 5.58,-3.14 8.12,-3.14 5.83,0 9.61,5.49 9.61,11.31 h -1.09 c 0,-4.89 -3.34,-8.92 -7.72,-8.92 -2.89,0 -5.14,2.1 -6.19,3.14 -1.23,1.35 -2.39,2.89 -5.42,6.83 h 0 c 2.03,3.58 5.72,8.61 11.36,8.61 5.28,0 7.97,-5.17 7.97,-9.66 h 1.09 c 0,5.72 -3.68,11.25 -9.42,11.25 -5.72,0 -9.86,-4.53 -12.3,-8.51 z"
           id="path12218" /></g></g><g
       transform="matrix(0.52106823,0,0,0.52106823,261.25957,107.55134)"
       id="g13436"><g
         style="font-style:normal;font-variant:normal;font-weight:normal;font-stretch:normal;letter-spacing:normal;word-spacing:normal;text-anchor:start;fill:none;stroke:#000000;stroke-linecap:butt;stroke-linejoin:miter;stroke-miterlimit:10.43299961;stroke-opacity:1;stroke-dasharray:none;stroke-dashoffset:0"
         word-spacing="normal"
         letter-spacing="normal"
         font-size-adjust="none"
         font-stretch="normal"
         font-weight="normal"
         font-variant="normal"
         font-style="normal"
         stroke-miterlimit="10.433"
         xml:space="preserve"
         transform="matrix(0.33910714,0,0,-0.33910714,-59.34375,337.5)"
         id="g13438"><path
           style="fill:#000000;stroke-width:0"
           inkscape:connector-curvature="0"
           id="path13440"
           d="m 479.83,420 0.05,0.16 0.04,0.17 0.04,0.15 0.04,0.16 0.04,0.16 0.03,0.15 0.03,0.16 0.03,0.17 0.02,0.17 0.03,0.17 0.01,0.09 0,0.09 0.01,0.1 0.01,0.1 0.01,0.1 0,0.1 0.01,0.1 0,0.11 0,0.12 0.01,0.11 0,0.12 0,0.13 c 0,3.23 -2,5.32 -5.74,5.32 -3.93,0 -6.53,-2.57 -7.71,-4.32 -0.25,2.84 -2.35,4.32 -4.6,4.32 -2.28,0 -3.23,-1.93 -3.69,-2.82 -0.89,-1.71 -1.54,-4.69 -1.54,-4.85 0,-0.5 0.5,-0.5 0.61,-0.5 0.5,0 0.54,0.07 0.84,1.16 0.84,3.53 1.84,5.92 3.64,5.92 0.84,0 1.55,-0.39 1.55,-2.28 0,-1.05 -0.16,-1.61 -0.8,-4.19 l -2.89,-11.51 c -0.16,-0.75 -0.45,-1.89 -0.45,-2.14 0,-0.89 0.7,-1.35 1.43,-1.35 0.61,0 1.5,0.39 1.85,1.39 0.06,0.11 0.65,2.44 0.95,3.69 l 1.1,4.48 c 0.29,1.1 0.59,2.19 0.84,3.35 0.11,0.3 0.5,1.94 0.55,2.23 0.15,0.46 1.7,3.25 3.39,4.6 1.09,0.79 2.64,1.73 4.78,1.73 2.14,0 2.69,-1.69 2.69,-3.48 0,-0.25 0,-1.14 -0.49,-3.14 l -5.69,-22.93 c -0.14,-0.59 -0.14,-0.68 -0.14,-0.79 0,-0.74 0.55,-1.35 1.39,-1.35 1.55,0 1.89,1.46 2.05,2 z" /><path
           style="fill:#000000;stroke-width:0"
           inkscape:connector-curvature="0"
           id="path13442"
           d="m 537.5,417.65 -0.25,-0.19 -0.24,-0.2 -0.24,-0.19 -0.23,-0.2 -0.22,-0.19 -0.21,-0.19 -0.21,-0.19 -0.19,-0.19 -0.19,-0.18 -0.19,-0.18 -0.17,-0.18 -0.17,-0.18 -0.16,-0.17 -0.15,-0.17 -0.15,-0.17 -0.14,-0.16 -0.13,-0.15 -0.13,-0.16 -0.12,-0.15 -0.11,-0.14 -0.11,-0.14 -0.1,-0.13 -0.09,-0.13 -0.09,-0.12 -0.08,-0.11 -0.08,-0.11 -0.07,-0.11 -0.06,-0.09 -0.06,-0.09 -0.05,-0.08 -0.05,-0.07 -0.04,-0.07 c -2.24,-3.44 -2.64,-6.58 -2.64,-6.62 0,-0.6 0.61,-0.6 1,-0.6 0.84,0 0.89,0.1 1.09,1 1.16,4.88 4.1,9.06 9.72,11.36 0.59,0.19 0.75,0.3 0.75,0.64 0,0.35 -0.29,0.5 -0.41,0.55 -2.18,0.84 -8.21,3.34 -10.1,11.72 -0.16,0.59 -0.21,0.73 -1.05,0.73 -0.39,0 -1,0 -1,-0.59 0,-0.1 0.45,-3.24 2.55,-6.58 1,-1.48 2.43,-3.23 4.57,-4.83 h -37.01 c -0.89,0 -1.8,0 -1.8,-1 0,-1 0.91,-1 1.8,-1 z" /><path
           style="fill:#000000;stroke-width:0"
           inkscape:connector-curvature="0"
           id="path13444"
           d="m 592.38,417.65 0.16,0 0.16,0 0.16,0.01 0.08,0 0.07,0.01 0.08,0 0.07,0.01 0.08,0.01 0.07,0.01 0.07,0.02 0.07,0.02 0.06,0.02 0.06,0.02 0.07,0.02 0.05,0.03 0.06,0.03 0.05,0.04 0.05,0.03 0.05,0.05 0.04,0.04 0.04,0.05 0.02,0.03 0.01,0.03 0.02,0.03 0.01,0.03 0.02,0.03 0.01,0.03 0.01,0.04 0.01,0.03 0.01,0.04 0.01,0.04 0.01,0.04 0,0.04 0.01,0.04 0,0.04 0,0.05 0,0.04 c 0,1 -0.9,1 -1.75,1 h -26.95 c -0.84,0 -1.73,0 -1.73,-1 0,-1 0.89,-1 1.73,-1 z" /><path
           style="fill:#000000;stroke-width:0"
           inkscape:connector-curvature="0"
           id="path13446"
           d="m 623.62,415.86 -0.24,0.31 -0.24,0.29 -0.22,0.29 -0.21,0.26 -0.2,0.26 -0.2,0.24 -0.18,0.23 -0.18,0.22 -0.17,0.2 -0.16,0.2 -0.15,0.19 -0.15,0.17 -0.14,0.17 -0.14,0.16 -0.13,0.16 -0.13,0.15 -0.13,0.14 -0.12,0.13 -0.12,0.13 -0.12,0.13 -0.24,0.23 -0.23,0.23 -0.24,0.22 -0.25,0.22 -0.26,0.22 -0.13,0.11 -0.14,0.11 c -2.8,2.25 -5.6,3.15 -8.13,3.15 -5.83,0 -9.62,-5.47 -9.62,-11.3 h 1.11 c 0,4.87 3.32,8.9 7.72,8.9 2.89,0 5.12,-2.09 6.17,-3.14 1.25,-1.34 2.39,-2.89 5.43,-6.81 h 0 c -2.04,-3.59 -5.73,-8.62 -11.36,-8.62 -5.28,0 -7.96,5.18 -7.96,9.67 h -1.11 c 0,-5.74 3.68,-11.27 9.42,-11.27 5.73,0 9.86,4.53 12.31,8.52 2.69,-3.39 3.28,-4.13 4.83,-5.38 2.78,-2.25 5.58,-3.14 8.12,-3.14 5.83,0 9.61,5.49 9.61,11.31 h -1.09 c 0,-4.89 -3.34,-8.92 -7.72,-8.92 -2.89,0 -5.14,2.1 -6.19,3.14 -1.23,1.35 -2.39,2.89 -5.42,6.83 h 0 c 2.03,3.58 5.72,8.61 11.36,8.61 5.28,0 7.97,-5.17 7.97,-9.66 h 1.09 c 0,5.72 -3.68,11.26 -9.42,11.26 -5.72,0 -9.86,-4.54 -12.3,-8.52 z" /></g></g><g
       transform="matrix(0.47245722,0,0,0.47245722,198.12048,88.540766)"
       id="g14676"><g
         style="font-style:normal;font-variant:normal;font-weight:normal;font-stretch:normal;letter-spacing:normal;word-spacing:normal;text-anchor:start;fill:none;stroke:#000000;stroke-linecap:butt;stroke-linejoin:miter;stroke-miterlimit:10.43299961;stroke-opacity:1;stroke-dasharray:none;stroke-dashoffset:0"
         id="g14678"
         transform="matrix(0.33910714,0,0,-0.33910714,-59.34375,337.5)"
         xml:space="preserve"
         stroke-miterlimit="10.433"
         font-style="normal"
         font-variant="normal"
         font-weight="normal"
         font-stretch="normal"
         font-size-adjust="none"
         letter-spacing="normal"
         word-spacing="normal"><path
           style="fill:#000000;stroke-width:0"
           inkscape:connector-curvature="0"
           d="m 463.19,421.45 -0.5,-0.34 -0.47,-0.35 -0.45,-0.35 -0.42,-0.35 -0.4,-0.36 -0.38,-0.36 -0.36,-0.36 -0.33,-0.37 -0.32,-0.36 -0.29,-0.37 -0.28,-0.36 -0.25,-0.36 -0.24,-0.36 -0.22,-0.36 -0.21,-0.35 -0.18,-0.35 -0.17,-0.34 -0.16,-0.34 -0.14,-0.33 -0.13,-0.32 -0.11,-0.32 -0.1,-0.3 -0.09,-0.3 -0.07,-0.28 -0.07,-0.28 -0.05,-0.26 -0.05,-0.25 -0.03,-0.24 -0.03,-0.22 -0.02,-0.21 -0.01,-0.19 0,-0.17 c 0,-2.39 1.34,-3.8 1.45,-3.94 1.6,-1.66 2.05,-1.84 5.78,-3.25 l 6.02,-2.33 c 0.75,-0.36 1.75,-0.7 1.75,-2.16 0,-1.14 -0.89,-2.64 -2.44,-2.64 -2.18,0 -3.84,1.21 -4.39,1.61 -0.29,0.19 -0.34,0.24 -0.54,0.24 -0.4,0 -0.5,-0.35 -0.5,-0.55 0,-0.59 2.64,-2.39 5.43,-2.39 3.1,0 5.17,2.89 5.17,5.34 0,2.39 -1.84,3.29 -2.39,3.54 -0.68,0.25 -2.39,0.89 -3.03,1.14 -1,0.4 -2,0.79 -3.04,1.15 l -2.99,1.19 c -2.23,0.91 -3.73,2.34 -3.73,4.44 0,2.04 1.93,6.37 6.12,8.47 1.85,-0.66 3.35,-0.66 4.39,-0.66 1.49,0 4.63,0 4.63,1.55 0,1.25 -2.14,1.34 -4.08,1.34 l -0.05,-1.09 c 1.74,0 1.94,-0.05 2.83,-0.3 -0.39,-0.2 -0.89,-0.39 -3.19,-0.39 -1.14,0 -1.59,0 -2.48,0.39 h 0 c 1.14,0.3 2.23,0.3 2.84,0.3 l 0.05,1.09 c -0.91,0 -2.34,0 -4.19,-0.59 -1.29,1.29 -1.5,2.93 -1.5,3.89 0,2.78 1.8,6.62 5.53,8.47 0.91,-1.1 2.05,-1.1 3.19,-1.1 l 0.06,1.1 c -0.95,0 -1.54,0 -2.09,0.45 h 0 c 0.8,0.25 1.84,0.25 2.39,0.25 1.69,0 1.89,-0.06 2.78,-0.31 -0.39,-0.14 -0.89,-0.39 -3.08,-0.39 l -0.06,-1.1 c 1.25,0 4.44,0 4.44,1.55 0,1.3 -2.19,1.34 -4.14,1.34 -0.64,0 -1.85,0 -3.13,-0.25 -0.15,0.44 -0.25,0.8 -0.25,1.64 0,0.71 0.25,1.75 0.25,1.85 0,0.39 -0.25,0.64 -0.61,0.64 -0.89,0 -0.89,-2.28 -0.89,-2.44 0,-1 0.3,-1.73 0.35,-1.94 -5.33,-1.5 -8.72,-5.48 -8.72,-9.31 0,-1.84 0.9,-3.94 3.23,-5.28 z"
           id="path14680" /><path
           style="fill:#000000;stroke-width:0"
           inkscape:connector-curvature="0"
           d="m 527.68,422.5 0.14,0 0.14,0 0.14,0 0.08,0.01 0.07,0 0.07,0.01 0.07,0.01 0.07,0.01 0.07,0.01 0.07,0.01 0.07,0.02 0.06,0.02 0.06,0.02 0.07,0.02 0.05,0.03 0.06,0.03 0.05,0.04 0.05,0.03 0.05,0.05 0.04,0.04 0.04,0.05 0.02,0.03 0.02,0.03 0.01,0.02 0.02,0.03 0.01,0.03 0.02,0.04 0.01,0.03 0.01,0.04 0.01,0.03 0.01,0.04 0.01,0.04 0,0.04 0.01,0.04 0,0.04 0,0.04 0,0.05 c 0,1 -0.95,1 -1.64,1 h -29.84 c -0.7,0 -1.64,0 -1.64,-1 0,-0.98 0.94,-0.98 1.69,-0.98 z"
           id="path14682" /><path
           style="fill:#000000;stroke-width:0"
           inkscape:connector-curvature="0"
           d="m 527.72,412.82 0.07,0 0.06,0 0.14,0.01 0.14,0 0.07,0 0.07,0.01 0.07,0.01 0.07,0 0.07,0.01 0.06,0.02 0.07,0.01 0.07,0.02 0.06,0.02 0.06,0.02 0.06,0.02 0.06,0.03 0.05,0.03 0.06,0.04 0.04,0.04 0.05,0.04 0.04,0.05 0.02,0.02 0.02,0.03 0.02,0.02 0.02,0.03 0.02,0.03 0.01,0.03 0.01,0.03 0.02,0.03 0.01,0.04 0.01,0.03 0.01,0.04 0.01,0.04 0.01,0.04 0,0.04 0.01,0.04 0,0.04 0,0.05 0,0.04 c 0,1 -0.95,1 -1.68,1 h -29.75 c -0.75,0 -1.69,0 -1.69,-1 0,-1 0.94,-1 1.64,-1 z"
           id="path14684" /><path
           style="fill:#000000;stroke-width:0"
           inkscape:connector-curvature="0"
           d="m 565.85,425.14 -0.15,0 -0.14,0 -0.15,-0.01 -0.14,0 -0.14,-0.01 -0.14,-0.02 -0.07,-0.01 -0.07,-0.01 -0.07,-0.02 -0.06,-0.01 -0.07,-0.02 -0.07,-0.02 -0.07,-0.02 -0.07,-0.02 -0.06,-0.03 -0.07,-0.03 -0.07,-0.03 -0.06,-0.04 -0.07,-0.04 -0.07,-0.04 -0.06,-0.05 -0.07,-0.04 -0.06,-0.06 -0.07,-0.05 -0.07,-0.06 -0.06,-0.07 c -0.8,-0.75 -0.89,-1.59 -0.89,-1.93 0,-1.21 0.89,-1.75 1.84,-1.75 1.44,0 2.8,1.2 2.8,3.18 0,2.44 -2.35,4.28 -5.89,4.28 -6.72,0 -13.35,-7.12 -13.35,-14.14 0,-4.48 2.89,-8.42 8.07,-8.42 7.12,0 11.31,5.28 11.31,5.88 0,0.29 -0.3,0.65 -0.59,0.65 -0.25,0 -0.35,-0.11 -0.66,-0.5 -3.94,-4.93 -9.36,-4.93 -9.95,-4.93 -3.14,0 -4.49,2.43 -4.49,5.43 0,2.03 0.99,6.88 2.69,9.96 1.55,2.84 4.28,4.98 7.01,4.98 1.71,0 3.6,-0.64 4.3,-1.98 z"
           id="path14686" /><path
           style="fill:#000000;stroke-width:0"
           inkscape:connector-curvature="0"
           d="m 591.07,419.79 -0.01,0.48 -0.03,0.47 -0.05,0.46 -0.06,0.44 -0.09,0.44 -0.11,0.42 -0.12,0.4 -0.14,0.4 -0.16,0.38 -0.17,0.36 -0.19,0.36 -0.2,0.34 -0.22,0.32 -0.24,0.31 -0.25,0.3 -0.26,0.28 -0.27,0.26 -0.29,0.25 -0.3,0.24 -0.31,0.22 -0.33,0.2 -0.33,0.19 -0.34,0.17 -0.36,0.15 -0.36,0.13 -0.37,0.12 -0.39,0.1 -0.38,0.09 -0.4,0.06 -0.41,0.05 -0.41,0.03 -0.42,0 -0.04,-1.09 c 2.89,0 4.39,-2.39 4.39,-5.37 0,-1.96 -1,-7.18 -2.89,-10.43 -1.75,-2.89 -4.49,-4.57 -6.78,-4.57 h 0 c -2.14,0 -4.33,1.54 -4.33,5.43 0,2.44 1.3,7.82 2.89,10.36 2.48,3.83 5.33,4.58 6.72,4.58 l 0.04,1.09 c -6.67,0 -13.34,-7.06 -13.34,-14.14 0,-4.93 3.33,-8.42 7.97,-8.42 6.62,0 13.34,6.88 13.34,14.14 z"
           id="path14688" /><path
           style="fill:#000000;stroke-width:0"
           inkscape:connector-curvature="0"
           d="m 596.22,409.14 -0.01,-0.07 -0.02,-0.08 -0.01,-0.07 -0.02,-0.08 -0.04,-0.16 -0.03,-0.16 -0.04,-0.16 -0.04,-0.16 -0.04,-0.16 -0.03,-0.16 -0.02,-0.08 -0.02,-0.07 -0.01,-0.07 -0.02,-0.07 -0.01,-0.07 -0.02,-0.07 -0.01,-0.06 -0.01,-0.06 -0.01,-0.06 -0.01,-0.05 -0.01,-0.05 -0.01,-0.04 0,-0.04 -0.01,-0.04 0,-0.03 0,-0.02 c 0,-0.89 0.7,-1.35 1.44,-1.35 0.61,0 1.5,0.39 1.84,1.39 0.06,0.11 0.66,2.44 0.95,3.69 l 1.1,4.48 c 0.3,1.1 0.59,2.19 0.84,3.35 0.21,0.84 0.61,2.28 0.66,2.48 0.75,1.55 3.39,6.08 8.11,6.08 2.25,0 2.7,-1.84 2.7,-3.48 0,-3.1 -2.45,-9.47 -3.25,-11.61 -0.44,-1.14 -0.48,-1.75 -0.48,-2.3 0,-2.33 1.73,-4.08 4.07,-4.08 4.69,0 6.53,7.27 6.53,7.67 0,0.5 -0.45,0.5 -0.6,0.5 -0.49,0 -0.49,-0.15 -0.74,-0.9 -1,-3.38 -2.64,-6.17 -5.09,-6.17 -0.85,0 -1.19,0.5 -1.19,1.64 0,1.25 0.45,2.45 0.89,3.54 0.95,2.64 3.05,8.11 3.05,10.96 0,3.34 -2.14,5.32 -5.74,5.32 -4.48,0 -6.92,-3.18 -7.76,-4.32 -0.25,2.79 -2.3,4.32 -4.6,4.32 -2.28,0 -3.23,-1.93 -3.73,-2.82 -0.8,-1.71 -1.5,-4.64 -1.5,-4.85 0,-0.5 0.5,-0.5 0.61,-0.5 0.5,0 0.55,0.07 0.84,1.16 0.85,3.53 1.85,5.92 3.64,5.92 0.99,0 1.55,-0.64 1.55,-2.28 0,-1.05 -0.16,-1.61 -0.8,-4.19 z"
           id="path14690" /><path
           style="fill:#000000;stroke-width:0"
           inkscape:connector-curvature="0"
           d="m 641.2,424.84 -0.14,-0.01 -0.12,-0.01 -0.13,-0.02 -0.12,-0.03 -0.12,-0.03 -0.12,-0.04 -0.11,-0.04 -0.11,-0.04 -0.11,-0.05 -0.1,-0.06 -0.1,-0.06 -0.1,-0.06 -0.09,-0.07 -0.09,-0.07 -0.09,-0.07 -0.08,-0.08 -0.07,-0.08 -0.08,-0.08 -0.07,-0.09 -0.06,-0.08 -0.06,-0.09 -0.05,-0.1 -0.05,-0.09 -0.05,-0.1 -0.04,-0.09 -0.03,-0.1 -0.04,-0.1 -0.02,-0.1 -0.02,-0.1 -0.01,-0.11 -0.01,-0.1 -0.01,-0.1 c 0,-0.7 0.44,-1.44 1.55,-1.44 1.1,0 2.28,0.85 2.28,2.78 0,2.25 -2.14,4.28 -5.92,4.28 -6.58,0 -8.42,-5.07 -8.42,-7.26 0,-3.89 3.69,-4.64 5.12,-4.94 2.6,-0.5 5.19,-1.05 5.19,-3.78 0,-1.3 -1.14,-5.48 -7.12,-5.48 -0.71,0 -4.53,0 -5.69,2.64 1.91,-0.25 3.14,1.25 3.14,2.64 0,1.14 -0.8,1.75 -1.84,1.75 -1.3,0 -2.79,-1.05 -2.79,-3.3 0,-2.84 2.85,-4.83 7.13,-4.83 8.06,0 10.02,6.03 10.02,8.27 0,1.79 -0.96,3.04 -1.55,3.64 -1.35,1.39 -2.8,1.64 -4.99,2.09 -1.79,0.39 -3.78,0.75 -3.78,2.99 0,1.45 1.19,4.48 5.58,4.48 1.24,0 3.74,-0.34 4.49,-2.28 z"
           id="path14692" /><path
           style="fill:#000000;stroke-width:0"
           inkscape:connector-curvature="0"
           d="m 655.38,426.12 h 4.68 c 0.99,0 1.49,0 1.49,1 0,0.55 -0.5,0.55 -1.39,0.55 h -4.39 c 1.79,7.08 2.04,8.08 2.04,8.37 0,0.85 -0.59,1.35 -1.43,1.35 -0.16,0 -1.55,-0.05 -2,-1.8 l -1.94,-7.92 h -4.69 c -1,0 -1.5,0 -1.5,-0.94 0,-0.61 0.41,-0.61 1.41,-0.61 h 4.37 c -3.58,-14.14 -3.78,-14.98 -3.78,-15.89 0,-2.69 1.89,-4.58 4.58,-4.58 5.08,0 7.92,7.27 7.92,7.67 0,0.5 -0.39,0.5 -0.59,0.5 -0.46,0 -0.5,-0.15 -0.75,-0.7 -2.14,-5.17 -4.79,-6.37 -6.47,-6.37 -1.05,0 -1.55,0.65 -1.55,2.29 0,1.19 0.09,1.55 0.3,2.39 z"
           id="path14694" /><path
           style="fill:#000000;stroke-width:0"
           inkscape:connector-curvature="0"
           d="m 672.67,408.84 0,0.13 -0.01,0.14 -0.02,0.13 -0.02,0.13 -0.03,0.12 -0.04,0.13 -0.04,0.12 -0.05,0.12 -0.05,0.12 -0.06,0.11 -0.06,0.11 -0.07,0.11 -0.07,0.1 -0.08,0.1 -0.09,0.1 -0.08,0.09 -0.1,0.09 -0.09,0.08 -0.1,0.08 -0.1,0.07 -0.11,0.07 -0.11,0.07 -0.12,0.06 -0.11,0.05 -0.12,0.05 -0.13,0.04 -0.12,0.04 -0.13,0.03 -0.13,0.02 -0.13,0.02 -0.13,0.01 -0.14,0 c -1.44,0 -2.64,-1.2 -2.64,-2.64 0,-1.44 1.2,-2.64 2.64,-2.64 1.45,0 2.64,1.2 2.64,2.64 z"
           id="path14696" /></g></g><path
       sodipodi:nodetypes="cc"
       transform="matrix(0.8,0,0,0.8,47,12)"
       inkscape:connector-curvature="0"
       id="path15322"
       d="M 263.33333,204.70833 C 263.93242,177.49395 253.27754,167.72525 276,152.70834"
       style="fill:none;stroke:#000000;stroke-width:0.75;stroke-linecap:butt;stroke-linejoin:miter;stroke-miterlimit:4;stroke-opacity:1;stroke-dasharray:none;marker-end:url(#Arrow1Mend)" /><path
       sodipodi:nodetypes="cc"
       transform="matrix(0.8,0,0,0.8,47,12)"
       inkscape:connector-curvature="0"
       id="path15324"
       d="m 268.66667,204.70833 c -1.24067,-18.03689 9.69723,-29.04997 31.33333,-44"
       style="fill:none;stroke:#000000;stroke-width:0.75;stroke-linecap:butt;stroke-linejoin:miter;stroke-miterlimit:4;stroke-opacity:1;stroke-dasharray:none;marker-end:url(#Arrow1Mend)" /><path
       transform="matrix(0.8,0,0,0.8,47,12)"
       sodipodi:nodetypes="csc"
       inkscape:connector-curvature="0"
       id="path16572"
       d="m 349.33333,0.04166667 c 0.35964,8.30786323 0.92044,21.58223133 -2.01711,29.17584033 -2.86298,7.40088 -9.04898,9.405702 -21.98289,-3.842507"
       style="fill:none;stroke:#000000;stroke-width:0.75;stroke-linecap:butt;stroke-linejoin:miter;stroke-miterlimit:4;stroke-opacity:1;stroke-dasharray:none;marker-mid:none;marker-end:url(#Arrow1Mend)" /><path
       style="fill:none;stroke:#000000;stroke-width:0.60000002;stroke-linecap:butt;stroke-linejoin:miter;stroke-miterlimit:4;stroke-opacity:1;stroke-dasharray:none;marker-mid:none;marker-end:url(#Arrow1Mend)"
       d="m 329.66667,205.37742 c 0.28771,-6.64629 0.73635,-17.26579 -1.61369,-23.34068 -2.29038,-5.9207 -7.23918,-7.52456 -17.58631,3.07401"
       id="path16966"
       inkscape:connector-curvature="0"
       sodipodi:nodetypes="csc" /><g
       id="g17621"
       transform="matrix(0.44618706,-0.44618706,0.44618706,0.44618706,16.63588,148.51324)"><g
         word-spacing="normal"
         letter-spacing="normal"
         font-size-adjust="none"
         font-stretch="normal"
         font-weight="normal"
         font-variant="normal"
         font-style="normal"
         stroke-miterlimit="10.433"
         xml:space="preserve"
         transform="matrix(0.37571429,0,0,-0.37571429,-65.75,337.5)"
         id="g17623"
         style="font-style:normal;font-variant:normal;font-weight:normal;font-stretch:normal;letter-spacing:normal;word-spacing:normal;text-anchor:start;fill:none;stroke:#000000;stroke-linecap:butt;stroke-linejoin:miter;stroke-miterlimit:10.43299961;stroke-opacity:1;stroke-dasharray:none;stroke-dashoffset:0"><path
           id="path17625"
           d="m 477.19,423.14 0.45,0.12 0.44,0.12 0.44,0.14 0.43,0.15 0.42,0.16 0.42,0.17 0.4,0.18 0.4,0.19 0.39,0.19 0.37,0.21 0.37,0.22 0.35,0.22 0.34,0.23 0.33,0.24 0.32,0.25 0.3,0.26 0.29,0.27 0.27,0.27 0.26,0.28 0.24,0.29 0.23,0.29 0.21,0.31 0.19,0.3 0.18,0.32 0.15,0.32 0.14,0.33 0.12,0.33 0.09,0.35 0.08,0.34 0.06,0.35 0.03,0.36 0.01,0.36 c 0,4.78 -5.67,8.97 -13,8.97 h -15.64 v -1.55 h 1.19 c 3.84,0 3.93,-0.54 3.93,-2.34 v -26.25 c 0,-1.8 -0.09,-2.34 -3.93,-2.34 h -1.19 v -1.55 c 1.78,0.16 5.33,0.16 7.27,0.16 1.93,0 5.48,0 7.28,-0.16 v 1.55 h -1.21 c -3.82,0 -3.93,0.54 -3.93,2.34 v 12.59 1.11 12.89 c 0,1.16 0,1.75 1.09,1.91 0.5,0.09 1.95,0.09 2.95,0.09 4.47,0 10.07,-0.2 10.07,-7.42 0,-3.44 -1.21,-7.47 -8.58,-7.47 h -5.53 v -1.11 h 5.73 c 0.8,0 2.89,0 4.63,-1.68 1.9,-1.8 1.9,-3.35 1.9,-6.68 0,-3.25 0,-5.23 2.03,-7.12 2.05,-1.8 4.78,-2.09 6.28,-2.09 3.89,0 4.74,4.07 4.74,5.48 0,0.3 0,0.84 -0.64,0.84 -0.55,0 -0.55,-0.45 -0.61,-0.79 -0.3,-3.55 -2.03,-4.44 -3.28,-4.44 -2.44,0 -2.85,2.55 -3.55,7.17 l -0.64,3.99 c -0.89,3.18 -3.34,4.84 -6.08,5.78 z"
           inkscape:connector-curvature="0"
           style="fill:#000000;stroke-width:0" /><path
           id="path17627"
           d="m 501.05,428.21 -6.97,-0.54 v -1.55 c 3.24,0 3.69,-0.3 3.69,-2.73 v -13.41 c 0,-2.23 -0.55,-2.23 -3.89,-2.23 v -1.55 c 1.59,0.05 4.28,0.16 5.48,0.16 1.75,0 3.49,-0.11 5.19,-0.16 v 1.55 c -3.3,0 -3.5,0.25 -3.5,2.18 z"
           inkscape:connector-curvature="0"
           style="fill:#000000;stroke-width:0" /><path
           id="path17629"
           d="m 501.25,436.89 0,0.14 -0.01,0.15 -0.02,0.14 -0.02,0.14 -0.03,0.13 -0.04,0.13 -0.04,0.13 -0.05,0.12 -0.06,0.12 -0.06,0.12 -0.06,0.11 -0.07,0.1 -0.08,0.1 -0.08,0.1 -0.09,0.1 -0.08,0.08 -0.1,0.09 -0.1,0.08 -0.1,0.07 -0.1,0.07 -0.11,0.07 -0.11,0.06 -0.11,0.05 -0.12,0.05 -0.12,0.04 -0.12,0.04 -0.12,0.03 -0.12,0.03 -0.13,0.02 -0.13,0.01 -0.13,0.01 -0.13,0.01 c -1.54,0 -2.64,-1.35 -2.64,-2.64 0,-1.35 1.1,-2.64 2.64,-2.64 1.39,0 2.64,1.04 2.64,2.64 z"
           inkscape:connector-curvature="0"
           style="fill:#000000;stroke-width:0" /><path
           id="path17631"
           d="m 511.52,423.34 v -13.36 c 0,-2.23 -0.55,-2.23 -3.89,-2.23 v -1.55 c 1.75,0.05 4.28,0.16 5.62,0.16 1.3,0 3.9,-0.11 5.58,-0.16 v 1.55 c -3.33,0 -3.87,0 -3.87,2.23 v 9.17 c 0,5.19 3.53,7.97 6.72,7.97 3.14,0 3.68,-2.69 3.68,-5.53 v -11.61 c 0,-2.23 -0.54,-2.23 -3.89,-2.23 v -1.55 c 1.75,0.05 4.3,0.16 5.64,0.16 1.3,0 3.88,-0.11 5.58,-0.16 v 1.55 c -2.59,0 -3.84,0 -3.89,1.5 v 9.51 c 0,4.28 0,5.83 -1.55,7.61 -0.68,0.86 -2.34,1.84 -5.22,1.84 -3.63,0 -5.98,-2.14 -7.37,-5.21 v 5.21 l -7.03,-0.54 v -1.55 c 3.48,0 3.89,-0.34 3.89,-2.78 z"
           inkscape:connector-curvature="0"
           style="fill:#000000;stroke-width:0" /><path
           id="path17633"
           d="m 552.69,408.93 v -3.28 l 7.31,0.55 v 1.55 c -3.48,0 -3.87,0.34 -3.87,2.78 v 30.25 l -7.17,-0.55 v -1.55 c 3.48,0 3.87,-0.34 3.87,-2.79 v -10.75 c -1.43,1.78 -3.58,3.07 -6.28,3.07 l 0.2,-1.09 c 1.75,0 3.85,-0.75 5.4,-2.98 0.54,-0.85 0.54,-0.96 0.54,-1.85 h 0 v -10.22 c 0,-0.89 0,-1 -0.54,-1.84 -1.5,-2.39 -3.75,-3.48 -5.9,-3.48 -2.23,0 -4.03,1.29 -5.22,3.18 -1.29,2.05 -1.45,4.89 -1.45,6.93 0,1.84 0.1,4.84 1.55,7.07 1.05,1.55 2.94,3.19 5.62,3.19 l -0.2,1.09 c -5.87,0 -11.11,-4.87 -11.11,-11.29 0,-6.33 4.89,-11.27 10.56,-11.27 3.19,0 5.44,1.69 6.69,3.28 z"
           inkscape:connector-curvature="0"
           style="fill:#000000;stroke-width:0" /><path
           id="path17635"
           d="m 570.28,440.78 -7.17,-0.55 v -1.55 c 3.49,0 3.89,-0.34 3.89,-2.79 v -25.91 c 0,-2.23 -0.54,-2.23 -3.89,-2.23 v -1.55 c 1.64,0.05 4.29,0.16 5.54,0.16 1.25,0 3.68,-0.11 5.53,-0.16 v 1.55 c -3.35,0 -3.9,0 -3.9,2.23 z"
           inkscape:connector-curvature="0"
           style="fill:#000000;stroke-width:0" /><path
           id="path17637"
           d="m 580.8,417.71 0.05,1.05 c 0.3,7.42 4.48,8.66 6.18,8.66 5.13,0 5.63,-6.72 5.63,-8.66 h -11.81 l -0.05,-1.05 h 13.91 c 1.09,0 1.23,0 1.23,1.05 0,4.92 -2.69,9.75 -8.91,9.75 -5.78,0 -10.37,-5.12 -10.37,-11.36 0,-6.67 5.24,-11.5 10.97,-11.5 6.08,0 8.31,5.53 8.31,6.47 0,0.5 -0.39,0.61 -0.64,0.61 -0.45,0 -0.55,-0.3 -0.65,-0.7 -1.74,-5.13 -6.22,-5.13 -6.72,-5.13 -2.5,0 -4.49,1.49 -5.63,3.33 -1.5,2.39 -1.5,5.69 -1.5,7.48 z"
           inkscape:connector-curvature="0"
           style="fill:#000000;stroke-width:0" /><path
           id="path17639"
           d="m 605.66,422.75 v 5.46 l -6.92,-0.54 v -1.55 c 3.48,0 3.89,-0.34 3.89,-2.78 v -13.36 c 0,-2.23 -0.55,-2.23 -3.89,-2.23 v -1.55 c 1.95,0.05 4.28,0.16 5.69,0.16 1.98,0 4.32,0 6.32,-0.16 v 1.55 h -1.04 c -3.69,0 -3.8,0.54 -3.8,2.34 v 7.67 c 0,4.92 2.09,9.36 5.89,9.36 0.35,0 0.44,0 0.55,-0.05 -0.16,-0.04 -1.16,-0.64 -1.16,-1.93 0,-1.41 1.05,-2.14 2.16,-2.14 0.89,0 2.14,0.59 2.14,2.18 0,1.6 -1.55,3.03 -3.69,3.03 -3.64,0 -5.44,-3.32 -6.14,-5.46 z"
           inkscape:connector-curvature="0"
           style="fill:#000000;stroke-width:0" /><path
           id="path17641"
           d="m 638.95,409.98 0,-0.1 0,-0.1 -0.01,-0.19 -0.01,-0.18 -0.01,-0.17 -0.02,-0.15 -0.02,-0.15 -0.03,-0.13 -0.04,-0.12 -0.04,-0.11 -0.05,-0.11 -0.06,-0.09 -0.06,-0.09 -0.07,-0.08 -0.08,-0.07 -0.09,-0.06 -0.1,-0.05 -0.11,-0.05 -0.12,-0.05 -0.13,-0.03 -0.14,-0.04 -0.15,-0.02 -0.17,-0.03 -0.17,-0.01 -0.1,-0.01 -0.09,-0.01 -0.1,-0.01 -0.1,0 -0.11,-0.01 -0.11,0 -0.11,0 -0.12,-0.01 -0.12,0 -0.12,0 -0.13,0 -0.13,0 -0.14,0 -0.14,0 -0.14,0 -0.15,0 -0.15,0 -0.15,0 v -1.55 c 1.75,0.05 4.28,0.16 5.62,0.16 1.3,0 3.89,-0.11 5.58,-0.16 v 1.55 c -3.33,0 -3.87,0 -3.87,2.23 v 9.17 c 0,5.19 3.53,7.97 6.71,7.97 3.15,0 3.69,-2.69 3.69,-5.53 v -11.61 c 0,-2.23 -0.54,-2.23 -3.89,-2.23 v -1.55 c 1.75,0.05 4.3,0.16 5.64,0.16 1.3,0 3.88,-0.11 5.58,-0.16 v 1.55 c -2.59,0 -3.84,0 -3.89,1.5 v 9.51 c 0,4.28 0,5.83 -1.55,7.61 -0.68,0.86 -2.34,1.84 -5.21,1.84 -4.19,0 -6.4,-2.98 -7.24,-4.87 v 17.44 l -7.17,-0.55 v -1.55 c 3.48,0 3.89,-0.34 3.89,-2.79 z"
           inkscape:connector-curvature="0"
           style="fill:#000000;stroke-width:0" /><path
           id="path17643"
           d="m 684.65,416.86 -0.01,0.59 -0.05,0.59 -0.07,0.58 -0.09,0.57 -0.13,0.56 -0.15,0.55 -0.17,0.54 -0.2,0.53 -0.22,0.51 -0.25,0.5 -0.26,0.49 -0.29,0.47 -0.31,0.46 -0.33,0.44 -0.35,0.43 -0.36,0.4 -0.39,0.39 -0.4,0.37 -0.42,0.35 -0.43,0.32 -0.44,0.31 -0.47,0.28 -0.47,0.26 -0.49,0.24 -0.5,0.21 -0.51,0.18 -0.52,0.16 -0.53,0.13 -0.54,0.11 -0.55,0.07 -0.55,0.05 -0.56,0.01 -0.05,-1.09 c 2.19,0 4.33,-1.1 5.63,-3.24 1.29,-2.14 1.29,-5.03 1.29,-6.92 0,-1.8 0,-4.48 -1.09,-6.67 -1.1,-2.25 -3.28,-3.69 -5.78,-3.69 h 0 c -2.14,0 -4.33,1.05 -5.67,3.33 -1.25,2.2 -1.25,5.23 -1.25,7.03 0,1.94 0,4.63 1.18,6.83 1.36,2.28 3.69,3.33 5.69,3.33 l 0.05,1.09 c -6.22,0 -11.07,-5.42 -11.07,-11.65 0,-6.43 5.19,-11.21 11.02,-11.21 6.03,0 11.06,4.88 11.06,11.21 z"
           inkscape:connector-curvature="0"
           style="fill:#000000;stroke-width:0" /><path
           id="path17645"
           d="m 694.45,422.75 v 5.46 l -6.92,-0.54 v -1.55 c 3.49,0 3.89,-0.34 3.89,-2.78 v -13.36 c 0,-2.23 -0.54,-2.23 -3.89,-2.23 v -1.55 c 1.95,0.05 4.28,0.16 5.69,0.16 1.98,0 4.33,0 6.33,-0.16 v 1.55 h -1.05 c -3.69,0 -3.8,0.54 -3.8,2.34 v 7.67 c 0,4.92 2.1,9.36 5.89,9.36 0.35,0 0.44,0 0.55,-0.05 -0.16,-0.04 -1.16,-0.64 -1.16,-1.93 0,-1.41 1.05,-2.14 2.16,-2.14 0.89,0 2.14,0.59 2.14,2.18 0,1.6 -1.55,3.03 -3.69,3.03 -3.64,0 -5.43,-3.32 -6.14,-5.46 z"
           inkscape:connector-curvature="0"
           style="fill:#000000;stroke-width:0" /><path
           id="path17647"
           d="m 714.51,428.21 -6.97,-0.54 v -1.55 c 3.24,0 3.69,-0.3 3.69,-2.73 v -13.41 c 0,-2.23 -0.55,-2.23 -3.89,-2.23 v -1.55 c 1.59,0.05 4.28,0.16 5.48,0.16 1.75,0 3.49,-0.11 5.19,-0.16 v 1.55 c -3.29,0 -3.5,0.25 -3.5,2.18 z"
           inkscape:connector-curvature="0"
           style="fill:#000000;stroke-width:0" /><path
           id="path17649"
           d="m 714.72,436.89 -0.01,0.14 -0.01,0.15 -0.02,0.14 -0.02,0.14 -0.03,0.13 -0.04,0.13 -0.04,0.13 -0.05,0.12 -0.06,0.12 -0.06,0.12 -0.06,0.11 -0.07,0.1 -0.08,0.1 -0.08,0.1 -0.08,0.1 -0.09,0.08 -0.1,0.09 -0.09,0.08 -0.1,0.07 -0.11,0.07 -0.11,0.07 -0.11,0.06 -0.11,0.05 -0.12,0.05 -0.12,0.04 -0.12,0.04 -0.12,0.03 -0.12,0.03 -0.13,0.02 -0.13,0.01 -0.13,0.01 -0.13,0.01 c -1.54,0 -2.64,-1.35 -2.64,-2.64 0,-1.35 1.1,-2.64 2.64,-2.64 1.4,0 2.65,1.04 2.65,2.64 z"
           inkscape:connector-curvature="0"
           style="fill:#000000;stroke-width:0" /><path
           id="path17651"
           d="m 738.93,426.18 0.02,0.03 0.02,0.02 0.02,0.03 0.02,0.02 0.02,0.02 0.02,0.03 0.01,0.02 0.02,0.02 0.01,0.02 0.02,0.02 0.01,0.02 0.02,0.02 0.01,0.02 0.01,0.01 0.03,0.04 0.02,0.03 0.02,0.03 0.02,0.03 0.01,0.03 0.02,0.02 0.01,0.03 0.02,0.02 0.01,0.02 0.01,0.03 0,0.02 0.01,0.02 0.01,0.02 0,0.01 0.01,0.02 0,0.02 0,0.02 0.01,0.03 0,0.03 0,0.04 0,0.04 c 0,0.64 -0.39,0.64 -1.3,0.64 h -15.93 l -0.55,-8.02 h 1.25 c 0.3,5.08 1.23,6.92 6.72,6.92 h 5.69 l -13.91,-18.78 c -0.45,-0.54 -0.45,-0.64 -0.45,-0.89 0,-0.7 0.36,-0.7 1.29,-0.7 h 16.44 l 0.86,9.31 h -1.25 c -0.45,-5.87 -1.5,-8.06 -7.28,-8.06 h -5.88 z"
           inkscape:connector-curvature="0"
           style="fill:#000000;stroke-width:0" /><path
           id="path17653"
           d="m 765.04,416.86 -0.01,0.59 -0.04,0.59 -0.08,0.58 -0.09,0.57 -0.13,0.56 -0.15,0.55 -0.17,0.54 -0.2,0.53 -0.22,0.51 -0.25,0.5 -0.26,0.49 -0.29,0.47 -0.31,0.46 -0.33,0.44 -0.35,0.43 -0.36,0.4 -0.39,0.39 -0.4,0.37 -0.41,0.35 -0.44,0.32 -0.44,0.31 -0.47,0.28 -0.47,0.26 -0.49,0.24 -0.5,0.21 -0.51,0.18 -0.52,0.16 -0.53,0.13 -0.54,0.11 -0.55,0.07 -0.55,0.05 -0.56,0.01 -0.05,-1.09 c 2.19,0 4.33,-1.1 5.62,-3.24 1.3,-2.14 1.3,-5.03 1.3,-6.92 0,-1.8 0,-4.48 -1.09,-6.67 -1.09,-2.25 -3.28,-3.69 -5.78,-3.69 h 0 c -2.14,0 -4.33,1.05 -5.68,3.33 -1.25,2.2 -1.25,5.23 -1.25,7.03 0,1.94 0,4.63 1.19,6.83 1.36,2.28 3.69,3.33 5.69,3.33 l 0.05,1.09 c -6.22,0 -11.06,-5.42 -11.06,-11.65 0,-6.43 5.18,-11.21 11.01,-11.21 6.03,0 11.06,4.88 11.06,11.21 z"
           inkscape:connector-curvature="0"
           style="fill:#000000;stroke-width:0" /><path
           id="path17655"
           d="m 772.02,423.34 v -13.36 c 0,-2.23 -0.55,-2.23 -3.9,-2.23 v -1.55 c 1.76,0.05 4.29,0.16 5.63,0.16 1.3,0 3.89,-0.11 5.58,-0.16 v 1.55 c -3.33,0 -3.88,0 -3.88,2.23 v 9.17 c 0,5.19 3.53,7.97 6.72,7.97 3.14,0 3.69,-2.69 3.69,-5.53 v -11.61 c 0,-2.23 -0.55,-2.23 -3.89,-2.23 v -1.55 c 1.75,0.05 4.3,0.16 5.64,0.16 1.3,0 3.87,-0.11 5.58,-0.16 v 1.55 c -2.6,0 -3.85,0 -3.89,1.5 v 9.51 c 0,4.28 0,5.83 -1.55,7.61 -0.69,0.86 -2.34,1.84 -5.22,1.84 -3.64,0 -5.98,-2.14 -7.37,-5.21 v 5.21 l -7.04,-0.54 v -1.55 c 3.49,0 3.9,-0.34 3.9,-2.78 z"
           inkscape:connector-curvature="0"
           style="fill:#000000;stroke-width:0" /></g></g><g
       id="g19699"
       transform="matrix(0.6037649,0,0,0.6037649,160.8644,-96.793581)"><g
         id="g19701"
         transform="matrix(0.37571429,0,0,-0.37571429,-65.75,337.5)"
         xml:space="preserve"
         stroke-miterlimit="10.433"
         font-style="normal"
         font-variant="normal"
         font-weight="normal"
         font-stretch="normal"
         font-size-adjust="none"
         letter-spacing="normal"
         word-spacing="normal"
         style="font-style:normal;font-variant:normal;font-weight:normal;font-stretch:normal;letter-spacing:normal;word-spacing:normal;text-anchor:start;fill:none;stroke:#000000;stroke-linecap:butt;stroke-linejoin:miter;stroke-miterlimit:10.43299961;stroke-opacity:1;stroke-dasharray:none;stroke-dashoffset:0"><path
           d="m 465.79,426.12 h 4.68 c 0.99,0 1.49,0 1.49,1 0,0.55 -0.5,0.55 -1.39,0.55 h -4.39 c 1.79,7.08 2.04,8.08 2.04,8.37 0,0.85 -0.59,1.35 -1.43,1.35 -0.16,0 -1.55,-0.05 -2,-1.8 l -1.94,-7.92 h -4.69 c -1,0 -1.5,0 -1.5,-0.94 0,-0.61 0.41,-0.61 1.41,-0.61 h 4.37 c -3.58,-14.14 -3.78,-14.98 -3.78,-15.89 0,-2.69 1.89,-4.58 4.58,-4.58 5.08,0 7.92,7.27 7.92,7.67 0,0.5 -0.39,0.5 -0.59,0.5 -0.46,0 -0.5,-0.15 -0.75,-0.7 -2.14,-5.17 -4.78,-6.37 -6.47,-6.37 -1.05,0 -1.55,0.65 -1.55,2.29 0,1.19 0.09,1.55 0.3,2.39 z"
           id="path19703"
           inkscape:connector-curvature="0"
           style="fill:#000000;stroke-width:0" /></g></g><g
       id="g20273"
       transform="matrix(0.56629722,0,0,0.56629722,348.34491,5.6080314)"><g
         word-spacing="normal"
         letter-spacing="normal"
         font-size-adjust="none"
         font-stretch="normal"
         font-weight="normal"
         font-variant="normal"
         font-style="normal"
         stroke-miterlimit="10.433"
         xml:space="preserve"
         transform="matrix(0.37571429,0,0,-0.37571429,-65.75,337.5)"
         id="g20275"
         style="font-style:normal;font-variant:normal;font-weight:normal;font-stretch:normal;letter-spacing:normal;word-spacing:normal;text-anchor:start;fill:none;stroke:#000000;stroke-linecap:butt;stroke-linejoin:miter;stroke-miterlimit:10.43299961;stroke-opacity:1;stroke-dasharray:none;stroke-dashoffset:0"><path
           id="path20277"
           d="m 472.16,421.25 0.03,0.13 0.04,0.15 0.04,0.16 0.04,0.18 0.06,0.19 0.06,0.21 0.06,0.22 0.07,0.22 0.08,0.23 0.09,0.24 0.1,0.25 0.1,0.24 0.11,0.25 0.12,0.25 0.13,0.25 0.14,0.25 0.15,0.24 0.15,0.24 0.17,0.23 0.18,0.22 0.18,0.22 0.2,0.2 0.21,0.19 0.22,0.18 0.23,0.16 0.25,0.14 0.12,0.07 0.13,0.06 0.14,0.05 0.13,0.05 0.14,0.05 0.14,0.04 0.15,0.03 0.15,0.03 0.15,0.02 0.16,0.02 0.16,0.01 0.16,0 c 0.25,0 1.44,0 2.48,-0.64 -1.39,-0.25 -2.39,-1.5 -2.39,-2.69 0,-0.79 0.55,-1.75 1.89,-1.75 1.1,0 2.69,0.89 2.69,2.89 0,2.6 -2.94,3.28 -4.63,3.28 -2.89,0 -4.64,-2.64 -5.23,-3.78 -1.25,3.28 -3.94,3.78 -5.37,3.78 -5.19,0 -8.04,-6.42 -8.04,-7.67 0,-0.5 0.5,-0.5 0.61,-0.5 0.39,0 0.55,0.11 0.64,0.55 1.69,5.28 4.99,6.53 6.68,6.53 0.95,0 2.68,-0.44 2.68,-3.33 0,-1.54 -0.84,-4.89 -2.68,-11.86 -0.8,-3.09 -2.54,-5.18 -4.74,-5.18 -0.3,0 -1.44,0 -2.48,0.65 1.25,0.24 2.34,1.28 2.34,2.69 0,1.34 -1.09,1.73 -1.84,1.73 -1.5,0 -2.75,-1.29 -2.75,-2.89 0,-2.28 2.5,-3.28 4.68,-3.28 3.3,0 5.08,3.49 5.24,3.78 0.59,-1.84 2.39,-3.78 5.37,-3.78 5.14,0 7.99,6.42 7.99,7.67 0,0.5 -0.45,0.5 -0.61,0.5 -0.44,0 -0.55,-0.2 -0.64,-0.54 -1.64,-5.33 -5.03,-6.53 -6.63,-6.53 -1.95,0 -2.75,1.59 -2.75,3.29 0,1.1 0.3,2.19 0.86,4.38 z"
           inkscape:connector-curvature="0"
           style="fill:#000000;stroke-width:0" /></g></g></g></svg>