<?xml version="1.0" encoding="UTF-8" standalone="no"?>
<!-- Created with Inkscape (http://www.inkscape.org/) -->

<svg
   xmlns:dc="http://purl.org/dc/elements/1.1/"
   xmlns:cc="http://creativecommons.org/ns#"
   xmlns:rdf="http://www.w3.org/1999/02/22-rdf-syntax-ns#"
   xmlns:svg="http://www.w3.org/2000/svg"
   xmlns="http://www.w3.org/2000/svg"
   xmlns:sodipodi="http://sodipodi.sourceforge.net/DTD/sodipodi-0.dtd"
   xmlns:inkscape="http://www.inkscape.org/namespaces/inkscape"
   id="svg3201"
   version="1.1"
   inkscape:version="0.48.2 r9819"
   width="176.04335"
   height="261.72159"
   xml:space="preserve"
   sodipodi:docname="collapsingstar.pdf"><sodipodi:namedview
     pagecolor="#ffffff"
     bordercolor="#666666"
     borderopacity="1"
     objecttolerance="10"
     gridtolerance="10"
     guidetolerance="10"
     inkscape:pageopacity="0"
     inkscape:pageshadow="2"
     inkscape:window-width="1271"
     inkscape:window-height="756"
     id="namedview3203"
     showgrid="false"
     inkscape:zoom="1.98"
     inkscape:cx="33.722727"
     inkscape:cy="143.96396"
     inkscape:window-x="0"
     inkscape:window-y="0"
     inkscape:window-maximized="0"
     inkscape:current-layer="g6182"
     fit-margin-top="0"
     fit-margin-left="0"
     fit-margin-right="0"
     fit-margin-bottom="0" /><metadata
     id="metadata3207"><rdf:RDF><cc:Work
         rdf:about=""><dc:format>image/svg+xml</dc:format><dc:type
           rdf:resource="http://purl.org/dc/dcmitype/StillImage" /><dc:title></dc:title></cc:Work></rdf:RDF></metadata><defs
     id="defs3205"><marker
       inkscape:stockid="Arrow1Mend"
       orient="auto"
       refY="0"
       refX="0"
       id="Arrow1Mend"
       style="overflow:visible"><path
         id="path5873"
         d="M 0,0 5,-5 -12.5,0 5,5 0,0 z"
         style="fill-rule:evenodd;stroke:#000000;stroke-width:1pt;marker-start:none"
         transform="matrix(-0.4,0,0,-0.4,-4,0)"
         inkscape:connector-curvature="0" /></marker><clipPath
       id="clipPath3213"
       clipPathUnits="userSpaceOnUse"><path
         id="path3215"
         clip-rule="evenodd"
         d="m 47,12 0,180 360,0 0,-180"
         inkscape:connector-curvature="0" /></clipPath><clipPath
       id="clipPath3225"
       clipPathUnits="userSpaceOnUse"><path
         id="path3227"
         clip-rule="evenodd"
         d="m 0,4 0,196 535,0 0,-196"
         inkscape:connector-curvature="0" /></clipPath><clipPath
       id="clipPath3239"
       clipPathUnits="userSpaceOnUse"><path
         id="path3241"
         clip-rule="evenodd"
         d="m 45,10 0,184 364,0 0,-184"
         inkscape:connector-curvature="0" /></clipPath><clipPath
       id="clipPath5510"
       clipPathUnits="userSpaceOnUse"><path
         id="path5512"
         clip-rule="evenodd"
         d="m 47,11 0,356 261,0 0,-356"
         inkscape:connector-curvature="0" /></clipPath><clipPath
       id="clipPath5390"
       clipPathUnits="userSpaceOnUse"><path
         id="path5392"
         clip-rule="evenodd"
         d="m 47,11 0,356 261,0 0,-356"
         inkscape:connector-curvature="0" /></clipPath><clipPath
       id="clipPath5382"
       clipPathUnits="userSpaceOnUse"><path
         id="path5384"
         clip-rule="evenodd"
         d="m 47,11 0,356 261,0 0,-356"
         inkscape:connector-curvature="0" /></clipPath><clipPath
       id="clipPath5374"
       clipPathUnits="userSpaceOnUse"><path
         id="path5376"
         clip-rule="evenodd"
         d="m 47,11 0,356 261,0 0,-356"
         inkscape:connector-curvature="0" /></clipPath><clipPath
       id="clipPath5366"
       clipPathUnits="userSpaceOnUse"><path
         id="path5368"
         clip-rule="evenodd"
         d="m 47,11 0,356 260,0 0,-356"
         inkscape:connector-curvature="0" /></clipPath><clipPath
       id="clipPath5358"
       clipPathUnits="userSpaceOnUse"><path
         id="path5360"
         clip-rule="evenodd"
         d="m 45,10 0,359 264,0 0,-359"
         inkscape:connector-curvature="0" /></clipPath><clipPath
       id="clipPath5350"
       clipPathUnits="userSpaceOnUse"><path
         id="path5352"
         clip-rule="evenodd"
         d="m 47,12 0,356 260,0 0,-356"
         inkscape:connector-curvature="0" /></clipPath><clipPath
       id="clipPath5338"
       clipPathUnits="userSpaceOnUse"><path
         id="path5340"
         clip-rule="evenodd"
         d="m 0,4 0,371 535,0 0,-371"
         inkscape:connector-curvature="0" /></clipPath><clipPath
       id="clipPath5326"
       clipPathUnits="userSpaceOnUse"><path
         id="path5328"
         clip-rule="evenodd"
         d="m 47,12 0,355.333 260,0 L 307,12"
         inkscape:connector-curvature="0" /></clipPath><clipPath
       id="clipPath5825"
       clipPathUnits="userSpaceOnUse"><path
         id="path5827"
         clip-rule="evenodd"
         d="m 47,11 0,356 261,0 0,-356"
         inkscape:connector-curvature="0" /></clipPath><clipPath
       id="clipPath5705"
       clipPathUnits="userSpaceOnUse"><path
         id="path5707"
         clip-rule="evenodd"
         d="m 47,11 0,356 261,0 0,-356"
         inkscape:connector-curvature="0" /></clipPath><clipPath
       id="clipPath5697"
       clipPathUnits="userSpaceOnUse"><path
         id="path5699"
         clip-rule="evenodd"
         d="m 47,11 0,356 261,0 0,-356"
         inkscape:connector-curvature="0" /></clipPath><clipPath
       id="clipPath5689"
       clipPathUnits="userSpaceOnUse"><path
         id="path5691"
         clip-rule="evenodd"
         d="m 47,11 0,356 261,0 0,-356"
         inkscape:connector-curvature="0" /></clipPath><clipPath
       id="clipPath5681"
       clipPathUnits="userSpaceOnUse"><path
         id="path5683"
         clip-rule="evenodd"
         d="m 47,11 0,356 260,0 0,-356"
         inkscape:connector-curvature="0" /></clipPath><clipPath
       id="clipPath5673"
       clipPathUnits="userSpaceOnUse"><path
         id="path5675"
         clip-rule="evenodd"
         d="m 45,10 0,359 264,0 0,-359"
         inkscape:connector-curvature="0" /></clipPath><clipPath
       id="clipPath5665"
       clipPathUnits="userSpaceOnUse"><path
         id="path5667"
         clip-rule="evenodd"
         d="m 47,12 0,356 260,0 0,-356"
         inkscape:connector-curvature="0" /></clipPath><clipPath
       id="clipPath5653"
       clipPathUnits="userSpaceOnUse"><path
         id="path5655"
         clip-rule="evenodd"
         d="m 0,4 0,371 535,0 0,-371"
         inkscape:connector-curvature="0" /></clipPath><clipPath
       id="clipPath5641"
       clipPathUnits="userSpaceOnUse"><path
         id="path5643"
         clip-rule="evenodd"
         d="m 47,12 0,355.333 260,0 L 307,12"
         inkscape:connector-curvature="0" /></clipPath><clipPath
       id="clipPath6360"
       clipPathUnits="userSpaceOnUse"><path
         id="path6362"
         clip-rule="evenodd"
         d="m 47,11 0,356 261,0 0,-356"
         inkscape:connector-curvature="0" /></clipPath><clipPath
       id="clipPath6240"
       clipPathUnits="userSpaceOnUse"><path
         id="path6242"
         clip-rule="evenodd"
         d="m 47,11 0,356 261,0 0,-356"
         inkscape:connector-curvature="0" /></clipPath><clipPath
       id="clipPath6232"
       clipPathUnits="userSpaceOnUse"><path
         id="path6234"
         clip-rule="evenodd"
         d="m 47,11 0,356 261,0 0,-356"
         inkscape:connector-curvature="0" /></clipPath><clipPath
       id="clipPath6224"
       clipPathUnits="userSpaceOnUse"><path
         id="path6226"
         clip-rule="evenodd"
         d="m 47,11 0,356 261,0 0,-356"
         inkscape:connector-curvature="0" /></clipPath><clipPath
       id="clipPath6216"
       clipPathUnits="userSpaceOnUse"><path
         id="path6218"
         clip-rule="evenodd"
         d="m 47,11 0,356 260,0 0,-356"
         inkscape:connector-curvature="0" /></clipPath><clipPath
       id="clipPath6208"
       clipPathUnits="userSpaceOnUse"><path
         id="path6210"
         clip-rule="evenodd"
         d="m 45,10 0,359 264,0 0,-359"
         inkscape:connector-curvature="0" /></clipPath><clipPath
       id="clipPath6200"
       clipPathUnits="userSpaceOnUse"><path
         id="path6202"
         clip-rule="evenodd"
         d="m 47,12 0,356 260,0 0,-356"
         inkscape:connector-curvature="0" /></clipPath><clipPath
       id="clipPath6188"
       clipPathUnits="userSpaceOnUse"><path
         id="path6190"
         clip-rule="evenodd"
         d="m 0,4 0,371 535,0 0,-371"
         inkscape:connector-curvature="0" /></clipPath><clipPath
       id="clipPath6176"
       clipPathUnits="userSpaceOnUse"><path
         id="path6178"
         clip-rule="evenodd"
         d="m 47,12 0,355.333 260,0 L 307,12"
         inkscape:connector-curvature="0" /></clipPath></defs><g
     transform="matrix(1.25,0,0,1.25,-605.79948,-3.553857)"
     inkscape:label="cpkruskal"
     inkscape:groupmode="layer"
     id="g3209"><g
       id="g4661"
       transform="translate(74.133658,19.602794)"><g
         id="g6544"
         transform="translate(-97.066667,3.2)"><g
           id="g6172"
           inkscape:label="cpcollapseraw"
           transform="matrix(0.50468997,0,0,0.50468997,487.21124,-10.10778)"><g
             id="g6174"
             clip-path="url(#clipPath6176)"><g
               id="g6180" /><g
               id="g6182"><g
                 id="g6184"><g
                   id="g6186"
                   clip-path="url(#clipPath6188)"><g
                     id="g6192"><path
                       inkscape:connector-curvature="0"
                       d="M 39,4 487,4 487,375 39,375 39,4 z"
                       style="fill:#ffffff;fill-opacity:1;fill-rule:evenodd;stroke:none"
                       id="path6194" /></g></g></g><g
                 id="g6196"><g
                   id="g6198"
                   clip-path="url(#clipPath6200)"><g
                     id="g6204"><g
                       id="g6206"
                       clip-path="url(#clipPath6208)"><g
                         id="g6212"><g
                           id="g6214"
                           clip-path="url(#clipPath6216)"><g
                             id="g6220"><g
                               id="g6222"
                               clip-path="url(#clipPath6224)" /></g><g
                             id="g6228"><g
                               id="g6230"
                               clip-path="url(#clipPath6232)" /></g><g
                             id="g6236"><g
                               id="g6238"
                               clip-path="url(#clipPath6240)"><path
                                 inkscape:connector-curvature="0"
                                 d="m 55.387,19.367 0.039,-0.151 0.038,-0.15 0.077,-0.299 0.155,-0.582 0.038,-0.14 0.039,-0.138 0.077,-0.268 0.154,-0.494 0.039,-0.113 0.039,-0.109 0.077,-0.205 0.038,-0.094 0.039,-0.09 0.077,-0.163 0.039,-0.073 0.038,-0.067 0.039,-0.061 0.038,-0.056 0.039,-0.049 0.039,-0.042 0.038,-0.037 0.039,-0.03 0.038,-0.024 0.039,-0.017 0.039,-0.011 0.038,-0.004 0.039,0.002 0.038,0.009 0.039,0.016 0.038,0.022 0.039,0.028 0.039,0.035 0.038,0.041 0.039,0.048 0.038,0.053 0.039,0.06 0.039,0.066 0.038,0.071 0.039,0.077 0.038,0.083 0.077,0.181 0.039,0.099 0.039,0.103 0.077,0.22 0.038,0.117 0.039,0.121 0.077,0.252 0.155,0.543 0.041,0.155 0.042,0.156 0.084,0.319 0.167,0.651 0.042,0.163 0.042,0.163 0.083,0.322 0.168,0.623 0.042,0.15 0.041,0.146 0.084,0.281 0.042,0.134 0.042,0.129 0.083,0.245 0.042,0.114 0.042,0.109 0.042,0.103 0.042,0.097 0.042,0.09 0.041,0.084 0.042,0.078 0.042,0.07 0.042,0.063 0.042,0.057 0.042,0.049 0.041,0.041 0.042,0.034 0.042,0.027 0.042,0.019 0.042,0.011 0.042,0.003 0.041,-0.004 0.042,-0.012 0.042,-0.019 0.042,-0.027 0.042,-0.035 0.042,-0.042 0.041,-0.05 0.042,-0.057 0.042,-0.064 0.042,-0.071 0.042,-0.078 0.042,-0.084 0.041,-0.091 0.084,-0.201 0.042,-0.109 0.042,-0.115 0.083,-0.245 0.168,-0.547 0.039,-0.136 0.039,-0.139 0.078,-0.287 0.156,-0.594 0.039,-0.152 0.039,-0.152 0.078,-0.305 0.157,-0.604 0.039,-0.148 0.039,-0.147 0.078,-0.286 0.039,-0.14 0.039,-0.136 0.078,-0.264 0.039,-0.126 0.039,-0.123 0.078,-0.232 0.039,-0.11 0.039,-0.105 0.078,-0.194 0.04,-0.09 0.039,-0.083 0.039,-0.079 0.039,-0.072 0.039,-0.066 0.039,-0.06 0.039,-0.054 0.039,-0.048 0.039,-0.041 0.039,-0.035 0.039,-0.028 0.039,-0.021 0.039,-0.015 0.039,-0.008 0.039,-0.002 0.039,0.006 0.039,0.012 0.04,0.018 0.039,0.025 0.039,0.032 0.039,0.039 0.039,0.045 0.039,0.051 0.039,0.057 0.039,0.064 0.039,0.07 0.039,0.075 0.039,0.082 0.039,0.087 0.039,0.092 0.078,0.2 0.039,0.106 0.038,0.11 0.077,0.232 0.153,0.509 0.038,0.135 0.038,0.138 0.077,0.282 0.153,0.585 0.038,0.149 0.039,0.149 0.076,0.299 0.153,0.592 0.039,0.145 0.038,0.143 0.077,0.281 0.153,0.528 0.038,0.125 0.038,0.12 0.077,0.229 0.038,0.108 0.038,0.103 0.077,0.192 0.038,0.089 0.039,0.083 0.038,0.078 0.038,0.072 0.038,0.067 0.039,0.06 0.038,0.055 0.038,0.049 0.039,0.042 0.038,0.037 0.038,0.03 0.039,0.024 0.038,0.017 0.038,0.011 0.038,0.004 0.039,-0.002 0.038,-0.008 0.038,-0.015 0.039,-0.021 0.038,-0.028 0.038,-0.034 0.038,-0.04 0.039,-0.047 0.038,-0.052 0.042,-0.064 0.041,-0.07 0.042,-0.078 0.041,-0.084 0.042,-0.09 0.041,-0.097 0.083,-0.21 0.042,-0.114 0.041,-0.119 0.083,-0.253 0.167,-0.558 0.041,-0.148 0.042,-0.151 0.083,-0.31 0.166,-0.639 0.332,-1.281 0.042,-0.154 0.041,-0.151 0.083,-0.292 0.042,-0.141 0.041,-0.137 0.084,-0.261 0.041,-0.124 0.042,-0.119 0.083,-0.22 0.041,-0.102 0.042,-0.096 0.083,-0.173 0.041,-0.077 0.042,-0.069 0.041,-0.063 0.042,-0.056 0.042,-0.049 0.041,-0.041 0.042,-0.034 0.041,-0.027 0.042,-0.019 0.041,-0.011 0.042,-0.004 0.041,0.004 0.042,0.011 0.041,0.019 0.042,0.026 0.041,0.034 0.039,0.038 0.039,0.045 0.039,0.051 0.038,0.057 0.039,0.063 0.039,0.069 0.078,0.156 0.038,0.086 0.039,0.091 0.078,0.198 0.038,0.107 0.039,0.111 0.078,0.235 0.038,0.123 0.039,0.128 0.078,0.264 0.155,0.563 0.31,1.197 0.039,0.151 0.038,0.15 0.078,0.297 0.155,0.574 0.039,0.137 0.039,0.135 0.077,0.259 0.155,0.474 0.039,0.107 0.039,0.103 0.038,0.098 0.039,0.093 0.039,0.087 0.039,0.082 0.077,0.147 0.039,0.064 0.039,0.059 0.039,0.052 0.038,0.046 0.039,0.04 0.039,0.033 0.039,0.027 0.038,0.02 0.042,0.015 0.042,0.007 0.042,-10e-4 0.042,-0.009 0.042,-0.016 0.042,-0.024 0.042,-0.032 0.042,-0.039 0.043,-0.047 0.042,-0.054 0.042,-0.062 0.042,-0.069 0.042,-0.075 0.042,-0.083 0.084,-0.184 0.042,-0.102 0.042,-0.107 0.084,-0.233 0.168,-0.524 0.042,-0.142 0.042,-0.146 0.084,-0.302 0.168,-0.632 0.042,-0.163 0.042,-0.163 0.084,-0.328 0.168,-0.651 0.042,-0.159 0.042,-0.158 0.084,-0.308 0.168,-0.577 0.042,-0.134 0.042,-0.13 0.084,-0.244 0.042,-0.115 0.042,-0.108 0.084,-0.199 0.042,-0.09 0.042,-0.083 0.042,-0.077 0.042,-0.069 0.042,-0.063 0.042,-0.055 0.042,-0.048 0.042,-0.04 0.041,-0.033 0.042,-0.025 0.041,-0.017 0.041,-0.01 0.041,-0.003 0.042,0.005 0.041,0.012 0.041,0.02 0.041,0.027 0.042,0.035 0.041,0.042 0.041,0.049 0.041,0.056 0.042,0.063 0.041,0.07 0.041,0.076 0.041,0.083 0.042,0.09 0.082,0.197 0.041,0.107 0.041,0.112 0.083,0.241 0.041,0.127 0.041,0.132 0.083,0.276 0.165,0.592 0.041,0.155 0.041,0.156 0.083,0.318 0.165,0.643 0.041,0.16 0.041,0.16 0.083,0.316 0.165,0.606 0.041,0.144 0.041,0.141 0.083,0.271 0.041,0.129 0.041,0.124 0.083,0.233 0.041,0.109 0.041,0.103 0.042,0.098 0.041,0.091 0.041,0.085 0.041,0.078 0.042,0.072 0.041,0.065 0.038,0.055 0.039,0.048 0.038,0.042 0.039,0.036 0.038,0.03 0.039,0.023 0.038,0.016 0.039,0.011 0.038,0.003 0.038,-0.003 0.039,-0.009 0.038,-0.016 0.039,-0.022 0.038,-0.029 0.039,-0.035 0.038,-0.041 0.039,-0.048 0.038,-0.054 0.039,-0.059 0.038,-0.066 0.039,-0.071 0.038,-0.078 0.077,-0.17 0.039,-0.093 0.038,-0.099 0.077,-0.21 0.154,-0.473 0.038,-0.128 0.039,-0.131 0.077,-0.271 0.154,-0.571 0.307,-1.194 0.039,-0.149 0.038,-0.147 0.077,-0.292 0.154,-0.558 0.039,-0.133 0.038,-0.13 0.077,-0.249 0.039,-0.118 0.038,-0.115 0.077,-0.216 0.042,-0.11 0.041,-0.103 0.042,-0.098 0.042,-0.092 0.042,-0.085 0.041,-0.078 0.042,-0.072 0.042,-0.064 0.041,-0.058 0.042,-0.05 0.042,-0.043 0.042,-0.035 0.041,-0.028 0.042,-0.021 0.042,-0.013 0.042,-0.005 0.041,0.003 0.042,0.01 0.042,0.017 0.041,0.026 0.042,0.033 0.042,0.04 0.042,0.048 0.041,0.055 0.042,0.062 0.042,0.069 0.041,0.076 0.042,0.083 0.042,0.089 0.042,0.095 0.083,0.209 0.042,0.113 0.041,0.119 0.084,0.252 0.167,0.557 0.041,0.148 0.042,0.151 0.084,0.31 0.167,0.642 0.041,0.163 0.042,0.162 0.083,0.325 0.167,0.637 0.042,0.155 0.042,0.152 0.083,0.294 0.167,0.543 0.039,0.117 0.039,0.112 0.078,0.21 0.039,0.097 0.039,0.093 0.078,0.168 0.039,0.076 0.038,0.07 0.039,0.063 0.039,0.058 0.039,0.052 0.039,0.045 0.039,0.039 0.039,0.032 0.039,0.026 0.039,0.019 0.039,0.012 0.039,0.006 0.039,-10e-4 0.039,-0.008 0.039,-0.014 0.039,-0.021 0.039,-0.027 0.039,-0.034 0.039,-0.04 0.038,-0.047 0.039,-0.053 0.039,-0.06 0.039,-0.065 0.039,-0.071 0.039,-0.078 0.039,-0.082 0.078,-0.183 0.039,-0.098 0.039,-0.104 0.078,-0.222 0.039,-0.118 0.039,-0.121 0.078,-0.255 0.155,-0.548 0.039,-0.144 0.039,-0.145 0.078,-0.297 0.156,-0.605 0.312,-1.193 0.038,-0.14 0.038,-0.136 0.076,-0.266 0.038,-0.128 0.039,-0.125 0.076,-0.238 0.038,-0.113 0.038,-0.109 0.077,-0.204 0.038,-0.095 0.038,-0.09 0.076,-0.164 0.039,-0.073 0.038,-0.069 0.038,-0.062 0.038,-0.056 0.038,-0.051 0.039,-0.044 0.038,-0.038 0.038,-0.032 0.038,-0.026 0.038,-0.02 0.038,-0.013 0.039,-0.006 0.038,0 0.038,0.006 0.038,0.013 0.038,0.019 0.038,0.025 0.039,0.032 0.038,0.037 0.038,0.045 0.038,0.05 0.038,0.056 0.039,0.062 0.038,0.068 0.038,0.073 0.038,0.079 0.076,0.174 0.039,0.094 0.038,0.1 0.076,0.213 0.038,0.112 0.039,0.117 0.076,0.246 0.153,0.53 0.305,1.159 0.042,0.162 0.041,0.161 0.083,0.322 0.165,0.629 0.042,0.152 0.041,0.149 0.083,0.288 0.166,0.531 0.041,0.121 0.042,0.116 0.041,0.11 0.042,0.105 0.041,0.099 0.041,0.093 0.083,0.167 0.042,0.074 0.041,0.067 0.042,0.059 0.041,0.053 0.041,0.046 0.042,0.038 0.041,0.031 0.042,0.023 0.041,0.016 0.042,0.009 0.041,10e-4 0.041,-0.007 0.042,-0.014 0.041,-0.022 0.042,-0.029 0.041,-0.036 0.042,-0.044 0.041,-0.051 0.041,-0.058 0.042,-0.066 0.041,-0.072 0.042,-0.078 0.083,-0.177 0.041,-0.098 0.041,-0.103 0.083,-0.224 0.042,-0.12 0.041,-0.125 0.083,-0.263 0.041,-0.138 0.042,-0.142 0.083,-0.293 0.165,-0.619 0.039,-0.149 0.039,-0.149 0.077,-0.301 0.155,-0.602 0.038,-0.149 0.039,-0.148 0.077,-0.29 0.155,-0.553 0.038,-0.131 0.039,-0.128 0.077,-0.244 0.039,-0.116 0.039,-0.112 0.077,-0.21 0.039,-0.097 0.038,-0.093 0.039,-0.087 0.039,-0.082 0.038,-0.076 0.039,-0.071 0.039,-0.064 0.038,-0.059 0.039,-0.052 0.039,-0.047 0.038,-0.04 0.039,-0.033 0.039,-0.027 0.038,-0.021 0.039,-0.014 0.038,-0.008 0.039,-10e-4 0.039,0.006 0.038,0.012 0.039,0.019 0.039,0.025 0.038,0.032 0.039,0.038 0.039,0.044 0.038,0.051 0.039,0.056 0.039,0.063 0.038,0.069 0.039,0.074 0.039,0.08 0.077,0.177 0.039,0.096 0.038,0.101 0.078,0.217 0.154,0.483 0.042,0.141 0.042,0.145 0.084,0.3 0.167,0.629 0.042,0.162 0.042,0.163 0.084,0.327 0.168,0.65 0.041,0.159 0.042,0.158 0.084,0.308 0.042,0.15 0.042,0.146 0.084,0.282 0.042,0.135 0.042,0.13 0.083,0.246 0.042,0.115 0.042,0.11 0.084,0.201 0.042,0.091 0.042,0.084 0.042,0.078 0.042,0.071 0.041,0.064 0.042,0.057 0.042,0.05 0.042,0.042 0.042,0.034 0.042,0.027 0.042,0.02 0.042,0.011 0.042,0.004 0.042,-0.003 0.041,-0.012 0.042,-0.019 0.042,-0.027 0.042,-0.034 0.042,-0.042 0.042,-0.05 0.042,-0.056 0.042,-0.064 0.042,-0.071 0.042,-0.078 0.041,-0.084 0.042,-0.091 0.084,-0.201 0.042,-0.109 0.042,-0.115 0.084,-0.246 0.041,-0.127 0.041,-0.132 0.082,-0.277 0.165,-0.592 0.329,-1.269 0.041,-0.16 0.041,-0.159 0.082,-0.314 0.165,-0.604 0.041,-0.144 0.041,-0.14 0.082,-0.269 0.042,-0.129 0.041,-0.123 0.082,-0.233 0.041,-0.108 0.041,-0.102 0.041,-0.097 0.041,-0.091 0.042,-0.084 0.041,-0.078 0.041,-0.072 0.041,-0.065 0.041,-0.057 0.041,-0.051 0.041,-0.044 0.042,-0.037 0.041,-0.029 0.041,-0.022 0.041,-0.014 0.041,-0.007 0.041,0 0.041,0.008 0.041,0.015 0.042,0.023 0.041,0.03 0.041,0.037 0.041,0.045 0.041,0.051 0.041,0.059 0.041,0.065 0.042,0.072 0.041,0.079 0.041,0.085 0.041,0.091 0.082,0.201 0.039,0.101 0.038,0.106 0.077,0.225 0.153,0.497 0.038,0.133 0.039,0.136 0.077,0.278 0.153,0.581 0.038,0.149 0.039,0.149 0.076,0.299 0.154,0.596 0.038,0.146 0.039,0.145 0.076,0.285 0.154,0.54 0.038,0.127 0.038,0.124 0.077,0.236 0.039,0.112 0.038,0.108 0.077,0.201 0.038,0.093 0.038,0.088 0.039,0.082 0.038,0.077 0.038,0.072 0.039,0.066 0.038,0.06 0.039,0.053 0.038,0.048 0.038,0.042 0.039,0.035 0.038,0.029 0.038,0.023 0.039,0.016 0.038,0.01 0.038,0.003 0.039,-0.003 0.038,-0.009 0.039,-0.016 0.038,-0.023 0.038,-0.029 0.039,-0.035 0.038,-0.041 0.038,-0.048 0.042,-0.059 0.042,-0.065 0.041,-0.073 0.042,-0.079 0.041,-0.086 0.042,-0.092 0.083,-0.202 0.042,-0.11 0.041,-0.116 0.084,-0.246 0.166,-0.547 0.042,-0.146 0.041,-0.149 0.083,-0.307 0.167,-0.637 0.333,-1.287 0.041,-0.156 0.042,-0.153 0.083,-0.297 0.042,-0.144 0.041,-0.14 0.084,-0.268 0.041,-0.127 0.042,-0.122 0.083,-0.228 0.042,-0.106 0.041,-0.101 0.083,-0.181 0.042,-0.081 0.042,-0.075 0.041,-0.067 0.042,-0.061 0.041,-0.054 0.042,-0.046 0.042,-0.039 0.041,-0.031 0.042,-0.024 0.041,-0.017 0.042,-0.008 0.042,-0.002 0.041,0.007 0.042,0.014 0.042,0.021 0.041,0.03 0.039,0.033 0.039,0.041 0.039,0.047 0.038,0.052 0.039,0.06 0.039,0.065 0.078,0.148 0.039,0.082 0.038,0.088 0.078,0.192 0.039,0.104 0.039,0.108 0.077,0.23 0.039,0.121 0.039,0.125 0.078,0.261 0.155,0.557 0.311,1.195 0.039,0.151 0.038,0.151 0.078,0.299 0.155,0.58 0.039,0.139 0.039,0.137 0.078,0.264 0.155,0.484 0.039,0.11 0.039,0.106 0.039,0.101 0.039,0.096 0.038,0.091 0.039,0.085 0.078,0.154 0.039,0.068 0.039,0.062 0.038,0.056 0.039,0.05 0.039,0.044 0.039,0.037 0.039,0.03 0.039,0.024 0.042,0.019 0.042,0.011 0.042,0.003 0.042,-0.004 0.042,-0.013 0.042,-0.02 0.042,-0.028 0.042,-0.035 0.042,-0.043 0.042,-0.051 0.042,-0.058 0.042,-0.065 0.043,-0.072 0.042,-0.079 0.084,-0.178 0.042,-0.099 0.042,-0.105 0.084,-0.227 0.042,-0.122 0.042,-0.126 0.084,-0.268 0.043,-0.141 0.042,-0.144 0.084,-0.299 0.168,-0.629 0.042,-0.162 0.042,-0.164 0.084,-0.328 0.169,-0.653 0.042,-0.161 0.042,-0.159 0.084,-0.311 0.168,-0.584 0.042,-0.137 0.043,-0.132 0.084,-0.249 0.042,-0.117 0.042,-0.111 0.084,-0.205 0.042,-0.093 0.042,-0.086 0.042,-0.08 0.042,-0.072 0.042,-0.066 0.042,-0.058 0.043,-0.052 0.042,-0.043 0.041,-0.036 0.041,-0.028 0.042,-0.021 0.041,-0.013 0.041,-0.006 0.042,0.002 0.041,0.009 0.041,0.017 0.041,0.024 0.042,0.032 0.041,0.039 0.041,0.046 0.042,0.053 0.041,0.06 0.041,0.068 0.042,0.074 0.041,0.08 0.041,0.087 0.083,0.192 0.041,0.106 0.042,0.11 0.082,0.237 0.041,0.126 0.042,0.131 0.082,0.273 0.166,0.589 0.041,0.154 0.041,0.156 0.083,0.317 0.165,0.643 0.042,0.161 0.041,0.161 0.082,0.317 0.166,0.61 0.041,0.146 0.041,0.143 0.083,0.274 0.041,0.13 0.042,0.126 0.082,0.238 0.042,0.11 0.041,0.106 0.041,0.099 0.041,0.093 0.042,0.088 0.041,0.08 0.041,0.075 0.042,0.067 0.038,0.057 0.039,0.05 0.038,0.045 0.039,0.038 0.038,0.031 0.039,0.026 0.039,0.019 0.038,0.012 0.039,0.006 0.038,-10e-4 0.039,-0.007 0.038,-0.014 0.039,-0.02 0.038,-0.027 0.039,-0.033 0.038,-0.039 0.039,-0.046 0.038,-0.052 0.039,-0.058 0.039,-0.064 0.038,-0.07 0.039,-0.075 0.077,-0.168 0.038,-0.092 0.039,-0.097 0.077,-0.208 0.154,-0.469 0.039,-0.127 0.038,-0.13 0.077,-0.27 0.154,-0.569 0.309,-1.196 0.038,-0.149 0.039,-0.148 0.077,-0.293 0.154,-0.562 0.039,-0.133 0.038,-0.131 0.077,-0.251 0.039,-0.12 0.038,-0.116 0.077,-0.219 0.042,-0.111 0.042,-0.105 0.042,-0.099 0.042,-0.093 0.041,-0.087 0.042,-0.079 0.042,-0.074 0.042,-0.066 0.041,-0.059 0.042,-0.052 0.042,-0.044 0.042,-0.037 0.042,-0.03 0.041,-0.022 0.042,-0.014 0.042,-0.006 0.042,10e-4 0.042,0.008 0.041,0.017 0.042,0.024 0.042,0.031 0.042,0.039 0.042,0.047 0.041,0.054 0.042,0.061 0.042,0.068 0.042,0.075 0.041,0.081 0.042,0.089 0.042,0.094 0.084,0.208 0.041,0.112 0.042,0.118 0.084,0.251 0.167,0.555 0.042,0.148 0.041,0.151 0.084,0.31 0.167,0.642 0.042,0.163 0.042,0.163 0.083,0.326 0.168,0.638 0.041,0.155 0.042,0.153 0.084,0.295 0.167,0.547 0.039,0.117 0.039,0.112 0.078,0.212 0.039,0.098 0.039,0.093 0.078,0.17 0.039,0.076 0.039,0.071 0.039,0.065 0.039,0.058 0.039,0.052 0.039,0.046 0.039,0.039 0.039,0.033 0.039,0.027 0.039,0.019 0.039,0.013 0.039,0.007 0.039,-10e-4 0.039,-0.007 0.039,-0.013 0.039,-0.021 0.039,-0.027 0.039,-0.033 0.039,-0.04 0.039,-0.047 0.039,-0.053 0.039,-0.059 0.039,-0.065 0.039,-0.071 0.039,-0.077 0.039,-0.083 0.078,-0.181 0.039,-0.099 0.039,-0.104 0.078,-0.222 0.039,-0.117 0.039,-0.122 0.078,-0.255 0.157,-0.549 0.039,-0.144 0.039,-0.145 0.078,-0.297 0.156,-0.606 0.312,-1.196 0.038,-0.139 0.038,-0.138 0.077,-0.265 0.038,-0.129 0.038,-0.125 0.077,-0.238 0.038,-0.114 0.038,-0.109 0.077,-0.204 0.038,-0.095 0.038,-0.09 0.077,-0.164 0.038,-0.073 0.038,-0.068 0.039,-0.063 0.038,-0.056 0.038,-0.05 0.038,-0.045 0.039,-0.038 0.038,-0.032 0.038,-0.025 0.038,-0.019 0.039,-0.013 0.038,-0.006 0.038,0 0.038,0.006 0.039,0.013 0.038,0.02 0.038,0.026 0.038,0.032 0.039,0.038 0.038,0.044 0.038,0.051 0.038,0.057 0.039,0.062 0.038,0.069 0.038,0.073 0.038,0.08 0.077,0.175 0.038,0.095 0.038,0.1 0.077,0.214 0.038,0.113 0.038,0.118 0.077,0.246 0.153,0.532 0.306,1.163 0.041,0.162 0.042,0.162 0.083,0.322 0.166,0.629 0.041,0.152 0.042,0.149 0.083,0.288 0.166,0.529 0.041,0.12 0.042,0.116 0.041,0.11 0.042,0.104 0.041,0.099 0.042,0.092 0.083,0.165 0.041,0.073 0.042,0.066 0.041,0.059 0.042,0.052 0.041,0.044 0.042,0.037 0.041,0.03 0.042,0.022 0.041,0.015 0.042,0.008 0.041,-10e-4 0.042,-0.008 0.041,-0.015 0.042,-0.023 0.041,-0.031 0.042,-0.037 0.041,-0.046 0.042,-0.052 0.041,-0.059 0.041,-0.067 0.042,-0.073 0.041,-0.08 0.083,-0.18 0.042,-0.098 0.041,-0.105 0.083,-0.227 0.042,-0.121 0.041,-0.126 0.083,-0.265 0.042,-0.139 0.041,-0.143 0.083,-0.295 0.166,-0.622 0.039,-0.149 0.039,-0.15 0.077,-0.302 0.155,-0.602 0.039,-0.149 0.039,-0.147 0.077,-0.29 0.155,-0.552 0.039,-0.13 0.038,-0.127 0.078,-0.243 0.039,-0.115 0.038,-0.111 0.078,-0.207 0.038,-0.097 0.039,-0.091 0.039,-0.086 0.039,-0.081 0.038,-0.074 0.039,-0.069 0.039,-0.063 0.039,-0.057 0.038,-0.051 0.039,-0.045 0.039,-0.038 0.038,-0.032 0.039,-0.025 0.039,-0.019 0.039,-0.012 0.038,-0.006 0.039,10e-4 0.039,0.008 0.038,0.014 0.039,0.021 0.039,0.027 0.039,0.034 0.038,0.04 0.039,0.046 0.039,0.053 0.039,0.058 0.038,0.065 0.039,0.071 0.039,0.076 0.038,0.082 0.078,0.181 0.039,0.098 0.038,0.103 0.078,0.219 0.155,0.49 0.042,0.142 0.042,0.147 0.084,0.302 0.167,0.633 0.042,0.163 0.042,0.163 0.084,0.327 0.168,0.65 0.042,0.159 0.042,0.158 0.084,0.306 0.042,0.149 0.042,0.146 0.084,0.28 0.042,0.133 0.042,0.129 0.084,0.242 0.042,0.114 0.042,0.107 0.084,0.197 0.042,0.089 0.042,0.082 0.042,0.076 0.041,0.068 0.042,0.062 0.042,0.054 0.042,0.046 0.042,0.04 0.042,0.032 0.042,0.024 0.042,0.016 0.042,0.009 0.042,10e-4 0.042,-0.007 0.042,-0.015 0.042,-0.022 0.042,-0.03 0.042,-0.037 0.042,-0.045 0.042,-0.052 0.042,-0.06 0.042,-0.067 0.042,-0.074 0.042,-0.08 0.042,-0.087 0.042,-0.094 0.084,-0.206 0.042,-0.112 0.042,-0.117 0.084,-0.251 0.041,-0.129 0.041,-0.135 0.082,-0.28 0.165,-0.597 0.33,-1.274 0.041,-0.16 0.041,-0.159 0.083,-0.314 0.164,-0.6 0.042,-0.142 0.041,-0.139 0.082,-0.266 0.041,-0.126 0.042,-0.122 0.082,-0.227 0.041,-0.106 0.041,-0.1 0.042,-0.094 0.041,-0.088 0.041,-0.081 0.041,-0.075 0.041,-0.069 0.042,-0.061 0.041,-0.055 0.041,-0.047 0.041,-0.04 0.041,-0.033 0.042,-0.026 0.041,-0.018 0.041,-0.011 0.041,-0.003 0.042,0.004 0.041,0.012 0.041,0.019 0.041,0.026 0.041,0.034 0.042,0.041 0.041,0.048 0.041,0.056 0.041,0.062 0.041,0.069 0.042,0.076 0.041,0.082 0.041,0.089 0.041,0.094 0.083,0.207 0.038,0.105 0.038,0.108 0.077,0.231 0.154,0.506 0.038,0.135 0.039,0.137 0.077,0.282 0.153,0.585 0.039,0.15 0.038,0.149 0.077,0.3 0.154,0.595 0.038,0.146 0.039,0.144 0.077,0.283 0.153,0.534 0.039,0.125 0.038,0.122 0.077,0.231 0.038,0.109 0.039,0.105 0.077,0.195 0.038,0.09 0.039,0.085 0.038,0.079 0.038,0.074 0.039,0.068 0.038,0.062 0.039,0.056 0.038,0.05 0.039,0.043 0.038,0.038 0.038,0.031 0.039,0.025 0.038,0.019 0.039,0.011 0.038,0.006 0.039,-10e-4 0.038,-0.008 0.038,-0.014 0.039,-0.02 0.038,-0.027 0.039,-0.033 0.038,-0.04 0.039,-0.045 0.038,-0.052 0.042,-0.064 0.041,-0.07 0.042,-0.077 0.042,-0.083 0.041,-0.09 0.042,-0.096 0.083,-0.211 0.042,-0.114 0.042,-0.119 0.083,-0.253 0.167,-0.558 0.042,-0.149 0.041,-0.151 0.084,-0.311 0.166,-0.641 0.334,-1.286 0.041,-0.154 0.042,-0.151 0.083,-0.293 0.042,-0.142 0.042,-0.137 0.083,-0.262 0.042,-0.124 0.041,-0.119 0.042,-0.113 0.042,-0.108 0.041,-0.102 0.042,-0.096 0.083,-0.173 0.042,-0.076 0.042,-0.07 0.042,-0.063 0.041,-0.055 0.042,-0.049 0.042,-0.041 0.041,-0.033 0.042,-0.026 0.042,-0.019 0.041,-0.011 0.042,-0.003 0.042,0.004 0.041,0.012 0.042,0.02 0.042,0.027 0.041,0.035 0.039,0.039 0.039,0.046 0.039,0.051 0.039,0.058 0.039,0.064 0.039,0.071 0.078,0.157 0.038,0.087 0.039,0.093 0.078,0.2 0.039,0.108 0.039,0.112 0.078,0.237 0.039,0.125 0.039,0.128 0.077,0.266 0.156,0.567 0.311,1.202 0.039,0.152 0.039,0.15 0.078,0.298 0.155,0.574 0.039,0.137 0.039,0.134 0.078,0.259 0.156,0.47 0.039,0.107 0.038,0.102 0.039,0.096 0.039,0.092 0.039,0.086 0.039,0.08 0.039,0.075 0.039,0.069 0.039,0.063 0.039,0.057 0.039,0.05 0.039,0.045 0.038,0.037 0.039,0.032 0.039,0.024 0.039,0.019 0.038,0.011 0.038,0.005 0.039,-10e-4 0.038,-0.008 0.038,-0.014 0.038,-0.021 0.038,-0.027 0.038,-0.033 0.038,-0.039 0.039,-0.045 0.038,-0.052 0.038,-0.057 0.038,-0.064 0.038,-0.069 0.076,-0.155 0.038,-0.085 0.039,-0.091 0.076,-0.196 0.038,-0.105 0.038,-0.109 0.076,-0.231 0.039,-0.122 0.038,-0.125 0.076,-0.26 0.153,-0.553 0.038,-0.143 0.038,-0.145 0.076,-0.294 0.153,-0.595 0.038,-0.148 0.038,-0.148 0.076,-0.293 0.153,-0.568 0.038,-0.136 0.038,-0.133 0.076,-0.259 0.038,-0.124 0.039,-0.12 0.076,-0.229 0.038,-0.108 0.038,-0.104 0.076,-0.192 0.039,-0.089 0.038,-0.084 0.076,-0.151 0.041,-0.073 0.042,-0.066 0.041,-0.059 0.041,-0.052 0.042,-0.044 0.041,-0.038 0.042,-0.03 0.041,-0.022 0.041,-0.015 0.042,-0.008 0.041,0 0.042,0.007 0.041,0.015 0.041,0.023 0.042,0.03 0.041,0.037 0.041,0.045 0.042,0.051 0.041,0.059 0.042,0.066 0.041,0.073 0.041,0.079 0.083,0.178 0.041,0.098 0.042,0.104 0.083,0.225 0.041,0.12 0.041,0.125 0.083,0.264 0.042,0.138 0.041,0.142 0.083,0.294 0.165,0.619 0.042,0.159 0.041,0.16 0.083,0.323 0.165,0.643 0.042,0.159 0.041,0.156 0.083,0.307 0.041,0.15 0.042,0.147 0.082,0.283 0.042,0.135 0.041,0.132 0.083,0.249 0.041,0.117 0.042,0.112 0.082,0.207 0.039,0.088 0.039,0.083 0.038,0.077 0.039,0.072 0.038,0.066 0.039,0.06 0.039,0.053 0.038,0.048 0.039,0.041 0.039,0.035 0.038,0.029 0.039,0.022 0.038,0.016 0.039,0.009 0.039,0.002 0.038,-0.004 0.039,-0.01 0.038,-0.017 0.039,-0.024 0.039,-0.03 0.038,-0.037 0.039,-0.042 0.038,-0.049 0.039,-0.056 0.039,-0.061 0.038,-0.067 0.039,-0.073 0.039,-0.079 0.038,-0.084 0.039,-0.09 0.077,-0.194 0.039,-0.105 0.038,-0.109 0.077,-0.231 0.155,-0.509 0.038,-0.135 0.039,-0.138 0.077,-0.284 0.155,-0.588 0.038,-0.15 0.039,-0.151 0.077,-0.301 0.155,-0.597 0.038,-0.147 0.039,-0.145 0.077,-0.283 0.155,-0.535 0.041,-0.136 0.042,-0.131 0.084,-0.249 0.042,-0.116 0.042,-0.111 0.083,-0.204 0.042,-0.093 0.042,-0.086 0.042,-0.08 0.042,-0.073 0.042,-0.066 0.042,-0.059 0.041,-0.052 0.042,-0.044 0.042,-0.037 0.042,-0.029 0.042,-0.021 0.042,-0.014 0.042,-0.007 0.041,0.002 0.042,0.009 0.042,0.017 0.042,0.024 0.042,0.032 0.042,0.04 0.042,0.047 0.041,0.054 0.042,0.062 0.042,0.069 0.042,0.075 0.042,0.082 0.042,0.089 0.083,0.197 0.042,0.107 0.042,0.113 0.084,0.242 0.042,0.129 0.041,0.133 0.084,0.279 0.168,0.6 0.041,0.156 0.042,0.159 0.084,0.322 0.167,0.653 0.335,1.258 0.039,0.137 0.04,0.133 0.078,0.256 0.039,0.123 0.039,0.118 0.078,0.223 0.039,0.105 0.039,0.099 0.039,0.095 0.039,0.089 0.039,0.083 0.04,0.078 0.039,0.072 0.039,0.065 0.039,0.06 0.039,0.054 0.039,0.047 0.039,0.04 0.039,0.035 0.039,0.027 0.039,0.021 0.039,0.014 0.039,0.008 0.04,10e-4 0.039,-0.006 0.039,-0.013 0.039,-0.019 0.039,-0.026 0.039,-0.032 0.039,-0.039 0.039,-0.046 0.039,-0.052 0.039,-0.058 0.039,-0.064 0.039,-0.07 0.04,-0.077 0.078,-0.169 0.039,-0.093 0.039,-0.098 0.078,-0.212 0.156,-0.476 0.039,-0.129 0.04,-0.133 0.078,-0.274 0.156,-0.579 0.313,-1.213 0.038,-0.148 0.038,-0.147 0.077,-0.29 0.153,-0.556 0.039,-0.132 0.038,-0.129 0.077,-0.248 0.038,-0.118 0.038,-0.115 0.077,-0.215 0.038,-0.101 0.038,-0.096 0.039,-0.091 0.038,-0.086 0.038,-0.08 0.039,-0.075 0.038,-0.069 0.038,-0.064 0.039,-0.057 0.038,-0.052 0.038,-0.045 0.039,-0.039 0.038,-0.033 0.038,-0.026 0.039,-0.021 0.038,-0.013 0.038,-0.008 0.039,-10e-4 0.038,0.006 0.038,0.012 0.039,0.019 0.038,0.024 0.038,0.032 0.038,0.037 0.039,0.044 0.038,0.05 0.038,0.056 0.039,0.062 0.038,0.067 0.038,0.074 0.077,0.163 0.038,0.089 0.039,0.095 0.076,0.204 0.154,0.461 0.038,0.124 0.038,0.129 0.077,0.266 0.153,0.562 0.042,0.158 0.041,0.16 0.083,0.322 0.167,0.648 0.041,0.161 0.042,0.159 0.083,0.314 0.166,0.599 0.042,0.141 0.041,0.138 0.083,0.262 0.042,0.124 0.042,0.119 0.083,0.222 0.041,0.103 0.042,0.096 0.041,0.09 0.042,0.084 0.041,0.077 0.042,0.071 0.042,0.063 0.041,0.057 0.042,0.049 0.041,0.042 0.042,0.035 0.041,0.027 0.042,0.02 0.042,0.012 0.041,0.004 0.042,-0.003 0.041,-0.011 0.042,-0.018 0.041,-0.026 0.042,-0.033 0.041,-0.041 0.042,-0.048 0.042,-0.055 0.041,-0.062 0.042,-0.069 0.041,-0.076 0.042,-0.083 0.041,-0.089 0.042,-0.095 0.042,-0.102 0.083,-0.22 0.041,-0.118 0.042,-0.123 0.083,-0.261 0.166,-0.569 0.039,-0.141 0.039,-0.143 0.077,-0.292 0.156,-0.599 0.038,-0.151 0.039,-0.152 0.078,-0.302 0.155,-0.592 0.039,-0.144 0.038,-0.142 0.078,-0.275 0.039,-0.134 0.039,-0.13 0.077,-0.25 0.039,-0.119 0.039,-0.115 0.077,-0.216 0.039,-0.101 0.039,-0.096 0.078,-0.176 0.038,-0.08 0.039,-0.074 0.039,-0.069 0.039,-0.062 0.038,-0.056 0.039,-0.05 0.039,-0.044 0.039,-0.037 0.039,-0.031 0.038,-0.024 0.039,-0.018 0.039,-0.011 0.039,-0.005 0.039,0.002 0.038,0.009 0.039,0.015 0.039,0.022 0.039,0.028 0.039,0.035 0.038,0.041 0.039,0.048 0.039,0.054 0.039,0.06 0.039,0.066 0.038,0.071 0.039,0.078 0.078,0.172 0.038,0.094 0.039,0.099 0.078,0.213 0.042,0.122 0.042,0.128 0.084,0.27 0.168,0.586 0.336,1.285 0.043,0.164 0.042,0.163 0.084,0.325 0.168,0.628 0.042,0.15 0.042,0.147 0.084,0.283 0.042,0.136 0.042,0.131 0.084,0.247 0.042,0.115 0.042,0.11 0.042,0.104 0.042,0.098 0.042,0.091 0.042,0.085 0.042,0.078 0.042,0.072 0.042,0.064 0.042,0.057 0.042,0.049 0.043,0.042 0.042,0.035 0.042,0.027 0.042,0.019 0.042,0.012 0.042,0.003 0.042,-0.004 0.042,-0.012 0.042,-0.019 0.042,-0.027 0.042,-0.035 0.042,-0.043 0.042,-0.05 0.042,-0.057 0.042,-0.064 0.042,-0.072 0.042,-0.078 0.042,-0.086 0.042,-0.091 0.084,-0.203 0.042,-0.108 0.041,-0.113 0.082,-0.242 0.165,-0.539 0.042,-0.144 0.041,-0.147 0.083,-0.303 0.165,-0.63 0.041,-0.161 0.041,-0.161 0.083,-0.322 0.165,-0.635 0.041,-0.155 0.041,-0.153 0.083,-0.297 0.165,-0.554 0.041,-0.128 0.041,-0.123 0.083,-0.232 0.041,-0.108 0.042,-0.102 0.082,-0.187 0.041,-0.083 0.042,-0.078 0.041,-0.07 0.041,-0.064 0.041,-0.057 0.042,-0.05 0.041,-0.043 0.041,-0.035 0.042,-0.028 0.041,-0.021 0.041,-0.013 0.041,-0.006 0.042,0.002 0.041,0.009 0.041,0.017 0.041,0.024 0.042,0.032 0.041,0.039 0.041,0.046 0.042,0.053 0.041,0.06 0.041,0.067 0.041,0.074 0.042,0.081 0.038,0.08 0.039,0.087 0.077,0.188 0.038,0.101 0.039,0.106 0.077,0.226 0.038,0.119 0.039,0.123 0.077,0.257 0.154,0.549 0.038,0.143 0.039,0.145 0.077,0.295 0.154,0.599 0.308,1.175 0.038,0.14 0.039,0.137 0.077,0.264 0.038,0.128 0.039,0.124 0.077,0.236 0.038,0.112 0.039,0.107 0.077,0.201 0.038,0.093 0.039,0.088 0.077,0.159 0.038,0.071 0.039,0.065 0.038,0.059 0.039,0.053 0.038,0.048 0.039,0.04 0.038,0.035 0.039,0.028 0.038,0.022 0.039,0.015 0.038,0.009 0.039,0.002 0.038,-0.004 0.039,-0.011 0.038,-0.017 0.039,-0.024 0.041,-0.033 0.042,-0.04 0.042,-0.048 0.042,-0.055 0.041,-0.062 0.042,-0.07 0.042,-0.076 0.042,-0.083 0.041,-0.089 0.042,-0.096 0.083,-0.209 0.042,-0.113 0.042,-0.119 0.083,-0.252 0.042,-0.133 0.042,-0.138 0.083,-0.286 0.167,-0.611 0.334,-1.293 0.042,-0.161 0.042,-0.161 0.083,-0.315 0.167,-0.601 0.042,-0.142 0.042,-0.138 0.083,-0.263 0.042,-0.124 0.042,-0.12 0.083,-0.222 0.042,-0.103 0.042,-0.096 0.042,-0.09 0.041,-0.084 0.042,-0.077 0.042,-0.07 0.042,-0.063 0.041,-0.057 0.042,-0.048 0.042,-0.042 0.041,-0.034 0.042,-0.026 0.042,-0.019 0.042,-0.011 0.041,-0.004 0.042,0.004 0.039,0.011 0.039,0.017 0.039,0.024 0.039,0.031 0.039,0.037 0.039,0.043 0.039,0.05 0.039,0.056 0.039,0.063 0.039,0.068 0.039,0.074 0.039,0.08 0.039,0.086 0.039,0.091 0.078,0.198 0.039,0.106 0.039,0.111 0.078,0.235 0.156,0.516 0.039,0.138 0.038,0.14 0.078,0.287 0.156,0.595 0.039,0.152 0.039,0.152 0.078,0.304 0.156,0.602 0.039,0.147 0.039,0.145 0.078,0.285 0.156,0.534 0.039,0.125 0.039,0.121 0.078,0.229 0.039,0.108 0.039,0.103 0.078,0.191 0.039,0.088 0.039,0.082 0.039,0.076 0.039,0.07 0.039,0.065 0.039,0.058 0.038,0.052 0.039,0.046 0.039,0.038 0.038,0.032 0.038,0.026 0.038,0.02 0.038,0.013 0.039,0.007 0.038,10e-4 0.038,-0.006 0.038,-0.013 0.039,-0.018 0.038,-0.025 0.038,-0.032 0.038,-0.038 0.038,-0.043 0.039,-0.05 0.038,-0.056 0.038,-0.062 0.038,-0.068 0.038,-0.073 0.039,-0.079 0.038,-0.084 0.038,-0.089 0.076,-0.194 0.039,-0.104 0.038,-0.109 0.076,-0.23 0.153,-0.504 0.038,-0.134 0.038,-0.137 0.077,-0.28 0.153,-0.582 0.038,-0.149 0.038,-0.149 0.077,-0.298 0.152,-0.591 0.039,-0.146 0.038,-0.143 0.076,-0.281 0.038,-0.137 0.039,-0.135 0.076,-0.259 0.038,-0.125 0.038,-0.122 0.077,-0.231 0.038,-0.109 0.038,-0.104 0.077,-0.195 0.041,-0.098 0.042,-0.091 0.041,-0.085 0.041,-0.079 0.042,-0.072 0.041,-0.064 0.042,-0.058 0.041,-0.051 0.042,-0.044 0.041,-0.036 0.042,-0.029 0.041,-0.021 0.042,-0.014 0.041,-0.007 0.041,0.002 0.042,0.008 0.041,0.017 0.042,0.024 0.041,0.031 0.042,0.039 0.041,0.045 0.042,0.054 0.041,0.06 0.042,0.067 0.041,0.074 0.041,0.081 0.042,0.087 0.041,0.093 0.042,0.099 0.041,0.106 0.083,0.227 0.042,0.121 0.041,0.127 0.083,0.266 0.166,0.578 0.331,1.265 0.042,0.162 0.041,0.161 0.083,0.321 0.166,0.621 0.041,0.149 0.042,0.146 0.083,0.282 0.166,0.513 0.038,0.108 0.039,0.104 0.039,0.099 0.038,0.094 0.039,0.088 0.039,0.083 0.077,0.15 0.039,0.066 0.038,0.06 0.039,0.054 0.039,0.047 0.038,0.042 0.039,0.035 0.039,0.028 0.038,0.022 0.039,0.016 0.039,0.009 0.039,0.002 0.038,-0.004 0.039,-0.011 0.039,-0.017 0.038,-0.024 0.039,-0.03 0.039,-0.037 0.038,-0.043 0.039,-0.049 0.039,-0.056 0.038,-0.061 0.039,-0.068 0.077,-0.152 0.039,-0.085 0.039,-0.089 0.077,-0.196 0.039,-0.105 0.038,-0.109 0.078,-0.233 0.038,-0.122 0.039,-0.126 0.078,-0.262 0.154,-0.559 0.039,-0.145 0.039,-0.147 0.077,-0.297 0.155,-0.603 0.309,-1.173 0.043,-0.154 0.043,-0.151 0.087,-0.289 0.043,-0.137 0.043,-0.133 0.087,-0.25 0.043,-0.116 0.043,-0.111 0.043,-0.104 0.043,-0.097 0.043,-0.09 0.044,-0.084 0.043,-0.076 0.043,-0.069 0.043,-0.061 0.043,-0.054 0.044,-0.046 0.043,-0.038 0.043,-0.029 0.043,-0.022 0.043,-0.014 0.043,-0.005 0.044,0.003 0.043,0.011 0.043,0.019 0.043,0.028 0.043,0.035 0.043,0.043 0.044,0.052 0.043,0.059 0.043,0.066 0.043,0.074 0.043,0.082 0.044,0.088 0.043,0.096 0.043,0.102 0.086,0.222 0.043,0.121 0.044,0.126 0.086,0.267 0.173,0.589 0.043,0.156 0.043,0.159 0.086,0.326 0.173,0.668 0.043,0.169 0.043,0.169 0.087,0.334 0.043,0.165 0.043,0.164 0.043,0.161 0.044,0.159"
                                 style="fill:none;stroke:#000000;stroke-width:2.33999991;stroke-linecap:square;stroke-linejoin:miter;stroke-miterlimit:3.25;stroke-opacity:1;stroke-dasharray:none"
                                 id="path6244" /><path
                                 inkscape:connector-curvature="0"
                                 d="m 57.08,367.54 c 0,-0.408 -0.162,-0.8 -0.451,-1.089 C 56.34,366.162 55.948,366 55.54,366 c -0.408,0 -0.8,0.162 -1.089,0.451 -0.289,0.289 -0.451,0.681 -0.451,1.089 0,0.408 0.162,0.8 0.451,1.089 0.289,0.289 0.681,0.451 1.089,0.451 0.408,0 0.8,-0.162 1.089,-0.451 0.289,-0.289 0.451,-0.681 0.451,-1.089 z"
                                 style="fill:#000000;fill-opacity:1;fill-rule:evenodd;stroke:none"
                                 id="path6246" /><path
                                 inkscape:connector-curvature="0"
                                 d="m 55.387,361.267 4.127,-4.264"
                                 style="fill:none;stroke:#000000;stroke-width:2.07999992;stroke-linecap:square;stroke-linejoin:miter;stroke-miterlimit:3.25;stroke-opacity:1;stroke-dasharray:none"
                                 id="path6248" /><path
                                 inkscape:connector-curvature="0"
                                 d="m 55.387,355.2 8.119,-8.389"
                                 style="fill:none;stroke:#000000;stroke-width:2.07999992;stroke-linecap:square;stroke-linejoin:miter;stroke-miterlimit:3.25;stroke-opacity:1;stroke-dasharray:none"
                                 id="path6250" /><path
                                 inkscape:connector-curvature="0"
                                 d="M 55.387,349.133 67.364,336.757"
                                 style="fill:none;stroke:#000000;stroke-width:2.07999992;stroke-linecap:square;stroke-linejoin:miter;stroke-miterlimit:3.25;stroke-opacity:1;stroke-dasharray:none"
                                 id="path6252" /><path
                                 inkscape:connector-curvature="0"
                                 d="M 55.387,343.067 71.088,326.843"
                                 style="fill:none;stroke:#000000;stroke-width:2.07999992;stroke-linecap:square;stroke-linejoin:miter;stroke-miterlimit:3.25;stroke-opacity:1;stroke-dasharray:none"
                                 id="path6254" /><path
                                 inkscape:connector-curvature="0"
                                 d="m 55.387,337 19.29,-19.933"
                                 style="fill:none;stroke:#000000;stroke-width:2.07999992;stroke-linecap:square;stroke-linejoin:miter;stroke-miterlimit:3.25;stroke-opacity:1;stroke-dasharray:none"
                                 id="path6256" /><path
                                 inkscape:connector-curvature="0"
                                 d="M 55.387,330.933 78.133,307.429"
                                 style="fill:none;stroke:#000000;stroke-width:2.07999992;stroke-linecap:square;stroke-linejoin:miter;stroke-miterlimit:3.25;stroke-opacity:1;stroke-dasharray:none"
                                 id="path6258" /><path
                                 inkscape:connector-curvature="0"
                                 d="M 55.387,324.867 81.454,297.931"
                                 style="fill:none;stroke:#000000;stroke-width:2.07999992;stroke-linecap:square;stroke-linejoin:miter;stroke-miterlimit:3.25;stroke-opacity:1;stroke-dasharray:none"
                                 id="path6260" /><path
                                 inkscape:connector-curvature="0"
                                 d="M 55.387,318.8 84.641,288.571"
                                 style="fill:none;stroke:#000000;stroke-width:2.07999992;stroke-linecap:square;stroke-linejoin:miter;stroke-miterlimit:3.25;stroke-opacity:1;stroke-dasharray:none"
                                 id="path6262" /><path
                                 inkscape:connector-curvature="0"
                                 d="M 55.387,312.733 87.694,279.349"
                                 style="fill:none;stroke:#000000;stroke-width:2.07999992;stroke-linecap:square;stroke-linejoin:miter;stroke-miterlimit:3.25;stroke-opacity:1;stroke-dasharray:none"
                                 id="path6264" /><path
                                 inkscape:connector-curvature="0"
                                 d="m 55.387,306.667 35.226,-36.4"
                                 style="fill:none;stroke:#000000;stroke-width:2.07999992;stroke-linecap:square;stroke-linejoin:miter;stroke-miterlimit:3.25;stroke-opacity:1;stroke-dasharray:none"
                                 id="path6266" /><path
                                 inkscape:connector-curvature="0"
                                 d="m 55.387,300.6 38.01,-39.277"
                                 style="fill:none;stroke:#000000;stroke-width:2.07999992;stroke-linecap:square;stroke-linejoin:miter;stroke-miterlimit:3.25;stroke-opacity:1;stroke-dasharray:none"
                                 id="path6268" /><path
                                 inkscape:connector-curvature="0"
                                 d="M 55.387,294.533 96.048,252.517"
                                 style="fill:none;stroke:#000000;stroke-width:2.07999992;stroke-linecap:square;stroke-linejoin:miter;stroke-miterlimit:3.25;stroke-opacity:1;stroke-dasharray:none"
                                 id="path6270" /><path
                                 inkscape:connector-curvature="0"
                                 d="M 55.387,288.467 98.564,243.851"
                                 style="fill:none;stroke:#000000;stroke-width:2.07999992;stroke-linecap:square;stroke-linejoin:miter;stroke-miterlimit:3.25;stroke-opacity:1;stroke-dasharray:none"
                                 id="path6272" /><path
                                 inkscape:connector-curvature="0"
                                 d="m 55.387,282.4 45.559,-47.077"
                                 style="fill:none;stroke:#000000;stroke-width:2.07999992;stroke-linecap:square;stroke-linejoin:miter;stroke-miterlimit:3.25;stroke-opacity:1;stroke-dasharray:none"
                                 id="path6274" /><path
                                 inkscape:connector-curvature="0"
                                 d="m 55.387,276.333 47.807,-49.4"
                                 style="fill:none;stroke:#000000;stroke-width:2.07999992;stroke-linecap:square;stroke-linejoin:miter;stroke-miterlimit:3.25;stroke-opacity:1;stroke-dasharray:none"
                                 id="path6276" /><path
                                 inkscape:connector-curvature="0"
                                 d="m 55.387,270.267 49.92,-51.584"
                                 style="fill:none;stroke:#000000;stroke-width:2.07999992;stroke-linecap:square;stroke-linejoin:miter;stroke-miterlimit:3.25;stroke-opacity:1;stroke-dasharray:none"
                                 id="path6278" /><path
                                 inkscape:connector-curvature="0"
                                 d="m 55.387,264.2 51.899,-53.629"
                                 style="fill:none;stroke:#000000;stroke-width:2.07999992;stroke-linecap:square;stroke-linejoin:miter;stroke-miterlimit:3.25;stroke-opacity:1;stroke-dasharray:none"
                                 id="path6280" /><path
                                 inkscape:connector-curvature="0"
                                 d="m 55.387,258.133 53.745,-55.536"
                                 style="fill:none;stroke:#000000;stroke-width:2.07999992;stroke-linecap:square;stroke-linejoin:miter;stroke-miterlimit:3.25;stroke-opacity:1;stroke-dasharray:none"
                                 id="path6282" /><path
                                 inkscape:connector-curvature="0"
                                 d="m 55.387,252.067 55.456,-57.304"
                                 style="fill:none;stroke:#000000;stroke-width:2.07999992;stroke-linecap:square;stroke-linejoin:miter;stroke-miterlimit:3.25;stroke-opacity:1;stroke-dasharray:none"
                                 id="path6284" /><path
                                 inkscape:connector-curvature="0"
                                 d="m 55.387,246 57.032,-58.933"
                                 style="fill:none;stroke:#000000;stroke-width:2.07999992;stroke-linecap:square;stroke-linejoin:miter;stroke-miterlimit:3.25;stroke-opacity:1;stroke-dasharray:none"
                                 id="path6286" /><path
                                 inkscape:connector-curvature="0"
                                 d="m 55.387,239.933 58.475,-60.424"
                                 style="fill:none;stroke:#000000;stroke-width:2.07999992;stroke-linecap:square;stroke-linejoin:miter;stroke-miterlimit:3.25;stroke-opacity:1;stroke-dasharray:none"
                                 id="path6288" /><path
                                 inkscape:connector-curvature="0"
                                 d="M 55.387,233.867 115.17,172.091"
                                 style="fill:none;stroke:#000000;stroke-width:2.07999992;stroke-linecap:square;stroke-linejoin:miter;stroke-miterlimit:3.25;stroke-opacity:1;stroke-dasharray:none"
                                 id="path6290" /><path
                                 inkscape:connector-curvature="0"
                                 d="m 55.387,227.8 60.958,-62.989"
                                 style="fill:none;stroke:#000000;stroke-width:2.07999992;stroke-linecap:square;stroke-linejoin:miter;stroke-miterlimit:3.25;stroke-opacity:1;stroke-dasharray:none"
                                 id="path6292" /><path
                                 inkscape:connector-curvature="0"
                                 d="m 55.387,221.733 61.998,-64.064"
                                 style="fill:none;stroke:#000000;stroke-width:2.07999992;stroke-linecap:square;stroke-linejoin:miter;stroke-miterlimit:3.25;stroke-opacity:1;stroke-dasharray:none"
                                 id="path6294" /><path
                                 inkscape:connector-curvature="0"
                                 d="m 55.387,215.667 62.903,-65"
                                 style="fill:none;stroke:#000000;stroke-width:2.07999992;stroke-linecap:square;stroke-linejoin:miter;stroke-miterlimit:3.25;stroke-opacity:1;stroke-dasharray:none"
                                 id="path6296" /><path
                                 inkscape:connector-curvature="0"
                                 d="m 55.387,209.6 63.675,-65.797"
                                 style="fill:none;stroke:#000000;stroke-width:2.07999992;stroke-linecap:square;stroke-linejoin:miter;stroke-miterlimit:3.25;stroke-opacity:1;stroke-dasharray:none"
                                 id="path6298" /><path
                                 inkscape:connector-curvature="0"
                                 d="m 55.387,203.533 64.312,-66.456"
                                 style="fill:none;stroke:#000000;stroke-width:2.07999992;stroke-linecap:square;stroke-linejoin:miter;stroke-miterlimit:3.25;stroke-opacity:1;stroke-dasharray:none"
                                 id="path6300" /><path
                                 inkscape:connector-curvature="0"
                                 d="m 55.387,197.467 64.816,-66.976"
                                 style="fill:none;stroke:#000000;stroke-width:2.07999992;stroke-linecap:square;stroke-linejoin:miter;stroke-miterlimit:3.25;stroke-opacity:1;stroke-dasharray:none"
                                 id="path6302" /><path
                                 inkscape:connector-curvature="0"
                                 d="m 55.387,191.4 65.185,-67.357"
                                 style="fill:none;stroke:#000000;stroke-width:2.07999992;stroke-linecap:square;stroke-linejoin:miter;stroke-miterlimit:3.25;stroke-opacity:1;stroke-dasharray:none"
                                 id="path6304" /><path
                                 inkscape:connector-curvature="0"
                                 d="m 55.387,185.333 65.419,-67.6"
                                 style="fill:none;stroke:#000000;stroke-width:2.07999992;stroke-linecap:square;stroke-linejoin:miter;stroke-miterlimit:3.25;stroke-opacity:1;stroke-dasharray:none"
                                 id="path6306" /><path
                                 inkscape:connector-curvature="0"
                                 d="m 55.387,179.267 65.52,-67.704"
                                 style="fill:none;stroke:#000000;stroke-width:2.07999992;stroke-linecap:square;stroke-linejoin:miter;stroke-miterlimit:3.25;stroke-opacity:1;stroke-dasharray:none"
                                 id="path6308" /><path
                                 inkscape:connector-curvature="0"
                                 d="m 55.387,173.2 65.487,-67.669"
                                 style="fill:none;stroke:#000000;stroke-width:2.07999992;stroke-linecap:square;stroke-linejoin:miter;stroke-miterlimit:3.25;stroke-opacity:1;stroke-dasharray:none"
                                 id="path6310" /><path
                                 inkscape:connector-curvature="0"
                                 d="M 55.387,167.133 120.706,99.637"
                                 style="fill:none;stroke:#000000;stroke-width:2.07999992;stroke-linecap:square;stroke-linejoin:miter;stroke-miterlimit:3.25;stroke-opacity:1;stroke-dasharray:none"
                                 id="path6312" /><path
                                 inkscape:connector-curvature="0"
                                 d="M 55.387,161.067 120.404,93.883"
                                 style="fill:none;stroke:#000000;stroke-width:2.07999992;stroke-linecap:square;stroke-linejoin:miter;stroke-miterlimit:3.25;stroke-opacity:1;stroke-dasharray:none"
                                 id="path6314" /><path
                                 inkscape:connector-curvature="0"
                                 d="M 55.387,155 119.968,88.267"
                                 style="fill:none;stroke:#000000;stroke-width:2.07999992;stroke-linecap:square;stroke-linejoin:miter;stroke-miterlimit:3.25;stroke-opacity:1;stroke-dasharray:none"
                                 id="path6316" /><path
                                 inkscape:connector-curvature="0"
                                 d="m 55.387,148.933 64.01,-66.144"
                                 style="fill:none;stroke:#000000;stroke-width:2.07999992;stroke-linecap:square;stroke-linejoin:miter;stroke-miterlimit:3.25;stroke-opacity:1;stroke-dasharray:none"
                                 id="path6318" /><path
                                 inkscape:connector-curvature="0"
                                 d="M 55.387,142.867 118.693,77.451"
                                 style="fill:none;stroke:#000000;stroke-width:2.07999992;stroke-linecap:square;stroke-linejoin:miter;stroke-miterlimit:3.25;stroke-opacity:1;stroke-dasharray:none"
                                 id="path6320" /><path
                                 inkscape:connector-curvature="0"
                                 d="M 55.387,136.8 117.854,72.251"
                                 style="fill:none;stroke:#000000;stroke-width:2.07999992;stroke-linecap:square;stroke-linejoin:miter;stroke-miterlimit:3.25;stroke-opacity:1;stroke-dasharray:none"
                                 id="path6322" /><path
                                 inkscape:connector-curvature="0"
                                 d="M 55.387,130.733 116.881,67.189"
                                 style="fill:none;stroke:#000000;stroke-width:2.07999992;stroke-linecap:square;stroke-linejoin:miter;stroke-miterlimit:3.25;stroke-opacity:1;stroke-dasharray:none"
                                 id="path6324" /><path
                                 inkscape:connector-curvature="0"
                                 d="m 55.387,124.667 60.387,-62.4"
                                 style="fill:none;stroke:#000000;stroke-width:2.07999992;stroke-linecap:square;stroke-linejoin:miter;stroke-miterlimit:3.25;stroke-opacity:1;stroke-dasharray:none"
                                 id="path6326" /><path
                                 inkscape:connector-curvature="0"
                                 d="M 55.387,118.6 114.533,57.483"
                                 style="fill:none;stroke:#000000;stroke-width:2.07999992;stroke-linecap:square;stroke-linejoin:miter;stroke-miterlimit:3.25;stroke-opacity:1;stroke-dasharray:none"
                                 id="path6328" /><path
                                 inkscape:connector-curvature="0"
                                 d="m 55.387,112.533 57.77,-59.696"
                                 style="fill:none;stroke:#000000;stroke-width:2.07999992;stroke-linecap:square;stroke-linejoin:miter;stroke-miterlimit:3.25;stroke-opacity:1;stroke-dasharray:none"
                                 id="path6330" /><path
                                 inkscape:connector-curvature="0"
                                 d="M 55.387,106.467 111.648,48.331"
                                 style="fill:none;stroke:#000000;stroke-width:2.07999992;stroke-linecap:square;stroke-linejoin:miter;stroke-miterlimit:3.25;stroke-opacity:1;stroke-dasharray:none"
                                 id="path6332" /><path
                                 inkscape:connector-curvature="0"
                                 d="M 55.387,100.4 110.004,43.963"
                                 style="fill:none;stroke:#000000;stroke-width:2.07999992;stroke-linecap:square;stroke-linejoin:miter;stroke-miterlimit:3.25;stroke-opacity:1;stroke-dasharray:none"
                                 id="path6334" /><path
                                 inkscape:connector-curvature="0"
                                 d="m 55.387,94.333 52.839,-54.6"
                                 style="fill:none;stroke:#000000;stroke-width:2.07999992;stroke-linecap:square;stroke-linejoin:miter;stroke-miterlimit:3.25;stroke-opacity:1;stroke-dasharray:none"
                                 id="path6336" /><path
                                 inkscape:connector-curvature="0"
                                 d="M 55.387,88.267 106.314,35.643"
                                 style="fill:none;stroke:#000000;stroke-width:2.07999992;stroke-linecap:square;stroke-linejoin:miter;stroke-miterlimit:3.25;stroke-opacity:1;stroke-dasharray:none"
                                 id="path6338" /><path
                                 inkscape:connector-curvature="0"
                                 d="m 55.387,82.2 48.88,-50.509"
                                 style="fill:none;stroke:#000000;stroke-width:2.07999992;stroke-linecap:square;stroke-linejoin:miter;stroke-miterlimit:3.25;stroke-opacity:1;stroke-dasharray:none"
                                 id="path6340" /><path
                                 inkscape:connector-curvature="0"
                                 d="M 55.387,76.133 102.086,27.877"
                                 style="fill:none;stroke:#000000;stroke-width:2.07999992;stroke-linecap:square;stroke-linejoin:miter;stroke-miterlimit:3.25;stroke-opacity:1;stroke-dasharray:none"
                                 id="path6342" /><path
                                 inkscape:connector-curvature="0"
                                 d="M 55.387,70.067 99.772,24.203"
                                 style="fill:none;stroke:#000000;stroke-width:2.07999992;stroke-linecap:square;stroke-linejoin:miter;stroke-miterlimit:3.25;stroke-opacity:1;stroke-dasharray:none"
                                 id="path6344" /><path
                                 inkscape:connector-curvature="0"
                                 d="M 55.387,64 97.323,20.667"
                                 style="fill:none;stroke:#000000;stroke-width:2.07999992;stroke-linecap:square;stroke-linejoin:miter;stroke-miterlimit:3.25;stroke-opacity:1;stroke-dasharray:none"
                                 id="path6346" /><path
                                 inkscape:connector-curvature="0"
                                 d="m 55.387,150.667 0.039,-0.04 0.038,-0.04 0.077,-0.08 0.155,-0.159 0.308,-0.319 0.618,-0.638 1.235,-1.276 2.677,-2.766 2.499,-2.583 2.451,-2.533 2.658,-2.747 2.481,-2.564 2.689,-2.778 2.64,-2.727 2.462,-2.545 2.67,-2.759 2.493,-2.575 2.443,-2.525 2.651,-2.74 2.474,-2.556 2.682,-2.771 2.632,-2.721 2.455,-2.536 2.663,-2.752 2.486,-2.568 2.693,-2.783 2.644,-2.732 2.466,-2.549 2.675,-2.764 2.497,-2.58 2.448,-2.53 2.655,-2.744 2.479,-2.561 2.686,-2.775 2.637,-2.725 2.459,-2.541 2.667,-2.757 2.49,-2.572 2.441,-2.523 2.648,-2.736 2.472,-2.554 2.678,-2.768 2.502,-2.585 2.452,-2.534 2.66,-2.749 2.483,-2.565 2.69,-2.78 2.642,-2.729 2.464,-2.547 2.671,-2.76 2.494,-2.578 2.446,-2.526 2.653,-2.742 2.475,-2.558 0.043,-0.044 0.043,-0.045 0.087,-0.089 0.173,-0.179 0.345,-0.357 0.691,-0.714 0.043,-0.044 0.043,-0.045 0.087,-0.089 0.172,-0.179 0.346,-0.356 0.043,-0.045 0.043,-0.045 0.086,-0.089 0.173,-0.178 0.043,-0.045 0.043,-0.045 0.087,-0.089 0.043,-0.044 0.043,-0.045 0.043,-0.045 0.044,-0.044"
                                 style="fill:none;stroke:#000000;stroke-width:2.5999999;stroke-linecap:square;stroke-linejoin:miter;stroke-miterlimit:3.25;stroke-opacity:1;stroke-dasharray:4, 4;stroke-dashoffset:0"
                                 id="path6348" /><path
                                 inkscape:connector-curvature="0"
                                 d="m 55.387,367.333 0,-346.666"
                                 style="fill:none;stroke:#000000;stroke-width:2.5999999;stroke-linecap:square;stroke-linejoin:miter;stroke-miterlimit:3.25;stroke-opacity:1;stroke-dasharray:none"
                                 id="path6350" /><path
                                 inkscape:connector-curvature="0"
                                 d="M 181.194,20.667 286.032,129 55.387,367.333"
                                 style="fill:none;stroke:#000000;stroke-width:2.5999999;stroke-linecap:square;stroke-linejoin:miter;stroke-miterlimit:3.25;stroke-opacity:1;stroke-dasharray:none"
                                 id="path6352" /><path
                                 inkscape:connector-curvature="0"
                                 d="M 55.387,367.333 C 125.28,194 139.258,78.444 97.323,20.667"
                                 style="fill:none;stroke:#000000;stroke-width:2.5999999;stroke-linecap:square;stroke-linejoin:miter;stroke-miterlimit:3.25;stroke-opacity:1;stroke-dasharray:none"
                                 id="path6354" /></g></g><g
                             id="g6356"><g
                               id="g6358"
                               clip-path="url(#clipPath6360)" /></g></g></g></g></g></g></g></g></g></g><path
           inkscape:connector-curvature="0"
           id="path5925"
           d="M 515.10183,19.343515 533.87879,-0.10060323"
           style="fill:none;stroke:#000000;stroke-width:0.95999998;stroke-linecap:butt;stroke-linejoin:miter;stroke-miterlimit:4;stroke-opacity:1;stroke-dasharray:none" /><path
           style="fill:none;stroke:#000000;stroke-width:0.95999998;stroke-linecap:butt;stroke-linejoin:miter;stroke-miterlimit:4;stroke-opacity:1;stroke-dasharray:none"
           d="M 515.01041,16.360641 529.13222,1.7370735"
           id="path5927"
           inkscape:connector-curvature="0" /><path
           inkscape:connector-curvature="0"
           id="path5929"
           d="M 515.01041,13.255501 529.13222,-1.3680657"
           style="fill:none;stroke:#000000;stroke-width:0.95999998;stroke-linecap:butt;stroke-linejoin:miter;stroke-miterlimit:4;stroke-opacity:1;stroke-dasharray:none" /><path
           style="fill:none;stroke:#000000;stroke-width:0.95999998;stroke-linecap:butt;stroke-linejoin:miter;stroke-miterlimit:4;stroke-opacity:1;stroke-dasharray:none"
           d="m 514.89031,10.464538 9.52207,-9.86039253"
           id="path5931"
           inkscape:connector-curvature="0" /><path
           inkscape:connector-curvature="0"
           id="path5933"
           d="m 514.74109,7.7766527 5.6688,-5.8702094"
           style="fill:none;stroke:#000000;stroke-width:0.95999998;stroke-linecap:butt;stroke-linejoin:miter;stroke-miterlimit:4;stroke-opacity:1;stroke-dasharray:none" /><path
           style="fill:none;stroke:#000000;stroke-width:0.95999998;stroke-linecap:butt;stroke-linejoin:miter;stroke-miterlimit:4;stroke-opacity:1;stroke-dasharray:none"
           d="m 514.62143,5.0301013 3.82917,-3.965224"
           id="path5935"
           inkscape:connector-curvature="0" /></g><g
         id="g4129"
         transform="matrix(1.2049731,0,0,1.2049731,374.55065,-77.023704)"><g
           word-spacing="normal"
           letter-spacing="normal"
           font-size-adjust="none"
           font-stretch="normal"
           font-weight="normal"
           font-variant="normal"
           font-style="normal"
           stroke-miterlimit="10.433"
           xml:space="preserve"
           transform="matrix(0.2514905,0,0,-0.2514905,-44.010837,196.29119)"
           id="content"
           style="font-style:normal;font-variant:normal;font-weight:normal;font-stretch:normal;letter-spacing:normal;word-spacing:normal;text-anchor:start;fill:none;stroke:#000000;stroke-linecap:butt;stroke-linejoin:miter;stroke-miterlimit:10.43299961;stroke-opacity:1;stroke-dasharray:none;stroke-dashoffset:0"><path
             id="path4132"
             d="m 493.54,436.39 0.04,0.16 0.04,0.16 0.04,0.15 0.04,0.14 0.04,0.14 0.04,0.13 0.04,0.12 0.05,0.11 0.05,0.11 0.05,0.11 0.06,0.09 0.07,0.09 0.07,0.09 0.08,0.08 0.09,0.07 0.09,0.07 0.11,0.06 0.11,0.06 0.13,0.05 0.14,0.05 0.15,0.04 0.16,0.04 0.09,0.02 0.09,0.02 0.09,0.01 0.1,0.02 0.1,0.01 0.1,0.01 0.11,0.02 0.11,0.01 0.12,0.01 0.12,0 0.13,0.01 0.13,0.01 0.13,0.01 0.14,0 0.14,0 0.15,0.01 0.15,0 0.16,0 0.16,0 0.17,0 c 1.3,0 1.69,0 1.69,1 0,0.55 -0.55,0.55 -0.7,0.55 -1.39,0 -4.97,-0.16 -6.38,-0.16 -1.44,0 -4.98,0.16 -6.42,0.16 -0.39,0 -0.95,0 -0.95,-1 0,-0.55 0.45,-0.55 1.4,-0.55 0.1,0 1.05,0 1.89,-0.09 0.89,-0.11 1.35,-0.16 1.35,-0.8 0,-0.2 -0.05,-0.31 -0.21,-0.95 l -2.98,-12.16 h -15.2 l 2.95,11.71 c 0.44,1.79 0.59,2.29 4.17,2.29 1.3,0 1.71,0 1.71,1 0,0.55 -0.55,0.55 -0.71,0.55 -1.39,0 -4.98,-0.16 -6.37,-0.16 -1.44,0 -4.99,0.16 -6.42,0.16 -0.41,0 -0.96,0 -0.96,-1 0,-0.55 0.46,-0.55 1.39,-0.55 0.11,0 1.05,0 1.91,-0.09 0.89,-0.11 1.34,-0.16 1.34,-0.8 0,-0.2 -0.06,-0.36 -0.2,-0.95 l -6.67,-26.75 c -0.5,-1.95 -0.61,-2.34 -4.55,-2.34 -0.89,0 -1.34,0 -1.34,-1 0,-0.55 0.61,-0.55 0.7,-0.55 1.39,0 4.94,0.16 6.33,0.16 1.05,0 2.14,-0.07 3.19,-0.07 1.09,0 2.18,-0.09 3.23,-0.09 0.41,0 1,0 1,1 0,0.55 -0.45,0.55 -1.39,0.55 -1.84,0 -3.23,0 -3.23,0.89 0,0.29 0.09,0.54 0.14,0.84 l 3.39,13.66 H 486 c -2.09,-8.27 -3.23,-13 -3.43,-13.75 -0.49,-1.6 -1.44,-1.64 -4.53,-1.64 -0.75,0 -1.19,0 -1.19,-1 0,-0.55 0.59,-0.55 0.69,-0.55 1.4,0 4.93,0.16 6.32,0.16 1.05,0 2.14,-0.07 3.19,-0.07 1.11,0 2.2,-0.09 3.25,-0.09 0.39,0 0.99,0 0.99,1 0,0.55 -0.44,0.55 -1.4,0.55 -1.84,0 -3.23,0 -3.23,0.89 0,0.29 0.09,0.54 0.14,0.84 z"
             inkscape:connector-curvature="0"
             style="fill:#000000;stroke-width:0" /><path
             id="path4134"
             d="m 517.14,432.07 h 10.66 c 0.45,0 1.28,0 1.28,0.85 0,0.86 -0.8,0.86 -1.28,0.86 h -10.66 v 10.7 c 0,0.45 0,1.28 -0.84,1.28 -0.88,0 -0.88,-0.8 -0.88,-1.28 v -10.7 h -10.69 c -0.45,0 -1.29,0 -1.29,-0.83 0,-0.88 0.79,-0.88 1.29,-0.88 h 10.69 v -10.7 c 0,-0.45 0,-1.28 0.85,-1.28 0.87,0 0.87,0.8 0.87,1.28 z"
             inkscape:connector-curvature="0"
             style="fill:#000000;stroke-width:0" /></g></g></g><g
       transform="translate(467.54951,-60.845128)"
       id="g6023"><g
         style="font-style:normal;font-variant:normal;font-weight:normal;font-stretch:normal;letter-spacing:normal;word-spacing:normal;text-anchor:start;fill:none;stroke:#000000;stroke-linecap:butt;stroke-linejoin:miter;stroke-miterlimit:10.43299961;stroke-opacity:1;stroke-dasharray:none;stroke-dashoffset:0"
         word-spacing="normal"
         letter-spacing="normal"
         font-size-adjust="none"
         font-stretch="normal"
         font-weight="normal"
         font-variant="normal"
         font-style="normal"
         stroke-miterlimit="10.433"
         xml:space="preserve"
         transform="matrix(0.32142857,0,0,-0.32142857,-56.25,337.5)"
         id="g6025"><path
           style="fill:#000000;stroke-width:0"
           inkscape:connector-curvature="0"
           id="path6027"
           d="m 486.16,440.23 -0.45,-0.01 -0.44,-0.02 -0.44,-0.03 -0.43,-0.04 -0.43,-0.06 -0.42,-0.06 -0.42,-0.08 -0.42,-0.08 -0.4,-0.1 -0.41,-0.1 -0.39,-0.11 -0.39,-0.12 -0.39,-0.13 -0.38,-0.13 -0.37,-0.14 -0.36,-0.14 -0.7,-0.3 -0.68,-0.32 -0.64,-0.33 -0.3,-0.16 -0.3,-0.17 -0.29,-0.17 -0.28,-0.16 -0.27,-0.17 -0.26,-0.17 -0.25,-0.16 -0.24,-0.16 -0.23,-0.16 -0.22,-0.16 c -5.44,-3.89 -6.03,-8.08 -6.03,-8.17 0,-0.34 0.29,-0.34 0.5,-0.34 1.14,0 3.37,1.39 3.68,2.28 1.64,5.28 5.22,7.42 10.11,7.42 h 6.63 c -5.49,-4.37 -7.77,-11.91 -11.06,-24.86 -1.19,-4.62 -4.24,-9.61 -9.27,-9.61 -3.89,0 -7.42,2.6 -7.42,6.92 0,1 0.25,1.85 0.25,2.05 0,0.14 -0.05,0.45 -0.5,0.45 -0.3,0 -1.46,-0.25 -2.85,-1.29 -0.59,-0.46 -1.14,-0.96 -1.14,-3.3 0,-4.58 3.49,-7.56 8.38,-7.56 4.23,0 8.26,2.39 10.7,4.48 4.58,3.92 5.49,7.56 6.38,11.11 1.84,7.22 4.23,16.28 7.97,20.47 0.79,0.89 1,1.05 2.15,1.14 2.24,0.16 3.92,1.84 3.92,2.39 0,0.31 -0.04,0.36 -1.14,0.36 z" /><path
           style="fill:#000000;stroke-width:0"
           inkscape:connector-curvature="0"
           id="path6029"
           d="m 524.4,432.07 0.06,0 0.05,0 0.11,0.01 0.12,0 0.06,0 0.06,0.01 0.06,0 0.05,0.01 0.06,0.01 0.06,0.01 0.06,0.01 0.05,0.01 0.06,0.02 0.05,0.02 0.05,0.02 0.05,0.02 0.05,0.03 0.04,0.03 0.04,0.03 0.04,0.04 0.04,0.04 0.02,0.02 0.01,0.02 0.02,0.02 0.02,0.03 0.01,0.02 0.01,0.03 0.02,0.02 0.01,0.03 0.01,0.03 0.01,0.03 0,0.03 0.01,0.03 0.01,0.04 0,0.03 0.01,0.03 0,0.04 0,0.04 0,0.04 c 0,0.86 -0.79,0.86 -1.39,0.86 h -20.76 c -0.57,0 -1.39,0 -1.39,-0.83 0,-0.88 0.79,-0.88 1.39,-0.88 z" /></g></g><g
       transform="translate(496.74951,-163.51089)"
       id="g6031"><g
         style="font-style:normal;font-variant:normal;font-weight:normal;font-stretch:normal;letter-spacing:normal;word-spacing:normal;text-anchor:start;fill:none;stroke:#000000;stroke-linecap:butt;stroke-linejoin:miter;stroke-miterlimit:10.43299961;stroke-opacity:1;stroke-dasharray:none;stroke-dashoffset:0"
         word-spacing="normal"
         letter-spacing="normal"
         font-size-adjust="none"
         font-stretch="normal"
         font-weight="normal"
         font-variant="normal"
         font-style="normal"
         stroke-miterlimit="10.433"
         xml:space="preserve"
         transform="matrix(0.32142857,0,0,-0.32142857,-56.25,337.5)"
         id="g6033"><path
           style="fill:#000000;stroke-width:0"
           inkscape:connector-curvature="0"
           id="path6035"
           d="m 486.16,440.23 -0.45,-0.01 -0.44,-0.02 -0.44,-0.03 -0.43,-0.04 -0.43,-0.06 -0.42,-0.06 -0.42,-0.08 -0.42,-0.08 -0.4,-0.1 -0.41,-0.1 -0.39,-0.11 -0.39,-0.12 -0.39,-0.13 -0.38,-0.13 -0.37,-0.14 -0.36,-0.14 -0.7,-0.3 -0.68,-0.32 -0.64,-0.33 -0.3,-0.16 -0.3,-0.17 -0.29,-0.17 -0.28,-0.16 -0.27,-0.17 -0.26,-0.17 -0.25,-0.16 -0.24,-0.16 -0.23,-0.16 -0.22,-0.16 c -5.44,-3.89 -6.03,-8.08 -6.03,-8.17 0,-0.34 0.29,-0.34 0.5,-0.34 1.14,0 3.37,1.39 3.68,2.28 1.64,5.28 5.22,7.42 10.11,7.42 h 6.63 c -5.49,-4.37 -7.77,-11.91 -11.06,-24.86 -1.19,-4.62 -4.24,-9.61 -9.27,-9.61 -3.89,0 -7.42,2.6 -7.42,6.92 0,1 0.25,1.85 0.25,2.05 0,0.14 -0.05,0.45 -0.5,0.45 -0.3,0 -1.46,-0.25 -2.85,-1.29 -0.59,-0.46 -1.14,-0.96 -1.14,-3.3 0,-4.58 3.49,-7.56 8.38,-7.56 4.23,0 8.26,2.39 10.7,4.48 4.58,3.92 5.49,7.56 6.38,11.11 1.84,7.22 4.23,16.28 7.97,20.47 0.79,0.89 1,1.05 2.15,1.14 2.24,0.16 3.92,1.84 3.92,2.39 0,0.31 -0.04,0.36 -1.14,0.36 z" /><path
           style="fill:#000000;stroke-width:0"
           inkscape:connector-curvature="0"
           id="path6037"
           d="m 514.62,432.07 h 10.66 c 0.45,0 1.28,0 1.28,0.85 0,0.86 -0.8,0.86 -1.28,0.86 h -10.66 v 10.7 c 0,0.45 0,1.28 -0.84,1.28 -0.88,0 -0.88,-0.8 -0.88,-1.28 v -10.7 h -10.69 c -0.45,0 -1.29,0 -1.29,-0.83 0,-0.88 0.79,-0.88 1.29,-0.88 h 10.69 v -10.7 c 0,-0.45 0,-1.28 0.85,-1.28 0.87,0 0.87,0.8 0.87,1.28 z" /></g></g><g
       transform="translate(523.99324,-125.18684)"
       id="g6039"><g
         style="font-style:normal;font-variant:normal;font-weight:normal;font-stretch:normal;letter-spacing:normal;word-spacing:normal;text-anchor:start;fill:none;stroke:#000000;stroke-linecap:butt;stroke-linejoin:miter;stroke-miterlimit:10.43299961;stroke-opacity:1;stroke-dasharray:none;stroke-dashoffset:0"
         word-spacing="normal"
         letter-spacing="normal"
         font-size-adjust="none"
         font-stretch="normal"
         font-weight="normal"
         font-variant="normal"
         font-style="normal"
         stroke-miterlimit="10.433"
         xml:space="preserve"
         transform="matrix(0.32142857,0,0,-0.32142857,-56.25,337.5)"
         id="g6041"><path
           style="fill:#000000;stroke-width:0"
           inkscape:connector-curvature="0"
           id="path6043"
           d="m 469.68,437.34 -0.01,0.09 0,0.09 -0.01,0.1 -0.02,0.08 -0.01,0.09 -0.03,0.09 -0.02,0.08 -0.03,0.08 -0.03,0.08 -0.04,0.08 -0.04,0.08 -0.05,0.07 -0.04,0.07 -0.06,0.07 -0.05,0.06 -0.06,0.06 -0.06,0.06 -0.06,0.06 -0.07,0.05 -0.07,0.05 -0.08,0.05 -0.07,0.04 -0.09,0.04 -0.08,0.04 -0.08,0.03 -0.09,0.03 -0.1,0.02 -0.09,0.02 -0.1,0.02 -0.1,0.01 -0.1,0 -0.11,0.01 c -1.36,0 -2.7,-1.3 -2.7,-2.64 0,-0.96 0.7,-1.8 1.91,-1.8 1.14,0 2.64,1.14 2.64,2.64 z" /><path
           style="fill:#000000;stroke-width:0"
           inkscape:connector-curvature="0"
           id="path6045"
           d="m 465.88,418.61 0.05,0.13 0.05,0.12 0.05,0.12 0.05,0.11 0.04,0.1 0.04,0.1 0.03,0.09 0.04,0.09 0.03,0.09 0.04,0.08 0.03,0.08 0.02,0.08 0.03,0.07 0.03,0.07 0.05,0.15 0.05,0.14 0.05,0.14 0.03,0.07 0.03,0.08 0.03,0.08 0.02,0.08 0.04,0.08 0.03,0.09 0.03,0.1 0.04,0.09 0.03,0.11 0.04,0.11 0.05,0.11 0.04,0.13 c 0.41,1 0.66,1.68 0.66,2.64 0,2.23 -1.59,4.07 -4.09,4.07 -4.68,0 -6.58,-7.21 -6.58,-7.67 0,-0.5 0.5,-0.5 0.61,-0.5 0.5,0 0.54,0.11 0.79,0.91 1.35,4.69 3.33,6.17 5.03,6.17 0.4,0 1.25,0 1.25,-1.59 0,-1.05 -0.35,-2.1 -0.56,-2.6 -0.39,-1.29 -2.64,-7.06 -3.44,-9.22 -0.48,-1.28 -1.14,-2.93 -1.14,-3.98 0,-2.33 1.69,-4.08 4.1,-4.08 4.67,0 6.51,7.22 6.51,7.67 0,0.5 -0.43,0.5 -0.59,0.5 -0.5,0 -0.5,-0.15 -0.75,-0.9 -0.89,-3.13 -2.53,-6.17 -5.08,-6.17 -0.84,0 -1.2,0.5 -1.2,1.64 0,1.25 0.31,1.95 1.45,4.98 z" /><path
           style="fill:#000000;stroke-width:0"
           inkscape:connector-curvature="0"
           id="path6047"
           d="m 490.66,435.31 0,0.71 -0.02,0.68 -0.03,0.66 -0.04,0.64 -0.06,0.62 -0.07,0.59 -0.09,0.58 -0.11,0.56 -0.13,0.55 -0.15,0.52 -0.17,0.52 -0.19,0.5 -0.21,0.49 -0.24,0.48 -0.26,0.47 -0.14,0.23 -0.15,0.23 c -1.08,1.61 -3.23,3 -6.03,3 -8.08,0 -8.08,-9.52 -8.08,-12.03 0,-2.5 0,-11.81 8.08,-11.81 v 0.98 c -1.59,0 -3.72,0.94 -4.42,3.8 -0.49,2.04 -0.49,4.9 -0.49,7.48 0,2.55 0,5.2 0.52,7.11 0.73,2.75 2.97,3.49 4.39,3.49 1.89,0 3.7,-1.15 4.33,-3.18 0.56,-1.87 0.59,-4.39 0.59,-7.42 0,-2.58 0,-5.15 -0.45,-7.34 -0.7,-3.17 -3.06,-3.94 -4.47,-3.94 h 0 v -0.98 c 8.09,0 8.09,9.31 8.09,11.81 z" /></g></g><g
       transform="translate(394.02686,5.089766)"
       id="g6087"><g
         style="font-style:normal;font-variant:normal;font-weight:normal;font-stretch:normal;letter-spacing:normal;word-spacing:normal;text-anchor:start;fill:none;stroke:#000000;stroke-linecap:butt;stroke-linejoin:miter;stroke-miterlimit:10.43299961;stroke-opacity:1;stroke-dasharray:none;stroke-dashoffset:0"
         word-spacing="normal"
         letter-spacing="normal"
         font-size-adjust="none"
         font-stretch="normal"
         font-weight="normal"
         font-variant="normal"
         font-style="normal"
         stroke-miterlimit="10.433"
         xml:space="preserve"
         transform="matrix(0.32142857,0,0,-0.32142857,-56.25,337.5)"
         id="g6089"><path
           style="fill:#000000;stroke-width:0"
           inkscape:connector-curvature="0"
           id="path6091"
           d="m 469.68,437.34 -0.01,0.09 0,0.09 -0.01,0.1 -0.02,0.08 -0.01,0.09 -0.03,0.09 -0.02,0.08 -0.03,0.08 -0.03,0.08 -0.04,0.08 -0.04,0.08 -0.05,0.07 -0.04,0.07 -0.06,0.07 -0.05,0.06 -0.06,0.06 -0.06,0.06 -0.06,0.06 -0.07,0.05 -0.07,0.05 -0.08,0.05 -0.07,0.04 -0.09,0.04 -0.08,0.04 -0.08,0.03 -0.09,0.03 -0.1,0.02 -0.09,0.02 -0.1,0.02 -0.1,0.01 -0.1,0 -0.11,0.01 c -1.36,0 -2.7,-1.3 -2.7,-2.64 0,-0.96 0.7,-1.8 1.91,-1.8 1.14,0 2.64,1.14 2.64,2.64 z" /><path
           style="fill:#000000;stroke-width:0"
           inkscape:connector-curvature="0"
           id="path6093"
           d="m 465.88,418.61 0.05,0.13 0.05,0.12 0.05,0.12 0.05,0.11 0.04,0.1 0.04,0.1 0.03,0.09 0.04,0.09 0.03,0.09 0.04,0.08 0.03,0.08 0.02,0.08 0.03,0.07 0.03,0.07 0.05,0.15 0.05,0.14 0.05,0.14 0.03,0.07 0.03,0.08 0.03,0.08 0.02,0.08 0.04,0.08 0.03,0.09 0.03,0.1 0.04,0.09 0.03,0.11 0.04,0.11 0.05,0.11 0.04,0.13 c 0.41,1 0.66,1.68 0.66,2.64 0,2.23 -1.59,4.07 -4.09,4.07 -4.68,0 -6.58,-7.21 -6.58,-7.67 0,-0.5 0.5,-0.5 0.61,-0.5 0.5,0 0.54,0.11 0.79,0.91 1.35,4.69 3.33,6.17 5.03,6.17 0.4,0 1.25,0 1.25,-1.59 0,-1.05 -0.35,-2.1 -0.56,-2.6 -0.39,-1.29 -2.64,-7.06 -3.44,-9.22 -0.48,-1.28 -1.14,-2.93 -1.14,-3.98 0,-2.33 1.69,-4.08 4.1,-4.08 4.67,0 6.51,7.22 6.51,7.67 0,0.5 -0.43,0.5 -0.59,0.5 -0.5,0 -0.5,-0.15 -0.75,-0.9 -0.89,-3.13 -2.53,-6.17 -5.08,-6.17 -0.84,0 -1.2,0.5 -1.2,1.64 0,1.25 0.31,1.95 1.45,4.98 z" /><path
           style="fill:#000000;stroke-width:0"
           inkscape:connector-curvature="0"
           id="path6095"
           d="m 498.6,432.07 0.06,0 0.05,0 0.11,0.01 0.12,0 0.06,0 0.06,0.01 0.05,0 0.06,0.01 0.06,0.01 0.06,0.01 0.06,0.01 0.05,0.01 0.05,0.02 0.06,0.02 0.05,0.02 0.05,0.02 0.05,0.03 0.04,0.03 0.04,0.03 0.04,0.04 0.04,0.04 0.02,0.02 0.01,0.02 0.02,0.02 0.01,0.03 0.02,0.02 0.01,0.03 0.01,0.02 0.02,0.03 0.01,0.03 0.01,0.03 0,0.03 0.01,0.03 0.01,0.04 0,0.03 0.01,0.03 0,0.04 0,0.04 0,0.04 c 0,0.86 -0.79,0.86 -1.39,0.86 h -20.76 c -0.57,0 -1.39,0 -1.39,-0.83 0,-0.88 0.79,-0.88 1.39,-0.88 z" /></g></g><g
       transform="translate(464.86904,-191.36004)"
       id="g6097"><g
         style="font-style:normal;font-variant:normal;font-weight:normal;font-stretch:normal;letter-spacing:normal;word-spacing:normal;text-anchor:start;fill:none;stroke:#000000;stroke-linecap:butt;stroke-linejoin:miter;stroke-miterlimit:10.43299961;stroke-opacity:1;stroke-dasharray:none;stroke-dashoffset:0"
         word-spacing="normal"
         letter-spacing="normal"
         font-size-adjust="none"
         font-stretch="normal"
         font-weight="normal"
         font-variant="normal"
         font-style="normal"
         stroke-miterlimit="10.433"
         xml:space="preserve"
         transform="matrix(0.32142857,0,0,-0.32142857,-56.25,337.5)"
         id="g6099"><path
           style="fill:#000000;stroke-width:0"
           inkscape:connector-curvature="0"
           id="path6101"
           d="m 469.68,437.34 -0.01,0.09 0,0.09 -0.01,0.1 -0.02,0.08 -0.01,0.09 -0.03,0.09 -0.02,0.08 -0.03,0.08 -0.03,0.08 -0.04,0.08 -0.04,0.08 -0.05,0.07 -0.04,0.07 -0.06,0.07 -0.05,0.06 -0.06,0.06 -0.06,0.06 -0.06,0.06 -0.07,0.05 -0.07,0.05 -0.08,0.05 -0.07,0.04 -0.09,0.04 -0.08,0.04 -0.08,0.03 -0.09,0.03 -0.1,0.02 -0.09,0.02 -0.1,0.02 -0.1,0.01 -0.1,0 -0.11,0.01 c -1.36,0 -2.7,-1.3 -2.7,-2.64 0,-0.96 0.7,-1.8 1.91,-1.8 1.14,0 2.64,1.14 2.64,2.64 z" /><path
           style="fill:#000000;stroke-width:0"
           inkscape:connector-curvature="0"
           id="path6103"
           d="m 465.88,418.61 0.05,0.13 0.05,0.12 0.05,0.12 0.05,0.11 0.04,0.1 0.04,0.1 0.03,0.09 0.04,0.09 0.03,0.09 0.04,0.08 0.03,0.08 0.02,0.08 0.03,0.07 0.03,0.07 0.05,0.15 0.05,0.14 0.05,0.14 0.03,0.07 0.03,0.08 0.03,0.08 0.02,0.08 0.04,0.08 0.03,0.09 0.03,0.1 0.04,0.09 0.03,0.11 0.04,0.11 0.05,0.11 0.04,0.13 c 0.41,1 0.66,1.68 0.66,2.64 0,2.23 -1.59,4.07 -4.09,4.07 -4.68,0 -6.58,-7.21 -6.58,-7.67 0,-0.5 0.5,-0.5 0.61,-0.5 0.5,0 0.54,0.11 0.79,0.91 1.35,4.69 3.33,6.17 5.03,6.17 0.4,0 1.25,0 1.25,-1.59 0,-1.05 -0.35,-2.1 -0.56,-2.6 -0.39,-1.29 -2.64,-7.06 -3.44,-9.22 -0.48,-1.28 -1.14,-2.93 -1.14,-3.98 0,-2.33 1.69,-4.08 4.1,-4.08 4.67,0 6.51,7.22 6.51,7.67 0,0.5 -0.43,0.5 -0.59,0.5 -0.5,0 -0.5,-0.15 -0.75,-0.9 -0.89,-3.13 -2.53,-6.17 -5.08,-6.17 -0.84,0 -1.2,0.5 -1.2,1.64 0,1.25 0.31,1.95 1.45,4.98 z" /><path
           style="fill:#000000;stroke-width:0"
           inkscape:connector-curvature="0"
           id="path6105"
           d="m 488.82,432.07 h 10.66 c 0.45,0 1.28,0 1.28,0.85 0,0.86 -0.8,0.86 -1.28,0.86 h -10.66 v 10.7 c 0,0.45 0,1.28 -0.84,1.28 -0.88,0 -0.88,-0.8 -0.88,-1.28 v -10.7 h -10.69 c -0.45,0 -1.29,0 -1.29,-0.83 0,-0.88 0.79,-0.88 1.29,-0.88 h 10.69 v -10.7 c 0,-0.45 0,-1.28 0.85,-1.28 0.87,0 0.87,0.8 0.87,1.28 z" /></g></g></g></svg>