<?xml version="1.0" encoding="UTF-8" standalone="no"?>
<!-- Created with Inkscape (http://www.inkscape.org/) -->

<svg
   xmlns:dc="http://purl.org/dc/elements/1.1/"
   xmlns:cc="http://creativecommons.org/ns#"
   xmlns:rdf="http://www.w3.org/1999/02/22-rdf-syntax-ns#"
   xmlns:svg="http://www.w3.org/2000/svg"
   xmlns="http://www.w3.org/2000/svg"
   xmlns:sodipodi="http://sodipodi.sourceforge.net/DTD/sodipodi-0.dtd"
   xmlns:inkscape="http://www.inkscape.org/namespaces/inkscape"
   id="svg3004"
   version="1.1"
   inkscape:version="0.48.2 r9819"
   width="216.44737"
   height="243.76755"
   xml:space="preserve"
   sodipodi:docname="collapsingstarhawkrad.pdf"><metadata
     id="metadata3010"><rdf:RDF><cc:Work
         rdf:about=""><dc:format>image/svg+xml</dc:format><dc:type
           rdf:resource="http://purl.org/dc/dcmitype/StillImage" /><dc:title></dc:title></cc:Work></rdf:RDF></metadata><defs
     id="defs3008"><clipPath
       clipPathUnits="userSpaceOnUse"
       id="clipPath3018"><path
         d="m 0,180.303 0,-180.305 131.93,0 0,180.305"
         id="path3020" /></clipPath><clipPath
       clipPathUnits="userSpaceOnUse"
       id="clipPath3026"><path
         d="M 0,0 174,0 174,196 0,196 0,0 z"
         id="path3028" /></clipPath><clipPath
       clipPathUnits="userSpaceOnUse"
       id="clipPath3030"><path
         d="m -23.848,185.348 0,-188.254 271.469,0 0,188.254"
         id="path3032" /></clipPath><clipPath
       clipPathUnits="userSpaceOnUse"
       id="clipPath3034"><path
         d="M 0,0 174,0 174,196 0,196 0,0 z"
         id="path3036" /></clipPath><clipPath
       clipPathUnits="userSpaceOnUse"
       id="clipPath3038"><path
         d="M 0,181.289 0,0.648 l 131.93,0 0,180.641"
         id="path3040" /></clipPath><clipPath
       clipPathUnits="userSpaceOnUse"
       id="clipPath3042"><path
         d="M 0,0 174,0 174,196 0,196 0,0 z"
         id="path3044" /></clipPath><clipPath
       clipPathUnits="userSpaceOnUse"
       id="clipPath3046"><path
         d="m -1.016,182.305 0,-182.164 133.961,0 0,182.164"
         id="path3048" /></clipPath><clipPath
       clipPathUnits="userSpaceOnUse"
       id="clipPath3050"><path
         d="M 0,0 174,0 174,196 0,196 0,0 z"
         id="path3052" /></clipPath><clipPath
       clipPathUnits="userSpaceOnUse"
       id="clipPath3054"><path
         d="M 0,181.797 0,1.156 l 131.93,0 0,180.641"
         id="path3056" /></clipPath><clipPath
       clipPathUnits="userSpaceOnUse"
       id="clipPath3058"><path
         d="M 0,0 174,0 174,196 0,196 0,0 z"
         id="path3060" /></clipPath><clipPath
       clipPathUnits="userSpaceOnUse"
       id="clipPath3062"><path
         d="M 0,0 174,0 174,196 0,196 0,0 z"
         id="path3064" /></clipPath></defs><sodipodi:namedview
     pagecolor="#ffffff"
     bordercolor="#666666"
     borderopacity="1"
     objecttolerance="10"
     gridtolerance="10"
     guidetolerance="10"
     inkscape:pageopacity="0"
     inkscape:pageshadow="2"
     inkscape:window-width="953"
     inkscape:window-height="709"
     id="namedview3006"
     showgrid="false"
     inkscape:zoom="4.46"
     inkscape:cx="108.22369"
     inkscape:cy="77.174447"
     inkscape:window-x="0"
     inkscape:window-y="0"
     inkscape:window-maximized="0"
     inkscape:current-layer="g3012" /><g
     id="g3012"
     inkscape:groupmode="layer"
     inkscape:label="collapsingstarhawkrad"
     transform="matrix(1.25,0,0,-1.25,0,243.76755)"><g
       id="g3014"><g
         id="g3016"
         clip-path="url(#clipPath3018)"><g
           id="g3022"
           transform="translate(0,-0.985962)"><g
             id="g3024" /><g
             id="g3066"><g
               clip-path="url(#clipPath3026)"
               id="g3068"><g
                 id="g3070" /><g
                 id="g3072"><g
                   clip-path="url(#clipPath3030)"
                   id="g3074"><g
                     id="g3076"><g
                       id="g3078" /><g
                       id="g3080"><g
                         clip-path="url(#clipPath3034)"
                         id="g3082"><g
                           id="g3084"><path
                             d="m -4.059,185.348 227.324,0 0,-188.254 -227.324,0 0,188.254 z"
                             style="fill:#ffffff;fill-opacity:1;fill-rule:evenodd;stroke:none"
                             id="path3086" /></g></g></g></g></g></g><g
                 id="g3088"><g
                   clip-path="url(#clipPath3038)"
                   id="g3090"><g
                     id="g3092"><g
                       id="g3094" /><g
                       id="g3096"><g
                         clip-path="url(#clipPath3042)"
                         id="g3098"><g
                           id="g3100" /><g
                           id="g3102"><g
                             clip-path="url(#clipPath3046)"
                             id="g3104"><g
                               id="g3106"><g
                                 id="g3108" /><g
                                 id="g3110"><g
                                   clip-path="url(#clipPath3050)"
                                   id="g3112"><g
                                   id="g3114" /><g
                                   id="g3116"><g
                                   clip-path="url(#clipPath3054)"
                                   id="g3118"><g
                                   id="g3120"><g
                                   id="g3122" /><g
                                   id="g3124"><g
                                   clip-path="url(#clipPath3058)"
                                   id="g3126"><g
                                   id="g3128"><g
                                   id="g3130"><g
                                   id="g3132" /><g
                                   id="g3134"><g
                                   clip-path="url(#clipPath3062)"
                                   id="g3136"><g
                                   id="g3138" /><g
                                   id="g3140"><g
                                   transform="matrix(1,0,0,-1,0,196)"
                                   id="g3142"><path
                                   d="M 4.254,18.359 4.277,18.285 4.293,18.211 4.332,18.062 4.414,17.773 4.434,17.707 4.453,17.637 4.492,17.504 4.57,17.262 4.59,17.203 4.609,17.148 4.648,17.047 4.668,17 4.688,16.957 4.727,16.875 4.746,16.84 4.785,16.777 4.805,16.75 4.844,16.703 4.883,16.672 4.902,16.66 l 0.039,-0.015 0.039,0 0.02,0.003 0.02,0.008 0.039,0.024 0.039,0.039 0.019,0.023 0.039,0.055 0.039,0.07 0.039,0.078 0.039,0.09 0.039,0.102 0.059,0.164 0.059,0.187 0.078,0.27 0.023,0.074 0.02,0.078 0.043,0.156 0.086,0.325 0.019,0.082 0.024,0.078 0.039,0.16 0.086,0.309 0.023,0.074 0.02,0.074 0.043,0.137 0.019,0.066 0.024,0.067 0.043,0.121 0.019,0.054 0.023,0.055 0.02,0.051 0.02,0.047 0.043,0.086 0.023,0.039 0.02,0.035 0.023,0.031 0.039,0.055 0.023,0.019 0.02,0.016 0.023,0.015 0.02,0.008 0.023,0.004 0.02,0.004 0.019,-0.004 0.024,-0.004 0.019,-0.011 0.024,-0.012 0.019,-0.02 0.024,-0.019 0.019,-0.024 0.02,-0.027 0.023,-0.031 0.02,-0.039 0.023,-0.035 0.02,-0.043 0.023,-0.047 0.043,-0.098 0.02,-0.055 0.019,-0.058 0.043,-0.121 0.086,-0.27 0.02,-0.066 0.058,-0.211 0.082,-0.297 0.039,-0.148 0.039,-0.153 0.118,-0.445 0.043,-0.141 0.019,-0.07 0.02,-0.067 0.039,-0.128 0.019,-0.067 0.059,-0.176 0.019,-0.05 0.02,-0.055 0.059,-0.141 0.023,-0.039 0.019,-0.039 0.04,-0.07 0.039,-0.055 0.039,-0.047 0.039,-0.031 0.039,-0.016 0.019,-0.003 0.039,0 0.024,0.007 0.019,0.008 0.02,0.012 0.019,0.016 0.02,0.019 0.02,0.023 0.039,0.055 0.019,0.031 0.039,0.071 0.039,0.086 0.024,0.043 0.058,0.152 0.02,0.055 0.039,0.117 0.078,0.25 0.016,0.066 0.058,0.211 0.078,0.289 0.02,0.074 0.019,0.071 0.039,0.148 0.079,0.293 0.019,0.074 0.02,0.071 0.039,0.136 0.078,0.266 0.019,0.059 0.02,0.062 0.039,0.113 0.039,0.102 0.039,0.098 0.039,0.086 0.02,0.035 0.035,0.07 0.023,0.031 0.016,0.028 0.019,0.023 0.039,0.039 0.02,0.016 0.02,0.011 0.019,0.008 0.039,0.008 0.059,-0.012 0.019,-0.011 0.039,-0.032 0.02,-0.019 0.019,-0.024 0.02,-0.027 0.023,-0.031 0.039,-0.07 0.024,-0.043 0.039,-0.094 0.043,-0.102 0.023,-0.058 0.02,-0.059 0.043,-0.125 0.082,-0.277 0.023,-0.074 0.02,-0.075 0.043,-0.152 0.086,-0.316 0.168,-0.637 0.039,-0.149 0.043,-0.144 0.023,-0.07 0.02,-0.071 0.062,-0.187 0.024,-0.059 0.043,-0.109 0.019,-0.051 0.02,-0.047 0.062,-0.125 0.024,-0.035 0.019,-0.031 0.024,-0.028 0.019,-0.023 0.02,-0.02 0.023,-0.019 0.02,-0.012 0.023,-0.008 0.02,-0.007 0.043,0 0.019,0.007 0.024,0.008 0.019,0.012 0.02,0.019 0.019,0.016 0.02,0.023 0.023,0.028 0.016,0.027 0.023,0.031 0.02,0.032 0.039,0.078 0.019,0.043 0.02,0.047 0.039,0.097 0.019,0.051 0.02,0.055 0.039,0.117 0.039,0.125 0.039,0.133 0.078,0.277 0.16,0.594 0.079,0.297 0.097,0.351 0.02,0.067 0.039,0.129 0.078,0.234 0.058,0.152 0.02,0.047 0.02,0.043 0.019,0.039 0.039,0.074 0.02,0.032 0.019,0.027 0.024,0.027 0.015,0.024 0.024,0.019 0.019,0.016 0.039,0.023 0.02,0.008 0.023,0.004 0.02,0 0.019,-0.008 0.024,-0.008 0.019,-0.011 0.024,-0.016 0.043,-0.043 0.019,-0.023 0.024,-0.031 0.019,-0.036 0.024,-0.039 0.019,-0.039 0.043,-0.09 0.02,-0.05 0.023,-0.055 0.043,-0.113 0.086,-0.262 0.02,-0.07 0.023,-0.071 0.043,-0.152 0.082,-0.313 0.023,-0.078 0.02,-0.082 0.043,-0.164 0.086,-0.32 0.019,-0.082 0.024,-0.078 0.043,-0.153 0.086,-0.285 0.019,-0.066 0.024,-0.063 0.039,-0.121 0.023,-0.058 0.02,-0.051 0.043,-0.102 0.023,-0.043 0.02,-0.043 0.023,-0.035 0.02,-0.035 0.023,-0.031 0.02,-0.028 0.019,-0.023 0.024,-0.019 0.019,-0.016 0.024,-0.016 0.019,-0.008 0.02,-0.003 0.043,0 0.019,0.007 0.024,0.008 0.019,0.016 0.023,0.015 0.04,0.047 0.023,0.028 0.02,0.031 0.019,0.035 0.024,0.035 0.039,0.086 0.043,0.098 0.019,0.054 0.023,0.055 0.043,0.117 0.02,0.067 0.02,0.062 0.043,0.137 0.082,0.297 0.023,0.074 0.019,0.078 0.043,0.156 0.083,0.321 0.023,0.078 0.019,0.078 0.043,0.156 0.082,0.301 0.02,0.074 0.023,0.071 0.043,0.132 0.039,0.125 0.043,0.118 0.02,0.05 0.023,0.051 0.02,0.051 0.019,0.043 0.024,0.043 0.019,0.039 0.024,0.035 0.019,0.031 0.02,0.028 0.039,0.047 0.039,0.031 0.02,0.011 0.019,0.008 0.039,0.008 0.039,-0.008 0.02,-0.008 0.039,-0.023 0.039,-0.039 0.019,-0.023 0.039,-0.055 0.04,-0.07 0.019,-0.04 0.039,-0.082 0.039,-0.093 0.039,-0.106 0.078,-0.234 0.02,-0.063 0.059,-0.199 0.078,-0.285 0.156,-0.59 0.039,-0.148 0.039,-0.145 0.078,-0.273 0.039,-0.133 0.039,-0.121 0.039,-0.117 0.039,-0.106 0.02,-0.055 0.019,-0.05 0.024,-0.051 0.019,-0.043 0.024,-0.043 0.019,-0.039 0.024,-0.035 0.039,-0.063 0.043,-0.043 0.023,-0.019 0.02,-0.012 0.023,-0.012 0.02,-0.007 0.043,0 0.019,0.003 0.024,0.008 0.039,0.032 0.023,0.019 0.02,0.023 0.023,0.028 0.02,0.031 0.023,0.035 0.02,0.035 0.019,0.043 0.024,0.043 0.019,0.047 0.043,0.106 0.024,0.054 0.019,0.059 0.043,0.125 0.082,0.277 0.024,0.071 0.019,0.078 0.043,0.152 0.086,0.316 0.02,0.082 0.023,0.079 0.039,0.164 0.086,0.316 0.023,0.074 0.02,0.075 0.043,0.148 0.082,0.27 0.023,0.054 0.02,0.059 0.059,0.152 0.058,0.129 0.039,0.07 0.039,0.063 0.039,0.047 0.02,0.019 0.019,0.016 0.02,0.012 0.023,0.007 0.02,0.008 0.019,0.004 0.02,0 0.019,-0.004 0.02,-0.008 0.039,-0.023 0.02,-0.016 0.058,-0.07 0.039,-0.062 0.02,-0.036 0.039,-0.078 0.043,-0.093 0.019,-0.047 0.02,-0.051 0.039,-0.11 0.019,-0.058 0.059,-0.188 0.078,-0.273 0.039,-0.141 0.043,-0.148 0.078,-0.301 0.157,-0.59 0.019,-0.07 0.059,-0.199 0.039,-0.125 0.039,-0.117 0.039,-0.11 0.039,-0.101 0.019,-0.047 0.02,-0.043 0.039,-0.082 0.039,-0.071 0.02,-0.031 0.015,-0.027 0.02,-0.028 0.039,-0.039 0.019,-0.015 0.039,-0.024 0.04,-0.007 0.019,0 0.039,0.007 0.039,0.024 0.039,0.031 0.039,0.047 0.059,0.094 0.019,0.035 0.02,0.039 0.035,0.086 0.02,0.047 0.019,0.05 0.039,0.106 0.02,0.055 0.019,0.058 0.039,0.121 0.079,0.266 0.156,0.57 0.019,0.082 0.02,0.078 0.043,0.161 0.086,0.312 0.039,0.148 0.043,0.145 0.086,0.262 0.019,0.058 0.024,0.059 0.019,0.055 0.02,0.05 0.023,0.051 0.02,0.047 0.043,0.082 0.019,0.035 0.024,0.035 0.039,0.055 0.043,0.043 0.019,0.016 0.024,0.011 0.019,0.008 0.024,0.004 0.019,0 0.02,-0.004 0.023,-0.008 0.02,-0.011 0.023,-0.012 0.02,-0.02 0.019,-0.023 0.024,-0.023 0.019,-0.028 0.02,-0.035 0.023,-0.035 0.063,-0.125 0.019,-0.051 0.024,-0.051 0.039,-0.109 0.023,-0.059 0.02,-0.062 0.043,-0.129 0.019,-0.07 0.024,-0.071 0.042,-0.144 0.083,-0.309 0.019,-0.07 0.02,-0.074 0.039,-0.153 0.117,-0.445 0.039,-0.141 0.078,-0.273 0.02,-0.066 0.019,-0.063 0.039,-0.121 0.024,-0.059 0.019,-0.054 0.039,-0.106 0.039,-0.094 0.02,-0.042 0.039,-0.079 0.019,-0.035 0.02,-0.031 0.039,-0.055 0.019,-0.023 0.02,-0.02 0.039,-0.031 0.039,-0.016 0.02,-0.003 0.039,0 0.039,0.015 0.058,0.047 0.039,0.047 0.059,0.094 0.039,0.078 0.039,0.086 0.02,0.047 0.019,0.05 0.039,0.11 0.078,0.238 0.024,0.07 0.019,0.071 0.043,0.148 0.086,0.313 0.02,0.082 0.023,0.078 0.043,0.164 0.086,0.32 0.039,0.156 0.043,0.153 0.024,0.074 0.019,0.074 0.043,0.141 0.024,0.066 0.019,0.063 0.043,0.125 0.02,0.054 0.023,0.055 0.043,0.098 0.02,0.047 0.023,0.043 0.02,0.039 0.019,0.035 0.024,0.031 0.019,0.027 0.023,0.024 0.02,0.023 0.023,0.016 0.039,0.023 0.024,0.004 0.019,0.004 0.024,-0.004 0.019,-0.004 0.024,-0.011 0.019,-0.012 0.024,-0.016 0.039,-0.047 0.023,-0.027 0.02,-0.031 0.023,-0.035 0.02,-0.039 0.023,-0.043 0.02,-0.043 0.043,-0.102 0.019,-0.055 0.024,-0.054 0.043,-0.121 0.019,-0.063 0.02,-0.066 0.043,-0.137 0.086,-0.293 0.164,-0.629 0.023,-0.082 0.02,-0.078 0.043,-0.156 0.082,-0.297 0.019,-0.071 0.024,-0.07 0.039,-0.133 0.023,-0.066 0.02,-0.059 0.043,-0.117 0.039,-0.101 0.023,-0.051 0.02,-0.043 0.023,-0.043 0.02,-0.039 0.019,-0.035 0.02,-0.032 0.023,-0.027 0.02,-0.027 0.019,-0.024 0.024,-0.015 0.019,-0.016 0.024,-0.012 0.039,-0.007 0.023,0 0.02,0.003 0.019,0.008 0.024,0.012 0.019,0.012 0.043,0.043 0.02,0.023 0.019,0.031 0.024,0.032 0.019,0.035 0.02,0.039 0.023,0.043 0.02,0.047 0.043,0.097 0.039,0.102 0.039,0.113 0.078,0.246 0.039,0.133 0.039,0.137 0.074,0.289 0.02,0.074 0.019,0.07 0.039,0.153 0.078,0.293 0.02,0.074 0.059,0.211 0.097,0.332 0.078,0.234 0.059,0.153 0.02,0.046 0.019,0.043 0.039,0.079 0.02,0.035 0.039,0.062 0.019,0.028 0.02,0.023 0.019,0.02 0.039,0.031 0.02,0.011 0.019,0.008 0.04,0.008 0.039,-0.008 0.019,-0.008 0.039,-0.023 0.039,-0.039 0.02,-0.023 0.019,-0.028 0.024,-0.035 0.019,-0.035 0.02,-0.039 0.023,-0.043 0.02,-0.047 0.043,-0.098 0.019,-0.054 0.024,-0.059 0.043,-0.121 0.082,-0.27 0.023,-0.074 0.02,-0.074 0.043,-0.152 0.082,-0.317 0.172,-0.636 0.019,-0.079 0.02,-0.074 0.043,-0.148 0.023,-0.071 0.02,-0.07 0.043,-0.133 0.019,-0.062 0.023,-0.059 0.04,-0.113 0.023,-0.055 0.019,-0.047 0.043,-0.089 0.02,-0.043 0.023,-0.036 0.02,-0.035 0.023,-0.027 0.02,-0.027 0.019,-0.024 0.024,-0.019 0.019,-0.016 0.024,-0.012 0.019,-0.008 0.02,-0.003 0.023,0 0.02,0.003 0.023,0.004 0.02,0.012 0.023,0.016 0.02,0.015 0.019,0.02 0.02,0.023 0.039,0.055 0.019,0.031 0.04,0.074 0.039,0.086 0.039,0.094 0.019,0.051 0.02,0.055 0.039,0.113 0.019,0.062 0.02,0.059 0.039,0.129 0.082,0.277 0.234,0.891 0.078,0.285 0.02,0.07 0.02,0.067 0.042,0.133 0.079,0.238 0.039,0.109 0.019,0.051 0.02,0.047 0.039,0.086 0.039,0.078 0.039,0.062 0.019,0.028 0.04,0.047 0.019,0.019 0.02,0.016 0.019,0.011 0.024,0.008 0.019,0.004 0.024,0.004 0.019,-0.004 0.023,-0.004 0.02,-0.011 0.023,-0.012 0.02,-0.02 0.023,-0.019 0.04,-0.055 0.023,-0.031 0.023,-0.039 0.063,-0.125 0.019,-0.051 0.024,-0.051 0.043,-0.113 0.019,-0.059 0.024,-0.062 0.043,-0.133 0.019,-0.07 0.024,-0.071 0.039,-0.148 0.086,-0.312 0.023,-0.083 0.02,-0.078 0.043,-0.164 0.086,-0.324 0.023,-0.078 0.02,-0.078 0.043,-0.156 0.085,-0.289 0.02,-0.067 0.023,-0.066 0.043,-0.125 0.02,-0.055 0.023,-0.055 0.039,-0.101 0.024,-0.047 0.019,-0.043 0.024,-0.039 0.019,-0.035 0.024,-0.035 0.019,-0.028 0.024,-0.027 0.019,-0.02 0.024,-0.019 0.039,-0.024 0.023,-0.007 0.039,0 0.024,0.003 0.019,0.008 0.02,0.012 0.023,0.016 0.043,0.043 0.039,0.054 0.024,0.035 0.019,0.036 0.02,0.043 0.023,0.043 0.043,0.093 0.02,0.051 0.019,0.055 0.043,0.117 0.02,0.062 0.023,0.067 0.039,0.137 0.086,0.289 0.02,0.078 0.023,0.074 0.039,0.16 0.086,0.317 0.02,0.082 0.023,0.078 0.039,0.156 0.086,0.305 0.02,0.07 0.023,0.07 0.039,0.137 0.024,0.066 0.019,0.063 0.043,0.117 0.02,0.055 0.023,0.051 0.02,0.05 0.019,0.047 0.024,0.043 0.019,0.039 0.02,0.035 0.023,0.036 0.02,0.027 0.039,0.047 0.019,0.019 0.02,0.016 0.019,0.012 0.039,0.015 0.02,0.004 0.019,0 0.02,-0.004 0.019,-0.008 0.04,-0.023 0.019,-0.016 0.02,-0.019 0.019,-0.024 0.039,-0.054 0.02,-0.032 0.039,-0.07 0.058,-0.129 0.059,-0.152 0.078,-0.231 0.02,-0.066 0.019,-0.062 0.039,-0.133 0.078,-0.285 0.157,-0.59 0.039,-0.149 0.039,-0.144 0.078,-0.278 0.039,-0.132 0.039,-0.125 0.039,-0.118 0.039,-0.105 0.024,-0.055 0.019,-0.054 0.02,-0.047 0.023,-0.047 0.02,-0.043 0.023,-0.039 0.019,-0.035 0.024,-0.036 0.039,-0.054 0.023,-0.024 0.02,-0.015 0.023,-0.016 0.02,-0.012 0.019,-0.004 0.024,-0.003 0.019,0 0.024,0.003 0.019,0.008 0.024,0.012 0.019,0.016 0.024,0.019 0.019,0.024 0.02,0.027 0.023,0.027 0.02,0.035 0.023,0.039 0.02,0.04 0.019,0.043 0.024,0.046 0.043,0.102 0.019,0.059 0.024,0.058 0.043,0.121 0.082,0.278 0.023,0.074 0.02,0.074 0.043,0.152 0.086,0.317 0.019,0.082 0.024,0.082 0.039,0.16 0.086,0.316 0.019,0.079 0.024,0.074 0.043,0.148 0.085,0.27 0.02,0.058 0.019,0.055 0.04,0.105 0.039,0.094 0.039,0.086 0.039,0.07 0.039,0.063 0.019,0.027 0.02,0.02 0.023,0.019 0.039,0.032 0.039,0.015 0.02,0.004 0.02,0 0.019,-0.004 0.02,-0.008 0.039,-0.023 0.019,-0.016 0.02,-0.019 0.019,-0.024 0.02,-0.027 0.023,-0.027 0.059,-0.106 0.019,-0.043 0.039,-0.09 0.02,-0.046 0.058,-0.165 0.04,-0.117 0.039,-0.125 0.082,-0.273 0.019,-0.07 0.02,-0.075 0.039,-0.144 0.078,-0.301 0.16,-0.594 0.02,-0.07 0.058,-0.199 0.039,-0.125 0.039,-0.117 0.039,-0.11 0.039,-0.101 0.016,-0.047 0.02,-0.047 0.058,-0.117 0.039,-0.063 0.039,-0.055 0.039,-0.039 0.02,-0.015 0.039,-0.024 0.039,-0.007 0.02,0 0.039,0.007 0.039,0.024 0.019,0.015 0.039,0.039 0.039,0.055 0.02,0.031 0.039,0.071 0.019,0.039 0.04,0.086 0.015,0.047 0.02,0.05 0.039,0.106 0.019,0.058 0.02,0.055 0.039,0.125 0.078,0.262 0.156,0.578 0.02,0.078 0.023,0.082 0.039,0.16 0.086,0.309 0.02,0.078 0.023,0.07 0.043,0.145 0.082,0.262 0.02,0.058 0.023,0.059 0.02,0.054 0.023,0.051 0.02,0.051 0.019,0.043 0.043,0.082 0.024,0.039 0.019,0.031 0.02,0.028 0.023,0.027 0.02,0.023 0.023,0.016 0.02,0.016 0.019,0.011 0.024,0.008 0.019,0.004 0.02,0 0.023,-0.004 0.02,-0.008 0.023,-0.011 0.02,-0.016 0.023,-0.019 0.039,-0.047 0.024,-0.032 0.019,-0.031 0.02,-0.035 0.023,-0.043 0.043,-0.086 0.039,-0.101 0.043,-0.114 0.023,-0.058 0.02,-0.063 0.043,-0.133 0.039,-0.14 0.043,-0.145 0.086,-0.308 0.078,-0.297 0.078,-0.301 0.02,-0.07 0.019,-0.075 0.039,-0.144 0.078,-0.274 0.039,-0.125 0.04,-0.121 0.023,-0.058 0.016,-0.055 0.043,-0.102 0.039,-0.093 0.019,-0.043 0.039,-0.078 0.059,-0.094 0.039,-0.047 0.058,-0.047 0.04,-0.015 0.039,0 0.019,0.003 0.039,0.016 0.039,0.031 0.02,0.02 0.019,0.023 0.039,0.055 0.02,0.031 0.019,0.035 0.04,0.079 0.042,0.089 0.04,0.102 0.039,0.105 0.078,0.246 0.019,0.071 0.024,0.07 0.043,0.149 0.082,0.316 0.023,0.078 0.02,0.082 0.043,0.164 0.086,0.32 0.019,0.079 0.024,0.078 0.042,0.152 0.02,0.074 0.023,0.071 0.043,0.14 0.02,0.067 0.023,0.062 0.039,0.121 0.024,0.055 0.019,0.055 0.043,0.097 0.024,0.043 0.019,0.039 0.024,0.039 0.019,0.036 0.02,0.031 0.023,0.023 0.02,0.024 0.023,0.019 0.02,0.016 0.023,0.011 0.02,0.008 0.023,0.008 0.02,0 0.019,-0.004 0.024,-0.008 0.019,-0.011 0.024,-0.016 0.019,-0.016 0.024,-0.023 0.019,-0.027 0.024,-0.028 0.019,-0.035 0.024,-0.035 0.019,-0.039 0.024,-0.043 0.019,-0.047 0.043,-0.101 0.02,-0.055 0.023,-0.059 0.043,-0.125 0.039,-0.133 0.043,-0.136 0.082,-0.297 0.168,-0.629 0.023,-0.082 0.02,-0.078 0.043,-0.156 0.082,-0.297 0.02,-0.071 0.023,-0.066 0.039,-0.133 0.023,-0.062 0.02,-0.063 0.043,-0.109 0.02,-0.055 0.023,-0.051 0.019,-0.043 0.02,-0.047 0.023,-0.039 0.039,-0.07 0.024,-0.031 0.019,-0.028 0.02,-0.023 0.023,-0.019 0.02,-0.016 0.023,-0.012 0.02,-0.012 0.019,-0.003 0.043,0 0.02,0.007 0.023,0.008 0.02,0.012 0.019,0.019 0.024,0.02 0.019,0.023 0.02,0.028 0.023,0.031 0.039,0.07 0.024,0.043 0.019,0.043 0.02,0.047 0.043,0.102 0.019,0.05 0.02,0.055 0.039,0.113 0.078,0.254 0.039,0.133 0.039,0.141 0.078,0.289 0.079,0.297 0.078,0.293 0.019,0.074 0.059,0.211 0.078,0.265 0.019,0.063 0.02,0.059 0.039,0.113 0.039,0.109 0.059,0.141 0.019,0.039 0.02,0.043 0.019,0.035 0.039,0.063 0.039,0.054 0.039,0.039 0.02,0.016 0.039,0.023 0.039,0.008 0.02,0 0.019,-0.004 0.02,-0.008 0.039,-0.023 0.019,-0.016 0.02,-0.019 0.019,-0.024 0.02,-0.027 0.019,-0.031 0.02,-0.035 0.023,-0.036 0.02,-0.043 0.023,-0.042 0.02,-0.051 0.043,-0.102 0.019,-0.058 0.024,-0.059 0.043,-0.125 0.082,-0.277 0.023,-0.075 0.02,-0.074 0.043,-0.152 0.086,-0.317 0.168,-0.636 0.019,-0.078 0.024,-0.075 0.043,-0.144 0.039,-0.141 0.043,-0.129 0.023,-0.062 0.02,-0.059 0.019,-0.054 0.024,-0.055 0.019,-0.051 0.024,-0.047 0.039,-0.086 0.023,-0.039 0.02,-0.031 0.023,-0.031 0.02,-0.028 0.023,-0.027 0.02,-0.019 0.019,-0.016 0.024,-0.012 0.019,-0.012 0.023,-0.003 0.043,0 0.04,0.015 0.023,0.016 0.02,0.015 0.019,0.02 0.039,0.047 0.039,0.062 0.024,0.035 0.039,0.079 0.019,0.043 0.02,0.046 0.039,0.098 0.019,0.051 0.059,0.176 0.039,0.125 0.039,0.132 0.078,0.278 0.16,0.597 0.078,0.297 0.079,0.285 0.039,0.133 0.039,0.129 0.082,0.235 0.039,0.101 0.039,0.094 0.019,0.043 0.039,0.078 0.039,0.063 0.04,0.054 0.019,0.024 0.039,0.031 0.02,0.012 0.023,0.011 0.016,0.004 0.019,0.004 0.02,0 0.019,-0.004 0.02,-0.008 0.039,-0.023 0.019,-0.016 0.02,-0.019 0.02,-0.024 0.039,-0.054 0.019,-0.032 0.02,-0.035 0.039,-0.074 0.019,-0.043 0.02,-0.047 0.039,-0.097 0.019,-0.051 0.02,-0.055 0.035,-0.113 0.02,-0.063 0.019,-0.058 0.039,-0.129 0.078,-0.274 0.02,-0.074 0.019,-0.07 0.039,-0.145 0.079,-0.297 0.019,-0.07 0.02,-0.074 0.039,-0.145 0.074,-0.281 0.019,-0.07 0.02,-0.067 0.059,-0.187 0.019,-0.059 0.039,-0.113 0.02,-0.055 0.019,-0.05 0.039,-0.098 0.02,-0.043 0.058,-0.117 0.02,-0.035 0.019,-0.032 0.024,-0.031 0.019,-0.023 0.043,-0.043 0.02,-0.016 0.023,-0.008 0.02,-0.008 0.019,-0.003 0.024,0 0.019,0.003 0.024,0.008 0.019,0.008 0.02,0.016 0.023,0.019 0.039,0.047 0.024,0.031 0.019,0.032 0.024,0.035 0.019,0.039 0.043,0.09 0.02,0.047 0.019,0.05 0.043,0.114 0.024,0.058 0.019,0.063 0.043,0.129 0.039,0.14 0.043,0.145 0.086,0.308 0.039,0.157 0.129,0.48 0.039,0.156 0.043,0.153 0.024,0.074 0.019,0.07 0.043,0.141 0.039,0.133 0.043,0.125 0.024,0.058 0.019,0.055 0.043,0.101 0.039,0.086 0.059,0.106 0.039,0.055 0.019,0.023 0.039,0.039 0.02,0.016 0.039,0.015 0.039,0.008 0.039,-0.008 0.02,-0.008 0.019,-0.011 0.02,-0.016 0.039,-0.039 0.019,-0.023 0.02,-0.028 0.019,-0.031 0.039,-0.07 0.02,-0.039 0.039,-0.086 0.039,-0.098 0.02,-0.051 0.019,-0.054 0.039,-0.114 0.078,-0.25 0.02,-0.07 0.019,-0.066 0.04,-0.141 0.078,-0.293 0.078,-0.297 0.082,-0.297 0.019,-0.07 0.02,-0.074 0.039,-0.141 0.078,-0.262 0.02,-0.07 0.023,-0.062 0.039,-0.125 0.024,-0.059 0.019,-0.055 0.043,-0.101 0.023,-0.043 0.02,-0.043 0.02,-0.039 0.023,-0.039 0.019,-0.032 0.024,-0.031 0.019,-0.023 0.024,-0.024 0.019,-0.015 0.024,-0.016 0.019,-0.012 0.02,-0.004 0.023,-0.003 0.02,0 0.023,0.003 0.02,0.008 0.023,0.012 0.02,0.016 0.023,0.019 0.02,0.024 0.019,0.027 0.024,0.031 0.019,0.035 0.024,0.035 0.019,0.043 0.024,0.043 0.039,0.098 0.023,0.055 0.02,0.054 0.043,0.122 0.023,0.062 0.02,0.066 0.043,0.137 0.086,0.297 0.039,0.156 0.043,0.16 0.086,0.325 0.171,0.621 0.02,0.07 0.02,0.066 0.058,0.188 0.02,0.059 0.039,0.109 0.039,0.102 0.019,0.046 0.024,0.043 0.019,0.043 0.02,0.035 0.019,0.04 0.02,0.031 0.039,0.054 0.019,0.024 0.039,0.039 0.04,0.023 0.019,0.008 0.024,0.004 0.019,0 0.02,-0.004 0.039,-0.015 0.019,-0.012 0.02,-0.016 0.019,-0.019 0.02,-0.024 0.039,-0.054 0.019,-0.032 0.02,-0.035 0.023,-0.039 0.039,-0.082 0.02,-0.047 0.059,-0.152 0.078,-0.238 0.019,-0.063 0.024,-0.066 0.039,-0.137 0.078,-0.285 0.16,-0.602 0.02,-0.074 0.015,-0.07 0.039,-0.145 0.078,-0.277 0.02,-0.063 0.019,-0.066 0.039,-0.121 0.04,-0.117 0.039,-0.106 0.019,-0.051 0.039,-0.093 0.02,-0.039 0.019,-0.043 0.039,-0.071 0.02,-0.031 0.039,-0.055 0.058,-0.058 0.04,-0.024 0.039,-0.007 0.039,0 0.039,0.015 0.019,0.012 0.02,0.016 0.019,0.019 0.039,0.047 0.02,0.027 0.019,0.031 0.02,0.036 0.016,0.035 0.039,0.082 0.019,0.043 0.02,0.047 0.039,0.101 0.078,0.227 0.039,0.125 0.039,0.133 0.078,0.277 0.024,0.078 0.019,0.082 0.043,0.156 0.082,0.325 0.024,0.078 0.019,0.078 0.043,0.156 0.082,0.297 0.024,0.07 0.019,0.067 0.043,0.133 0.023,0.058 0.02,0.059 0.043,0.113 0.02,0.051 0.023,0.047 0.039,0.086 0.023,0.039 0.02,0.035 0.023,0.031 0.02,0.027 0.019,0.024 0.024,0.019 0.019,0.02 0.02,0.012 0.023,0.011 0.02,0.004 0.023,0.004 0.039,-0.008 0.024,-0.008 0.019,-0.015 0.024,-0.016 0.019,-0.019 0.02,-0.024 0.023,-0.027 0.02,-0.031 0.023,-0.035 0.02,-0.036 0.023,-0.043 0.02,-0.043 0.019,-0.046 0.024,-0.051 0.043,-0.11 0.019,-0.058 0.02,-0.063 0.043,-0.129 0.086,-0.281 0.039,-0.14 0.039,-0.145 0.234,-0.891 0.039,-0.14 0.039,-0.137 0.024,-0.066 0.058,-0.188 0.039,-0.117 0.039,-0.106 0.02,-0.05 0.02,-0.047 0.039,-0.086 0.039,-0.078 0.019,-0.035 0.059,-0.082 0.039,-0.039 0.019,-0.016 0.02,-0.012 0.039,-0.015 0.043,0 0.016,0.003 0.023,0.008 0.039,0.024 0.039,0.039 0.02,0.023 0.039,0.055 0.039,0.07 0.019,0.039 0.039,0.082 0.02,0.047 0.019,0.051 0.04,0.105 0.023,0.059 0.019,0.066 0.043,0.133 0.086,0.289 0.168,0.637 0.047,0.164 0.039,0.16 0.086,0.309 0.024,0.078 0.019,0.07 0.043,0.141 0.024,0.066 0.019,0.067 0.043,0.121 0.02,0.058 0.023,0.055 0.02,0.051 0.023,0.047 0.02,0.047 0.023,0.043 0.02,0.039 0.023,0.035 0.02,0.031 0.019,0.027 0.047,0.047 0.019,0.016 0.02,0.012 0.023,0.011 0.02,0.004 0.023,0.004 0.02,-0.004 0.023,-0.004 0.02,-0.011 0.023,-0.012 0.02,-0.02 0.023,-0.019 0.02,-0.024 0.019,-0.031 0.024,-0.031 0.019,-0.035 0.024,-0.039 0.043,-0.086 0.043,-0.102 0.039,-0.109 0.043,-0.121 0.082,-0.266 0.023,-0.07 0.02,-0.074 0.043,-0.149 0.082,-0.312 0.023,-0.082 0.02,-0.079 0.043,-0.16 0.082,-0.312 0.023,-0.078 0.02,-0.075 0.043,-0.148 0.082,-0.273 0.023,-0.067 0.02,-0.058 0.043,-0.118 0.039,-0.101 0.043,-0.094 0.019,-0.039 0.024,-0.039 0.019,-0.035 0.024,-0.031 0.019,-0.032 0.02,-0.023 0.023,-0.02 0.02,-0.019 0.019,-0.012 0.024,-0.012 0.019,-0.007 0.043,0 0.02,0.003 0.019,0.008 0.024,0.012 0.019,0.016 0.024,0.019 0.019,0.024 0.02,0.027 0.023,0.027 0.039,0.071 0.024,0.043 0.019,0.039 0.02,0.043 0.039,0.089 0.019,0.051 0.059,0.164 0.019,0.063 0.02,0.058 0.039,0.129 0.078,0.27 0.02,0.07 0.019,0.074 0.039,0.145 0.078,0.297 0.157,0.582 0.019,0.07 0.059,0.199 0.039,0.125 0.039,0.117 0.039,0.11 0.039,0.098 0.019,0.046 0.02,0.043 0.039,0.078 0.02,0.036 0.039,0.062 0.019,0.027 0.02,0.024 0.019,0.019 0.039,0.032 0.02,0.011 0.058,0.012 0.04,-0.008 0.019,-0.008 0.02,-0.011 0.019,-0.02 0.024,-0.019 0.019,-0.024 0.023,-0.027 0.04,-0.063 0.023,-0.039 0.043,-0.086 0.02,-0.046 0.042,-0.106 0.02,-0.055 0.023,-0.058 0.043,-0.125 0.039,-0.133 0.043,-0.145 0.086,-0.3 0.168,-0.641 0.024,-0.078 0.019,-0.082 0.043,-0.156 0.086,-0.297 0.02,-0.071 0.023,-0.066 0.039,-0.133 0.024,-0.062 0.019,-0.059 0.043,-0.109 0.024,-0.051 0.039,-0.094 0.023,-0.039 0.02,-0.039 0.023,-0.035 0.02,-0.031 0.019,-0.028 0.043,-0.043 0.024,-0.019 0.019,-0.012 0.024,-0.008 0.019,-0.007 0.043,0 0.039,0.015 0.02,0.012 0.039,0.031 0.039,0.047 0.019,0.027 0.02,0.032 0.023,0.035 0.02,0.035 0.019,0.039 0.02,0.043 0.019,0.047 0.039,0.097 0.02,0.051 0.02,0.055 0.039,0.117 0.078,0.258 0.019,0.066 0.02,0.071 0.043,0.14 0.117,0.446 0.039,0.152 0.098,0.371 0.019,0.07 0.043,0.141 0.078,0.266 0.02,0.062 0.019,0.059 0.039,0.113 0.02,0.055 0.019,0.05 0.04,0.094 0.019,0.043 0.023,0.043 0.059,0.106 0.039,0.054 0.039,0.039 0.039,0.032 0.039,0.015 0.02,0.004 0.019,0 0.02,-0.004 0.016,-0.008 0.023,-0.007 0.019,-0.012 0.055,-0.055 0.039,-0.054 0.039,-0.063 0.059,-0.117 0.058,-0.141 0.02,-0.051 0.02,-0.054 0.039,-0.114 0.078,-0.25 0.019,-0.066 0.02,-0.07 0.039,-0.137 0.074,-0.289 0.039,-0.148 0.039,-0.145 0.078,-0.293 0.02,-0.074 0.058,-0.211 0.04,-0.133 0.039,-0.129 0.019,-0.062 0.059,-0.176 0.019,-0.055 0.02,-0.051 0.039,-0.093 0.019,-0.051 0.02,-0.043 0.023,-0.043 0.02,-0.039 0.019,-0.035 0.024,-0.035 0.019,-0.028 0.024,-0.023 0.019,-0.024 0.02,-0.015 0.023,-0.016 0.02,-0.012 0.023,-0.004 0.02,-0.003 0.019,0 0.024,0.003 0.019,0.008 0.02,0.012 0.023,0.016 0.043,0.043 0.039,0.054 0.024,0.035 0.019,0.036 0.02,0.039 0.023,0.043 0.02,0.046 0.023,0.051 0.02,0.051 0.043,0.113 0.019,0.059 0.024,0.062 0.039,0.133 0.086,0.285 0.168,0.629 0.019,0.078 0.024,0.082 0.039,0.157 0.086,0.308 0.019,0.074 0.024,0.075 0.043,0.136 0.082,0.254 0.019,0.055 0.039,0.102 0.02,0.046 0.019,0.043 0.02,0.039 0.039,0.075 0.019,0.035 0.039,0.055 0.02,0.023 0.039,0.039 0.023,0.016 0.016,0.007 0.024,0.008 0.039,0.008 0.039,-0.008 0.019,-0.008 0.02,-0.011 0.019,-0.016 0.039,-0.039 0.059,-0.082 0.019,-0.035 0.039,-0.074 0.04,-0.086 0.039,-0.098 0.019,-0.051 0.02,-0.054 0.058,-0.176 0.02,-0.063 0.039,-0.129 0.078,-0.277 0.02,-0.074 0.019,-0.07 0.039,-0.149 0.082,-0.301 0.156,-0.578 0.02,-0.078 0.023,-0.074 0.043,-0.145 0.024,-0.066 0.019,-0.066 0.047,-0.125 0.02,-0.055 0.023,-0.055 0.02,-0.055 0.023,-0.046 0.024,-0.043 0.019,-0.043 0.024,-0.039 0.019,-0.032 0.023,-0.031 0.024,-0.027 0.019,-0.024 0.024,-0.015 0.019,-0.016 0.024,-0.012 0.023,-0.007 0.043,0 0.024,0.003 0.019,0.012 0.024,0.012 0.019,0.019 0.024,0.02 0.023,0.027 0.02,0.028 0.023,0.035 0.02,0.035 0.023,0.039 0.023,0.047 0.02,0.047 0.023,0.051 0.043,0.109 0.024,0.059 0.019,0.062 0.043,0.133 0.09,0.293 0.024,0.078 0.019,0.078 0.043,0.16 0.09,0.332 0.02,0.082 0.023,0.086 0.043,0.164 0.023,0.082 0.02,0.082 0.047,0.157"
                                   style="fill:none;stroke:#000000;stroke-opacity:1;stroke-width:1.187361;stroke-linecap:square;stroke-linejoin:miter;stroke-miterlimit:3.25;stroke-dasharray:none"
                                   id="path3144" /></g><g
                                   transform="matrix(1,0,0,-1,0,196)"
                                   id="g3146"><path
                                   d="m 4.254,190.723 0,-171.719"
                                   style="fill:none;stroke:#000000;stroke-opacity:1;stroke-width:1.31929;stroke-linecap:square;stroke-linejoin:miter;stroke-miterlimit:3.25;stroke-dasharray:none"
                                   id="path3148" /></g><g
                                   transform="matrix(1,0,0,-1,0,196)"
                                   id="g3150"><path
                                   d="M 68.094,19.004 121.289,72.664 4.254,190.723"
                                   style="fill:none;stroke:#000000;stroke-opacity:1;stroke-width:1.31929;stroke-linecap:square;stroke-linejoin:miter;stroke-miterlimit:3.25;stroke-dasharray:none"
                                   id="path3152" /></g><g
                                   transform="matrix(1,0,0,-1,0,196)"
                                   id="g3154"><path
                                   d="M 4.254,190.723 C 39.723,104.863 46.812,47.625 25.535,19.004"
                                   style="fill:none;stroke:#000000;stroke-opacity:1;stroke-width:1.31929;stroke-linecap:square;stroke-linejoin:miter;stroke-miterlimit:3.25;stroke-dasharray:none"
                                   id="path3156" /></g></g></g></g></g></g></g></g></g></g></g></g></g></g></g></g></g></g></g></g></g><g
                 id="g3158"><g
                   transform="matrix(1,0,0,-1,0,196)"
                   id="g3160"><path
                     d="M 4.02,84.062 68.664,19.418"
                     style="fill:none;stroke:#000000;stroke-opacity:1;stroke-width:1;stroke-linecap:butt;stroke-linejoin:miter;stroke-miterlimit:4;stroke-dasharray:2,1;stroke-dashoffset:0"
                     id="path3162" /></g></g></g></g></g></g></g><g
       id="g3164"><g
         id="g3166"
         transform="matrix(1,0,0,-1,0,195.01404)"><path
           d="m 4.02,83.66 53.128,53.129"
           style="fill:none;stroke:#000000;stroke-opacity:1;stroke-width:1;stroke-linecap:butt;stroke-linejoin:miter;stroke-miterlimit:4;stroke-dasharray:2,1;stroke-dashoffset:0"
           id="path3168" /></g><path
         d="m 83.121,56.229 0,0.082 -0.004,0.019 0,0.02 -0.004,0.02 -0.004,0.015 -0.004,0.035 -0.003,0.032 -0.016,0.062 -0.012,0.027 -0.008,0.028 -0.035,0.07 -0.011,0.02 -0.016,0.019 -0.012,0.02 -0.043,0.043 -0.047,0.035 -0.047,0.023 -0.015,0.004 -0.016,0.008 -0.031,0.008 -0.043,0 c -0.215,0 -0.414,-0.219 -0.414,-0.407 0,-0.109 0.043,-0.156 0.133,-0.25 0.179,-0.171 0.289,-0.39 0.289,-0.695 0,-0.359 -0.516,-2.297 -1.508,-2.297 -0.434,0 -0.629,0.297 -0.629,0.735 0,0.476 0.231,1.093 0.492,1.797 0.059,0.148 0.102,0.261 0.102,0.425 0,0.379 -0.27,0.692 -0.695,0.692 -0.797,0 -1.122,-1.227 -1.122,-1.305 0,-0.086 0.086,-0.086 0.106,-0.086 0.086,0 0.09,0.02 0.133,0.156 0.246,0.856 0.609,1.051 0.855,1.051 0.07,0 0.215,0 0.215,-0.269 0,-0.215 -0.086,-0.446 -0.145,-0.594 -0.374,-0.985 -0.484,-1.375 -0.484,-1.742 0,-0.914 0.746,-1.047 1.137,-1.047 1.426,0 1.906,2.804 1.906,3.246 z"
         style="fill:#000000;fill-opacity:1;fill-rule:nonzero;stroke:none"
         id="path3170" /><path
         d="m 91.758,55.85 0.097,0 0.016,0.004 0.024,0 0.011,0.004 0.008,0 0.012,0.004 0.015,0.004 0.008,0.004 0.012,0.003 0.008,0.004 0.011,0.004 0.008,0.008 0.008,0.004 0.008,0.012 0.008,0.004 0.008,0.011 0.003,0.004 0,0.004 0.008,0.008 0,0.008 0.004,0.004 0,0.007 0.004,0.004 0,0.008 0.004,0.004 0,0.008 0.004,0.008 0,0.027 c 0,0.172 -0.164,0.172 -0.277,0.172 l -5.082,0 c -0.118,0 -0.278,0 -0.278,-0.172 0,-0.164 0.16,-0.164 0.285,-0.164 l 5.063,0 z"
         style="fill:#000000;fill-opacity:1;fill-rule:nonzero;stroke:none"
         id="path3172" /><path
         d="m 91.77,54.202 0.078,0 0.011,0.003 0.024,0 0.023,0.008 0.012,0 0.023,0.008 0.008,0.004 0.012,0 0.008,0.008 0.011,0.004 0.016,0.015 0.008,0.004 0.008,0.012 0.004,0 0.004,0.008 0.003,0.004 0,0.004 0.008,0.007 0,0.008 0.004,0.004 0,0.008 0.004,0.004 0,0.008 0.004,0.007 0,0.004 0.004,0.008 0,0.031 c 0,0.168 -0.164,0.168 -0.289,0.168 l -5.063,0 c -0.125,0 -0.285,0 -0.285,-0.168 0,-0.171 0.16,-0.171 0.278,-0.171 l 5.082,0 z"
         style="fill:#000000;fill-opacity:1;fill-rule:nonzero;stroke:none"
         id="path3174" /><path
         d="m 98.777,55.787 0,0.254 -0.004,0.129 -0.015,0.25 -0.008,0.129 -0.012,0.125 -0.039,0.25 -0.023,0.121 -0.028,0.125 -0.031,0.121 -0.078,0.243 -0.047,0.117 -0.027,0.062 -0.027,0.059 c -0.387,0.816 -1.086,0.949 -1.442,0.949 -0.508,0 -1.129,-0.219 -1.473,-1.008 -0.273,-0.586 -0.316,-1.25 -0.316,-1.926 0,-0.636 0.035,-1.398 0.383,-2.042 0.363,-0.684 0.984,-0.856 1.398,-0.856 l 0,0.188 c -0.328,0 -0.832,0.21 -0.984,1.023 -0.094,0.508 -0.094,1.289 -0.094,1.793 0,0.539 0,1.098 0.07,1.555 0.161,1.011 0.797,1.086 1.008,1.086 0.282,0 0.84,-0.153 1,-0.993 0.086,-0.472 0.086,-1.121 0.086,-1.648 0,-0.641 0,-1.215 -0.094,-1.758 -0.128,-0.805 -0.613,-1.058 -0.992,-1.058 l 0,-0.188 c 0.457,0 1.102,0.176 1.477,0.984 0.273,0.582 0.312,1.243 0.312,1.914 z"
         style="fill:#000000;fill-opacity:1;fill-rule:nonzero;stroke:none"
         id="path3176" /><path
         d="m 76.301,46.889 0,0.047 -0.004,0.019 0,0.043 -0.004,0.024 0,0.019 -0.012,0.059 -0.004,0.035 -0.011,0.031 -0.004,0.036 -0.012,0.031 -0.012,0.027 -0.011,0.031 -0.012,0.024 -0.016,0.023 -0.011,0.024 -0.047,0.058 -0.032,0.032 -0.015,0.011 -0.016,0.016 -0.019,0.012 -0.016,0.007 -0.02,0.008 -0.031,0.016 -0.019,0.004 -0.016,0.008 -0.019,0 -0.016,0.003 -0.031,0 c -0.235,0 -0.453,-0.242 -0.453,-0.445 0,-0.121 0.046,-0.176 0.144,-0.277 0.199,-0.188 0.316,-0.43 0.316,-0.766 0,-0.39 -0.566,-2.523 -1.656,-2.523 -0.472,0 -0.687,0.328 -0.687,0.808 0,0.524 0.25,1.203 0.543,1.977 0.062,0.16 0.109,0.285 0.109,0.465 0,0.418 -0.297,0.761 -0.766,0.761 -0.875,0 -1.23,-1.347 -1.23,-1.433 0,-0.094 0.094,-0.094 0.117,-0.094 0.09,0 0.098,0.024 0.145,0.172 0.269,0.938 0.672,1.152 0.941,1.152 0.074,0 0.234,0 0.234,-0.297 0,-0.234 -0.093,-0.484 -0.16,-0.652 -0.41,-1.082 -0.527,-1.512 -0.527,-1.91 0,-1.004 0.816,-1.152 1.246,-1.152 1.563,0 2.094,3.082 2.094,3.566 z"
         style="fill:#000000;fill-opacity:1;fill-rule:nonzero;stroke:none"
         id="path3178" /><path
         d="m 85.785,46.471 0.106,0 0.015,0.004 0.016,0 0.012,0.004 0.011,0 0.024,0.008 0.015,0.004 0.024,0.007 0.008,0.004 0.011,0.008 0.012,0.004 0.023,0.023 0.008,0.012 0.012,0.012 0,0.008 0.004,0.004 0.004,0.007 0,0.008 0.004,0.008 0,0.004 0.004,0.008 0,0.031 0.004,0.004 0,0.012 c 0,0.187 -0.18,0.187 -0.309,0.187 l -5.578,0 c -0.129,0 -0.305,0 -0.305,-0.187 0,-0.184 0.176,-0.184 0.317,-0.184 l 5.558,0 z"
         style="fill:#000000;fill-opacity:1;fill-rule:nonzero;stroke:none"
         id="path3180" /><path
         d="m 85.793,44.662 0.09,0 0.012,0.004 0.027,0 0.012,0.004 0.015,0.004 0.012,0 0.047,0.016 0.008,0.004 0.023,0.015 0.035,0.036 0.004,0.007 0.004,0.004 0,0.008 0.004,0.004 0.004,0.008 0,0.004 0.004,0.007 0,0.008 0.004,0.008 0,0.027 0.004,0.012 0,0.008 c 0,0.187 -0.18,0.187 -0.317,0.187 l -5.558,0 c -0.141,0 -0.317,0 -0.317,-0.187 0,-0.188 0.176,-0.188 0.305,-0.188 l 5.578,0 z"
         style="fill:#000000;fill-opacity:1;fill-rule:nonzero;stroke:none"
         id="path3182" /><path
         d="m 93.566,46.889 0,0.066 -0.004,0.024 0,0.019 -0.003,0.024 0,0.019 -0.004,0.02 -0.004,0.039 -0.008,0.035 -0.008,0.031 -0.008,0.036 -0.011,0.031 -0.012,0.027 -0.008,0.031 -0.016,0.024 -0.011,0.023 -0.016,0.024 -0.012,0.019 -0.031,0.039 -0.015,0.016 -0.02,0.016 -0.016,0.011 -0.015,0.016 -0.016,0.012 -0.019,0.007 -0.016,0.008 -0.02,0.008 -0.015,0.008 -0.016,0.004 -0.019,0.008 -0.016,0 -0.016,0.003 -0.035,0 c -0.23,0 -0.453,-0.242 -0.453,-0.445 0,-0.121 0.047,-0.176 0.149,-0.277 0.195,-0.188 0.316,-0.43 0.316,-0.766 0,-0.39 -0.57,-2.523 -1.656,-2.523 -0.477,0 -0.692,0.328 -0.692,0.808 0,0.524 0.254,1.203 0.543,1.977 0.063,0.16 0.11,0.285 0.11,0.465 0,0.418 -0.297,0.761 -0.766,0.761 -0.871,0 -1.23,-1.347 -1.23,-1.433 0,-0.094 0.093,-0.094 0.117,-0.094 0.094,0 0.101,0.024 0.148,0.172 0.27,0.938 0.668,1.152 0.942,1.152 0.07,0 0.23,0 0.23,-0.297 0,-0.234 -0.094,-0.484 -0.16,-0.652 -0.41,-1.082 -0.527,-1.512 -0.527,-1.91 0,-1.004 0.816,-1.152 1.246,-1.152 1.566,0 2.093,3.082 2.093,3.566 z"
         style="fill:#000000;fill-opacity:1;fill-rule:nonzero;stroke:none"
         id="path3184" /><path
         d="m 97.078,44.112 0,0.133 -0.008,0.25 -0.008,0.117 -0.011,0.117 -0.016,0.113 -0.015,0.106 -0.02,0.105 -0.023,0.102 -0.028,0.101 -0.031,0.094 -0.039,0.094 -0.039,0.09 -0.043,0.089 -0.047,0.09 -0.055,0.086 c -0.203,0.301 -0.605,0.559 -1.129,0.559 l 0,-0.184 c 0.356,0 0.692,-0.211 0.809,-0.59 0.105,-0.351 0.113,-0.82 0.113,-1.39 0,-0.481 0,-0.961 -0.086,-1.371 -0.129,-0.594 -0.57,-0.735 -0.836,-0.735 -0.296,0 -0.695,0.176 -0.824,0.707 -0.094,0.383 -0.094,0.918 -0.094,1.399 0,0.476 0,0.972 0.098,1.328 0.137,0.515 0.555,0.652 0.82,0.652 l 0,0.184 c -1.507,0 -1.507,-1.778 -1.507,-2.246 0,-0.469 0,-2.207 1.507,-2.207 1.512,0 1.512,1.738 1.512,2.207 z"
         style="fill:#000000;fill-opacity:1;fill-rule:nonzero;stroke:none"
         id="path3186" /><path
         d="m 104.211,168.096 0.008,-0.035 0.011,-0.035 0.012,-0.031 0.016,-0.032 0.012,-0.031 0.031,-0.055 0.019,-0.031 0.02,-0.027 0.019,-0.024 0.02,-0.027 0.023,-0.023 0.02,-0.024 0.027,-0.019 0.024,-0.02 0.027,-0.023 0.023,-0.02 0.082,-0.047 0.032,-0.015 0.093,-0.036 0.028,-0.011 0.035,-0.008 0.031,-0.008 0.106,-0.012 0.035,0 0.031,-0.004 c 0.313,0 0.516,0.204 0.656,0.489 0.153,0.316 0.266,0.859 0.266,0.875 0,0.09 -0.078,0.09 -0.106,0.09 -0.089,0 -0.097,-0.036 -0.124,-0.161 -0.122,-0.496 -0.293,-1.097 -0.665,-1.097 -0.187,0 -0.273,0.117 -0.273,0.406 0,0.195 0.105,0.613 0.176,0.922 l 0.25,0.957 c 0.027,0.137 0.117,0.473 0.152,0.605 0.043,0.203 0.133,0.539 0.133,0.59 0,0.16 -0.125,0.238 -0.258,0.238 -0.047,0 -0.277,-0.007 -0.348,-0.308 -0.167,-0.649 -0.554,-2.195 -0.664,-2.668 -0.007,-0.035 -0.363,-0.742 -1.007,-0.742 -0.465,0 -0.551,0.402 -0.551,0.726 0,0.496 0.25,1.196 0.48,1.809 0.106,0.266 0.149,0.387 0.149,0.558 0,0.395 -0.282,0.723 -0.727,0.723 -0.844,0 -1.168,-1.281 -1.168,-1.363 0,-0.09 0.086,-0.09 0.106,-0.09 0.089,0 0.097,0.02 0.14,0.16 0.223,0.77 0.559,1.098 0.895,1.098 0.078,0 0.222,-0.008 0.222,-0.289 0,-0.215 -0.097,-0.473 -0.148,-0.606 -0.332,-0.879 -0.516,-1.425 -0.516,-1.855 0,-0.844 0.61,-1.067 1.09,-1.067 0.586,0 0.903,0.399 1.055,0.598 z"
         style="fill:#000000;fill-opacity:1;fill-rule:nonzero;stroke:none"
         id="path3188" /><path
         d="m 114.727,170.495 0.101,0 0.012,0.003 0.012,0 0.015,0.004 0.012,0 0.023,0.008 0.012,0 0.012,0.004 0.008,0.004 0.011,0.008 0.012,0.004 0.008,0.007 0.008,0.004 0.011,0.008 0.004,0.008 0.008,0.012 0.012,0.011 0,0.008 0.004,0.004 0.004,0.008 0,0.004 0.004,0.008 0,0.004 0.003,0.007 0,0.024 0.004,0.004 0,0.019 c 0,0.176 -0.172,0.176 -0.293,0.176 l -5.304,0 c -0.125,0 -0.293,0 -0.293,-0.176 0,-0.175 0.168,-0.175 0.301,-0.175 l 5.289,0 z"
         style="fill:#000000;fill-opacity:1;fill-rule:nonzero;stroke:none"
         id="path3190" /><path
         d="m 114.734,168.772 0.024,0 0.023,0.004 0.051,0 0.012,0.004 0.023,0 0.024,0.007 0.011,0 0.036,0.012 0.011,0.008 0.008,0.004 0.016,0.016 0.011,0.003 0.004,0.012 0.016,0.016 0.004,0.008 0,0.004 0.004,0.003 0.004,0.008 0,0.008 0.004,0.004 0,0.008 0.003,0.008 0,0.019 0.004,0.008 0,0.016 c 0,0.175 -0.172,0.175 -0.3,0.175 l -5.289,0 c -0.133,0 -0.301,0 -0.301,-0.175 0,-0.18 0.168,-0.18 0.293,-0.18 l 5.304,0 z"
         style="fill:#000000;fill-opacity:1;fill-rule:nonzero;stroke:none"
         id="path3192" /><path
         d="m 121.086,168.096 0.008,-0.035 0.011,-0.035 0.024,-0.063 0.016,-0.031 0.031,-0.055 0.019,-0.031 0.016,-0.027 0.023,-0.024 0.02,-0.027 0.023,-0.023 0.02,-0.024 0.027,-0.019 0.02,-0.02 0.027,-0.023 0.027,-0.02 0.082,-0.047 0.032,-0.015 0.027,-0.012 0.094,-0.035 0.031,-0.008 0.035,-0.008 0.035,-0.004 0.032,-0.004 0.035,-0.004 0.035,0 0.035,-0.004 c 0.309,0 0.516,0.204 0.656,0.489 0.149,0.316 0.262,0.859 0.262,0.875 0,0.09 -0.074,0.09 -0.101,0.09 -0.09,0 -0.098,-0.036 -0.126,-0.161 -0.124,-0.496 -0.292,-1.097 -0.667,-1.097 -0.184,0 -0.27,0.117 -0.27,0.406 0,0.195 0.105,0.613 0.176,0.922 l 0.25,0.957 c 0.023,0.137 0.113,0.473 0.148,0.605 0.047,0.203 0.133,0.539 0.133,0.59 0,0.16 -0.125,0.238 -0.258,0.238 -0.043,0 -0.273,-0.007 -0.344,-0.308 -0.171,-0.649 -0.558,-2.195 -0.664,-2.668 -0.011,-0.035 -0.363,-0.742 -1.011,-0.742 -0.461,0 -0.551,0.402 -0.551,0.726 0,0.496 0.254,1.196 0.48,1.809 0.11,0.266 0.153,0.387 0.153,0.558 0,0.395 -0.285,0.723 -0.731,0.723 -0.84,0 -1.168,-1.281 -1.168,-1.363 0,-0.09 0.09,-0.09 0.11,-0.09 0.086,0 0.097,0.02 0.14,0.16 0.223,0.77 0.559,1.098 0.895,1.098 0.078,0 0.222,-0.008 0.222,-0.289 0,-0.215 -0.101,-0.473 -0.152,-0.606 -0.328,-0.879 -0.515,-1.425 -0.515,-1.855 0,-0.844 0.613,-1.067 1.093,-1.067 0.582,0 0.903,0.399 1.055,0.598 z"
         style="fill:#000000;fill-opacity:1;fill-rule:nonzero;stroke:none"
         id="path3194" /><path
         d="m 126.258,168.248 0,0.125 -0.004,0.122 -0.004,0.117 -0.008,0.117 -0.012,0.109 -0.011,0.106 -0.016,0.101 -0.019,0.098 -0.024,0.102 -0.027,0.093 -0.063,0.18 -0.039,0.086 -0.043,0.086 -0.047,0.082 -0.023,0.043 -0.027,0.039 c -0.192,0.285 -0.575,0.535 -1.071,0.535 l 0,-0.176 c 0.336,0 0.657,-0.203 0.77,-0.562 0.098,-0.336 0.105,-0.781 0.105,-1.321 0,-0.457 0,-0.918 -0.082,-1.304 -0.125,-0.567 -0.543,-0.703 -0.793,-0.703 -0.285,0 -0.664,0.168 -0.785,0.675 -0.09,0.364 -0.09,0.875 -0.09,1.332 0,0.454 0,0.926 0.094,1.262 0.129,0.488 0.527,0.621 0.781,0.621 l 0,0.176 c -1.437,0 -1.437,-1.691 -1.437,-2.141 0,-0.445 0,-2.097 1.437,-2.097 1.438,0 1.438,1.652 1.438,2.097 z"
         style="fill:#000000;fill-opacity:1;fill-rule:nonzero;stroke:none"
         id="path3196" /><path
         d="m 47.777,131.28 0.02,0.062 0.027,0.067 0.024,0.058 0.027,0.067 0.031,0.054 0.028,0.059 0.031,0.055 0.094,0.152 0.07,0.094 0.07,0.086 0.074,0.078 0.075,0.074 0.078,0.066 0.078,0.063 0.078,0.055 0.082,0.05 0.082,0.047 0.156,0.078 0.078,0.032 0.075,0.027 0.078,0.027 0.14,0.039 0.071,0.012 0.062,0.016 0.059,0.007 0.055,0.008 0.054,0.004 0.047,0.008 0.043,0 0.035,0.004 0.028,0.004 0.043,0 c 1.886,0 2.027,-2.196 2.027,-3.184 0,-0.769 -0.067,-0.98 -0.149,-1.23 -0.277,-0.914 -0.656,-2.367 -0.656,-2.692 0,-0.14 0.063,-0.23 0.168,-0.23 0.16,0 0.262,0.281 0.399,0.754 0.285,1.054 0.414,1.765 0.464,2.156 0.024,0.164 0.047,0.324 0.098,0.492 0.402,1.235 1.203,3.102 1.707,4.094 0.086,0.148 0.234,0.426 0.234,0.477 0,0.125 -0.121,0.125 -0.148,0.125 -0.035,0 -0.113,0 -0.148,-0.09 -0.653,-1.188 -1.153,-2.442 -1.657,-3.707 -0.011,0.386 -0.023,1.339 -0.515,2.558 -0.297,0.762 -0.801,1.371 -1.664,1.371 -1.567,0 -2.446,-1.898 -2.446,-2.285 0,-0.129 0.114,-0.129 0.239,-0.129 l 0.054,0.067 z"
         style="fill:#000000;fill-opacity:1;fill-rule:nonzero;stroke:none"
         id="path3198" /><path
         d="m 14.777,143.28 0.02,0.062 0.027,0.067 0.024,0.058 0.027,0.067 0.031,0.054 0.028,0.059 0.031,0.055 0.094,0.152 0.07,0.094 0.07,0.086 0.074,0.078 0.075,0.074 0.078,0.066 0.078,0.063 0.078,0.055 0.082,0.05 0.082,0.047 0.156,0.078 0.078,0.032 0.075,0.027 0.078,0.027 0.14,0.039 0.071,0.012 0.062,0.016 0.059,0.007 0.055,0.008 0.054,0.004 0.047,0.008 0.043,0 0.035,0.004 0.028,0.004 0.043,0 c 1.886,0 2.027,-2.196 2.027,-3.184 0,-0.769 -0.067,-0.98 -0.149,-1.23 -0.277,-0.914 -0.656,-2.367 -0.656,-2.692 0,-0.14 0.063,-0.23 0.168,-0.23 0.16,0 0.262,0.281 0.399,0.754 0.285,1.054 0.414,1.765 0.464,2.156 0.024,0.164 0.047,0.324 0.098,0.492 0.402,1.235 1.203,3.102 1.707,4.094 0.086,0.148 0.234,0.426 0.234,0.477 0,0.125 -0.121,0.125 -0.148,0.125 -0.035,0 -0.113,0 -0.148,-0.09 -0.653,-1.188 -1.153,-2.442 -1.657,-3.707 -0.011,0.386 -0.023,1.339 -0.515,2.558 -0.297,0.762 -0.801,1.371 -1.664,1.371 -1.567,0 -2.446,-1.898 -2.446,-2.285 0,-0.129 0.114,-0.129 0.239,-0.129 l 0.054,0.067 z"
         style="fill:#000000;fill-opacity:1;fill-rule:nonzero;stroke:none"
         id="path3200" /><path
         d="m 28.117,143.498 0.016,0.055 0.004,0.027 0.008,0.028 0.015,0.047 0.008,0.019 0.012,0.02 0.008,0.023 0.007,0.016 0.012,0.019 0.012,0.012 0.011,0.016 0.016,0.015 0.031,0.024 0.02,0.011 0.019,0.008 0.047,0.016 0.028,0.008 0.015,0.004 0.012,0 0.016,0.004 0.019,0.003 0.016,0.004 0.035,0 0.019,0.004 0.016,0.004 0.043,0 0.02,0.004 0.046,0 0.024,0.004 0.191,0 c 0.192,0 0.297,0 0.297,0.191 0,0.036 -0.027,0.125 -0.14,0.125 -0.254,0 -0.891,-0.035 -1.145,-0.035 -0.152,0 -0.457,0 -0.605,0.008 -0.176,0.012 -0.387,0.027 -0.551,0.027 -0.055,0 -0.184,0 -0.184,-0.195 0,-0.121 0.106,-0.121 0.277,-0.121 0.008,0 0.176,0 0.336,-0.02 0.184,-0.015 0.196,-0.035 0.196,-0.121 0,-0.007 0,-0.058 -0.035,-0.191 l -0.512,-2.07 -2.934,0 0.504,2.035 c 0.078,0.297 0.098,0.367 0.77,0.367 0.152,0 0.265,0 0.265,0.191 0,0.036 -0.027,0.125 -0.14,0.125 -0.254,0 -0.895,-0.035 -1.149,-0.035 -0.148,0 -0.457,0 -0.605,0.008 -0.172,0.012 -0.383,0.027 -0.551,0.027 -0.051,0 -0.184,0 -0.184,-0.195 0,-0.121 0.106,-0.121 0.282,-0.121 0.007,0 0.175,0 0.328,-0.02 0.187,-0.015 0.207,-0.035 0.207,-0.121 0,-0.015 0,-0.058 -0.035,-0.191 l -1.164,-4.652 c -0.075,-0.301 -0.09,-0.372 -0.774,-0.372 -0.148,0 -0.262,0 -0.262,-0.183 0,-0.09 0.059,-0.133 0.141,-0.133 0.25,0 0.883,0.035 1.133,0.035 0.152,0 0.457,0 0.605,-0.004 0.18,-0.015 0.399,-0.031 0.567,-0.031 0.043,0 0.183,0 0.183,0.188 0,0.128 -0.086,0.128 -0.293,0.128 -0.136,0 -0.171,0 -0.328,0.02 -0.199,0.023 -0.199,0.043 -0.199,0.133 0,0.004 0,0.062 0.035,0.187 l 0.582,2.301 2.938,0 -0.571,-2.269 c -0.07,-0.301 -0.089,-0.372 -0.773,-0.372 -0.148,0 -0.262,0 -0.262,-0.183 0,-0.09 0.059,-0.133 0.141,-0.133 0.254,0 0.883,0.035 1.137,0.035 0.148,0 0.457,0 0.605,-0.004 0.18,-0.015 0.395,-0.031 0.563,-0.031 0.043,0 0.183,0 0.183,0.188 0,0.128 -0.09,0.128 -0.289,0.128 -0.144,0 -0.18,0 -0.332,0.02 -0.195,0.023 -0.195,0.043 -0.195,0.133 0,0.051 0.027,0.14 0.035,0.187 l 1.156,4.621 z"
         style="fill:#000000;fill-opacity:1;fill-rule:nonzero;stroke:none"
         id="path3202" /><path
         d="m 42.25739,159.98822 -0.004,-0.011 -0.003,-0.02 -0.004,-0.016 0,-0.015 -0.012,-0.035 -0.008,-0.036 -0.008,-0.031 -0.023,-0.105 -0.012,-0.047 0,-0.016 -0.008,-0.011 0,-0.016 -0.004,-0.016 0,-0.011 -0.004,-0.012 0,-0.012 -0.003,-0.012 0,-0.007 -0.004,-0.008 0,-0.02 c 0,-0.191 0.152,-0.289 0.308,-0.289 0.129,0 0.321,0.082 0.395,0.297 0.011,0.023 0.14,0.523 0.203,0.793 l 0.238,0.961 c 0.063,0.234 0.125,0.469 0.18,0.719 0.043,0.179 0.129,0.488 0.14,0.531 0.161,0.332 0.727,1.305 1.739,1.305 0.48,0 0.582,-0.395 0.582,-0.746 0,-0.668 -0.528,-2.032 -0.699,-2.493 -0.094,-0.242 -0.106,-0.375 -0.106,-0.492 0,-0.5 0.375,-0.875 0.875,-0.875 1.008,0 1.402,1.559 1.402,1.645 0,0.105 -0.097,0.105 -0.132,0.105 -0.102,0 -0.102,-0.031 -0.157,-0.191 -0.214,-0.727 -0.566,-1.324 -1.089,-1.324 -0.184,0 -0.258,0.109 -0.258,0.351 0,0.27 0.097,0.527 0.191,0.762 0.203,0.566 0.656,1.738 0.656,2.347 0,0.719 -0.461,1.141 -1.23,1.141 -0.961,0 -1.484,-0.68 -1.664,-0.926 -0.055,0.598 -0.496,0.926 -0.988,0.926 -0.489,0 -0.692,-0.414 -0.801,-0.601 -0.172,-0.368 -0.321,-0.997 -0.321,-1.043 0,-0.106 0.106,-0.106 0.129,-0.106 0.11,0 0.118,0.016 0.18,0.25 0.184,0.754 0.395,1.27 0.781,1.27 0.215,0 0.332,-0.141 0.332,-0.493 0,-0.222 -0.031,-0.343 -0.172,-0.898 l -0.617,-2.469 z"
         style="fill:#000000;fill-opacity:1;fill-rule:nonzero;stroke:none"
         id="path3204"
         inkscape:connector-curvature="0" /><path
         d="m 61.07439,160.39822 -0.004,-0.003 -0.004,-0.008 -0.012,-0.012 -0.004,-0.008 -0.004,-0.004 -0.004,-0.008 -0.003,-0.003 -0.004,-0.008 0,-0.004 -0.004,-0.004 0,-0.004 -0.008,-0.008 0,-0.012 -0.004,-0.003 0,-0.012 c 0,-0.055 0.063,-0.141 0.125,-0.141 0.051,0 0.086,0.035 0.379,0.324 0.082,0.075 0.289,0.27 0.375,0.356 0.102,-0.824 0.406,-1.594 1.168,-1.594 0.418,0 0.781,0.238 1,0.395 0.148,0.105 0.641,0.511 0.641,0.613 0,0.035 -0.036,0.129 -0.129,0.129 -0.032,0 -0.039,-0.012 -0.133,-0.094 -0.668,-0.656 -1.055,-0.816 -1.36,-0.816 -0.468,0 -0.636,0.543 -0.636,1.355 0,0.067 0.019,0.543 0.054,0.598 0.02,0.031 0.02,0.051 0.231,0.262 0.844,0.843 2.324,2.605 2.324,4.222 0,0.18 0,0.817 -0.613,0.817 l 0.008,-0.231 c 0.359,0 0.359,-0.375 0.359,-0.539 0,-1.746 -1.754,-3.574 -2.258,-4.094 0.02,0.114 0.469,2.43 1.063,3.653 0.285,0.562 0.504,0.98 0.836,0.98 l -0.008,0.231 c -0.867,0 -1.641,-1.719 -1.746,-1.965 -0.5,-1.133 -0.821,-2.356 -0.821,-3.598 l -0.804,-0.762 z"
         style="fill:#000000;fill-opacity:1;fill-rule:nonzero;stroke:none"
         id="path3206"
         inkscape:connector-curvature="0" /><path
         d="m 79.68,168.33 c 8.918,8.918 4.48,0.875 18.593,1.297"
         style="fill:none;stroke:#000000;stroke-opacity:1;stroke-width:0.4;stroke-linecap:butt;stroke-linejoin:miter;stroke-miterlimit:4;stroke-dasharray:none"
         id="path3208" /><g
         id="g3210"
         transform="matrix(1,0.999999,0.999999,-1,0,195.01404)"><path
           d="m 27.627,53.182 0.566,-0.567 -1.98,0.567 1.98,0.566 -0.566,-0.566 z"
           style="fill:#000000;fill-opacity:1;fill-rule:evenodd;stroke:#000000;stroke-opacity:1;stroke-width:0.141421;stroke-linecap:butt;stroke-linejoin:miter;stroke-miterlimit:4;stroke-dasharray:none"
           id="path3212" /></g><path
         d="M 106.582,107.561 38.043,176.1"
         style="fill:none;stroke:#000000;stroke-opacity:1;stroke-width:0.8;stroke-linecap:butt;stroke-linejoin:miter;stroke-miterlimit:4;stroke-dasharray:0.8,0.8;stroke-dashoffset:0"
         id="path3214" /><path
         d="m 103.125,113.616 c 14.418,14.418 7.695,0 24.648,0"
         style="fill:none;stroke:#000000;stroke-opacity:1;stroke-width:0.4;stroke-linecap:butt;stroke-linejoin:miter;stroke-miterlimit:4;stroke-dasharray:none"
         id="path3216" /><g
         id="g3218"
         transform="matrix(1,1,1,-1,0,195.01404)"><path
           d="m 11.992,92.262 0.567,-0.567 -1.981,0.567 1.981,0.566 -0.567,-0.566 z"
           style="fill:#000000;fill-opacity:1;fill-rule:evenodd;stroke:#000000;stroke-opacity:1;stroke-width:0.141421;stroke-linecap:butt;stroke-linejoin:miter;stroke-miterlimit:4;stroke-dasharray:none"
           id="path3220" /></g><path
         d="m 130.715,120.178 -1.199,-0.094 0,-0.269 c 0.558,0 0.636,-0.051 0.636,-0.469 l 0,-2.312 c 0,-0.387 -0.097,-0.387 -0.672,-0.387 l 0,-0.266 c 0.274,0.008 0.739,0.028 0.946,0.028 0.301,0 0.601,-0.02 0.894,-0.028 l 0,0.266 c -0.566,0 -0.605,0.043 -0.605,0.375 l 0,3.156 z"
         style="fill:#000000;fill-opacity:1;fill-rule:nonzero;stroke:none"
         id="path3222" /><path
         d="m 130.754,121.674 -0.004,0.024 0,0.027 -0.012,0.07 -0.008,0.02 -0.007,0.023 -0.008,0.02 -0.012,0.023 -0.008,0.02 -0.011,0.019 -0.012,0.016 -0.016,0.019 -0.011,0.016 -0.016,0.02 -0.016,0.011 -0.031,0.032 -0.02,0.011 -0.015,0.012 -0.039,0.023 -0.059,0.024 -0.023,0.004 -0.02,0.008 -0.019,0.004 -0.024,0.003 -0.023,0 -0.024,0.004 -0.019,0 c -0.266,0 -0.457,-0.23 -0.457,-0.453 0,-0.234 0.191,-0.457 0.457,-0.457 0.238,0 0.457,0.18 0.457,0.457 z"
         style="fill:#000000;fill-opacity:1;fill-rule:nonzero;stroke:none"
         id="path3224" /><path
         d="m 132.523,119.338 0,-2.304 c 0,-0.387 -0.097,-0.387 -0.671,-0.387 l 0,-0.266 c 0.3,0.008 0.738,0.028 0.968,0.028 0.223,0 0.672,-0.02 0.961,-0.028 l 0,0.266 c -0.57,0 -0.668,0 -0.668,0.387 l 0,1.582 c 0,0.894 0.61,1.371 1.16,1.371 0.543,0 0.637,-0.461 0.637,-0.953 l 0,-2 c 0,-0.387 -0.094,-0.387 -0.672,-0.387 l 0,-0.266 c 0.301,0.008 0.742,0.028 0.973,0.028 0.223,0 0.668,-0.02 0.961,-0.028 l 0,0.266 c -0.445,0 -0.66,0 -0.668,0.258 l 0,1.64 c 0,0.739 0,1.008 -0.266,1.313 -0.121,0.148 -0.406,0.32 -0.902,0.32 -0.629,0 -1.031,-0.371 -1.274,-0.902 l 0,0.902 -1.21,-0.094 0,-0.269 c 0.601,0 0.671,-0.059 0.671,-0.477 z"
         style="fill:#000000;fill-opacity:1;fill-rule:nonzero;stroke:none"
         id="path3226" /><path
         d="m 137.27,117.522 0,0.062 0.003,0.012 0,0.024 0.004,0.011 0.004,0.016 0,0.012 0.004,0.015 0.004,0.012 0.008,0.031 0.008,0.016 0.004,0.015 0.007,0.016 0.004,0.016 0.016,0.031 0.012,0.019 0.015,0.032 0.035,0.047 0.016,0.019 c 0.336,-0.242 0.688,-0.269 0.852,-0.269 l 0,0.199 c -0.75,0 -0.75,0.859 -0.75,1.058 0,0.231 0.011,0.508 0.136,0.719 0.071,0.106 0.27,0.344 0.614,0.344 0.746,0 0.746,-0.859 0.746,-1.055 0,-0.23 -0.008,-0.508 -0.137,-0.722 -0.066,-0.102 -0.27,-0.344 -0.609,-0.344 l 0,-0.199 c 0.796,0 1.39,0.593 1.39,1.257 0,0.317 -0.14,0.637 -0.351,0.832 0.308,0.293 0.617,0.336 0.773,0.336 0.016,0 0.059,0 0.086,-0.011 -0.098,-0.032 -0.137,-0.129 -0.137,-0.231 0,-0.144 0.11,-0.246 0.246,-0.246 0.086,0 0.25,0.059 0.25,0.254 0,0.148 -0.101,0.422 -0.437,0.422 -0.172,0 -0.551,-0.051 -0.91,-0.402 -0.36,0.281 -0.723,0.308 -0.91,0.308 -0.801,0 -1.395,-0.594 -1.395,-1.254 0,-0.379 0.188,-0.707 0.402,-0.887 -0.109,-0.128 -0.265,-0.41 -0.265,-0.71 0,-0.266 0.113,-0.594 0.383,-0.766 -0.52,-0.145 -0.793,-0.516 -0.793,-0.859 0,-0.618 0.851,-1.094 1.898,-1.094 l 0.008,0.199 c -0.867,0 -1.461,0.438 -1.461,0.895 0,0.394 0.328,0.714 0.707,0.738 l 0.508,0 c 0.738,0 1.699,0 1.699,-0.738 0,-0.465 -0.609,-0.895 -1.453,-0.895 l -0.008,-0.199 c 1.016,0 1.906,0.441 1.906,1.109 0,0.301 -0.117,0.742 -0.554,0.981 -0.457,0.238 -0.953,0.238 -1.481,0.238 -0.215,0 -0.586,0 -0.644,0.012 -0.274,0.031 -0.453,0.3 -0.453,0.574 z"
         style="fill:#000000;fill-opacity:1;fill-rule:nonzero;stroke:none"
         id="path3228" /><path
         d="m 144.707,118.217 0,0.102 -0.008,0.101 -0.011,0.102 -0.016,0.098 -0.024,0.097 -0.054,0.188 -0.035,0.093 -0.039,0.086 -0.043,0.086 -0.047,0.086 -0.047,0.082 -0.055,0.078 -0.055,0.075 -0.062,0.074 -0.063,0.07 -0.066,0.067 -0.066,0.062 -0.075,0.063 -0.074,0.054 -0.078,0.055 -0.078,0.047 -0.082,0.047 -0.086,0.039 -0.086,0.035 -0.086,0.031 -0.09,0.027 -0.093,0.024 -0.09,0.019 -0.098,0.012 -0.094,0.008 -0.097,0.004 -0.008,-0.188 c 0.379,0 0.746,-0.191 0.969,-0.558 0.226,-0.371 0.226,-0.867 0.226,-1.196 0,-0.308 0,-0.773 -0.187,-1.148 -0.192,-0.391 -0.567,-0.637 -1,-0.637 -0.371,0 -0.747,0.18 -0.977,0.575 -0.219,0.378 -0.219,0.902 -0.219,1.21 0,0.336 0,0.797 0.207,1.18 0.235,0.391 0.637,0.574 0.981,0.574 l 0.008,0.188 c -1.071,0 -1.907,-0.938 -1.907,-2.012 0,-1.109 0.895,-1.933 1.899,-1.933 1.039,0 1.906,0.843 1.906,1.933 z"
         style="fill:#000000;fill-opacity:1;fill-rule:nonzero;stroke:none"
         id="path3230" /><path
         d="m 146.484,120.178 -1.199,-0.094 0,-0.269 c 0.559,0 0.633,-0.051 0.633,-0.469 l 0,-2.312 c 0,-0.387 -0.094,-0.387 -0.668,-0.387 l 0,-0.266 c 0.273,0.008 0.738,0.028 0.945,0.028 0.301,0 0.602,-0.02 0.895,-0.028 l 0,0.266 c -0.567,0 -0.606,0.043 -0.606,0.375 l 0,3.156 z"
         style="fill:#000000;fill-opacity:1;fill-rule:nonzero;stroke:none"
         id="path3232" /><path
         d="m 146.523,121.674 -0.003,0.024 0,0.027 -0.012,0.07 -0.008,0.02 -0.008,0.023 -0.008,0.02 -0.011,0.023 -0.008,0.02 -0.012,0.019 -0.012,0.016 -0.015,0.019 -0.012,0.016 -0.016,0.02 -0.015,0.011 -0.031,0.032 -0.02,0.011 -0.016,0.012 -0.039,0.023 -0.039,0.016 -0.023,0.008 -0.02,0.004 -0.019,0.008 -0.024,0.004 -0.019,0.003 -0.024,0 -0.023,0.004 -0.02,0 c -0.265,0 -0.457,-0.23 -0.457,-0.453 0,-0.234 0.192,-0.457 0.457,-0.457 0.239,0 0.457,0.18 0.457,0.457 z"
         style="fill:#000000;fill-opacity:1;fill-rule:nonzero;stroke:none"
         id="path3234" /><path
         d="m 148.293,119.338 0,-2.304 c 0,-0.387 -0.098,-0.387 -0.672,-0.387 l 0,-0.266 c 0.301,0.008 0.738,0.028 0.969,0.028 0.222,0 0.672,-0.02 0.961,-0.028 l 0,0.266 c -0.571,0 -0.668,0 -0.668,0.387 l 0,1.582 c 0,0.894 0.609,1.371 1.16,1.371 0.543,0 0.637,-0.461 0.637,-0.953 l 0,-2 c 0,-0.387 -0.094,-0.387 -0.672,-0.387 l 0,-0.266 c 0.301,0.008 0.742,0.028 0.972,0.028 0.223,0 0.668,-0.02 0.961,-0.028 l 0,0.266 c -0.445,0 -0.66,0 -0.668,0.258 l 0,1.64 c 0,0.739 0,1.008 -0.265,1.313 -0.121,0.148 -0.406,0.32 -0.903,0.32 -0.628,0 -1.031,-0.371 -1.273,-0.902 l 0,0.902 -1.211,-0.094 0,-0.269 c 0.598,0 0.672,-0.059 0.672,-0.477 z"
         style="fill:#000000;fill-opacity:1;fill-rule:nonzero;stroke:none"
         id="path3236" /><path
         d="m 153.039,117.522 0,0.062 0.004,0.012 0,0.024 0.004,0.011 0.004,0.016 0,0.012 0.004,0.015 0.004,0.012 0.011,0.047 0.016,0.031 0.004,0.016 0.015,0.031 0.012,0.019 0.016,0.032 0.035,0.047 0.016,0.019 c 0.336,-0.242 0.683,-0.269 0.851,-0.269 l 0,0.199 c -0.75,0 -0.75,0.859 -0.75,1.058 0,0.231 0.012,0.508 0.137,0.719 0.07,0.106 0.269,0.344 0.613,0.344 0.746,0 0.746,-0.859 0.746,-1.055 0,-0.23 -0.008,-0.508 -0.136,-0.722 -0.067,-0.102 -0.27,-0.344 -0.61,-0.344 l 0,-0.199 c 0.797,0 1.391,0.593 1.391,1.257 0,0.317 -0.141,0.637 -0.352,0.832 0.309,0.293 0.617,0.336 0.774,0.336 0.015,0 0.058,0 0.086,-0.011 -0.098,-0.032 -0.137,-0.129 -0.137,-0.231 0,-0.144 0.109,-0.246 0.246,-0.246 0.086,0 0.25,0.059 0.25,0.254 0,0.148 -0.102,0.422 -0.438,0.422 -0.171,0 -0.55,-0.051 -0.91,-0.402 -0.359,0.281 -0.722,0.308 -0.91,0.308 -0.801,0 -1.394,-0.594 -1.394,-1.254 0,-0.379 0.187,-0.707 0.402,-0.887 -0.109,-0.128 -0.266,-0.41 -0.266,-0.71 0,-0.266 0.114,-0.594 0.383,-0.766 -0.519,-0.145 -0.797,-0.516 -0.797,-0.859 0,-0.618 0.856,-1.094 1.903,-1.094 l 0.007,0.199 c -0.867,0 -1.461,0.438 -1.461,0.895 0,0.394 0.329,0.714 0.708,0.738 l 0.507,0 c 0.739,0 1.7,0 1.7,-0.738 0,-0.465 -0.61,-0.895 -1.454,-0.895 l -0.007,-0.199 c 1.015,0 1.906,0.441 1.906,1.109 0,0.301 -0.121,0.742 -0.555,0.981 -0.457,0.238 -0.953,0.238 -1.48,0.238 -0.215,0 -0.586,0 -0.645,0.012 -0.273,0.031 -0.453,0.3 -0.453,0.574 z"
         style="fill:#000000;fill-opacity:1;fill-rule:nonzero;stroke:none"
         id="path3238" /><path
         d="m 160.211,119.338 0,-2.304 c 0,-0.387 -0.094,-0.387 -0.668,-0.387 l 0,-0.266 c 0.301,0.008 0.738,0.028 0.969,0.028 0.222,0 0.672,-0.02 0.961,-0.028 l 0,0.266 c -0.575,0 -0.668,0 -0.668,0.387 l 0,1.582 c 0,0.894 0.609,1.371 1.16,1.371 0.543,0 0.637,-0.461 0.637,-0.953 l 0,-2 c 0,-0.387 -0.094,-0.387 -0.672,-0.387 l 0,-0.266 c 0.3,0.008 0.742,0.028 0.972,0.028 0.223,0 0.668,-0.02 0.961,-0.028 l 0,0.266 c -0.445,0 -0.66,0 -0.672,0.258 l 0,1.64 c 0,0.739 0,1.008 -0.265,1.313 -0.117,0.148 -0.403,0.32 -0.903,0.32 -0.625,0 -1.031,-0.371 -1.269,-0.902 l 0,0.902 -1.211,-0.094 0,-0.269 c 0.598,0 0.668,-0.059 0.668,-0.477 z"
         style="fill:#000000;fill-opacity:1;fill-rule:nonzero;stroke:none"
         id="path3240" /><path
         d="m 167.156,117.061 0,-0.777 1.242,0.097 0,0.266 c -0.605,0 -0.671,0.058 -0.671,0.48 l 0,3.051 -1.266,-0.094 0,-0.269 c 0.605,0 0.672,-0.059 0.672,-0.477 l 0,-1.535 c 0,-0.742 -0.414,-1.328 -1.039,-1.328 -0.719,0 -0.758,0.402 -0.758,0.852 l 0,2.851 -1.262,-0.094 0,-0.269 c 0.668,0 0.668,-0.024 0.668,-0.789 l 0,-1.289 c 0,-0.672 0,-1.453 1.309,-1.453 0.48,0 0.855,0.242 1.105,0.777 z"
         style="fill:#000000;fill-opacity:1;fill-rule:nonzero;stroke:none"
         id="path3242" /><path
         d="m 170.098,122.346 -1.235,-0.098 0,-0.265 c 0.598,0 0.668,-0.059 0.668,-0.481 l 0,-4.468 c 0,-0.387 -0.093,-0.387 -0.668,-0.387 l 0,-0.266 c 0.282,0.008 0.739,0.028 0.953,0.028 0.215,0 0.637,-0.02 0.954,-0.028 l 0,0.266 c -0.575,0 -0.672,0 -0.672,0.387 l 0,5.312 z"
         style="fill:#000000;fill-opacity:1;fill-rule:nonzero;stroke:none"
         id="path3244" /><path
         d="m 172.48,122.346 -1.238,-0.098 0,-0.265 c 0.602,0 0.672,-0.059 0.672,-0.481 l 0,-4.468 c 0,-0.387 -0.094,-0.387 -0.672,-0.387 l 0,-0.266 c 0.281,0.008 0.738,0.028 0.953,0.028 0.215,0 0.637,-0.02 0.953,-0.028 l 0,0.266 c -0.574,0 -0.668,0 -0.668,0.387 l 0,5.312 z"
         style="fill:#000000;fill-opacity:1;fill-rule:nonzero;stroke:none"
         id="path3246" /><path
         d="m 136.809,108.377 0,0.055 0.003,0.012 0,0.011 0.004,0.008 0,0.012 0.004,0.012 0,0.015 0.004,0.012 0.008,0.031 0.004,0.012 0.008,0.031 0.008,0.016 0.003,0.016 0.024,0.046 0.008,0.02 0.011,0.016 0.008,0.015 0.012,0.016 0.012,0.019 0.023,0.032 c 0.34,-0.239 0.688,-0.27 0.852,-0.27 l 0,0.199 c -0.746,0 -0.746,0.86 -0.746,1.059 0,0.234 0.007,0.508 0.136,0.719 0.071,0.105 0.266,0.343 0.61,0.343 0.746,0 0.746,-0.859 0.746,-1.054 0,-0.231 -0.008,-0.508 -0.137,-0.723 -0.066,-0.102 -0.266,-0.344 -0.609,-0.344 l 0,-0.199 c 0.8,0 1.39,0.594 1.39,1.258 0,0.32 -0.136,0.637 -0.351,0.832 0.308,0.293 0.621,0.336 0.777,0.336 0.016,0 0.059,0 0.086,-0.008 -0.098,-0.035 -0.141,-0.129 -0.141,-0.234 0,-0.145 0.114,-0.246 0.25,-0.246 0.086,0 0.25,0.058 0.25,0.253 0,0.149 -0.105,0.422 -0.437,0.422 -0.176,0 -0.551,-0.05 -0.914,-0.402 -0.36,0.285 -0.719,0.309 -0.91,0.309 -0.801,0 -1.395,-0.594 -1.395,-1.254 0,-0.379 0.192,-0.703 0.406,-0.887 -0.109,-0.125 -0.265,-0.41 -0.265,-0.711 0,-0.266 0.113,-0.594 0.379,-0.766 -0.52,-0.144 -0.793,-0.515 -0.793,-0.859 0,-0.617 0.851,-1.094 1.902,-1.094 l 0.008,0.199 c -0.867,0 -1.461,0.438 -1.461,0.895 0,0.395 0.324,0.715 0.707,0.738 l 0.504,0 c 0.738,0 1.699,0 1.699,-0.738 0,-0.465 -0.605,-0.895 -1.449,-0.895 l -0.008,-0.199 c 1.012,0 1.906,0.442 1.906,1.11 0,0.304 -0.121,0.742 -0.558,0.98 -0.453,0.238 -0.953,0.238 -1.477,0.238 -0.215,0 -0.586,0 -0.644,0.012 -0.278,0.035 -0.457,0.301 -0.457,0.574 z"
         style="fill:#000000;fill-opacity:1;fill-rule:nonzero;stroke:none"
         id="path3248" /><path
         d="m 141.156,109.221 0.008,0.18 c 0.051,1.281 0.774,1.496 1.066,1.496 0.887,0 0.973,-1.16 0.973,-1.496 l -2.039,0 -0.008,-0.18 2.399,0 c 0.187,0 0.215,0 0.215,0.18 0,0.851 -0.465,1.683 -1.54,1.683 -0.996,0 -1.789,-0.882 -1.789,-1.961 0,-1.148 0.903,-1.98 1.895,-1.98 1.047,0 1.434,0.953 1.434,1.113 0,0.086 -0.071,0.106 -0.114,0.106 -0.078,0 -0.094,-0.051 -0.113,-0.121 -0.297,-0.883 -1.07,-0.883 -1.156,-0.883 -0.434,0 -0.774,0.258 -0.973,0.574 -0.258,0.41 -0.258,0.98 -0.258,1.289 z"
         style="fill:#000000;fill-opacity:1;fill-rule:nonzero;stroke:none"
         id="path3250" /><path
         d="m 148.059,109.077 -0.008,0.203 -0.031,0.195 -0.024,0.098 -0.023,0.093 -0.032,0.094 -0.035,0.094 -0.035,0.086 -0.043,0.086 -0.047,0.086 -0.051,0.082 -0.05,0.078 -0.118,0.148 -0.062,0.071 -0.07,0.066 -0.067,0.066 -0.07,0.059 -0.078,0.055 -0.074,0.054 -0.079,0.047 -0.085,0.047 -0.082,0.039 -0.086,0.039 -0.09,0.032 -0.09,0.027 -0.09,0.019 -0.094,0.02 -0.093,0.012 -0.098,0.011 -0.094,0 -0.012,-0.187 c 0.379,0 0.75,-0.192 0.973,-0.559 0.223,-0.371 0.223,-0.867 0.223,-1.195 0,-0.309 0,-0.773 -0.188,-1.148 -0.187,-0.391 -0.566,-0.637 -0.996,-0.637 -0.371,0 -0.75,0.179 -0.98,0.574 -0.215,0.379 -0.215,0.902 -0.215,1.211 0,0.336 0,0.801 0.203,1.18 0.234,0.39 0.637,0.574 0.98,0.574 l 0.012,0.187 c -1.074,0 -1.91,-0.933 -1.91,-2.007 0,-1.11 0.895,-1.934 1.898,-1.934 1.043,0 1.911,0.84 1.911,1.934 z"
         style="fill:#000000;fill-opacity:1;fill-rule:nonzero;stroke:none"
         id="path3252" /><path
         d="m 151.828,107.705 0,-0.562 1.262,0.094 0,0.265 c -0.602,0 -0.668,0.059 -0.668,0.481 l 0,5.219 -1.234,-0.098 0,-0.266 c 0.597,0 0.667,-0.058 0.667,-0.48 l 0,-1.856 c -0.25,0.309 -0.621,0.532 -1.085,0.532 l 0.035,-0.188 c 0.3,0 0.664,-0.133 0.929,-0.516 0.094,-0.148 0.094,-0.164 0.094,-0.32 l 0,-1.762 c 0,-0.152 0,-0.171 -0.094,-0.316 -0.257,-0.414 -0.644,-0.602 -1.015,-0.602 -0.383,0 -0.696,0.223 -0.899,0.551 -0.222,0.352 -0.25,0.84 -0.25,1.196 0,0.316 0.016,0.832 0.266,1.218 0.18,0.266 0.508,0.551 0.969,0.551 l -0.035,0.188 c -1.012,0 -1.915,-0.84 -1.915,-1.95 0,-1.089 0.844,-1.941 1.821,-1.941 0.551,0 0.937,0.289 1.152,0.562 z"
         style="fill:#000000;fill-opacity:1;fill-rule:nonzero;stroke:none"
         id="path3254" /><path
         d="m 154.297,109.221 0.008,0.18 c 0.054,1.281 0.773,1.496 1.07,1.496 0.883,0 0.969,-1.16 0.969,-1.496 l -2.039,0 -0.008,-0.18 2.398,0 c 0.188,0 0.215,0 0.215,0.18 0,0.851 -0.465,1.683 -1.535,1.683 -0.996,0 -1.793,-0.882 -1.793,-1.961 0,-1.148 0.906,-1.98 1.895,-1.98 1.046,0 1.433,0.953 1.433,1.113 0,0.086 -0.07,0.106 -0.113,0.106 -0.074,0 -0.09,-0.051 -0.109,-0.121 -0.301,-0.883 -1.075,-0.883 -1.161,-0.883 -0.429,0 -0.773,0.258 -0.972,0.574 -0.258,0.41 -0.258,0.98 -0.258,1.289 z"
         style="fill:#000000;fill-opacity:1;fill-rule:nonzero;stroke:none"
         id="path3256" /><path
         d="m 158.938,108.905 0.019,-0.004 0.047,-0.008 0.055,-0.016 0.031,-0.007 0.035,-0.008 0.031,-0.008 0.039,-0.012 0.035,-0.012 0.036,-0.015 0.039,-0.012 0.039,-0.019 0.035,-0.016 0.078,-0.039 0.039,-0.024 0.035,-0.027 0.035,-0.023 0.032,-0.028 0.035,-0.031 0.031,-0.035 0.027,-0.031 0.028,-0.039 0.027,-0.036 0.012,-0.023 0.008,-0.02 0.011,-0.023 0.008,-0.019 0.008,-0.024 0.012,-0.023 0.004,-0.024 0.007,-0.023 0.012,-0.082 0.004,-0.024 0,-0.031 0.004,-0.027 c 0,-0.438 -0.305,-0.782 -0.973,-0.782 -0.722,0 -1.031,0.493 -1.195,1.219 -0.027,0.113 -0.031,0.149 -0.121,0.149 -0.113,0 -0.113,-0.063 -0.113,-0.215 l 0,-1.137 c 0,-0.144 0,-0.203 0.097,-0.203 0.043,0 0.047,0.008 0.215,0.172 0.016,0.015 0.016,0.031 0.172,0.195 0.379,-0.359 0.766,-0.367 0.945,-0.367 0.985,0 1.383,0.578 1.383,1.191 0,0.457 -0.258,0.715 -0.363,0.817 -0.281,0.277 -0.617,0.347 -0.977,0.414 -0.484,0.094 -1.058,0.207 -1.058,0.707 0,0.297 0.222,0.648 0.961,0.648 0.945,0 0.988,-0.769 1.007,-1.039 0.008,-0.078 0.086,-0.078 0.106,-0.078 0.109,0 0.109,0.043 0.109,0.207 l 0,0.867 c 0,0.149 0,0.207 -0.093,0.207 -0.043,0 -0.059,0 -0.176,-0.101 -0.024,-0.035 -0.11,-0.11 -0.145,-0.137 -0.324,0.238 -0.679,0.238 -0.808,0.238 -1.047,0 -1.375,-0.574 -1.375,-1.054 0,-0.301 0.14,-0.543 0.371,-0.731 0.273,-0.222 0.515,-0.277 1.133,-0.394 z"
         style="fill:#000000;fill-opacity:1;fill-rule:nonzero;stroke:none"
         id="path3258" /><path
         d="m 162.066,111.034 -1.203,-0.094 0,-0.27 c 0.559,0 0.637,-0.05 0.637,-0.468 l 0,-2.313 c 0,-0.387 -0.094,-0.387 -0.672,-0.387 l 0,-0.265 c 0.274,0.008 0.738,0.027 0.945,0.027 0.305,0 0.602,-0.019 0.895,-0.027 l 0,0.265 c -0.566,0 -0.602,0.043 -0.602,0.379 l 0,3.153 z"
         style="fill:#000000;fill-opacity:1;fill-rule:nonzero;stroke:none"
         id="path3260" /><path
         d="m 162.102,112.53 0,0.023 -0.004,0.027 -0.012,0.071 -0.008,0.023 -0.004,0.02 -0.012,0.023 -0.007,0.02 -0.035,0.058 -0.012,0.016 -0.016,0.016 -0.012,0.019 -0.015,0.012 -0.02,0.015 -0.015,0.016 -0.016,0.012 -0.059,0.035 -0.015,0.008 -0.024,0.008 -0.039,0.015 -0.023,0.004 -0.02,0.004 -0.023,0.004 -0.02,0.004 -0.023,0 -0.023,0.004 c -0.266,0 -0.454,-0.235 -0.454,-0.457 0,-0.235 0.188,-0.457 0.454,-0.457 0.242,0 0.457,0.179 0.457,0.457 z"
         style="fill:#000000;fill-opacity:1;fill-rule:nonzero;stroke:none"
         id="path3262" /><path
         d="m 163.93,109.108 0.004,0.066 0,0.125 0.004,0.059 0.007,0.058 0.008,0.118 0.012,0.054 0.004,0.051 0.011,0.055 0.008,0.047 0.012,0.05 0.023,0.098 0.055,0.172 0.031,0.078 0.032,0.074 0.039,0.071 0.035,0.062 0.043,0.063 0.039,0.054 0.043,0.051 0.047,0.051 0.043,0.043 0.093,0.078 0.051,0.031 0.047,0.028 0.051,0.027 0.047,0.019 0.051,0.024 0.046,0.015 0.094,0.024 0.047,0.008 0.094,0.008 0.043,0.003 c 0.074,0 0.617,-0.011 0.918,-0.32 -0.352,-0.027 -0.407,-0.281 -0.407,-0.394 0,-0.227 0.157,-0.399 0.399,-0.399 0.219,0 0.394,0.149 0.394,0.406 0,0.582 -0.652,0.918 -1.316,0.918 -1.074,0 -1.867,-0.925 -1.867,-1.992 0,-1.097 0.851,-1.949 1.851,-1.949 1.149,0 1.426,1.031 1.426,1.113 0,0.086 -0.086,0.086 -0.109,0.086 -0.082,0 -0.098,-0.031 -0.117,-0.086 -0.246,-0.797 -0.805,-0.898 -1.121,-0.898 -0.457,0 -1.215,0.367 -1.215,1.75 z"
         style="fill:#000000;fill-opacity:1;fill-rule:nonzero;stroke:none"
         id="path3264" /><path
         d="m 54.428195,159.66242 -7.176,7.175"
         style="fill:none;stroke:#000000;stroke-width:0.85053301;stroke-linecap:butt;stroke-linejoin:miter;stroke-miterlimit:4;stroke-opacity:1;stroke-dasharray:none"
         id="path3266"
         inkscape:connector-curvature="0" /><g
         id="g3268"
         transform="matrix(0.999999,-1,-1,-0.999999,-9.1876097,203.78926)"><path
           d="m 48.16,-9.742 1.203,-1.203 -4.209,1.201 4.209,1.205 -1.203,-1.203 z"
           style="fill:#000000;fill-opacity:1;fill-rule:evenodd;stroke:#000000;stroke-width:0.30070901;stroke-linecap:butt;stroke-linejoin:miter;stroke-miterlimit:4;stroke-opacity:1;stroke-dasharray:none"
           id="path3270"
           inkscape:connector-curvature="0" /></g><path
         d="M 77.812,166.998 4.5,93.686 48.438,49.752"
         style="fill:none;stroke:#000000;stroke-opacity:1;stroke-width:0.8;stroke-linecap:butt;stroke-linejoin:miter;stroke-miterlimit:4;stroke-dasharray:none"
         id="path3272" /><path
         d="m 53.89039,160.58622 7.176,7.18"
         style="fill:none;stroke:#000000;stroke-width:0.85053301;stroke-linecap:butt;stroke-linejoin:miter;stroke-miterlimit:4;stroke-opacity:1;stroke-dasharray:none"
         id="path3274"
         inkscape:connector-curvature="0" /><g
         id="g3276"
         transform="matrix(-1,-0.999999,-0.999999,1,-9.1876097,203.78926)"><path
           d="m -14.709,-53.139 1.203,-1.203 -4.209,1.201 4.207,1.203 -1.201,-1.201 z"
           style="fill:#000000;fill-opacity:1;fill-rule:evenodd;stroke:#000000;stroke-width:0.30070901;stroke-linecap:butt;stroke-linejoin:miter;stroke-miterlimit:4;stroke-opacity:1;stroke-dasharray:none"
           id="path3278"
           inkscape:connector-curvature="0" /></g><path
         d="m 55.609,48.096 -0.004,-0.016 0,-0.015 -0.007,-0.016 0,-0.015 -0.008,-0.036 -0.012,-0.035 -0.004,-0.035 -0.008,-0.031 -0.011,-0.035 -0.008,-0.035 0,-0.016 -0.02,-0.078 0,-0.012 -0.004,-0.012 0,-0.015 -0.003,-0.008 0,-0.012 -0.008,-0.015 0,-0.02 c 0,-0.191 0.152,-0.289 0.308,-0.289 0.129,0 0.321,0.082 0.399,0.297 0.011,0.023 0.136,0.523 0.203,0.789 l 0.234,0.961 c 0.063,0.238 0.125,0.473 0.18,0.719 0.043,0.179 0.133,0.488 0.141,0.531 0.164,0.336 0.73,1.305 1.738,1.305 0.484,0 0.582,-0.395 0.582,-0.747 0,-0.664 -0.527,-2.031 -0.695,-2.488 -0.098,-0.246 -0.106,-0.375 -0.106,-0.492 0,-0.5 0.371,-0.875 0.875,-0.875 1.004,0 1.399,1.559 1.399,1.645 0,0.105 -0.098,0.105 -0.129,0.105 -0.106,0 -0.106,-0.031 -0.157,-0.191 -0.214,-0.727 -0.566,-1.325 -1.093,-1.325 -0.184,0 -0.254,0.106 -0.254,0.352 0,0.269 0.093,0.523 0.191,0.758 0.203,0.566 0.652,1.742 0.652,2.351 0,0.715 -0.46,1.141 -1.23,1.141 -0.961,0 -1.484,-0.68 -1.664,-0.926 -0.055,0.598 -0.492,0.926 -0.988,0.926 -0.489,0 -0.692,-0.414 -0.797,-0.606 -0.172,-0.367 -0.324,-0.992 -0.324,-1.039 0,-0.105 0.109,-0.105 0.132,-0.105 0.106,0 0.114,0.012 0.18,0.246 0.18,0.758 0.395,1.27 0.781,1.27 0.211,0 0.332,-0.137 0.332,-0.489 0,-0.226 -0.035,-0.343 -0.172,-0.898 l -0.621,-2.469 z"
         style="fill:#000000;fill-opacity:1;fill-rule:nonzero;stroke:none"
         id="path3280" /><path
         d="m 45.301,56.868829 -0.012,-0.011 -0.004,-0.008 -0.004,-0.004 -0.008,-0.016 -0.003,-0.004 -0.004,-0.008 -0.008,-0.007 0,-0.004 -0.004,-0.004 0,-0.004 -0.004,-0.004 0,-0.012 -0.004,-0.004 0,-0.015 c 0,-0.051 0.063,-0.137 0.125,-0.137 0.051,0 0.086,0.031 0.375,0.324 0.086,0.071 0.293,0.27 0.375,0.356 0.106,-0.824 0.406,-1.594 1.172,-1.594 0.418,0 0.781,0.238 1,0.395 0.148,0.105 0.637,0.507 0.637,0.613 0,0.035 -0.032,0.125 -0.125,0.125 -0.032,0 -0.039,-0.012 -0.137,-0.09 -0.668,-0.66 -1.051,-0.816 -1.356,-0.816 -0.468,0 -0.636,0.543 -0.636,1.355 0,0.066 0.019,0.543 0.051,0.594 0.023,0.035 0.023,0.054 0.23,0.261 0.844,0.844 2.328,2.61 2.328,4.227 0,0.18 0,0.816 -0.617,0.816 l 0.012,-0.23 c 0.355,0 0.355,-0.375 0.355,-0.543 0,-1.742 -1.754,-3.57 -2.254,-4.09 0.02,0.113 0.469,2.43 1.063,3.653 0.285,0.562 0.5,0.98 0.836,0.98 l -0.012,0.23 c -0.867,0 -1.637,-1.722 -1.742,-1.964 -0.5,-1.137 -0.824,-2.356 -0.824,-3.602 l -0.801,-0.758 z"
         style="fill:#000000;fill-opacity:1;fill-rule:nonzero;stroke:none"
         id="path3282"
         inkscape:connector-curvature="0" /><path
         d="m 57.69494,57.521159 -7.176,7.175"
         style="fill:none;stroke:#000000;stroke-width:0.85053301;stroke-linecap:butt;stroke-linejoin:miter;stroke-miterlimit:4;stroke-opacity:1;stroke-dasharray:none"
         id="path3284"
         inkscape:connector-curvature="0" /><g
         id="g3286"
         transform="matrix(0.999999,-1,-1,-0.999999,8.4123903,203.78926)"><path
           d="m 92.41,48.508 1.203,-1.203 -4.209,1.201 4.209,1.205 -1.203,-1.203 z"
           style="fill:#000000;fill-opacity:1;fill-rule:evenodd;stroke:#000000;stroke-width:0.30070901;stroke-linecap:butt;stroke-linejoin:miter;stroke-miterlimit:4;stroke-opacity:1;stroke-dasharray:none"
           id="path3288"
           inkscape:connector-curvature="0" /></g><path
         d="m 57.078,57.673829 7.176,7.18"
         style="fill:none;stroke:#000000;stroke-width:0.85053301;stroke-linecap:butt;stroke-linejoin:miter;stroke-miterlimit:4;stroke-opacity:1;stroke-dasharray:none"
         id="path3290"
         inkscape:connector-curvature="0" /><g
         id="g3292"
         transform="matrix(-1,-0.999999,-0.999999,1,8,203.37687)"><path
           d="m 43.541,-97.389 1.203,-1.203 -4.209,1.201 4.207,1.203 -1.201,-1.201 z"
           style="fill:#000000;fill-opacity:1;fill-rule:evenodd;stroke:#000000;stroke-width:0.30070901;stroke-linecap:butt;stroke-linejoin:miter;stroke-miterlimit:4;stroke-opacity:1;stroke-dasharray:none"
           id="path3294"
           inkscape:connector-curvature="0" /></g><path
         d="m 59.18,56.37 c 8.918,-8.918 4.48,-0.872 18.593,-1.297"
         style="fill:none;stroke:#000000;stroke-opacity:1;stroke-width:0.4;stroke-linecap:butt;stroke-linejoin:miter;stroke-miterlimit:4;stroke-dasharray:none"
         id="path3296" /><g
         id="g3298"
         transform="matrix(1,-1,-1,-1,0,195.01404)"><path
           d="m 100.041,39.732 0.566,-0.566 -1.98,0.566 1.98,0.567 -0.566,-0.567 z"
           style="fill:#000000;fill-opacity:1;fill-rule:evenodd;stroke:#000000;stroke-opacity:1;stroke-width:0.141421;stroke-linecap:butt;stroke-linejoin:miter;stroke-miterlimit:4;stroke-dasharray:none"
           id="path3300" /></g><path
         d="m 50.879,47.17 c 8.918,-8.918 4.48,-0.875 18.594,-1.297"
         style="fill:none;stroke:#000000;stroke-opacity:1;stroke-width:0.4;stroke-linecap:butt;stroke-linejoin:miter;stroke-miterlimit:4;stroke-dasharray:none"
         id="path3302" /><g
         id="g3304"
         transform="matrix(1,-1,-1,-1,-1.1479821,196.20198)"><path
           d="m 100.49,48.482 0.567,-0.566 -1.981,0.566 1.981,0.567 -0.567,-0.567 z"
           style="fill:#000000;fill-opacity:1;fill-rule:evenodd;stroke:#000000;stroke-width:0.14142101;stroke-linecap:butt;stroke-linejoin:miter;stroke-miterlimit:4;stroke-opacity:1;stroke-dasharray:none"
           id="path3306"
           inkscape:connector-curvature="0" /></g><path
         d="m 78.898,191.6 c -6.21,0 -11,3.336 -11,-11.5"
         style="fill:none;stroke:#000000;stroke-opacity:1;stroke-width:0.4;stroke-linecap:butt;stroke-linejoin:miter;stroke-miterlimit:4;stroke-dasharray:none"
         id="path3308" /><g
         id="g3310"
         transform="matrix(0,1,1,0,0,195.01404)"><path
           d="m -13.313,67.898 0.797,-0.796 -2.797,0.796 2.797,0.801 -0.797,-0.801 z"
           style="fill:#000000;fill-opacity:1;fill-rule:evenodd;stroke:#000000;stroke-opacity:1;stroke-width:0.2;stroke-linecap:butt;stroke-linejoin:miter;stroke-miterlimit:4;stroke-dasharray:none"
           id="path3312" /></g><path
         d="m 84.73,189.549 0.008,-0.035 0.024,-0.062 0.015,-0.032 0.012,-0.031 0.031,-0.055 0.02,-0.031 0.019,-0.023 0.02,-0.028 0.039,-0.047 0.023,-0.023 0.024,-0.02 0.023,-0.023 0.028,-0.019 0.023,-0.016 0.027,-0.02 0.082,-0.047 0.063,-0.023 0.031,-0.008 0.028,-0.011 0.035,-0.008 0.062,-0.016 0.035,0 0.071,-0.008 0.031,0 c 0.305,0 0.508,0.199 0.644,0.477 0.149,0.312 0.262,0.847 0.262,0.863 0,0.086 -0.078,0.086 -0.105,0.086 -0.086,0 -0.094,-0.035 -0.121,-0.156 -0.122,-0.485 -0.286,-1.078 -0.653,-1.078 -0.183,0 -0.269,0.113 -0.269,0.398 0,0.195 0.105,0.602 0.172,0.906 l 0.246,0.942 c 0.027,0.133 0.113,0.461 0.148,0.594 0.043,0.199 0.133,0.527 0.133,0.578 0,0.16 -0.125,0.238 -0.254,0.238 -0.043,0 -0.273,-0.008 -0.34,-0.305 -0.168,-0.636 -0.551,-2.16 -0.652,-2.621 -0.012,-0.035 -0.36,-0.73 -0.992,-0.73 -0.457,0 -0.543,0.394 -0.543,0.715 0,0.484 0.246,1.175 0.472,1.773 0.106,0.266 0.149,0.383 0.149,0.551 0,0.39 -0.278,0.711 -0.715,0.711 -0.828,0 -1.152,-1.262 -1.152,-1.34 0,-0.09 0.089,-0.09 0.109,-0.09 0.086,0 0.094,0.02 0.137,0.16 0.215,0.758 0.547,1.078 0.879,1.078 0.078,0 0.218,-0.008 0.218,-0.285 0,-0.211 -0.097,-0.461 -0.148,-0.594 -0.324,-0.863 -0.508,-1.402 -0.508,-1.824 0,-0.828 0.602,-1.047 1.074,-1.047 0.575,0 0.887,0.391 1.035,0.586 z"
         style="fill:#000000;fill-opacity:1;fill-rule:nonzero;stroke:none"
         id="path3314" /><path
         d="m 95.066,191.909 0.114,0 0.011,0.003 0.012,0 0.016,0.004 0.011,0 0.008,0.004 0.016,0.004 0.008,0.004 0.023,0.008 0.008,0.004 0.012,0.008 0.031,0.031 0,0.004 0.004,0.008 0.004,0 0.004,0.007 0,0.004 0.004,0.008 0.003,0.004 0,0.012 0.004,0.008 0,0.023 0.004,0.004 0,0.016 c 0,0.175 -0.168,0.175 -0.289,0.175 l -5.211,0 c -0.125,0 -0.289,0 -0.289,-0.175 0,-0.168 0.164,-0.168 0.293,-0.168 l 5.199,0 z"
         style="fill:#000000;fill-opacity:1;fill-rule:nonzero;stroke:none"
         id="path3316" /><path
         d="m 95.074,190.217 0.098,0 0.012,0.004 0.023,0 0.035,0.012 0.012,0 0.012,0.004 0.007,0.004 0.012,0.007 0.008,0.004 0.012,0.008 0.007,0.004 0.008,0.008 0.008,0.012 0.004,0 0.004,0.007 0,0.004 0.008,0.008 0.004,0.008 0,0.004 0.004,0.004 0.003,0.008 0,0.011 0.004,0.008 0,0.02 0.004,0.007 0,0.016 c 0,0.176 -0.168,0.176 -0.297,0.176 l -5.199,0 c -0.129,0 -0.293,0 -0.293,-0.176 0,-0.172 0.164,-0.172 0.289,-0.172 l 5.211,0 z"
         style="fill:#000000;fill-opacity:1;fill-rule:nonzero;stroke:none"
         id="path3318" /><path
         d="m 101.828,191.061 2.434,0 c 0.117,0 0.285,0 0.285,0.172 0,0.176 -0.168,0.176 -0.285,0.176 l -2.434,0 0,2.441 c 0,0.117 0,0.285 -0.172,0.285 -0.172,0 -0.172,-0.168 -0.172,-0.285 l 0,-2.441 -2.437,0 c -0.125,0 -0.289,0 -0.289,-0.176 0,-0.172 0.164,-0.172 0.289,-0.172 l 2.437,0 0,-2.438 c 0,-0.121 0,-0.289 0.172,-0.289 0.172,0 0.172,0.168 0.172,0.289 l 0,2.438 z"
         style="fill:#000000;fill-opacity:1;fill-rule:nonzero;stroke:none"
         id="path3320" /><path
         d="m 109.465,191.416 -0.043,0.055 -0.039,0.051 -0.043,0.051 -0.035,0.047 -0.035,0.042 -0.032,0.043 -0.035,0.04 -0.031,0.039 -0.082,0.105 -0.028,0.027 -0.023,0.032 -0.027,0.027 -0.02,0.027 -0.023,0.028 -0.024,0.023 -0.019,0.024 -0.024,0.023 -0.019,0.023 -0.039,0.039 -0.172,0.157 -0.027,0.019 -0.024,0.02 c -0.488,0.39 -0.976,0.547 -1.422,0.547 -1.015,0 -1.679,-0.953 -1.679,-1.973 l 0.195,0 c 0,0.852 0.582,1.555 1.347,1.555 0.504,0 0.895,-0.364 1.079,-0.547 0.218,-0.235 0.418,-0.508 0.953,-1.192 -0.36,-0.628 -1.004,-1.507 -1.989,-1.507 -0.921,0 -1.39,0.906 -1.39,1.691 l -0.195,0 c 0,-1.004 0.644,-1.969 1.648,-1.969 1,0 1.723,0.789 2.148,1.489 0.473,-0.594 0.575,-0.723 0.844,-0.942 0.488,-0.39 0.977,-0.547 1.422,-0.547 1.02,0 1.68,0.957 1.68,1.977 l -0.192,0 c 0,-0.856 -0.586,-1.559 -1.351,-1.559 -0.504,0 -0.899,0.367 -1.078,0.547 -0.219,0.238 -0.418,0.504 -0.95,1.195 0.356,0.625 1,1.504 1.985,1.504 0.926,0 1.394,-0.902 1.394,-1.687 l 0.192,0 c 0,1 -0.645,1.965 -1.649,1.965 -0.996,0 -1.722,-0.793 -2.148,-1.489 z"
         style="fill:#000000;fill-opacity:1;fill-rule:nonzero;stroke:none"
         id="path3322" /><path
         d="m 115.512,189.069 0,0.051 -0.012,0.152 -0.004,0.047 -0.008,0.047 -0.015,0.086 -0.012,0.043 -0.023,0.078 -0.012,0.035 -0.031,0.07 -0.016,0.031 -0.02,0.032 -0.039,0.054 -0.039,0.047 -0.023,0.024 -0.024,0.019 -0.023,0.016 -0.027,0.019 -0.024,0.012 -0.027,0.016 -0.031,0.007 -0.028,0.012 -0.027,0.004 -0.031,0.008 -0.032,0 -0.031,0.004 c -0.285,0 -0.461,-0.219 -0.461,-0.465 0,-0.231 0.176,-0.461 0.461,-0.461 0.106,0 0.219,0.035 0.305,0.113 0.023,0.02 0.039,0.028 0.043,0.028 0.011,0 0.019,-0.008 0.019,-0.129 0,-0.645 -0.304,-1.168 -0.593,-1.457 -0.094,-0.094 -0.094,-0.114 -0.094,-0.137 0,-0.063 0.043,-0.098 0.086,-0.098 0.097,0 0.793,0.672 0.793,1.692 z"
         style="fill:#000000;fill-opacity:1;fill-rule:nonzero;stroke:none"
         id="path3324" /><path
         d="m 123.129,194.092 0.019,0.063 0.008,0.035 0.012,0.031 0.012,0.027 0.023,0.063 0.012,0.027 0.047,0.082 0.039,0.047 0.023,0.028 0.024,0.019 0.023,0.023 0.055,0.04 0.031,0.019 0.031,0.016 0.035,0.015 0.039,0.02 0.036,0.012 0.043,0.015 0.043,0.012 0.046,0.008 0.051,0.011 0.051,0.008 0.055,0.008 0.058,0.008 0.063,0.004 0.062,0 c 0.043,0 0.149,0.012 0.149,0.176 0,0.007 0,0.097 -0.114,0.097 -0.285,0 -0.593,-0.027 -0.886,-0.027 -0.301,0 -0.621,0.027 -0.907,0.027 -0.054,0 -0.156,0 -0.156,-0.176 0,-0.097 0.086,-0.097 0.156,-0.097 0.497,-0.004 0.59,-0.188 0.59,-0.379 0,-0.027 -0.019,-0.16 -0.027,-0.184 l -0.781,-3.109 c -0.297,-1.168 -1.297,-1.922 -2.168,-1.922 -0.59,0 -1.063,0.379 -1.063,1.129 0,0.019 0,0.297 0.094,0.68 l 0.848,3.386 c 0.074,0.313 0.093,0.399 0.73,0.399 0.227,0 0.297,0 0.297,0.176 0,0.097 -0.098,0.097 -0.125,0.097 -0.242,0 -0.871,-0.027 -1.113,-0.027 -0.25,0 -0.871,0.027 -1.121,0.027 -0.071,0 -0.168,0 -0.168,-0.176 0,-0.097 0.078,-0.097 0.246,-0.097 0.015,0 0.183,0 0.332,-0.016 0.152,-0.019 0.234,-0.027 0.234,-0.137 0,-0.054 -0.097,-0.418 -0.148,-0.621 l -0.196,-0.765 c -0.074,-0.34 -0.492,-1.985 -0.527,-2.149 -0.062,-0.246 -0.062,-0.375 -0.062,-0.508 0,-1.062 0.793,-1.667 1.711,-1.667 1.093,0 2.171,0.98 2.46,2.128 l 0.774,3.094 z"
         style="fill:#000000;fill-opacity:1;fill-rule:nonzero;stroke:none"
         id="path3326" /><path
         d="m 132.914,191.909 0.113,0 0.012,0.003 0.012,0 0.015,0.004 0.008,0 0.012,0.004 0.016,0.004 0.007,0.004 0.024,0.008 0.008,0.004 0.011,0.008 0.032,0.031 0,0.004 0.004,0.008 0.003,0 0,0.007 0.004,0.004 0.004,0.008 0,0.012 0.004,0.004 0,0.008 0.004,0.007 0,0.02 0.004,0.008 0,0.008 c 0,0.175 -0.168,0.175 -0.289,0.175 l -5.215,0 c -0.121,0 -0.285,0 -0.285,-0.175 0,-0.168 0.164,-0.168 0.293,-0.168 l 5.199,0 z"
         style="fill:#000000;fill-opacity:1;fill-rule:nonzero;stroke:none"
         id="path3328" /><path
         d="m 132.922,190.217 0.098,0 0.011,0.004 0.024,0 0.035,0.012 0.012,0 0.007,0.004 0.012,0.004 0.012,0.007 0.008,0.004 0.011,0.008 0.008,0.004 0.008,0.008 0.008,0.012 0.004,0 0.004,0.007 0,0.004 0.007,0.008 0,0.008 0.008,0.008 0,0.011 0.004,0.008 0,0.008 0.004,0.008 0,0.019 0.004,0.008 0,0.008 c 0,0.176 -0.168,0.176 -0.297,0.176 l -5.199,0 c -0.129,0 -0.293,0 -0.293,-0.176 0,-0.172 0.164,-0.172 0.285,-0.172 l 5.215,0 z"
         style="fill:#000000;fill-opacity:1;fill-rule:nonzero;stroke:none"
         id="path3330" /><path
         d="m 140.121,191.842 0,0.262 -0.004,0.133 -0.015,0.258 -0.012,0.128 -0.012,0.133 -0.016,0.125 -0.019,0.129 -0.023,0.125 -0.032,0.129 -0.031,0.125 -0.039,0.125 -0.043,0.121 -0.047,0.125 -0.027,0.059 -0.028,0.062 c -0.398,0.836 -1.113,0.977 -1.48,0.977 -0.523,0 -1.16,-0.227 -1.516,-1.039 -0.277,-0.602 -0.324,-1.282 -0.324,-1.977 0,-0.652 0.035,-1.433 0.395,-2.094 0.375,-0.707 1.011,-0.878 1.437,-0.878 l 0,0.187 c -0.34,0 -0.855,0.219 -1.012,1.055 -0.093,0.519 -0.093,1.32 -0.093,1.84 0,0.554 0,1.128 0.07,1.597 0.164,1.039 0.816,1.113 1.035,1.113 0.285,0 0.863,-0.152 1.024,-1.015 0.089,-0.488 0.089,-1.152 0.089,-1.695 0,-0.657 0,-1.247 -0.093,-1.805 -0.133,-0.828 -0.629,-1.09 -1.02,-1.09 l 0,-0.187 c 0.469,0 1.129,0.179 1.516,1.007 0.277,0.602 0.32,1.278 0.32,1.965 z"
         style="fill:#000000;fill-opacity:1;fill-rule:nonzero;stroke:none"
         id="path3332" /></g></g></svg>