<?xml version="1.0" encoding="UTF-8" standalone="no"?>
<!-- Created with Inkscape (http://www.inkscape.org/) -->

<svg
   xmlns:dc="http://purl.org/dc/elements/1.1/"
   xmlns:cc="http://creativecommons.org/ns#"
   xmlns:rdf="http://www.w3.org/1999/02/22-rdf-syntax-ns#"
   xmlns:svg="http://www.w3.org/2000/svg"
   xmlns="http://www.w3.org/2000/svg"
   xmlns:sodipodi="http://sodipodi.sourceforge.net/DTD/sodipodi-0.dtd"
   xmlns:inkscape="http://www.inkscape.org/namespaces/inkscape"
   width="744.09448819"
   height="1052.3622047"
   id="svg2"
   version="1.1"
   inkscape:version="0.48.2 r9819"
   sodipodi:docname="contour.pdf">
  <sodipodi:namedview
     id="base"
     pagecolor="#ffffff"
     bordercolor="#666666"
     borderopacity="1.0"
     inkscape:pageopacity="0.0"
     inkscape:pageshadow="2"
     inkscape:zoom="1"
     inkscape:cx="383.96095"
     inkscape:cy="563.55214"
     inkscape:document-units="px"
     inkscape:current-layer="layer1"
     showgrid="false"
     inkscape:window-width="1182"
     inkscape:window-height="752"
     inkscape:window-x="0"
     inkscape:window-y="0"
     inkscape:window-maximized="0" />
  <defs
     id="defs4">
    <marker
       style="overflow:visible"
       id="Arrow1Mstart"
       refX="0.0"
       refY="0.0"
       orient="auto"
       inkscape:stockid="Arrow1Mstart">
      <path
         transform="scale(0.4) translate(10,0)"
         style="fill-rule:evenodd;stroke:#000000;stroke-width:1.0pt;marker-start:none"
         d="M 0.0,0.0 L 5.0,-5.0 L -12.5,0.0 L 5.0,5.0 L 0.0,0.0 z "
         id="path3779" />
    </marker>
    <marker
       style="overflow:visible;"
       id="Arrow1Mend"
       refX="0.0"
       refY="0.0"
       orient="auto"
       inkscape:stockid="Arrow1Mend">
      <path
         transform="scale(0.4) rotate(180) translate(10,0)"
         style="fill-rule:evenodd;stroke:#000000;stroke-width:1.0pt;marker-start:none;"
         d="M 0.0,0.0 L 5.0,-5.0 L -12.5,0.0 L 5.0,5.0 L 0.0,0.0 z "
         id="path3782" />
    </marker>
    <marker
       style="overflow:visible;"
       id="Arrow1Lend"
       refX="0.0"
       refY="0.0"
       orient="auto"
       inkscape:stockid="Arrow1Lend">
      <path
         transform="scale(0.8) rotate(180) translate(12.5,0)"
         style="fill-rule:evenodd;stroke:#000000;stroke-width:1.0pt;marker-start:none;"
         d="M 0.0,0.0 L 5.0,-5.0 L -12.5,0.0 L 5.0,5.0 L 0.0,0.0 z "
         id="path3776" />
    </marker>
    <marker
       style="overflow:visible"
       id="Arrow1Lstart"
       refX="0.0"
       refY="0.0"
       orient="auto"
       inkscape:stockid="Arrow1Lstart">
      <path
         transform="scale(0.8) translate(12.5,0)"
         style="fill-rule:evenodd;stroke:#000000;stroke-width:1.0pt;marker-start:none"
         d="M 0.0,0.0 L 5.0,-5.0 L -12.5,0.0 L 5.0,5.0 L 0.0,0.0 z "
         id="path3773" />
    </marker>
    <marker
       style="overflow:visible;"
       id="Arrow2Lend"
       refX="0.0"
       refY="0.0"
       orient="auto"
       inkscape:stockid="Arrow2Lend">
      <path
         transform="scale(1.1) rotate(180) translate(1,0)"
         d="M 8.7185878,4.0337352 L -2.2072895,0.016013256 L 8.7185884,-4.0017078 C 6.9730900,-1.6296469 6.9831476,1.6157441 8.7185878,4.0337352 z "
         style="font-size:12.0;fill-rule:evenodd;stroke-width:0.62500000;stroke-linejoin:round;"
         id="path3794" />
    </marker>
    <marker
       style="overflow:visible"
       id="Arrow2Mstart"
       refX="0.0"
       refY="0.0"
       orient="auto"
       inkscape:stockid="Arrow2Mstart">
      <path
         transform="scale(0.6) translate(0,0)"
         d="M 8.7185878,4.0337352 L -2.2072895,0.016013256 L 8.7185884,-4.0017078 C 6.9730900,-1.6296469 6.9831476,1.6157441 8.7185878,4.0337352 z "
         style="font-size:12.0;fill-rule:evenodd;stroke-width:0.62500000;stroke-linejoin:round"
         id="path3797" />
    </marker>
    <marker
       style="overflow:visible;"
       id="Arrow2Mend"
       refX="0.0"
       refY="0.0"
       orient="auto"
       inkscape:stockid="Arrow2Mend">
      <path
         transform="scale(0.6) rotate(180) translate(0,0)"
         d="M 8.7185878,4.0337352 L -2.2072895,0.016013256 L 8.7185884,-4.0017078 C 6.9730900,-1.6296469 6.9831476,1.6157441 8.7185878,4.0337352 z "
         style="font-size:12.0;fill-rule:evenodd;stroke-width:0.62500000;stroke-linejoin:round;"
         id="path3800" />
    </marker>
    <clipPath
       clipPathUnits="userSpaceOnUse"
       id="clipPath6571">
      <path
         d="m 31,2 0,15 710,0 0,-15"
         clip-rule="evenodd"
         id="path6573" />
    </clipPath>
    <clipPath
       clipPathUnits="userSpaceOnUse"
       id="clipPath6561">
      <path
         d="m 31,2 0,15 710,0 0,-15"
         clip-rule="evenodd"
         id="path6563" />
    </clipPath>
    <clipPath
       clipPathUnits="userSpaceOnUse"
       id="clipPath6553">
      <path
         d="m 31,2 0,15 710,0 0,-15"
         clip-rule="evenodd"
         id="path6555" />
    </clipPath>
    <clipPath
       clipPathUnits="userSpaceOnUse"
       id="clipPath6545">
      <path
         d="m 31,2 0,15 710,0 0,-15"
         clip-rule="evenodd"
         id="path6547" />
    </clipPath>
    <clipPath
       clipPathUnits="userSpaceOnUse"
       id="clipPath6537">
      <path
         d="m 31,2 0,15 710,0 0,-15"
         clip-rule="evenodd"
         id="path6539" />
    </clipPath>
    <clipPath
       clipPathUnits="userSpaceOnUse"
       id="clipPath6529">
      <path
         d="m 29,1 0,18 714,0 0,-18"
         clip-rule="evenodd"
         id="path6531" />
    </clipPath>
    <clipPath
       clipPathUnits="userSpaceOnUse"
       id="clipPath6521">
      <path
         d="m 31.2,3.2 0,14.192 709.6,0 0,-14.192"
         clip-rule="evenodd"
         id="path6523" />
    </clipPath>
    <clipPath
       clipPathUnits="userSpaceOnUse"
       id="clipPath6685">
      <path
         d="m 30,3 0,7 173,0 0,-7"
         clip-rule="evenodd"
         id="path6687" />
    </clipPath>
    <clipPath
       clipPathUnits="userSpaceOnUse"
       id="clipPath6675">
      <path
         d="m 30,3 0,7 173,0 0,-7"
         clip-rule="evenodd"
         id="path6677" />
    </clipPath>
    <clipPath
       clipPathUnits="userSpaceOnUse"
       id="clipPath6667">
      <path
         d="m 30,3 0,7 173,0 0,-7"
         clip-rule="evenodd"
         id="path6669" />
    </clipPath>
    <clipPath
       clipPathUnits="userSpaceOnUse"
       id="clipPath6659">
      <path
         d="m 30,3 0,7 173,0 0,-7"
         clip-rule="evenodd"
         id="path6661" />
    </clipPath>
    <clipPath
       clipPathUnits="userSpaceOnUse"
       id="clipPath6651">
      <path
         d="m 31,3 0,7 172,0 0,-7"
         clip-rule="evenodd"
         id="path6653" />
    </clipPath>
    <clipPath
       clipPathUnits="userSpaceOnUse"
       id="clipPath6643">
      <path
         d="m 29,1 0,11 175,0 0,-11"
         clip-rule="evenodd"
         id="path6645" />
    </clipPath>
    <clipPath
       clipPathUnits="userSpaceOnUse"
       id="clipPath6635">
      <path
         d="m 31.2,3.2 0,12 171.2,0 0,-12"
         clip-rule="evenodd"
         id="path6637" />
    </clipPath>
    <clipPath
       clipPathUnits="userSpaceOnUse"
       id="clipPath6799">
      <path
         d="m 30,3 0,9 173,0 0,-9"
         clip-rule="evenodd"
         id="path6801" />
    </clipPath>
    <clipPath
       clipPathUnits="userSpaceOnUse"
       id="clipPath6789">
      <path
         d="m 30,3 0,9 173,0 0,-9"
         clip-rule="evenodd"
         id="path6791" />
    </clipPath>
    <clipPath
       clipPathUnits="userSpaceOnUse"
       id="clipPath6781">
      <path
         d="m 30,3 0,9 173,0 0,-9"
         clip-rule="evenodd"
         id="path6783" />
    </clipPath>
    <clipPath
       clipPathUnits="userSpaceOnUse"
       id="clipPath6773">
      <path
         d="m 30,3 0,9 173,0 0,-9"
         clip-rule="evenodd"
         id="path6775" />
    </clipPath>
    <clipPath
       clipPathUnits="userSpaceOnUse"
       id="clipPath6765">
      <path
         d="m 31,3 0,9 172,0 0,-9"
         clip-rule="evenodd"
         id="path6767" />
    </clipPath>
    <clipPath
       clipPathUnits="userSpaceOnUse"
       id="clipPath6757">
      <path
         d="m 29,1 0,13 175,0 0,-13"
         clip-rule="evenodd"
         id="path6759" />
    </clipPath>
    <clipPath
       clipPathUnits="userSpaceOnUse"
       id="clipPath6749">
      <path
         d="m 31.2,3.2 0,12 171.2,0 0,-12"
         clip-rule="evenodd"
         id="path6751" />
    </clipPath>
  </defs>
  <metadata
     id="metadata7">
    <rdf:RDF>
      <cc:Work
         rdf:about="">
        <dc:format>image/svg+xml</dc:format>
        <dc:type
           rdf:resource="http://purl.org/dc/dcmitype/StillImage" />
        <dc:title></dc:title>
      </cc:Work>
    </rdf:RDF>
  </metadata>
  <g
     id="layer1"
     inkscape:groupmode="layer"
     inkscape:label="Layer 1">
    <path
       inkscape:connector-curvature="0"
       id="path2998"
       d="m 76.922051,551.36218 594.077949,0 0,0 0,0"
       style="fill:none;stroke:#000000;stroke-width:1.50000000000000000;stroke-linecap:butt;stroke-linejoin:miter;stroke-opacity:1;stroke-miterlimit:4;stroke-dasharray:none;marker-end:url(#Arrow1Mend);marker-start:url(#Arrow1Mstart)" />
    <path
       inkscape:connector-curvature="0"
       id="path5714"
       d="m 376.05634,550.83272 0,-299.25241"
       style="fill:none;stroke:#000000;stroke-width:1.54638481;stroke-linecap:butt;stroke-linejoin:miter;stroke-miterlimit:4;stroke-opacity:1;stroke-dasharray:none;marker-end:url(#Arrow1Mend)" />
    <g
       id="g6745"
       inkscape:label="branchcut"
       transform="matrix(1.7329273,0,0,1.4672395,317.30576,540.57556)">
      <g
         id="g6747"
         clip-path="url(#clipPath6749)">
        <g
           id="g6753">
          <g
             id="g6755"
             clip-path="url(#clipPath6757)">
            <g
               id="g6761">
              <g
                 id="g6763"
                 clip-path="url(#clipPath6765)">
                <g
                   id="g6769">
                  <g
                     id="g6771"
                     clip-path="url(#clipPath6773)" />
                </g>
                <g
                   id="g6777">
                  <g
                     id="g6779"
                     clip-path="url(#clipPath6781)" />
                </g>
                <g
                   id="g6785">
                  <g
                     id="g6787"
                     clip-path="url(#clipPath6789)">
                    <path
                       inkscape:connector-curvature="0"
                       d="m 34.624,7.48 0.05,-0.188 0.051,-0.187 0.101,-0.373 0.201,-0.722 0.051,-0.174 0.05,-0.171 0.101,-0.329 0.202,-0.602 0.05,-0.137 0.05,-0.131 0.051,-0.124 0.05,-0.118 0.051,-0.111 0.05,-0.105 0.05,-0.096 0.051,-0.09 0.05,-0.082 0.051,-0.074 0.05,-0.065 0.05,-0.058 0.051,-0.05 0.05,-0.041 0.051,-0.033 0.05,-0.024 0.05,-0.016 0.051,-0.007 0.05,0.001 0.051,0.01 0.05,0.019 0.05,0.027 0.051,0.035 0.05,0.044 0.051,0.053 0.05,0.06 0.05,0.069 0.051,0.076 0.05,0.084 0.051,0.092 0.101,0.206 0.05,0.113 0.05,0.12 0.101,0.26 0.051,0.139 0.05,0.144 0.101,0.305 0.05,0.159 0.051,0.164 0.1,0.34 0.202,0.716 0.055,0.2 0.054,0.202 0.11,0.406 0.218,0.811 0.055,0.2 0.054,0.197 0.11,0.385 0.218,0.721 0.055,0.168 0.055,0.162 0.109,0.304 0.055,0.141 0.054,0.134 0.11,0.245 0.054,0.11 0.055,0.101 0.054,0.092 0.055,0.084 0.055,0.074 0.054,0.064 0.055,0.055 0.055,0.045 0.054,0.035 0.055,0.025 0.055,0.015 0.054,0.005 0.055,-0.005 0.055,-0.016 0.054,-0.025 0.055,-0.035 0.055,-0.046 0.054,-0.055 0.055,-0.064 0.054,-0.074 0.055,-0.084 0.055,-0.093 0.054,-0.101 0.055,-0.11 0.055,-0.119 0.054,-0.126 0.11,-0.276 0.054,-0.149 0.055,-0.156 0.109,-0.329 0.055,-0.174 0.054,-0.178 0.11,-0.37 0.218,-0.782 0.051,-0.188 0.051,-0.189 0.102,-0.38 0.205,-0.757 0.051,-0.186 0.051,-0.184 0.102,-0.36 0.204,-0.678 0.051,-0.159 0.051,-0.154 0.102,-0.292 0.051,-0.136 0.051,-0.131 0.102,-0.241 0.051,-0.111 0.051,-0.102 0.051,-0.096 0.051,-0.087 0.051,-0.08 0.051,-0.072 0.051,-0.063 0.051,-0.055 0.051,-0.047 0.051,-0.038 0.051,-0.029 0.051,-0.021 0.051,-0.012 0.051,-0.003 0.051,0.006 0.051,0.015 0.051,0.023 0.051,0.032 0.051,0.041 0.051,0.049 0.051,0.058 0.052,0.066 0.051,0.074 0.051,0.083 0.051,0.09 0.051,0.097 0.102,0.218 0.051,0.12 0.051,0.126 0.102,0.271 0.051,0.145 0.051,0.15 0.102,0.316 0.204,0.684 0.05,0.176 0.05,0.178 0.1,0.364 0.2,0.742 0.05,0.187 0.05,0.186 0.1,0.369 0.2,0.717 0.05,0.173 0.05,0.169 0.1,0.326 0.05,0.157 0.05,0.152 0.101,0.289 0.05,0.136 0.05,0.131 0.05,0.124 0.05,0.117 0.05,0.111 0.05,0.104 0.1,0.186 0.05,0.082 0.05,0.074 0.05,0.067 0.05,0.058 0.05,0.051 0.05,0.042 0.05,0.034 0.05,0.025 0.05,0.017 0.05,0.009 0.05,0 0.05,-0.008 0.05,-0.017 0.05,-0.025 0.05,-0.034 0.05,-0.042 0.05,-0.05 0.05,-0.058 0.05,-0.066 0.05,-0.074 0.05,-0.082 0.05,-0.089 0.1,-0.2 0.05,-0.111 0.05,-0.117 0.1,-0.254 0.05,-0.136 0.05,-0.141 0.101,-0.299 0.054,-0.17 0.054,-0.176 0.109,-0.364 0.217,-0.772 0.054,-0.2 0.054,-0.2 0.109,-0.404 0.217,-0.805 0.054,-0.197 0.054,-0.195 0.109,-0.382 0.054,-0.185 0.054,-0.181 0.109,-0.348 0.054,-0.165 0.054,-0.16 0.109,-0.3 0.054,-0.14 0.054,-0.133 0.109,-0.241 0.054,-0.109 0.054,-0.1 0.055,-0.091 0.054,-0.082 0.054,-0.073 0.055,-0.063 0.054,-0.054 0.054,-0.045 0.054,-0.034 0.055,-0.025 0.054,-0.015 0.054,-0.005 0.054,0.005 0.055,0.015 0.054,0.025 0.054,0.035 0.054,0.045 0.055,0.054 0.054,0.064 0.054,0.073 0.054,0.082 0.055,0.091 0.054,0.101 0.054,0.108 0.055,0.117 0.054,0.125 0.108,0.272 0.055,0.147 0.054,0.154 0.108,0.326 0.051,0.16 0.051,0.164 0.101,0.34 0.203,0.719 0.405,1.501 0.05,0.186 0.051,0.184 0.101,0.362 0.051,0.177 0.051,0.174 0.101,0.336 0.05,0.162 0.051,0.157 0.101,0.3 0.051,0.141 0.051,0.136 0.101,0.252 0.051,0.116 0.05,0.109 0.051,0.102 0.051,0.095 0.05,0.087 0.051,0.079 0.05,0.071 0.051,0.063 0.051,0.055 0.05,0.046 0.051,0.038 0.051,0.03 0.05,0.021 0.051,0.012 0.051,0.004 0.05,-0.005 0.051,-0.014 0.051,-0.022 0.05,-0.031 0.051,-0.04 0.05,-0.048 0.051,-0.056 0.051,-0.065 0.05,-0.072 0.051,-0.081 0.051,-0.088 0.05,-0.096 0.051,-0.103 0.051,-0.111 0.05,-0.117 0.102,-0.254 0.054,-0.148 0.055,-0.156 0.11,-0.329 0.22,-0.722 0.439,-1.598 0.055,-0.204 0.054,-0.204 0.11,-0.404 0.22,-0.778 0.055,-0.186 0.054,-0.181 0.11,-0.347 0.055,-0.165 0.055,-0.158 0.11,-0.297 0.055,-0.138 0.055,-0.13 0.054,-0.122 0.055,-0.113 0.055,-0.105 0.055,-0.096 0.055,-0.087 0.055,-0.078 0.055,-0.068 0.055,-0.058 0.054,-0.049 0.055,-0.038 0.055,-0.029 0.055,-0.018 0.055,-0.008 0.055,0.002 0.055,0.012 0.055,0.022 0.055,0.032 0.054,0.043 0.055,0.052 0.055,0.062 0.055,0.072 0.055,0.081 0.055,0.091 0.055,0.099 0.055,0.108 0.054,0.117 0.055,0.125 0.055,0.133 0.11,0.288 0.054,0.152 0.054,0.158 0.108,0.333 0.215,0.724 0.431,1.578 0.054,0.201 0.054,0.199 0.108,0.395 0.215,0.757 0.054,0.18 0.054,0.176 0.108,0.336 0.054,0.159 0.053,0.154 0.108,0.286 0.054,0.133 0.054,0.125 0.054,0.117 0.054,0.109 0.054,0.101 0.054,0.092 0.053,0.083 0.054,0.075 0.054,0.065 0.054,0.055 0.054,0.047 0.054,0.036 0.054,0.027 0.054,0.017 0.053,0.008 0.054,-0.003 0.054,-0.012 0.054,-0.022 0.054,-0.032 0.054,-0.042 0.054,-0.051 0.054,-0.06 0.053,-0.07 0.054,-0.079 0.054,-0.088 0.054,-0.096 0.054,-0.106 0.054,-0.113 0.054,-0.121 0.054,-0.129 0.107,-0.28 0.051,-0.14 0.05,-0.145 0.1,-0.306 0.202,-0.665 0.402,-1.46 0.05,-0.187 0.05,-0.188 0.101,-0.372 0.201,-0.725 0.05,-0.175 0.05,-0.172 0.101,-0.332 0.201,-0.61 0.05,-0.14 0.05,-0.134 0.051,-0.127 0.05,-0.121 0.05,-0.115 0.05,-0.108 0.101,-0.193 0.05,-0.086 0.05,-0.078 0.051,-0.07 0.05,-0.062 0.05,-0.054 0.05,-0.046 0.051,-0.038 0.05,-0.029 0.05,-0.02 0.05,-0.012 0.051,-0.004 0.05,0.005 0.05,0.014 0.05,0.022 0.051,0.03 0.05,0.039 0.05,0.048 0.051,0.055 0.05,0.064 0.05,0.071 0.05,0.08 0.051,0.087 0.1,0.196 0.055,0.118 0.054,0.127 0.109,0.275 0.055,0.149 0.054,0.155 0.109,0.329 0.055,0.173 0.054,0.177 0.109,0.37 0.218,0.779 0.055,0.201 0.054,0.202 0.109,0.406 0.218,0.807 0.055,0.197 0.054,0.195 0.109,0.38 0.218,0.708 0.055,0.164 0.054,0.158 0.109,0.295 0.055,0.137 0.054,0.129 0.109,0.235 0.055,0.104 0.054,0.096 0.055,0.087 0.054,0.078 0.055,0.069 0.054,0.059 0.055,0.049 0.054,0.039 0.055,0.03 0.054,0.019 0.055,0.01 0.054,-10e-4 0.055,-0.01 0.054,-0.021 0.055,-0.03 0.054,-0.041 0.055,-0.05 0.054,-0.06 0.055,-0.07 0.054,-0.078 0.055,-0.088 0.054,-0.097 0.109,-0.22 0.051,-0.114 0.051,-0.121 0.102,-0.261 0.051,-0.14 0.05,-0.145 0.102,-0.307 0.051,-0.161 0.051,-0.166 0.102,-0.343 0.203,-0.723 0.051,-0.186 0.051,-0.188 0.102,-0.378 0.203,-0.757 0.051,-0.186 0.051,-0.185 0.102,-0.363 0.203,-0.687 0.051,-0.161 0.051,-0.157 0.102,-0.299 0.051,-0.14 0.051,-0.135 0.101,-0.25 0.051,-0.115 0.051,-0.108 0.051,-0.1 0.051,-0.093 0.051,-0.085 0.051,-0.078 0.05,-0.069 0.051,-0.061 0.051,-0.053 0.051,-0.044 0.051,-0.035 0.051,-0.027 0.051,-0.019 0.051,-0.009 0.05,-0.001 0.051,0.008 0.051,0.017 0.051,0.025 0.051,0.034 0.051,0.043 0.051,0.051 0.051,0.059 0.05,0.068 0.051,0.076 0.05,0.082 0.05,0.089 0.05,0.097 0.05,0.104 0.05,0.111 0.05,0.117 0.099,0.254 0.05,0.136 0.05,0.142 0.1,0.298 0.199,0.651 0.05,0.172 0.05,0.175 0.1,0.358 0.199,0.736 0.399,1.467 0.05,0.175 0.05,0.173 0.1,0.335 0.05,0.162 0.05,0.158 0.099,0.3 0.05,0.143 0.05,0.137 0.1,0.256 0.05,0.119 0.05,0.112 0.1,0.204 0.049,0.091 0.05,0.084 0.05,0.076 0.05,0.068 0.05,0.06 0.05,0.053 0.05,0.044 0.05,0.036 0.049,0.028 0.05,0.019 0.05,0.011 0.05,0.003 0.05,-0.006 0.05,-0.014 0.05,-0.023 0.05,-0.031 0.054,-0.043 0.054,-0.053 0.054,-0.062 0.054,-0.071 0.054,-0.081 0.054,-0.089 0.054,-0.099 0.054,-0.106 0.055,-0.116 0.054,-0.123 0.108,-0.269 0.054,-0.145 0.054,-0.152 0.108,-0.323 0.055,-0.169 0.054,-0.175 0.108,-0.364 0.216,-0.77 0.433,-1.604 0.054,-0.197 0.055,-0.195 0.108,-0.38 0.054,-0.185 0.054,-0.181 0.108,-0.347 0.054,-0.166 0.055,-0.159 0.108,-0.301 0.054,-0.14 0.054,-0.132 0.108,-0.242 0.054,-0.109 0.054,-0.101 0.055,-0.091 0.054,-0.083 0.054,-0.074 0.054,-0.064 0.054,-0.055 0.054,-0.045 0.054,-0.035 0.054,-0.026 0.055,-0.016 0.054,-0.006 0.054,0.004 0.054,0.014 0.054,0.024 0.054,0.033 0.051,0.04 0.05,0.049 0.051,0.057 0.05,0.065 0.051,0.072 0.05,0.081 0.051,0.089 0.05,0.096 0.051,0.103 0.05,0.111 0.101,0.241 0.051,0.13 0.05,0.137 0.101,0.289 0.051,0.153 0.05,0.158 0.101,0.329 0.202,0.701 0.404,1.491 0.05,0.187 0.051,0.186 0.101,0.367 0.202,0.703 0.05,0.168 0.051,0.163 0.101,0.312 0.05,0.149 0.051,0.143 0.101,0.269 0.05,0.126 0.051,0.118 0.05,0.112 0.051,0.105 0.05,0.097 0.051,0.09 0.05,0.083 0.051,0.074 0.05,0.066 0.051,0.059 0.05,0.05 0.051,0.042 0.05,0.033 0.051,0.025 0.05,0.016 0.051,0.007 0.055,-10e-4 0.054,-0.012 0.055,-0.022 0.055,-0.032 0.055,-0.042 0.054,-0.051 0.055,-0.062 0.055,-0.071 0.055,-0.08 0.054,-0.09 0.055,-0.099 0.055,-0.107 0.054,-0.116 0.055,-0.124 0.11,-0.271 0.054,-0.147 0.055,-0.154 0.11,-0.326 0.219,-0.717 0.437,-1.591 0.055,-0.204 0.055,-0.204 0.109,-0.403 0.219,-0.779 0.055,-0.186 0.055,-0.181 0.109,-0.349 0.055,-0.165 0.055,-0.16 0.109,-0.3 0.055,-0.139 0.055,-0.131 0.054,-0.123 0.055,-0.116 0.055,-0.107 0.055,-0.098 0.054,-0.089 0.055,-0.079 0.055,-0.071 0.055,-0.061 0.054,-0.051 0.055,-0.041 0.055,-0.031 0.055,-0.021 0.054,-0.011 0.055,-0.001 0.054,0.009 0.053,0.019 0.054,0.028 0.054,0.038 0.054,0.048 0.053,0.057 0.054,0.066 0.054,0.076 0.054,0.084 0.053,0.093 0.054,0.102 0.054,0.11 0.054,0.118 0.053,0.126 0.108,0.274 0.054,0.147 0.053,0.154 0.108,0.325 0.215,0.71 0.43,1.566 0.053,0.2 0.054,0.2 0.107,0.396 0.215,0.764 0.054,0.182 0.054,0.178 0.107,0.343 0.054,0.163 0.054,0.157 0.107,0.295 0.054,0.138 0.054,0.13 0.054,0.122 0.053,0.115 0.054,0.107 0.054,0.098 0.053,0.089 0.054,0.081 0.054,0.072 0.054,0.062 0.053,0.053 0.054,0.044 0.054,0.034 0.054,0.024 0.053,0.015 0.054,0.005 0.05,-0.004 0.05,-0.013 0.05,-0.021 0.051,-0.03 0.05,-0.038 0.05,-0.046 0.05,-0.055 0.05,-0.062 0.05,-0.071 0.05,-0.078 0.05,-0.086 0.05,-0.093 0.051,-0.101 0.05,-0.107 0.1,-0.236 0.05,-0.127 0.05,-0.134 0.1,-0.284 0.201,-0.628 0.05,-0.168 0.05,-0.171 0.1,-0.352 0.201,-0.731 0.05,-0.186 0.05,-0.187 0.1,-0.373 0.201,-0.737 0.05,-0.18 0.05,-0.178 0.1,-0.346 0.201,-0.647 0.05,-0.151 0.05,-0.145 0.1,-0.274 0.05,-0.128 0.05,-0.121 0.1,-0.223 0.051,-0.102 0.05,-0.093 0.05,-0.087 0.05,-0.079 0.05,-0.071 0.05,-0.063 0.05,-0.055 0.05,-0.047 0.055,-0.041 0.054,-0.032 0.054,-0.022 0.055,-0.011 0.054,-0.002 0.055,0.008 0.054,0.018 0.054,0.028 0.055,0.038 0.054,0.048 0.054,0.057 0.055,0.067 0.054,0.076 0.054,0.086 0.055,0.094 0.054,0.103 0.054,0.112 0.055,0.12 0.108,0.263 0.055,0.142 0.054,0.15 0.109,0.318 0.054,0.168 0.055,0.174 0.108,0.361 0.218,0.768 0.054,0.199 0.054,0.2 0.109,0.404 0.218,0.807 0.054,0.199 0.054,0.197 0.109,0.384 0.217,0.723 0.055,0.168 0.054,0.163 0.109,0.306 0.054,0.143 0.055,0.135 0.108,0.249 0.055,0.112 0.054,0.103 0.054,0.095 0.055,0.086 0.054,0.076 0.054,0.068 0.055,0.058 0.054,0.048 0.051,0.036 0.051,0.028 0.05,0.019 0.051,0.01 0.051,10e-4 0.05,-0.007 0.051,-0.016 0.051,-0.024 0.051,-0.033 0.05,-0.042 0.051,-0.05 0.051,-0.058 0.051,-0.067 0.05,-0.075 0.051,-0.082 0.051,-0.091 0.051,-0.098 0.05,-0.105 0.102,-0.232 0.05,-0.126 0.051,-0.132 0.102,-0.283 0.05,-0.149 0.051,-0.155 0.102,-0.324 0.203,-0.694 0.05,-0.182 0.051,-0.183 0.101,-0.373 0.203,-0.755 0.051,-0.188 0.051,-0.188 0.101,-0.371 0.203,-0.715 0.051,-0.17 0.051,-0.167 0.101,-0.32 0.051,-0.153 0.051,-0.147 0.101,-0.278 0.051,-0.13 0.051,-0.123 0.05,-0.116 0.051,-0.11 0.051,-0.102 0.051,-0.095 0.05,-0.087 0.051,-0.08 0.055,-0.077 0.055,-0.067 0.055,-0.058 0.055,-0.048 0.055,-0.038 0.055,-0.028 0.055,-0.017 0.055,-0.008 0.055,0.003 0.055,0.013 0.055,0.024 0.055,0.033 0.055,0.043 0.055,0.054 0.055,0.063 0.055,0.072 0.055,0.083 0.054,0.091 0.055,0.101 0.055,0.109 0.055,0.118 0.055,0.126 0.11,0.275 0.055,0.149 0.055,0.156 0.11,0.33 0.22,0.724 0.055,0.192 0.055,0.195 0.11,0.399 0.22,0.815 0.055,0.205 0.055,0.204 0.11,0.405 0.22,0.778 0.055,0.186 0.055,0.181 0.11,0.346 0.055,0.165 0.055,0.158 0.109,0.297 0.055,0.137 0.055,0.129 0.055,0.121 0.055,0.113 0.055,0.105 0.055,0.095 0.055,0.086 0.055,0.077 0.054,0.066 0.054,0.057 0.054,0.047 0.054,0.037 0.054,0.028 0.054,0.018 0.054,0.008 0.054,-10e-4 0.054,-0.012 0.054,-0.021 0.054,-0.031 0.054,-0.041 0.054,-0.051 0.054,-0.06 0.054,-0.069 0.054,-0.078 0.054,-0.088 0.054,-0.096 0.054,-0.104 0.054,-0.113 0.054,-0.121 0.054,-0.129 0.108,-0.28 0.054,-0.15 0.054,-0.156 0.107,-0.33 0.216,-0.72 0.054,-0.19 0.054,-0.193 0.108,-0.393 0.216,-0.802 0.054,-0.201 0.054,-0.2 0.108,-0.396 0.216,-0.762 0.054,-0.182 0.054,-0.177 0.108,-0.339 0.054,-0.161 0.054,-0.155 0.108,-0.291 0.054,-0.135 0.054,-0.127 0.054,-0.119 0.054,-0.111 0.054,-0.103 0.053,-0.095 0.054,-0.085 0.054,-0.077 0.051,-0.063 0.05,-0.055 0.05,-0.047 0.051,-0.038 0.05,-0.03 0.051,-0.022 0.05,-0.012 0.05,-0.005 0.051,0.004 0.05,0.013 0.05,0.022 0.051,0.029 0.05,0.039 0.05,0.046 0.051,0.055 0.05,0.063 0.05,0.071 0.051,0.079 0.05,0.087 0.05,0.094 0.051,0.102 0.05,0.108 0.101,0.238 0.05,0.128 0.051,0.135 0.1,0.286 0.202,0.633 0.05,0.169 0.05,0.173 0.101,0.354 0.201,0.735 0.051,0.187 0.05,0.188 0.101,0.375 0.201,0.739 0.051,0.181 0.05,0.178 0.101,0.346 0.05,0.168 0.05,0.164 0.101,0.315 0.05,0.15 0.051,0.145 0.1,0.272 0.051,0.127 0.05,0.121 0.101,0.22 0.054,0.108 0.055,0.099 0.055,0.09 0.054,0.081 0.055,0.072 0.054,0.062 0.055,0.053 0.055,0.043 0.054,0.032 0.055,0.023 0.054,0.013 0.055,0.003 0.055,-0.008 0.054,-0.017 0.055,-0.028 0.054,-0.037 0.055,-0.048 0.055,-0.057 0.054,-0.066 0.055,-0.076 0.054,-0.086 0.055,-0.094 0.054,-0.103 0.055,-0.112 0.055,-0.12 0.054,-0.128 0.109,-0.279 0.055,-0.15 0.055,-0.157 0.109,-0.332 0.054,-0.174 0.055,-0.179 0.109,-0.372 0.218,-0.783 0.055,-0.201 0.055,-0.203 0.109,-0.407 0.218,-0.806 0.055,-0.197 0.054,-0.195 0.11,-0.379 0.054,-0.183 0.055,-0.179 0.109,-0.343 0.055,-0.162 0.054,-0.157 0.109,-0.292 0.055,-0.135 0.054,-0.128 0.11,-0.231 0.051,-0.096 0.051,-0.088 0.051,-0.081 0.051,-0.073 0.051,-0.064 0.05,-0.056 0.051,-0.048 0.051,-0.039 0.051,-0.03 0.051,-0.022 0.051,-0.013 0.051,-0.004 0.051,0.005 0.051,0.013 0.051,0.022 0.051,0.031 0.051,0.04 0.051,0.048 0.051,0.056 0.051,0.065 0.051,0.073 0.051,0.081 0.051,0.089 0.051,0.097 0.051,0.104 0.051,0.111 0.102,0.244 0.051,0.131 0.051,0.138 0.102,0.293 0.051,0.154 0.051,0.16 0.102,0.332 0.203,0.709 0.408,1.506 0.051,0.188 0.051,0.188 0.102,0.37 0.204,0.706 0.051,0.168 0.051,0.164 0.102,0.312 0.051,0.149 0.051,0.143 0.102,0.267 0.05,0.122 0.05,0.115 0.05,0.109 0.05,0.101 0.05,0.095 0.05,0.086 0.049,0.08 0.05,0.072 0.05,0.063 0.05,0.056 0.05,0.048 0.05,0.039 0.05,0.031 0.05,0.023 0.05,0.015 0.05,0.006 0.05,-0.003 0.05,-0.011 0.05,-0.019 0.05,-0.028 0.05,-0.036 0.05,-0.044 0.05,-0.053 0.05,-0.06 0.05,-0.069 0.05,-0.076 0.05,-0.084 0.05,-0.091 0.05,-0.098 0.05,-0.106 0.1,-0.232 0.05,-0.125 0.05,-0.132 0.1,-0.28 0.199,-0.622 0.05,-0.166 0.05,-0.17 0.1,-0.349 0.2,-0.726 0.05,-0.185 0.05,-0.186 0.1,-0.373 0.2,-0.737 0.05,-0.18 0.05,-0.178 0.1,-0.347 0.2,-0.651 0.054,-0.165 0.054,-0.158 0.108,-0.297 0.055,-0.138 0.054,-0.131 0.108,-0.238 0.055,-0.107 0.054,-0.098 0.054,-0.089 0.054,-0.081 0.054,-0.071 0.055,-0.061 0.054,-0.053 0.054,-0.042 0.054,-0.033 0.054,-0.023 0.055,-0.013 0.054,-0.003 0.054,0.007 0.054,0.017 0.054,0.027 0.055,0.036 0.054,0.047 0.054,0.056 0.054,0.065 0.054,0.075 0.055,0.084 0.054,0.092 0.054,0.102 0.054,0.11 0.055,0.118 0.054,0.126 0.108,0.275 0.054,0.148 0.055,0.154 0.108,0.328 0.054,0.172 0.054,0.177 0.109,0.367 0.217,0.776 0.054,0.199 0.054,0.201 0.108,0.404 0.217,0.802 0.055,0.197 0.054,0.194 0.108,0.378 0.217,0.707 0.051,0.152 0.05,0.148 0.101,0.278 0.051,0.13 0.051,0.124 0.101,0.227 0.05,0.103 0.051,0.095 0.05,0.088 0.051,0.081 0.051,0.072 0.05,0.064 0.051,0.056 0.05,0.048 0.051,0.039 0.051,0.031 0.05,0.022 0.051,0.014 0.05,0.005 0.051,-0.004 0.05,-0.012 0.051,-0.021 0.051,-0.03 0.05,-0.038 0.051,-0.046 0.05,-0.055 0.051,-0.063 0.051,-0.072 0.05,-0.079 0.051,-0.087 0.05,-0.094 0.051,-0.102 0.101,-0.225 0.051,-0.123 0.05,-0.129 0.101,-0.276 0.051,-0.147 0.051,-0.152 0.101,-0.319 0.202,-0.686 0.051,-0.18 0.05,-0.182 0.102,-0.369 0.202,-0.753 0.405,-1.465 0.054,-0.186 0.055,-0.182 0.11,-0.349 0.055,-0.166 0.055,-0.16 0.109,-0.299 0.055,-0.139 0.055,-0.131 0.055,-0.124 0.054,-0.115 0.055,-0.107 0.055,-0.098 0.055,-0.088 0.055,-0.08 0.055,-0.07 0.054,-0.06 0.055,-0.051 0.055,-0.041 0.055,-0.03 0.055,-0.021 0.055,-0.01 0.054,-0.001 0.055,0.01 0.055,0.02 0.055,0.03 0.055,0.04 0.055,0.05 0.054,0.06 0.055,0.07 0.055,0.079 0.055,0.088 0.055,0.097 0.054,0.106 0.055,0.115 0.055,0.123 0.055,0.131 0.11,0.284 0.054,0.153 0.055,0.16 0.11,0.337 0.219,0.734 0.055,0.193 0.055,0.197 0.11,0.4 0.219,0.815 0.055,0.204 0.054,0.203 0.11,0.401 0.219,0.769 0.054,0.179 0.054,0.175 0.108,0.333 0.054,0.158 0.053,0.152 0.108,0.284 0.054,0.131 0.054,0.124 0.054,0.116 0.053,0.108 0.054,0.099 0.054,0.09 0.054,0.082 0.054,0.073 0.053,0.063 0.054,0.054 0.054,0.045 0.054,0.035 0.054,0.025 0.054,0.016 0.053,0.006 0.054,-0.004 0.054,-0.014 0.054,-0.024 0.054,-0.033 0.054,-0.043 0.053,-0.052 0.054,-0.062 0.054,-0.071 0.054,-0.08 0.054,-0.089 0.054,-0.098 0.053,-0.106 0.054,-0.115 0.054,-0.122 0.054,-0.13 0.107,-0.281 0.054,-0.151 0.054,-0.157 0.108,-0.332 0.215,-0.721 0.054,-0.19 0.054,-0.193 0.107,-0.392 0.216,-0.8 0.43,-1.553 0.051,-0.169 0.05,-0.164 0.1,-0.316 0.05,-0.151 0.051,-0.146 0.1,-0.275 0.05,-0.128 0.05,-0.122 0.051,-0.116 0.05,-0.108 0.05,-0.102 0.05,-0.094 0.05,-0.087 0.051,-0.079 0.05,-0.072 0.05,-0.063 0.05,-0.056 0.05,-0.047 0.051,-0.039 0.05,-0.03 0.05,-0.022 0.05,-0.014 0.05,-0.005 0.051,0.004 0.05,0.012 0.05,0.02 0.05,0.029 0.05,0.038 0.051,0.045 0.05,0.054 0.05,0.062 0.05,0.07 0.05,0.078 0.051,0.085 0.05,0.093 0.05,0.101 0.1,0.221 0.051,0.121 0.05,0.128 0.1,0.272 0.201,0.61 0.05,0.164 0.051,0.167 0.1,0.347 0.201,0.723 0.401,1.489 0.055,0.198 0.054,0.196 0.109,0.381 0.055,0.185 0.054,0.18 0.109,0.347 0.054,0.165 0.055,0.159 0.109,0.298 0.054,0.139 0.055,0.131 0.109,0.238 0.054,0.107 0.054,0.098 0.055,0.089 0.054,0.08 0.055,0.071 0.054,0.061 0.055,0.051 0.054,0.042 0.055,0.032 0.054,0.022 0.054,0.012 0.055,0.002 0.054,-0.008 0.055,-0.018 0.054,-0.028 0.055,-0.037 0.054,-0.048 0.055,-0.058 0.054,-0.066 0.054,-0.077 0.055,-0.085 0.054,-0.095 0.055,-0.103 0.054,-0.112 0.055,-0.12 0.054,-0.128 0.109,-0.278 0.054,-0.15 0.055,-0.156 0.109,-0.331 0.054,-0.174 0.055,-0.179 0.109,-0.37 0.217,-0.781 0.436,-1.613 0.051,-0.184 0.05,-0.182 0.102,-0.354 0.051,-0.172 0.051,-0.169 0.101,-0.324 0.051,-0.155 0.051,-0.149 0.102,-0.282 0.051,-0.133 0.05,-0.125 0.102,-0.231 0.051,-0.105 0.051,-0.098 0.05,-0.09 0.051,-0.082 0.051,-0.074 0.051,-0.067 0.051,-0.057 0.051,-0.05 0.05,-0.041 0.051,-0.032 0.051,-0.024 0.051,-0.015 0.051,-0.007 0.051,0.003 0.05,0.011 0.051,0.02 0.051,0.028 0.051,0.037 0.051,0.046 0.05,0.054 0.051,0.062 0.051,0.071 0.051,0.079 0.051,0.086 0.051,0.094 0.05,0.102 0.102,0.225 0.051,0.122 0.051,0.13 0.101,0.276 0.051,0.148 0.051,0.152 0.102,0.32 0.203,0.688 0.407,1.491 0.049,0.185 0.05,0.185 0.1,0.366 0.199,0.708 0.05,0.17 0.05,0.166 0.099,0.321 0.2,0.583 0.05,0.132 0.049,0.126 0.05,0.12 0.05,0.114 0.05,0.106 0.05,0.1 0.049,0.092 0.05,0.085 0.05,0.078 0.05,0.069 0.05,0.062 0.05,0.054 0.049,0.046 0.05,0.037 0.05,0.03 0.05,0.021 0.05,0.013 0.049,0.004 0.05,-0.004 0.05,-0.013 0.05,-0.021 0.05,-0.029 0.05,-0.037 0.049,-0.046 0.05,-0.054 0.05,-0.061 0.05,-0.07 0.05,-0.077 0.05,-0.085 0.049,-0.092 0.1,-0.206 0.05,-0.113 0.05,-0.12 0.099,-0.258 0.2,-0.583 0.049,-0.158 0.05,-0.162 0.1,-0.336 0.199,-0.708 0.054,-0.198 0.054,-0.2 0.108,-0.402 0.217,-0.802 0.054,-0.198 0.054,-0.195 0.108,-0.382 0.216,-0.717 0.054,-0.167 0.054,-0.161 0.108,-0.304 0.054,-0.142 0.055,-0.134 0.108,-0.246 0.054,-0.111 0.054,-0.103 0.054,-0.094 0.054,-0.085 0.054,-0.076 0.054,-0.067 0.054,-0.058 0.054,-0.048 0.054,-0.038 0.054,-0.028 0.054,-0.019 0.054,-0.009 0.054,0.001 0.055,0.011 0.054,0.021 0.054,0.03 0.054,0.041 0.054,0.05 0.054,0.059 0.054,0.069 0.054,0.078 0.054,0.087 0.054,0.096 0.054,0.105 0.054,0.112 0.054,0.121 0.108,0.265 0.054,0.143 0.055,0.15 0.108,0.319 0.054,0.168 0.054,0.174 0.108,0.36 0.216,0.766 0.051,0.185 0.05,0.186 0.101,0.374 0.202,0.75 0.05,0.186 0.051,0.183 0.1,0.361 0.202,0.685 0.051,0.161 0.05,0.157 0.101,0.298 0.05,0.142 0.051,0.135 0.101,0.252 0.05,0.116 0.051,0.109 0.05,0.102 0.05,0.095 0.051,0.087 0.05,0.08 0.051,0.072 0.05,0.063 0.051,0.056 0.05,0.047 0.051,0.039 0.05,0.03 0.05,0.022 0.051,0.013 0.05,0.005 0.051,-0.004 0.05,-0.013 0.051,-0.021 0.05,-0.03 0.051,-0.038 0.05,-0.046 0.05,-0.055 0.051,-0.063 0.05,-0.071 0.051,-0.079 0.05,-0.087 0.051,-0.094 0.05,-0.101 0.05,-0.109 0.051,-0.116 0.101,-0.25 0.05,-0.135 0.051,-0.141 0.101,-0.298 0.201,-0.652 0.055,-0.187 0.055,-0.192 0.109,-0.391 0.219,-0.808 0.054,-0.204 0.055,-0.203 0.11,-0.405 0.218,-0.786 0.055,-0.188 0.055,-0.185 0.109,-0.354 0.055,-0.17 0.054,-0.164 0.11,-0.308 0.054,-0.144 0.055,-0.136 0.055,-0.129 0.054,-0.121 0.055,-0.112 0.055,-0.104 0.054,-0.095 0.055,-0.087 0.055,-0.076 0.054,-0.068 0.055,-0.057 0.055,-0.048 0.055,-0.038 0.054,-0.028 0.055,-0.018 0.055,-0.008 0.054,0.002 0.055,0.012 0.055,0.022 0.054,0.033 0.055,0.042 0.055,0.052 0.054,0.062 0.055,0.072 0.055,0.081 0.054,0.09 0.055,0.099 0.055,0.107 0.054,0.117 0.055,0.124 0.109,0.272 0.055,0.147 0.055,0.154 0.109,0.326 0.219,0.717 0.051,0.178 0.051,0.18 0.102,0.369 0.204,0.755 0.051,0.19 0.052,0.19 0.102,0.379 0.204,0.735 0.051,0.178 0.051,0.174 0.102,0.336 0.051,0.162 0.051,0.157 0.102,0.298 0.051,0.14 0.051,0.135 0.052,0.128 0.051,0.121 0.051,0.114 0.051,0.107 0.051,0.1 0.051,0.092 0.051,0.084 0.051,0.077 0.051,0.068 0.051,0.06 0.051,0.051 0.051,0.043 0.051,0.034 0.051,0.025 0.051,0.017 0.051,0.008 0.051,-10e-4 0.052,-0.01 0.051,-0.018 0.051,-0.027 0.051,-0.036 0.051,-0.045 0.051,-0.053 0.051,-0.062 0.051,-0.069 0.051,-0.078 0.051,-0.086 0.051,-0.094 0.102,-0.21 0.051,-0.115 0.051,-0.123 0.102,-0.265 0.052,-0.141 0.051,-0.148 0.102,-0.31 0.05,-0.16 0.05,-0.164 0.1,-0.338 0.2,-0.713 0.401,-1.485 0.05,-0.183 0.05,-0.182 0.1,-0.358 0.05,-0.174 0.05,-0.172 0.1,-0.331 0.05,-0.16 0.05,-0.155 0.1,-0.296 0.05,-0.14 0.05,-0.134 0.101,-0.249 0.05,-0.115 0.05,-0.108 0.05,-0.102 0.05,-0.094 0.05,-0.086 0.05,-0.079 0.05,-0.071 0.05,-0.064 0.05,-0.055 0.05,-0.047 0.05,-0.039 0.05,-0.031 0.05,-0.022 0.05,-0.013 0.05,-0.006 0.051,0.003 0.05,0.012 0.05,0.02 0.05,0.029 0.05,0.037 0.05,0.045 0.05,0.053 0.05,0.062 0.05,0.069 0.05,0.077 0.05,0.085 0.05,0.092 0.05,0.1 0.05,0.106 0.05,0.114 0.1,0.246 0.055,0.144 0.054,0.151 0.109,0.321 0.217,0.706 0.434,1.574 0.055,0.202 0.054,0.202 0.108,0.401 0.218,0.777 0.054,0.187 0.054,0.182 0.109,0.35 0.054,0.167 0.054,0.161 0.109,0.303 0.054,0.142 0.055,0.134 0.054,0.126 0.054,0.119 0.054,0.11 0.055,0.102 0.054,0.093 0.054,0.084 0.055,0.075 0.054,0.065 0.054,0.056 0.055,0.047 0.054,0.036 0.054,0.027 0.054,0.017 0.055,0.007 0.054,-0.003 0.054,-0.014 0.055,-0.023 0.054,-0.032 0.054,-0.043 0.055,-0.052 0.054,-0.062 0.054,-0.072 0.054,-0.08 0.055,-0.09 0.054,-0.099 0.054,-0.107 0.055,-0.115 0.054,-0.123 0.109,-0.27 0.05,-0.136 0.051,-0.142 0.101,-0.3 0.203,-0.656 0.405,-1.461 0.051,-0.188 0.051,-0.189 0.101,-0.377 0.203,-0.737 0.05,-0.178 0.051,-0.175 0.102,-0.341 0.202,-0.628 0.051,-0.144 0.051,-0.138 0.101,-0.258 0.051,-0.12 0.05,-0.112 0.102,-0.204 0.05,-0.09 0.051,-0.083 0.051,-0.075 0.05,-0.067 0.051,-0.059 0.051,-0.05 0.05,-0.042 0.051,-0.034 0.051,-0.024 0.05,-0.017 0.051,-0.007 0.051,0.001 0.05,0.01 0.051,0.018 0.051,0.027 0.05,0.036 0.051,0.044 0.051,0.053 0.051,0.061 0.05,0.069 0.051,0.077 0.051,0.085 0.101,0.192 0.055,0.117 0.055,0.125 0.11,0.273 0.054,0.147 0.055,0.155 0.11,0.328 0.055,0.173 0.055,0.178 0.11,0.37 0.22,0.783 0.054,0.202 0.055,0.203 0.11,0.409 0.22,0.814 0.055,0.199 0.055,0.197 0.11,0.383 0.219,0.716 0.055,0.165 0.055,0.16 0.11,0.298 0.055,0.138 0.055,0.131 0.11,0.237 0.054,0.105 0.055,0.097 0.055,0.088 0.055,0.078 0.055,0.069 0.055,0.059 0.055,0.049 0.055,0.04 0.055,0.029 0.055,0.019 0.055,0.009 0.055,-10e-4 0.054,-0.012 0.055,-0.021 0.055,-0.032 0.055,-0.042 0.055,-0.051 0.055,-0.062 0.055,-0.071 0.055,-0.081 0.055,-0.09 0.055,-0.099 0.11,-0.224 0.053,-0.122 0.054,-0.13 0.108,-0.281 0.054,-0.151 0.054,-0.157 0.108,-0.332 0.054,-0.174 0.054,-0.179 0.108,-0.369 0.215,-0.777 0.054,-0.199 0.054,-0.2 0.108,-0.402 0.216,-0.796 0.053,-0.194 0.054,-0.192 0.108,-0.373 0.216,-0.695 0.054,-0.16 0.054,-0.154 0.108,-0.288 0.053,-0.134 0.054,-0.126 0.108,-0.228 0.054,-0.102 0.054,-0.093 0.054,-0.085 0.054,-0.075 0.054,-0.066 0.054,-0.057 0.054,-0.047 0.054,-0.038 0.053,-0.028 0.054,-0.018 0.054,-0.008 0.054,0.001 0.054,0.012 0.054,0.021 0.054,0.031 0.054,0.04 0.054,0.05 0.054,0.06 0.054,0.069 0.054,0.078 0.053,0.087 0.054,0.096 0.108,0.217 0.051,0.112 0.05,0.119 0.1,0.257 0.051,0.138 0.05,0.143 0.101,0.303 0.05,0.158 0.05,0.163 0.101,0.338 0.201,0.712 0.05,0.184 0.051,0.186 0.1,0.373 0.201,0.748 0.051,0.185 0.05,0.184 0.1,0.36 0.202,0.685 0.05,0.161 0.05,0.157 0.101,0.3 0.05,0.142 0.05,0.135 0.101,0.254 0.05,0.117 0.051,0.11 0.05,0.103 0.05,0.096 0.05,0.089 0.051,0.081 0.05,0.073 0.05,0.065 0.051,0.057 0.05,0.049 0.05,0.04 0.051,0.032 0.05,0.024 0.05,0.015 0.05,0.006 0.051,-0.002 0.05,-0.01 0.05,-0.019 0.051,-0.028 0.05,-0.036 0.05,-0.044 0.05,-0.053 0.051,-0.061 0.05,-0.068 0.055,-0.084 0.054,-0.093 0.055,-0.101 0.054,-0.11 0.055,-0.118 0.054,-0.127 0.109,-0.275 0.055,-0.149 0.054,-0.155 0.109,-0.329 0.219,-0.721 0.054,-0.191 0.055,-0.193 0.109,-0.396 0.218,-0.809 0.054,-0.203 0.055,-0.203 0.109,-0.401 0.218,-0.773 0.055,-0.184 0.054,-0.18 0.109,-0.344 0.055,-0.164 0.054,-0.158 0.109,-0.295 0.055,-0.137 0.055,-0.129 0.054,-0.121 0.055,-0.114 0.054,-0.104 0.055,-0.096 0.054,-0.087 0.055,-0.078 0.054,-0.068 0.055,-0.059 0.054,-0.049 0.055,-0.039 0.054,-0.029 0.055,-0.02 0.054,-0.009 0.055,0.001 0.055,0.011 0.054,0.021 0.055,0.03 0.054,0.041 0.055,0.051 0.054,0.06 0.055,0.07 0.054,0.079 0.051,0.082 0.051,0.09 0.051,0.098 0.051,0.105 0.051,0.112 0.051,0.119 0.102,0.258 0.051,0.139 0.05,0.144 0.102,0.305 0.204,0.666 0.051,0.176 0.051,0.179 0.102,0.366 0.203,0.752 0.408,1.493 0.05,0.178 0.051,0.175 0.102,0.338 0.051,0.163 0.051,0.158 0.102,0.301 0.051,0.142 0.051,0.136 0.051,0.13 0.05,0.124 0.051,0.116 0.051,0.11 0.102,0.196 0.051,0.087 0.051,0.08 0.051,0.071 0.051,0.062 0.051,0.055 0.051,0.046 0.051,0.038 0.05,0.028 0.051,0.021 0.051,0.011 0.051,0.003 0.051,-0.006 0.051,-0.015 0.051,-0.024 0.051,-0.032 0.051,-0.041 0.05,-0.048 0.05,-0.057 0.049,-0.064 0.05,-0.072 0.05,-0.08 0.05,-0.088 0.1,-0.197 0.05,-0.109 0.05,-0.115 0.1,-0.251 0.05,-0.134 0.05,-0.14 0.099,-0.296 0.05,-0.155 0.05,-0.16 0.1,-0.332 0.2,-0.702 0.399,-1.478 0.05,-0.184 0.05,-0.183 0.1,-0.36 0.199,-0.688 0.05,-0.163 0.05,-0.158 0.1,-0.304 0.05,-0.144 0.05,-0.139 0.1,-0.259 0.049,-0.121 0.05,-0.114 0.05,-0.107 0.05,-0.1 0.05,-0.093 0.05,-0.086 0.05,-0.078 0.05,-0.07 0.05,-0.063 0.05,-0.054 0.05,-0.047 0.05,-0.038 0.049,-0.03 0.05,-0.021 0.05,-0.013 0.05,-0.005 0.054,0.005 0.054,0.014 0.055,0.024 0.054,0.034 0.054,0.044 0.054,0.054 0.054,0.063 0.054,0.072 0.055,0.081 0.054,0.091 0.054,0.099 0.054,0.108 0.054,0.116 0.054,0.124 0.109,0.27 0.054,0.146 0.054,0.153 0.108,0.324 0.217,0.711 0.433,1.573 0.054,0.202 0.054,0.202 0.109,0.399 0.216,0.772 0.054,0.184 0.055,0.181 0.108,0.346 0.054,0.165 0.054,0.159 0.108,0.299 0.055,0.139 0.054,0.132 0.054,0.124 0.054,0.117 0.054,0.107 0.054,0.1 0.055,0.091 0.054,0.081 0.054,0.073 0.054,0.063 0.054,0.054 0.054,0.044 0.054,0.034 0.055,0.024 0.054,0.015 0.054,0.005 0.05,-0.005 0.051,-0.013 0.05,-0.022 0.051,-0.03 0.051,-0.039 0.05,-0.047 0.051,-0.056 0.05,-0.063 0.051,-0.072 0.05,-0.08 0.051,-0.087 0.05,-0.095 0.051,-0.103 0.05,-0.109 0.101,-0.24 0.051,-0.129 0.05,-0.136 0.102,-0.289 0.202,-0.637 0.05,-0.17 0.051,-0.174 0.101,-0.356 0.202,-0.738 0.05,-0.188 0.051,-0.188 0.101,-0.377 0.202,-0.741 0.051,-0.181 0.05,-0.178 0.101,-0.347 0.202,-0.645 0.051,-0.15 0.05,-0.144 0.102,-0.27 0.05,-0.126 0.051,-0.12 0.101,-0.218 0.05,-0.099 0.051,-0.09 0.05,-0.084 0.051,-0.075 0.05,-0.067 0.051,-0.06 0.05,-0.051 0.051,-0.042 0.056,-0.038 0.057,-0.027 0.056,-0.016 0.057,-0.006 0.056,0.005 0.056,0.016 0.057,0.027 0.056,0.038 0.057,0.047 0.056,0.059 0.056,0.068 0.057,0.079 0.056,0.088 0.057,0.099 0.056,0.107 0.056,0.117 0.057,0.125 0.056,0.134 0.113,0.292 0.056,0.157 0.057,0.164 0.113,0.348 0.056,0.182 0.056,0.188 0.113,0.388 0.226,0.816 0.056,0.209 0.057,0.209 0.113,0.421 0.225,0.828 0.057,0.201 0.056,0.198 0.113,0.383 0.225,0.703 0.057,0.16 0.056,0.153 0.057,0.145 0.056,0.137 0.057,0.129 0.056,0.12 0.056,0.111 0.057,0.102 0.056,0.092 0.057,0.083 0.056,0.073 0.056,0.062 0.057,0.052 0.056,0.041 0.057,0.031 0.056,0.021"
                       style="fill:none;stroke:#000000;stroke-width:1.37;stroke-linecap:square;stroke-linejoin:miter;stroke-miterlimit:3.25;stroke-opacity:1;stroke-dasharray:none"
                       id="path6793" />
                  </g>
                </g>
                <g
                   id="g6795">
                  <g
                     id="g6797"
                     clip-path="url(#clipPath6799)" />
                </g>
              </g>
            </g>
          </g>
        </g>
      </g>
    </g>
    <path
       inkscape:connector-curvature="0"
       id="path6832"
       d="m 374.07407,551.12761 -270.31784,0"
       style="fill:none;stroke:#426ab5;stroke-width:2.95944214000000017;stroke-linecap:butt;stroke-linejoin:miter;stroke-miterlimit:4;stroke-opacity:1;stroke-dasharray:none;marker-mid:none" />
    <path
       sodipodi:open="true"
       sodipodi:end="6.2308254"
       sodipodi:start="3.1415927"
       transform="matrix(1.0806767,0,0,1.062061,-88.300993,-100.19872)"
       d="M 176.54323,612.85601 A 252.46913,259.25925 0 0 1 681.13549,599.28743"
       sodipodi:ry="259.25925"
       sodipodi:rx="252.46913"
       sodipodi:cy="612.85602"
       sodipodi:cx="429.01236"
       id="path6834"
       style="fill:none;stroke:#426ab5;stroke-width:3;stroke-linecap:round;stroke-linejoin:round;stroke-miterlimit:4;stroke-opacity:1;stroke-dasharray:none;stroke-dashoffset:0;marker-mid:none"
       sodipodi:type="arc" />
    <path
       style="fill:none;stroke:#426ab5;stroke-width:2.95944214;stroke-linecap:butt;stroke-linejoin:miter;stroke-miterlimit:4;stroke-opacity:1;stroke-dasharray:none"
       d="m 647.07407,537.37761 -270.31784,0"
       id="path6838"
       inkscape:connector-curvature="0" />
    <g
       transform="matrix(0.51426495,0,0,0.51426495,194.30931,58.10245)"
       id="g6921">
      <g
         style="font-style:normal;font-variant:normal;font-weight:normal;font-stretch:normal;letter-spacing:normal;word-spacing:normal;text-anchor:start;fill:none;stroke:#000000;stroke-linecap:butt;stroke-linejoin:miter;stroke-miterlimit:10.43299961;stroke-opacity:1;stroke-dasharray:none;stroke-dashoffset:0"
         word-spacing="normal"
         letter-spacing="normal"
         font-size-adjust="none"
         font-stretch="normal"
         font-weight="normal"
         font-variant="normal"
         font-style="normal"
         stroke-miterlimit="10.433"
         xml:space="preserve"
         transform="matrix(1.0629921,0,0,-1.0629921,-186.02362,789.27165)"
         id="content"><path
           style="fill:#000000;stroke-width:0"
           inkscape:connector-curvature="0"
           id="path6924"
           d="m 466.72,436.34 0,0.16 0.01,0.16 0,0.15 0.01,0.15 0.01,0.13 0.01,0.13 0.02,0.13 0.03,0.11 0.03,0.12 0.04,0.1 0.05,0.1 0.05,0.09 0.06,0.09 0.08,0.08 0.08,0.08 0.09,0.07 0.11,0.06 0.12,0.06 0.06,0.03 0.07,0.03 0.07,0.02 0.07,0.03 0.08,0.02 0.08,0.02 0.08,0.02 0.09,0.02 0.09,0.02 0.1,0.02 0.1,0.02 0.11,0.01 0.1,0.01 0.12,0.02 0.11,0.01 0.13,0.01 0.12,0.01 0.13,0.01 0.14,0.01 0.14,0.01 0.15,0 0.15,0.01 0.15,0 0.16,0.01 0.17,0 0.17,0 0.17,0 0.19,0 h 1.29 v 1.55 c -1.75,-0.16 -5.68,-0.16 -7.57,-0.16 -1.94,0 -5.88,0 -7.63,0.16 v -1.55 h 1.3 c 3.93,0 4.09,-0.54 4.09,-2.34 v -26.25 c 0,-1.8 -0.16,-2.34 -4.09,-2.34 h -1.3 v -1.55 c 1.75,0.16 5.69,0.16 7.58,0.16 1.94,0 5.87,0 7.62,-0.16 v 1.55 h -1.29 c -3.94,0 -4.1,0.54 -4.1,2.34 z" /><path
           style="fill:#000000;stroke-width:0"
           inkscape:connector-curvature="0"
           id="path6926"
           d="m 479,423.34 v -13.36 c 0,-2.23 -0.54,-2.23 -3.89,-2.23 v -1.55 c 1.75,0.05 4.28,0.16 5.63,0.16 1.3,0 3.89,-0.11 5.58,-0.16 v 1.55 c -3.33,0 -3.88,0 -3.88,2.23 v 9.17 c 0,5.19 3.53,7.97 6.72,7.97 3.14,0 3.69,-2.69 3.69,-5.53 v -11.61 c 0,-2.23 -0.55,-2.23 -3.89,-2.23 v -1.55 c 1.75,0.05 4.29,0.16 5.64,0.16 1.29,0 3.87,-0.11 5.58,-0.16 v 1.55 c -3.35,0 -3.89,0 -3.89,2.23 v 9.17 c 0,5.19 3.54,7.97 6.73,7.97 3.14,0 3.69,-2.69 3.69,-5.53 v -11.61 c 0,-2.23 -0.55,-2.23 -3.89,-2.23 v -1.55 c 1.73,0.05 4.28,0.16 5.62,0.16 1.3,0 3.89,-0.11 5.58,-0.16 v 1.55 c -2.58,0 -3.83,0 -3.88,1.5 v 9.51 c 0,4.28 0,5.83 -1.54,7.61 -0.71,0.86 -2.35,1.84 -5.24,1.84 -4.18,0 -6.37,-2.98 -7.22,-4.87 -0.7,4.33 -4.39,4.87 -6.62,4.87 -3.64,0 -5.98,-2.14 -7.38,-5.21 v 5.21 l -7.03,-0.54 v -1.55 c 3.49,0 3.89,-0.34 3.89,-2.78 z" /><path
           style="fill:#000000;stroke-width:0"
           inkscape:connector-curvature="0"
           id="path6928"
           d="m 531.52,394.25 0,0.02 0,0.03 0,0.01 0,0.02 -0.01,0.01 0,0.02 -0.01,0.01 0,0.02 -0.01,0.02 -0.01,0.02 -0.01,0.02 -0.02,0.03 -0.01,0.02 -0.02,0.03 -0.02,0.03 -0.03,0.03 -0.02,0.03 -0.03,0.04 -0.02,0.02 -0.02,0.02 -0.01,0.02 -0.02,0.02 -0.02,0.02 -0.02,0.03 -0.02,0.02 -0.02,0.02 -0.03,0.03 -0.02,0.02 -0.02,0.03 -0.03,0.03 -0.03,0.03 -0.02,0.03 -0.03,0.03 -0.03,0.03 -0.03,0.03 -0.03,0.03 -0.04,0.04 -0.03,0.03 -0.04,0.04 -0.03,0.03 -0.04,0.04 -0.04,0.04 c -6.22,6.28 -7.81,15.69 -7.81,23.31 0,8.67 1.89,17.35 8.01,23.56 0.64,0.61 0.64,0.71 0.64,0.86 0,0.35 -0.18,0.49 -0.48,0.49 -0.5,0 -4.99,-3.38 -7.92,-9.7 -2.55,-5.49 -3.14,-11.02 -3.14,-15.21 0,-3.89 0.54,-9.9 3.28,-15.54 2.98,-6.13 7.28,-9.36 7.78,-9.36 0.3,0 0.48,0.14 0.48,0.5 z" /><path
           style="fill:#000000;stroke-width:0"
           inkscape:connector-curvature="0"
           id="path6930"
           d="m 540.98,410.34 0.25,0.27 0.24,0.25 0.23,0.25 0.23,0.24 0.23,0.23 0.21,0.22 0.21,0.22 0.21,0.21 0.2,0.2 0.2,0.19 0.19,0.19 0.19,0.19 0.18,0.17 0.18,0.18 0.35,0.33 0.34,0.32 0.34,0.3 0.33,0.29 0.32,0.29 0.65,0.56 0.32,0.29 0.34,0.28 c 0,0.05 3.08,2.69 4.87,4.49 4.74,4.64 5.83,7.03 5.83,7.21 0,0.5 -0.45,0.5 -0.55,0.5 -0.34,0 -0.5,-0.09 -0.75,-0.54 -1.48,-2.39 -2.53,-3.19 -3.73,-3.19 -1.2,0 -1.8,0.75 -2.55,1.59 -0.94,1.16 -1.78,2.14 -3.44,2.14 -3.73,0 -6.01,-4.62 -6.01,-5.67 0,-0.25 0.14,-0.54 0.59,-0.54 0.46,0 0.55,0.25 0.64,0.54 0.96,2.3 3.85,2.35 4.24,2.35 1.04,0 2,-0.36 3.14,-0.75 2,-0.75 2.55,-0.75 3.84,-0.75 -1.79,-2.14 -5.98,-5.74 -6.92,-6.53 l -4.48,-4.18 c -3.39,-3.34 -5.14,-6.18 -5.14,-6.53 0,-0.5 0.5,-0.5 0.59,-0.5 0.41,0 0.5,0.1 0.8,0.64 1.15,1.75 2.64,3.1 4.23,3.1 1.16,0 1.66,-0.46 2.89,-1.89 0.86,-1.05 1.75,-1.85 3.19,-1.85 4.94,0 7.83,6.33 7.83,7.67 0,0.25 -0.21,0.5 -0.6,0.5 -0.45,0 -0.54,-0.29 -0.7,-0.65 -1.14,-3.24 -4.33,-4.17 -5.98,-4.17 -0.99,0 -1.9,0.29 -2.94,0.64 -1.69,0.64 -2.44,0.84 -3.49,0.84 -0.09,0 -0.89,0 -1.34,-0.14 z" /><path
           style="fill:#000000;stroke-width:0"
           inkscape:connector-curvature="0"
           id="path6932"
           d="m 574.06,418.65 0,0.37 0,0.39 -0.01,0.39 -0.02,0.41 -0.04,0.84 -0.06,0.88 -0.08,0.92 -0.1,0.95 -0.14,0.97 -0.16,1.01 -0.2,1.02 -0.23,1.03 -0.27,1.05 -0.3,1.06 -0.35,1.07 -0.39,1.07 -0.22,0.53 -0.22,0.53 -0.24,0.53 -0.25,0.53 c -2.98,6.12 -7.26,9.36 -7.76,9.36 -0.3,0 -0.5,-0.19 -0.5,-0.49 0,-0.15 0,-0.25 0.93,-1.15 4.89,-4.92 7.74,-12.85 7.74,-23.27 0,-8.51 -1.85,-17.28 -8.03,-23.56 -0.64,-0.59 -0.64,-0.7 -0.64,-0.84 0,-0.3 0.2,-0.5 0.5,-0.5 0.5,0 4.96,3.39 7.92,9.71 2.53,5.47 3.12,11 3.12,15.19 z" /></g>    </g>
    <g
       transform="translate(375,210)"
       id="g7108">
      <g
         style="font-style:normal;font-variant:normal;font-weight:normal;font-stretch:normal;letter-spacing:normal;word-spacing:normal;text-anchor:start;fill:none;stroke:#000000;stroke-linecap:butt;stroke-linejoin:miter;stroke-miterlimit:10.43299961;stroke-opacity:1;stroke-dasharray:none;stroke-dashoffset:0"
         id="g7110"
         transform="matrix(0.51089413,0,0,-0.51089413,67.68422,555.63307)"
         xml:space="preserve"
         stroke-miterlimit="10.433"
         font-style="normal"
         font-variant="normal"
         font-weight="normal"
         font-stretch="normal"
         font-size-adjust="none"
         letter-spacing="normal"
         word-spacing="normal"><path
           style="fill:#000000;stroke-width:0"
           inkscape:connector-curvature="0"
           d="m 477.19,423.14 0.45,0.12 0.44,0.12 0.44,0.14 0.43,0.15 0.42,0.16 0.42,0.17 0.4,0.18 0.4,0.19 0.39,0.19 0.37,0.21 0.37,0.22 0.35,0.22 0.34,0.23 0.33,0.24 0.32,0.25 0.3,0.26 0.29,0.27 0.27,0.27 0.26,0.28 0.24,0.29 0.23,0.29 0.21,0.31 0.19,0.3 0.18,0.32 0.15,0.32 0.14,0.33 0.12,0.33 0.09,0.35 0.08,0.34 0.06,0.35 0.03,0.36 0.01,0.36 c 0,4.78 -5.67,8.97 -13,8.97 h -15.64 v -1.55 h 1.19 c 3.84,0 3.93,-0.54 3.93,-2.34 v -26.25 c 0,-1.8 -0.09,-2.34 -3.93,-2.34 h -1.19 v -1.55 c 1.78,0.16 5.33,0.16 7.27,0.16 1.93,0 5.48,0 7.28,-0.16 v 1.55 h -1.21 c -3.82,0 -3.93,0.54 -3.93,2.34 v 12.59 1.11 12.89 c 0,1.16 0,1.75 1.09,1.91 0.5,0.09 1.95,0.09 2.95,0.09 4.47,0 10.07,-0.2 10.07,-7.42 0,-3.44 -1.21,-7.47 -8.58,-7.47 h -5.53 v -1.11 h 5.73 c 0.8,0 2.89,0 4.63,-1.68 1.9,-1.8 1.9,-3.35 1.9,-6.68 0,-3.25 0,-5.23 2.03,-7.12 2.05,-1.8 4.78,-2.09 6.28,-2.09 3.89,0 4.74,4.07 4.74,5.48 0,0.3 0,0.84 -0.64,0.84 -0.55,0 -0.55,-0.45 -0.61,-0.79 -0.3,-3.55 -2.03,-4.44 -3.28,-4.44 -2.44,0 -2.85,2.55 -3.55,7.17 l -0.64,3.99 c -0.89,3.18 -3.34,4.84 -6.08,5.78 z"
           id="path7112" /><path
           style="fill:#000000;stroke-width:0"
           inkscape:connector-curvature="0"
           d="m 497.77,417.71 0.05,1.05 c 0.29,7.42 4.48,8.66 6.18,8.66 5.13,0 5.63,-6.72 5.63,-8.66 h -11.81 l -0.05,-1.05 h 13.91 c 1.09,0 1.23,0 1.23,1.05 0,4.92 -2.69,9.75 -8.91,9.75 -5.78,0 -10.37,-5.12 -10.37,-11.36 0,-6.67 5.23,-11.5 10.97,-11.5 6.08,0 8.31,5.53 8.31,6.47 0,0.5 -0.39,0.61 -0.64,0.61 -0.45,0 -0.55,-0.3 -0.66,-0.7 -1.73,-5.13 -6.22,-5.13 -6.72,-5.13 -2.5,0 -4.48,1.49 -5.62,3.33 -1.5,2.39 -1.5,5.69 -1.5,7.48 z"
           id="path7114" /><path
           style="fill:#000000;stroke-width:0"
           inkscape:connector-curvature="0"
           d="m 530.8,394.25 0,0.02 0,0.03 0,0.01 0,0.02 -0.01,0.01 0,0.02 -0.01,0.01 0,0.02 -0.01,0.02 -0.01,0.02 -0.02,0.02 -0.01,0.03 -0.02,0.02 -0.01,0.03 -0.03,0.03 -0.02,0.03 -0.03,0.03 -0.03,0.04 -0.01,0.02 -0.02,0.02 -0.01,0.02 -0.02,0.02 -0.02,0.02 -0.02,0.03 -0.02,0.02 -0.03,0.02 -0.02,0.03 -0.02,0.02 -0.03,0.03 -0.02,0.03 -0.03,0.03 -0.03,0.03 -0.02,0.03 -0.03,0.03 -0.04,0.03 -0.03,0.03 -0.03,0.04 -0.03,0.03 -0.04,0.04 -0.04,0.03 -0.03,0.04 -0.04,0.04 c -6.22,6.28 -7.81,15.69 -7.81,23.31 0,8.67 1.88,17.35 8.01,23.56 0.64,0.61 0.64,0.71 0.64,0.86 0,0.35 -0.19,0.49 -0.48,0.49 -0.5,0 -4.99,-3.38 -7.92,-9.7 -2.55,-5.49 -3.15,-11.02 -3.15,-15.21 0,-3.89 0.55,-9.9 3.28,-15.54 2.99,-6.13 7.29,-9.36 7.79,-9.36 0.29,0 0.48,0.14 0.48,0.5 z"
           id="path7116" /><path
           style="fill:#000000;stroke-width:0"
           inkscape:connector-curvature="0"
           d="m 540.26,410.34 0.25,0.27 0.24,0.25 0.23,0.25 0.23,0.24 0.22,0.23 0.22,0.22 0.21,0.22 0.21,0.21 0.2,0.2 0.19,0.19 0.2,0.19 0.18,0.19 0.19,0.17 0.18,0.18 0.35,0.33 0.34,0.32 0.34,0.3 0.32,0.29 0.33,0.29 0.64,0.56 0.33,0.29 0.34,0.28 c 0,0.05 3.07,2.69 4.87,4.49 4.73,4.64 5.83,7.03 5.83,7.21 0,0.5 -0.45,0.5 -0.55,0.5 -0.34,0 -0.5,-0.09 -0.75,-0.54 -1.48,-2.39 -2.53,-3.19 -3.73,-3.19 -1.21,0 -1.8,0.75 -2.55,1.59 -0.94,1.16 -1.78,2.14 -3.44,2.14 -3.73,0 -6.01,-4.62 -6.01,-5.67 0,-0.25 0.14,-0.54 0.59,-0.54 0.45,0 0.55,0.25 0.64,0.54 0.95,2.3 3.85,2.35 4.24,2.35 1.04,0 2,-0.36 3.14,-0.75 2,-0.75 2.54,-0.75 3.84,-0.75 -1.8,-2.14 -5.98,-5.74 -6.92,-6.53 l -4.49,-4.18 c -3.39,-3.34 -5.14,-6.18 -5.14,-6.53 0,-0.5 0.5,-0.5 0.6,-0.5 0.4,0 0.5,0.1 0.79,0.64 1.16,1.75 2.64,3.1 4.24,3.1 1.15,0 1.65,-0.46 2.89,-1.89 0.86,-1.05 1.75,-1.85 3.19,-1.85 4.93,0 7.82,6.33 7.82,7.67 0,0.25 -0.2,0.5 -0.59,0.5 -0.45,0 -0.55,-0.29 -0.7,-0.65 -1.14,-3.24 -4.33,-4.17 -5.99,-4.17 -0.98,0 -1.89,0.29 -2.93,0.64 -1.69,0.64 -2.44,0.84 -3.49,0.84 -0.09,0 -0.89,0 -1.34,-0.14 z"
           id="path7118" /><path
           style="fill:#000000;stroke-width:0"
           inkscape:connector-curvature="0"
           d="m 573.34,418.65 0,0.37 -0.01,0.39 -0.01,0.39 -0.01,0.41 -0.04,0.84 -0.06,0.88 -0.08,0.92 -0.11,0.95 -0.13,0.97 -0.17,1.01 -0.19,1.02 -0.23,1.03 -0.27,1.05 -0.3,1.06 -0.35,1.07 -0.4,1.07 -0.21,0.53 -0.22,0.53 -0.24,0.53 -0.25,0.53 c -2.99,6.12 -7.27,9.36 -7.77,9.36 -0.29,0 -0.5,-0.19 -0.5,-0.49 0,-0.15 0,-0.25 0.94,-1.15 4.89,-4.92 7.74,-12.85 7.74,-23.27 0,-8.51 -1.85,-17.28 -8.04,-23.56 -0.64,-0.59 -0.64,-0.7 -0.64,-0.84 0,-0.3 0.21,-0.5 0.5,-0.5 0.5,0 4.97,3.39 7.93,9.71 2.53,5.47 3.12,11 3.12,15.19 z"
           id="path7120" /></g>    </g>
    <g
       id="g7310"
       transform="matrix(0.43819602,0,0,0.43819602,214.13459,390.91454)">
      <g
         word-spacing="normal"
         letter-spacing="normal"
         font-size-adjust="none"
         font-stretch="normal"
         font-weight="normal"
         font-variant="normal"
         font-style="normal"
         stroke-miterlimit="10.433"
         xml:space="preserve"
         transform="matrix(1.0629921,0,0,-1.0629921,-186.02362,789.27165)"
         id="g7312"
         style="font-style:normal;font-variant:normal;font-weight:normal;font-stretch:normal;letter-spacing:normal;word-spacing:normal;text-anchor:start;fill:none;stroke:#000000;stroke-linecap:butt;stroke-linejoin:miter;stroke-miterlimit:10.43299961;stroke-opacity:1;stroke-dasharray:none;stroke-dashoffset:0"><path
           id="path7314"
           d="m 469.68,437.34 -0.01,0.09 0,0.09 -0.01,0.1 -0.02,0.08 -0.01,0.09 -0.03,0.09 -0.02,0.08 -0.03,0.08 -0.03,0.08 -0.04,0.08 -0.04,0.08 -0.05,0.07 -0.04,0.07 -0.06,0.07 -0.05,0.06 -0.06,0.06 -0.06,0.06 -0.06,0.06 -0.07,0.05 -0.07,0.05 -0.08,0.05 -0.07,0.04 -0.09,0.04 -0.08,0.04 -0.08,0.03 -0.09,0.03 -0.1,0.02 -0.09,0.02 -0.1,0.02 -0.1,0.01 -0.1,0 -0.11,0.01 c -1.36,0 -2.7,-1.3 -2.7,-2.64 0,-0.96 0.7,-1.8 1.91,-1.8 1.14,0 2.64,1.14 2.64,2.64 z"
           inkscape:connector-curvature="0"
           style="fill:#000000;stroke-width:0" /><path
           id="path7316"
           d="m 465.88,418.61 0.05,0.13 0.05,0.12 0.05,0.12 0.05,0.11 0.04,0.1 0.04,0.1 0.03,0.09 0.04,0.09 0.03,0.09 0.04,0.08 0.03,0.08 0.02,0.08 0.03,0.07 0.03,0.07 0.05,0.15 0.05,0.14 0.05,0.14 0.03,0.07 0.03,0.08 0.03,0.08 0.02,0.08 0.04,0.08 0.03,0.09 0.03,0.1 0.04,0.09 0.03,0.11 0.04,0.11 0.05,0.11 0.04,0.13 c 0.41,1 0.66,1.68 0.66,2.64 0,2.23 -1.59,4.07 -4.09,4.07 -4.68,0 -6.58,-7.21 -6.58,-7.67 0,-0.5 0.5,-0.5 0.61,-0.5 0.5,0 0.54,0.11 0.79,0.91 1.35,4.69 3.33,6.17 5.03,6.17 0.4,0 1.25,0 1.25,-1.59 0,-1.05 -0.35,-2.1 -0.56,-2.6 -0.39,-1.29 -2.64,-7.06 -3.44,-9.22 -0.48,-1.28 -1.14,-2.93 -1.14,-3.98 0,-2.33 1.69,-4.08 4.1,-4.08 4.67,0 6.51,7.22 6.51,7.67 0,0.5 -0.43,0.5 -0.59,0.5 -0.5,0 -0.5,-0.15 -0.75,-0.9 -0.89,-3.13 -2.53,-6.17 -5.08,-6.17 -0.84,0 -1.2,0.5 -1.2,1.64 0,1.25 0.31,1.95 1.45,4.98 z"
           inkscape:connector-curvature="0"
           style="fill:#000000;stroke-width:0" /><path
           id="path7318"
           d="m 487.52,417.46 0.15,0.01 0.15,0 0.15,0 0.08,0 0.07,0.01 0.08,0 0.07,0.01 0.07,0.01 0.07,0.01 0.07,0.01 0.06,0.02 0.07,0.01 0.06,0.02 0.06,0.02 0.06,0.03 0.05,0.02 0.05,0.03 0.05,0.03 0.05,0.04 0.04,0.04 0.04,0.04 0.03,0.05 0.02,0.02 0.01,0.03 0.02,0.02 0.01,0.03 0.01,0.03 0.01,0.03 0.01,0.03 0.01,0.03 0.01,0.04 0,0.03 0.01,0.04 0,0.03 0,0.04 0,0.04 c 0,0.69 -0.61,0.69 -1.45,0.69 h -8.06 c 1.18,4.23 3.98,7.12 8.51,7.12 h 1.55 c 0.84,0 1.64,0 1.64,0.86 0,0.69 -0.66,0.69 -1.5,0.69 h -1.73 c -6.49,0 -13.16,-4.99 -13.16,-12.6 0,-5.48 3.73,-9.42 9.02,-9.42 3.23,0 6.48,1.99 6.48,2.55 0,0.14 -0.06,0.69 -0.5,0.69 -0.11,0 -0.2,0 -0.66,-0.3 -1.54,-1 -3.39,-1.84 -5.23,-1.84 -2.89,0 -5.38,2.09 -5.38,6.48 0,1.73 0.41,3.63 0.55,4.23 z"
           inkscape:connector-curvature="0"
           style="fill:#000000;stroke-width:0" /></g>    </g>
    <g
       transform="matrix(0.50085833,0,0,0.27971031,212.99412,447.02473)"
       id="g7518">
      <g
         style="font-style:normal;font-variant:normal;font-weight:normal;font-stretch:normal;letter-spacing:normal;word-spacing:normal;text-anchor:start;fill:none;stroke:#000000;stroke-linecap:butt;stroke-linejoin:miter;stroke-miterlimit:10.43299961;stroke-opacity:1;stroke-dasharray:none;stroke-dashoffset:0"
         id="g7520"
         transform="matrix(1.0629921,0,0,-1.0629921,-186.02362,789.27165)"
         xml:space="preserve"
         stroke-miterlimit="10.433"
         font-style="normal"
         font-variant="normal"
         font-weight="normal"
         font-stretch="normal"
         font-size-adjust="none"
         letter-spacing="normal"
         word-spacing="normal"><path
           style="fill:#000000;stroke-width:0"
           inkscape:connector-curvature="0"
           d="m 469.61,436.93 0.01,0.19 0.01,0.2 0.02,0.2 0.03,0.21 0.04,0.21 0.05,0.22 0.06,0.21 0.07,0.22 0.08,0.22 0.1,0.22 0.11,0.22 0.12,0.22 0.14,0.22 0.15,0.21 0.16,0.21 0.18,0.21 0.2,0.2 0.21,0.2 0.23,0.19 0.25,0.18 0.26,0.18 0.29,0.16 0.3,0.16 0.32,0.15 0.34,0.13 0.37,0.13 0.38,0.11 0.41,0.1 0.21,0.05 0.22,0.04 0.22,0.03 0.23,0.04 0.23,0.03 0.24,0.02 0.25,0.03 0.25,0.01 c 0.25,0.05 0.45,0.25 0.45,0.55 0,0.55 -0.41,0.55 -0.95,0.55 -4.99,0 -9.52,-2.53 -9.56,-6.22 v -11.36 c 0,-1.94 0,-3.55 -2,-5.19 -1.74,-1.43 -3.65,-1.54 -4.74,-1.59 -0.25,-0.05 -0.44,-0.25 -0.44,-0.55 0,-0.5 0.3,-0.5 0.8,-0.54 3.28,-0.21 5.67,-1.99 6.22,-4.44 0.16,-0.55 0.16,-0.64 0.16,-2.44 v -9.86 c 0,-2.09 0,-3.69 2.39,-5.58 1.93,-1.5 5.23,-2.04 7.17,-2.04 0.54,0 0.95,0 0.95,0.54 0,0.5 -0.31,0.5 -0.8,0.55 -3.14,0.2 -5.59,1.8 -6.23,4.33 -0.16,0.45 -0.16,0.54 -0.16,2.34 v 10.47 c 0,2.3 -0.39,3.14 -1.98,4.73 -1.05,1.05 -2.5,1.55 -3.89,1.94 4.09,1.14 5.87,3.44 5.87,6.33 z"
           id="path7522" /></g>    </g>
    <g
       id="g7944"
       transform="matrix(0.626348,0,0,0.626348,-3.974314,314.83258)">
      <g
         id="g7946"
         transform="matrix(1.0629921,0,0,-1.0629921,-186.02362,789.27165)"
         xml:space="preserve"
         stroke-miterlimit="10.433"
         font-style="normal"
         font-variant="normal"
         font-weight="normal"
         font-stretch="normal"
         font-size-adjust="none"
         letter-spacing="normal"
         word-spacing="normal"
         style="font-style:normal;font-variant:normal;font-weight:normal;font-stretch:normal;letter-spacing:normal;word-spacing:normal;text-anchor:start;fill:none;stroke:#000000;stroke-linecap:butt;stroke-linejoin:miter;stroke-miterlimit:10.43299961;stroke-opacity:1;stroke-dasharray:none;stroke-dashoffset:0"><path
           d="m 457.57,418.86 0.09,0.26 0.1,0.26 0.1,0.24 0.11,0.25 0.11,0.23 0.12,0.22 0.12,0.22 0.12,0.21 0.13,0.2 0.13,0.2 0.13,0.19 0.14,0.18 0.28,0.34 0.29,0.32 0.3,0.29 0.31,0.27 0.31,0.24 0.32,0.22 0.32,0.21 0.32,0.18 0.31,0.16 0.32,0.15 0.31,0.13 0.3,0.11 0.3,0.1 0.29,0.08 0.28,0.07 0.27,0.06 0.25,0.05 0.24,0.04 0.22,0.03 0.21,0.02 0.19,0.02 0.16,0.01 0.14,0.01 0.12,0.01 0.09,0 0.07,0 c 7.51,0 8.06,-8.72 8.06,-12.66 0,-3.05 -0.25,-3.89 -0.59,-4.89 -1.1,-3.63 -2.6,-9.41 -2.6,-10.7 0,-0.55 0.25,-0.91 0.66,-0.91 0.64,0 1.05,1.11 1.59,3 1.14,4.19 1.64,7.02 1.85,8.56 0.09,0.66 0.18,1.3 0.39,1.96 1.59,4.92 4.78,12.34 6.78,16.28 0.34,0.59 0.94,1.7 0.94,1.89 0,0.5 -0.49,0.5 -0.6,0.5 -0.14,0 -0.45,0 -0.59,-0.35 -2.59,-4.73 -4.58,-9.71 -6.58,-14.75 -0.05,1.55 -0.09,5.33 -2.05,10.18 -1.18,3.03 -3.18,5.46 -6.62,5.46 -6.22,0 -9.72,-7.56 -9.72,-9.1 0,-0.5 0.45,-0.5 0.95,-0.5 z"
           id="path7948"
           inkscape:connector-curvature="0"
           style="fill:#000000;stroke-width:0" /><path
           d="m 492.99,420.92 0,0.04 0,0.04 0,0.05 0,0.04 0,0.03 0,0.04 0,0.04 0,0.03 0,0.04 -0.01,0.03 0,0.03 0,0.03 0,0.03 -0.01,0.03 0,0.03 0,0.02 -0.01,0.03 0,0.02 -0.01,0.03 0,0.02 -0.01,0.04 -0.02,0.04 -0.02,0.03 -0.02,0.03 -0.02,0.03 -0.02,0.03 -0.03,0.02 -0.03,0.02 -0.03,0.02 -0.04,0.01 -0.04,0.01 -0.05,0.02 -0.02,0 -0.02,0 -0.03,0.01 -0.03,0 -0.02,0.01 -0.03,0 -0.03,0 -0.03,0 -0.03,0 -0.04,0.01 -0.03,0 -0.04,0 -0.03,0 -0.04,0 -0.04,0 -0.04,0 -0.04,0 -0.05,0 -0.04,0 -0.04,0 c -2.24,-2.2 -5.4,-2.23 -6.83,-2.23 v -1.25 c 0.84,0 3.14,0 5.04,0.97 v -17.77 c 0,-1.16 0,-1.61 -3.48,-1.61 h -1.31 v -1.25 c 0.62,0.03 4.9,0.14 6.2,0.14 1.08,0 5.47,-0.11 6.23,-0.14 v 1.25 h -1.32 c -3.49,0 -3.49,0.45 -3.49,1.61 z"
           id="path7950"
           inkscape:connector-curvature="0"
           style="fill:#000000;stroke-width:0" /></g>    </g>
    <g
       id="g8170"
       transform="matrix(0.626348,0,0,0.626348,352.77299,300.83258)">
      <g
         word-spacing="normal"
         letter-spacing="normal"
         font-size-adjust="none"
         font-stretch="normal"
         font-weight="normal"
         font-variant="normal"
         font-style="normal"
         stroke-miterlimit="10.433"
         xml:space="preserve"
         transform="matrix(1.0629921,0,0,-1.0629921,-186.02362,789.27165)"
         id="g8172"
         style="font-style:normal;font-variant:normal;font-weight:normal;font-stretch:normal;letter-spacing:normal;word-spacing:normal;text-anchor:start;fill:none;stroke:#000000;stroke-linecap:butt;stroke-linejoin:miter;stroke-miterlimit:10.43299961;stroke-opacity:1;stroke-dasharray:none;stroke-dashoffset:0"><path
           id="path8174"
           d="m 457.57,418.86 0.09,0.26 0.1,0.26 0.1,0.24 0.11,0.25 0.11,0.23 0.12,0.22 0.12,0.22 0.12,0.21 0.13,0.2 0.13,0.2 0.13,0.19 0.14,0.18 0.28,0.34 0.29,0.32 0.3,0.29 0.31,0.27 0.31,0.24 0.32,0.22 0.32,0.21 0.32,0.18 0.31,0.16 0.32,0.15 0.31,0.13 0.3,0.11 0.3,0.1 0.29,0.08 0.28,0.07 0.27,0.06 0.25,0.05 0.24,0.04 0.22,0.03 0.21,0.02 0.19,0.02 0.16,0.01 0.14,0.01 0.12,0.01 0.09,0 0.07,0 c 7.51,0 8.06,-8.72 8.06,-12.66 0,-3.05 -0.25,-3.89 -0.59,-4.89 -1.1,-3.63 -2.6,-9.41 -2.6,-10.7 0,-0.55 0.25,-0.91 0.66,-0.91 0.64,0 1.05,1.11 1.59,3 1.14,4.19 1.64,7.02 1.85,8.56 0.09,0.66 0.18,1.3 0.39,1.96 1.59,4.92 4.78,12.34 6.78,16.28 0.34,0.59 0.94,1.7 0.94,1.89 0,0.5 -0.49,0.5 -0.6,0.5 -0.14,0 -0.45,0 -0.59,-0.35 -2.59,-4.73 -4.58,-9.71 -6.58,-14.75 -0.05,1.55 -0.09,5.33 -2.05,10.18 -1.18,3.03 -3.18,5.46 -6.62,5.46 -6.22,0 -9.72,-7.56 -9.72,-9.1 0,-0.5 0.45,-0.5 0.95,-0.5 z"
           inkscape:connector-curvature="0"
           style="fill:#000000;stroke-width:0" /><path
           id="path8176"
           d="m 498.91,405.11 h -1.18 c -0.1,-0.77 -0.46,-2.83 -0.91,-3.18 -0.27,-0.2 -2.95,-0.2 -3.44,-0.2 h -6.42 c 3.66,3.23 4.88,4.2 6.97,5.84 2.58,2.07 4.98,4.22 4.98,7.54 0,4.21 -3.68,6.79 -8.15,6.79 -4.31,0 -7.25,-3.03 -7.25,-6.23 0,-1.78 1.5,-1.96 1.86,-1.96 0.83,0 1.84,0.6 1.84,1.85 0,0.62 -0.25,1.84 -2.06,1.84 1.08,2.47 3.45,3.24 5.09,3.24 3.49,0 5.3,-2.71 5.3,-5.53 0,-3.04 -2.16,-5.44 -3.28,-6.69 l -8.39,-8.3 c -0.36,-0.31 -0.36,-0.39 -0.36,-1.36 h 14.36 z"
           inkscape:connector-curvature="0"
           style="fill:#000000;stroke-width:0" /></g>    </g>
    <g
       id="g8642"
       transform="matrix(0.55536744,0,0,0.55536744,325.8499,144.24201)">
      <g
         word-spacing="normal"
         letter-spacing="normal"
         font-size-adjust="none"
         font-stretch="normal"
         font-weight="normal"
         font-variant="normal"
         font-style="normal"
         stroke-miterlimit="10.433"
         xml:space="preserve"
         transform="matrix(1.0629921,0,0,-1.0629921,-186.02362,789.27165)"
         id="g8644"
         style="font-style:normal;font-variant:normal;font-weight:normal;font-stretch:normal;letter-spacing:normal;word-spacing:normal;text-anchor:start;fill:none;stroke:#000000;stroke-linecap:butt;stroke-linejoin:miter;stroke-miterlimit:10.43299961;stroke-opacity:1;stroke-dasharray:none;stroke-dashoffset:0"><path
           id="path8646"
           d="m 480.24,414.03 0,0.01 0,0.01 0,0.02 0,0.01 -0.01,0.01 0,0.01 0,0.02 0,0.01 -0.01,0.01 0,0.01 -0.01,0.02 -0.01,0.02 0,0.02 -0.02,0.01 -0.01,0.02 -0.01,0.01 -0.01,0.02 -0.02,0.01 -0.01,0.01 -0.02,0.01 -0.02,0.01 -0.02,0.01 -0.01,0.01 -0.02,0 -0.02,0.01 -0.02,0.01 -0.03,0 -0.02,0.01 -0.02,0 -0.02,0 -0.02,0 -0.03,0.01 -0.02,0 -0.02,0 -0.03,0 -0.04,0 c -0.86,0 -2.05,-0.75 -2.1,-0.75 -1,-0.64 -1.2,-1 -1.79,-1.84 -1.55,-2.35 -3.74,-4.03 -6.97,-4.03 -4.49,0 -8.53,3.23 -8.53,10.7 0,4.48 1.79,10.42 4.44,14.36 2.18,3.19 4.89,5.78 10.01,5.78 1.89,0 3.09,-0.7 3.09,-2.55 0,-1.75 -1.84,-5.28 -2.45,-6.28 -0.3,-0.55 -0.3,-0.64 -0.3,-0.75 0,-0.34 0.25,-0.34 0.55,-0.34 1,0 2.85,1.09 3.44,1.89 0.11,0.2 3,5.08 3,7.62 0,2.74 -2.25,3.14 -4.05,3.14 -7.22,0 -13.14,-4.73 -15.44,-7.53 -5.92,-7.17 -6.53,-14.89 -6.53,-17.48 0,-7.27 3.69,-11.31 9.47,-11.31 8.02,0 14.66,7.78 14.66,9.03 z"
           inkscape:connector-curvature="0"
           style="fill:#000000;stroke-width:0" /></g>    </g>
    <g
       id="g9946"
       transform="matrix(-0.47808765,0,0,0.47808765,623.78883,231.97588)">
      <path
         style="fill:#426ab5;fill-opacity:1;stroke:none"
         d="m 215,637.86218 48,0 14.75,-14.75 z"
         id="path9948"
         inkscape:connector-curvature="0" />
      <path
         inkscape:connector-curvature="0"
         id="path9950"
         d="m 215,637.61218 48,0 14.75,14.75 z"
         style="fill:#426ab5;fill-opacity:1;stroke:none" />
    </g>
    <g
       id="g9952"
       transform="matrix(-0.47808765,0,0,0.47808765,345.78884,245.97588)">
      <path
         inkscape:connector-curvature="0"
         id="path9954"
         d="m 215,637.86218 48,0 14.75,-14.75 z"
         style="fill:#426ab5;fill-opacity:1;stroke:none" />
      <path
         style="fill:#426ab5;fill-opacity:1;stroke:none"
         d="m 215,637.61218 48,0 14.75,14.75 z"
         id="path9956"
         inkscape:connector-curvature="0" />
    </g>
    <g
       id="g9942"
       transform="matrix(0.47808765,0,0,0.47808765,261.21115,-29.52412)">
      <path
         inkscape:connector-curvature="0"
         id="path9934"
         d="m 215,637.86218 48,0 14.75,-14.75 z"
         style="fill:#426ab5;fill-opacity:1;stroke:none" />
      <path
         style="fill:#426ab5;fill-opacity:1;stroke:none"
         d="m 215,637.61218 48,0 14.75,14.75 z"
         id="path9936"
         inkscape:connector-curvature="0" />
    </g>
  </g>
</svg>
