<?xml version="1.0" encoding="UTF-8" standalone="no"?>
<!-- Created with Inkscape (http://www.inkscape.org/) -->

<svg
   xmlns:dc="http://purl.org/dc/elements/1.1/"
   xmlns:cc="http://creativecommons.org/ns#"
   xmlns:rdf="http://www.w3.org/1999/02/22-rdf-syntax-ns#"
   xmlns:svg="http://www.w3.org/2000/svg"
   xmlns="http://www.w3.org/2000/svg"
   xmlns:sodipodi="http://sodipodi.sourceforge.net/DTD/sodipodi-0.dtd"
   xmlns:inkscape="http://www.inkscape.org/namespaces/inkscape"
   id="svg6649"
   version="1.1"
   inkscape:version="0.48.2 r9819"
   width="450"
   height="449.28"
   xml:space="preserve"
   sodipodi:docname="cpdesitterraw.pdf"><sodipodi:namedview
     pagecolor="#ffffff"
     bordercolor="#666666"
     borderopacity="1"
     objecttolerance="10"
     gridtolerance="10"
     guidetolerance="10"
     inkscape:pageopacity="0"
     inkscape:pageshadow="2"
     inkscape:window-width="970"
     inkscape:window-height="618"
     id="namedview6651"
     showgrid="false"
     inkscape:zoom="0.85"
     inkscape:cx="229.66823"
     inkscape:cy="224.64"
     inkscape:window-x="0"
     inkscape:window-y="0"
     inkscape:window-maximized="0"
     inkscape:current-layer="g6657" /><metadata
     id="metadata6655"><rdf:RDF><cc:Work
         rdf:about=""><dc:format>image/svg+xml</dc:format><dc:type
           rdf:resource="http://purl.org/dc/dcmitype/StillImage" /><dc:title></dc:title></cc:Work></rdf:RDF></metadata><defs
     id="defs6653"><clipPath
       clipPathUnits="userSpaceOnUse"
       id="clipPath6661"><path
         d="m 47,12 0,359.424 360,0 L 407,12"
         clip-rule="evenodd"
         id="path6663" /></clipPath><clipPath
       clipPathUnits="userSpaceOnUse"
       id="clipPath6673"><path
         d="m 0,4 0,375 535,0 0,-375"
         clip-rule="evenodd"
         id="path6675" /></clipPath><clipPath
       clipPathUnits="userSpaceOnUse"
       id="clipPath6685"><path
         d="m 47,12 0,360 360,0 0,-360"
         clip-rule="evenodd"
         id="path6687" /></clipPath><clipPath
       clipPathUnits="userSpaceOnUse"
       id="clipPath6693"><path
         d="m 45,10 0,363 364,0 0,-363"
         clip-rule="evenodd"
         id="path6695" /></clipPath><clipPath
       clipPathUnits="userSpaceOnUse"
       id="clipPath6701"><path
         d="m 47,11 0,360 360,0 0,-360"
         clip-rule="evenodd"
         id="path6703" /></clipPath></defs><g
     id="g6657"
     inkscape:groupmode="layer"
     inkscape:label="cpdesitterraw"
     transform="matrix(1.25,0,0,1.25,-58.75,-15)"><g
       id="g6659"
       clip-path="url(#clipPath6661)"><g
         id="g6665" /><g
         id="g6667"><g
           id="g6669"><g
             id="g6671"
             clip-path="url(#clipPath6673)"><g
               id="g6677"><path
                 d="M 39,4 487,4 487,379 39,379 39,4 z"
                 style="fill:#ffffff;fill-opacity:1;fill-rule:evenodd;stroke:none"
                 id="path6679" /></g></g></g><g
           id="g6681"><g
             id="g6683"
             clip-path="url(#clipPath6685)"><g
               id="g6689"><g
                 id="g6691"
                 clip-path="url(#clipPath6693)"><g
                   id="g6697"><g
                     id="g6699"
                     clip-path="url(#clipPath6701)"><path
                       d="m 54.2,364.512 345.6,0 0,-345.6 -345.6,0 0,345.6"
                       style="fill:none;stroke:#000000;stroke-opacity:1;stroke-width:1.8;stroke-linecap:square;stroke-linejoin:miter;stroke-miterlimit:3.25;stroke-dasharray:none"
                       id="path6705" /><path
                       d="m 54.2,295.392 345.6,0"
                       style="fill:none;stroke:#000000;stroke-opacity:1;stroke-width:1.44;stroke-linecap:square;stroke-linejoin:miter;stroke-miterlimit:3.25;stroke-dasharray:1,4;stroke-dashoffset:0"
                       id="path6707" /><path
                       d="m 54.2,226.272 345.6,0"
                       style="fill:none;stroke:#000000;stroke-opacity:1;stroke-width:1.44;stroke-linecap:square;stroke-linejoin:miter;stroke-miterlimit:3.25;stroke-dasharray:1,4;stroke-dashoffset:0"
                       id="path6709" /><path
                       d="m 54.2,157.152 345.6,0"
                       style="fill:none;stroke:#000000;stroke-opacity:1;stroke-width:1.44;stroke-linecap:square;stroke-linejoin:miter;stroke-miterlimit:3.25;stroke-dasharray:1,4;stroke-dashoffset:0"
                       id="path6711" /><path
                       d="m 54.2,88.032 345.6,0"
                       style="fill:none;stroke:#000000;stroke-opacity:1;stroke-width:1.44;stroke-linecap:square;stroke-linejoin:miter;stroke-miterlimit:3.25;stroke-dasharray:1,4;stroke-dashoffset:0"
                       id="path6713" /></g></g></g></g></g></g></g></g><g
       id="g6748"
       transform="translate(30.459661,332.08732)"><g
         id="content"
         transform="matrix(0.64182857,0,0,-0.64182857,-112.32,337.5)"
         xml:space="preserve"
         stroke-miterlimit="10.433"
         font-style="normal"
         font-variant="normal"
         font-weight="normal"
         font-stretch="normal"
         font-size-adjust="none"
         letter-spacing="normal"
         word-spacing="normal"
         style="font-style:normal;font-variant:normal;font-weight:normal;font-stretch:normal;letter-spacing:normal;word-spacing:normal;text-anchor:start;fill:none;stroke:#000000;stroke-linecap:butt;stroke-linejoin:miter;stroke-miterlimit:10.43299961;stroke-opacity:1;stroke-dasharray:none;stroke-dashoffset:0"><path
           d="m 486.16,440.23 -0.45,-0.01 -0.44,-0.02 -0.44,-0.03 -0.43,-0.04 -0.43,-0.06 -0.42,-0.06 -0.42,-0.08 -0.42,-0.08 -0.4,-0.1 -0.41,-0.1 -0.39,-0.11 -0.39,-0.12 -0.39,-0.13 -0.38,-0.13 -0.37,-0.14 -0.36,-0.14 -0.7,-0.3 -0.68,-0.32 -0.64,-0.33 -0.3,-0.16 -0.3,-0.17 -0.29,-0.17 -0.28,-0.16 -0.27,-0.17 -0.26,-0.17 -0.25,-0.16 -0.24,-0.16 -0.23,-0.16 -0.22,-0.16 c -5.44,-3.89 -6.03,-8.08 -6.03,-8.17 0,-0.34 0.29,-0.34 0.5,-0.34 1.14,0 3.37,1.39 3.68,2.28 1.64,5.28 5.22,7.42 10.11,7.42 h 6.63 c -5.49,-4.37 -7.77,-11.91 -11.06,-24.86 -1.19,-4.62 -4.24,-9.61 -9.27,-9.61 -3.89,0 -7.42,2.6 -7.42,6.92 0,1 0.25,1.85 0.25,2.05 0,0.14 -0.05,0.45 -0.5,0.45 -0.3,0 -1.46,-0.25 -2.85,-1.29 -0.59,-0.46 -1.14,-0.96 -1.14,-3.3 0,-4.58 3.49,-7.56 8.38,-7.56 4.23,0 8.26,2.39 10.7,4.48 4.58,3.92 5.49,7.56 6.38,11.11 1.84,7.22 4.23,16.28 7.97,20.47 0.79,0.89 1,1.05 2.15,1.14 2.24,0.16 3.92,1.84 3.92,2.39 0,0.31 -0.04,0.36 -1.14,0.36 z"
           id="path6751"
           inkscape:connector-curvature="0"
           style="fill:#000000;stroke-width:0" /><path
           d="m 524.4,432.07 0.06,0 0.05,0 0.11,0.01 0.12,0 0.06,0 0.06,0.01 0.06,0 0.05,0.01 0.06,0.01 0.06,0.01 0.06,0.01 0.05,0.01 0.06,0.02 0.05,0.02 0.05,0.02 0.05,0.02 0.05,0.03 0.04,0.03 0.04,0.03 0.04,0.04 0.04,0.04 0.02,0.02 0.01,0.02 0.02,0.02 0.02,0.03 0.01,0.02 0.01,0.03 0.02,0.02 0.01,0.03 0.01,0.03 0.01,0.03 0,0.03 0.01,0.03 0.01,0.04 0,0.03 0.01,0.03 0,0.04 0,0.04 0,0.04 c 0,0.86 -0.79,0.86 -1.39,0.86 h -20.76 c -0.57,0 -1.39,0 -1.39,-0.83 0,-0.88 0.79,-0.88 1.39,-0.88 z"
           id="path6753"
           inkscape:connector-curvature="0"
           style="fill:#000000;stroke-width:0" /></g></g><g
       id="g6827"
       transform="translate(30.459661,-74.626169)"><g
         word-spacing="normal"
         letter-spacing="normal"
         font-size-adjust="none"
         font-stretch="normal"
         font-weight="normal"
         font-variant="normal"
         font-style="normal"
         stroke-miterlimit="10.433"
         xml:space="preserve"
         transform="matrix(0.64182857,0,0,-0.64182857,-112.32,337.5)"
         id="g6829"
         style="font-style:normal;font-variant:normal;font-weight:normal;font-stretch:normal;letter-spacing:normal;word-spacing:normal;text-anchor:start;fill:none;stroke:#000000;stroke-linecap:butt;stroke-linejoin:miter;stroke-miterlimit:10.43299961;stroke-opacity:1;stroke-dasharray:none;stroke-dashoffset:0"><path
           id="path6831"
           d="m 486.16,440.23 -0.45,-0.01 -0.44,-0.02 -0.44,-0.03 -0.43,-0.04 -0.43,-0.06 -0.42,-0.06 -0.42,-0.08 -0.42,-0.08 -0.4,-0.1 -0.41,-0.1 -0.39,-0.11 -0.39,-0.12 -0.39,-0.13 -0.38,-0.13 -0.37,-0.14 -0.36,-0.14 -0.7,-0.3 -0.68,-0.32 -0.64,-0.33 -0.3,-0.16 -0.3,-0.17 -0.29,-0.17 -0.28,-0.16 -0.27,-0.17 -0.26,-0.17 -0.25,-0.16 -0.24,-0.16 -0.23,-0.16 -0.22,-0.16 c -5.44,-3.89 -6.03,-8.08 -6.03,-8.17 0,-0.34 0.29,-0.34 0.5,-0.34 1.14,0 3.37,1.39 3.68,2.28 1.64,5.28 5.22,7.42 10.11,7.42 h 6.63 c -5.49,-4.37 -7.77,-11.91 -11.06,-24.86 -1.19,-4.62 -4.24,-9.61 -9.27,-9.61 -3.89,0 -7.42,2.6 -7.42,6.92 0,1 0.25,1.85 0.25,2.05 0,0.14 -0.05,0.45 -0.5,0.45 -0.3,0 -1.46,-0.25 -2.85,-1.29 -0.59,-0.46 -1.14,-0.96 -1.14,-3.3 0,-4.58 3.49,-7.56 8.38,-7.56 4.23,0 8.26,2.39 10.7,4.48 4.58,3.92 5.49,7.56 6.38,11.11 1.84,7.22 4.23,16.28 7.97,20.47 0.79,0.89 1,1.05 2.15,1.14 2.24,0.16 3.92,1.84 3.92,2.39 0,0.31 -0.04,0.36 -1.14,0.36 z"
           inkscape:connector-curvature="0"
           style="fill:#000000;stroke-width:0" /><path
           id="path6833"
           d="m 514.62,432.07 h 10.66 c 0.45,0 1.28,0 1.28,0.85 0,0.86 -0.8,0.86 -1.28,0.86 h -10.66 v 10.7 c 0,0.45 0,1.28 -0.84,1.28 -0.88,0 -0.88,-0.8 -0.88,-1.28 v -10.7 h -10.69 c -0.45,0 -1.29,0 -1.29,-0.83 0,-0.88 0.79,-0.88 1.29,-0.88 h 10.69 v -10.7 c 0,-0.45 0,-1.28 0.85,-1.28 0.87,0 0.87,0.8 0.87,1.28 z"
           inkscape:connector-curvature="0"
           style="fill:#000000;stroke-width:0" /></g></g><path
       style="fill:none;stroke:#000000;stroke-width:2;stroke-linecap:butt;stroke-linejoin:miter;stroke-opacity:1;stroke-miterlimit:4;stroke-dasharray:none"
       d="M 8.2352941,8.1035282 441.17647,439.86823"
       id="path6876"
       inkscape:connector-curvature="0"
       transform="matrix(0.8,0,0,0.8,47,12)" /></g></svg>