<?xml version="1.0" encoding="UTF-8" standalone="no"?>
<!-- Created with Inkscape (http://www.inkscape.org/) -->

<svg
   xmlns:dc="http://purl.org/dc/elements/1.1/"
   xmlns:cc="http://creativecommons.org/ns#"
   xmlns:rdf="http://www.w3.org/1999/02/22-rdf-syntax-ns#"
   xmlns:svg="http://www.w3.org/2000/svg"
   xmlns="http://www.w3.org/2000/svg"
   xmlns:sodipodi="http://sodipodi.sourceforge.net/DTD/sodipodi-0.dtd"
   xmlns:inkscape="http://www.inkscape.org/namespaces/inkscape"
   id="svg6612"
   version="1.1"
   inkscape:version="0.48.2 r9819"
   width="407.12836"
   height="612.9892"
   xml:space="preserve"
   sodipodi:docname="cpmink4draw.pdf"><sodipodi:namedview
     pagecolor="#ffffff"
     bordercolor="#666666"
     borderopacity="1"
     objecttolerance="10"
     gridtolerance="10"
     guidetolerance="10"
     inkscape:pageopacity="0"
     inkscape:pageshadow="2"
     inkscape:window-width="940"
     inkscape:window-height="660"
     id="namedview6614"
     showgrid="false"
     inkscape:zoom="0.50383782"
     inkscape:cx="153.81786"
     inkscape:cy="305.43715"
     inkscape:window-x="0"
     inkscape:window-y="0"
     inkscape:window-maximized="0"
     inkscape:current-layer="g6620"
     inkscape:snap-midpoints="true"
     inkscape:snap-smooth-nodes="true"
     inkscape:object-nodes="true"
     inkscape:object-paths="true"
     inkscape:snap-bbox="false"
     inkscape:snap-nodes="false"
     fit-margin-top="0"
     fit-margin-left="0"
     fit-margin-right="0"
     fit-margin-bottom="0" /><metadata
     id="metadata6618"><rdf:RDF><cc:Work
         rdf:about=""><dc:format>image/svg+xml</dc:format><dc:type
           rdf:resource="http://purl.org/dc/dcmitype/StillImage" /><dc:title></dc:title></cc:Work></rdf:RDF></metadata><defs
     id="defs6616"><marker
       inkscape:stockid="Arrow1Send"
       orient="auto"
       refY="0"
       refX="0"
       id="Arrow1Send"
       style="overflow:visible"><path
         id="path7476"
         d="M 0,0 5,-5 -12.5,0 5,5 0,0 z"
         style="fill-rule:evenodd;stroke:#000000;stroke-width:1pt;marker-start:none"
         transform="matrix(-0.2,0,0,-0.2,-1.2,0)"
         inkscape:connector-curvature="0" /></marker><marker
       inkscape:stockid="Arrow1Mend"
       orient="auto"
       refY="0"
       refX="0"
       id="Arrow1Mend"
       style="overflow:visible"><path
         id="path7470"
         d="M 0,0 5,-5 -12.5,0 5,5 0,0 z"
         style="fill-rule:evenodd;stroke:#000000;stroke-width:1pt;marker-start:none"
         transform="matrix(-0.4,0,0,-0.4,-4,0)"
         inkscape:connector-curvature="0" /></marker><marker
       inkscape:stockid="Arrow1Lend"
       orient="auto"
       refY="0"
       refX="0"
       id="Arrow1Lend"
       style="overflow:visible"><path
         id="path7464"
         d="M 0,0 5,-5 -12.5,0 5,5 0,0 z"
         style="fill-rule:evenodd;stroke:#000000;stroke-width:1pt;marker-start:none"
         transform="matrix(-0.8,0,0,-0.8,-10,0)"
         inkscape:connector-curvature="0" /></marker><clipPath
       clipPathUnits="userSpaceOnUse"
       id="clipPath6624"><path
         d="m 47,12 0,432 220.588,0 0,-432"
         clip-rule="evenodd"
         id="path6626"
         inkscape:connector-curvature="0" /></clipPath><clipPath
       clipPathUnits="userSpaceOnUse"
       id="clipPath6636"><path
         d="m 0,4 0,448 535,0 0,-448"
         clip-rule="evenodd"
         id="path6638"
         inkscape:connector-curvature="0" /></clipPath><clipPath
       clipPathUnits="userSpaceOnUse"
       id="clipPath6648"><path
         d="m 47,12 0,432 221,0 0,-432"
         clip-rule="evenodd"
         id="path6650"
         inkscape:connector-curvature="0" /></clipPath><clipPath
       clipPathUnits="userSpaceOnUse"
       id="clipPath6656"><path
         d="m 45,10 0,436 225,0 0,-436"
         clip-rule="evenodd"
         id="path6658"
         inkscape:connector-curvature="0" /></clipPath><clipPath
       clipPathUnits="userSpaceOnUse"
       id="clipPath6664"><path
         d="m 47,12 0,432 221,0 0,-432"
         clip-rule="evenodd"
         id="path6666"
         inkscape:connector-curvature="0" /></clipPath></defs><g
     id="g6620"
     inkscape:groupmode="layer"
     inkscape:label="cpmink4draw"
     transform="matrix(1.25,0,0,1.25,45.383089,22.552051)"><g
       id="g6622"
       clip-path="url(#clipPath6624)"
       style="fill:none"><g
         id="g6628"
         style="fill:none" /><g
         id="g6630"
         style="fill:none"><g
           id="g6632"
           style="fill:none"><g
             id="g6634"
             clip-path="url(#clipPath6636)"
             style="fill:none"><g
               id="g6640"
               style="fill:none"><path
                 d="M 39,4 487,4 487,452 39,452 39,4 z"
                 style="fill:none;stroke:none"
                 id="path6642"
                 inkscape:connector-curvature="0" /></g></g></g><g
           id="g6644"
           style="fill:none"><g
             id="g6646"
             clip-path="url(#clipPath6648)"
             style="fill:none"><g
               id="g6652"
               style="fill:none"><g
                 id="g6654"
                 clip-path="url(#clipPath6656)"
                 style="fill:none"><g
                   id="g6660"
                   style="fill:none"><g
                     id="g6662"
                     clip-path="url(#clipPath6664)"
                     style="fill:none"><path
                       d="M 51.412,439.765 263.176,228"
                       style="fill:none;stroke:#000000;stroke-width:2;stroke-linecap:square;stroke-linejoin:miter;stroke-miterlimit:3.25;stroke-opacity:1;stroke-dasharray:none"
                       id="path6668"
                       inkscape:connector-curvature="0" /><path
                       d="M 263.176,228 51.412,16.235"
                       style="fill:none;stroke:#000000;stroke-width:2;stroke-linecap:square;stroke-linejoin:miter;stroke-miterlimit:3.25;stroke-opacity:1;stroke-dasharray:none"
                       id="path6670"
                       inkscape:connector-curvature="0" /><path
                       d="m 51.412,228 0.064,0 0.065,0 0.129,0 0.257,0 0.516,0 1.031,0 2.063,0 4.472,0 4.175,0 4.094,0 4.44,0 4.144,0 4.492,0 4.409,0 4.113,0 4.46,0 4.163,0 4.082,0 4.429,0 4.132,0 4.479,0 4.398,0 4.101,0 4.448,0 4.151,0 4.499,0 4.416,0 4.121,0 4.467,0 4.171,0 4.089,0 4.436,0 4.14,0 4.486,0 4.405,0 4.108,0 4.456,0 4.159,0 4.077,0 4.424,0 4.128,0 4.474,0 4.179,0 4.096,0 4.444,0 4.147,0 4.494,0 4.412,0 4.116,0 4.462,0 4.167,0 4.084,0 4.432,0 4.135,0 0.072,0 0.072,0 0.144,0 0.289,0 0.577,0 1.154,0 0.072,0 0.072,0 0.144,0 0.289,0 0.577,0 0.072,0 0.072,0 0.144,0 0.289,0 0.072,0 0.072,0 0.144,0 0.072,0 0.072,0 0.073,0 0.072,0"
                       style="fill:none;stroke:#426ab5;stroke-width:2;stroke-linecap:square;stroke-linejoin:miter;stroke-miterlimit:3.25;stroke-opacity:1;stroke-dasharray:none"
                       id="path6672"
                       inkscape:connector-curvature="0" /><path
                       d="m 51.412,438.147 0,-0.129 0,-0.129 0,-0.258 0,-0.515 0,-1.032 0,-2.062 0,-4.125 0,-8.944 0,-8.351 0,-8.187 0,-8.881 0,-8.288 0,-8.983 0,-8.818 0,-8.226 0,-8.92 0,-8.327 0,-8.164 0,-8.857 0,-8.264 0,-8.959 0,-8.795 0,-8.202 0,-8.896 0,-8.303 0,-8.997 0,-8.833 0,-8.241 0,-8.935 0,-8.342 0,-8.178 0,-8.872 0,-8.279 0,-8.973 0,-8.81 0,-8.216 0,-8.911 0,-8.318 0,-8.154 0,-8.848 0,-8.256 0,-8.949 0,-8.357 0,-8.193 0,-8.887 0,-8.294 0,-8.988 0,-8.824 0,-8.232 0,-8.925 0,-8.333 0,-8.169 0,-8.863 0,-8.27 0,-0.144 0,-0.144 0,-0.289 0,-0.577 0,-1.154 0,-2.308 0,-0.144 0,-0.144 0,-0.289 0,-0.577 0,-1.154 0,-0.144 0,-0.144 0,-0.289 0,-0.577 0,-0.144 0,-0.144 0,-0.289 0,-0.144 0,-0.144 0,-0.145 0,-0.144"
                       style="fill:none;stroke:#000000;stroke-width:2;stroke-linecap:square;stroke-linejoin:miter;stroke-miterlimit:3.25;stroke-opacity:1;stroke-dasharray:none"
                       id="path6674"
                       inkscape:connector-curvature="0" /><path
                       d="m 51.412,360.494 0.064,0 0.065,0 0.064,0 0.065,-0.001 0.064,0 0.064,-10e-4 0.065,0 0.064,-0.001 0.065,-10e-4 0.064,-0.001 0.065,-10e-4 0.064,-10e-4 0.065,-0.001 0.064,-10e-4 0.129,-0.003 0.064,-0.001 0.065,-0.002 0.129,-0.004 0.064,-0.001 0.065,-0.002 0.129,-0.005 0.064,-0.002 0.065,-0.002 0.128,-0.005 0.258,-0.011 0.065,-0.003 0.064,-0.003 0.129,-0.007 0.258,-0.014 0.064,-0.004 0.065,-0.003 0.129,-0.008 0.257,-0.017 0.065,-0.005 0.064,-0.004 0.129,-0.01 0.258,-0.02 0.516,-0.044 0.07,-0.006 0.069,-0.007 0.14,-0.013 0.28,-0.028 0.559,-0.062 0.07,-0.008 0.069,-0.008 0.14,-0.017 0.28,-0.035 0.559,-0.075 0.069,-0.009 0.07,-0.01 0.14,-0.021 0.28,-0.041 0.559,-0.089 1.118,-0.196 0.065,-0.012 0.065,-0.013 0.131,-0.024 0.26,-0.052 0.522,-0.106 1.044,-0.229 0.066,-0.015 0.065,-0.015 0.13,-0.031 0.261,-0.062 0.522,-0.129 1.044,-0.273 0.064,-0.017 0.064,-0.018 0.128,-0.035 0.256,-0.072 0.511,-0.146 1.024,-0.309 2.047,-0.674 0.069,-0.025 0.069,-0.024 0.139,-0.049 0.278,-0.098 0.555,-0.202 1.11,-0.418 2.22,-0.899 4.144,-1.881 4.492,-2.307 4.409,-2.499 4.113,-2.511 4.46,-2.89 4.163,-2.833 4.082,-2.884 4.429,-3.232 4.132,-3.096 4.479,-3.432 4.398,-3.434 4.101,-3.25 4.448,-3.569 4.151,-3.365 4.499,-3.676 4.416,-3.634 4.121,-3.406 4.467,-3.706 4.171,-3.467 4.089,-3.402 4.436,-3.69 4.14,-3.437 4.486,-3.714 4.405,-3.631 4.108,-3.366 4.456,-3.624 4.159,-3.351 4.077,-3.249 4.424,-3.477 4.128,-3.191 4.474,-3.389 4.179,-3.088 4.096,-2.942 4.444,-3.079 4.147,-2.749 4.494,-2.821 4.412,-2.581 4.116,-2.211 4.462,-2.147 0.065,-0.029 0.065,-0.03 0.131,-0.058 0.26,-0.115 0.521,-0.228 1.041,-0.443 2.084,-0.834 0.063,-0.025 0.064,-0.024 0.128,-0.048 0.255,-0.097 0.511,-0.188 1.021,-0.365 0.064,-0.022 0.064,-0.022 0.127,-0.044 0.255,-0.087 0.511,-0.171 1.021,-0.326 0.069,-0.022 0.07,-0.021 0.138,-0.043 0.277,-0.083 0.554,-0.164 1.108,-0.309 0.069,-0.018 0.069,-0.019 0.139,-0.036 0.277,-0.072 0.554,-0.14 1.108,-0.26 0.064,-0.015 0.065,-0.014 0.129,-0.029 0.258,-0.056 0.517,-0.107 0.065,-0.013 0.065,-0.013 0.129,-0.026 0.258,-0.05 0.517,-0.097 0.065,-0.011 0.064,-0.012 0.13,-0.023 0.258,-0.044 0.517,-0.086 1.034,-0.153 0.072,-0.01 0.072,-0.01 0.144,-0.019 0.289,-0.037 0.577,-0.068 0.072,-0.008 0.072,-0.008 0.144,-0.015 0.289,-0.03 0.577,-0.054 0.072,-0.006 0.072,-0.006 0.144,-0.012 0.289,-0.022 0.072,-0.006 0.072,-0.005 0.144,-0.01 0.289,-0.019 0.072,-0.004 0.072,-0.004 0.144,-0.008 0.072,-0.004 0.072,-0.004 0.145,-0.007 0.072,-0.004 0.072,-0.003 0.144,-0.007 0.072,-0.003 0.072,-0.002 0.073,-0.003 0.072,-0.003"
                       style="fill:none;stroke:#426ab5;stroke-width:2;stroke-linecap:square;stroke-linejoin:miter;stroke-miterlimit:3.25;stroke-opacity:1;stroke-dasharray:none"
                       id="path6676"
                       inkscape:connector-curvature="0" /><path
                       d="m 51.412,290.506 0.064,0 0.065,0 0.064,0 0.065,0 0.064,0 0.064,-10e-4 0.065,0 0.064,0 0.065,0 0.064,-10e-4 0.065,0 0.064,0 0.065,-0.001 0.064,0 0.129,-10e-4 0.064,0 0.065,-0.001 0.129,-10e-4 0.064,-10e-4 0.065,0 0.129,-0.002 0.064,-0.001 0.065,0 0.128,-0.002 0.258,-0.004 0.065,-0.001 0.064,-10e-4 0.129,-0.002 0.258,-0.005 0.064,-10e-4 0.065,-0.001 0.129,-0.003 0.257,-0.005 0.065,-0.002 0.064,-0.002 0.129,-0.003 0.258,-0.006 0.516,-0.015 0.07,-0.002 0.069,-0.002 0.14,-0.005 0.28,-0.009 0.559,-0.021 0.07,-0.003 0.069,-0.002 0.14,-0.006 0.28,-0.012 0.559,-0.025 0.069,-0.003 0.07,-0.004 0.14,-0.006 0.28,-0.014 0.559,-0.03 1.118,-0.066 0.065,-0.005 0.065,-0.004 0.131,-0.008 0.26,-0.018 0.522,-0.036 1.044,-0.078 0.066,-0.005 0.065,-0.005 0.13,-0.011 0.261,-0.021 0.522,-0.044 1.044,-0.094 0.064,-0.006 0.064,-0.006 0.128,-0.012 0.256,-0.025 0.511,-0.051 1.024,-0.107 0.064,-0.007 0.064,-0.007 0.128,-0.014 0.256,-0.028 0.511,-0.058 1.024,-0.122 0.069,-0.009 0.069,-0.009 0.139,-0.017 0.278,-0.035 0.555,-0.071 1.11,-0.15 2.22,-0.324 0.065,-0.01 0.065,-0.01 0.129,-0.02 0.259,-0.04 0.518,-0.082 1.036,-0.17 2.072,-0.362 4.492,-0.879 4.409,-0.986 4.113,-1.024 4.46,-1.218 4.163,-1.231 4.082,-1.289 4.429,-1.485 4.132,-1.459 4.479,-1.654 4.398,-1.691 4.101,-1.63 4.448,-1.819 4.151,-1.74 4.499,-1.922 4.416,-1.919 4.121,-1.813 4.467,-1.982 4.171,-1.861 4.089,-1.828 4.436,-1.982 4.14,-1.841 4.486,-1.981 4.405,-1.922 4.108,-1.768 4.456,-1.881 4.159,-1.718 4.077,-1.641 4.424,-1.726 4.128,-1.554 4.474,-1.614 4.179,-1.435 4.096,-1.333 4.444,-1.356 4.147,-1.175 4.494,-1.167 4.412,-1.031 4.116,-0.855 4.462,-0.804 0.065,-0.011 0.065,-0.011 0.131,-0.021 0.26,-0.042 0.521,-0.084 1.041,-0.161 2.084,-0.3 0.063,-0.009 0.064,-0.009 0.128,-0.017 0.255,-0.034 0.511,-0.067 1.021,-0.129 0.064,-0.008 0.064,-0.008 0.127,-0.015 0.255,-0.031 0.511,-0.06 1.021,-0.114 0.069,-0.008 0.07,-0.007 0.138,-0.015 0.277,-0.029 0.554,-0.057 1.108,-0.107 0.069,-0.006 0.069,-0.006 0.139,-0.013 0.277,-0.025 0.554,-0.048 1.108,-0.089 0.064,-0.005 0.065,-0.004 0.129,-0.01 0.258,-0.019 0.517,-0.037 0.065,-0.004 0.065,-0.005 0.129,-0.008 0.258,-0.017 0.517,-0.033 0.065,-0.004 0.064,-0.004 0.13,-0.008 0.258,-0.015 0.517,-0.028 1.034,-0.052 0.072,-0.003 0.072,-0.004 0.144,-0.006 0.289,-0.012 0.577,-0.023 0.072,-0.003 0.072,-0.003 0.144,-0.005 0.289,-0.01 0.577,-0.018 0.072,-0.002 0.072,-0.002 0.144,-0.004 0.289,-0.007 0.072,-0.002 0.072,-0.002 0.144,-0.003 0.289,-0.007 0.072,-0.001 0.072,-10e-4 0.144,-0.003 0.072,-0.001 0.072,-0.002 0.145,-0.002 0.072,-0.001 0.072,-0.001 0.144,-0.003 0.072,-0.001 0.072,0 0.073,-0.001 0.072,-0.001"
                       style="fill:none;stroke:#426ab5;stroke-width:2;stroke-linecap:square;stroke-linejoin:miter;stroke-miterlimit:3.25;stroke-opacity:1;stroke-dasharray:none"
                       id="path6678"
                       inkscape:connector-curvature="0" /><path
                       d="m 51.412,165.494 0.064,0 0.065,0 0.064,0 0.065,0 0.064,0 0.064,0.001 0.065,0 0.064,0 0.065,0 0.064,0.001 0.065,0 0.064,0 0.065,0.001 0.064,0 0.129,10e-4 0.064,0 0.065,0.001 0.129,0.001 0.064,0.001 0.065,0 0.129,0.002 0.064,0.001 0.065,0 0.128,0.002 0.258,0.004 0.065,0.001 0.064,0.001 0.129,0.002 0.258,0.005 0.064,0.001 0.065,10e-4 0.129,0.003 0.257,0.005 0.065,0.002 0.064,0.002 0.129,0.003 0.258,0.006 0.516,0.015 0.07,0.002 0.069,0.002 0.14,0.005 0.28,0.009 0.559,0.021 0.07,0.003 0.069,0.002 0.14,0.006 0.28,0.012 0.559,0.025 0.069,0.003 0.07,0.004 0.14,0.006 0.28,0.014 0.559,0.03 1.118,0.066 0.065,0.005 0.065,0.004 0.131,0.008 0.26,0.018 0.522,0.036 1.044,0.078 0.066,0.005 0.065,0.005 0.13,0.011 0.261,0.021 0.522,0.044 1.044,0.094 0.064,0.006 0.064,0.006 0.128,0.012 0.256,0.025 0.511,0.051 1.024,0.107 0.064,0.007 0.064,0.007 0.128,0.014 0.256,0.028 0.511,0.058 1.024,0.122 0.069,0.009 0.069,0.009 0.139,0.017 0.278,0.035 0.555,0.071 1.11,0.15 2.22,0.324 0.065,0.01 0.065,0.01 0.129,0.02 0.259,0.04 0.518,0.082 1.036,0.17 2.072,0.362 4.492,0.879 4.409,0.986 4.113,1.024 4.46,1.218 4.163,1.231 4.082,1.289 4.429,1.485 4.132,1.459 4.479,1.654 4.398,1.691 4.101,1.63 4.448,1.819 4.151,1.74 4.499,1.922 4.416,1.919 4.121,1.813 4.467,1.982 4.171,1.861 4.089,1.828 4.436,1.982 4.14,1.841 4.486,1.981 4.405,1.922 4.108,1.768 4.456,1.881 4.159,1.718 4.077,1.641 4.424,1.726 4.128,1.554 4.474,1.614 4.179,1.435 4.096,1.333 4.444,1.356 4.147,1.175 4.494,1.167 4.412,1.031 4.116,0.855 4.462,0.804 0.065,0.011 0.065,0.011 0.131,0.021 0.26,0.042 0.521,0.084 1.041,0.161 2.084,0.3 0.063,0.009 0.064,0.009 0.128,0.017 0.255,0.034 0.511,0.067 1.021,0.129 0.064,0.008 0.064,0.008 0.127,0.015 0.255,0.031 0.511,0.06 1.021,0.114 0.069,0.008 0.07,0.007 0.138,0.015 0.277,0.029 0.554,0.057 1.108,0.107 0.069,0.006 0.069,0.006 0.139,0.013 0.277,0.025 0.554,0.048 1.108,0.089 0.064,0.005 0.065,0.004 0.129,0.01 0.258,0.019 0.517,0.037 0.065,0.004 0.065,0.005 0.129,0.008 0.258,0.017 0.517,0.033 0.065,0.004 0.064,0.004 0.13,0.008 0.258,0.015 0.517,0.028 1.034,0.052 0.072,0.003 0.072,0.004 0.144,0.006 0.289,0.012 0.577,0.023 0.072,0.003 0.072,0.003 0.144,0.005 0.289,0.01 0.577,0.018 0.072,0.002 0.072,0.002 0.144,0.004 0.289,0.007 0.072,0.002 0.072,0.002 0.144,0.003 0.289,0.007 0.072,0.001 0.072,10e-4 0.144,0.003 0.072,0.001 0.072,0.002 0.145,0.002 0.072,0.001 0.072,0.001 0.144,0.003 0.072,0.001 0.072,0 0.073,0.001 0.072,0.001"
                       style="fill:none;stroke:#426ab5;stroke-width:2;stroke-linecap:square;stroke-linejoin:miter;stroke-miterlimit:3.25;stroke-opacity:1;stroke-dasharray:none"
                       id="path6680"
                       inkscape:connector-curvature="0" /><path
                       d="m 51.412,95.506 0.064,0 0.065,0 0.064,0 0.065,0.001 0.064,0 0.064,10e-4 0.065,0 0.064,0.001 0.065,0.001 0.064,10e-4 0.065,0.001 0.064,0.001 0.065,10e-4 0.064,0.001 0.129,0.003 0.064,0.001 0.065,0.002 0.129,0.004 0.064,10e-4 0.065,0.002 0.129,0.005 0.064,0.002 0.065,0.002 0.128,0.005 0.258,0.011 0.065,0.003 0.064,0.003 0.129,0.007 0.258,0.014 0.064,0.004 0.065,0.003 0.129,0.008 0.257,0.017 0.065,0.005 0.064,0.004 0.129,0.01 0.258,0.02 0.516,0.044 0.07,0.006 0.069,0.007 0.14,0.013 0.28,0.028 0.559,0.062 0.07,0.008 0.069,0.008 0.14,0.017 0.28,0.035 0.559,0.075 0.069,0.009 0.07,0.01 0.14,0.021 0.28,0.041 0.559,0.089 1.118,0.196 0.065,0.012 0.065,0.013 0.131,0.024 0.26,0.052 0.522,0.106 1.044,0.229 0.066,0.015 0.065,0.015 0.13,0.031 0.261,0.062 0.522,0.129 1.044,0.273 0.064,0.017 0.064,0.018 0.128,0.035 0.256,0.072 0.511,0.146 1.024,0.309 2.047,0.674 0.069,0.025 0.069,0.024 0.139,0.049 0.278,0.098 0.555,0.202 1.11,0.418 2.22,0.899 4.144,1.881 4.492,2.307 4.409,2.499 4.113,2.511 4.46,2.89 4.163,2.833 4.082,2.884 4.429,3.232 4.132,3.096 4.479,3.432 4.398,3.434 4.101,3.25 4.448,3.569 4.151,3.365 4.499,3.676 4.416,3.634 4.121,3.406 4.467,3.706 4.171,3.467 4.089,3.402 4.436,3.69 4.14,3.437 4.486,3.714 4.405,3.631 4.108,3.366 4.456,3.624 4.159,3.351 4.077,3.249 4.424,3.477 4.128,3.191 4.474,3.389 4.179,3.088 4.096,2.942 4.444,3.079 4.147,2.749 4.494,2.821 4.412,2.581 4.116,2.211 4.462,2.147 0.065,0.029 0.065,0.03 0.131,0.058 0.26,0.115 0.521,0.228 1.041,0.443 2.084,0.834 0.063,0.025 0.064,0.024 0.128,0.048 0.255,0.097 0.511,0.188 1.021,0.365 0.064,0.022 0.064,0.022 0.127,0.044 0.255,0.087 0.511,0.171 1.021,0.326 0.069,0.022 0.07,0.021 0.138,0.043 0.277,0.083 0.554,0.164 1.108,0.309 0.069,0.018 0.069,0.019 0.139,0.036 0.277,0.072 0.554,0.14 1.108,0.26 0.064,0.015 0.065,0.014 0.129,0.029 0.258,0.056 0.517,0.107 0.065,0.013 0.065,0.013 0.129,0.026 0.258,0.05 0.517,0.097 0.065,0.011 0.064,0.012 0.13,0.023 0.258,0.044 0.517,0.086 1.034,0.153 0.072,0.01 0.072,0.01 0.144,0.019 0.289,0.037 0.577,0.068 0.072,0.008 0.072,0.008 0.144,0.015 0.289,0.03 0.577,0.054 0.072,0.006 0.072,0.006 0.144,0.012 0.289,0.022 0.072,0.006 0.072,0.005 0.144,0.01 0.289,0.019 0.072,0.004 0.072,0.004 0.144,0.008 0.072,0.004 0.072,0.004 0.145,0.007 0.072,0.004 0.072,0.003 0.144,0.007 0.072,0.003 0.072,0.002 0.073,0.003 0.072,0.003"
                       style="fill:none;stroke:#426ab5;stroke-width:2;stroke-linecap:square;stroke-linejoin:miter;stroke-miterlimit:3.25;stroke-opacity:1;stroke-dasharray:none"
                       id="path6682"
                       inkscape:connector-curvature="0" /><path
                       d="m 51.421,438.147 0.002,-0.129 0.002,-0.129 0.004,-0.258 0.002,-0.129 0.002,-0.128 0.005,-0.258 0.002,-0.129 0.003,-0.129 0.006,-0.258 0.013,-0.516 0.004,-0.128 0.003,-0.129 0.008,-0.258 0.017,-0.516 0.005,-0.129 0.004,-0.129 0.01,-0.257 0.021,-0.516 0.005,-0.129 0.006,-0.129 0.012,-0.258 0.025,-0.515 0.006,-0.129 0.007,-0.129 0.014,-0.258 0.028,-0.515 0.008,-0.129 0.007,-0.129 0.016,-0.258 0.033,-0.516 0.071,-1.031 0.01,-0.14 0.01,-0.139 0.022,-0.28 0.044,-0.559 0.095,-1.118 0.012,-0.14 0.013,-0.139 0.025,-0.28 0.053,-0.559 0.113,-1.118 0.015,-0.139 0.015,-0.14 0.03,-0.28 0.062,-0.559 0.131,-1.118 0.288,-2.236 0.017,-0.13 0.018,-0.131 0.037,-0.261 0.074,-0.521 0.153,-1.044 0.33,-2.088 0.022,-0.131 0.021,-0.13 0.044,-0.261 0.089,-0.522 0.183,-1.044 0.387,-2.088 0.025,-0.128 0.025,-0.127 0.05,-0.256 0.101,-0.512 0.207,-1.023 0.433,-2.047 0.945,-4.094 0.033,-0.139 0.034,-0.138 0.068,-0.278 0.138,-0.555 0.28,-1.11 0.582,-2.22 1.243,-4.441 2.587,-8.288 3.146,-8.983 3.375,-8.818 3.352,-8.226 3.802,-8.92 3.655,-8.327 3.638,-8.164 3.956,-8.857 3.654,-8.264 3.867,-8.959 3.645,-8.795 3.215,-8.202 3.229,-8.896 2.719,-8.303 0.044,-0.14 0.043,-0.141 0.086,-0.281 0.171,-0.562 0.337,-1.125 0.656,-2.249 1.23,-4.499 0.036,-0.138 0.036,-0.138 0.071,-0.276 0.142,-0.552 0.278,-1.104 0.535,-2.209 0.032,-0.138 0.032,-0.138 0.065,-0.276 0.127,-0.552 0.249,-1.104 0.476,-2.208 0.027,-0.129 0.026,-0.129 0.053,-0.257 0.105,-0.515 0.205,-1.03 0.389,-2.061 0.024,-0.128 0.023,-0.129 0.046,-0.258 0.091,-0.515 0.177,-1.03 0.333,-2.06 0.022,-0.14 0.021,-0.139 0.043,-0.279 0.083,-0.559 0.16,-1.117 0.019,-0.139 0.019,-0.14 0.038,-0.279 0.075,-0.558 0.143,-1.117 0.017,-0.14 0.017,-0.14 0.034,-0.279 0.065,-0.558 0.125,-1.117 0.224,-2.234 0.012,-0.13 0.011,-0.13 0.024,-0.261 0.045,-0.521 0.084,-1.043 0.01,-0.13 0.01,-0.131 0.019,-0.26 0.037,-0.522 0.068,-1.043 0.008,-0.13 0.008,-0.13 0.016,-0.261 0.029,-0.521 0.007,-0.131 0.007,-0.13 0.013,-0.261 0.025,-0.521 0.006,-0.13 0.006,-0.131 0.011,-0.26 0.022,-0.522 0.004,-0.13 0.005,-0.13 0.01,-0.261 0.017,-0.522 0.004,-0.127 0.004,-0.128 0.007,-0.256 0.003,-0.127 0.003,-0.128 0.007,-0.256 0.003,-0.128 0.002,-0.127 0.006,-0.256 0.002,-0.128 0.002,-0.127 0.005,-0.256 0.002,-0.128 0.002,-0.128 0.001,-0.127 0.002,-0.128 0.001,-0.128 0.002,-0.128 0.001,-0.128 10e-4,-0.127 0.001,-0.128 0.001,-0.128 10e-4,-0.128 0,-0.127 0.001,-0.128 0,-0.128 0.001,-0.128 0,-0.128 0,-0.127 0,-0.128 -0.001,-0.128 0,-0.128 0,-0.127 -0.001,-0.128 -10e-4,-0.128 0,-0.128 -0.001,-0.128 -0.001,-0.127 -0.002,-0.128 -0.001,-0.128 -10e-4,-0.128 -0.002,-0.128 -0.003,-0.255 -0.002,-0.128 -0.002,-0.128 -0.005,-0.255 -0.002,-0.128 -0.003,-0.128 -0.005,-0.255 -0.003,-0.128 -0.003,-0.128 -0.006,-0.255 -0.014,-0.512 -0.005,-0.138 -0.004,-0.139 -0.009,-0.277 -0.02,-0.555 -0.005,-0.138 -0.005,-0.139 -0.012,-0.277 -0.024,-0.555 -0.007,-0.138 -0.006,-0.139 -0.014,-0.277 -0.029,-0.555 -0.064,-1.109 -0.009,-0.138 -0.009,-0.139 -0.018,-0.277 -0.038,-0.555 -0.082,-1.109 -0.011,-0.138 -0.011,-0.139 -0.023,-0.277 -0.047,-0.555 -0.1,-1.109 -0.012,-0.129 -0.013,-0.129 -0.025,-0.259 -0.051,-0.518 -0.11,-1.034 -0.241,-2.07 -0.016,-0.13 -0.016,-0.129 -0.033,-0.259 -0.067,-0.517 -0.139,-1.035 -0.301,-2.07 -0.022,-0.14 -0.021,-0.14 -0.044,-0.281 -0.088,-0.561 -0.184,-1.121 -0.393,-2.244 -0.026,-0.14 -0.025,-0.14 -0.052,-0.28 -0.106,-0.561 -0.217,-1.122 -0.458,-2.243 -0.029,-0.138 -0.029,-0.138 -0.059,-0.275 -0.119,-0.55 -0.244,-1.102 -0.509,-2.202 -1.105,-4.405 -0.034,-0.128 -0.034,-0.128 -0.068,-0.257 -0.137,-0.514 -0.28,-1.027 -0.575,-2.054 -1.216,-4.108 -2.915,-8.911 -3.017,-8.318 -3.187,-8.154 -3.66,-8.848 -3.554,-8.256 -3.951,-8.949 -3.732,-8.357 L 78.54,112.87 74.633,103.983 71.089,95.689 67.415,86.701 64.034,77.877 61.133,69.645 58.324,60.72 58.286,60.59 58.248,60.46 58.172,60.199 58.021,59.678 57.724,58.637 57.148,56.554 56.067,52.387 56.036,52.26 56.004,52.132 55.942,51.877 55.818,51.366 55.574,50.345 55.105,48.303 55.077,48.175 55.049,48.047 54.992,47.792 54.881,47.282 54.662,46.26 54.246,44.218 54.218,44.08 54.191,43.941 54.137,43.664 54.03,43.11 53.823,42.002 53.433,39.787 53.41,39.648 53.387,39.51 53.341,39.233 53.25,38.679 53.076,37.571 52.752,35.355 52.734,35.226 52.716,35.097 52.681,34.838 52.612,34.322 52.48,33.288 52.464,33.159 52.448,33.029 52.417,32.771 52.356,32.254 52.239,31.22 52.225,31.091 52.211,30.962 52.183,30.703 52.129,30.186 52.027,29.153 52.015,29.023 52.003,28.894 51.979,28.636 51.933,28.119 51.847,27.085 51.835,26.941 51.824,26.797 51.802,26.508 51.759,25.931 51.749,25.787 51.739,25.643 51.719,25.354 51.682,24.777 51.673,24.633 51.664,24.489 51.647,24.2 51.614,23.623 51.606,23.479 51.598,23.335 51.584,23.046 51.556,22.469 51.549,22.325 51.543,22.181 51.53,21.892 51.507,21.315 51.502,21.171 51.497,21.027 51.487,20.738 51.469,20.161 51.465,20.017 51.461,19.873 51.453,19.584 51.45,19.44 51.446,19.296 51.44,19.007 51.437,18.863 51.435,18.719 51.432,18.574 51.43,18.43 51.427,18.286 51.425,18.142 51.423,17.997 51.421,17.853"
                       style="fill:none;stroke:#426ab5;stroke-width:2;stroke-linecap:square;stroke-linejoin:miter;stroke-miterlimit:3.25;stroke-opacity:1;stroke-dasharray:4, 4;stroke-dashoffset:0"
                       id="path6684"
                       inkscape:connector-curvature="0" /><path
                       d="m 51.441,438.147 0.005,-0.129 0.005,-0.129 0.011,-0.258 0.007,-0.129 0.006,-0.128 0.015,-0.258 0.008,-0.129 0.008,-0.129 0.017,-0.258 0.039,-0.516 0.011,-0.128 0.011,-0.129 0.023,-0.258 0.051,-0.516 0.014,-0.129 0.014,-0.129 0.029,-0.257 0.062,-0.516 0.016,-0.129 0.017,-0.129 0.035,-0.258 0.074,-0.515 0.019,-0.129 0.02,-0.129 0.041,-0.258 0.085,-0.515 0.022,-0.129 0.023,-0.129 0.046,-0.258 0.096,-0.516 0.21,-1.031 0.03,-0.14 0.03,-0.139 0.062,-0.28 0.129,-0.559 0.277,-1.118 0.036,-0.14 0.037,-0.139 0.075,-0.28 0.154,-0.559 0.325,-1.118 0.043,-0.139 0.042,-0.14 0.087,-0.28 0.178,-0.559 0.372,-1.118 0.81,-2.236 0.05,-0.13 0.051,-0.131 0.101,-0.261 0.206,-0.521 0.426,-1.044 0.903,-2.088 1.997,-4.176 0.065,-0.128 0.065,-0.127 0.131,-0.256 0.265,-0.512 0.539,-1.023 1.116,-2.047 2.371,-4.094 5.683,-8.881 5.815,-8.288 6.703,-8.983 6.869,-8.818 6.59,-8.226 7.281,-8.92 6.879,-8.327 6.782,-8.164 7.367,-8.857 6.846,-8.264 7.35,-8.959 7.097,-8.795 6.459,-8.202 6.757,-8.896 5.983,-8.303 5.987,-8.997 0.087,-0.138 0.087,-0.138 0.173,-0.276 0.344,-0.552 0.679,-1.104 1.323,-2.209 2.492,-4.416 0.069,-0.129 0.069,-0.129 0.138,-0.257 0.272,-0.515 0.536,-1.03 1.029,-2.061 0.063,-0.128 0.062,-0.129 0.124,-0.258 0.244,-0.515 0.478,-1.03 0.908,-2.06 0.059,-0.14 0.059,-0.139 0.117,-0.279 0.23,-0.559 0.445,-1.117 0.054,-0.139 0.054,-0.14 0.106,-0.279 0.209,-0.558 0.403,-1.117 0.048,-0.14 0.049,-0.14 0.096,-0.279 0.187,-0.558 0.358,-1.117 0.644,-2.234 0.035,-0.13 0.034,-0.13 0.068,-0.261 0.131,-0.521 0.246,-1.043 0.029,-0.13 0.029,-0.131 0.057,-0.26 0.109,-0.522 0.202,-1.043 0.023,-0.13 0.023,-0.13 0.046,-0.261 0.086,-0.521 0.021,-0.131 0.02,-0.13 0.04,-0.261 0.075,-0.521 0.018,-0.13 0.017,-0.131 0.034,-0.26 0.063,-0.522 0.015,-0.13 0.014,-0.13 0.028,-0.261 0.051,-0.522 0.012,-0.127 0.011,-0.128 0.022,-0.256 0.01,-0.127 0.01,-0.128 0.019,-0.256 0.008,-0.128 0.009,-0.127 0.016,-0.256 0.007,-0.128 0.007,-0.127 0.013,-0.256 0.006,-0.128 0.005,-0.128 0.005,-0.127 0.005,-0.128 0.005,-0.128 0.004,-0.128 0.003,-0.128 0.004,-0.127 0.003,-0.128 0.002,-0.128 0.003,-0.128 0.002,-0.127 0.001,-0.128 0.001,-0.128 0.001,-0.128 0.001,-0.128 0,-0.127 -0.001,-0.128 0,-0.128 -0.001,-0.128 -0.002,-0.127 -10e-4,-0.128 -0.002,-0.128 -0.003,-0.128 -0.003,-0.128 -0.003,-0.127 -0.003,-0.128 -0.004,-0.128 -0.005,-0.128 -0.004,-0.128 -0.011,-0.255 -0.005,-0.128 -0.006,-0.128 -0.014,-0.255 -0.007,-0.128 -0.007,-0.128 -0.016,-0.255 -0.009,-0.128 -0.009,-0.128 -0.019,-0.255 -0.042,-0.512 -0.013,-0.138 -0.013,-0.139 -0.027,-0.277 -0.059,-0.555 -0.016,-0.138 -0.016,-0.139 -0.034,-0.277 -0.072,-0.555 -0.019,-0.138 -0.02,-0.139 -0.04,-0.277 -0.086,-0.555 -0.191,-1.109 -0.026,-0.138 -0.026,-0.139 -0.053,-0.277 -0.112,-0.555 -0.242,-1.109 -0.032,-0.138 -0.032,-0.139 -0.066,-0.277 -0.137,-0.555 -0.292,-1.109 -0.035,-0.129 -0.036,-0.129 -0.073,-0.259 -0.149,-0.518 -0.314,-1.034 -0.687,-2.07 -0.046,-0.13 -0.046,-0.129 -0.092,-0.259 -0.189,-0.517 -0.39,-1.035 -0.835,-2.07 -0.059,-0.14 -0.06,-0.14 -0.119,-0.281 -0.243,-0.561 -0.5,-1.121 -1.056,-2.244 -2.315,-4.486 -0.075,-0.138 -0.075,-0.138 -0.151,-0.275 -0.305,-0.55 -0.62,-1.102 -1.279,-2.202 -2.702,-4.405 -5.47,-8.216 -6.415,-8.911 -6.316,-8.318 -6.413,-8.154 -7.133,-8.848 -6.767,-8.256 -7.409,-8.949 -6.95,-8.357 -6.809,-8.193 -7.345,-8.887 L 95.85,95.689 88.64,86.701 81.762,77.877 75.601,69.645 69.309,60.72 63.939,52.387 63.862,52.26 63.784,52.132 63.63,51.877 63.323,51.366 62.717,50.345 61.538,48.303 59.323,44.218 59.251,44.08 59.18,43.941 59.038,43.664 58.757,43.11 58.208,42.002 57.16,39.787 57.097,39.648 57.034,39.51 56.91,39.233 l -0.247,-0.554 -0.478,-1.108 -0.898,-2.216 -0.05,-0.129 -0.049,-0.129 -0.099,-0.259 -0.193,-0.516 -0.373,-1.034 -0.045,-0.129 -0.045,-0.13 -0.089,-0.258 -0.174,-0.517 -0.335,-1.034 -0.04,-0.129 -0.04,-0.129 -0.08,-0.259 -0.154,-0.517 -0.295,-1.033 -0.035,-0.13 -0.035,-0.129 -0.069,-0.258 -0.134,-0.517 -0.253,-1.034 -0.033,-0.144 -0.033,-0.144 -0.065,-0.289 -0.125,-0.577 -0.03,-0.144 -0.03,-0.144 -0.058,-0.289 -0.111,-0.577 -0.026,-0.144 -0.027,-0.144 -0.051,-0.289 -0.097,-0.577 -0.023,-0.144 -0.022,-0.144 -0.044,-0.289 -0.083,-0.577 -0.02,-0.144 -0.019,-0.144 -0.037,-0.289 -0.068,-0.577 -0.016,-0.144 -0.016,-0.144 -0.029,-0.289 -0.054,-0.577 -0.012,-0.144 -0.012,-0.144 -0.023,-0.289 -0.01,-0.144 -0.01,-0.144 -0.019,-0.289 -0.008,-0.144 -0.009,-0.144 -0.007,-0.145 -0.008,-0.144 -0.006,-0.144 -0.007,-0.144 -0.006,-0.145 -0.005,-0.144"
                       style="fill:none;stroke:#426ab5;stroke-width:2;stroke-linecap:square;stroke-linejoin:miter;stroke-miterlimit:3.25;stroke-opacity:1;stroke-dasharray:4, 4;stroke-dashoffset:0"
                       id="path6686"
                       inkscape:connector-curvature="0" /></g></g></g></g></g></g></g></g><path
       style="fill:none;stroke:#000000;stroke-width:2.50267816;stroke-linecap:butt;stroke-linejoin:miter;stroke-miterlimit:4;stroke-opacity:1;stroke-dasharray:none;marker-mid:url(#Arrow1Mend)"
       d="M 131.76985,359.46478 92.344099,320.61883 51.575135,280.44942"
       id="path8642"
       inkscape:connector-curvature="0"
       sodipodi:nodetypes="ccc" /><path
       style="fill:none;stroke:#000000;stroke-width:2.44060302;stroke-linecap:butt;stroke-linejoin:miter;stroke-miterlimit:4;stroke-opacity:1;stroke-dasharray:4.88120613, 2.44060306;stroke-dashoffset:0;marker-mid:url(#Arrow1Mend)"
       d="m 51.599135,281.40953 77.565445,-77.56544 55.95484,-55.95485"
       id="path8646"
       inkscape:connector-curvature="0"
       sodipodi:nodetypes="ccc" /><g
       id="g9060"
       transform="matrix(1.4418559,0,0,1.4418559,-196.44772,-140.74451)"><g
         id="content"
         transform="matrix(0.39390714,0,0,-0.39390714,-68.93375,405)"
         xml:space="preserve"
         stroke-miterlimit="10.433"
         font-style="normal"
         font-variant="normal"
         font-weight="normal"
         font-stretch="normal"
         font-size-adjust="none"
         letter-spacing="normal"
         word-spacing="normal"
         style="font-style:normal;font-variant:normal;font-weight:normal;font-stretch:normal;letter-spacing:normal;word-spacing:normal;text-anchor:start;fill:none;stroke:#000000;stroke-linecap:butt;stroke-linejoin:miter;stroke-miterlimit:10.43299961;stroke-opacity:1;stroke-dasharray:none;stroke-dashoffset:0"><path
           d="m 459.91,409.14 -0.02,-0.07 -0.01,-0.08 -0.02,-0.07 -0.01,-0.08 -0.04,-0.16 -0.04,-0.16 -0.03,-0.16 -0.04,-0.16 -0.04,-0.16 -0.04,-0.16 -0.01,-0.08 -0.02,-0.07 -0.02,-0.07 -0.01,-0.07 -0.02,-0.07 -0.01,-0.07 -0.01,-0.06 -0.01,-0.06 -0.01,-0.06 -0.01,-0.05 -0.01,-0.05 -0.01,-0.04 -0.01,-0.04 0,-0.04 0,-0.03 0,-0.02 c 0,-0.89 0.7,-1.35 1.43,-1.35 0.61,0 1.5,0.39 1.85,1.39 0.11,0.21 1.8,6.99 2,7.88 0.39,1.64 1.3,5.12 1.59,6.48 0.21,0.64 1.6,2.99 2.78,4.08 0.41,0.34 1.85,1.64 4,1.64 1.28,0 2.03,-0.59 2.08,-0.59 -1.48,-0.25 -2.58,-1.46 -2.58,-2.74 0,-0.79 0.55,-1.75 1.89,-1.75 1.35,0 2.74,1.14 2.74,2.94 0,1.75 -1.6,3.23 -4.13,3.23 -3.25,0 -5.43,-2.43 -6.39,-3.82 -0.39,2.23 -2.18,3.82 -4.53,3.82 -2.28,0 -3.23,-1.93 -3.69,-2.82 -0.89,-1.71 -1.54,-4.69 -1.54,-4.85 0,-0.5 0.5,-0.5 0.61,-0.5 0.5,0 0.54,0.07 0.84,1.16 0.84,3.53 1.84,5.92 3.64,5.92 0.84,0 1.55,-0.39 1.55,-2.28 0,-1.05 -0.16,-1.61 -0.8,-4.19 z"
           id="path9063"
           inkscape:connector-curvature="0"
           style="fill:#000000;stroke-width:0" /><path
           d="m 527.43,422.5 0.14,0 0.15,0 0.14,0 0.07,0.01 0.08,0 0.07,0.01 0.07,0.01 0.07,0.01 0.07,0.01 0.07,0.01 0.06,0.02 0.07,0.02 0.06,0.02 0.06,0.02 0.06,0.03 0.06,0.03 0.05,0.04 0.05,0.03 0.05,0.05 0.04,0.04 0.04,0.05 0.02,0.03 0.02,0.03 0.01,0.02 0.02,0.03 0.01,0.03 0.02,0.04 0.01,0.03 0.01,0.04 0.01,0.03 0.01,0.04 0,0.04 0.01,0.04 0,0.04 0.01,0.04 0,0.04 0,0.05 c 0,1 -0.95,1 -1.64,1 h -29.84 c -0.71,0 -1.64,0 -1.64,-1 0,-0.98 0.93,-0.98 1.68,-0.98 z"
           id="path9065"
           inkscape:connector-curvature="0"
           style="fill:#000000;stroke-width:0" /><path
           d="m 527.48,412.82 0.07,0 0.06,0 0.14,0.01 0.14,0 0.07,0 0.07,0.01 0.07,0.01 0.07,0 0.06,0.01 0.07,0.02 0.07,0.01 0.06,0.02 0.07,0.02 0.06,0.02 0.06,0.02 0.06,0.03 0.05,0.03 0.05,0.04 0.05,0.04 0.05,0.04 0.04,0.05 0.02,0.02 0.02,0.03 0.02,0.02 0.02,0.03 0.01,0.03 0.02,0.03 0.01,0.03 0.02,0.03 0.01,0.04 0.01,0.03 0.01,0.04 0.01,0.04 0,0.04 0.01,0.04 0,0.04 0.01,0.04 0,0.05 0,0.04 c 0,1 -0.95,1 -1.69,1 h -29.75 c -0.75,0 -1.68,0 -1.68,-1 0,-1 0.93,-1 1.64,-1 z"
           id="path9067"
           inkscape:connector-curvature="0"
           style="fill:#000000;stroke-width:0" /><path
           d="m 568.8,422.14 -0.01,0.74 -0.01,0.75 -0.02,0.75 -0.03,0.74 -0.04,0.75 -0.06,0.74 -0.08,0.74 -0.1,0.73 -0.11,0.73 -0.14,0.73 -0.16,0.72 -0.19,0.72 -0.22,0.72 -0.24,0.7 -0.28,0.7 -0.15,0.35 -0.16,0.34 c -2.28,4.8 -6.38,5.6 -8.47,5.6 -2.99,0 -6.63,-1.3 -8.67,-5.94 -1.6,-3.44 -1.85,-7.33 -1.85,-11.31 0,-3.74 0.21,-8.22 2.25,-12 2.14,-4.03 5.78,-5.03 8.22,-5.03 v 1.09 c -1.94,0 -4.89,1.25 -5.78,6.03 -0.55,2.98 -0.55,7.56 -0.55,10.52 0,3.18 0,6.46 0.41,9.15 0.94,5.94 4.67,6.38 5.92,6.38 1.64,0 4.94,-0.89 5.88,-5.83 0.5,-2.78 0.5,-6.58 0.5,-9.7 0,-3.75 0,-7.13 -0.55,-10.32 -0.75,-4.73 -3.59,-6.23 -5.83,-6.23 h 0 v -1.09 c 2.69,0 6.47,1.04 8.67,5.78 1.6,3.43 1.85,7.31 1.85,11.25 z"
           id="path9069"
           inkscape:connector-curvature="0"
           style="fill:#000000;stroke-width:0" /></g></g><g
       id="g9169"
       transform="matrix(1.6768174,0,0,1.6768174,85.69953,-173.49636)"><g
         word-spacing="normal"
         letter-spacing="normal"
         font-size-adjust="none"
         font-stretch="normal"
         font-weight="normal"
         font-variant="normal"
         font-style="normal"
         stroke-miterlimit="10.433"
         xml:space="preserve"
         transform="matrix(0.39390714,0,0,-0.39390714,-68.93375,405)"
         id="g9171"
         style="font-style:normal;font-variant:normal;font-weight:normal;font-stretch:normal;letter-spacing:normal;word-spacing:normal;text-anchor:start;fill:none;stroke:#000000;stroke-linecap:butt;stroke-linejoin:miter;stroke-miterlimit:10.43299961;stroke-opacity:1;stroke-dasharray:none;stroke-dashoffset:0"><path
           id="path9173"
           d="m 469.68,437.34 -0.01,0.09 0,0.09 -0.01,0.1 -0.02,0.08 -0.01,0.09 -0.03,0.09 -0.02,0.08 -0.03,0.08 -0.03,0.08 -0.04,0.08 -0.04,0.08 -0.05,0.07 -0.04,0.07 -0.06,0.07 -0.05,0.06 -0.06,0.06 -0.06,0.06 -0.06,0.06 -0.07,0.05 -0.07,0.05 -0.08,0.05 -0.07,0.04 -0.09,0.04 -0.08,0.04 -0.08,0.03 -0.09,0.03 -0.1,0.02 -0.09,0.02 -0.1,0.02 -0.1,0.01 -0.1,0 -0.11,0.01 c -1.36,0 -2.7,-1.3 -2.7,-2.64 0,-0.96 0.7,-1.8 1.91,-1.8 1.14,0 2.64,1.14 2.64,2.64 z"
           inkscape:connector-curvature="0"
           style="fill:#000000;stroke-width:0" /><path
           id="path9175"
           d="m 465.88,418.61 0.05,0.13 0.05,0.12 0.05,0.12 0.05,0.11 0.04,0.1 0.04,0.1 0.03,0.09 0.04,0.09 0.03,0.09 0.04,0.08 0.03,0.08 0.02,0.08 0.03,0.07 0.03,0.07 0.05,0.15 0.05,0.14 0.05,0.14 0.03,0.07 0.03,0.08 0.03,0.08 0.02,0.08 0.04,0.08 0.03,0.09 0.03,0.1 0.04,0.09 0.03,0.11 0.04,0.11 0.05,0.11 0.04,0.13 c 0.41,1 0.66,1.68 0.66,2.64 0,2.23 -1.59,4.07 -4.09,4.07 -4.68,0 -6.58,-7.21 -6.58,-7.67 0,-0.5 0.5,-0.5 0.61,-0.5 0.5,0 0.54,0.11 0.79,0.91 1.35,4.69 3.33,6.17 5.03,6.17 0.4,0 1.25,0 1.25,-1.59 0,-1.05 -0.35,-2.1 -0.56,-2.6 -0.39,-1.29 -2.64,-7.06 -3.44,-9.22 -0.48,-1.28 -1.14,-2.93 -1.14,-3.98 0,-2.33 1.69,-4.08 4.1,-4.08 4.67,0 6.51,7.22 6.51,7.67 0,0.5 -0.43,0.5 -0.59,0.5 -0.5,0 -0.5,-0.15 -0.75,-0.9 -0.89,-3.13 -2.53,-6.17 -5.08,-6.17 -0.84,0 -1.2,0.5 -1.2,1.64 0,1.25 0.31,1.95 1.45,4.98 z"
           inkscape:connector-curvature="0"
           style="fill:#000000;stroke-width:0" /><path
           id="path9177"
           d="m 490.66,435.31 0,0.71 -0.02,0.68 -0.03,0.66 -0.04,0.64 -0.06,0.62 -0.07,0.59 -0.09,0.58 -0.11,0.56 -0.13,0.55 -0.15,0.52 -0.17,0.52 -0.19,0.5 -0.21,0.49 -0.24,0.48 -0.26,0.47 -0.14,0.23 -0.15,0.23 c -1.08,1.61 -3.23,3 -6.03,3 -8.08,0 -8.08,-9.52 -8.08,-12.03 0,-2.5 0,-11.81 8.08,-11.81 v 0.98 c -1.59,0 -3.72,0.94 -4.42,3.8 -0.49,2.04 -0.49,4.9 -0.49,7.48 0,2.55 0,5.2 0.52,7.11 0.73,2.75 2.97,3.49 4.39,3.49 1.89,0 3.7,-1.15 4.33,-3.18 0.56,-1.87 0.59,-4.39 0.59,-7.42 0,-2.58 0,-5.15 -0.45,-7.34 -0.7,-3.17 -3.06,-3.94 -4.47,-3.94 h 0 v -0.98 c 8.09,0 8.09,9.31 8.09,11.81 z"
           inkscape:connector-curvature="0"
           style="fill:#000000;stroke-width:0" /></g></g><g
       id="g9287"
       transform="matrix(1.7221734,0,0,1.7221734,-149.004,50.052878)"><g
         id="g9289"
         transform="matrix(0.39390714,0,0,-0.39390714,-68.93375,405)"
         xml:space="preserve"
         stroke-miterlimit="10.433"
         font-style="normal"
         font-variant="normal"
         font-weight="normal"
         font-stretch="normal"
         font-size-adjust="none"
         letter-spacing="normal"
         word-spacing="normal"
         style="font-style:normal;font-variant:normal;font-weight:normal;font-stretch:normal;letter-spacing:normal;word-spacing:normal;text-anchor:start;fill:none;stroke:#000000;stroke-linecap:butt;stroke-linejoin:miter;stroke-miterlimit:10.43299961;stroke-opacity:1;stroke-dasharray:none;stroke-dashoffset:0"><path
           d="m 469.68,437.34 -0.01,0.09 0,0.09 -0.01,0.1 -0.02,0.08 -0.01,0.09 -0.03,0.09 -0.02,0.08 -0.03,0.08 -0.03,0.08 -0.04,0.08 -0.04,0.08 -0.05,0.07 -0.04,0.07 -0.06,0.07 -0.05,0.06 -0.06,0.06 -0.06,0.06 -0.06,0.06 -0.07,0.05 -0.07,0.05 -0.08,0.05 -0.07,0.04 -0.09,0.04 -0.08,0.04 -0.08,0.03 -0.09,0.03 -0.1,0.02 -0.09,0.02 -0.1,0.02 -0.1,0.01 -0.1,0 -0.11,0.01 c -1.36,0 -2.7,-1.3 -2.7,-2.64 0,-0.96 0.7,-1.8 1.91,-1.8 1.14,0 2.64,1.14 2.64,2.64 z"
           id="path9291"
           inkscape:connector-curvature="0"
           style="fill:#000000;stroke-width:0" /><path
           d="m 465.88,418.61 0.05,0.13 0.05,0.12 0.05,0.12 0.05,0.11 0.04,0.1 0.04,0.1 0.03,0.09 0.04,0.09 0.03,0.09 0.04,0.08 0.03,0.08 0.02,0.08 0.03,0.07 0.03,0.07 0.05,0.15 0.05,0.14 0.05,0.14 0.03,0.07 0.03,0.08 0.03,0.08 0.02,0.08 0.04,0.08 0.03,0.09 0.03,0.1 0.04,0.09 0.03,0.11 0.04,0.11 0.05,0.11 0.04,0.13 c 0.41,1 0.66,1.68 0.66,2.64 0,2.23 -1.59,4.07 -4.09,4.07 -4.68,0 -6.58,-7.21 -6.58,-7.67 0,-0.5 0.5,-0.5 0.61,-0.5 0.5,0 0.54,0.11 0.79,0.91 1.35,4.69 3.33,6.17 5.03,6.17 0.4,0 1.25,0 1.25,-1.59 0,-1.05 -0.35,-2.1 -0.56,-2.6 -0.39,-1.29 -2.64,-7.06 -3.44,-9.22 -0.48,-1.28 -1.14,-2.93 -1.14,-3.98 0,-2.33 1.69,-4.08 4.1,-4.08 4.67,0 6.51,7.22 6.51,7.67 0,0.5 -0.43,0.5 -0.59,0.5 -0.5,0 -0.5,-0.15 -0.75,-0.9 -0.89,-3.13 -2.53,-6.17 -5.08,-6.17 -0.84,0 -1.2,0.5 -1.2,1.64 0,1.25 0.31,1.95 1.45,4.98 z"
           id="path9293"
           inkscape:connector-curvature="0"
           style="fill:#000000;stroke-width:0" /><path
           d="m 498.6,432.07 0.06,0 0.05,0 0.11,0.01 0.12,0 0.06,0 0.06,0.01 0.05,0 0.06,0.01 0.06,0.01 0.06,0.01 0.06,0.01 0.05,0.01 0.05,0.02 0.06,0.02 0.05,0.02 0.05,0.02 0.05,0.03 0.04,0.03 0.04,0.03 0.04,0.04 0.04,0.04 0.02,0.02 0.01,0.02 0.02,0.02 0.01,0.03 0.02,0.02 0.01,0.03 0.01,0.02 0.02,0.03 0.01,0.03 0.01,0.03 0,0.03 0.01,0.03 0.01,0.04 0,0.03 0.01,0.03 0,0.04 0,0.04 0,0.04 c 0,0.86 -0.79,0.86 -1.39,0.86 h -20.76 c -0.57,0 -1.39,0 -1.39,-0.83 0,-0.88 0.79,-0.88 1.39,-0.88 z"
           id="path9295"
           inkscape:connector-curvature="0"
           style="fill:#000000;stroke-width:0" /></g></g><g
       id="g9415"
       transform="matrix(1.7701092,0,0,1.7701092,-155.87929,-424.12585)"><g
         word-spacing="normal"
         letter-spacing="normal"
         font-size-adjust="none"
         font-stretch="normal"
         font-weight="normal"
         font-variant="normal"
         font-style="normal"
         stroke-miterlimit="10.433"
         xml:space="preserve"
         transform="matrix(0.39390714,0,0,-0.39390714,-68.93375,405)"
         id="g9417"
         style="font-style:normal;font-variant:normal;font-weight:normal;font-stretch:normal;letter-spacing:normal;word-spacing:normal;text-anchor:start;fill:none;stroke:#000000;stroke-linecap:butt;stroke-linejoin:miter;stroke-miterlimit:10.43299961;stroke-opacity:1;stroke-dasharray:none;stroke-dashoffset:0"><path
           id="path9419"
           d="m 469.68,437.34 -0.01,0.09 0,0.09 -0.01,0.1 -0.02,0.08 -0.01,0.09 -0.03,0.09 -0.02,0.08 -0.03,0.08 -0.03,0.08 -0.04,0.08 -0.04,0.08 -0.05,0.07 -0.04,0.07 -0.06,0.07 -0.05,0.06 -0.06,0.06 -0.06,0.06 -0.06,0.06 -0.07,0.05 -0.07,0.05 -0.08,0.05 -0.07,0.04 -0.09,0.04 -0.08,0.04 -0.08,0.03 -0.09,0.03 -0.1,0.02 -0.09,0.02 -0.1,0.02 -0.1,0.01 -0.1,0 -0.11,0.01 c -1.36,0 -2.7,-1.3 -2.7,-2.64 0,-0.96 0.7,-1.8 1.91,-1.8 1.14,0 2.64,1.14 2.64,2.64 z"
           inkscape:connector-curvature="0"
           style="fill:#000000;stroke-width:0" /><path
           id="path9421"
           d="m 465.88,418.61 0.05,0.13 0.05,0.12 0.05,0.12 0.05,0.11 0.04,0.1 0.04,0.1 0.03,0.09 0.04,0.09 0.03,0.09 0.04,0.08 0.03,0.08 0.02,0.08 0.03,0.07 0.03,0.07 0.05,0.15 0.05,0.14 0.05,0.14 0.03,0.07 0.03,0.08 0.03,0.08 0.02,0.08 0.04,0.08 0.03,0.09 0.03,0.1 0.04,0.09 0.03,0.11 0.04,0.11 0.05,0.11 0.04,0.13 c 0.41,1 0.66,1.68 0.66,2.64 0,2.23 -1.59,4.07 -4.09,4.07 -4.68,0 -6.58,-7.21 -6.58,-7.67 0,-0.5 0.5,-0.5 0.61,-0.5 0.5,0 0.54,0.11 0.79,0.91 1.35,4.69 3.33,6.17 5.03,6.17 0.4,0 1.25,0 1.25,-1.59 0,-1.05 -0.35,-2.1 -0.56,-2.6 -0.39,-1.29 -2.64,-7.06 -3.44,-9.22 -0.48,-1.28 -1.14,-2.93 -1.14,-3.98 0,-2.33 1.69,-4.08 4.1,-4.08 4.67,0 6.51,7.22 6.51,7.67 0,0.5 -0.43,0.5 -0.59,0.5 -0.5,0 -0.5,-0.15 -0.75,-0.9 -0.89,-3.13 -2.53,-6.17 -5.08,-6.17 -0.84,0 -1.2,0.5 -1.2,1.64 0,1.25 0.31,1.95 1.45,4.98 z"
           inkscape:connector-curvature="0"
           style="fill:#000000;stroke-width:0" /><path
           id="path9423"
           d="m 488.82,432.07 h 10.66 c 0.45,0 1.28,0 1.28,0.85 0,0.86 -0.8,0.86 -1.28,0.86 h -10.66 v 10.7 c 0,0.45 0,1.28 -0.84,1.28 -0.88,0 -0.88,-0.8 -0.88,-1.28 v -10.7 h -10.69 c -0.45,0 -1.29,0 -1.29,-0.83 0,-0.88 0.79,-0.88 1.29,-0.88 h 10.69 v -10.7 c 0,-0.45 0,-1.28 0.85,-1.28 0.87,0 0.87,0.8 0.87,1.28 z"
           inkscape:connector-curvature="0"
           style="fill:#000000;stroke-width:0" /></g></g><g
       id="g9553"
       transform="matrix(1.5317851,0,0,1.5317851,-7.986465,-260.057)"><g
         id="g9555"
         transform="matrix(0.39390714,0,0,-0.39390714,-68.93375,405)"
         xml:space="preserve"
         stroke-miterlimit="10.433"
         font-style="normal"
         font-variant="normal"
         font-weight="normal"
         font-stretch="normal"
         font-size-adjust="none"
         letter-spacing="normal"
         word-spacing="normal"
         style="font-style:normal;font-variant:normal;font-weight:normal;font-stretch:normal;letter-spacing:normal;word-spacing:normal;text-anchor:start;fill:none;stroke:#000000;stroke-linecap:butt;stroke-linejoin:miter;stroke-miterlimit:10.43299961;stroke-opacity:1;stroke-dasharray:none;stroke-dashoffset:0"><path
           d="m 486.16,440.23 -0.45,-0.01 -0.44,-0.02 -0.44,-0.03 -0.43,-0.04 -0.43,-0.06 -0.42,-0.06 -0.42,-0.08 -0.42,-0.08 -0.4,-0.1 -0.41,-0.1 -0.39,-0.11 -0.39,-0.12 -0.39,-0.13 -0.38,-0.13 -0.37,-0.14 -0.36,-0.14 -0.7,-0.3 -0.68,-0.32 -0.64,-0.33 -0.3,-0.16 -0.3,-0.17 -0.29,-0.17 -0.28,-0.16 -0.27,-0.17 -0.26,-0.17 -0.25,-0.16 -0.24,-0.16 -0.23,-0.16 -0.22,-0.16 c -5.44,-3.89 -6.03,-8.08 -6.03,-8.17 0,-0.34 0.29,-0.34 0.5,-0.34 1.14,0 3.37,1.39 3.68,2.28 1.64,5.28 5.22,7.42 10.11,7.42 h 6.63 c -5.49,-4.37 -7.77,-11.91 -11.06,-24.86 -1.19,-4.62 -4.24,-9.61 -9.27,-9.61 -3.89,0 -7.42,2.6 -7.42,6.92 0,1 0.25,1.85 0.25,2.05 0,0.14 -0.05,0.45 -0.5,0.45 -0.3,0 -1.46,-0.25 -2.85,-1.29 -0.59,-0.46 -1.14,-0.96 -1.14,-3.3 0,-4.58 3.49,-7.56 8.38,-7.56 4.23,0 8.26,2.39 10.7,4.48 4.58,3.92 5.49,7.56 6.38,11.11 1.84,7.22 4.23,16.28 7.97,20.47 0.79,0.89 1,1.05 2.15,1.14 2.24,0.16 3.92,1.84 3.92,2.39 0,0.31 -0.04,0.36 -1.14,0.36 z"
           id="path9557"
           inkscape:connector-curvature="0"
           style="fill:#000000;stroke-width:0" /><path
           d="m 514.62,432.07 h 10.66 c 0.45,0 1.28,0 1.28,0.85 0,0.86 -0.8,0.86 -1.28,0.86 h -10.66 v 10.7 c 0,0.45 0,1.28 -0.84,1.28 -0.88,0 -0.88,-0.8 -0.88,-1.28 v -10.7 h -10.69 c -0.45,0 -1.29,0 -1.29,-0.83 0,-0.88 0.79,-0.88 1.29,-0.88 h 10.69 v -10.7 c 0,-0.45 0,-1.28 0.85,-1.28 0.87,0 0.87,0.8 0.87,1.28 z"
           id="path9559"
           inkscape:connector-curvature="0"
           style="fill:#000000;stroke-width:0" /></g></g><g
       id="g9697"
       transform="matrix(1.504497,0,0,1.504497,-7.9943557,-10.527383)"><g
         word-spacing="normal"
         letter-spacing="normal"
         font-size-adjust="none"
         font-stretch="normal"
         font-weight="normal"
         font-variant="normal"
         font-style="normal"
         stroke-miterlimit="10.433"
         xml:space="preserve"
         transform="matrix(0.39390714,0,0,-0.39390714,-68.93375,405)"
         id="g9699"
         style="font-style:normal;font-variant:normal;font-weight:normal;font-stretch:normal;letter-spacing:normal;word-spacing:normal;text-anchor:start;fill:none;stroke:#000000;stroke-linecap:butt;stroke-linejoin:miter;stroke-miterlimit:10.43299961;stroke-opacity:1;stroke-dasharray:none;stroke-dashoffset:0"><path
           id="path9701"
           d="m 486.16,440.23 -0.45,-0.01 -0.44,-0.02 -0.44,-0.03 -0.43,-0.04 -0.43,-0.06 -0.42,-0.06 -0.42,-0.08 -0.42,-0.08 -0.4,-0.1 -0.41,-0.1 -0.39,-0.11 -0.39,-0.12 -0.39,-0.13 -0.38,-0.13 -0.37,-0.14 -0.36,-0.14 -0.7,-0.3 -0.68,-0.32 -0.64,-0.33 -0.3,-0.16 -0.3,-0.17 -0.29,-0.17 -0.28,-0.16 -0.27,-0.17 -0.26,-0.17 -0.25,-0.16 -0.24,-0.16 -0.23,-0.16 -0.22,-0.16 c -5.44,-3.89 -6.03,-8.08 -6.03,-8.17 0,-0.34 0.29,-0.34 0.5,-0.34 1.14,0 3.37,1.39 3.68,2.28 1.64,5.28 5.22,7.42 10.11,7.42 h 6.63 c -5.49,-4.37 -7.77,-11.91 -11.06,-24.86 -1.19,-4.62 -4.24,-9.61 -9.27,-9.61 -3.89,0 -7.42,2.6 -7.42,6.92 0,1 0.25,1.85 0.25,2.05 0,0.14 -0.05,0.45 -0.5,0.45 -0.3,0 -1.46,-0.25 -2.85,-1.29 -0.59,-0.46 -1.14,-0.96 -1.14,-3.3 0,-4.58 3.49,-7.56 8.38,-7.56 4.23,0 8.26,2.39 10.7,4.48 4.58,3.92 5.49,7.56 6.38,11.11 1.84,7.22 4.23,16.28 7.97,20.47 0.79,0.89 1,1.05 2.15,1.14 2.24,0.16 3.92,1.84 3.92,2.39 0,0.31 -0.04,0.36 -1.14,0.36 z"
           inkscape:connector-curvature="0"
           style="fill:#000000;stroke-width:0" /><path
           id="path9703"
           d="m 524.4,432.07 0.06,0 0.05,0 0.11,0.01 0.12,0 0.06,0 0.06,0.01 0.06,0 0.05,0.01 0.06,0.01 0.06,0.01 0.06,0.01 0.05,0.01 0.06,0.02 0.05,0.02 0.05,0.02 0.05,0.02 0.05,0.03 0.04,0.03 0.04,0.03 0.04,0.04 0.04,0.04 0.02,0.02 0.01,0.02 0.02,0.02 0.02,0.03 0.01,0.02 0.01,0.03 0.02,0.02 0.01,0.03 0.01,0.03 0.01,0.03 0,0.03 0.01,0.03 0.01,0.04 0,0.03 0.01,0.03 0,0.04 0,0.04 0,0.04 c 0,0.86 -0.79,0.86 -1.39,0.86 h -20.76 c -0.57,0 -1.39,0 -1.39,-0.83 0,-0.88 0.79,-0.88 1.39,-0.88 z"
           inkscape:connector-curvature="0"
           style="fill:#000000;stroke-width:0" /></g></g><path
       style="fill:none;stroke:#000000;stroke-width:1.20000005;stroke-linecap:butt;stroke-linejoin:miter;stroke-miterlimit:4;stroke-opacity:1;stroke-dasharray:none;marker-start:none;marker-end:url(#Arrow1Mend)"
       d="M -6.1546064,221.50537 C -6.427576,238.5498 2.0735432,241.96745 41.345255,239.60055"
       id="path9778"
       inkscape:connector-curvature="0"
       sodipodi:nodetypes="cc" /></g></svg>