<?xml version="1.0" encoding="UTF-8" standalone="no"?>
<!-- Created with Inkscape (http://www.inkscape.org/) -->

<svg
   xmlns:dc="http://purl.org/dc/elements/1.1/"
   xmlns:cc="http://creativecommons.org/ns#"
   xmlns:rdf="http://www.w3.org/1999/02/22-rdf-syntax-ns#"
   xmlns:svg="http://www.w3.org/2000/svg"
   xmlns="http://www.w3.org/2000/svg"
   xmlns:sodipodi="http://sodipodi.sourceforge.net/DTD/sodipodi-0.dtd"
   xmlns:inkscape="http://www.inkscape.org/namespaces/inkscape"
   id="svg19421"
   version="1.1"
   inkscape:version="0.48.2 r9819"
   width="420.63309"
   height="540"
   xml:space="preserve"
   sodipodi:docname="cpnaked.pdf"><sodipodi:namedview
     pagecolor="#ffffff"
     bordercolor="#666666"
     borderopacity="1"
     objecttolerance="10"
     gridtolerance="10"
     guidetolerance="10"
     inkscape:pageopacity="0"
     inkscape:pageshadow="2"
     inkscape:window-width="851"
     inkscape:window-height="619"
     id="namedview19423"
     showgrid="false"
     inkscape:zoom="0.50383782"
     inkscape:cx="44.162515"
     inkscape:cy="270"
     inkscape:window-x="0"
     inkscape:window-y="0"
     inkscape:window-maximized="0"
     inkscape:current-layer="g19429"
     showguides="true"
     inkscape:guide-bbox="true"
     fit-margin-top="0"
     fit-margin-left="0"
     fit-margin-right="0"
     fit-margin-bottom="0" /><metadata
     id="metadata19427"><rdf:RDF><cc:Work
         rdf:about=""><dc:format>image/svg+xml</dc:format><dc:type
           rdf:resource="http://purl.org/dc/dcmitype/StillImage" /><dc:title></dc:title></cc:Work></rdf:RDF></metadata><defs
     id="defs19425"><marker
       inkscape:stockid="Arrow1Mend"
       orient="auto"
       refY="0"
       refX="0"
       id="Arrow1Mend"
       style="overflow:visible"><path
         id="path4259"
         d="M 0,0 5,-5 -12.5,0 5,5 0,0 z"
         style="fill-rule:evenodd;stroke:#000000;stroke-width:1pt;marker-start:none"
         transform="matrix(-0.4,0,0,-0.4,-4,0)"
         inkscape:connector-curvature="0" /></marker><clipPath
       clipPathUnits="userSpaceOnUse"
       id="clipPath19433"><path
         d="m 47,12 0,432 236.971,0 0,-432"
         clip-rule="evenodd"
         id="path19435"
         inkscape:connector-curvature="0" /></clipPath><clipPath
       clipPathUnits="userSpaceOnUse"
       id="clipPath19445"><path
         d="m 0,4 0,448 535,0 0,-448"
         clip-rule="evenodd"
         id="path19447"
         inkscape:connector-curvature="0" /></clipPath><clipPath
       clipPathUnits="userSpaceOnUse"
       id="clipPath19457"><path
         d="m 47,12 0,432 237,0 0,-432"
         clip-rule="evenodd"
         id="path19459"
         inkscape:connector-curvature="0" /></clipPath><clipPath
       clipPathUnits="userSpaceOnUse"
       id="clipPath19465"><path
         d="m 45,10 0,436 241,0 0,-436"
         clip-rule="evenodd"
         id="path19467"
         inkscape:connector-curvature="0" /></clipPath><clipPath
       clipPathUnits="userSpaceOnUse"
       id="clipPath19473"><path
         d="m 47,12 0,432 237,0 0,-432"
         clip-rule="evenodd"
         id="path19475"
         inkscape:connector-curvature="0" /></clipPath><clipPath
       clipPathUnits="userSpaceOnUse"
       id="clipPath19481"><path
         d="m 47,11 0,433 237,0 0,-433"
         clip-rule="evenodd"
         id="path19483"
         inkscape:connector-curvature="0" /></clipPath><clipPath
       clipPathUnits="userSpaceOnUse"
       id="clipPath19489"><path
         d="m 47,11 0,433 237,0 0,-433"
         clip-rule="evenodd"
         id="path19491"
         inkscape:connector-curvature="0" /></clipPath><clipPath
       clipPathUnits="userSpaceOnUse"
       id="clipPath19497"><path
         d="m 47,11 0,433 237,0 0,-433"
         clip-rule="evenodd"
         id="path19499"
         inkscape:connector-curvature="0" /></clipPath><clipPath
       clipPathUnits="userSpaceOnUse"
       id="clipPath19509"><path
         d="m 47,11 0,433 237,0 0,-433"
         clip-rule="evenodd"
         id="path19511"
         inkscape:connector-curvature="0" /></clipPath></defs><g
     id="g19429"
     inkscape:groupmode="layer"
     inkscape:label="cpnaked"
     transform="matrix(1.25,0,0,1.25,45.347902,-15)"><g
       id="g19431"
       clip-path="url(#clipPath19433)"><g
         id="g19437" /><g
         id="g19439"><g
           id="g19441"><g
             id="g19443"
             clip-path="url(#clipPath19445)"><g
               id="g19449"><path
                 d="M 39,4 487,4 487,452 39,452 39,4 z"
                 style="fill:#ffffff;fill-opacity:1;fill-rule:evenodd;stroke:none"
                 id="path19451"
                 inkscape:connector-curvature="0" /></g></g></g><g
           id="g19453"><g
             id="g19455"
             clip-path="url(#clipPath19457)"><g
               id="g19461"><g
                 id="g19463"
                 clip-path="url(#clipPath19465)"><g
                   id="g19469"><g
                     id="g19471"
                     clip-path="url(#clipPath19473)"><g
                       id="g19477"><g
                         id="g19479"
                         clip-path="url(#clipPath19481)" /></g><g
                       id="g19485"><g
                         id="g19487"
                         clip-path="url(#clipPath19489)" /></g><g
                       id="g19493"><g
                         id="g19495"
                         clip-path="url(#clipPath19497)"><path
                           d="m 50.146,437.709 0.013,-0.129 0.04,-0.129 0.066,-0.128 0.091,-0.129 0.117,-0.128 0.14,-0.129 0.163,-0.129 0.184,-0.128 0.204,-0.129 0.222,-0.129 0.49,-0.257 0.264,-0.129 0.274,-0.128 0.567,-0.257 0.289,-0.129 0.289,-0.129 0.569,-0.257 0.276,-0.129 0.265,-0.128 0.494,-0.257 0.225,-0.129 0.206,-0.129 0.187,-0.128 0.166,-0.129 0.144,-0.129 0.12,-0.128 0.095,-0.129 0.07,-0.129 0.043,-0.128 0.018,-0.129 -0.01,-0.128 -0.036,-0.129 -0.062,-0.129 -0.088,-0.128 -0.113,-0.129 -0.137,-0.129 -0.159,-0.128 -0.182,-0.129 -0.201,-0.129 -0.219,-0.128 -0.236,-0.129 -0.25,-0.128 -0.535,-0.258 -0.281,-0.128 -0.285,-0.129 -0.578,-0.257 -0.288,-0.129 -0.283,-0.129 -0.543,-0.257 -0.256,-0.128 -0.242,-0.129 -0.227,-0.129 -0.209,-0.128 -0.19,-0.129 -0.169,-0.129 -0.147,-0.128 -0.124,-0.129 -0.106,-0.139 -0.076,-0.14 -0.045,-0.139 -0.014,-0.14 0.017,-0.139 0.048,-0.14 0.079,-0.139 0.108,-0.139 0.137,-0.14 0.165,-0.139 0.191,-0.14 0.214,-0.139 0.236,-0.14 0.256,-0.139 0.558,-0.279 0.298,-0.14 0.306,-0.139 0.625,-0.279 0.313,-0.139 0.309,-0.14 0.593,-0.279 0.278,-0.139 0.263,-0.14 0.244,-0.139 0.223,-0.14 0.201,-0.139 0.175,-0.139 0.149,-0.14 0.12,-0.139 0.091,-0.14 0.061,-0.139 0.03,-0.14 -0.002,-0.139 -0.033,-0.14 -0.063,-0.139 -0.094,-0.14 -0.123,-0.139 -0.152,-0.139 -0.178,-0.14 -0.203,-0.139 -0.225,-0.14 -0.246,-0.139 -0.265,-0.14 -0.572,-0.279 -0.302,-0.139 -0.31,-0.14 -0.626,-0.278 -0.311,-0.14 -0.305,-0.139 -0.582,-0.279 -0.271,-0.14 -0.254,-0.139 -0.234,-0.14 -0.212,-0.139 -0.188,-0.14 -0.162,-0.139 -0.135,-0.139 -0.106,-0.14 -0.071,-0.13 -0.045,-0.13 -0.018,-0.131 0.009,-0.13 0.037,-0.13 0.063,-0.13 0.09,-0.13 0.115,-0.131 0.14,-0.13 0.164,-0.13 0.185,-0.13 0.205,-0.13 0.224,-0.131 0.24,-0.13 0.523,-0.26 0.277,-0.131 0.285,-0.13 0.582,-0.26 0.293,-0.13 0.29,-0.131 0.563,-0.26 0.267,-0.13 0.256,-0.13 0.241,-0.131 0.225,-0.13 0.206,-0.13 0.186,-0.13 0.164,-0.131 0.141,-0.13 0.116,-0.13 0.091,-0.13 0.065,-0.13 0.037,-0.131 0.011,-0.13 -0.017,-0.13 -0.044,-0.13 -0.071,-0.13 -0.096,-0.131 -0.122,-0.13 -0.147,-0.13 -0.169,-0.13 -0.191,-0.131 -0.21,-0.13 -0.473,-0.26 -0.259,-0.13 -0.27,-0.131 -0.566,-0.26 -0.291,-0.13 -0.293,-0.13 -0.581,-0.261 -0.283,-0.13 -0.275,-0.13 -0.265,-0.13 -0.252,-0.131 -0.237,-0.13 -0.22,-0.13 -0.201,-0.13 -0.18,-0.131 -0.155,-0.127 -0.132,-0.128 -0.109,-0.128 -0.084,-0.127 -0.058,-0.128 -0.033,-0.128 -0.007,-0.127 0.02,-0.128 0.046,-0.127 0.071,-0.128 0.097,-0.128 0.12,-0.127 0.144,-0.128 0.166,-0.128 0.187,-0.127 0.206,-0.128 0.223,-0.128 0.239,-0.127 0.516,-0.256 1.124,-0.51 0.287,-0.128 0.284,-0.128 0.552,-0.255 0.263,-0.128 0.251,-0.127 0.459,-0.256 0.204,-0.127 0.184,-0.128 0.164,-0.128 0.142,-0.127 0.118,-0.128 0.094,-0.128 0.069,-0.127 0.043,-0.128 0.018,-0.128 -0.009,-0.127 -0.036,-0.128 -0.061,-0.128 -0.086,-0.127 -0.111,-0.128 -0.135,-0.128 -0.157,-0.127 -0.179,-0.128 -0.198,-0.127 -0.216,-0.128 -0.233,-0.128 -0.247,-0.127 -0.259,-0.128 -0.547,-0.255 -0.283,-0.128 -0.286,-0.128 -0.573,-0.255 -0.282,-0.128 -0.275,-0.127 -0.523,-0.256 -0.263,-0.138 -0.245,-0.139 -0.225,-0.138 -0.203,-0.139 -0.179,-0.138 -0.152,-0.139 -0.124,-0.138 -0.096,-0.139 -0.066,-0.138 -0.036,-0.139 -0.005,-0.138 0.026,-0.138 0.057,-0.139 0.087,-0.138 0.115,-0.139 0.144,-0.138 0.171,-0.139 0.195,-0.138 0.218,-0.139 0.24,-0.138 0.257,-0.139 0.274,-0.138 0.585,-0.277 0.305,-0.139 0.31,-0.138 0.622,-0.277 0.305,-0.139 0.298,-0.138 0.562,-0.277 0.258,-0.139 0.24,-0.138 0.219,-0.138 0.196,-0.139 0.171,-0.138 0.144,-0.139 0.117,-0.138 0.087,-0.139 0.058,-0.138 0.027,-0.139 -0.004,-0.138 -0.035,-0.139 -0.065,-0.138 -0.095,-0.139 -0.124,-0.138 -0.151,-0.139 -0.178,-0.138 -0.202,-0.139 -0.224,-0.138 -0.245,-0.139 -0.263,-0.138 -0.278,-0.139 -0.59,-0.277 -0.307,-0.138 -0.311,-0.138 -0.62,-0.277 -0.304,-0.139 -0.295,-0.138 -0.554,-0.277 -0.237,-0.13 -0.22,-0.129 -0.202,-0.129 -0.182,-0.129 -0.16,-0.13 -0.137,-0.129 -0.113,-0.129 -0.088,-0.129 -0.061,-0.129 -0.036,-0.13 -0.008,-0.129 0.019,-0.129 0.045,-0.129 0.071,-0.13 0.098,-0.129 0.122,-0.129 0.146,-0.129 0.168,-0.13 0.19,-0.129 0.209,-0.129 0.227,-0.129 0.242,-0.13 0.525,-0.258 0.277,-0.129 0.284,-0.13 0.579,-0.258 1.133,-0.517 0.264,-0.129 0.251,-0.129 0.237,-0.13 0.22,-0.129 0.202,-0.129 0.181,-0.129 0.16,-0.13 0.137,-0.129 0.112,-0.129 0.087,-0.129 0.062,-0.13 0.034,-0.129 0.008,-0.129 -0.019,-0.129 -0.045,-0.13 -0.072,-0.129 -0.098,-0.129 -0.122,-0.129 -0.146,-0.129 -0.169,-0.13 -0.19,-0.129 -0.21,-0.129 -0.47,-0.259 -0.256,-0.129 -0.268,-0.129 -0.562,-0.259 -1.156,-0.517 -0.305,-0.14 -0.296,-0.14 -0.282,-0.14 -0.268,-0.14 -0.25,-0.14 -0.229,-0.14 -0.207,-0.14 -0.182,-0.14 -0.155,-0.14 -0.127,-0.14 -0.097,-0.14 -0.067,-0.14 -0.036,-0.14 -0.004,-0.14 0.027,-0.14 0.058,-0.14 0.089,-0.141 0.119,-0.14 0.147,-0.14 0.175,-0.14 0.2,-0.14 0.223,-0.14 0.244,-0.14 0.263,-0.14 0.279,-0.14 0.293,-0.14 0.612,-0.28 1.249,-0.56 0.299,-0.14 0.288,-0.14 0.273,-0.141 0.257,-0.14 0.237,-0.14 0.215,-0.14 0.191,-0.14 0.165,-0.14 0.137,-0.14 0.108,-0.14 0.078,-0.14 0.047,-0.14 0.016,-0.14 -0.016,-0.14 -0.047,-0.14 -0.078,-0.14 -0.108,-0.14 -0.138,-0.14 -0.165,-0.14 -0.191,-0.141 -0.215,-0.14 -0.237,-0.14 -0.53,-0.28 -0.288,-0.14 -0.299,-0.14 -0.62,-0.28 -1.241,-0.56 -0.287,-0.138 -0.274,-0.137 -0.259,-0.138 -0.241,-0.137 -0.221,-0.138 -0.199,-0.137 -0.174,-0.138 -0.149,-0.137 -0.121,-0.138 -0.092,-0.137 -0.063,-0.138 -0.033,-0.137 -0.003,-0.138 0.028,-0.137 0.058,-0.138 0.087,-0.137 0.116,-0.138 0.144,-0.137 0.17,-0.138 0.194,-0.137 0.217,-0.138 0.238,-0.137 0.528,-0.275 0.285,-0.138 0.295,-0.137 0.61,-0.275 1.218,-0.55 0.286,-0.138 0.273,-0.137 0.258,-0.138 0.24,-0.137 0.22,-0.138 0.197,-0.137 0.173,-0.138 0.147,-0.137 0.119,-0.138 0.091,-0.137 0.061,-0.138 0.032,-0.137 10e-4,-0.138 -0.03,-0.137 -0.059,-0.138 -0.09,-0.137 -0.117,-0.138 -0.145,-0.137 -0.172,-0.138 -0.196,-0.137 -0.218,-0.138 -0.239,-0.137 -0.529,-0.275 -0.286,-0.138 -0.296,-0.137 -0.611,-0.275 -1.216,-0.55 -0.267,-0.129 -0.256,-0.128 -0.242,-0.128 -0.227,-0.128 -0.21,-0.129 -0.19,-0.128 -0.17,-0.128 -0.148,-0.128 -0.125,-0.129 -0.1,-0.128 -0.075,-0.128 -0.05,-0.129 -0.023,-0.128 0.004,-0.128 0.03,-0.128 0.056,-0.129 0.081,-0.128 0.107,-0.128 0.131,-0.128 0.154,-0.129 0.175,-0.128 0.196,-0.128 0.214,-0.128 0.231,-0.129 0.246,-0.128 0.259,-0.128 0.547,-0.257 1.147,-0.513 0.284,-0.128 0.277,-0.128 0.528,-0.257 0.246,-0.128 0.231,-0.128 0.214,-0.129 0.195,-0.128 0.175,-0.128 0.154,-0.128 0.13,-0.129 0.107,-0.128 0.081,-0.128 0.055,-0.128 0.03,-0.129 0.003,-0.128 -0.023,-0.128 -0.05,-0.128 -0.076,-0.129 -0.1,-0.128 -0.125,-0.128 -0.149,-0.129 -0.17,-0.128 -0.191,-0.128 -0.21,-0.128 -0.227,-0.129 -0.499,-0.256 -1.112,-0.513 -0.312,-0.139 -0.312,-0.139 -0.608,-0.278 -0.291,-0.14 -0.277,-0.139 -0.262,-0.139 -0.244,-0.139 -0.222,-0.139 -0.2,-0.139 -0.175,-0.139 -0.149,-0.139 -0.12,-0.139 -0.091,-0.139 -0.061,-0.139 -0.03,-0.139 10e-4,-0.14 0.032,-0.139 0.063,-0.139 0.093,-0.139 0.122,-0.139 0.15,-0.139 0.177,-0.139 0.201,-0.139 0.224,-0.139 0.245,-0.139 0.541,-0.278 0.291,-0.14 0.302,-0.139 0.619,-0.278 0.313,-0.139 0.311,-0.139 0.601,-0.278 0.286,-0.139 0.271,-0.139 0.254,-0.139 0.235,-0.139 0.214,-0.139 0.19,-0.14 0.164,-0.139 0.136,-0.139 0.108,-0.139 0.079,-0.139 0.048,-0.139 0.017,-0.139 -0.014,-0.139 -0.045,-0.139 -0.076,-0.139 -0.105,-0.139 -0.134,-0.139 -0.162,-0.14 -0.187,-0.139 -0.211,-0.139 -0.233,-0.139 -0.253,-0.139 -0.554,-0.278 -1.223,-0.556 -0.291,-0.13 -0.289,-0.13 -0.558,-0.26 -0.265,-0.13 -0.252,-0.129 -0.238,-0.13 -0.221,-0.13 -0.202,-0.13 -0.182,-0.13 -0.16,-0.13 -0.137,-0.129 -0.112,-0.13 -0.086,-0.13 -0.06,-0.13 -0.034,-0.13 -0.006,-0.13 0.02,-0.129 0.048,-0.13 0.074,-0.13 0.1,-0.13 0.125,-0.13 0.148,-0.13 0.172,-0.13 0.193,-0.129 0.212,-0.13 0.476,-0.26 0.259,-0.13 0.27,-0.13 0.566,-0.259 0.291,-0.13 0.292,-0.13 0.578,-0.26 0.282,-0.129 0.274,-0.13 0.513,-0.26 0.235,-0.13 0.218,-0.13 0.199,-0.129 0.178,-0.13 0.156,-0.13 0.132,-0.13 0.108,-0.13 0.082,-0.13 0.056,-0.13 0.029,-0.129 10e-4,-0.13 -0.025,-0.13 -0.052,-0.13 -0.079,-0.13 -0.104,-0.13 -0.129,-0.129 -0.153,-0.13 -0.175,-0.13 -0.197,-0.13 -0.215,-0.13 -0.233,-0.13 -0.248,-0.129 -0.534,-0.26 -0.275,-0.127 -0.281,-0.128 -0.571,-0.254 -0.286,-0.128 -0.282,-0.127 -0.544,-0.254 -0.257,-0.128 -0.246,-0.127 -0.23,-0.127 -0.215,-0.128 -0.196,-0.127 -0.177,-0.127 -0.155,-0.127 -0.133,-0.128 -0.11,-0.127 -0.084,-0.127 -0.06,-0.128 -0.034,-0.127 -0.008,-0.127 0.018,-0.127 0.044,-0.128 0.07,-0.127 0.094,-0.127 0.119,-0.128 0.142,-0.127 0.164,-0.127 0.185,-0.127 0.203,-0.128 0.458,-0.254 0.251,-0.128 0.262,-0.127 0.55,-0.254 1.139,-0.51 0.279,-0.127 0.273,-0.127 0.263,-0.127 0.252,-0.128 0.238,-0.127 0.223,-0.127 0.206,-0.128 0.187,-0.127 0.166,-0.127 0.144,-0.127 0.122,-0.128 0.097,-0.127 0.073,-0.127 0.047,-0.128 0.021,-0.127 -0.005,-0.127 -0.031,-0.127 -0.057,-0.128 -0.082,-0.127 -0.107,-0.127 -0.13,-0.128 -0.153,-0.127 -0.174,-0.127 -0.194,-0.127 -0.232,-0.139 -0.251,-0.138 -0.549,-0.276 -1.213,-0.552 -0.311,-0.138 -0.306,-0.139 -0.592,-0.276 -0.279,-0.138 -0.264,-0.138 -0.247,-0.138 -0.226,-0.138 -0.205,-0.138 -0.181,-0.138 -0.155,-0.138 -0.128,-0.139 -0.099,-0.138 -0.07,-0.138 -0.04,-0.138 -0.009,-0.138 0.022,-0.138 0.052,-0.138 0.082,-0.138 0.111,-0.138 0.14,-0.139 0.166,-0.138 0.191,-0.138 0.214,-0.138 0.235,-0.138 0.255,-0.138 0.555,-0.276 1.217,-0.553 0.31,-0.138 0.306,-0.138 0.587,-0.276 0.277,-0.138 0.26,-0.138 0.243,-0.138 0.223,-0.139 0.201,-0.138 0.175,-0.138 0.15,-0.138 0.123,-0.138 0.093,-0.138 0.064,-0.138 0.033,-0.138 0.003,-0.138 -0.027,-0.138 -0.058,-0.139 -0.088,-0.138 -0.117,-0.138 -0.145,-0.138 -0.171,-0.138 -0.196,-0.138 -0.218,-0.138 -0.223,-0.129 -0.239,-0.129 -0.518,-0.258 -1.133,-0.515 -0.289,-0.129 -0.288,-0.129 -0.557,-0.258 -0.266,-0.128 -0.254,-0.129 -0.463,-0.258 -0.206,-0.129 -0.187,-0.129 -0.165,-0.129 -0.142,-0.129 -0.119,-0.128 -0.094,-0.129 -0.068,-0.129 -0.042,-0.129 -0.015,-0.129 0.011,-0.129 0.038,-0.129 0.064,-0.128 0.09,-0.129 0.115,-0.129 0.139,-0.129 0.162,-0.129 0.183,-0.129 0.203,-0.129 0.459,-0.257 0.252,-0.129 0.264,-0.129 0.555,-0.258 0.287,-0.129 0.289,-0.129 0.577,-0.257 0.283,-0.129 0.276,-0.129 0.521,-0.258 0.242,-0.129 0.225,-0.128 0.207,-0.129 0.188,-0.129 0.167,-0.129 0.145,-0.129 0.121,-0.129 0.095,-0.129 0.071,-0.129 0.044,-0.128 0.018,-0.129 -0.01,-0.129 -0.035,-0.129 -0.062,-0.129 -0.088,-0.129 -0.113,-0.129 -0.15,-0.139 -0.176,-0.14 -0.201,-0.14 -0.225,-0.139 -0.245,-0.14 -0.264,-0.14 -0.571,-0.279 -0.303,-0.14 -0.309,-0.139 -0.627,-0.28 -0.312,-0.139 -0.306,-0.14 -0.585,-0.28 -0.272,-0.139 -0.255,-0.14 -0.235,-0.14 -0.213,-0.139 -0.19,-0.14 -0.163,-0.14 -0.136,-0.139 -0.107,-0.14 -0.077,-0.14 -0.046,-0.139 -0.015,-0.14 0.016,-0.14 0.048,-0.139 0.078,-0.14 0.108,-0.14 0.137,-0.139 0.165,-0.14 0.191,-0.14 0.214,-0.14 0.237,-0.139 0.255,-0.14 0.273,-0.14 0.585,-0.279 0.307,-0.14 0.312,-0.139 0.627,-0.28 0.309,-0.139 0.302,-0.14 0.571,-0.279 0.262,-0.14 0.245,-0.14 0.223,-0.139 0.201,-0.14 0.175,-0.14 0.148,-0.14 0.12,-0.139 0.09,-0.14 0.06,-0.14 0.029,-0.139 -0.002,-0.14 -0.034,-0.14 -0.065,-0.139 -0.095,-0.14 -0.125,-0.14 -0.152,-0.139 -0.176,-0.138 -0.2,-0.137 -0.222,-0.137 -0.241,-0.137 -0.26,-0.137 -0.274,-0.137 -0.584,-0.274 -0.303,-0.138 -0.308,-0.137 -0.614,-0.274 -0.302,-0.137 -0.293,-0.137 -0.553,-0.274 -0.254,-0.138 -0.235,-0.137 -0.215,-0.137 -0.191,-0.137 -0.168,-0.137 -0.141,-0.137 -0.114,-0.137 -0.084,-0.138 -0.056,-0.137 -0.026,-0.137 0.005,-0.137 0.035,-0.137 0.065,-0.137 0.094,-0.137 0.122,-0.137 0.149,-0.138 0.175,-0.137 0.199,-0.137 0.222,-0.137 0.241,-0.137 0.259,-0.137 0.274,-0.137 0.583,-0.275 0.303,-0.137 0.307,-0.137 0.615,-0.274 0.302,-0.137 0.294,-0.137 0.553,-0.275 0.254,-0.137 0.236,-0.137 0.215,-0.137 0.193,-0.137 0.168,-0.137 0.142,-0.137 0.114,-0.138 0.086,-0.137 0.056,-0.137 0.027,-0.137 -0.004,-0.137 -0.034,-0.137 -0.064,-0.137 -0.093,-0.137 -0.121,-0.138 -0.149,-0.137 -0.162,-0.128 -0.183,-0.128 -0.202,-0.127 -0.22,-0.128 -0.237,-0.128 -0.25,-0.128 -0.534,-0.256 -0.279,-0.128 -0.284,-0.128 -0.575,-0.255 -0.286,-0.128 -0.28,-0.128 -0.54,-0.256 -0.253,-0.128 -0.241,-0.128 -0.225,-0.128 -0.207,-0.128 -0.189,-0.127 -0.168,-0.128 -0.145,-0.128 -0.123,-0.128 -0.098,-0.128 -0.073,-0.128 -0.048,-0.128 -0.021,-0.128 0.005,-0.128 0.031,-0.127 0.057,-0.128 0.083,-0.128 0.108,-0.128 0.131,-0.128 0.154,-0.128 0.176,-0.128 0.196,-0.128 0.214,-0.128 0.477,-0.255 0.258,-0.128 0.269,-0.128 0.56,-0.256 1.143,-0.511 0.277,-0.128 0.268,-0.128 0.258,-0.128 0.245,-0.128 0.231,-0.128 0.214,-0.128 0.195,-0.128 0.175,-0.128 0.153,-0.127 0.131,-0.128 0.107,-0.128 0.082,-0.128 0.056,-0.128 0.03,-0.128 0.004,-0.128 -0.022,-0.128 -0.054,-0.138 -0.083,-0.139 -0.113,-0.139 -0.142,-0.138 -0.168,-0.139 -0.193,-0.139 -0.217,-0.139 -0.238,-0.138 -0.257,-0.139 -0.273,-0.139 -0.584,-0.277 -1.238,-0.555 -0.306,-0.139 -0.299,-0.138 -0.289,-0.139 -0.276,-0.139 -0.26,-0.139 -0.241,-0.138 -0.221,-0.139 -0.198,-0.139 -0.173,-0.138 -0.146,-0.139 -0.119,-0.139 -0.089,-0.138 -0.059,-0.139 -0.029,-0.139 0.003,-0.139 0.033,-0.138 0.064,-0.139 0.094,-0.139 0.122,-0.138 0.151,-0.139 0.177,-0.139 0.201,-0.139 0.224,-0.138 0.245,-0.139 0.262,-0.139 0.278,-0.138 0.591,-0.278 1.24,-0.555 0.304,-0.138 0.296,-0.139 0.285,-0.139 0.27,-0.138 0.254,-0.139 0.235,-0.139 0.214,-0.139 0.189,-0.138 0.165,-0.139 0.137,-0.139 0.108,-0.138 0.08,-0.139 0.049,-0.139 0.018,-0.139 -0.013,-0.138 -0.044,-0.139 -0.068,-0.129 -0.094,-0.13 -0.119,-0.129 -0.143,-0.13 -0.166,-0.129 -0.187,-0.13 -0.207,-0.129 -0.226,-0.13 -0.241,-0.129 -0.255,-0.13 -0.544,-0.259 -1.155,-0.517 -0.288,-0.13 -0.283,-0.129 -0.54,-0.259 -0.253,-0.13 -0.239,-0.129 -0.222,-0.13 -0.204,-0.129 -0.184,-0.13 -0.162,-0.129 -0.139,-0.13 -0.115,-0.129 -0.089,-0.13 -0.064,-0.129 -0.037,-0.129 -0.01,-0.13 0.017,-0.129 0.043,-0.13 0.07,-0.129 0.096,-0.13 0.121,-0.129 0.145,-0.13 0.168,-0.129 0.189,-0.13 0.208,-0.129 0.227,-0.13 0.499,-0.259 0.268,-0.129 0.277,-0.13 0.573,-0.258 0.291,-0.13 0.291,-0.129 0.57,-0.259 0.275,-0.13 0.264,-0.129 0.49,-0.259 0.221,-0.13 0.202,-0.129 0.182,-0.13 0.161,-0.129 0.137,-0.13 0.113,-0.129 0.088,-0.129 0.061,-0.13 0.037,-0.14 0.005,-0.14 -0.026,-0.141 -0.058,-0.14 -0.089,-0.14 -0.118,-0.141 -0.148,-0.14 -0.174,-0.14 -0.2,-0.141 -0.223,-0.14 -0.245,-0.14 -0.263,-0.14 -0.28,-0.141 -0.292,-0.14 -0.614,-0.281 -0.314,-0.14 -0.316,-0.14 -0.621,-0.281 -0.299,-0.14 -0.288,-0.14 -0.531,-0.281 -0.237,-0.14 -0.215,-0.14 -0.191,-0.141 -0.164,-0.14 -0.137,-0.14 -0.108,-0.141 -0.077,-0.14 -0.046,-0.14 -0.015,-0.14 0.016,-0.141 0.049,-0.14 0.079,-0.14 0.109,-0.141 0.139,-0.14 0.166,-0.14 0.192,-0.14 0.217,-0.141 0.238,-0.14 0.533,-0.281 0.288,-0.14 0.301,-0.14 0.621,-0.281 0.316,-0.14 0.314,-0.14 0.613,-0.281 0.292,-0.14 0.278,-0.14 0.262,-0.141 0.244,-0.14 0.222,-0.14 0.198,-0.141 0.173,-0.14 0.145,-0.14 0.117,-0.14 0.087,-0.141 0.056,-0.14 0.025,-0.14 -0.007,-0.138 -0.037,-0.138 -0.067,-0.138 -0.097,-0.137 -0.125,-0.138 -0.152,-0.138 -0.178,-0.137 -0.202,-0.138 -0.224,-0.138 -0.245,-0.138 -0.538,-0.275 -0.289,-0.138 -0.299,-0.138 -0.614,-0.275 -0.31,-0.138 -0.307,-0.138 -0.596,-0.275 -0.283,-0.138 -0.269,-0.137 -0.252,-0.138 -0.234,-0.138 -0.212,-0.138 -0.19,-0.137 -0.164,-0.138 -0.137,-0.138 -0.11,-0.138 -0.081,-0.137 -0.05,-0.138 -0.021,-0.138 0.01,-0.138 0.041,-0.137 0.07,-0.138 0.1,-0.138 0.128,-0.137 0.155,-0.138 0.181,-0.138 0.205,-0.138 0.226,-0.137 0.247,-0.138 0.541,-0.276 1.205,-0.551 0.31,-0.137 0.307,-0.138 0.594,-0.275 0.281,-0.138 0.267,-0.138 0.251,-0.138 0.231,-0.137 0.21,-0.138 0.187,-0.138 0.161,-0.138 0.135,-0.137 0.106,-0.138 0.077,-0.138 0.048,-0.138 0.017,-0.137 -0.012,-0.129 -0.038,-0.128 -0.064,-0.129 -0.09,-0.128 -0.114,-0.129 -0.139,-0.128 -0.161,-0.129 -0.182,-0.128 -0.203,-0.129 -0.22,-0.128 -0.487,-0.257 -0.263,-0.129 -0.273,-0.128 -0.566,-0.257 -0.289,-0.129 -0.289,-0.128 -0.569,-0.257 -0.275,-0.129 -0.266,-0.128 -0.497,-0.257 -0.225,-0.129 -0.208,-0.128 -0.189,-0.129 -0.168,-0.128 -0.146,-0.129 -0.122,-0.128 -0.097,-0.129 -0.073,-0.128 -0.046,-0.129 -0.02,-0.128 0.007,-0.128 0.033,-0.129 0.06,-0.128 0.085,-0.129 0.11,-0.128 0.134,-0.129 0.157,-0.128 0.179,-0.129 0.199,-0.128 0.217,-0.129 0.234,-0.128 0.248,-0.129 0.532,-0.257 0.28,-0.128 0.284,-0.129 0.578,-0.257 0.287,-0.128 0.283,-0.129 0.545,-0.257 0.257,-0.128 0.244,-0.129 0.229,-0.128 0.211,-0.129 0.193,-0.128 0.172,-0.129 0.149,-0.128 0.127,-0.129 0.109,-0.139 0.08,-0.139 0.05,-0.14 0.018,-0.139 -0.013,-0.139 -0.044,-0.14 -0.075,-0.139 -0.104,-0.139 -0.134,-0.14 -0.161,-0.139 -0.187,-0.139 -0.211,-0.139 -0.233,-0.14 -0.253,-0.139 -0.554,-0.279 -0.296,-0.139 -0.305,-0.139 -0.623,-0.279 -0.313,-0.139 -0.309,-0.14 -0.595,-0.278 -0.28,-0.14 -0.265,-0.139 -0.247,-0.139 -0.227,-0.139 -0.204,-0.14 -0.179,-0.139 -0.153,-0.139 -0.125,-0.14 -0.095,-0.139 -0.066,-0.139 -0.035,-0.14 -0.003,-0.139 0.028,-0.139 0.058,-0.14 0.089,-0.139 0.119,-0.139 0.146,-0.14 0.174,-0.139 0.198,-0.139 0.222,-0.139 0.242,-0.14 0.262,-0.139 0.567,-0.279 0.3,-0.139 0.308,-0.139 0.626,-0.279 0.311,-0.139 0.306,-0.14 0.586,-0.278 0.273,-0.14 0.257,-0.139 0.238,-0.139 0.216,-0.139 0.192,-0.14 0.167,-0.139 0.14,-0.139 0.111,-0.14 0.077,-0.13 0.051,-0.13 0.023,-0.13 -0.004,-0.13 -0.031,-0.13 -0.057,-0.13 -0.085,-0.13 -0.109,-0.13 -0.135,-0.13 -0.158,-0.13 -0.18,-0.13 -0.201,-0.131 -0.22,-0.13 -0.237,-0.13 -0.516,-0.26 -0.275,-0.13 -0.283,-0.13 -0.581,-0.26 -0.292,-0.13 -0.291,-0.13 -0.565,-0.26 -0.27,-0.13 -0.258,-0.131 -0.245,-0.13 -0.228,-0.13 -0.211,-0.13 -0.19,-0.13 -0.17,-0.13 -0.146,-0.13 -0.122,-0.13 -0.097,-0.13 -0.071,-0.13 -0.044,-0.13 -0.017,-0.13 0.01,-0.13 0.037,-0.13 0.064,-0.131 0.09,-0.13 0.116,-0.13 0.14,-0.13 0.164,-0.13 0.185,-0.13 0.205,-0.13 0.465,-0.26 0.255,-0.13 0.267,-0.13 0.561,-0.26 0.29,-0.13 0.292,-0.131 0.582,-0.26 0.285,-0.13 0.277,-0.13 0.268,-0.13 0.255,-0.13 0.241,-0.13 0.224,-0.13 0.206,-0.13 0.186,-0.13 0.161,-0.128 0.139,-0.127 0.115,-0.128 0.091,-0.127 0.066,-0.128 0.04,-0.127 0.014,-0.128 -0.012,-0.127 -0.038,-0.128 -0.064,-0.127 -0.09,-0.128 -0.113,-0.127 -0.137,-0.128 -0.16,-0.127 -0.18,-0.128 -0.2,-0.127 -0.218,-0.128 -0.234,-0.128 -0.509,-0.255 -1.117,-0.51 -0.287,-0.127 -0.285,-0.128 -0.555,-0.255 -0.265,-0.127 -0.255,-0.128 -0.468,-0.255 -0.21,-0.127 -0.19,-0.128 -0.171,-0.127 -0.149,-0.128 -0.126,-0.127 -0.101,-0.128 -0.077,-0.127 -0.052,-0.128 -0.025,-0.127 0,-0.128 0.027,-0.127 0.052,-0.128 0.078,-0.127 0.103,-0.128 0.127,-0.128 0.15,-0.127 0.171,-0.128 0.192,-0.127 0.21,-0.128 0.227,-0.127 0.242,-0.128 0.255,-0.127 0.541,-0.255 0.281,-0.128 0.285,-0.127 0.573,-0.255 0.283,-0.128 0.278,-0.127 0.529,-0.255 0.268,-0.139 0.251,-0.138 0.232,-0.138 0.21,-0.139 0.186,-0.138 0.161,-0.138 0.134,-0.139 0.105,-0.138 0.076,-0.138 0.046,-0.139 0.015,-0.138 -0.016,-0.138 -0.046,-0.139 -0.077,-0.138 -0.105,-0.138 -0.135,-0.139 -0.161,-0.138 -0.187,-0.138 -0.21,-0.139 -0.233,-0.138 -0.251,-0.138 -0.268,-0.139 -0.577,-0.276 -0.303,-0.139 -0.308,-0.138 -0.621,-0.277 -0.307,-0.138 -0.301,-0.138 -0.57,-0.277 -0.264,-0.138 -0.247,-0.139 -0.226,-0.138 -0.204,-0.138 -0.181,-0.139 -0.154,-0.138 -0.126,-0.138 -0.098,-0.139 -0.069,-0.138 -0.038,-0.138 -0.007,-0.139 0.023,-0.138 0.054,-0.138 0.084,-0.139 0.113,-0.138 0.141,-0.138 0.168,-0.139 0.193,-0.138 0.216,-0.138 0.237,-0.139 0.256,-0.138 0.272,-0.138 0.583,-0.277 0.304,-0.138 0.309,-0.139 0.621,-0.276 0.306,-0.139 0.298,-0.138 0.564,-0.277 0.243,-0.129 0.228,-0.129 0.209,-0.129 0.191,-0.129 0.169,-0.129 0.147,-0.129 0.123,-0.129 0.098,-0.13 0.073,-0.129 0.046,-0.129 0.02,-0.129 -0.007,-0.129 -0.034,-0.129 -0.06,-0.129 -0.086,-0.129 -0.111,-0.129 -0.136,-0.129 -0.158,-0.13 -0.181,-0.129 -0.2,-0.129 -0.219,-0.129 -0.236,-0.129 -0.513,-0.258 -0.273,-0.129 -0.281,-0.129 -0.577,-0.258 -1.14,-0.517 -0.268,-0.129 -0.257,-0.129 -0.244,-0.129 -0.227,-0.129 -0.21,-0.129 -0.191,-0.129 -0.17,-0.13 -0.147,-0.129 -0.124,-0.129 -0.099,-0.129 -0.073,-0.129 -0.047,-0.129 -0.02,-0.129 0.006,-0.129 0.033,-0.129 0.06,-0.129 0.085,-0.129 0.111,-0.13 0.135,-0.129 0.158,-0.129 0.18,-0.129 0.2,-0.129 0.219,-0.129 0.235,-0.129 0.25,-0.129 0.263,-0.129 0.554,-0.258 1.154,-0.517 0.308,-0.14 0.3,-0.14 0.289,-0.14 0.274,-0.14 0.258,-0.139 0.239,-0.14 0.217,-0.14 0.193,-0.14 0.167,-0.14 0.14,-0.14 0.111,-0.14 0.081,-0.14 0.051,-0.14 0.019,-0.14 -0.013,-0.14 -0.044,-0.14 -0.074,-0.139 -0.105,-0.14 -0.134,-0.14 -0.162,-0.14 -0.188,-0.14 -0.212,-0.14 -0.235,-0.14 -0.254,-0.14 -0.271,-0.14 -0.286,-0.14 -0.604,-0.279 -1.251,-0.56 -0.303,-0.14 -0.294,-0.14 -0.28,-0.14 -0.265,-0.14 -0.247,-0.14 -0.225,-0.14 -0.203,-0.14 -0.178,-0.139 -0.15,-0.14 -0.123,-0.14 -0.093,-0.14 -0.062,-0.14 -0.032,-0.14 10e-4,-0.14 0.031,-0.14 0.063,-0.14 0.093,-0.14 0.123,-0.14 0.151,-0.14 0.178,-0.139 0.203,-0.14 0.226,-0.14 0.247,-0.14 0.265,-0.14 0.28,-0.14 0.294,-0.14 0.613,-0.28 1.247,-0.559 0.292,-0.138 0.281,-0.137 0.267,-0.138 0.251,-0.137 0.232,-0.137 0.21,-0.138 0.187,-0.137 0.162,-0.137 0.136,-0.138 0.108,-0.137 0.079,-0.137 0.049,-0.138 0.019,-0.137 -0.012,-0.137 -0.041,-0.138 -0.072,-0.137 -0.1,-0.138 -0.129,-0.137 -0.156,-0.137 -0.181,-0.138 -0.204,-0.137 -0.227,-0.137 -0.509,-0.275 -0.278,-0.137 -0.289,-0.138 -0.604,-0.275 -1.224,-0.549 -0.292,-0.137 -0.281,-0.138 -0.266,-0.137 -0.25,-0.137 -0.232,-0.138 -0.209,-0.137 -0.187,-0.138 -0.162,-0.137 -0.134,-0.137 -0.108,-0.138 -0.078,-0.137 -0.048,-0.137 -0.018,-0.138 0.012,-0.137 0.042,-0.137 0.072,-0.138 0.102,-0.137 0.129,-0.137 0.156,-0.138 0.182,-0.137 0.205,-0.138 0.227,-0.137 0.51,-0.275 0.278,-0.137 0.29,-0.137 0.605,-0.275 1.223,-0.55 0.272,-0.128 0.263,-0.128 0.251,-0.128 0.237,-0.128 0.22,-0.128 0.203,-0.128 0.183,-0.128 0.162,-0.128 0.14,-0.129 0.116,-0.128 0.091,-0.128 0.066,-0.128 0.04,-0.128 0.014,-0.128 -0.013,-0.128 -0.039,-0.128 -0.065,-0.129 -0.09,-0.128 -0.115,-0.128 -0.139,-0.128 -0.161,-0.128 -0.183,-0.128 -0.202,-0.128 -0.22,-0.128 -0.236,-0.129 -0.25,-0.128 -0.535,-0.256 -1.14,-0.512 -0.286,-0.128 -0.281,-0.129 -0.541,-0.256 -0.254,-0.128 -0.241,-0.128 -0.225,-0.128 -0.208,-0.128 -0.189,-0.128 -0.168,-0.129 -0.146,-0.128 -0.123,-0.128 -0.099,-0.128 -0.073,-0.128 -0.047,-0.128 -0.021,-0.128 0.005,-0.128 0.032,-0.128 0.057,-0.129 0.084,-0.128 0.108,-0.128 0.132,-0.128 0.155,-0.128 0.177,-0.128 0.196,-0.128 0.216,-0.128 0.478,-0.257 0.259,-0.128 0.27,-0.128 0.561,-0.256 0.311,-0.139 0.313,-0.139 0.615,-0.278 0.298,-0.139 0.286,-0.139 0.527,-0.278 0.237,-0.139 0.215,-0.139 0.191,-0.138 0.166,-0.139 0.139,-0.139 0.11,-0.139 0.081,-0.139 0.051,-0.139 0.02,-0.139 -0.012,-0.139 -0.042,-0.139 -0.073,-0.139 -0.102,-0.139 -0.132,-0.139 -0.158,-0.139 -0.185,-0.139 -0.209,-0.139 -0.231,-0.139 -0.518,-0.277 -0.283,-0.139 -0.294,-0.139 -0.613,-0.278 -0.312,-0.139 -0.312,-0.139 -0.611,-0.278 -0.293,-0.139 -0.281,-0.139 -0.515,-0.278 -0.228,-0.139 -0.206,-0.139 -0.182,-0.139 -0.156,-0.138 -0.128,-0.139 -0.099,-0.139 -0.069,-0.139 -0.039,-0.139 -0.007,-0.139 0.023,-0.139 0.054,-0.139 0.085,-0.139 0.113,-0.139 0.143,-0.139 0.169,-0.139 0.194,-0.139 0.218,-0.139 0.238,-0.139 0.532,-0.278 0.287,-0.138 0.299,-0.139 0.616,-0.278 0.292,-0.13 0.291,-0.13 0.568,-0.259 0.273,-0.13 0.262,-0.129 0.483,-0.26 0.216,-0.13 0.198,-0.129 0.177,-0.13 0.155,-0.13 0.131,-0.129 0.106,-0.13 0.081,-0.13 0.054,-0.129 0.028,-0.13 10e-4,-0.13 -0.027,-0.13 -0.053,-0.129 -0.079,-0.13 -0.105,-0.13 -0.13,-0.129 -0.154,-0.13 -0.176,-0.13 -0.196,-0.129 -0.216,-0.13 -0.233,-0.13 -0.249,-0.13 -0.261,-0.129 -0.553,-0.26 -0.287,-0.129 -0.291,-0.13 -0.582,-0.259 -0.286,-0.13 -0.28,-0.13 -0.532,-0.259 -0.247,-0.13 -0.232,-0.13 -0.214,-0.129 -0.195,-0.13 -0.174,-0.13 -0.151,-0.129 -0.128,-0.13 -0.103,-0.13 -0.077,-0.129 -0.051,-0.13 -0.024,-0.13 0.003,-0.13 0.03,-0.129 0.056,-0.13 0.084,-0.13 0.108,-0.129 0.133,-0.13 0.157,-0.13 0.179,-0.129 0.199,-0.13 0.218,-0.13 0.236,-0.13 0.513,-0.259 0.268,-0.127 0.276,-0.127 0.567,-0.255 0.286,-0.127 0.284,-0.127 0.556,-0.254 0.266,-0.127 0.256,-0.127 0.243,-0.128 0.229,-0.127 0.212,-0.127 0.193,-0.127 0.174,-0.127 0.152,-0.127 0.13,-0.127 0.106,-0.128 0.082,-0.127 0.056,-0.127 0.031,-0.127 0.005,-0.127 -0.022,-0.127 -0.047,-0.127 -0.072,-0.128 -0.098,-0.127 -0.121,-0.127 -0.145,-0.127 -0.166,-0.127 -0.186,-0.127 -0.206,-0.127 -0.223,-0.128 -0.238,-0.127 -0.251,-0.127 -0.535,-0.254 -1.134,-0.509 -0.283,-0.127 -0.278,-0.127 -0.534,-0.254 -0.25,-0.127 -0.237,-0.128 -0.221,-0.127 -0.204,-0.127 -0.184,-0.127 -0.165,-0.127 -0.142,-0.127 -0.119,-0.127 -0.095,-0.128 -0.07,-0.127 -0.045,-0.127 -0.019,-0.127 0.007,-0.127 0.034,-0.127 0.058,-0.127 0.084,-0.128 0.109,-0.127 0.132,-0.127 0.154,-0.127 0.176,-0.127 0.213,-0.138 0.234,-0.138 0.523,-0.276 0.283,-0.138 0.294,-0.138 0.611,-0.276 0.31,-0.138 0.31,-0.138 0.604,-0.276 0.29,-0.138 0.276,-0.138 0.506,-0.276 0.224,-0.138 0.202,-0.137 0.177,-0.138 0.152,-0.138 0.124,-0.138 0.095,-0.138 0.066,-0.138 0.036,-0.138 0.005,-0.138 -0.025,-0.138 -0.056,-0.138 -0.085,-0.138 -0.115,-0.138 -0.142,-0.138 -0.169,-0.138 -0.194,-0.138 -0.216,-0.138 -0.238,-0.138 -0.528,-0.276 -0.285,-0.138 -0.296,-0.138 -0.612,-0.276 -0.311,-0.138 -0.309,-0.138 -0.602,-0.276 -0.288,-0.137 -0.274,-0.138 -0.259,-0.138 -0.241,-0.138 -0.22,-0.138 -0.198,-0.138 -0.173,-0.138 -0.148,-0.138 -0.119,-0.138 -0.091,-0.138 -0.061,-0.138 -0.03,-0.138 -10e-4,-0.138 0.031,-0.138 0.06,-0.138 0.091,-0.138 0.119,-0.138 0.147,-0.138 0.173,-0.138 0.197,-0.138 0.205,-0.129 0.223,-0.128 0.492,-0.258 0.264,-0.128 0.275,-0.129 0.568,-0.258 0.289,-0.128 0.289,-0.129 0.569,-0.257 0.275,-0.129 0.266,-0.129 0.493,-0.257 0.223,-0.129 0.206,-0.129 0.186,-0.129 0.165,-0.128 0.143,-0.129 0.119,-0.129 0.094,-0.128 0.068,-0.129 0.042,-0.129 0.016,-0.129 -0.011,-0.128 -0.038,-0.129 -0.063,-0.129 -0.09,-0.128 -0.114,-0.129 -0.139,-0.129 -0.161,-0.129 -0.182,-0.128 -0.203,-0.129 -0.221,-0.129 -0.237,-0.129 -0.251,-0.128 -0.537,-0.258 -0.28,-0.128 -0.287,-0.129 -0.578,-0.258 -0.287,-0.128 -0.283,-0.129 -0.543,-0.257 -0.255,-0.129 -0.241,-0.129 -0.226,-0.129 -0.208,-0.128 -0.188,-0.129 -0.168,-0.129 -0.145,-0.129 -0.122,-0.128 -0.097,-0.129 -0.072,-0.129 -0.045,-0.128 -0.019,-0.129 0.008,-0.129 0.034,-0.129 0.061,-0.128 0.086,-0.129 0.122,-0.14 0.15,-0.139 0.177,-0.14 0.202,-0.139 0.225,-0.14 0.245,-0.139 0.543,-0.279 0.292,-0.14 0.303,-0.139 0.622,-0.28 1.228,-0.558 0.286,-0.139 0.272,-0.14 0.254,-0.139 0.235,-0.14 0.213,-0.139 0.189,-0.14 0.163,-0.14 0.136,-0.139 0.107,-0.14 0.077,-0.139 0.046,-0.14 0.015,-0.139 -0.016,-0.14 -0.048,-0.139 -0.078,-0.14 -0.108,-0.139 -0.137,-0.14 -0.164,-0.139 -0.191,-0.14 -0.214,-0.14 -0.236,-0.139 -0.255,-0.14 -0.559,-0.279 -0.297,-0.139 -0.307,-0.14 -0.625,-0.279 -0.313,-0.139 -0.309,-0.14 -0.593,-0.279 -0.279,-0.14 -0.263,-0.139 -0.244,-0.14 -0.224,-0.139 -0.201,-0.14 -0.176,-0.139 -0.149,-0.14 -0.12,-0.139 -0.092,-0.14 -0.06,-0.139 -0.03,-0.14 10e-4,-0.14 0.033,-0.139 0.064,-0.14 0.094,-0.139 0.123,-0.14 0.141,-0.13 0.164,-0.13 0.185,-0.131 0.206,-0.13 0.225,-0.13 0.241,-0.131 0.524,-0.26 0.277,-0.13 0.286,-0.131 0.583,-0.26 1.145,-0.522 0.268,-0.13 0.255,-0.13 0.24,-0.13 0.225,-0.131 0.205,-0.13 0.185,-0.13 0.164,-0.131 0.139,-0.13 0.116,-0.13 0.089,-0.131 0.064,-0.13 0.036,-0.13 0.01,-0.13 -0.019,-0.131 -0.045,-0.13 -0.072,-0.13 -0.098,-0.131 -0.123,-0.13 -0.148,-0.13 -0.17,-0.131 -0.192,-0.13 -0.212,-0.13 -0.475,-0.261 -0.259,-0.13 -0.271,-0.13 -0.568,-0.261 -1.165,-0.521 -0.283,-0.13 -0.275,-0.131 -0.264,-0.13 -0.251,-0.13 -0.236,-0.131 -0.219,-0.13 -0.2,-0.13 -0.179,-0.131 -0.156,-0.13 -0.133,-0.13 -0.108,-0.13 -0.082,-0.131 -0.056,-0.13 -0.028,-0.13 -0.002,-0.131 0.026,-0.13 0.052,-0.128 0.078,-0.127 0.102,-0.128 0.126,-0.128 0.15,-0.128 0.171,-0.127 0.191,-0.128 0.21,-0.128 0.228,-0.128 0.242,-0.127 0.522,-0.256 1.129,-0.511 0.287,-0.128 0.283,-0.127 0.548,-0.256 0.261,-0.128 0.248,-0.127 0.451,-0.256 0.2,-0.128 0.179,-0.127 0.159,-0.128 0.136,-0.128 0.112,-0.128 0.088,-0.127 0.063,-0.128 0.036,-0.128 0.011,-0.128 -0.016,-0.127 -0.042,-0.128 -0.068,-0.128 -0.092,-0.128 -0.118,-0.127 -0.14,-0.128 -0.163,-0.128 -0.184,-0.128 -0.204,-0.127 -0.457,-0.256 -0.251,-0.128 -0.262,-0.127 -0.552,-0.256 -0.284,-0.128 -0.287,-0.127 -0.572,-0.256 -0.28,-0.128 -0.274,-0.127 -0.517,-0.256 -0.24,-0.128 -0.224,-0.127 -0.206,-0.128 -0.188,-0.128 -0.166,-0.128 -0.145,-0.127 -0.122,-0.128 -0.097,-0.128 -0.077,-0.138 -0.047,-0.139 -0.016,-0.138 0.014,-0.139 0.046,-0.139 0.075,-0.138 0.106,-0.139 0.133,-0.138 0.161,-0.139 0.187,-0.138 0.21,-0.139 0.232,-0.139 0.252,-0.138 0.268,-0.139 0.578,-0.277 0.303,-0.138 0.308,-0.139 0.623,-0.277 0.308,-0.139 0.301,-0.138 0.571,-0.277 0.264,-0.139 0.247,-0.139 0.227,-0.138 0.204,-0.139 0.181,-0.138 0.154,-0.139 0.126,-0.138 0.098,-0.139 0.068,-0.138 0.038,-0.139 0.007,-0.139 -0.024,-0.138 -0.055,-0.139 -0.085,-0.138 -0.114,-0.139 -0.142,-0.138 -0.169,-0.139 -0.194,-0.139 -0.217,-0.138 -0.238,-0.139 -0.257,-0.138 -0.273,-0.139 -0.584,-0.277 -0.305,-0.139 -0.31,-0.138 -0.622,-0.277 -0.306,-0.139 -0.299,-0.138 -0.563,-0.278 -0.26,-0.138 -0.241,-0.139 -0.22,-0.138 -0.197,-0.139 -0.173,-0.138 -0.146,-0.139 -0.118,-0.138 -0.088,-0.139 -0.056,-0.129 -0.03,-0.13 -0.002,-0.129 0.024,-0.129 0.051,-0.13 0.078,-0.129 0.103,-0.129 0.127,-0.13 0.151,-0.129 0.174,-0.129 0.194,-0.13 0.214,-0.129 0.231,-0.129 0.246,-0.13 0.53,-0.258 0.279,-0.13 0.286,-0.129 0.58,-0.259 0.29,-0.129 0.286,-0.129 0.552,-0.259 0.261,-0.129 0.248,-0.13 0.234,-0.129 0.216,-0.129 0.197,-0.129 0.176,-0.13 0.155,-0.129 0.131,-0.129 0.107,-0.13 0.081,-0.129 0.055,-0.129 0.028,-0.13 10e-4,-0.129 -0.025,-0.129 -0.052,-0.13 -0.079,-0.129 -0.104,-0.129 -0.128,-0.13 -0.152,-0.129 -0.174,-0.129 -0.196,-0.13 -0.214,-0.129 -0.478,-0.259 -0.26,-0.129 -0.271,-0.129 -0.565,-0.259 -0.29,-0.129 -0.29,-0.13 L 52.58,97 52.3,96.87 l -0.272,-0.129 -0.26,-0.129 -0.248,-0.13 -0.233,-0.129 -0.215,-0.129 -0.196,-0.13 -0.176,-0.129 -0.166,-0.14 -0.137,-0.14 -0.109,-0.14 -0.079,-0.14 -0.047,-0.141 -0.016,-0.14 0.015,-0.14 0.047,-0.14 0.078,-0.14 0.108,-0.14 0.137,-0.14 0.165,-0.141 0.19,-0.14 0.215,-0.14 0.237,-0.14 0.257,-0.14 0.274,-0.14 0.288,-0.14 0.607,-0.281 0.313,-0.14 0.315,-0.14 0.624,-0.28 0.302,-0.14 0.293,-0.141 0.279,-0.14 0.263,-0.14 0.244,-0.14 0.224,-0.14 0.2,-0.14 0.174,-0.141 0.147,-0.14 0.119,-0.14 0.089,-0.14 0.058,-0.14 0.027,-0.14 -0.005,-0.14 -0.036,-0.141 -0.067,-0.14 -0.098,-0.14 -0.127,-0.14 -0.156,-0.14 -0.182,-0.14 -0.207,-0.14 -0.23,-0.141 -0.518,-0.28 -0.284,-0.14 -0.296,-0.14 -0.616,-0.28 -0.315,-0.141 -0.315,-0.14 -0.617,-0.28 -0.296,-0.14 -0.284,-0.14 -0.269,-0.14 -0.251,-0.141 -0.231,-0.14 -0.208,-0.14 -0.183,-0.14 -0.157,-0.14 -0.126,-0.138 -0.099,-0.137 -0.068,-0.138 -0.039,-0.138 -0.009,-0.137 0.022,-0.138 0.053,-0.137 0.081,-0.138 0.111,-0.137 0.139,-0.138 0.165,-0.138 0.19,-0.137 0.213,-0.138 0.235,-0.137 0.522,-0.276 0.283,-0.137 0.293,-0.138 0.61,-0.275 0.309,-0.138 0.309,-0.137 0.602,-0.275 0.289,-0.138 0.276,-0.138 0.261,-0.137 0.244,-0.138 0.223,-0.137 0.201,-0.138 0.178,-0.137 0.151,-0.138 0.125,-0.138 0.095,-0.137 0.067,-0.138 0.036,-0.137 0.007,-0.138 -0.025,-0.138 -0.054,-0.137 -0.085,-0.138 -0.113,-0.137 -0.14,-0.138 -0.168,-0.138 -0.192,-0.137 -0.214,-0.138 -0.236,-0.137 -0.525,-0.276 -0.284,-0.137 -0.294,-0.138 -0.61,-0.275 -0.31,-0.137 -0.308,-0.138 -0.602,-0.275 -0.288,-0.138 -0.275,-0.137 -0.259,-0.138 -0.242,-0.138 -0.222,-0.137 -0.2,-0.138 -0.175,-0.137 -0.15,-0.138 -0.114,-0.128 -0.09,-0.129 -0.065,-0.128 -0.038,-0.128 -0.012,-0.129 0.014,-0.128 0.041,-0.128 0.067,-0.129 0.092,-0.128 0.117,-0.128 0.141,-0.129 0.163,-0.128 0.184,-0.129 0.204,-0.128 0.46,-0.257 0.252,-0.128 0.264,-0.128 0.554,-0.257 1.148,-0.513 0.282,-0.129 0.274,-0.128 0.265,-0.128 0.254,-0.129 0.24,-0.128 0.224,-0.128 0.206,-0.129 0.187,-0.128 0.166,-0.129 0.144,-0.128 0.12,-0.128 0.095,-0.129 0.07,-0.128 0.045,-0.128 0.017,-0.129 -0.008,-0.128 -0.035,-0.128 -0.061,-0.129 -0.087,-0.128 -0.112,-0.128 -0.135,-0.129 -0.159,-0.128 -0.18,-0.128 -0.199,-0.129 -0.218,-0.128 -0.235,-0.128 -0.51,-0.257 -1.124,-0.514 -0.288,-0.128 -0.287,-0.128 -0.559,-0.257 -0.267,-0.128 -0.257,-0.129 -0.47,-0.256 -0.227,-0.14 -0.205,-0.139 -0.18,-0.139 -0.154,-0.139 -0.126,-0.139 -0.097,-0.139 -0.067,-0.14 -0.036,-0.139 -0.006,-0.139 0.026,-0.139 0.057,-0.139 0.087,-0.139 0.117,-0.14 0.145,-0.139 0.172,-0.139 0.197,-0.139 0.22,-0.139 0.241,-0.139 0.536,-0.279 0.289,-0.139 0.3,-0.139 0.618,-0.278 0.313,-0.14 0.312,-0.139 0.605,-0.278 0.288,-0.139 0.274,-0.139 0.258,-0.14 0.238,-0.139 0.218,-0.139 0.194,-0.139 0.169,-0.139 0.142,-0.139 0.113,-0.14 0.084,-0.139 0.054,-0.139 0.022,-0.139 -0.008,-0.139 -0.04,-0.139 -0.07,-0.14 -0.101,-0.139 -0.129,-0.139 -0.157,-0.139 -0.183,-0.139 -0.207,-0.139 -0.23,-0.14 -0.25,-0.139 -0.549,-0.278 -1.22,-0.557 -0.312,-0.139 -0.31,-0.139 -0.597,-0.279 -0.283,-0.139 -0.267,-0.139 -0.25,-0.139 -0.23,-0.139 -0.194,-0.13 -0.173,-0.13 -0.151,-0.13 -0.127,-0.13 -0.102,-0.13 -0.076,-0.13 -0.05,-0.13 -0.023,-0.13 0.005,-0.13 0.031,-0.129 0.058,-0.13 0.085,-0.13 0.11,-0.13 0.135,-0.13 0.159,-0.13 0.18,-0.13 0.201,-0.13 0.22,-0.13 0.489,-0.26 0.264,-0.13 0.275,-0.13 0.571,-0.259 0.291,-0.13 0.293,-0.13 0.576,-0.26 0.279,-0.13 0.269,-0.13 0.502,-0.26 0.228,-0.13 0.211,-0.13 0.19,-0.13 0.169,-0.13 0.147,-0.13 0.122,-0.129 0.097,-0.13 0.071,-0.13 0.044,-0.13 0.018,-0.13 -0.01,-0.13 -0.037,-0.13 -0.063,-0.13 -0.09,-0.13 -0.115,-0.13 -0.14,-0.13 -0.163,-0.13 -0.184,-0.13 -0.205,-0.13 -0.224,-0.129 -0.239,-0.13 -0.255,-0.13 -0.543,-0.26 -0.284,-0.13 -0.289,-0.13 -0.584,-0.26 -0.29,-0.13 -0.284,-0.13 -0.545,-0.26 -0.251,-0.127 -0.237,-0.127 -0.221,-0.128 -0.204,-0.127 -0.184,-0.127 -0.164,-0.128 -0.142,-0.127 -0.118,-0.128 -0.095,-0.127 -0.069,-0.127 -0.044,-0.128 -0.018,-0.127 0.008,-0.127 0.035,-0.128 0.06,-0.127 0.085,-0.128 0.109,-0.127 0.134,-0.127 0.156,-0.128 0.177,-0.127 0.197,-0.127 0.215,-0.128 0.477,-0.255 0.258,-0.127 0.268,-0.127 0.559,-0.255 1.138,-0.51 0.276,-0.127 0.267,-0.127 0.256,-0.128 0.244,-0.127 0.229,-0.127 0.212,-0.128 0.194,-0.127 0.174,-0.128 0.153,-0.127 0.13,-0.127 0.106,-0.128 0.081,-0.127 0.057,-0.127 0.03,-0.128 0.004,-0.127 -0.021,-0.128 -0.048,-0.127 -0.073,-0.127 -0.098,-0.128 -0.122,-0.127 -0.145,-0.127 -0.167,-0.128 -0.188,-0.127 -0.206,-0.128 -0.224,-0.127 -0.239,-0.127 -0.516,-0.255 -1.123,-0.51 -0.31,-0.138 -0.307,-0.138 -0.593,-0.276 -0.279,-0.139 -0.265,-0.138 -0.247,-0.138 -0.227,-0.138 -0.206,-0.138 -0.181,-0.138 -0.156,-0.139 -0.128,-0.138 -0.1,-0.138 -0.07,-0.138 -0.04,-0.138 -0.01,-0.139 0.021,-0.138 0.052,-0.138 0.082,-0.138 0.111,-0.138 0.139,-0.139 0.166,-0.138 0.191,-0.138 0.214,-0.138 0.236,-0.138 0.254,-0.139 0.555,-0.276 1.218,-0.553 0.31,-0.138 0.306,-0.138 0.588,-0.277 0.276,-0.138 0.262,-0.138 0.243,-0.138 0.223,-0.138 0.2,-0.139 0.176,-0.138 0.15,-0.138 0.122,-0.138 0.093,-0.138 0.064,-0.138 0.034,-0.139 0.002,-0.138 L 56.406,37.83 56.348,37.692 56.26,37.554 56.143,37.415 55.998,37.277 55.826,37.139 55.63,37.001 55.411,36.863 55.171,36.724 54.913,36.586 54.352,36.31 53.13,35.757 52.841,35.628 52.556,35.499 52.008,35.241 51.749,35.112 51.503,34.983 51.272,34.854 51.058,34.725 50.864,34.596 50.69,34.468 50.538,34.339 50.41,34.21 l -0.104,-0.129 -0.079,-0.129 -0.052,-0.129 -0.026,-0.129 0,-0.129 0.028,-0.129 0.054,-0.129 0.08,-0.129 0.105,-0.129 0.13,-0.129 0.153,-0.129 0.175,-0.129 0.195,-0.129 0.215,-0.129 0.478,-0.258 0.26,-0.129 0.271,-0.129 0.564,-0.257 0.288,-0.129 0.29,-0.129 0.574,-0.258 0.279,-0.129 0.271,-0.129 0.507,-0.258 0.231,-0.129 0.215,-0.129 0.196,-0.129 0.175,-0.129 0.153,-0.129 0.13,-0.129 0.105,-0.129 0.08,-0.129 0.055,-0.129 0.027,-0.129 L 56.434,29.18 56.408,29.051 56.356,28.923 56.277,28.794 56.174,28.665 56.045,28.536 55.894,28.407 55.72,28.278 55.525,28.149 55.312,28.02 55.081,27.891 54.835,27.762 54.306,27.504 53.995,27.36 53.676,27.216 53.03,26.928 52.709,26.784 52.394,26.64 51.797,26.352 51.52,26.209 51.262,26.065 51.026,25.921 50.814,25.777 50.628,25.633 50.47,25.489 50.342,25.345 50.245,25.201 50.18,25.057 l -0.031,-0.144 0.002,-0.144 0.035,-0.144 0.068,-0.144 0.1,-0.144 0.131,-0.144 0.161,-0.144 0.189,-0.144 0.215,-0.144 0.239,-0.144 0.259,-0.144 0.279,-0.143 0.294,-0.144 0.621,-0.288 0.322,-0.144 0.323,-0.144 0.641,-0.288 0.311,-0.144 0.299,-0.144 0.553,-0.288 0.247,-0.144 0.225,-0.144 0.2,-0.144 0.173,-0.144 0.143,-0.144 0.113,-0.144 0.081,-0.144 0.049,-0.144 0.015,-0.143 -0.018,-0.144 -0.051,-0.144 -0.084,-0.144 -0.116,-0.144 -0.145,-0.144 -0.175,-0.144 -0.202,-0.144 -0.227,-0.144 -0.249,-0.144 -0.556,-0.288 -0.3,-0.144 -0.312,-0.144 -0.318,-0.144 -0.323,-0.144"
                           style="fill:none;stroke:#000000;stroke-width:2.8440001;stroke-linecap:square;stroke-linejoin:miter;stroke-miterlimit:3.25;stroke-opacity:1;stroke-dasharray:none"
                           id="path19501"
                           inkscape:connector-curvature="0" /><path
                           d="M 53.291,437.709 263,228 53.291,18.291"
                           style="fill:none;stroke:#000000;stroke-width:2.8440001;stroke-linecap:square;stroke-linejoin:miter;stroke-miterlimit:3.25;stroke-opacity:1;stroke-dasharray:none"
                           id="path19503"
                           inkscape:connector-curvature="0" /></g></g><g
                       id="g19505"><g
                         id="g19507"
                         clip-path="url(#clipPath19509)" /></g></g></g></g></g></g></g></g></g><g
       id="g19559"
       transform="matrix(1.8185613,0,0,1.8185613,-37.571519,-303.41807)"><g
         id="content"
         transform="matrix(0.4231625,0,0,-0.4231625,-74.053437,405)"
         xml:space="preserve"
         stroke-miterlimit="10.433"
         font-style="normal"
         font-variant="normal"
         font-weight="normal"
         font-stretch="normal"
         font-size-adjust="none"
         letter-spacing="normal"
         word-spacing="normal"
         style="font-style:normal;font-variant:normal;font-weight:normal;font-stretch:normal;letter-spacing:normal;word-spacing:normal;text-anchor:start;fill:none;stroke:#000000;stroke-linecap:butt;stroke-linejoin:miter;stroke-miterlimit:10.43299961;stroke-opacity:1;stroke-dasharray:none;stroke-dashoffset:0"><path
           d="m 486.16,440.23 -0.45,-0.01 -0.44,-0.02 -0.44,-0.03 -0.43,-0.04 -0.43,-0.06 -0.42,-0.06 -0.42,-0.08 -0.42,-0.08 -0.4,-0.1 -0.41,-0.1 -0.39,-0.11 -0.39,-0.12 -0.39,-0.13 -0.38,-0.13 -0.37,-0.14 -0.36,-0.14 -0.7,-0.3 -0.68,-0.32 -0.64,-0.33 -0.3,-0.16 -0.3,-0.17 -0.29,-0.17 -0.28,-0.16 -0.27,-0.17 -0.26,-0.17 -0.25,-0.16 -0.24,-0.16 -0.23,-0.16 -0.22,-0.16 c -5.44,-3.89 -6.03,-8.08 -6.03,-8.17 0,-0.34 0.29,-0.34 0.5,-0.34 1.14,0 3.37,1.39 3.68,2.28 1.64,5.28 5.22,7.42 10.11,7.42 h 6.63 c -5.49,-4.37 -7.77,-11.91 -11.06,-24.86 -1.19,-4.62 -4.24,-9.61 -9.27,-9.61 -3.89,0 -7.42,2.6 -7.42,6.92 0,1 0.25,1.85 0.25,2.05 0,0.14 -0.05,0.45 -0.5,0.45 -0.3,0 -1.46,-0.25 -2.85,-1.29 -0.59,-0.46 -1.14,-0.96 -1.14,-3.3 0,-4.58 3.49,-7.56 8.38,-7.56 4.23,0 8.26,2.39 10.7,4.48 4.58,3.92 5.49,7.56 6.38,11.11 1.84,7.22 4.23,16.28 7.97,20.47 0.79,0.89 1,1.05 2.15,1.14 2.24,0.16 3.92,1.84 3.92,2.39 0,0.31 -0.04,0.36 -1.14,0.36 z"
           id="path19562"
           inkscape:connector-curvature="0"
           style="fill:#000000;stroke-width:0" /><path
           d="m 514.62,432.07 h 10.66 c 0.45,0 1.28,0 1.28,0.85 0,0.86 -0.8,0.86 -1.28,0.86 h -10.66 v 10.7 c 0,0.45 0,1.28 -0.84,1.28 -0.88,0 -0.88,-0.8 -0.88,-1.28 v -10.7 h -10.69 c -0.45,0 -1.29,0 -1.29,-0.83 0,-0.88 0.79,-0.88 1.29,-0.88 h 10.69 v -10.7 c 0,-0.45 0,-1.28 0.85,-1.28 0.87,0 0.87,0.8 0.87,1.28 z"
           id="path19564"
           inkscape:connector-curvature="0"
           style="fill:#000000;stroke-width:0" /></g></g><g
       id="g19664"
       transform="matrix(1.8278398,0,0,1.8278398,-49.665174,-67.566296)"><g
         word-spacing="normal"
         letter-spacing="normal"
         font-size-adjust="none"
         font-stretch="normal"
         font-weight="normal"
         font-variant="normal"
         font-style="normal"
         stroke-miterlimit="10.433"
         xml:space="preserve"
         transform="matrix(0.4231625,0,0,-0.4231625,-74.053437,405)"
         id="g19666"
         style="font-style:normal;font-variant:normal;font-weight:normal;font-stretch:normal;letter-spacing:normal;word-spacing:normal;text-anchor:start;fill:none;stroke:#000000;stroke-linecap:butt;stroke-linejoin:miter;stroke-miterlimit:10.43299961;stroke-opacity:1;stroke-dasharray:none;stroke-dashoffset:0"><path
           id="path19668"
           d="m 486.16,440.23 -0.45,-0.01 -0.44,-0.02 -0.44,-0.03 -0.43,-0.04 -0.43,-0.06 -0.42,-0.06 -0.42,-0.08 -0.42,-0.08 -0.4,-0.1 -0.41,-0.1 -0.39,-0.11 -0.39,-0.12 -0.39,-0.13 -0.38,-0.13 -0.37,-0.14 -0.36,-0.14 -0.7,-0.3 -0.68,-0.32 -0.64,-0.33 -0.3,-0.16 -0.3,-0.17 -0.29,-0.17 -0.28,-0.16 -0.27,-0.17 -0.26,-0.17 -0.25,-0.16 -0.24,-0.16 -0.23,-0.16 -0.22,-0.16 c -5.44,-3.89 -6.03,-8.08 -6.03,-8.17 0,-0.34 0.29,-0.34 0.5,-0.34 1.14,0 3.37,1.39 3.68,2.28 1.64,5.28 5.22,7.42 10.11,7.42 h 6.63 c -5.49,-4.37 -7.77,-11.91 -11.06,-24.86 -1.19,-4.62 -4.24,-9.61 -9.27,-9.61 -3.89,0 -7.42,2.6 -7.42,6.92 0,1 0.25,1.85 0.25,2.05 0,0.14 -0.05,0.45 -0.5,0.45 -0.3,0 -1.46,-0.25 -2.85,-1.29 -0.59,-0.46 -1.14,-0.96 -1.14,-3.3 0,-4.58 3.49,-7.56 8.38,-7.56 4.23,0 8.26,2.39 10.7,4.48 4.58,3.92 5.49,7.56 6.38,11.11 1.84,7.22 4.23,16.28 7.97,20.47 0.79,0.89 1,1.05 2.15,1.14 2.24,0.16 3.92,1.84 3.92,2.39 0,0.31 -0.04,0.36 -1.14,0.36 z"
           inkscape:connector-curvature="0"
           style="fill:#000000;stroke-width:0" /><path
           id="path19670"
           d="m 524.4,432.07 0.06,0 0.05,0 0.11,0.01 0.12,0 0.06,0 0.06,0.01 0.06,0 0.05,0.01 0.06,0.01 0.06,0.01 0.06,0.01 0.05,0.01 0.06,0.02 0.05,0.02 0.05,0.02 0.05,0.02 0.05,0.03 0.04,0.03 0.04,0.03 0.04,0.04 0.04,0.04 0.02,0.02 0.01,0.02 0.02,0.02 0.02,0.03 0.01,0.02 0.01,0.03 0.02,0.02 0.01,0.03 0.01,0.03 0.01,0.03 0,0.03 0.01,0.03 0.01,0.04 0,0.03 0.01,0.03 0,0.04 0,0.04 0,0.04 c 0,0.86 -0.79,0.86 -1.39,0.86 h -20.76 c -0.57,0 -1.39,0 -1.39,-0.83 0,-0.88 0.79,-0.88 1.39,-0.88 z"
           inkscape:connector-curvature="0"
           style="fill:#000000;stroke-width:0" /></g></g><g
       id="g19778"
       transform="matrix(1.5188033,0,0,1.5188033,97.353285,-118.99868)"><g
         id="g19780"
         transform="matrix(0.4231625,0,0,-0.4231625,-74.053437,405)"
         xml:space="preserve"
         stroke-miterlimit="10.433"
         font-style="normal"
         font-variant="normal"
         font-weight="normal"
         font-stretch="normal"
         font-size-adjust="none"
         letter-spacing="normal"
         word-spacing="normal"
         style="font-style:normal;font-variant:normal;font-weight:normal;font-stretch:normal;letter-spacing:normal;word-spacing:normal;text-anchor:start;fill:none;stroke:#000000;stroke-linecap:butt;stroke-linejoin:miter;stroke-miterlimit:10.43299961;stroke-opacity:1;stroke-dasharray:none;stroke-dashoffset:0"><path
           d="m 469.68,437.34 -0.01,0.09 0,0.09 -0.01,0.1 -0.02,0.08 -0.01,0.09 -0.03,0.09 -0.02,0.08 -0.03,0.08 -0.03,0.08 -0.04,0.08 -0.04,0.08 -0.05,0.07 -0.04,0.07 -0.06,0.07 -0.05,0.06 -0.06,0.06 -0.06,0.06 -0.06,0.06 -0.07,0.05 -0.07,0.05 -0.08,0.05 -0.07,0.04 -0.09,0.04 -0.08,0.04 -0.08,0.03 -0.09,0.03 -0.1,0.02 -0.09,0.02 -0.1,0.02 -0.1,0.01 -0.1,0 -0.11,0.01 c -1.36,0 -2.7,-1.3 -2.7,-2.64 0,-0.96 0.7,-1.8 1.91,-1.8 1.14,0 2.64,1.14 2.64,2.64 z"
           id="path19782"
           inkscape:connector-curvature="0"
           style="fill:#000000;stroke-width:0" /><path
           d="m 465.88,418.61 0.05,0.13 0.05,0.12 0.05,0.12 0.05,0.11 0.04,0.1 0.04,0.1 0.03,0.09 0.04,0.09 0.03,0.09 0.04,0.08 0.03,0.08 0.02,0.08 0.03,0.07 0.03,0.07 0.05,0.15 0.05,0.14 0.05,0.14 0.03,0.07 0.03,0.08 0.03,0.08 0.02,0.08 0.04,0.08 0.03,0.09 0.03,0.1 0.04,0.09 0.03,0.11 0.04,0.11 0.05,0.11 0.04,0.13 c 0.41,1 0.66,1.68 0.66,2.64 0,2.23 -1.59,4.07 -4.09,4.07 -4.68,0 -6.58,-7.21 -6.58,-7.67 0,-0.5 0.5,-0.5 0.61,-0.5 0.5,0 0.54,0.11 0.79,0.91 1.35,4.69 3.33,6.17 5.03,6.17 0.4,0 1.25,0 1.25,-1.59 0,-1.05 -0.35,-2.1 -0.56,-2.6 -0.39,-1.29 -2.64,-7.06 -3.44,-9.22 -0.48,-1.28 -1.14,-2.93 -1.14,-3.98 0,-2.33 1.69,-4.08 4.1,-4.08 4.67,0 6.51,7.22 6.51,7.67 0,0.5 -0.43,0.5 -0.59,0.5 -0.5,0 -0.5,-0.15 -0.75,-0.9 -0.89,-3.13 -2.53,-6.17 -5.08,-6.17 -0.84,0 -1.2,0.5 -1.2,1.64 0,1.25 0.31,1.95 1.45,4.98 z"
           id="path19784"
           inkscape:connector-curvature="0"
           style="fill:#000000;stroke-width:0" /><path
           d="m 490.66,435.31 0,0.71 -0.02,0.68 -0.03,0.66 -0.04,0.64 -0.06,0.62 -0.07,0.59 -0.09,0.58 -0.11,0.56 -0.13,0.55 -0.15,0.52 -0.17,0.52 -0.19,0.5 -0.21,0.49 -0.24,0.48 -0.26,0.47 -0.14,0.23 -0.15,0.23 c -1.08,1.61 -3.23,3 -6.03,3 -8.08,0 -8.08,-9.52 -8.08,-12.03 0,-2.5 0,-11.81 8.08,-11.81 v 0.98 c -1.59,0 -3.72,0.94 -4.42,3.8 -0.49,2.04 -0.49,4.9 -0.49,7.48 0,2.55 0,5.2 0.52,7.11 0.73,2.75 2.97,3.49 4.39,3.49 1.89,0 3.7,-1.15 4.33,-3.18 0.56,-1.87 0.59,-4.39 0.59,-7.42 0,-2.58 0,-5.15 -0.45,-7.34 -0.7,-3.17 -3.06,-3.94 -4.47,-3.94 h 0 v -0.98 c 8.09,0 8.09,9.31 8.09,11.81 z"
           id="path19786"
           inkscape:connector-curvature="0"
           style="fill:#000000;stroke-width:0" /></g></g><g
       id="g19904"
       transform="matrix(1.4641396,0,0,1.4641396,-210.97199,-145.60972)"><g
         word-spacing="normal"
         letter-spacing="normal"
         font-size-adjust="none"
         font-stretch="normal"
         font-weight="normal"
         font-variant="normal"
         font-style="normal"
         stroke-miterlimit="10.433"
         xml:space="preserve"
         transform="matrix(0.4231625,0,0,-0.4231625,-74.053437,405)"
         id="g19906"
         style="font-style:normal;font-variant:normal;font-weight:normal;font-stretch:normal;letter-spacing:normal;word-spacing:normal;text-anchor:start;fill:none;stroke:#000000;stroke-linecap:butt;stroke-linejoin:miter;stroke-miterlimit:10.43299961;stroke-opacity:1;stroke-dasharray:none;stroke-dashoffset:0"><path
           id="path19908"
           d="m 459.91,409.14 -0.02,-0.07 -0.01,-0.08 -0.02,-0.07 -0.01,-0.08 -0.04,-0.16 -0.04,-0.16 -0.03,-0.16 -0.04,-0.16 -0.04,-0.16 -0.04,-0.16 -0.01,-0.08 -0.02,-0.07 -0.02,-0.07 -0.01,-0.07 -0.02,-0.07 -0.01,-0.07 -0.01,-0.06 -0.01,-0.06 -0.01,-0.06 -0.01,-0.05 -0.01,-0.05 -0.01,-0.04 -0.01,-0.04 0,-0.04 0,-0.03 0,-0.02 c 0,-0.89 0.7,-1.35 1.43,-1.35 0.61,0 1.5,0.39 1.85,1.39 0.11,0.21 1.8,6.99 2,7.88 0.39,1.64 1.3,5.12 1.59,6.48 0.21,0.64 1.6,2.99 2.78,4.08 0.41,0.34 1.85,1.64 4,1.64 1.28,0 2.03,-0.59 2.08,-0.59 -1.48,-0.25 -2.58,-1.46 -2.58,-2.74 0,-0.79 0.55,-1.75 1.89,-1.75 1.35,0 2.74,1.14 2.74,2.94 0,1.75 -1.6,3.23 -4.13,3.23 -3.25,0 -5.43,-2.43 -6.39,-3.82 -0.39,2.23 -2.18,3.82 -4.53,3.82 -2.28,0 -3.23,-1.93 -3.69,-2.82 -0.89,-1.71 -1.54,-4.69 -1.54,-4.85 0,-0.5 0.5,-0.5 0.61,-0.5 0.5,0 0.54,0.07 0.84,1.16 0.84,3.53 1.84,5.92 3.64,5.92 0.84,0 1.55,-0.39 1.55,-2.28 0,-1.05 -0.16,-1.61 -0.8,-4.19 z"
           inkscape:connector-curvature="0"
           style="fill:#000000;stroke-width:0" /><path
           id="path19910"
           d="m 527.43,422.5 0.14,0 0.15,0 0.14,0 0.07,0.01 0.08,0 0.07,0.01 0.07,0.01 0.07,0.01 0.07,0.01 0.07,0.01 0.06,0.02 0.07,0.02 0.06,0.02 0.06,0.02 0.06,0.03 0.06,0.03 0.05,0.04 0.05,0.03 0.05,0.05 0.04,0.04 0.04,0.05 0.02,0.03 0.02,0.03 0.01,0.02 0.02,0.03 0.01,0.03 0.02,0.04 0.01,0.03 0.01,0.04 0.01,0.03 0.01,0.04 0,0.04 0.01,0.04 0,0.04 0.01,0.04 0,0.04 0,0.05 c 0,1 -0.95,1 -1.64,1 h -29.84 c -0.71,0 -1.64,0 -1.64,-1 0,-0.98 0.93,-0.98 1.68,-0.98 z"
           inkscape:connector-curvature="0"
           style="fill:#000000;stroke-width:0" /><path
           id="path19912"
           d="m 527.48,412.82 0.07,0 0.06,0 0.14,0.01 0.14,0 0.07,0 0.07,0.01 0.07,0.01 0.07,0 0.06,0.01 0.07,0.02 0.07,0.01 0.06,0.02 0.07,0.02 0.06,0.02 0.06,0.02 0.06,0.03 0.05,0.03 0.05,0.04 0.05,0.04 0.05,0.04 0.04,0.05 0.02,0.02 0.02,0.03 0.02,0.02 0.02,0.03 0.01,0.03 0.02,0.03 0.01,0.03 0.02,0.03 0.01,0.04 0.01,0.03 0.01,0.04 0.01,0.04 0,0.04 0.01,0.04 0,0.04 0.01,0.04 0,0.05 0,0.04 c 0,1 -0.95,1 -1.69,1 h -29.75 c -0.75,0 -1.68,0 -1.68,-1 0,-1 0.93,-1 1.64,-1 z"
           inkscape:connector-curvature="0"
           style="fill:#000000;stroke-width:0" /><path
           id="path19914"
           d="m 568.8,422.14 -0.01,0.74 -0.01,0.75 -0.02,0.75 -0.03,0.74 -0.04,0.75 -0.06,0.74 -0.08,0.74 -0.1,0.73 -0.11,0.73 -0.14,0.73 -0.16,0.72 -0.19,0.72 -0.22,0.72 -0.24,0.7 -0.28,0.7 -0.15,0.35 -0.16,0.34 c -2.28,4.8 -6.38,5.6 -8.47,5.6 -2.99,0 -6.63,-1.3 -8.67,-5.94 -1.6,-3.44 -1.85,-7.33 -1.85,-11.31 0,-3.74 0.21,-8.22 2.25,-12 2.14,-4.03 5.78,-5.03 8.22,-5.03 v 1.09 c -1.94,0 -4.89,1.25 -5.78,6.03 -0.55,2.98 -0.55,7.56 -0.55,10.52 0,3.18 0,6.46 0.41,9.15 0.94,5.94 4.67,6.38 5.92,6.38 1.64,0 4.94,-0.89 5.88,-5.83 0.5,-2.78 0.5,-6.58 0.5,-9.7 0,-3.75 0,-7.13 -0.55,-10.32 -0.75,-4.73 -3.59,-6.23 -5.83,-6.23 h 0 v -1.09 c 2.69,0 6.47,1.04 8.67,5.78 1.6,3.43 1.85,7.31 1.85,11.25 z"
           inkscape:connector-curvature="0"
           style="fill:#000000;stroke-width:0" /></g></g><path
       style="fill:none;stroke:#000000;stroke-width:2;stroke-linecap:butt;stroke-linejoin:miter;stroke-miterlimit:4;stroke-opacity:1;stroke-dasharray:none;marker-end:url(#Arrow1Mend)"
       d="m -64.067797,240.25424 c 5.188392,31.26794 29.879082,30.03204 52.627119,32.0339"
       id="path19979"
       inkscape:connector-curvature="0"
       transform="matrix(0.8,0,0,0.8,47,12)"
       sodipodi:nodetypes="cc" /></g></svg>