<?xml version="1.0" encoding="UTF-8" standalone="no"?>
<!-- Created with Inkscape (http://www.inkscape.org/) -->

<svg
   xmlns:dc="http://purl.org/dc/elements/1.1/"
   xmlns:cc="http://creativecommons.org/ns#"
   xmlns:rdf="http://www.w3.org/1999/02/22-rdf-syntax-ns#"
   xmlns:svg="http://www.w3.org/2000/svg"
   xmlns="http://www.w3.org/2000/svg"
   xmlns:sodipodi="http://sodipodi.sourceforge.net/DTD/sodipodi-0.dtd"
   xmlns:inkscape="http://www.inkscape.org/namespaces/inkscape"
   id="svg3091"
   version="1.1"
   inkscape:version="0.48.2 r9819"
   width="450"
   height="449.28"
   xml:space="preserve"
   sodipodi:docname="penroserindlerraw.pdf"><sodipodi:namedview
     pagecolor="#ffffff"
     bordercolor="#666666"
     borderopacity="1"
     objecttolerance="10"
     gridtolerance="10"
     guidetolerance="10"
     inkscape:pageopacity="0"
     inkscape:pageshadow="2"
     inkscape:window-width="978"
     inkscape:window-height="674"
     id="namedview3093"
     showgrid="false"
     inkscape:zoom="0.5252849"
     inkscape:cx="-7.2549146"
     inkscape:cy="224.64"
     inkscape:window-x="0"
     inkscape:window-y="0"
     inkscape:window-maximized="0"
     inkscape:current-layer="g3109" /><metadata
     id="metadata3097"><rdf:RDF><cc:Work
         rdf:about=""><dc:format>image/svg+xml</dc:format><dc:type
           rdf:resource="http://purl.org/dc/dcmitype/StillImage" /><dc:title></dc:title></cc:Work></rdf:RDF></metadata><defs
     id="defs3095"><clipPath
       clipPathUnits="userSpaceOnUse"
       id="clipPath3103"><path
         d="m 47,12 0,359.424 360,0 L 407,12"
         clip-rule="evenodd"
         id="path3105" /></clipPath><clipPath
       clipPathUnits="userSpaceOnUse"
       id="clipPath3115"><path
         d="m 0,4 0,375 535,0 0,-375"
         clip-rule="evenodd"
         id="path3117" /></clipPath><clipPath
       clipPathUnits="userSpaceOnUse"
       id="clipPath3127"><path
         d="m 47,12 0,360 360,0 0,-360"
         clip-rule="evenodd"
         id="path3129" /></clipPath><clipPath
       clipPathUnits="userSpaceOnUse"
       id="clipPath3135"><path
         d="m 45,10 0,363 364,0 0,-363"
         clip-rule="evenodd"
         id="path3137" /></clipPath><clipPath
       clipPathUnits="userSpaceOnUse"
       id="clipPath3143"><path
         d="m 47,11 0,360 360,0 0,-360"
         clip-rule="evenodd"
         id="path3145" /></clipPath></defs><g
     id="g3099"
     inkscape:groupmode="layer"
     inkscape:label="penroserindlerraw"
     transform="matrix(1.25,0,0,1.25,-58.75,-15)"><g
       id="g3101"
       clip-path="url(#clipPath3103)"><g
         id="g3107" /><g
         id="g3109"><g
           id="g3111"><g
             id="g3113"
             clip-path="url(#clipPath3115)"><g
               id="g3119"><path
                 d="M 39,4 487,4 487,379 39,379 39,4 z"
                 style="fill:#ffffff;fill-opacity:1;fill-rule:evenodd;stroke:none"
                 id="path3121" /></g></g></g><g
           id="g3123"><g
             id="g3125"
             clip-path="url(#clipPath3127)"><g
               id="g3131"><g
                 id="g3133"
                 clip-path="url(#clipPath3135)"><g
                   id="g3139"><g
                     id="g3141"
                     clip-path="url(#clipPath3143)"><path
                       d="m 227,364.512 172.8,-172.8"
                       style="fill:none;stroke:#000000;stroke-opacity:1;stroke-width:2;stroke-linecap:square;stroke-linejoin:miter;stroke-miterlimit:3.25;stroke-dasharray:none"
                       id="path3147" /><path
                       d="M 54.2,191.712 227,18.912"
                       style="fill:none;stroke:#000000;stroke-opacity:1;stroke-width:2;stroke-linecap:square;stroke-linejoin:miter;stroke-miterlimit:3.25;stroke-dasharray:none"
                       id="path3149" /><path
                       d="M 399.8,191.712 227,18.912"
                       style="fill:none;stroke:#000000;stroke-opacity:1;stroke-width:2;stroke-linecap:square;stroke-linejoin:miter;stroke-miterlimit:3.25;stroke-dasharray:none"
                       id="path3151" /><path
                       d="M 227,364.512 54.2,191.712"
                       style="fill:none;stroke:#000000;stroke-opacity:1;stroke-width:2;stroke-linecap:square;stroke-linejoin:miter;stroke-miterlimit:3.25;stroke-dasharray:none"
                       id="path3153" /><path
                       d="m 227,191.712 86.4,-86.4"
                       style="fill:none;stroke:#000000;stroke-opacity:1;stroke-width:2;stroke-linecap:square;stroke-linejoin:miter;stroke-miterlimit:3.25;stroke-dasharray:none"
                       id="path3155" /><path
                       d="m 227,191.712 86.4,86.4"
                       style="fill:none;stroke:#000000;stroke-opacity:1;stroke-width:2;stroke-linecap:square;stroke-linejoin:miter;stroke-miterlimit:3.25;stroke-dasharray:none"
                       id="path3157" /><path
                       d="m 227,364.512 0,-345.6"
                       style="fill:none;stroke:#000000;stroke-opacity:1;stroke-width:2;stroke-linecap:square;stroke-linejoin:miter;stroke-miterlimit:3.25;stroke-dasharray:1,4;stroke-dashoffset:0"
                       id="path3159" /><path
                       d="m 313.4,278.112 0.048,-0.053 0.048,-0.053 0.096,-0.106 0.192,-0.212 0.384,-0.424 0.768,-0.848 1.536,-1.696 3.328,-3.677 3.103,-3.433 3.036,-3.367 3.282,-3.651 3.051,-3.408 3.289,-3.693 3.207,-3.625 2.967,-3.382 3.186,-3.668 2.939,-3.423 2.839,-3.357 3.025,-3.641 2.759,-3.398 2.906,-3.683 2.746,-3.616 2.444,-3.372 2.491,-3.658 2.141,-3.414 2.069,-3.699 0.03,-0.056 0.029,-0.057 0.059,-0.114 0.116,-0.227 0.228,-0.454 0.442,-0.908 0.026,-0.056 0.027,-0.057 0.054,-0.114 0.105,-0.227 0.208,-0.453 0.398,-0.908 0.023,-0.053 0.022,-0.053 0.045,-0.106 0.088,-0.212 0.173,-0.423 0.33,-0.847 0.02,-0.053 0.019,-0.053 0.04,-0.106 0.077,-0.212 0.152,-0.423 0.285,-0.848 0.018,-0.057 0.019,-0.057 0.036,-0.115 0.072,-0.23 0.138,-0.459 0.017,-0.057 0.016,-0.058 0.033,-0.114 0.065,-0.23 0.124,-0.459 0.015,-0.058 0.014,-0.057 0.03,-0.115 0.057,-0.229 0.109,-0.46 0.195,-0.918 0.011,-0.053 0.01,-0.054 0.021,-0.107 0.039,-0.215 0.074,-0.428 0.009,-0.054 0.008,-0.053 0.017,-0.108 0.033,-0.214 0.06,-0.429 0.007,-0.053 0.007,-0.054 0.014,-0.107 0.026,-0.214 0.006,-0.054 0.006,-0.054 0.012,-0.107 0.022,-0.214 0.005,-0.054 0.005,-0.053 0.01,-0.108 0.019,-0.214 0.004,-0.053 0.005,-0.054 0.008,-0.107 0.015,-0.215 0.004,-0.052 0.003,-0.053 0.006,-0.105 0.003,-0.052 0.003,-0.053 0.006,-0.105 0.002,-0.052 0.003,-0.053 0.005,-0.105 0.002,-0.053 0.002,-0.052 0.004,-0.105 10e-4,-0.053 0.002,-0.052 0.002,-0.053 10e-4,-0.052 0.001,-0.053 10e-4,-0.052 0.002,-0.053 10e-4,-0.052 0,-0.053 0.001,-0.053 10e-4,-0.052 0,-0.053 0.001,-0.052 0,-0.053 10e-4,-0.052 0,-0.053 0,-0.052 0,-0.053 -10e-4,-0.052 0,-0.053 0,-0.052 -0.001,-0.053 0,-0.053 -10e-4,-0.052 -0.001,-0.053 -10e-4,-0.052 -0.001,-0.053 -10e-4,-0.052 -10e-4,-0.053 -0.002,-0.052 -0.003,-0.105 -0.001,-0.053 -0.002,-0.052 -0.004,-0.105 -0.002,-0.053 -0.003,-0.053 -0.004,-0.105 -0.003,-0.052 -0.003,-0.053 -0.005,-0.105 -0.013,-0.21 -0.003,-0.057 -0.004,-0.057 -0.008,-0.114 -0.018,-0.228 -0.004,-0.057 -0.005,-0.057 -0.01,-0.114 -0.022,-0.228 -0.005,-0.057 -0.006,-0.057 -0.012,-0.114 -0.026,-0.228 -0.057,-0.456 -0.007,-0.057 -0.008,-0.057 -0.016,-0.114 -0.033,-0.228 -0.073,-0.456 -0.01,-0.057 -0.009,-0.057 -0.02,-0.114 -0.041,-0.228 -0.088,-0.456 -0.011,-0.053 -0.011,-0.053 -0.022,-0.106 -0.045,-0.213 -0.096,-0.426 -0.21,-0.851 -0.014,-0.053 -0.014,-0.053 -0.028,-0.106 -0.058,-0.213 -0.121,-0.426 -0.259,-0.851 -0.019,-0.057 -0.018,-0.058 -0.038,-0.115 -0.076,-0.231 -0.157,-0.461 -0.335,-0.922 -0.746,-1.845 -0.025,-0.056 -0.024,-0.057 -0.049,-0.113 -0.1,-0.227 -0.204,-0.452 -0.423,-0.906 -0.908,-1.811 -1.89,-3.378 -2.295,-3.664 -2.328,-3.419 -2.424,-3.353 -2.758,-3.638 -2.67,-3.394 -2.982,-3.679 -2.85,-3.436 -2.845,-3.369 -3.132,-3.653 -2.961,-3.41 -3.24,-3.696 -3.209,-3.628 -3.013,-3.384 -3.284,-3.67 -3.079,-3.426 -3.028,-3.358 -3.293,-3.644 -3.077,-3.4 -0.054,-0.06 -0.053,-0.059 -0.108,-0.119 -0.215,-0.237 -0.429,-0.474 -0.86,-0.949 -0.054,-0.059 -0.053,-0.06 -0.108,-0.118 -0.215,-0.238 -0.429,-0.474 -0.054,-0.059 -0.054,-0.06 -0.107,-0.118 -0.215,-0.238 -0.054,-0.059 -0.054,-0.059 -0.107,-0.119 -0.054,-0.059 -0.054,-0.059 -0.053,-0.06 -0.054,-0.059"
                       style="fill:none;stroke:#426ab5;stroke-opacity:1;stroke-width:1.44;stroke-linecap:square;stroke-linejoin:miter;stroke-miterlimit:3.25;stroke-dasharray:none"
                       id="path3161" /><path
                       d="m 313.4,278.112 0.038,-0.053 0.039,-0.053 0.077,-0.106 0.153,-0.212 0.307,-0.424 0.614,-0.848 1.227,-1.696 2.657,-3.677 2.471,-3.433 2.409,-3.367 2.591,-3.651 2.393,-3.408 2.559,-3.693 2.47,-3.625 2.26,-3.382 2.393,-3.668 2.173,-3.423 2.062,-3.357 2.153,-3.641 1.916,-3.398 1.965,-3.683 1.798,-3.616 1.548,-3.372 1.52,-3.658 1.255,-3.414 0.02,-0.057 0.02,-0.058 0.039,-0.116 0.078,-0.231 0.154,-0.462 0.298,-0.925 0.556,-1.85 0.016,-0.056 0.016,-0.057 0.032,-0.114 0.064,-0.227 0.125,-0.454 0.239,-0.908 0.015,-0.056 0.014,-0.057 0.029,-0.114 0.057,-0.227 0.111,-0.453 0.211,-0.908 0.012,-0.053 0.012,-0.053 0.024,-0.106 0.046,-0.212 0.091,-0.423 0.172,-0.847 0.01,-0.053 0.011,-0.053 0.02,-0.106 0.04,-0.212 0.078,-0.423 0.147,-0.848 0.009,-0.057 0.01,-0.057 0.018,-0.115 0.037,-0.23 0.07,-0.459 0.009,-0.057 0.008,-0.058 0.017,-0.114 0.033,-0.23 0.062,-0.459 0.008,-0.058 0.007,-0.057 0.015,-0.115 0.029,-0.229 0.054,-0.46 0.098,-0.918 0.005,-0.053 0.005,-0.054 0.01,-0.107 0.02,-0.215 0.037,-0.428 0.004,-0.054 0.004,-0.053 0.009,-0.108 0.016,-0.214 0.03,-0.429 0.003,-0.053 0.004,-0.054 0.006,-0.107 0.013,-0.214 0.003,-0.054 0.003,-0.054 0.006,-0.107 0.011,-0.214 0.003,-0.054 0.002,-0.053 0.005,-0.108 0.009,-0.214 0.002,-0.053 0.003,-0.054 0.004,-0.107 0.007,-0.215 0.002,-0.052 10e-4,-0.053 0.004,-0.105 10e-4,-0.052 0.001,-0.053 0.003,-0.105 10e-4,-0.052 0.002,-0.053 0.002,-0.105 10e-4,-0.053 0.001,-0.052 0.002,-0.105 10e-4,-0.053 10e-4,-0.052 0,-0.053 0.001,-0.052 10e-4,-0.053 0,-0.052 0.001,-0.053 0,-0.052 10e-4,-0.053 0,-0.053 0,-0.052 10e-4,-0.053 0,-0.052 0,-0.053 0,-0.052 0,-0.053 0,-0.052 0,-0.053 0,-0.052 0,-0.053 0,-0.052 0,-0.053 -10e-4,-0.053 0,-0.052 -10e-4,-0.053 0,-0.052 0,-0.053 -0.001,-0.052 -10e-4,-0.053 0,-0.052 -0.002,-0.105 -10e-4,-0.053 -0.001,-0.052 -10e-4,-0.105 -0.002,-0.053 -0.001,-0.053 -0.002,-0.105 -0.001,-0.052 -0.002,-0.053 -0.002,-0.105 -0.006,-0.21 -0.002,-0.057 -0.002,-0.057 -0.004,-0.114 -0.009,-0.228 -0.002,-0.057 -0.002,-0.057 -0.005,-0.114 -0.011,-0.228 -0.003,-0.057 -0.003,-0.057 -0.006,-0.114 -0.012,-0.228 -0.028,-0.456 -0.004,-0.057 -0.004,-0.057 -0.008,-0.114 -0.016,-0.228 -0.036,-0.456 -0.005,-0.057 -0.005,-0.057 -0.01,-0.114 -0.02,-0.228 -0.044,-0.456 -0.005,-0.053 -0.006,-0.053 -0.011,-0.106 -0.022,-0.213 -0.048,-0.426 -0.106,-0.851 -0.007,-0.053 -0.007,-0.053 -0.014,-0.106 -0.029,-0.213 -0.062,-0.426 -0.132,-0.851 -0.009,-0.057 -0.01,-0.058 -0.019,-0.115 -0.039,-0.231 -0.081,-0.461 -0.173,-0.922 -0.011,-0.058 -0.012,-0.057 -0.023,-0.116 -0.046,-0.23 -0.096,-0.462 -0.204,-0.922 -0.012,-0.056 -0.013,-0.057 -0.027,-0.113 -0.053,-0.227 -0.108,-0.452 -0.228,-0.906 -0.495,-1.811 -0.016,-0.053 -0.015,-0.052 -0.031,-0.106 -0.062,-0.211 -0.126,-0.422 -0.26,-0.845 -0.554,-1.689 -1.345,-3.664 -1.421,-3.419 -1.532,-3.353 -1.804,-3.638 -1.801,-3.394 -2.066,-3.679 -2.025,-3.436 -2.062,-3.369 -2.314,-3.653 -2.222,-3.41 -2.465,-3.696 -2.472,-3.628 -2.343,-3.384 -2.574,-3.67 -2.43,-3.426 -2.402,-3.358 -2.621,-3.644 -2.456,-3.4 -0.043,-0.06 -0.043,-0.059 -0.086,-0.119 -0.172,-0.237 -0.343,-0.474 -0.687,-0.949 -0.043,-0.059 -0.043,-0.06 -0.086,-0.118 -0.171,-0.238 -0.344,-0.474 -0.043,-0.059 -0.043,-0.06 -0.086,-0.118 -0.171,-0.238 -0.043,-0.059 -0.043,-0.059 -0.086,-0.119 -0.043,-0.059 -0.043,-0.059 -0.043,-0.06 -0.043,-0.059"
                       style="fill:none;stroke:#426ab5;stroke-opacity:1;stroke-width:1.44;stroke-linecap:square;stroke-linejoin:miter;stroke-miterlimit:3.25;stroke-dasharray:none"
                       id="path3163" /><path
                       d="m 313.4,278.112 0.02,-0.053 0.021,-0.053 0.041,-0.106 0.081,-0.212 0.163,-0.424 0.326,-0.848 0.652,-1.696 1.408,-3.677 1.306,-3.433 1.268,-3.367 1.355,-3.651 1.242,-3.408 1.316,-3.693 1.257,-3.625 1.135,-3.382 1.186,-3.668 1.061,-3.423 0.991,-3.357 1.017,-3.641 0.889,-3.398 0.894,-3.683 0.803,-3.616 0.677,-3.372 0.653,-3.658 0.529,-3.414 0.009,-0.057 0.008,-0.058 0.016,-0.116 0.033,-0.231 0.064,-0.462 0.124,-0.925 0.229,-1.85 0.007,-0.056 0.006,-0.057 0.014,-0.114 0.026,-0.227 0.051,-0.454 0.098,-0.908 0.006,-0.056 0.006,-0.057 0.011,-0.114 0.024,-0.227 0.045,-0.453 0.086,-0.908 0.005,-0.053 0.004,-0.053 0.01,-0.106 0.019,-0.212 0.037,-0.423 0.069,-0.847 0.004,-0.053 0.004,-0.053 0.009,-0.106 0.016,-0.212 0.031,-0.423 0.059,-0.848 0.004,-0.057 0.004,-0.057 0.007,-0.115 0.015,-0.23 0.028,-0.459 0.003,-0.057 0.004,-0.058 0.006,-0.114 0.014,-0.23 0.025,-0.459 0.003,-0.058 0.003,-0.057 0.005,-0.115 0.012,-0.229 0.022,-0.46 0.039,-0.918 0.002,-0.053 0.002,-0.054 0.004,-0.107 0.008,-0.215 0.014,-0.428 0.002,-0.054 0.002,-0.053 0.003,-0.108 0.007,-0.214 0.011,-0.429 0.002,-0.053 10e-4,-0.054 0.003,-0.107 0.005,-0.214 10e-4,-0.054 0.001,-0.054 0.003,-0.107 0.004,-0.214 0.001,-0.054 10e-4,-0.053 0.002,-0.108 0.004,-0.214 0,-0.053 10e-4,-0.054 0.002,-0.107 0.003,-0.215 0.001,-0.052 0,-0.053 10e-4,-0.105 0.001,-0.052 10e-4,-0.053 10e-4,-0.105 0,-0.052 0.001,-0.053 10e-4,-0.105 0,-0.053 0,-0.052 0.001,-0.105 0,-0.053 10e-4,-0.052 0,-0.053 0,-0.052 10e-4,-0.053 0,-0.052 0,-0.053 0,-0.052 0,-0.053 0.001,-0.053 0,-0.052 0,-0.053 0,-0.052 0,-0.053 0,-0.052 0,-0.053 0,-0.052 0,-0.053 0,-0.052 0,-0.053 0,-0.052 0,-0.053 0,-0.053 0,-0.052 -0.001,-0.053 0,-0.052 0,-0.053 0,-0.052 0,-0.053 -10e-4,-0.052 0,-0.105 -10e-4,-0.053 0,-0.052 -0.001,-0.105 0,-0.053 -10e-4,-0.053 -0.001,-0.105 0,-0.052 -10e-4,-0.053 -10e-4,-0.105 -0.002,-0.21 -0.001,-0.057 -10e-4,-0.057 -0.001,-0.114 -0.004,-0.228 -0.001,-0.057 0,-0.057 -0.002,-0.114 -0.005,-0.228 -10e-4,-0.057 -10e-4,-0.057 -0.002,-0.114 -0.005,-0.228 -0.011,-0.456 -0.002,-0.057 -10e-4,-0.057 -0.004,-0.114 -0.006,-0.228 -0.014,-0.456 -0.002,-0.057 -0.002,-0.057 -0.004,-0.114 -0.008,-0.228 -0.018,-0.456 -0.002,-0.053 -0.002,-0.053 -0.004,-0.106 -0.009,-0.213 -0.02,-0.426 -0.042,-0.851 -0.003,-0.053 -0.002,-0.053 -0.006,-0.106 -0.012,-0.213 -0.024,-0.426 -0.053,-0.851 -0.004,-0.057 -0.004,-0.058 -0.008,-0.115 -0.015,-0.231 -0.033,-0.461 -0.07,-0.922 -0.004,-0.058 -0.005,-0.057 -0.009,-0.116 -0.019,-0.23 -0.039,-0.462 -0.082,-0.922 -0.005,-0.056 -0.006,-0.057 -0.01,-0.113 -0.022,-0.227 -0.044,-0.452 -0.093,-0.906 -0.203,-1.811 -0.006,-0.053 -0.006,-0.052 -0.013,-0.106 -0.026,-0.211 -0.052,-0.422 -0.107,-0.845 -0.231,-1.689 -0.567,-3.664 -0.61,-3.419 -0.67,-3.353 -0.804,-3.638 -0.819,-3.394 -0.957,-3.679 -0.955,-3.436 -0.99,-3.369 -1.128,-3.653 -1.1,-3.41 -1.238,-3.696 -1.256,-3.628 -1.205,-3.384 -1.335,-3.67 -1.271,-3.426 -1.263,-3.358 -1.385,-3.644 -1.302,-3.4 -0.023,-0.06 -0.023,-0.059 -0.045,-0.119 -0.091,-0.237 -0.183,-0.474 -0.364,-0.949 -0.023,-0.059 -0.023,-0.06 -0.045,-0.118 -0.092,-0.238 -0.182,-0.474 -0.023,-0.059 -0.023,-0.06 -0.045,-0.118 -0.092,-0.238 -0.022,-0.059 -0.023,-0.059 -0.046,-0.119 -0.023,-0.059 -0.022,-0.059 -0.023,-0.06 -0.023,-0.059"
                       style="fill:none;stroke:#426ab5;stroke-opacity:1;stroke-width:1.44;stroke-linecap:square;stroke-linejoin:miter;stroke-miterlimit:3.25;stroke-dasharray:none"
                       id="path3165" /><path
                       d="m 313.4,278.112 0,-1.696 0,-1.696 0,-3.677 0,-3.433 0,-3.367 0,-3.651 0,-3.408 0,-3.693 0,-3.625 0,-3.382 0,-3.668 0,-3.423 0,-3.357 0,-3.641 0,-3.398 0,-3.683 0,-3.616 0,-3.372 0,-3.658 0,-3.414 0,-3.699 0,-3.631 0,-3.389 0,-3.673 0,-3.43 0,-3.362 0,-3.648 0,-3.404 0,-3.689 0,-3.622 0,-3.378 0,-3.664 0,-3.419 0,-3.353 0,-3.638 0,-3.394 0,-3.679 0,-3.436 0,-3.369 0,-3.653 0,-3.41 0,-3.696 0,-3.628 0,-3.384 0,-3.67 0,-3.426 0,-3.358 0,-3.644 0,-3.4 0,-1.898 0,-1.898"
                       style="fill:none;stroke:#426ab5;stroke-opacity:1;stroke-width:1.44;stroke-linecap:square;stroke-linejoin:miter;stroke-miterlimit:3.25;stroke-dasharray:none"
                       id="path3167" /><path
                       d="m 313.4,278.112 -0.02,-0.053 -0.021,-0.053 -0.041,-0.106 -0.081,-0.212 -0.163,-0.424 -0.326,-0.848 -0.652,-1.696 -1.408,-3.677 -1.306,-3.433 -1.268,-3.367 -1.355,-3.651 -1.242,-3.408 -1.316,-3.693 -1.257,-3.625 -1.135,-3.382 -1.186,-3.668 -1.061,-3.423 -0.991,-3.357 -1.017,-3.641 -0.889,-3.398 -0.894,-3.683 -0.803,-3.616 -0.677,-3.372 -0.653,-3.658 -0.529,-3.414 -0.009,-0.057 -0.008,-0.058 -0.016,-0.116 -0.033,-0.231 -0.064,-0.462 -0.124,-0.925 -0.229,-1.85 -0.007,-0.056 -0.006,-0.057 -0.014,-0.114 -0.026,-0.227 -0.051,-0.454 -0.098,-0.908 -0.006,-0.056 -0.006,-0.057 -0.011,-0.114 -0.024,-0.227 -0.045,-0.453 -0.086,-0.908 -0.005,-0.053 -0.004,-0.053 -0.01,-0.106 -0.019,-0.212 -0.037,-0.423 -0.069,-0.847 -0.004,-0.053 -0.004,-0.053 -0.009,-0.106 -0.016,-0.212 -0.031,-0.423 -0.059,-0.848 -0.004,-0.057 -0.004,-0.057 -0.007,-0.115 -0.015,-0.23 -0.028,-0.459 -0.003,-0.057 -0.004,-0.058 -0.006,-0.114 -0.014,-0.23 -0.025,-0.459 -0.003,-0.058 -0.003,-0.057 -0.005,-0.115 -0.012,-0.229 -0.022,-0.46 -0.039,-0.918 -0.002,-0.053 -0.002,-0.054 -0.004,-0.107 -0.008,-0.215 -0.014,-0.428 -0.002,-0.054 -0.002,-0.053 -0.003,-0.108 -0.007,-0.214 -0.011,-0.429 -0.002,-0.053 -0.001,-0.054 -0.003,-0.107 -0.005,-0.214 -10e-4,-0.054 -0.001,-0.054 -0.003,-0.107 -0.004,-0.214 -10e-4,-0.054 -10e-4,-0.053 -0.002,-0.108 -0.004,-0.214 0,-0.053 -10e-4,-0.054 -0.002,-0.107 -0.003,-0.215 -0.001,-0.052 0,-0.053 -10e-4,-0.105 -0.001,-0.052 -10e-4,-0.053 -0.001,-0.105 0,-0.052 -10e-4,-0.053 -10e-4,-0.105 0,-0.053 0,-0.052 -0.001,-0.105 0,-0.053 -10e-4,-0.052 0,-0.053 0,-0.052 -0.001,-0.053 0,-0.052 0,-0.053 0,-0.052 0,-0.053 -10e-4,-0.053 0,-0.052 0,-0.053 0,-0.052 0,-0.053 0,-0.052 0,-0.053 0,-0.052 0,-0.053 0,-0.052 0,-0.053 0,-0.052 0,-0.053 0,-0.053 0,-0.052 10e-4,-0.053 0,-0.052 0,-0.053 0,-0.052 0,-0.053 0.001,-0.052 0,-0.105 10e-4,-0.053 0,-0.052 0.001,-0.105 0,-0.053 10e-4,-0.053 10e-4,-0.105 0,-0.052 0.001,-0.053 10e-4,-0.105 0.002,-0.21 0.001,-0.057 10e-4,-0.057 10e-4,-0.114 0.004,-0.228 10e-4,-0.057 0,-0.057 0.002,-0.114 0.005,-0.228 0.001,-0.057 10e-4,-0.057 0.002,-0.114 0.005,-0.228 0.011,-0.456 0.002,-0.057 10e-4,-0.057 0.004,-0.114 0.006,-0.228 0.014,-0.456 0.002,-0.057 0.002,-0.057 0.004,-0.114 0.008,-0.228 0.018,-0.456 0.002,-0.053 0.002,-0.053 0.004,-0.106 0.009,-0.213 0.02,-0.426 0.042,-0.851 0.003,-0.053 0.002,-0.053 0.006,-0.106 0.012,-0.213 0.024,-0.426 0.053,-0.851 0.004,-0.057 0.004,-0.058 0.008,-0.115 0.015,-0.231 0.033,-0.461 0.07,-0.922 0.004,-0.058 0.005,-0.057 0.009,-0.116 0.019,-0.23 0.039,-0.462 0.082,-0.922 0.005,-0.056 0.006,-0.057 0.01,-0.113 0.022,-0.227 0.044,-0.452 0.093,-0.906 0.203,-1.811 0.006,-0.053 0.006,-0.052 0.013,-0.106 0.026,-0.211 0.052,-0.422 0.107,-0.845 0.231,-1.689 0.567,-3.664 0.61,-3.419 0.67,-3.353 0.804,-3.638 0.819,-3.394 0.957,-3.679 0.955,-3.436 0.99,-3.369 1.128,-3.653 1.1,-3.41 1.238,-3.696 1.256,-3.628 1.205,-3.384 1.335,-3.67 1.271,-3.426 1.263,-3.358 1.385,-3.644 1.302,-3.4 0.023,-0.06 0.023,-0.059 0.045,-0.119 0.091,-0.237 0.183,-0.474 0.364,-0.949 0.023,-0.059 0.023,-0.06 0.045,-0.118 0.092,-0.238 0.182,-0.474 0.023,-0.059 0.023,-0.06 0.045,-0.118 0.092,-0.238 0.022,-0.059 0.023,-0.059 0.046,-0.119 0.023,-0.059 0.022,-0.059 0.023,-0.06 0.023,-0.059"
                       style="fill:none;stroke:#426ab5;stroke-opacity:1;stroke-width:1.44;stroke-linecap:square;stroke-linejoin:miter;stroke-miterlimit:3.25;stroke-dasharray:none"
                       id="path3169" /><path
                       d="m 313.4,278.112 -0.038,-0.053 -0.039,-0.053 -0.077,-0.106 -0.153,-0.212 -0.307,-0.424 -0.614,-0.848 -1.227,-1.696 -2.657,-3.677 -2.471,-3.433 -2.409,-3.367 -2.591,-3.651 -2.393,-3.408 -2.559,-3.693 -2.47,-3.625 -2.26,-3.382 -2.393,-3.668 -2.173,-3.423 -2.062,-3.357 -2.153,-3.641 -1.916,-3.398 -1.965,-3.683 -1.798,-3.616 -1.548,-3.372 -1.52,-3.658 -1.255,-3.414 -0.02,-0.057 -0.02,-0.058 -0.039,-0.116 -0.078,-0.231 -0.154,-0.462 -0.298,-0.925 -0.556,-1.85 -0.016,-0.056 -0.016,-0.057 -0.032,-0.114 -0.064,-0.227 -0.125,-0.454 -0.239,-0.908 -0.015,-0.056 -0.014,-0.057 -0.029,-0.114 -0.057,-0.227 -0.111,-0.453 -0.211,-0.908 -0.012,-0.053 -0.012,-0.053 -0.024,-0.106 -0.046,-0.212 -0.091,-0.423 -0.172,-0.847 -0.01,-0.053 -0.011,-0.053 -0.02,-0.106 -0.04,-0.212 -0.078,-0.423 -0.147,-0.848 -0.009,-0.057 -0.01,-0.057 -0.018,-0.115 -0.037,-0.23 -0.07,-0.459 -0.009,-0.057 -0.008,-0.058 -0.017,-0.114 -0.033,-0.23 -0.062,-0.459 -0.008,-0.058 -0.007,-0.057 -0.015,-0.115 -0.029,-0.229 -0.054,-0.46 -0.098,-0.918 -0.005,-0.053 -0.005,-0.054 -0.01,-0.107 -0.02,-0.215 -0.037,-0.428 -0.004,-0.054 -0.004,-0.053 -0.009,-0.108 -0.016,-0.214 -0.03,-0.429 -0.003,-0.053 -0.004,-0.054 -0.006,-0.107 -0.013,-0.214 -0.003,-0.054 -0.003,-0.054 -0.006,-0.107 -0.011,-0.214 -0.003,-0.054 -0.002,-0.053 -0.005,-0.108 -0.009,-0.214 -0.002,-0.053 -0.003,-0.054 -0.004,-0.107 -0.007,-0.215 -0.002,-0.052 -10e-4,-0.053 -0.004,-0.105 -10e-4,-0.052 -0.001,-0.053 -0.003,-0.105 -10e-4,-0.052 -0.002,-0.053 -0.002,-0.105 -10e-4,-0.053 -0.001,-0.052 -0.002,-0.105 -10e-4,-0.053 -0.001,-0.052 0,-0.053 -10e-4,-0.052 -10e-4,-0.053 0,-0.052 -0.001,-0.053 0,-0.052 -10e-4,-0.053 0,-0.053 0,-0.052 -0.001,-0.053 0,-0.052 0,-0.053 0,-0.052 0,-0.053 0,-0.052 0,-0.053 0,-0.052 0,-0.053 0,-0.052 0,-0.053 0.001,-0.053 0,-0.052 10e-4,-0.053 0,-0.052 0,-0.053 0.001,-0.052 10e-4,-0.053 0,-0.052 0.002,-0.105 10e-4,-0.053 0.001,-0.052 10e-4,-0.105 0.002,-0.053 10e-4,-0.053 0.002,-0.105 0.001,-0.052 0.002,-0.053 0.002,-0.105 0.006,-0.21 0.002,-0.057 0.002,-0.057 0.004,-0.114 0.009,-0.228 0.002,-0.057 0.002,-0.057 0.005,-0.114 0.011,-0.228 0.003,-0.057 0.003,-0.057 0.006,-0.114 0.012,-0.228 0.028,-0.456 0.004,-0.057 0.004,-0.057 0.008,-0.114 0.016,-0.228 0.036,-0.456 0.005,-0.057 0.005,-0.057 0.01,-0.114 0.02,-0.228 0.044,-0.456 0.005,-0.053 0.006,-0.053 0.011,-0.106 0.022,-0.213 0.048,-0.426 0.106,-0.851 0.007,-0.053 0.007,-0.053 0.014,-0.106 0.029,-0.213 0.062,-0.426 0.132,-0.851 0.009,-0.057 0.01,-0.058 0.019,-0.115 0.039,-0.231 0.081,-0.461 0.173,-0.922 0.011,-0.058 0.012,-0.057 0.023,-0.116 0.046,-0.23 0.096,-0.462 0.204,-0.922 0.012,-0.056 0.013,-0.057 0.027,-0.113 0.053,-0.227 0.108,-0.452 0.228,-0.906 0.495,-1.811 0.016,-0.053 0.015,-0.052 0.031,-0.106 0.062,-0.211 0.126,-0.422 0.26,-0.845 0.554,-1.689 1.345,-3.664 1.421,-3.419 1.532,-3.353 1.804,-3.638 1.801,-3.394 2.066,-3.679 2.025,-3.436 2.062,-3.369 2.314,-3.653 2.222,-3.41 2.465,-3.696 2.472,-3.628 2.343,-3.384 2.574,-3.67 2.43,-3.426 2.402,-3.358 2.621,-3.644 2.456,-3.4 0.043,-0.06 0.043,-0.059 0.086,-0.119 0.172,-0.237 0.343,-0.474 0.687,-0.949 0.043,-0.059 0.043,-0.06 0.086,-0.118 0.171,-0.238 0.344,-0.474 0.043,-0.059 0.043,-0.06 0.086,-0.118 0.171,-0.238 0.043,-0.059 0.043,-0.059 0.086,-0.119 0.043,-0.059 0.043,-0.059 0.043,-0.06 0.043,-0.059"
                       style="fill:none;stroke:#426ab5;stroke-opacity:1;stroke-width:1.44;stroke-linecap:square;stroke-linejoin:miter;stroke-miterlimit:3.25;stroke-dasharray:none"
                       id="path3171" /><path
                       d="m 313.4,278.112 -0.048,-0.053 -0.048,-0.053 -0.096,-0.106 -0.192,-0.212 -0.384,-0.424 -0.768,-0.848 -1.536,-1.696 -3.328,-3.677 -3.103,-3.433 -3.036,-3.367 -3.282,-3.651 -3.051,-3.408 -3.289,-3.693 -3.207,-3.625 -2.967,-3.382 -3.186,-3.668 -2.939,-3.423 -2.839,-3.357 -3.025,-3.641 -2.759,-3.398 -2.906,-3.683 -2.746,-3.616 -2.444,-3.372 -2.491,-3.658 -2.141,-3.414 -2.069,-3.699 -0.03,-0.056 -0.029,-0.057 -0.059,-0.114 -0.116,-0.227 -0.228,-0.454 -0.442,-0.908 -0.026,-0.056 -0.027,-0.057 -0.054,-0.114 -0.105,-0.227 -0.208,-0.453 -0.398,-0.908 -0.023,-0.053 -0.022,-0.053 -0.045,-0.106 -0.088,-0.212 -0.173,-0.423 -0.33,-0.847 -0.02,-0.053 -0.019,-0.053 -0.04,-0.106 -0.077,-0.212 -0.152,-0.423 -0.285,-0.848 -0.018,-0.057 -0.019,-0.057 -0.036,-0.115 -0.072,-0.23 -0.138,-0.459 -0.017,-0.057 -0.016,-0.058 -0.033,-0.114 -0.065,-0.23 -0.124,-0.459 -0.015,-0.058 -0.014,-0.057 -0.03,-0.115 -0.057,-0.229 -0.109,-0.46 -0.195,-0.918 -0.011,-0.053 -0.01,-0.054 -0.021,-0.107 -0.039,-0.215 -0.074,-0.428 -0.009,-0.054 -0.008,-0.053 -0.017,-0.108 -0.033,-0.214 -0.06,-0.429 -0.007,-0.053 -0.007,-0.054 -0.014,-0.107 -0.026,-0.214 -0.006,-0.054 -0.006,-0.054 -0.012,-0.107 -0.022,-0.214 -0.005,-0.054 -0.005,-0.053 -0.01,-0.108 -0.019,-0.214 -0.004,-0.053 -0.005,-0.054 -0.008,-0.107 -0.015,-0.215 -0.004,-0.052 -0.003,-0.053 -0.006,-0.105 -0.003,-0.052 -0.003,-0.053 -0.006,-0.105 -0.002,-0.052 -0.003,-0.053 -0.005,-0.105 -0.002,-0.053 -0.002,-0.052 -0.004,-0.105 -0.001,-0.053 -0.002,-0.052 -0.002,-0.053 -0.001,-0.052 -0.001,-0.053 -10e-4,-0.052 -0.002,-0.053 -0.001,-0.052 0,-0.053 -0.001,-0.053 -0.001,-0.052 0,-0.053 -10e-4,-0.052 0,-0.053 -0.001,-0.052 0,-0.053 0,-0.052 0,-0.053 0.001,-0.052 0,-0.053 0,-0.052 10e-4,-0.053 0,-0.053 0.001,-0.052 0.001,-0.053 0.001,-0.052 0.001,-0.053 0.001,-0.052 10e-4,-0.053 0.002,-0.052 0.003,-0.105 10e-4,-0.053 0.002,-0.052 0.004,-0.105 0.002,-0.053 0.003,-0.053 0.004,-0.105 0.003,-0.052 0.003,-0.053 0.005,-0.105 0.013,-0.21 0.003,-0.057 0.004,-0.057 0.008,-0.114 0.018,-0.228 0.004,-0.057 0.005,-0.057 0.01,-0.114 0.022,-0.228 0.005,-0.057 0.006,-0.057 0.012,-0.114 0.026,-0.228 0.057,-0.456 0.007,-0.057 0.008,-0.057 0.016,-0.114 0.033,-0.228 0.073,-0.456 0.01,-0.057 0.009,-0.057 0.02,-0.114 0.041,-0.228 0.088,-0.456 0.011,-0.053 0.011,-0.053 0.022,-0.106 0.045,-0.213 0.096,-0.426 0.21,-0.851 0.014,-0.053 0.014,-0.053 0.028,-0.106 0.058,-0.213 0.121,-0.426 0.259,-0.851 0.019,-0.057 0.018,-0.058 0.038,-0.115 0.076,-0.231 0.157,-0.461 0.335,-0.922 0.746,-1.845 0.025,-0.056 0.024,-0.057 0.049,-0.113 0.1,-0.227 0.204,-0.452 0.423,-0.906 0.908,-1.811 1.89,-3.378 2.295,-3.664 2.328,-3.419 2.424,-3.353 2.758,-3.638 2.67,-3.394 2.982,-3.679 2.85,-3.436 2.845,-3.369 3.132,-3.653 2.961,-3.41 3.24,-3.696 3.209,-3.628 3.013,-3.384 3.284,-3.67 3.079,-3.426 3.028,-3.358 3.293,-3.644 3.077,-3.4 0.054,-0.06 0.053,-0.059 0.108,-0.119 0.215,-0.237 0.429,-0.474 0.86,-0.949 0.054,-0.059 0.053,-0.06 0.108,-0.118 0.215,-0.238 0.429,-0.474 0.054,-0.059 0.054,-0.06 0.107,-0.118 0.215,-0.238 0.054,-0.059 0.054,-0.059 0.107,-0.119 0.054,-0.059 0.054,-0.059 0.053,-0.06 0.054,-0.059"
                       style="fill:none;stroke:#426ab5;stroke-opacity:1;stroke-width:1.44;stroke-linecap:square;stroke-linejoin:miter;stroke-miterlimit:3.25;stroke-dasharray:none"
                       id="path3173" /></g></g></g><g
                 clip-path="url(#clipPath3135)"
                 id="g3175"
                 transform="matrix(-1,0,0,1,453.12732,0)"><g
                   id="g3177"><g
                     clip-path="url(#clipPath3143)"
                     id="g3179"><path
                       id="path3181"
                       style="fill:none;stroke:#000000;stroke-width:2;stroke-linecap:square;stroke-linejoin:miter;stroke-miterlimit:3.25;stroke-opacity:1;stroke-dasharray:none"
                       d="m 227,364.512 172.8,-172.8"
                       inkscape:connector-curvature="0" /><path
                       id="path3183"
                       style="fill:none;stroke:#000000;stroke-width:2;stroke-linecap:square;stroke-linejoin:miter;stroke-miterlimit:3.25;stroke-opacity:1;stroke-dasharray:none"
                       d="M 54.2,191.712 227,18.912"
                       inkscape:connector-curvature="0" /><path
                       id="path3185"
                       style="fill:none;stroke:#000000;stroke-width:2;stroke-linecap:square;stroke-linejoin:miter;stroke-miterlimit:3.25;stroke-opacity:1;stroke-dasharray:none"
                       d="M 399.8,191.712 227,18.912"
                       inkscape:connector-curvature="0" /><path
                       id="path3187"
                       style="fill:none;stroke:#000000;stroke-width:2;stroke-linecap:square;stroke-linejoin:miter;stroke-miterlimit:3.25;stroke-opacity:1;stroke-dasharray:none"
                       d="M 227,364.512 54.2,191.712"
                       inkscape:connector-curvature="0" /><path
                       id="path3189"
                       style="fill:none;stroke:#000000;stroke-width:2;stroke-linecap:square;stroke-linejoin:miter;stroke-miterlimit:3.25;stroke-opacity:1;stroke-dasharray:none"
                       d="m 227,191.712 86.4,-86.4"
                       inkscape:connector-curvature="0" /><path
                       id="path3191"
                       style="fill:none;stroke:#000000;stroke-width:2;stroke-linecap:square;stroke-linejoin:miter;stroke-miterlimit:3.25;stroke-opacity:1;stroke-dasharray:none"
                       d="m 227,191.712 86.4,86.4"
                       inkscape:connector-curvature="0" /><path
                       id="path3193"
                       style="fill:none;stroke:#000000;stroke-width:2;stroke-linecap:square;stroke-linejoin:miter;stroke-miterlimit:3.25;stroke-opacity:1;stroke-dasharray:1, 4;stroke-dashoffset:0"
                       d="m 227,364.512 0,-345.6"
                       inkscape:connector-curvature="0" /><path
                       id="path3195"
                       style="fill:none;stroke:#426ab5;stroke-width:1.44000006;stroke-linecap:square;stroke-linejoin:miter;stroke-miterlimit:3.25;stroke-opacity:1;stroke-dasharray:none"
                       d="m 313.4,278.112 0.048,-0.053 0.048,-0.053 0.096,-0.106 0.192,-0.212 0.384,-0.424 0.768,-0.848 1.536,-1.696 3.328,-3.677 3.103,-3.433 3.036,-3.367 3.282,-3.651 3.051,-3.408 3.289,-3.693 3.207,-3.625 2.967,-3.382 3.186,-3.668 2.939,-3.423 2.839,-3.357 3.025,-3.641 2.759,-3.398 2.906,-3.683 2.746,-3.616 2.444,-3.372 2.491,-3.658 2.141,-3.414 2.069,-3.699 0.03,-0.056 0.029,-0.057 0.059,-0.114 0.116,-0.227 0.228,-0.454 0.442,-0.908 0.026,-0.056 0.027,-0.057 0.054,-0.114 0.105,-0.227 0.208,-0.453 0.398,-0.908 0.023,-0.053 0.022,-0.053 0.045,-0.106 0.088,-0.212 0.173,-0.423 0.33,-0.847 0.02,-0.053 0.019,-0.053 0.04,-0.106 0.077,-0.212 0.152,-0.423 0.285,-0.848 0.018,-0.057 0.019,-0.057 0.036,-0.115 0.072,-0.23 0.138,-0.459 0.017,-0.057 0.016,-0.058 0.033,-0.114 0.065,-0.23 0.124,-0.459 0.015,-0.058 0.014,-0.057 0.03,-0.115 0.057,-0.229 0.109,-0.46 0.195,-0.918 0.011,-0.053 0.01,-0.054 0.021,-0.107 0.039,-0.215 0.074,-0.428 0.009,-0.054 0.008,-0.053 0.017,-0.108 0.033,-0.214 0.06,-0.429 0.007,-0.053 0.007,-0.054 0.014,-0.107 0.026,-0.214 0.006,-0.054 0.006,-0.054 0.012,-0.107 0.022,-0.214 0.005,-0.054 0.005,-0.053 0.01,-0.108 0.019,-0.214 0.004,-0.053 0.005,-0.054 0.008,-0.107 0.015,-0.215 0.004,-0.052 0.003,-0.053 0.006,-0.105 0.003,-0.052 0.003,-0.053 0.006,-0.105 0.002,-0.052 0.003,-0.053 0.005,-0.105 0.002,-0.053 0.002,-0.052 0.004,-0.105 10e-4,-0.053 0.002,-0.052 0.002,-0.053 10e-4,-0.052 0.001,-0.053 10e-4,-0.052 0.002,-0.053 10e-4,-0.052 0,-0.053 0.001,-0.053 10e-4,-0.052 0,-0.053 0.001,-0.052 0,-0.053 10e-4,-0.052 0,-0.053 0,-0.052 0,-0.053 -10e-4,-0.052 0,-0.053 0,-0.052 -0.001,-0.053 0,-0.053 -10e-4,-0.052 -0.001,-0.053 -10e-4,-0.052 -0.001,-0.053 -10e-4,-0.052 -10e-4,-0.053 -0.002,-0.052 -0.003,-0.105 -0.001,-0.053 -0.002,-0.052 -0.004,-0.105 -0.002,-0.053 -0.003,-0.053 -0.004,-0.105 -0.003,-0.052 -0.003,-0.053 -0.005,-0.105 -0.013,-0.21 -0.003,-0.057 -0.004,-0.057 -0.008,-0.114 -0.018,-0.228 -0.004,-0.057 -0.005,-0.057 -0.01,-0.114 -0.022,-0.228 -0.005,-0.057 -0.006,-0.057 -0.012,-0.114 -0.026,-0.228 -0.057,-0.456 -0.007,-0.057 -0.008,-0.057 -0.016,-0.114 -0.033,-0.228 -0.073,-0.456 -0.01,-0.057 -0.009,-0.057 -0.02,-0.114 -0.041,-0.228 -0.088,-0.456 -0.011,-0.053 -0.011,-0.053 -0.022,-0.106 -0.045,-0.213 -0.096,-0.426 -0.21,-0.851 -0.014,-0.053 -0.014,-0.053 -0.028,-0.106 -0.058,-0.213 -0.121,-0.426 -0.259,-0.851 -0.019,-0.057 -0.018,-0.058 -0.038,-0.115 -0.076,-0.231 -0.157,-0.461 -0.335,-0.922 -0.746,-1.845 -0.025,-0.056 -0.024,-0.057 -0.049,-0.113 -0.1,-0.227 -0.204,-0.452 -0.423,-0.906 -0.908,-1.811 -1.89,-3.378 -2.295,-3.664 -2.328,-3.419 -2.424,-3.353 -2.758,-3.638 -2.67,-3.394 -2.982,-3.679 -2.85,-3.436 -2.845,-3.369 -3.132,-3.653 -2.961,-3.41 -3.24,-3.696 -3.209,-3.628 -3.013,-3.384 -3.284,-3.67 -3.079,-3.426 -3.028,-3.358 -3.293,-3.644 -3.077,-3.4 -0.054,-0.06 -0.053,-0.059 -0.108,-0.119 -0.215,-0.237 -0.429,-0.474 -0.86,-0.949 -0.054,-0.059 -0.053,-0.06 -0.108,-0.118 -0.215,-0.238 -0.429,-0.474 -0.054,-0.059 -0.054,-0.06 -0.107,-0.118 -0.215,-0.238 -0.054,-0.059 -0.054,-0.059 -0.107,-0.119 -0.054,-0.059 -0.054,-0.059 -0.053,-0.06 -0.054,-0.059"
                       inkscape:connector-curvature="0" /><path
                       id="path3197"
                       style="fill:none;stroke:#426ab5;stroke-width:1.44000006;stroke-linecap:square;stroke-linejoin:miter;stroke-miterlimit:3.25;stroke-opacity:1;stroke-dasharray:none"
                       d="m 313.4,278.112 0.038,-0.053 0.039,-0.053 0.077,-0.106 0.153,-0.212 0.307,-0.424 0.614,-0.848 1.227,-1.696 2.657,-3.677 2.471,-3.433 2.409,-3.367 2.591,-3.651 2.393,-3.408 2.559,-3.693 2.47,-3.625 2.26,-3.382 2.393,-3.668 2.173,-3.423 2.062,-3.357 2.153,-3.641 1.916,-3.398 1.965,-3.683 1.798,-3.616 1.548,-3.372 1.52,-3.658 1.255,-3.414 0.02,-0.057 0.02,-0.058 0.039,-0.116 0.078,-0.231 0.154,-0.462 0.298,-0.925 0.556,-1.85 0.016,-0.056 0.016,-0.057 0.032,-0.114 0.064,-0.227 0.125,-0.454 0.239,-0.908 0.015,-0.056 0.014,-0.057 0.029,-0.114 0.057,-0.227 0.111,-0.453 0.211,-0.908 0.012,-0.053 0.012,-0.053 0.024,-0.106 0.046,-0.212 0.091,-0.423 0.172,-0.847 0.01,-0.053 0.011,-0.053 0.02,-0.106 0.04,-0.212 0.078,-0.423 0.147,-0.848 0.009,-0.057 0.01,-0.057 0.018,-0.115 0.037,-0.23 0.07,-0.459 0.009,-0.057 0.008,-0.058 0.017,-0.114 0.033,-0.23 0.062,-0.459 0.008,-0.058 0.007,-0.057 0.015,-0.115 0.029,-0.229 0.054,-0.46 0.098,-0.918 0.005,-0.053 0.005,-0.054 0.01,-0.107 0.02,-0.215 0.037,-0.428 0.004,-0.054 0.004,-0.053 0.009,-0.108 0.016,-0.214 0.03,-0.429 0.003,-0.053 0.004,-0.054 0.006,-0.107 0.013,-0.214 0.003,-0.054 0.003,-0.054 0.006,-0.107 0.011,-0.214 0.003,-0.054 0.002,-0.053 0.005,-0.108 0.009,-0.214 0.002,-0.053 0.003,-0.054 0.004,-0.107 0.007,-0.215 0.002,-0.052 10e-4,-0.053 0.004,-0.105 10e-4,-0.052 0.001,-0.053 0.003,-0.105 10e-4,-0.052 0.002,-0.053 0.002,-0.105 10e-4,-0.053 0.001,-0.052 0.002,-0.105 10e-4,-0.053 10e-4,-0.052 0,-0.053 0.001,-0.052 10e-4,-0.053 0,-0.052 0.001,-0.053 0,-0.052 10e-4,-0.053 0,-0.053 0,-0.052 10e-4,-0.053 0,-0.052 0,-0.053 0,-0.052 0,-0.053 0,-0.052 0,-0.053 0,-0.052 0,-0.053 0,-0.052 0,-0.053 -10e-4,-0.053 0,-0.052 -10e-4,-0.053 0,-0.052 0,-0.053 -0.001,-0.052 -10e-4,-0.053 0,-0.052 -0.002,-0.105 -10e-4,-0.053 -0.001,-0.052 -10e-4,-0.105 -0.002,-0.053 -0.001,-0.053 -0.002,-0.105 -0.001,-0.052 -0.002,-0.053 -0.002,-0.105 -0.006,-0.21 -0.002,-0.057 -0.002,-0.057 -0.004,-0.114 -0.009,-0.228 -0.002,-0.057 -0.002,-0.057 -0.005,-0.114 -0.011,-0.228 -0.003,-0.057 -0.003,-0.057 -0.006,-0.114 -0.012,-0.228 -0.028,-0.456 -0.004,-0.057 -0.004,-0.057 -0.008,-0.114 -0.016,-0.228 -0.036,-0.456 -0.005,-0.057 -0.005,-0.057 -0.01,-0.114 -0.02,-0.228 -0.044,-0.456 -0.005,-0.053 -0.006,-0.053 -0.011,-0.106 -0.022,-0.213 -0.048,-0.426 -0.106,-0.851 -0.007,-0.053 -0.007,-0.053 -0.014,-0.106 -0.029,-0.213 -0.062,-0.426 -0.132,-0.851 -0.009,-0.057 -0.01,-0.058 -0.019,-0.115 -0.039,-0.231 -0.081,-0.461 -0.173,-0.922 -0.011,-0.058 -0.012,-0.057 -0.023,-0.116 -0.046,-0.23 -0.096,-0.462 -0.204,-0.922 -0.012,-0.056 -0.013,-0.057 -0.027,-0.113 -0.053,-0.227 -0.108,-0.452 -0.228,-0.906 -0.495,-1.811 -0.016,-0.053 -0.015,-0.052 -0.031,-0.106 -0.062,-0.211 -0.126,-0.422 -0.26,-0.845 -0.554,-1.689 -1.345,-3.664 -1.421,-3.419 -1.532,-3.353 -1.804,-3.638 -1.801,-3.394 -2.066,-3.679 -2.025,-3.436 -2.062,-3.369 -2.314,-3.653 -2.222,-3.41 -2.465,-3.696 -2.472,-3.628 -2.343,-3.384 -2.574,-3.67 -2.43,-3.426 -2.402,-3.358 -2.621,-3.644 -2.456,-3.4 -0.043,-0.06 -0.043,-0.059 -0.086,-0.119 -0.172,-0.237 -0.343,-0.474 -0.687,-0.949 -0.043,-0.059 -0.043,-0.06 -0.086,-0.118 -0.171,-0.238 -0.344,-0.474 -0.043,-0.059 -0.043,-0.06 -0.086,-0.118 -0.171,-0.238 -0.043,-0.059 -0.043,-0.059 -0.086,-0.119 -0.043,-0.059 -0.043,-0.059 -0.043,-0.06 -0.043,-0.059"
                       inkscape:connector-curvature="0" /><path
                       id="path3199"
                       style="fill:none;stroke:#426ab5;stroke-width:1.44000006;stroke-linecap:square;stroke-linejoin:miter;stroke-miterlimit:3.25;stroke-opacity:1;stroke-dasharray:none"
                       d="m 313.4,278.112 0.02,-0.053 0.021,-0.053 0.041,-0.106 0.081,-0.212 0.163,-0.424 0.326,-0.848 0.652,-1.696 1.408,-3.677 1.306,-3.433 1.268,-3.367 1.355,-3.651 1.242,-3.408 1.316,-3.693 1.257,-3.625 1.135,-3.382 1.186,-3.668 1.061,-3.423 0.991,-3.357 1.017,-3.641 0.889,-3.398 0.894,-3.683 0.803,-3.616 0.677,-3.372 0.653,-3.658 0.529,-3.414 0.009,-0.057 0.008,-0.058 0.016,-0.116 0.033,-0.231 0.064,-0.462 0.124,-0.925 0.229,-1.85 0.007,-0.056 0.006,-0.057 0.014,-0.114 0.026,-0.227 0.051,-0.454 0.098,-0.908 0.006,-0.056 0.006,-0.057 0.011,-0.114 0.024,-0.227 0.045,-0.453 0.086,-0.908 0.005,-0.053 0.004,-0.053 0.01,-0.106 0.019,-0.212 0.037,-0.423 0.069,-0.847 0.004,-0.053 0.004,-0.053 0.009,-0.106 0.016,-0.212 0.031,-0.423 0.059,-0.848 0.004,-0.057 0.004,-0.057 0.007,-0.115 0.015,-0.23 0.028,-0.459 0.003,-0.057 0.004,-0.058 0.006,-0.114 0.014,-0.23 0.025,-0.459 0.003,-0.058 0.003,-0.057 0.005,-0.115 0.012,-0.229 0.022,-0.46 0.039,-0.918 0.002,-0.053 0.002,-0.054 0.004,-0.107 0.008,-0.215 0.014,-0.428 0.002,-0.054 0.002,-0.053 0.003,-0.108 0.007,-0.214 0.011,-0.429 0.002,-0.053 10e-4,-0.054 0.003,-0.107 0.005,-0.214 10e-4,-0.054 0.001,-0.054 0.003,-0.107 0.004,-0.214 0.001,-0.054 10e-4,-0.053 0.002,-0.108 0.004,-0.214 0,-0.053 10e-4,-0.054 0.002,-0.107 0.003,-0.215 0.001,-0.052 0,-0.053 10e-4,-0.105 0.001,-0.052 10e-4,-0.053 10e-4,-0.105 0,-0.052 0.001,-0.053 10e-4,-0.105 0,-0.053 0,-0.052 0.001,-0.105 0,-0.053 10e-4,-0.052 0,-0.053 0,-0.052 10e-4,-0.053 0,-0.052 0,-0.053 0,-0.052 0,-0.053 0.001,-0.053 0,-0.052 0,-0.053 0,-0.052 0,-0.053 0,-0.052 0,-0.053 0,-0.052 0,-0.053 0,-0.052 0,-0.053 0,-0.052 0,-0.053 0,-0.053 0,-0.052 -0.001,-0.053 0,-0.052 0,-0.053 0,-0.052 0,-0.053 -10e-4,-0.052 0,-0.105 -10e-4,-0.053 0,-0.052 -0.001,-0.105 0,-0.053 -10e-4,-0.053 -0.001,-0.105 0,-0.052 -10e-4,-0.053 -10e-4,-0.105 -0.002,-0.21 -0.001,-0.057 -10e-4,-0.057 -0.001,-0.114 -0.004,-0.228 -0.001,-0.057 0,-0.057 -0.002,-0.114 -0.005,-0.228 -10e-4,-0.057 -10e-4,-0.057 -0.002,-0.114 -0.005,-0.228 -0.011,-0.456 -0.002,-0.057 -10e-4,-0.057 -0.004,-0.114 -0.006,-0.228 -0.014,-0.456 -0.002,-0.057 -0.002,-0.057 -0.004,-0.114 -0.008,-0.228 -0.018,-0.456 -0.002,-0.053 -0.002,-0.053 -0.004,-0.106 -0.009,-0.213 -0.02,-0.426 -0.042,-0.851 -0.003,-0.053 -0.002,-0.053 -0.006,-0.106 -0.012,-0.213 -0.024,-0.426 -0.053,-0.851 -0.004,-0.057 -0.004,-0.058 -0.008,-0.115 -0.015,-0.231 -0.033,-0.461 -0.07,-0.922 -0.004,-0.058 -0.005,-0.057 -0.009,-0.116 -0.019,-0.23 -0.039,-0.462 -0.082,-0.922 -0.005,-0.056 -0.006,-0.057 -0.01,-0.113 -0.022,-0.227 -0.044,-0.452 -0.093,-0.906 -0.203,-1.811 -0.006,-0.053 -0.006,-0.052 -0.013,-0.106 -0.026,-0.211 -0.052,-0.422 -0.107,-0.845 -0.231,-1.689 -0.567,-3.664 -0.61,-3.419 -0.67,-3.353 -0.804,-3.638 -0.819,-3.394 -0.957,-3.679 -0.955,-3.436 -0.99,-3.369 -1.128,-3.653 -1.1,-3.41 -1.238,-3.696 -1.256,-3.628 -1.205,-3.384 -1.335,-3.67 -1.271,-3.426 -1.263,-3.358 -1.385,-3.644 -1.302,-3.4 -0.023,-0.06 -0.023,-0.059 -0.045,-0.119 -0.091,-0.237 -0.183,-0.474 -0.364,-0.949 -0.023,-0.059 -0.023,-0.06 -0.045,-0.118 -0.092,-0.238 -0.182,-0.474 -0.023,-0.059 -0.023,-0.06 -0.045,-0.118 -0.092,-0.238 -0.022,-0.059 -0.023,-0.059 -0.046,-0.119 -0.023,-0.059 -0.022,-0.059 -0.023,-0.06 -0.023,-0.059"
                       inkscape:connector-curvature="0" /><path
                       id="path3201"
                       style="fill:none;stroke:#426ab5;stroke-width:1.44000006;stroke-linecap:square;stroke-linejoin:miter;stroke-miterlimit:3.25;stroke-opacity:1;stroke-dasharray:none"
                       d="m 313.4,278.112 0,-1.696 0,-1.696 0,-3.677 0,-3.433 0,-3.367 0,-3.651 0,-3.408 0,-3.693 0,-3.625 0,-3.382 0,-3.668 0,-3.423 0,-3.357 0,-3.641 0,-3.398 0,-3.683 0,-3.616 0,-3.372 0,-3.658 0,-3.414 0,-3.699 0,-3.631 0,-3.389 0,-3.673 0,-3.43 0,-3.362 0,-3.648 0,-3.404 0,-3.689 0,-3.622 0,-3.378 0,-3.664 0,-3.419 0,-3.353 0,-3.638 0,-3.394 0,-3.679 0,-3.436 0,-3.369 0,-3.653 0,-3.41 0,-3.696 0,-3.628 0,-3.384 0,-3.67 0,-3.426 0,-3.358 0,-3.644 0,-3.4 0,-1.898 0,-1.898"
                       inkscape:connector-curvature="0" /><path
                       id="path3203"
                       style="fill:none;stroke:#426ab5;stroke-width:1.44000006;stroke-linecap:square;stroke-linejoin:miter;stroke-miterlimit:3.25;stroke-opacity:1;stroke-dasharray:none"
                       d="m 313.4,278.112 -0.02,-0.053 -0.021,-0.053 -0.041,-0.106 -0.081,-0.212 -0.163,-0.424 -0.326,-0.848 -0.652,-1.696 -1.408,-3.677 -1.306,-3.433 -1.268,-3.367 -1.355,-3.651 -1.242,-3.408 -1.316,-3.693 -1.257,-3.625 -1.135,-3.382 -1.186,-3.668 -1.061,-3.423 -0.991,-3.357 -1.017,-3.641 -0.889,-3.398 -0.894,-3.683 -0.803,-3.616 -0.677,-3.372 -0.653,-3.658 -0.529,-3.414 -0.009,-0.057 -0.008,-0.058 -0.016,-0.116 -0.033,-0.231 -0.064,-0.462 -0.124,-0.925 -0.229,-1.85 -0.007,-0.056 -0.006,-0.057 -0.014,-0.114 -0.026,-0.227 -0.051,-0.454 -0.098,-0.908 -0.006,-0.056 -0.006,-0.057 -0.011,-0.114 -0.024,-0.227 -0.045,-0.453 -0.086,-0.908 -0.005,-0.053 -0.004,-0.053 -0.01,-0.106 -0.019,-0.212 -0.037,-0.423 -0.069,-0.847 -0.004,-0.053 -0.004,-0.053 -0.009,-0.106 -0.016,-0.212 -0.031,-0.423 -0.059,-0.848 -0.004,-0.057 -0.004,-0.057 -0.007,-0.115 -0.015,-0.23 -0.028,-0.459 -0.003,-0.057 -0.004,-0.058 -0.006,-0.114 -0.014,-0.23 -0.025,-0.459 -0.003,-0.058 -0.003,-0.057 -0.005,-0.115 -0.012,-0.229 -0.022,-0.46 -0.039,-0.918 -0.002,-0.053 -0.002,-0.054 -0.004,-0.107 -0.008,-0.215 -0.014,-0.428 -0.002,-0.054 -0.002,-0.053 -0.003,-0.108 -0.007,-0.214 -0.011,-0.429 -0.002,-0.053 -0.001,-0.054 -0.003,-0.107 -0.005,-0.214 -10e-4,-0.054 -0.001,-0.054 -0.003,-0.107 -0.004,-0.214 -10e-4,-0.054 -10e-4,-0.053 -0.002,-0.108 -0.004,-0.214 0,-0.053 -10e-4,-0.054 -0.002,-0.107 -0.003,-0.215 -0.001,-0.052 0,-0.053 -10e-4,-0.105 -0.001,-0.052 -10e-4,-0.053 -0.001,-0.105 0,-0.052 -10e-4,-0.053 -10e-4,-0.105 0,-0.053 0,-0.052 -0.001,-0.105 0,-0.053 -10e-4,-0.052 0,-0.053 0,-0.052 -0.001,-0.053 0,-0.052 0,-0.053 0,-0.052 0,-0.053 -10e-4,-0.053 0,-0.052 0,-0.053 0,-0.052 0,-0.053 0,-0.052 0,-0.053 0,-0.052 0,-0.053 0,-0.052 0,-0.053 0,-0.052 0,-0.053 0,-0.053 0,-0.052 10e-4,-0.053 0,-0.052 0,-0.053 0,-0.052 0,-0.053 0.001,-0.052 0,-0.105 10e-4,-0.053 0,-0.052 0.001,-0.105 0,-0.053 10e-4,-0.053 10e-4,-0.105 0,-0.052 0.001,-0.053 10e-4,-0.105 0.002,-0.21 0.001,-0.057 10e-4,-0.057 10e-4,-0.114 0.004,-0.228 10e-4,-0.057 0,-0.057 0.002,-0.114 0.005,-0.228 0.001,-0.057 10e-4,-0.057 0.002,-0.114 0.005,-0.228 0.011,-0.456 0.002,-0.057 10e-4,-0.057 0.004,-0.114 0.006,-0.228 0.014,-0.456 0.002,-0.057 0.002,-0.057 0.004,-0.114 0.008,-0.228 0.018,-0.456 0.002,-0.053 0.002,-0.053 0.004,-0.106 0.009,-0.213 0.02,-0.426 0.042,-0.851 0.003,-0.053 0.002,-0.053 0.006,-0.106 0.012,-0.213 0.024,-0.426 0.053,-0.851 0.004,-0.057 0.004,-0.058 0.008,-0.115 0.015,-0.231 0.033,-0.461 0.07,-0.922 0.004,-0.058 0.005,-0.057 0.009,-0.116 0.019,-0.23 0.039,-0.462 0.082,-0.922 0.005,-0.056 0.006,-0.057 0.01,-0.113 0.022,-0.227 0.044,-0.452 0.093,-0.906 0.203,-1.811 0.006,-0.053 0.006,-0.052 0.013,-0.106 0.026,-0.211 0.052,-0.422 0.107,-0.845 0.231,-1.689 0.567,-3.664 0.61,-3.419 0.67,-3.353 0.804,-3.638 0.819,-3.394 0.957,-3.679 0.955,-3.436 0.99,-3.369 1.128,-3.653 1.1,-3.41 1.238,-3.696 1.256,-3.628 1.205,-3.384 1.335,-3.67 1.271,-3.426 1.263,-3.358 1.385,-3.644 1.302,-3.4 0.023,-0.06 0.023,-0.059 0.045,-0.119 0.091,-0.237 0.183,-0.474 0.364,-0.949 0.023,-0.059 0.023,-0.06 0.045,-0.118 0.092,-0.238 0.182,-0.474 0.023,-0.059 0.023,-0.06 0.045,-0.118 0.092,-0.238 0.022,-0.059 0.023,-0.059 0.046,-0.119 0.023,-0.059 0.022,-0.059 0.023,-0.06 0.023,-0.059"
                       inkscape:connector-curvature="0" /><path
                       id="path3205"
                       style="fill:none;stroke:#426ab5;stroke-width:1.44000006;stroke-linecap:square;stroke-linejoin:miter;stroke-miterlimit:3.25;stroke-opacity:1;stroke-dasharray:none"
                       d="m 313.4,278.112 -0.038,-0.053 -0.039,-0.053 -0.077,-0.106 -0.153,-0.212 -0.307,-0.424 -0.614,-0.848 -1.227,-1.696 -2.657,-3.677 -2.471,-3.433 -2.409,-3.367 -2.591,-3.651 -2.393,-3.408 -2.559,-3.693 -2.47,-3.625 -2.26,-3.382 -2.393,-3.668 -2.173,-3.423 -2.062,-3.357 -2.153,-3.641 -1.916,-3.398 -1.965,-3.683 -1.798,-3.616 -1.548,-3.372 -1.52,-3.658 -1.255,-3.414 -0.02,-0.057 -0.02,-0.058 -0.039,-0.116 -0.078,-0.231 -0.154,-0.462 -0.298,-0.925 -0.556,-1.85 -0.016,-0.056 -0.016,-0.057 -0.032,-0.114 -0.064,-0.227 -0.125,-0.454 -0.239,-0.908 -0.015,-0.056 -0.014,-0.057 -0.029,-0.114 -0.057,-0.227 -0.111,-0.453 -0.211,-0.908 -0.012,-0.053 -0.012,-0.053 -0.024,-0.106 -0.046,-0.212 -0.091,-0.423 -0.172,-0.847 -0.01,-0.053 -0.011,-0.053 -0.02,-0.106 -0.04,-0.212 -0.078,-0.423 -0.147,-0.848 -0.009,-0.057 -0.01,-0.057 -0.018,-0.115 -0.037,-0.23 -0.07,-0.459 -0.009,-0.057 -0.008,-0.058 -0.017,-0.114 -0.033,-0.23 -0.062,-0.459 -0.008,-0.058 -0.007,-0.057 -0.015,-0.115 -0.029,-0.229 -0.054,-0.46 -0.098,-0.918 -0.005,-0.053 -0.005,-0.054 -0.01,-0.107 -0.02,-0.215 -0.037,-0.428 -0.004,-0.054 -0.004,-0.053 -0.009,-0.108 -0.016,-0.214 -0.03,-0.429 -0.003,-0.053 -0.004,-0.054 -0.006,-0.107 -0.013,-0.214 -0.003,-0.054 -0.003,-0.054 -0.006,-0.107 -0.011,-0.214 -0.003,-0.054 -0.002,-0.053 -0.005,-0.108 -0.009,-0.214 -0.002,-0.053 -0.003,-0.054 -0.004,-0.107 -0.007,-0.215 -0.002,-0.052 -10e-4,-0.053 -0.004,-0.105 -10e-4,-0.052 -0.001,-0.053 -0.003,-0.105 -10e-4,-0.052 -0.002,-0.053 -0.002,-0.105 -10e-4,-0.053 -0.001,-0.052 -0.002,-0.105 -10e-4,-0.053 -0.001,-0.052 0,-0.053 -10e-4,-0.052 -10e-4,-0.053 0,-0.052 -0.001,-0.053 0,-0.052 -10e-4,-0.053 0,-0.053 0,-0.052 -0.001,-0.053 0,-0.052 0,-0.053 0,-0.052 0,-0.053 0,-0.052 0,-0.053 0,-0.052 0,-0.053 0,-0.052 0,-0.053 0.001,-0.053 0,-0.052 10e-4,-0.053 0,-0.052 0,-0.053 0.001,-0.052 10e-4,-0.053 0,-0.052 0.002,-0.105 10e-4,-0.053 0.001,-0.052 10e-4,-0.105 0.002,-0.053 10e-4,-0.053 0.002,-0.105 0.001,-0.052 0.002,-0.053 0.002,-0.105 0.006,-0.21 0.002,-0.057 0.002,-0.057 0.004,-0.114 0.009,-0.228 0.002,-0.057 0.002,-0.057 0.005,-0.114 0.011,-0.228 0.003,-0.057 0.003,-0.057 0.006,-0.114 0.012,-0.228 0.028,-0.456 0.004,-0.057 0.004,-0.057 0.008,-0.114 0.016,-0.228 0.036,-0.456 0.005,-0.057 0.005,-0.057 0.01,-0.114 0.02,-0.228 0.044,-0.456 0.005,-0.053 0.006,-0.053 0.011,-0.106 0.022,-0.213 0.048,-0.426 0.106,-0.851 0.007,-0.053 0.007,-0.053 0.014,-0.106 0.029,-0.213 0.062,-0.426 0.132,-0.851 0.009,-0.057 0.01,-0.058 0.019,-0.115 0.039,-0.231 0.081,-0.461 0.173,-0.922 0.011,-0.058 0.012,-0.057 0.023,-0.116 0.046,-0.23 0.096,-0.462 0.204,-0.922 0.012,-0.056 0.013,-0.057 0.027,-0.113 0.053,-0.227 0.108,-0.452 0.228,-0.906 0.495,-1.811 0.016,-0.053 0.015,-0.052 0.031,-0.106 0.062,-0.211 0.126,-0.422 0.26,-0.845 0.554,-1.689 1.345,-3.664 1.421,-3.419 1.532,-3.353 1.804,-3.638 1.801,-3.394 2.066,-3.679 2.025,-3.436 2.062,-3.369 2.314,-3.653 2.222,-3.41 2.465,-3.696 2.472,-3.628 2.343,-3.384 2.574,-3.67 2.43,-3.426 2.402,-3.358 2.621,-3.644 2.456,-3.4 0.043,-0.06 0.043,-0.059 0.086,-0.119 0.172,-0.237 0.343,-0.474 0.687,-0.949 0.043,-0.059 0.043,-0.06 0.086,-0.118 0.171,-0.238 0.344,-0.474 0.043,-0.059 0.043,-0.06 0.086,-0.118 0.171,-0.238 0.043,-0.059 0.043,-0.059 0.086,-0.119 0.043,-0.059 0.043,-0.059 0.043,-0.06 0.043,-0.059"
                       inkscape:connector-curvature="0" /><path
                       id="path3207"
                       style="fill:none;stroke:#426ab5;stroke-width:1.44000006;stroke-linecap:square;stroke-linejoin:miter;stroke-miterlimit:3.25;stroke-opacity:1;stroke-dasharray:none"
                       d="m 313.4,278.112 -0.048,-0.053 -0.048,-0.053 -0.096,-0.106 -0.192,-0.212 -0.384,-0.424 -0.768,-0.848 -1.536,-1.696 -3.328,-3.677 -3.103,-3.433 -3.036,-3.367 -3.282,-3.651 -3.051,-3.408 -3.289,-3.693 -3.207,-3.625 -2.967,-3.382 -3.186,-3.668 -2.939,-3.423 -2.839,-3.357 -3.025,-3.641 -2.759,-3.398 -2.906,-3.683 -2.746,-3.616 -2.444,-3.372 -2.491,-3.658 -2.141,-3.414 -2.069,-3.699 -0.03,-0.056 -0.029,-0.057 -0.059,-0.114 -0.116,-0.227 -0.228,-0.454 -0.442,-0.908 -0.026,-0.056 -0.027,-0.057 -0.054,-0.114 -0.105,-0.227 -0.208,-0.453 -0.398,-0.908 -0.023,-0.053 -0.022,-0.053 -0.045,-0.106 -0.088,-0.212 -0.173,-0.423 -0.33,-0.847 -0.02,-0.053 -0.019,-0.053 -0.04,-0.106 -0.077,-0.212 -0.152,-0.423 -0.285,-0.848 -0.018,-0.057 -0.019,-0.057 -0.036,-0.115 -0.072,-0.23 -0.138,-0.459 -0.017,-0.057 -0.016,-0.058 -0.033,-0.114 -0.065,-0.23 -0.124,-0.459 -0.015,-0.058 -0.014,-0.057 -0.03,-0.115 -0.057,-0.229 -0.109,-0.46 -0.195,-0.918 -0.011,-0.053 -0.01,-0.054 -0.021,-0.107 -0.039,-0.215 -0.074,-0.428 -0.009,-0.054 -0.008,-0.053 -0.017,-0.108 -0.033,-0.214 -0.06,-0.429 -0.007,-0.053 -0.007,-0.054 -0.014,-0.107 -0.026,-0.214 -0.006,-0.054 -0.006,-0.054 -0.012,-0.107 -0.022,-0.214 -0.005,-0.054 -0.005,-0.053 -0.01,-0.108 -0.019,-0.214 -0.004,-0.053 -0.005,-0.054 -0.008,-0.107 -0.015,-0.215 -0.004,-0.052 -0.003,-0.053 -0.006,-0.105 -0.003,-0.052 -0.003,-0.053 -0.006,-0.105 -0.002,-0.052 -0.003,-0.053 -0.005,-0.105 -0.002,-0.053 -0.002,-0.052 -0.004,-0.105 -0.001,-0.053 -0.002,-0.052 -0.002,-0.053 -0.001,-0.052 -0.001,-0.053 -10e-4,-0.052 -0.002,-0.053 -0.001,-0.052 0,-0.053 -0.001,-0.053 -0.001,-0.052 0,-0.053 -10e-4,-0.052 0,-0.053 -0.001,-0.052 0,-0.053 0,-0.052 0,-0.053 0.001,-0.052 0,-0.053 0,-0.052 10e-4,-0.053 0,-0.053 0.001,-0.052 0.001,-0.053 0.001,-0.052 0.001,-0.053 0.001,-0.052 10e-4,-0.053 0.002,-0.052 0.003,-0.105 10e-4,-0.053 0.002,-0.052 0.004,-0.105 0.002,-0.053 0.003,-0.053 0.004,-0.105 0.003,-0.052 0.003,-0.053 0.005,-0.105 0.013,-0.21 0.003,-0.057 0.004,-0.057 0.008,-0.114 0.018,-0.228 0.004,-0.057 0.005,-0.057 0.01,-0.114 0.022,-0.228 0.005,-0.057 0.006,-0.057 0.012,-0.114 0.026,-0.228 0.057,-0.456 0.007,-0.057 0.008,-0.057 0.016,-0.114 0.033,-0.228 0.073,-0.456 0.01,-0.057 0.009,-0.057 0.02,-0.114 0.041,-0.228 0.088,-0.456 0.011,-0.053 0.011,-0.053 0.022,-0.106 0.045,-0.213 0.096,-0.426 0.21,-0.851 0.014,-0.053 0.014,-0.053 0.028,-0.106 0.058,-0.213 0.121,-0.426 0.259,-0.851 0.019,-0.057 0.018,-0.058 0.038,-0.115 0.076,-0.231 0.157,-0.461 0.335,-0.922 0.746,-1.845 0.025,-0.056 0.024,-0.057 0.049,-0.113 0.1,-0.227 0.204,-0.452 0.423,-0.906 0.908,-1.811 1.89,-3.378 2.295,-3.664 2.328,-3.419 2.424,-3.353 2.758,-3.638 2.67,-3.394 2.982,-3.679 2.85,-3.436 2.845,-3.369 3.132,-3.653 2.961,-3.41 3.24,-3.696 3.209,-3.628 3.013,-3.384 3.284,-3.67 3.079,-3.426 3.028,-3.358 3.293,-3.644 3.077,-3.4 0.054,-0.06 0.053,-0.059 0.108,-0.119 0.215,-0.237 0.429,-0.474 0.86,-0.949 0.054,-0.059 0.053,-0.06 0.108,-0.118 0.215,-0.238 0.429,-0.474 0.054,-0.059 0.054,-0.06 0.107,-0.118 0.215,-0.238 0.054,-0.059 0.054,-0.059 0.107,-0.119 0.054,-0.059 0.054,-0.059 0.053,-0.06 0.054,-0.059"
                       inkscape:connector-curvature="0" /></g></g></g><g
                 id="g3268"
                 transform="translate(120.31566,120.31566)"><g
                   id="content"
                   transform="matrix(0.64182857,0,0,-0.64182857,-112.32,337.5)"
                   xml:space="preserve"
                   stroke-miterlimit="10.433"
                   font-style="normal"
                   font-variant="normal"
                   font-weight="normal"
                   font-stretch="normal"
                   font-size-adjust="none"
                   letter-spacing="normal"
                   word-spacing="normal"
                   style="font-style:normal;font-variant:normal;font-weight:normal;font-stretch:normal;letter-spacing:normal;word-spacing:normal;text-anchor:start;fill:none;stroke:#000000;stroke-linecap:butt;stroke-linejoin:miter;stroke-miterlimit:10.43299961;stroke-opacity:1;stroke-dasharray:none;stroke-dashoffset:0"><path
                     d="m 481.38,423.14 0.47,0.11 0.48,0.12 0.48,0.14 0.48,0.15 0.49,0.16 0.48,0.18 0.48,0.19 0.47,0.2 0.47,0.22 0.47,0.23 0.46,0.24 0.45,0.25 0.43,0.27 0.43,0.28 0.42,0.29 0.4,0.3 0.39,0.31 0.37,0.32 0.36,0.34 0.33,0.35 0.32,0.35 0.29,0.37 0.28,0.38 0.25,0.39 0.22,0.4 0.2,0.41 0.17,0.42 0.15,0.43 0.11,0.44 0.08,0.45 0.05,0.46 0.02,0.47 c 0,4.28 -4.48,7.47 -11,7.47 h -14.2 c -1,0 -1.45,0 -1.45,-1 0,-0.55 0.45,-0.55 1.4,-0.55 0.1,0 1.05,0 1.89,-0.09 0.89,-0.11 1.35,-0.16 1.35,-0.8 0,-0.2 -0.05,-0.36 -0.21,-0.95 l -6.67,-26.75 c -0.5,-1.95 -0.59,-2.34 -4.53,-2.34 -0.91,0 -1.34,0 -1.34,-1 0,-0.55 0.59,-0.55 0.68,-0.55 1.41,0 4.89,0.16 6.29,0.16 1.39,0 4.93,-0.16 6.32,-0.16 0.41,0 1,0 1,1 0,0.55 -0.45,0.55 -1.39,0.55 -1.84,0 -3.25,0 -3.25,0.89 0,0.29 0.11,0.54 0.16,0.84 l 3.28,13.2 h 5.94 l -0.05,1.11 h -5.59 l 3.25,13 c 0.29,1.19 0.43,1.69 1.39,1.85 0.45,0.04 2.04,0.04 3.03,0.04 3.55,0 9.08,0 9.08,-4.93 0,-1.69 -0.8,-5.13 -2.75,-7.07 -1.28,-1.29 -3.92,-2.89 -8.41,-2.89 l 0.05,-1.11 c 4.53,0 5.42,-2.78 5.42,-4.53 0,-0.75 -0.39,-2.28 -0.69,-3.44 -0.36,-1.39 -0.79,-3.23 -0.79,-4.23 0,-5.37 5.96,-5.37 6.62,-5.37 4.23,0 5.97,5.03 5.97,5.73 0,0.59 -0.55,0.59 -0.59,0.59 -0.46,0 -0.55,-0.36 -0.65,-0.7 -1.25,-3.69 -3.39,-4.53 -4.54,-4.53 -1.64,0 -1.99,1.09 -1.99,3.05 0,1.53 0.3,4.07 0.5,5.67 0.1,0.7 0.21,1.64 0.21,2.34 0,3.83 -3.35,5.38 -4.69,5.88 z"
                     id="path3271"
                     inkscape:connector-curvature="0"
                     style="fill:#000000;stroke-width:0" /></g></g><g
                 id="g3395"
                 transform="translate(-51.781424,120.08461)"><g
                   word-spacing="normal"
                   letter-spacing="normal"
                   font-size-adjust="none"
                   font-stretch="normal"
                   font-weight="normal"
                   font-variant="normal"
                   font-style="normal"
                   stroke-miterlimit="10.433"
                   xml:space="preserve"
                   transform="matrix(0.64182857,0,0,-0.64182857,-112.32,337.5)"
                   id="g3397"
                   style="font-style:normal;font-variant:normal;font-weight:normal;font-stretch:normal;letter-spacing:normal;word-spacing:normal;text-anchor:start;fill:none;stroke:#000000;stroke-linecap:butt;stroke-linejoin:miter;stroke-miterlimit:10.43299961;stroke-opacity:1;stroke-dasharray:none;stroke-dashoffset:0"><path
                     id="path3399"
                     d="m 474.16,436.34 0.04,0.16 0.04,0.16 0.04,0.15 0.04,0.15 0.04,0.13 0.05,0.13 0.05,0.13 0.05,0.11 0.06,0.12 0.06,0.1 0.08,0.1 0.08,0.09 0.09,0.09 0.1,0.08 0.11,0.08 0.12,0.07 0.13,0.06 0.15,0.06 0.16,0.06 0.18,0.05 0.09,0.02 0.1,0.02 0.1,0.02 0.11,0.02 0.11,0.02 0.11,0.02 0.12,0.02 0.13,0.01 0.13,0.01 0.14,0.02 0.14,0.01 0.14,0.01 0.15,0.01 0.16,0.01 0.16,0.01 0.17,0.01 0.17,0 0.18,0.01 0.18,0 0.19,0.01 0.2,0 0.2,0 0.21,0 0.22,0 c 1.49,0 1.89,0 1.89,0.96 0,0.59 -0.54,0.59 -0.79,0.59 -1.66,0 -5.74,-0.16 -7.38,-0.16 -1.5,0 -5.14,0.16 -6.62,0.16 -0.36,0 -0.96,0 -0.96,-1 0,-0.55 0.46,-0.55 1.39,-0.55 0.11,0 1.05,0 1.91,-0.09 0.89,-0.11 1.34,-0.16 1.34,-0.8 0,-0.2 -0.06,-0.36 -0.2,-0.95 l -6.67,-26.75 c -0.5,-1.95 -0.61,-2.34 -4.55,-2.34 -0.84,0 -1.34,0 -1.34,-1 0,-0.55 0.45,-0.55 1.34,-0.55 h 23.08 c 1.19,0 1.23,0 1.55,0.84 l 3.92,10.77 c 0.2,0.55 0.2,0.64 0.2,0.7 0,0.19 -0.14,0.55 -0.59,0.55 -0.46,0 -0.5,-0.25 -0.85,-1.05 -1.7,-4.59 -3.89,-10.26 -12.51,-10.26 h -4.67 c -0.71,0 -0.8,0 -1.1,0.04 -0.5,0.05 -0.65,0.1 -0.65,0.5 0,0.14 0,0.25 0.25,1.14 z"
                     inkscape:connector-curvature="0"
                     style="fill:#000000;stroke-width:0" /></g></g></g></g></g></g></g></g></svg>