<?xml version="1.0" encoding="UTF-8" standalone="no"?>
<!-- Created with Inkscape (http://www.inkscape.org/) -->

<svg
   xmlns:dc="http://purl.org/dc/elements/1.1/"
   xmlns:cc="http://creativecommons.org/ns#"
   xmlns:rdf="http://www.w3.org/1999/02/22-rdf-syntax-ns#"
   xmlns:svg="http://www.w3.org/2000/svg"
   xmlns="http://www.w3.org/2000/svg"
   xmlns:sodipodi="http://sodipodi.sourceforge.net/DTD/sodipodi-0.dtd"
   xmlns:inkscape="http://www.inkscape.org/namespaces/inkscape"
   id="svg20911"
   version="1.1"
   inkscape:version="0.48.2 r9819"
   width="483.3837"
   height="489.94727"
   xml:space="preserve"
   sodipodi:docname="penroserindler.pdf"><sodipodi:namedview
     pagecolor="#ffffff"
     bordercolor="#666666"
     borderopacity="1"
     objecttolerance="10"
     gridtolerance="10"
     guidetolerance="10"
     inkscape:pageopacity="0"
     inkscape:pageshadow="2"
     inkscape:window-width="1067"
     inkscape:window-height="700"
     id="namedview20913"
     showgrid="false"
     inkscape:zoom="0.59"
     inkscape:cx="68.883712"
     inkscape:cy="99.397485"
     inkscape:window-x="0"
     inkscape:window-y="0"
     inkscape:window-maximized="0"
     inkscape:current-layer="g20919"
     fit-margin-top="0"
     fit-margin-left="0"
     fit-margin-right="0"
     fit-margin-bottom="0" /><metadata
     id="metadata20917"><rdf:RDF><cc:Work
         rdf:about=""><dc:format>image/svg+xml</dc:format><dc:type
           rdf:resource="http://purl.org/dc/dcmitype/StillImage" /><dc:title></dc:title></cc:Work></rdf:RDF></metadata><defs
     id="defs20915"><marker
       style="overflow:visible"
       id="Arrow1Lend"
       refX="0"
       refY="0"
       orient="auto"
       inkscape:stockid="Arrow1Lend"><path
         transform="matrix(-0.8,0,0,-0.8,-10,0)"
         style="fill-rule:evenodd;stroke:#000000;stroke-width:1pt;marker-start:none"
         d="M 0,0 5,-5 -12.5,0 5,5 0,0 z"
         id="path6516"
         inkscape:connector-curvature="0" /></marker><marker
       style="overflow:visible"
       id="Arrow1Mend"
       refX="0"
       refY="0"
       orient="auto"
       inkscape:stockid="Arrow1Mend"><path
         transform="matrix(-0.4,0,0,-0.4,-4,0)"
         style="fill-rule:evenodd;stroke:#000000;stroke-width:1pt;marker-start:none"
         d="M 0,0 5,-5 -12.5,0 5,5 0,0 z"
         id="path6522"
         inkscape:connector-curvature="0" /></marker><clipPath
       clipPathUnits="userSpaceOnUse"
       id="clipPath20923"><path
         d="m 47,12 0,359.424 360,0 L 407,12"
         clip-rule="evenodd"
         id="path20925"
         inkscape:connector-curvature="0" /></clipPath><clipPath
       clipPathUnits="userSpaceOnUse"
       id="clipPath20935"><path
         d="m 0,4 0,375 535,0 0,-375"
         clip-rule="evenodd"
         id="path20937"
         inkscape:connector-curvature="0" /></clipPath><clipPath
       clipPathUnits="userSpaceOnUse"
       id="clipPath20947"><path
         d="m 47,12 0,360 360,0 0,-360"
         clip-rule="evenodd"
         id="path20949"
         inkscape:connector-curvature="0" /></clipPath><clipPath
       clipPathUnits="userSpaceOnUse"
       id="clipPath20955"><path
         d="m 45,10 0,363 364,0 0,-363"
         clip-rule="evenodd"
         id="path20957"
         inkscape:connector-curvature="0" /></clipPath><clipPath
       clipPathUnits="userSpaceOnUse"
       id="clipPath20963"><path
         d="m 47,11 0,360 360,0 0,-360"
         clip-rule="evenodd"
         id="path20965"
         inkscape:connector-curvature="0" /></clipPath><clipPath
       id="clipPath26772"
       clipPathUnits="userSpaceOnUse"><path
         id="path26774"
         clip-rule="evenodd"
         d="m 46,12 0,360 361,0 0,-360"
         inkscape:connector-curvature="0" /></clipPath><clipPath
       id="clipPath26744"
       clipPathUnits="userSpaceOnUse"><path
         id="path26746"
         clip-rule="evenodd"
         d="m 46,12 0,360 361,0 0,-360"
         inkscape:connector-curvature="0" /></clipPath><clipPath
       id="clipPath26736"
       clipPathUnits="userSpaceOnUse"><path
         id="path26738"
         clip-rule="evenodd"
         d="m 46,12 0,360 361,0 0,-360"
         inkscape:connector-curvature="0" /></clipPath><clipPath
       id="clipPath26728"
       clipPathUnits="userSpaceOnUse"><path
         id="path26730"
         clip-rule="evenodd"
         d="m 46,12 0,360 361,0 0,-360"
         inkscape:connector-curvature="0" /></clipPath><clipPath
       id="clipPath26718"
       clipPathUnits="userSpaceOnUse"><path
         id="path26720"
         clip-rule="evenodd"
         d="m 45,10 0,364 364,0 0,-364"
         inkscape:connector-curvature="0" /></clipPath><clipPath
       id="clipPath26704"
       clipPathUnits="userSpaceOnUse"><path
         id="path26706"
         clip-rule="evenodd"
         d="m 0,4 0,376 535,0 0,-376"
         inkscape:connector-curvature="0" /></clipPath><clipPath
       id="clipPath26692"
       clipPathUnits="userSpaceOnUse"><path
         id="path26694"
         clip-rule="evenodd"
         d="m 47,12 0,360 360,0 0,-360"
         inkscape:connector-curvature="0" /></clipPath><clipPath
       id="clipPath26891"
       clipPathUnits="userSpaceOnUse"><path
         id="path26893"
         clip-rule="evenodd"
         d="m 47,11 0,360 360,0 0,-360"
         inkscape:connector-curvature="0" /></clipPath><clipPath
       id="clipPath26883"
       clipPathUnits="userSpaceOnUse"><path
         id="path26885"
         clip-rule="evenodd"
         d="m 45,10 0,363 364,0 0,-363"
         inkscape:connector-curvature="0" /></clipPath><clipPath
       id="clipPath26875"
       clipPathUnits="userSpaceOnUse"><path
         id="path26877"
         clip-rule="evenodd"
         d="m 47,12 0,360 360,0 0,-360"
         inkscape:connector-curvature="0" /></clipPath><clipPath
       id="clipPath26863"
       clipPathUnits="userSpaceOnUse"><path
         id="path26865"
         clip-rule="evenodd"
         d="m 0,4 0,375 535,0 0,-375"
         inkscape:connector-curvature="0" /></clipPath><clipPath
       id="clipPath26851"
       clipPathUnits="userSpaceOnUse"><path
         id="path26853"
         clip-rule="evenodd"
         d="m 47,12 0,359.424 360,0 L 407,12"
         inkscape:connector-curvature="0" /></clipPath><clipPath
       id="clipPath3958"
       clipPathUnits="userSpaceOnUse"><path
         id="path3960"
         clip-rule="evenodd"
         d="m 47,11 0,360 360,0 0,-360"
         inkscape:connector-curvature="0" /></clipPath><clipPath
       id="clipPath3950"
       clipPathUnits="userSpaceOnUse"><path
         id="path3952"
         clip-rule="evenodd"
         d="m 45,10 0,363 364,0 0,-363"
         inkscape:connector-curvature="0" /></clipPath><clipPath
       id="clipPath3942"
       clipPathUnits="userSpaceOnUse"><path
         id="path3944"
         clip-rule="evenodd"
         d="m 47,12 0,360 360,0 0,-360"
         inkscape:connector-curvature="0" /></clipPath><clipPath
       id="clipPath3930"
       clipPathUnits="userSpaceOnUse"><path
         id="path3932"
         clip-rule="evenodd"
         d="m 0,4 0,375 535,0 0,-375"
         inkscape:connector-curvature="0" /></clipPath><clipPath
       id="clipPath3918"
       clipPathUnits="userSpaceOnUse"><path
         id="path3920"
         clip-rule="evenodd"
         d="m 47,12 0,359.424 360,0 L 407,12"
         inkscape:connector-curvature="0" /></clipPath><clipPath
       id="clipPath6312"
       clipPathUnits="userSpaceOnUse"><path
         id="path6314"
         clip-rule="evenodd"
         d="m 47,11 0,360 360,0 0,-360"
         inkscape:connector-curvature="0" /></clipPath><clipPath
       id="clipPath6304"
       clipPathUnits="userSpaceOnUse"><path
         id="path6306"
         clip-rule="evenodd"
         d="m 45,10 0,363 364,0 0,-363"
         inkscape:connector-curvature="0" /></clipPath><clipPath
       id="clipPath6296"
       clipPathUnits="userSpaceOnUse"><path
         id="path6298"
         clip-rule="evenodd"
         d="m 47,12 0,360 360,0 0,-360"
         inkscape:connector-curvature="0" /></clipPath><clipPath
       id="clipPath6284"
       clipPathUnits="userSpaceOnUse"><path
         id="path6286"
         clip-rule="evenodd"
         d="m 0,4 0,375 535,0 0,-375"
         inkscape:connector-curvature="0" /></clipPath><clipPath
       id="clipPath6272"
       clipPathUnits="userSpaceOnUse"><path
         id="path6274"
         clip-rule="evenodd"
         d="m 47,12 0,359.424 360,0 L 407,12"
         inkscape:connector-curvature="0" /></clipPath><clipPath
       id="clipPath3377"
       clipPathUnits="userSpaceOnUse"><path
         id="path3379"
         clip-rule="evenodd"
         d="m 47,11 0,360 360,0 0,-360"
         inkscape:connector-curvature="0" /></clipPath><clipPath
       id="clipPath3369"
       clipPathUnits="userSpaceOnUse"><path
         id="path3371"
         clip-rule="evenodd"
         d="m 45,10 0,363 364,0 0,-363"
         inkscape:connector-curvature="0" /></clipPath><clipPath
       id="clipPath3361"
       clipPathUnits="userSpaceOnUse"><path
         id="path3363"
         clip-rule="evenodd"
         d="m 47,12 0,360 360,0 0,-360"
         inkscape:connector-curvature="0" /></clipPath><clipPath
       id="clipPath3349"
       clipPathUnits="userSpaceOnUse"><path
         id="path3351"
         clip-rule="evenodd"
         d="m 0,4 0,375 535,0 0,-375"
         inkscape:connector-curvature="0" /></clipPath><clipPath
       id="clipPath3337"
       clipPathUnits="userSpaceOnUse"><path
         id="path3339"
         clip-rule="evenodd"
         d="m 47,12 0,359.424 360,0 L 407,12"
         inkscape:connector-curvature="0" /></clipPath></defs><g
     id="g20919"
     inkscape:groupmode="layer"
     inkscape:label="penrosemink"
     transform="matrix(1.25,0,0,1.25,-652.44671,1.1013888)"><g
       transform="matrix(0.9734777,0,0,0.9734777,493.52788,9.1701117)"
       inkscape:label="penroserindlerraw"
       id="g3333"><g
         clip-path="url(#clipPath3337)"
         id="g3335"><g
           id="g3341" /><g
           id="g3343"><g
             id="g3345"><g
               clip-path="url(#clipPath3349)"
               id="g3347"><g
                 id="g3353"><path
                   id="path3355"
                   style="fill:#ffffff;fill-opacity:1;fill-rule:evenodd;stroke:none"
                   d="M 39,4 487,4 487,379 39,379 39,4 z"
                   inkscape:connector-curvature="0" /></g></g></g><g
             id="g3357"><g
               clip-path="url(#clipPath3361)"
               id="g3359"><g
                 id="g3365"><g
                   clip-path="url(#clipPath3369)"
                   id="g3367"><g
                     id="g3373"><g
                       clip-path="url(#clipPath3377)"
                       id="g3375"><path
                         id="path3381"
                         style="fill:none;stroke:#000000;stroke-width:2;stroke-linecap:square;stroke-linejoin:miter;stroke-miterlimit:3.25;stroke-opacity:1;stroke-dasharray:none"
                         d="m 227,364.512 172.8,-172.8"
                         inkscape:connector-curvature="0" /><path
                         id="path3383"
                         style="fill:none;stroke:#000000;stroke-width:2;stroke-linecap:square;stroke-linejoin:miter;stroke-miterlimit:3.25;stroke-opacity:1;stroke-dasharray:none"
                         d="M 54.2,191.712 227,18.912"
                         inkscape:connector-curvature="0" /><path
                         id="path3385"
                         style="fill:none;stroke:#000000;stroke-width:2;stroke-linecap:square;stroke-linejoin:miter;stroke-miterlimit:3.25;stroke-opacity:1;stroke-dasharray:none"
                         d="M 399.8,191.712 227,18.912"
                         inkscape:connector-curvature="0" /><path
                         id="path3387"
                         style="fill:none;stroke:#000000;stroke-width:2;stroke-linecap:square;stroke-linejoin:miter;stroke-miterlimit:3.25;stroke-opacity:1;stroke-dasharray:none"
                         d="M 227,364.512 54.2,191.712"
                         inkscape:connector-curvature="0" /><path
                         id="path3389"
                         style="fill:none;stroke:#000000;stroke-width:2;stroke-linecap:square;stroke-linejoin:miter;stroke-miterlimit:3.25;stroke-opacity:1;stroke-dasharray:none"
                         d="m 227,191.712 86.4,-86.4"
                         inkscape:connector-curvature="0" /><path
                         id="path3391"
                         style="fill:none;stroke:#000000;stroke-width:2;stroke-linecap:square;stroke-linejoin:miter;stroke-miterlimit:3.25;stroke-opacity:1;stroke-dasharray:none"
                         d="m 227,191.712 86.4,86.4"
                         inkscape:connector-curvature="0" /><path
                         id="path3393"
                         style="fill:none;stroke:#000000;stroke-width:2;stroke-linecap:square;stroke-linejoin:miter;stroke-miterlimit:3.25;stroke-opacity:1;stroke-dasharray:1, 4;stroke-dashoffset:0"
                         d="m 227,364.512 0,-345.6"
                         inkscape:connector-curvature="0" /><path
                         id="path3395"
                         style="fill:none;stroke:#426ab5;stroke-width:1.44000006;stroke-linecap:square;stroke-linejoin:miter;stroke-miterlimit:3.25;stroke-opacity:1;stroke-dasharray:none"
                         d="m 313.4,278.112 0.048,-0.053 0.048,-0.053 0.096,-0.106 0.192,-0.212 0.384,-0.424 0.768,-0.848 1.536,-1.696 3.328,-3.677 3.103,-3.433 3.036,-3.367 3.282,-3.651 3.051,-3.408 3.289,-3.693 3.207,-3.625 2.967,-3.382 3.186,-3.668 2.939,-3.423 2.839,-3.357 3.025,-3.641 2.759,-3.398 2.906,-3.683 2.746,-3.616 2.444,-3.372 2.491,-3.658 2.141,-3.414 2.069,-3.699 0.03,-0.056 0.029,-0.057 0.059,-0.114 0.116,-0.227 0.228,-0.454 0.442,-0.908 0.026,-0.056 0.027,-0.057 0.054,-0.114 0.105,-0.227 0.208,-0.453 0.398,-0.908 0.023,-0.053 0.022,-0.053 0.045,-0.106 0.088,-0.212 0.173,-0.423 0.33,-0.847 0.02,-0.053 0.019,-0.053 0.04,-0.106 0.077,-0.212 0.152,-0.423 0.285,-0.848 0.018,-0.057 0.019,-0.057 0.036,-0.115 0.072,-0.23 0.138,-0.459 0.017,-0.057 0.016,-0.058 0.033,-0.114 0.065,-0.23 0.124,-0.459 0.015,-0.058 0.014,-0.057 0.03,-0.115 0.057,-0.229 0.109,-0.46 0.195,-0.918 0.011,-0.053 0.01,-0.054 0.021,-0.107 0.039,-0.215 0.074,-0.428 0.009,-0.054 0.008,-0.053 0.017,-0.108 0.033,-0.214 0.06,-0.429 0.007,-0.053 0.007,-0.054 0.014,-0.107 0.026,-0.214 0.006,-0.054 0.006,-0.054 0.012,-0.107 0.022,-0.214 0.005,-0.054 0.005,-0.053 0.01,-0.108 0.019,-0.214 0.004,-0.053 0.005,-0.054 0.008,-0.107 0.015,-0.215 0.004,-0.052 0.003,-0.053 0.006,-0.105 0.003,-0.052 0.003,-0.053 0.006,-0.105 0.002,-0.052 0.003,-0.053 0.005,-0.105 0.002,-0.053 0.002,-0.052 0.004,-0.105 10e-4,-0.053 0.002,-0.052 0.002,-0.053 10e-4,-0.052 0.001,-0.053 10e-4,-0.052 0.002,-0.053 10e-4,-0.052 0,-0.053 0.001,-0.053 10e-4,-0.052 0,-0.053 0.001,-0.052 0,-0.053 10e-4,-0.052 0,-0.053 0,-0.052 0,-0.053 -10e-4,-0.052 0,-0.053 0,-0.052 -0.001,-0.053 0,-0.053 -10e-4,-0.052 -0.001,-0.053 -10e-4,-0.052 -0.001,-0.053 -10e-4,-0.052 -10e-4,-0.053 -0.002,-0.052 -0.003,-0.105 -0.001,-0.053 -0.002,-0.052 -0.004,-0.105 -0.002,-0.053 -0.003,-0.053 -0.004,-0.105 -0.003,-0.052 -0.003,-0.053 -0.005,-0.105 -0.013,-0.21 -0.003,-0.057 -0.004,-0.057 -0.008,-0.114 -0.018,-0.228 -0.004,-0.057 -0.005,-0.057 -0.01,-0.114 -0.022,-0.228 -0.005,-0.057 -0.006,-0.057 -0.012,-0.114 -0.026,-0.228 -0.057,-0.456 -0.007,-0.057 -0.008,-0.057 -0.016,-0.114 -0.033,-0.228 -0.073,-0.456 -0.01,-0.057 -0.009,-0.057 -0.02,-0.114 -0.041,-0.228 -0.088,-0.456 -0.011,-0.053 -0.011,-0.053 -0.022,-0.106 -0.045,-0.213 -0.096,-0.426 -0.21,-0.851 -0.014,-0.053 -0.014,-0.053 -0.028,-0.106 -0.058,-0.213 -0.121,-0.426 -0.259,-0.851 -0.019,-0.057 -0.018,-0.058 -0.038,-0.115 -0.076,-0.231 -0.157,-0.461 -0.335,-0.922 -0.746,-1.845 -0.025,-0.056 -0.024,-0.057 -0.049,-0.113 -0.1,-0.227 -0.204,-0.452 -0.423,-0.906 -0.908,-1.811 -1.89,-3.378 -2.295,-3.664 -2.328,-3.419 -2.424,-3.353 -2.758,-3.638 -2.67,-3.394 -2.982,-3.679 -2.85,-3.436 -2.845,-3.369 -3.132,-3.653 -2.961,-3.41 -3.24,-3.696 -3.209,-3.628 -3.013,-3.384 -3.284,-3.67 -3.079,-3.426 -3.028,-3.358 -3.293,-3.644 -3.077,-3.4 -0.054,-0.06 -0.053,-0.059 -0.108,-0.119 -0.215,-0.237 -0.429,-0.474 -0.86,-0.949 -0.054,-0.059 -0.053,-0.06 -0.108,-0.118 -0.215,-0.238 -0.429,-0.474 -0.054,-0.059 -0.054,-0.06 -0.107,-0.118 -0.215,-0.238 -0.054,-0.059 -0.054,-0.059 -0.107,-0.119 -0.054,-0.059 -0.054,-0.059 -0.053,-0.06 -0.054,-0.059"
                         inkscape:connector-curvature="0" /><path
                         id="path3397"
                         style="fill:none;stroke:#426ab5;stroke-width:1.44000006;stroke-linecap:square;stroke-linejoin:miter;stroke-miterlimit:3.25;stroke-opacity:1;stroke-dasharray:none"
                         d="m 313.4,278.112 0.038,-0.053 0.039,-0.053 0.077,-0.106 0.153,-0.212 0.307,-0.424 0.614,-0.848 1.227,-1.696 2.657,-3.677 2.471,-3.433 2.409,-3.367 2.591,-3.651 2.393,-3.408 2.559,-3.693 2.47,-3.625 2.26,-3.382 2.393,-3.668 2.173,-3.423 2.062,-3.357 2.153,-3.641 1.916,-3.398 1.965,-3.683 1.798,-3.616 1.548,-3.372 1.52,-3.658 1.255,-3.414 0.02,-0.057 0.02,-0.058 0.039,-0.116 0.078,-0.231 0.154,-0.462 0.298,-0.925 0.556,-1.85 0.016,-0.056 0.016,-0.057 0.032,-0.114 0.064,-0.227 0.125,-0.454 0.239,-0.908 0.015,-0.056 0.014,-0.057 0.029,-0.114 0.057,-0.227 0.111,-0.453 0.211,-0.908 0.012,-0.053 0.012,-0.053 0.024,-0.106 0.046,-0.212 0.091,-0.423 0.172,-0.847 0.01,-0.053 0.011,-0.053 0.02,-0.106 0.04,-0.212 0.078,-0.423 0.147,-0.848 0.009,-0.057 0.01,-0.057 0.018,-0.115 0.037,-0.23 0.07,-0.459 0.009,-0.057 0.008,-0.058 0.017,-0.114 0.033,-0.23 0.062,-0.459 0.008,-0.058 0.007,-0.057 0.015,-0.115 0.029,-0.229 0.054,-0.46 0.098,-0.918 0.005,-0.053 0.005,-0.054 0.01,-0.107 0.02,-0.215 0.037,-0.428 0.004,-0.054 0.004,-0.053 0.009,-0.108 0.016,-0.214 0.03,-0.429 0.003,-0.053 0.004,-0.054 0.006,-0.107 0.013,-0.214 0.003,-0.054 0.003,-0.054 0.006,-0.107 0.011,-0.214 0.003,-0.054 0.002,-0.053 0.005,-0.108 0.009,-0.214 0.002,-0.053 0.003,-0.054 0.004,-0.107 0.007,-0.215 0.002,-0.052 10e-4,-0.053 0.004,-0.105 10e-4,-0.052 0.001,-0.053 0.003,-0.105 10e-4,-0.052 0.002,-0.053 0.002,-0.105 10e-4,-0.053 0.001,-0.052 0.002,-0.105 10e-4,-0.053 10e-4,-0.052 0,-0.053 0.001,-0.052 10e-4,-0.053 0,-0.052 0.001,-0.053 0,-0.052 10e-4,-0.053 0,-0.053 0,-0.052 10e-4,-0.053 0,-0.052 0,-0.053 0,-0.052 0,-0.053 0,-0.052 0,-0.053 0,-0.052 0,-0.053 0,-0.052 0,-0.053 -10e-4,-0.053 0,-0.052 -10e-4,-0.053 0,-0.052 0,-0.053 -0.001,-0.052 -10e-4,-0.053 0,-0.052 -0.002,-0.105 -10e-4,-0.053 -0.001,-0.052 -10e-4,-0.105 -0.002,-0.053 -0.001,-0.053 -0.002,-0.105 -0.001,-0.052 -0.002,-0.053 -0.002,-0.105 -0.006,-0.21 -0.002,-0.057 -0.002,-0.057 -0.004,-0.114 -0.009,-0.228 -0.002,-0.057 -0.002,-0.057 -0.005,-0.114 -0.011,-0.228 -0.003,-0.057 -0.003,-0.057 -0.006,-0.114 -0.012,-0.228 -0.028,-0.456 -0.004,-0.057 -0.004,-0.057 -0.008,-0.114 -0.016,-0.228 -0.036,-0.456 -0.005,-0.057 -0.005,-0.057 -0.01,-0.114 -0.02,-0.228 -0.044,-0.456 -0.005,-0.053 -0.006,-0.053 -0.011,-0.106 -0.022,-0.213 -0.048,-0.426 -0.106,-0.851 -0.007,-0.053 -0.007,-0.053 -0.014,-0.106 -0.029,-0.213 -0.062,-0.426 -0.132,-0.851 -0.009,-0.057 -0.01,-0.058 -0.019,-0.115 -0.039,-0.231 -0.081,-0.461 -0.173,-0.922 -0.011,-0.058 -0.012,-0.057 -0.023,-0.116 -0.046,-0.23 -0.096,-0.462 -0.204,-0.922 -0.012,-0.056 -0.013,-0.057 -0.027,-0.113 -0.053,-0.227 -0.108,-0.452 -0.228,-0.906 -0.495,-1.811 -0.016,-0.053 -0.015,-0.052 -0.031,-0.106 -0.062,-0.211 -0.126,-0.422 -0.26,-0.845 -0.554,-1.689 -1.345,-3.664 -1.421,-3.419 -1.532,-3.353 -1.804,-3.638 -1.801,-3.394 -2.066,-3.679 -2.025,-3.436 -2.062,-3.369 -2.314,-3.653 -2.222,-3.41 -2.465,-3.696 -2.472,-3.628 -2.343,-3.384 -2.574,-3.67 -2.43,-3.426 -2.402,-3.358 -2.621,-3.644 -2.456,-3.4 -0.043,-0.06 -0.043,-0.059 -0.086,-0.119 -0.172,-0.237 -0.343,-0.474 -0.687,-0.949 -0.043,-0.059 -0.043,-0.06 -0.086,-0.118 -0.171,-0.238 -0.344,-0.474 -0.043,-0.059 -0.043,-0.06 -0.086,-0.118 -0.171,-0.238 -0.043,-0.059 -0.043,-0.059 -0.086,-0.119 -0.043,-0.059 -0.043,-0.059 -0.043,-0.06 -0.043,-0.059"
                         inkscape:connector-curvature="0" /><path
                         id="path3399"
                         style="fill:none;stroke:#426ab5;stroke-width:1.44000006;stroke-linecap:square;stroke-linejoin:miter;stroke-miterlimit:3.25;stroke-opacity:1;stroke-dasharray:none"
                         d="m 313.4,278.112 0.02,-0.053 0.021,-0.053 0.041,-0.106 0.081,-0.212 0.163,-0.424 0.326,-0.848 0.652,-1.696 1.408,-3.677 1.306,-3.433 1.268,-3.367 1.355,-3.651 1.242,-3.408 1.316,-3.693 1.257,-3.625 1.135,-3.382 1.186,-3.668 1.061,-3.423 0.991,-3.357 1.017,-3.641 0.889,-3.398 0.894,-3.683 0.803,-3.616 0.677,-3.372 0.653,-3.658 0.529,-3.414 0.009,-0.057 0.008,-0.058 0.016,-0.116 0.033,-0.231 0.064,-0.462 0.124,-0.925 0.229,-1.85 0.007,-0.056 0.006,-0.057 0.014,-0.114 0.026,-0.227 0.051,-0.454 0.098,-0.908 0.006,-0.056 0.006,-0.057 0.011,-0.114 0.024,-0.227 0.045,-0.453 0.086,-0.908 0.005,-0.053 0.004,-0.053 0.01,-0.106 0.019,-0.212 0.037,-0.423 0.069,-0.847 0.004,-0.053 0.004,-0.053 0.009,-0.106 0.016,-0.212 0.031,-0.423 0.059,-0.848 0.004,-0.057 0.004,-0.057 0.007,-0.115 0.015,-0.23 0.028,-0.459 0.003,-0.057 0.004,-0.058 0.006,-0.114 0.014,-0.23 0.025,-0.459 0.003,-0.058 0.003,-0.057 0.005,-0.115 0.012,-0.229 0.022,-0.46 0.039,-0.918 0.002,-0.053 0.002,-0.054 0.004,-0.107 0.008,-0.215 0.014,-0.428 0.002,-0.054 0.002,-0.053 0.003,-0.108 0.007,-0.214 0.011,-0.429 0.002,-0.053 10e-4,-0.054 0.003,-0.107 0.005,-0.214 10e-4,-0.054 0.001,-0.054 0.003,-0.107 0.004,-0.214 0.001,-0.054 10e-4,-0.053 0.002,-0.108 0.004,-0.214 0,-0.053 10e-4,-0.054 0.002,-0.107 0.003,-0.215 0.001,-0.052 0,-0.053 10e-4,-0.105 0.001,-0.052 10e-4,-0.053 10e-4,-0.105 0,-0.052 0.001,-0.053 10e-4,-0.105 0,-0.053 0,-0.052 0.001,-0.105 0,-0.053 10e-4,-0.052 0,-0.053 0,-0.052 10e-4,-0.053 0,-0.052 0,-0.053 0,-0.052 0,-0.053 0.001,-0.053 0,-0.052 0,-0.053 0,-0.052 0,-0.053 0,-0.052 0,-0.053 0,-0.052 0,-0.053 0,-0.052 0,-0.053 0,-0.052 0,-0.053 0,-0.053 0,-0.052 -0.001,-0.053 0,-0.052 0,-0.053 0,-0.052 0,-0.053 -10e-4,-0.052 0,-0.105 -10e-4,-0.053 0,-0.052 -0.001,-0.105 0,-0.053 -10e-4,-0.053 -0.001,-0.105 0,-0.052 -10e-4,-0.053 -10e-4,-0.105 -0.002,-0.21 -0.001,-0.057 -10e-4,-0.057 -0.001,-0.114 -0.004,-0.228 -0.001,-0.057 0,-0.057 -0.002,-0.114 -0.005,-0.228 -10e-4,-0.057 -10e-4,-0.057 -0.002,-0.114 -0.005,-0.228 -0.011,-0.456 -0.002,-0.057 -10e-4,-0.057 -0.004,-0.114 -0.006,-0.228 -0.014,-0.456 -0.002,-0.057 -0.002,-0.057 -0.004,-0.114 -0.008,-0.228 -0.018,-0.456 -0.002,-0.053 -0.002,-0.053 -0.004,-0.106 -0.009,-0.213 -0.02,-0.426 -0.042,-0.851 -0.003,-0.053 -0.002,-0.053 -0.006,-0.106 -0.012,-0.213 -0.024,-0.426 -0.053,-0.851 -0.004,-0.057 -0.004,-0.058 -0.008,-0.115 -0.015,-0.231 -0.033,-0.461 -0.07,-0.922 -0.004,-0.058 -0.005,-0.057 -0.009,-0.116 -0.019,-0.23 -0.039,-0.462 -0.082,-0.922 -0.005,-0.056 -0.006,-0.057 -0.01,-0.113 -0.022,-0.227 -0.044,-0.452 -0.093,-0.906 -0.203,-1.811 -0.006,-0.053 -0.006,-0.052 -0.013,-0.106 -0.026,-0.211 -0.052,-0.422 -0.107,-0.845 -0.231,-1.689 -0.567,-3.664 -0.61,-3.419 -0.67,-3.353 -0.804,-3.638 -0.819,-3.394 -0.957,-3.679 -0.955,-3.436 -0.99,-3.369 -1.128,-3.653 -1.1,-3.41 -1.238,-3.696 -1.256,-3.628 -1.205,-3.384 -1.335,-3.67 -1.271,-3.426 -1.263,-3.358 -1.385,-3.644 -1.302,-3.4 -0.023,-0.06 -0.023,-0.059 -0.045,-0.119 -0.091,-0.237 -0.183,-0.474 -0.364,-0.949 -0.023,-0.059 -0.023,-0.06 -0.045,-0.118 -0.092,-0.238 -0.182,-0.474 -0.023,-0.059 -0.023,-0.06 -0.045,-0.118 -0.092,-0.238 -0.022,-0.059 -0.023,-0.059 -0.046,-0.119 -0.023,-0.059 -0.022,-0.059 -0.023,-0.06 -0.023,-0.059"
                         inkscape:connector-curvature="0" /><path
                         id="path3401"
                         style="fill:none;stroke:#426ab5;stroke-width:1.44000006;stroke-linecap:square;stroke-linejoin:miter;stroke-miterlimit:3.25;stroke-opacity:1;stroke-dasharray:none"
                         d="m 313.4,278.112 0,-1.696 0,-1.696 0,-3.677 0,-3.433 0,-3.367 0,-3.651 0,-3.408 0,-3.693 0,-3.625 0,-3.382 0,-3.668 0,-3.423 0,-3.357 0,-3.641 0,-3.398 0,-3.683 0,-3.616 0,-3.372 0,-3.658 0,-3.414 0,-3.699 0,-3.631 0,-3.389 0,-3.673 0,-3.43 0,-3.362 0,-3.648 0,-3.404 0,-3.689 0,-3.622 0,-3.378 0,-3.664 0,-3.419 0,-3.353 0,-3.638 0,-3.394 0,-3.679 0,-3.436 0,-3.369 0,-3.653 0,-3.41 0,-3.696 0,-3.628 0,-3.384 0,-3.67 0,-3.426 0,-3.358 0,-3.644 0,-3.4 0,-1.898 0,-1.898"
                         inkscape:connector-curvature="0" /><path
                         id="path3403"
                         style="fill:none;stroke:#426ab5;stroke-width:1.44000006;stroke-linecap:square;stroke-linejoin:miter;stroke-miterlimit:3.25;stroke-opacity:1;stroke-dasharray:none"
                         d="m 313.4,278.112 -0.02,-0.053 -0.021,-0.053 -0.041,-0.106 -0.081,-0.212 -0.163,-0.424 -0.326,-0.848 -0.652,-1.696 -1.408,-3.677 -1.306,-3.433 -1.268,-3.367 -1.355,-3.651 -1.242,-3.408 -1.316,-3.693 -1.257,-3.625 -1.135,-3.382 -1.186,-3.668 -1.061,-3.423 -0.991,-3.357 -1.017,-3.641 -0.889,-3.398 -0.894,-3.683 -0.803,-3.616 -0.677,-3.372 -0.653,-3.658 -0.529,-3.414 -0.009,-0.057 -0.008,-0.058 -0.016,-0.116 -0.033,-0.231 -0.064,-0.462 -0.124,-0.925 -0.229,-1.85 -0.007,-0.056 -0.006,-0.057 -0.014,-0.114 -0.026,-0.227 -0.051,-0.454 -0.098,-0.908 -0.006,-0.056 -0.006,-0.057 -0.011,-0.114 -0.024,-0.227 -0.045,-0.453 -0.086,-0.908 -0.005,-0.053 -0.004,-0.053 -0.01,-0.106 -0.019,-0.212 -0.037,-0.423 -0.069,-0.847 -0.004,-0.053 -0.004,-0.053 -0.009,-0.106 -0.016,-0.212 -0.031,-0.423 -0.059,-0.848 -0.004,-0.057 -0.004,-0.057 -0.007,-0.115 -0.015,-0.23 -0.028,-0.459 -0.003,-0.057 -0.004,-0.058 -0.006,-0.114 -0.014,-0.23 -0.025,-0.459 -0.003,-0.058 -0.003,-0.057 -0.005,-0.115 -0.012,-0.229 -0.022,-0.46 -0.039,-0.918 -0.002,-0.053 -0.002,-0.054 -0.004,-0.107 -0.008,-0.215 -0.014,-0.428 -0.002,-0.054 -0.002,-0.053 -0.003,-0.108 -0.007,-0.214 -0.011,-0.429 -0.002,-0.053 -0.001,-0.054 -0.003,-0.107 -0.005,-0.214 -10e-4,-0.054 -0.001,-0.054 -0.003,-0.107 -0.004,-0.214 -10e-4,-0.054 -10e-4,-0.053 -0.002,-0.108 -0.004,-0.214 0,-0.053 -10e-4,-0.054 -0.002,-0.107 -0.003,-0.215 -0.001,-0.052 0,-0.053 -10e-4,-0.105 -0.001,-0.052 -10e-4,-0.053 -0.001,-0.105 0,-0.052 -10e-4,-0.053 -10e-4,-0.105 0,-0.053 0,-0.052 -0.001,-0.105 0,-0.053 -10e-4,-0.052 0,-0.053 0,-0.052 -0.001,-0.053 0,-0.052 0,-0.053 0,-0.052 0,-0.053 -10e-4,-0.053 0,-0.052 0,-0.053 0,-0.052 0,-0.053 0,-0.052 0,-0.053 0,-0.052 0,-0.053 0,-0.052 0,-0.053 0,-0.052 0,-0.053 0,-0.053 0,-0.052 10e-4,-0.053 0,-0.052 0,-0.053 0,-0.052 0,-0.053 0.001,-0.052 0,-0.105 10e-4,-0.053 0,-0.052 0.001,-0.105 0,-0.053 10e-4,-0.053 10e-4,-0.105 0,-0.052 0.001,-0.053 10e-4,-0.105 0.002,-0.21 0.001,-0.057 10e-4,-0.057 10e-4,-0.114 0.004,-0.228 10e-4,-0.057 0,-0.057 0.002,-0.114 0.005,-0.228 0.001,-0.057 10e-4,-0.057 0.002,-0.114 0.005,-0.228 0.011,-0.456 0.002,-0.057 10e-4,-0.057 0.004,-0.114 0.006,-0.228 0.014,-0.456 0.002,-0.057 0.002,-0.057 0.004,-0.114 0.008,-0.228 0.018,-0.456 0.002,-0.053 0.002,-0.053 0.004,-0.106 0.009,-0.213 0.02,-0.426 0.042,-0.851 0.003,-0.053 0.002,-0.053 0.006,-0.106 0.012,-0.213 0.024,-0.426 0.053,-0.851 0.004,-0.057 0.004,-0.058 0.008,-0.115 0.015,-0.231 0.033,-0.461 0.07,-0.922 0.004,-0.058 0.005,-0.057 0.009,-0.116 0.019,-0.23 0.039,-0.462 0.082,-0.922 0.005,-0.056 0.006,-0.057 0.01,-0.113 0.022,-0.227 0.044,-0.452 0.093,-0.906 0.203,-1.811 0.006,-0.053 0.006,-0.052 0.013,-0.106 0.026,-0.211 0.052,-0.422 0.107,-0.845 0.231,-1.689 0.567,-3.664 0.61,-3.419 0.67,-3.353 0.804,-3.638 0.819,-3.394 0.957,-3.679 0.955,-3.436 0.99,-3.369 1.128,-3.653 1.1,-3.41 1.238,-3.696 1.256,-3.628 1.205,-3.384 1.335,-3.67 1.271,-3.426 1.263,-3.358 1.385,-3.644 1.302,-3.4 0.023,-0.06 0.023,-0.059 0.045,-0.119 0.091,-0.237 0.183,-0.474 0.364,-0.949 0.023,-0.059 0.023,-0.06 0.045,-0.118 0.092,-0.238 0.182,-0.474 0.023,-0.059 0.023,-0.06 0.045,-0.118 0.092,-0.238 0.022,-0.059 0.023,-0.059 0.046,-0.119 0.023,-0.059 0.022,-0.059 0.023,-0.06 0.023,-0.059"
                         inkscape:connector-curvature="0" /><path
                         id="path3405"
                         style="fill:none;stroke:#426ab5;stroke-width:1.44000006;stroke-linecap:square;stroke-linejoin:miter;stroke-miterlimit:3.25;stroke-opacity:1;stroke-dasharray:none"
                         d="m 313.4,278.112 -0.038,-0.053 -0.039,-0.053 -0.077,-0.106 -0.153,-0.212 -0.307,-0.424 -0.614,-0.848 -1.227,-1.696 -2.657,-3.677 -2.471,-3.433 -2.409,-3.367 -2.591,-3.651 -2.393,-3.408 -2.559,-3.693 -2.47,-3.625 -2.26,-3.382 -2.393,-3.668 -2.173,-3.423 -2.062,-3.357 -2.153,-3.641 -1.916,-3.398 -1.965,-3.683 -1.798,-3.616 -1.548,-3.372 -1.52,-3.658 -1.255,-3.414 -0.02,-0.057 -0.02,-0.058 -0.039,-0.116 -0.078,-0.231 -0.154,-0.462 -0.298,-0.925 -0.556,-1.85 -0.016,-0.056 -0.016,-0.057 -0.032,-0.114 -0.064,-0.227 -0.125,-0.454 -0.239,-0.908 -0.015,-0.056 -0.014,-0.057 -0.029,-0.114 -0.057,-0.227 -0.111,-0.453 -0.211,-0.908 -0.012,-0.053 -0.012,-0.053 -0.024,-0.106 -0.046,-0.212 -0.091,-0.423 -0.172,-0.847 -0.01,-0.053 -0.011,-0.053 -0.02,-0.106 -0.04,-0.212 -0.078,-0.423 -0.147,-0.848 -0.009,-0.057 -0.01,-0.057 -0.018,-0.115 -0.037,-0.23 -0.07,-0.459 -0.009,-0.057 -0.008,-0.058 -0.017,-0.114 -0.033,-0.23 -0.062,-0.459 -0.008,-0.058 -0.007,-0.057 -0.015,-0.115 -0.029,-0.229 -0.054,-0.46 -0.098,-0.918 -0.005,-0.053 -0.005,-0.054 -0.01,-0.107 -0.02,-0.215 -0.037,-0.428 -0.004,-0.054 -0.004,-0.053 -0.009,-0.108 -0.016,-0.214 -0.03,-0.429 -0.003,-0.053 -0.004,-0.054 -0.006,-0.107 -0.013,-0.214 -0.003,-0.054 -0.003,-0.054 -0.006,-0.107 -0.011,-0.214 -0.003,-0.054 -0.002,-0.053 -0.005,-0.108 -0.009,-0.214 -0.002,-0.053 -0.003,-0.054 -0.004,-0.107 -0.007,-0.215 -0.002,-0.052 -10e-4,-0.053 -0.004,-0.105 -10e-4,-0.052 -0.001,-0.053 -0.003,-0.105 -10e-4,-0.052 -0.002,-0.053 -0.002,-0.105 -10e-4,-0.053 -0.001,-0.052 -0.002,-0.105 -10e-4,-0.053 -0.001,-0.052 0,-0.053 -10e-4,-0.052 -10e-4,-0.053 0,-0.052 -0.001,-0.053 0,-0.052 -10e-4,-0.053 0,-0.053 0,-0.052 -0.001,-0.053 0,-0.052 0,-0.053 0,-0.052 0,-0.053 0,-0.052 0,-0.053 0,-0.052 0,-0.053 0,-0.052 0,-0.053 0.001,-0.053 0,-0.052 10e-4,-0.053 0,-0.052 0,-0.053 0.001,-0.052 10e-4,-0.053 0,-0.052 0.002,-0.105 10e-4,-0.053 0.001,-0.052 10e-4,-0.105 0.002,-0.053 10e-4,-0.053 0.002,-0.105 0.001,-0.052 0.002,-0.053 0.002,-0.105 0.006,-0.21 0.002,-0.057 0.002,-0.057 0.004,-0.114 0.009,-0.228 0.002,-0.057 0.002,-0.057 0.005,-0.114 0.011,-0.228 0.003,-0.057 0.003,-0.057 0.006,-0.114 0.012,-0.228 0.028,-0.456 0.004,-0.057 0.004,-0.057 0.008,-0.114 0.016,-0.228 0.036,-0.456 0.005,-0.057 0.005,-0.057 0.01,-0.114 0.02,-0.228 0.044,-0.456 0.005,-0.053 0.006,-0.053 0.011,-0.106 0.022,-0.213 0.048,-0.426 0.106,-0.851 0.007,-0.053 0.007,-0.053 0.014,-0.106 0.029,-0.213 0.062,-0.426 0.132,-0.851 0.009,-0.057 0.01,-0.058 0.019,-0.115 0.039,-0.231 0.081,-0.461 0.173,-0.922 0.011,-0.058 0.012,-0.057 0.023,-0.116 0.046,-0.23 0.096,-0.462 0.204,-0.922 0.012,-0.056 0.013,-0.057 0.027,-0.113 0.053,-0.227 0.108,-0.452 0.228,-0.906 0.495,-1.811 0.016,-0.053 0.015,-0.052 0.031,-0.106 0.062,-0.211 0.126,-0.422 0.26,-0.845 0.554,-1.689 1.345,-3.664 1.421,-3.419 1.532,-3.353 1.804,-3.638 1.801,-3.394 2.066,-3.679 2.025,-3.436 2.062,-3.369 2.314,-3.653 2.222,-3.41 2.465,-3.696 2.472,-3.628 2.343,-3.384 2.574,-3.67 2.43,-3.426 2.402,-3.358 2.621,-3.644 2.456,-3.4 0.043,-0.06 0.043,-0.059 0.086,-0.119 0.172,-0.237 0.343,-0.474 0.687,-0.949 0.043,-0.059 0.043,-0.06 0.086,-0.118 0.171,-0.238 0.344,-0.474 0.043,-0.059 0.043,-0.06 0.086,-0.118 0.171,-0.238 0.043,-0.059 0.043,-0.059 0.086,-0.119 0.043,-0.059 0.043,-0.059 0.043,-0.06 0.043,-0.059"
                         inkscape:connector-curvature="0" /><path
                         id="path3407"
                         style="fill:none;stroke:#426ab5;stroke-width:1.44000006;stroke-linecap:square;stroke-linejoin:miter;stroke-miterlimit:3.25;stroke-opacity:1;stroke-dasharray:none"
                         d="m 313.4,278.112 -0.048,-0.053 -0.048,-0.053 -0.096,-0.106 -0.192,-0.212 -0.384,-0.424 -0.768,-0.848 -1.536,-1.696 -3.328,-3.677 -3.103,-3.433 -3.036,-3.367 -3.282,-3.651 -3.051,-3.408 -3.289,-3.693 -3.207,-3.625 -2.967,-3.382 -3.186,-3.668 -2.939,-3.423 -2.839,-3.357 -3.025,-3.641 -2.759,-3.398 -2.906,-3.683 -2.746,-3.616 -2.444,-3.372 -2.491,-3.658 -2.141,-3.414 -2.069,-3.699 -0.03,-0.056 -0.029,-0.057 -0.059,-0.114 -0.116,-0.227 -0.228,-0.454 -0.442,-0.908 -0.026,-0.056 -0.027,-0.057 -0.054,-0.114 -0.105,-0.227 -0.208,-0.453 -0.398,-0.908 -0.023,-0.053 -0.022,-0.053 -0.045,-0.106 -0.088,-0.212 -0.173,-0.423 -0.33,-0.847 -0.02,-0.053 -0.019,-0.053 -0.04,-0.106 -0.077,-0.212 -0.152,-0.423 -0.285,-0.848 -0.018,-0.057 -0.019,-0.057 -0.036,-0.115 -0.072,-0.23 -0.138,-0.459 -0.017,-0.057 -0.016,-0.058 -0.033,-0.114 -0.065,-0.23 -0.124,-0.459 -0.015,-0.058 -0.014,-0.057 -0.03,-0.115 -0.057,-0.229 -0.109,-0.46 -0.195,-0.918 -0.011,-0.053 -0.01,-0.054 -0.021,-0.107 -0.039,-0.215 -0.074,-0.428 -0.009,-0.054 -0.008,-0.053 -0.017,-0.108 -0.033,-0.214 -0.06,-0.429 -0.007,-0.053 -0.007,-0.054 -0.014,-0.107 -0.026,-0.214 -0.006,-0.054 -0.006,-0.054 -0.012,-0.107 -0.022,-0.214 -0.005,-0.054 -0.005,-0.053 -0.01,-0.108 -0.019,-0.214 -0.004,-0.053 -0.005,-0.054 -0.008,-0.107 -0.015,-0.215 -0.004,-0.052 -0.003,-0.053 -0.006,-0.105 -0.003,-0.052 -0.003,-0.053 -0.006,-0.105 -0.002,-0.052 -0.003,-0.053 -0.005,-0.105 -0.002,-0.053 -0.002,-0.052 -0.004,-0.105 -0.001,-0.053 -0.002,-0.052 -0.002,-0.053 -0.001,-0.052 -0.001,-0.053 -10e-4,-0.052 -0.002,-0.053 -0.001,-0.052 0,-0.053 -0.001,-0.053 -0.001,-0.052 0,-0.053 -10e-4,-0.052 0,-0.053 -0.001,-0.052 0,-0.053 0,-0.052 0,-0.053 0.001,-0.052 0,-0.053 0,-0.052 10e-4,-0.053 0,-0.053 0.001,-0.052 0.001,-0.053 0.001,-0.052 0.001,-0.053 0.001,-0.052 10e-4,-0.053 0.002,-0.052 0.003,-0.105 10e-4,-0.053 0.002,-0.052 0.004,-0.105 0.002,-0.053 0.003,-0.053 0.004,-0.105 0.003,-0.052 0.003,-0.053 0.005,-0.105 0.013,-0.21 0.003,-0.057 0.004,-0.057 0.008,-0.114 0.018,-0.228 0.004,-0.057 0.005,-0.057 0.01,-0.114 0.022,-0.228 0.005,-0.057 0.006,-0.057 0.012,-0.114 0.026,-0.228 0.057,-0.456 0.007,-0.057 0.008,-0.057 0.016,-0.114 0.033,-0.228 0.073,-0.456 0.01,-0.057 0.009,-0.057 0.02,-0.114 0.041,-0.228 0.088,-0.456 0.011,-0.053 0.011,-0.053 0.022,-0.106 0.045,-0.213 0.096,-0.426 0.21,-0.851 0.014,-0.053 0.014,-0.053 0.028,-0.106 0.058,-0.213 0.121,-0.426 0.259,-0.851 0.019,-0.057 0.018,-0.058 0.038,-0.115 0.076,-0.231 0.157,-0.461 0.335,-0.922 0.746,-1.845 0.025,-0.056 0.024,-0.057 0.049,-0.113 0.1,-0.227 0.204,-0.452 0.423,-0.906 0.908,-1.811 1.89,-3.378 2.295,-3.664 2.328,-3.419 2.424,-3.353 2.758,-3.638 2.67,-3.394 2.982,-3.679 2.85,-3.436 2.845,-3.369 3.132,-3.653 2.961,-3.41 3.24,-3.696 3.209,-3.628 3.013,-3.384 3.284,-3.67 3.079,-3.426 3.028,-3.358 3.293,-3.644 3.077,-3.4 0.054,-0.06 0.053,-0.059 0.108,-0.119 0.215,-0.237 0.429,-0.474 0.86,-0.949 0.054,-0.059 0.053,-0.06 0.108,-0.118 0.215,-0.238 0.429,-0.474 0.054,-0.059 0.054,-0.06 0.107,-0.118 0.215,-0.238 0.054,-0.059 0.054,-0.059 0.107,-0.119 0.054,-0.059 0.054,-0.059 0.053,-0.06 0.054,-0.059"
                         inkscape:connector-curvature="0" /></g></g></g></g></g></g></g></g></g><g
       id="g24906"
       transform="matrix(0.62151022,0,0,0.62151022,596.62787,-32.825802)"><g
         id="g24908"
         transform="matrix(0.64182857,0,0,-0.64182857,-112.32,337.5)"
         xml:space="preserve"
         stroke-miterlimit="10.433"
         font-style="normal"
         font-variant="normal"
         font-weight="normal"
         font-stretch="normal"
         font-size-adjust="none"
         letter-spacing="normal"
         word-spacing="normal"
         style="font-style:normal;font-variant:normal;font-weight:normal;font-stretch:normal;letter-spacing:normal;word-spacing:normal;text-anchor:start;fill:none;stroke:#000000;stroke-linecap:butt;stroke-linejoin:miter;stroke-miterlimit:10.43299961;stroke-opacity:1;stroke-dasharray:none;stroke-dashoffset:0"><path
           d="m 469.68,437.34 -0.01,0.09 0,0.09 -0.01,0.1 -0.02,0.08 -0.01,0.09 -0.03,0.09 -0.02,0.08 -0.03,0.08 -0.03,0.08 -0.04,0.08 -0.04,0.08 -0.05,0.07 -0.04,0.07 -0.06,0.07 -0.05,0.06 -0.06,0.06 -0.06,0.06 -0.06,0.06 -0.07,0.05 -0.07,0.05 -0.08,0.05 -0.07,0.04 -0.09,0.04 -0.08,0.04 -0.08,0.03 -0.09,0.03 -0.1,0.02 -0.09,0.02 -0.1,0.02 -0.1,0.01 -0.1,0 -0.11,0.01 c -1.36,0 -2.7,-1.3 -2.7,-2.64 0,-0.96 0.7,-1.8 1.91,-1.8 1.14,0 2.64,1.14 2.64,2.64 z"
           id="path24910"
           inkscape:connector-curvature="0"
           style="fill:#000000;stroke-width:0" /><path
           d="m 465.88,418.61 0.05,0.13 0.05,0.12 0.05,0.12 0.05,0.11 0.04,0.1 0.04,0.1 0.03,0.09 0.04,0.09 0.03,0.09 0.04,0.08 0.03,0.08 0.02,0.08 0.03,0.07 0.03,0.07 0.05,0.15 0.05,0.14 0.05,0.14 0.03,0.07 0.03,0.08 0.03,0.08 0.02,0.08 0.04,0.08 0.03,0.09 0.03,0.1 0.04,0.09 0.03,0.11 0.04,0.11 0.05,0.11 0.04,0.13 c 0.41,1 0.66,1.68 0.66,2.64 0,2.23 -1.59,4.07 -4.09,4.07 -4.68,0 -6.58,-7.21 -6.58,-7.67 0,-0.5 0.5,-0.5 0.61,-0.5 0.5,0 0.54,0.11 0.79,0.91 1.35,4.69 3.33,6.17 5.03,6.17 0.4,0 1.25,0 1.25,-1.59 0,-1.05 -0.35,-2.1 -0.56,-2.6 -0.39,-1.29 -2.64,-7.06 -3.44,-9.22 -0.48,-1.28 -1.14,-2.93 -1.14,-3.98 0,-2.33 1.69,-4.08 4.1,-4.08 4.67,0 6.51,7.22 6.51,7.67 0,0.5 -0.43,0.5 -0.59,0.5 -0.5,0 -0.5,-0.15 -0.75,-0.9 -0.89,-3.13 -2.53,-6.17 -5.08,-6.17 -0.84,0 -1.2,0.5 -1.2,1.64 0,1.25 0.31,1.95 1.45,4.98 z"
           id="path24912"
           inkscape:connector-curvature="0"
           style="fill:#000000;stroke-width:0" /><path
           d="m 488.82,432.07 h 10.66 c 0.45,0 1.28,0 1.28,0.85 0,0.86 -0.8,0.86 -1.28,0.86 h -10.66 v 10.7 c 0,0.45 0,1.28 -0.84,1.28 -0.88,0 -0.88,-0.8 -0.88,-1.28 v -10.7 h -10.69 c -0.45,0 -1.29,0 -1.29,-0.83 0,-0.88 0.79,-0.88 1.29,-0.88 h 10.69 v -10.7 c 0,-0.45 0,-1.28 0.85,-1.28 0.87,0 0.87,0.8 0.87,1.28 z"
           id="path24914"
           inkscape:connector-curvature="0"
           style="fill:#000000;stroke-width:0" /></g></g><g
       id="g25126"
       transform="matrix(0.74436474,0,0,0.74436474,574.21711,333.65474)"><g
         word-spacing="normal"
         letter-spacing="normal"
         font-size-adjust="none"
         font-stretch="normal"
         font-weight="normal"
         font-variant="normal"
         font-style="normal"
         stroke-miterlimit="10.433"
         xml:space="preserve"
         transform="matrix(0.64182857,0,0,-0.64182857,-112.32,337.5)"
         id="g25128"
         style="font-style:normal;font-variant:normal;font-weight:normal;font-stretch:normal;letter-spacing:normal;word-spacing:normal;text-anchor:start;fill:none;stroke:#000000;stroke-linecap:butt;stroke-linejoin:miter;stroke-miterlimit:10.43299961;stroke-opacity:1;stroke-dasharray:none;stroke-dashoffset:0"><path
           id="path25130"
           d="m 469.68,437.34 -0.01,0.09 0,0.09 -0.01,0.1 -0.02,0.08 -0.01,0.09 -0.03,0.09 -0.02,0.08 -0.03,0.08 -0.03,0.08 -0.04,0.08 -0.04,0.08 -0.05,0.07 -0.04,0.07 -0.06,0.07 -0.05,0.06 -0.06,0.06 -0.06,0.06 -0.06,0.06 -0.07,0.05 -0.07,0.05 -0.08,0.05 -0.07,0.04 -0.09,0.04 -0.08,0.04 -0.08,0.03 -0.09,0.03 -0.1,0.02 -0.09,0.02 -0.1,0.02 -0.1,0.01 -0.1,0 -0.11,0.01 c -1.36,0 -2.7,-1.3 -2.7,-2.64 0,-0.96 0.7,-1.8 1.91,-1.8 1.14,0 2.64,1.14 2.64,2.64 z"
           inkscape:connector-curvature="0"
           style="fill:#000000;stroke-width:0" /><path
           id="path25132"
           d="m 465.88,418.61 0.05,0.13 0.05,0.12 0.05,0.12 0.05,0.11 0.04,0.1 0.04,0.1 0.03,0.09 0.04,0.09 0.03,0.09 0.04,0.08 0.03,0.08 0.02,0.08 0.03,0.07 0.03,0.07 0.05,0.15 0.05,0.14 0.05,0.14 0.03,0.07 0.03,0.08 0.03,0.08 0.02,0.08 0.04,0.08 0.03,0.09 0.03,0.1 0.04,0.09 0.03,0.11 0.04,0.11 0.05,0.11 0.04,0.13 c 0.41,1 0.66,1.68 0.66,2.64 0,2.23 -1.59,4.07 -4.09,4.07 -4.68,0 -6.58,-7.21 -6.58,-7.67 0,-0.5 0.5,-0.5 0.61,-0.5 0.5,0 0.54,0.11 0.79,0.91 1.35,4.69 3.33,6.17 5.03,6.17 0.4,0 1.25,0 1.25,-1.59 0,-1.05 -0.35,-2.1 -0.56,-2.6 -0.39,-1.29 -2.64,-7.06 -3.44,-9.22 -0.48,-1.28 -1.14,-2.93 -1.14,-3.98 0,-2.33 1.69,-4.08 4.1,-4.08 4.67,0 6.51,7.22 6.51,7.67 0,0.5 -0.43,0.5 -0.59,0.5 -0.5,0 -0.5,-0.15 -0.75,-0.9 -0.89,-3.13 -2.53,-6.17 -5.08,-6.17 -0.84,0 -1.2,0.5 -1.2,1.64 0,1.25 0.31,1.95 1.45,4.98 z"
           inkscape:connector-curvature="0"
           style="fill:#000000;stroke-width:0" /><path
           id="path25134"
           d="m 498.6,432.07 0.06,0 0.05,0 0.11,0.01 0.12,0 0.06,0 0.06,0.01 0.05,0 0.06,0.01 0.06,0.01 0.06,0.01 0.06,0.01 0.05,0.01 0.05,0.02 0.06,0.02 0.05,0.02 0.05,0.02 0.05,0.03 0.04,0.03 0.04,0.03 0.04,0.04 0.04,0.04 0.02,0.02 0.01,0.02 0.02,0.02 0.01,0.03 0.02,0.02 0.01,0.03 0.01,0.02 0.02,0.03 0.01,0.03 0.01,0.03 0,0.03 0.01,0.03 0.01,0.04 0,0.03 0.01,0.03 0,0.04 0,0.04 0,0.04 c 0,0.86 -0.79,0.86 -1.39,0.86 h -20.76 c -0.57,0 -1.39,0 -1.39,-0.83 0,-0.88 0.79,-0.88 1.39,-0.88 z"
           inkscape:connector-curvature="0"
           style="fill:#000000;stroke-width:0" /></g></g><g
       id="g25356"
       transform="matrix(0.65775132,0,0,0.65775132,775.40416,152.13591)"><g
         id="g25358"
         transform="matrix(0.64182857,0,0,-0.64182857,-112.32,337.5)"
         xml:space="preserve"
         stroke-miterlimit="10.433"
         font-style="normal"
         font-variant="normal"
         font-weight="normal"
         font-stretch="normal"
         font-size-adjust="none"
         letter-spacing="normal"
         word-spacing="normal"
         style="font-style:normal;font-variant:normal;font-weight:normal;font-stretch:normal;letter-spacing:normal;word-spacing:normal;text-anchor:start;fill:none;stroke:#000000;stroke-linecap:butt;stroke-linejoin:miter;stroke-miterlimit:10.43299961;stroke-opacity:1;stroke-dasharray:none;stroke-dashoffset:0"><path
           d="m 469.68,437.34 -0.01,0.09 0,0.09 -0.01,0.1 -0.02,0.08 -0.01,0.09 -0.03,0.09 -0.02,0.08 -0.03,0.08 -0.03,0.08 -0.04,0.08 -0.04,0.08 -0.05,0.07 -0.04,0.07 -0.06,0.07 -0.05,0.06 -0.06,0.06 -0.06,0.06 -0.06,0.06 -0.07,0.05 -0.07,0.05 -0.08,0.05 -0.07,0.04 -0.09,0.04 -0.08,0.04 -0.08,0.03 -0.09,0.03 -0.1,0.02 -0.09,0.02 -0.1,0.02 -0.1,0.01 -0.1,0 -0.11,0.01 c -1.36,0 -2.7,-1.3 -2.7,-2.64 0,-0.96 0.7,-1.8 1.91,-1.8 1.14,0 2.64,1.14 2.64,2.64 z"
           id="path25360"
           inkscape:connector-curvature="0"
           style="fill:#000000;stroke-width:0" /><path
           d="m 465.88,418.61 0.05,0.13 0.05,0.12 0.05,0.12 0.05,0.11 0.04,0.1 0.04,0.1 0.03,0.09 0.04,0.09 0.03,0.09 0.04,0.08 0.03,0.08 0.02,0.08 0.03,0.07 0.03,0.07 0.05,0.15 0.05,0.14 0.05,0.14 0.03,0.07 0.03,0.08 0.03,0.08 0.02,0.08 0.04,0.08 0.03,0.09 0.03,0.1 0.04,0.09 0.03,0.11 0.04,0.11 0.05,0.11 0.04,0.13 c 0.41,1 0.66,1.68 0.66,2.64 0,2.23 -1.59,4.07 -4.09,4.07 -4.68,0 -6.58,-7.21 -6.58,-7.67 0,-0.5 0.5,-0.5 0.61,-0.5 0.5,0 0.54,0.11 0.79,0.91 1.35,4.69 3.33,6.17 5.03,6.17 0.4,0 1.25,0 1.25,-1.59 0,-1.05 -0.35,-2.1 -0.56,-2.6 -0.39,-1.29 -2.64,-7.06 -3.44,-9.22 -0.48,-1.28 -1.14,-2.93 -1.14,-3.98 0,-2.33 1.69,-4.08 4.1,-4.08 4.67,0 6.51,7.22 6.51,7.67 0,0.5 -0.43,0.5 -0.59,0.5 -0.5,0 -0.5,-0.15 -0.75,-0.9 -0.89,-3.13 -2.53,-6.17 -5.08,-6.17 -0.84,0 -1.2,0.5 -1.2,1.64 0,1.25 0.31,1.95 1.45,4.98 z"
           id="path25362"
           inkscape:connector-curvature="0"
           style="fill:#000000;stroke-width:0" /><path
           d="m 490.66,435.31 0,0.71 -0.02,0.68 -0.03,0.66 -0.04,0.64 -0.06,0.62 -0.07,0.59 -0.09,0.58 -0.11,0.56 -0.13,0.55 -0.15,0.52 -0.17,0.52 -0.19,0.5 -0.21,0.49 -0.24,0.48 -0.26,0.47 -0.14,0.23 -0.15,0.23 c -1.08,1.61 -3.23,3 -6.03,3 -8.08,0 -8.08,-9.52 -8.08,-12.03 0,-2.5 0,-11.81 8.08,-11.81 v 0.98 c -1.59,0 -3.72,0.94 -4.42,3.8 -0.49,2.04 -0.49,4.9 -0.49,7.48 0,2.55 0,5.2 0.52,7.11 0.73,2.75 2.97,3.49 4.39,3.49 1.89,0 3.7,-1.15 4.33,-3.18 0.56,-1.87 0.59,-4.39 0.59,-7.42 0,-2.58 0,-5.15 -0.45,-7.34 -0.7,-3.17 -3.06,-3.94 -4.47,-3.94 h 0 v -0.98 c 8.09,0 8.09,9.31 8.09,11.81 z"
           id="path25364"
           inkscape:connector-curvature="0"
           style="fill:#000000;stroke-width:0" /></g></g><g
       id="g25831"
       transform="matrix(0.68515762,0,0,0.68515762,691.98308,49.706487)"
       style="fill:#000000"><g
         id="g25833"
         transform="matrix(0.64182857,0,0,-0.64182857,-112.32,337.5)"
         xml:space="preserve"
         stroke-miterlimit="10.433"
         font-style="normal"
         font-variant="normal"
         font-weight="normal"
         font-stretch="normal"
         font-size-adjust="none"
         letter-spacing="normal"
         word-spacing="normal"
         style="font-style:normal;font-variant:normal;font-weight:normal;font-stretch:normal;letter-spacing:normal;word-spacing:normal;text-anchor:start;fill:#000000;stroke:#000000;stroke-linecap:butt;stroke-linejoin:miter;stroke-miterlimit:10.43299961;stroke-opacity:1;stroke-dasharray:none;stroke-dashoffset:0"><path
           d="m 486.16,440.23 -0.45,-0.01 -0.44,-0.02 -0.44,-0.03 -0.43,-0.04 -0.43,-0.06 -0.42,-0.06 -0.42,-0.08 -0.42,-0.08 -0.4,-0.1 -0.41,-0.1 -0.39,-0.11 -0.39,-0.12 -0.39,-0.13 -0.38,-0.13 -0.37,-0.14 -0.36,-0.14 -0.7,-0.3 -0.68,-0.32 -0.64,-0.33 -0.3,-0.16 -0.3,-0.17 -0.29,-0.17 -0.28,-0.16 -0.27,-0.17 -0.26,-0.17 -0.25,-0.16 -0.24,-0.16 -0.23,-0.16 -0.22,-0.16 c -5.44,-3.89 -6.03,-8.08 -6.03,-8.17 0,-0.34 0.29,-0.34 0.5,-0.34 1.14,0 3.37,1.39 3.68,2.28 1.64,5.28 5.22,7.42 10.11,7.42 h 6.63 c -5.49,-4.37 -7.77,-11.91 -11.06,-24.86 -1.19,-4.62 -4.24,-9.61 -9.27,-9.61 -3.89,0 -7.42,2.6 -7.42,6.92 0,1 0.25,1.85 0.25,2.05 0,0.14 -0.05,0.45 -0.5,0.45 -0.3,0 -1.46,-0.25 -2.85,-1.29 -0.59,-0.46 -1.14,-0.96 -1.14,-3.3 0,-4.58 3.49,-7.56 8.38,-7.56 4.23,0 8.26,2.39 10.7,4.48 4.58,3.92 5.49,7.56 6.38,11.11 1.84,7.22 4.23,16.28 7.97,20.47 0.79,0.89 1,1.05 2.15,1.14 2.24,0.16 3.92,1.84 3.92,2.39 0,0.31 -0.04,0.36 -1.14,0.36 z"
           id="path25835"
           inkscape:connector-curvature="0"
           style="fill:#000000;stroke-width:0" /><path
           d="m 514.62,432.07 h 10.66 c 0.45,0 1.28,0 1.28,0.85 0,0.86 -0.8,0.86 -1.28,0.86 h -10.66 v 10.7 c 0,0.45 0,1.28 -0.84,1.28 -0.88,0 -0.88,-0.8 -0.88,-1.28 v -10.7 h -10.69 c -0.45,0 -1.29,0 -1.29,-0.83 0,-0.88 0.79,-0.88 1.29,-0.88 h 10.69 v -10.7 c 0,-0.45 0,-1.28 0.85,-1.28 0.87,0 0.87,0.8 0.87,1.28 z"
           id="path25837"
           inkscape:connector-curvature="0"
           style="fill:#000000;stroke-width:0" /></g></g><g
       id="g26057"
       transform="matrix(0.68515762,0,0,0.68515762,471.81562,52.24115)"><g
         word-spacing="normal"
         letter-spacing="normal"
         font-size-adjust="none"
         font-stretch="normal"
         font-weight="normal"
         font-variant="normal"
         font-style="normal"
         stroke-miterlimit="10.433"
         xml:space="preserve"
         transform="matrix(0.64182857,0,0,-0.64182857,-112.32,337.5)"
         id="g26059"
         style="font-style:normal;font-variant:normal;font-weight:normal;font-stretch:normal;letter-spacing:normal;word-spacing:normal;text-anchor:start;fill:none;stroke:#000000;stroke-linecap:butt;stroke-linejoin:miter;stroke-miterlimit:10.43299961;stroke-opacity:1;stroke-dasharray:none;stroke-dashoffset:0"><path
           id="path26061"
           d="m 486.16,440.23 -0.45,-0.01 -0.44,-0.02 -0.44,-0.03 -0.43,-0.04 -0.43,-0.06 -0.42,-0.06 -0.42,-0.08 -0.42,-0.08 -0.4,-0.1 -0.41,-0.1 -0.39,-0.11 -0.39,-0.12 -0.39,-0.13 -0.38,-0.13 -0.37,-0.14 -0.36,-0.14 -0.7,-0.3 -0.68,-0.32 -0.64,-0.33 -0.3,-0.16 -0.3,-0.17 -0.29,-0.17 -0.28,-0.16 -0.27,-0.17 -0.26,-0.17 -0.25,-0.16 -0.24,-0.16 -0.23,-0.16 -0.22,-0.16 c -5.44,-3.89 -6.03,-8.08 -6.03,-8.17 0,-0.34 0.29,-0.34 0.5,-0.34 1.14,0 3.37,1.39 3.68,2.28 1.64,5.28 5.22,7.42 10.11,7.42 h 6.63 c -5.49,-4.37 -7.77,-11.91 -11.06,-24.86 -1.19,-4.62 -4.24,-9.61 -9.27,-9.61 -3.89,0 -7.42,2.6 -7.42,6.92 0,1 0.25,1.85 0.25,2.05 0,0.14 -0.05,0.45 -0.5,0.45 -0.3,0 -1.46,-0.25 -2.85,-1.29 -0.59,-0.46 -1.14,-0.96 -1.14,-3.3 0,-4.58 3.49,-7.56 8.38,-7.56 4.23,0 8.26,2.39 10.7,4.48 4.58,3.92 5.49,7.56 6.38,11.11 1.84,7.22 4.23,16.28 7.97,20.47 0.79,0.89 1,1.05 2.15,1.14 2.24,0.16 3.92,1.84 3.92,2.39 0,0.31 -0.04,0.36 -1.14,0.36 z"
           inkscape:connector-curvature="0"
           style="fill:#000000;stroke-width:0" /><path
           id="path26063"
           d="m 514.62,432.07 h 10.66 c 0.45,0 1.28,0 1.28,0.85 0,0.86 -0.8,0.86 -1.28,0.86 h -10.66 v 10.7 c 0,0.45 0,1.28 -0.84,1.28 -0.88,0 -0.88,-0.8 -0.88,-1.28 v -10.7 h -10.69 c -0.45,0 -1.29,0 -1.29,-0.83 0,-0.88 0.79,-0.88 1.29,-0.88 h 10.69 v -10.7 c 0,-0.45 0,-1.28 0.85,-1.28 0.87,0 0.87,0.8 0.87,1.28 z"
           inkscape:connector-curvature="0"
           style="fill:#000000;stroke-width:0" /></g></g><g
       id="g26291"
       transform="matrix(0.77999922,0,0,0.77999922,447.03851,238.76492)"><g
         id="g26293"
         transform="matrix(0.64182857,0,0,-0.64182857,-112.32,337.5)"
         xml:space="preserve"
         stroke-miterlimit="10.433"
         font-style="normal"
         font-variant="normal"
         font-weight="normal"
         font-stretch="normal"
         font-size-adjust="none"
         letter-spacing="normal"
         word-spacing="normal"
         style="font-style:normal;font-variant:normal;font-weight:normal;font-stretch:normal;letter-spacing:normal;word-spacing:normal;text-anchor:start;fill:none;stroke:#000000;stroke-linecap:butt;stroke-linejoin:miter;stroke-miterlimit:10.43299961;stroke-opacity:1;stroke-dasharray:none;stroke-dashoffset:0"><path
           d="m 486.16,440.23 -0.45,-0.01 -0.44,-0.02 -0.44,-0.03 -0.43,-0.04 -0.43,-0.06 -0.42,-0.06 -0.42,-0.08 -0.42,-0.08 -0.4,-0.1 -0.41,-0.1 -0.39,-0.11 -0.39,-0.12 -0.39,-0.13 -0.38,-0.13 -0.37,-0.14 -0.36,-0.14 -0.7,-0.3 -0.68,-0.32 -0.64,-0.33 -0.3,-0.16 -0.3,-0.17 -0.29,-0.17 -0.28,-0.16 -0.27,-0.17 -0.26,-0.17 -0.25,-0.16 -0.24,-0.16 -0.23,-0.16 -0.22,-0.16 c -5.44,-3.89 -6.03,-8.08 -6.03,-8.17 0,-0.34 0.29,-0.34 0.5,-0.34 1.14,0 3.37,1.39 3.68,2.28 1.64,5.28 5.22,7.42 10.11,7.42 h 6.63 c -5.49,-4.37 -7.77,-11.91 -11.06,-24.86 -1.19,-4.62 -4.24,-9.61 -9.27,-9.61 -3.89,0 -7.42,2.6 -7.42,6.92 0,1 0.25,1.85 0.25,2.05 0,0.14 -0.05,0.45 -0.5,0.45 -0.3,0 -1.46,-0.25 -2.85,-1.29 -0.59,-0.46 -1.14,-0.96 -1.14,-3.3 0,-4.58 3.49,-7.56 8.38,-7.56 4.23,0 8.26,2.39 10.7,4.48 4.58,3.92 5.49,7.56 6.38,11.11 1.84,7.22 4.23,16.28 7.97,20.47 0.79,0.89 1,1.05 2.15,1.14 2.24,0.16 3.92,1.84 3.92,2.39 0,0.31 -0.04,0.36 -1.14,0.36 z"
           id="path26295"
           inkscape:connector-curvature="0"
           style="fill:#000000;stroke-width:0" /><path
           d="m 524.4,432.07 0.06,0 0.05,0 0.11,0.01 0.12,0 0.06,0 0.06,0.01 0.06,0 0.05,0.01 0.06,0.01 0.06,0.01 0.06,0.01 0.05,0.01 0.06,0.02 0.05,0.02 0.05,0.02 0.05,0.02 0.05,0.03 0.04,0.03 0.04,0.03 0.04,0.04 0.04,0.04 0.02,0.02 0.01,0.02 0.02,0.02 0.02,0.03 0.01,0.02 0.01,0.03 0.02,0.02 0.01,0.03 0.01,0.03 0.01,0.03 0,0.03 0.01,0.03 0.01,0.04 0,0.03 0.01,0.03 0,0.04 0,0.04 0,0.04 c 0,0.86 -0.79,0.86 -1.39,0.86 h -20.76 c -0.57,0 -1.39,0 -1.39,-0.83 0,-0.88 0.79,-0.88 1.39,-0.88 z"
           id="path26297"
           inkscape:connector-curvature="0"
           style="fill:#000000;stroke-width:0" /></g></g><g
       id="g26533"
       transform="matrix(0.77999922,0,0,0.77999922,664.78676,239.77135)"><g
         word-spacing="normal"
         letter-spacing="normal"
         font-size-adjust="none"
         font-stretch="normal"
         font-weight="normal"
         font-variant="normal"
         font-style="normal"
         stroke-miterlimit="10.433"
         xml:space="preserve"
         transform="matrix(0.64182857,0,0,-0.64182857,-112.32,337.5)"
         id="g26535"
         style="font-style:normal;font-variant:normal;font-weight:normal;font-stretch:normal;letter-spacing:normal;word-spacing:normal;text-anchor:start;fill:none;stroke:#000000;stroke-linecap:butt;stroke-linejoin:miter;stroke-miterlimit:10.43299961;stroke-opacity:1;stroke-dasharray:none;stroke-dashoffset:0"><path
           id="path26537"
           d="m 486.16,440.23 -0.45,-0.01 -0.44,-0.02 -0.44,-0.03 -0.43,-0.04 -0.43,-0.06 -0.42,-0.06 -0.42,-0.08 -0.42,-0.08 -0.4,-0.1 -0.41,-0.1 -0.39,-0.11 -0.39,-0.12 -0.39,-0.13 -0.38,-0.13 -0.37,-0.14 -0.36,-0.14 -0.7,-0.3 -0.68,-0.32 -0.64,-0.33 -0.3,-0.16 -0.3,-0.17 -0.29,-0.17 -0.28,-0.16 -0.27,-0.17 -0.26,-0.17 -0.25,-0.16 -0.24,-0.16 -0.23,-0.16 -0.22,-0.16 c -5.44,-3.89 -6.03,-8.08 -6.03,-8.17 0,-0.34 0.29,-0.34 0.5,-0.34 1.14,0 3.37,1.39 3.68,2.28 1.64,5.28 5.22,7.42 10.11,7.42 h 6.63 c -5.49,-4.37 -7.77,-11.91 -11.06,-24.86 -1.19,-4.62 -4.24,-9.61 -9.27,-9.61 -3.89,0 -7.42,2.6 -7.42,6.92 0,1 0.25,1.85 0.25,2.05 0,0.14 -0.05,0.45 -0.5,0.45 -0.3,0 -1.46,-0.25 -2.85,-1.29 -0.59,-0.46 -1.14,-0.96 -1.14,-3.3 0,-4.58 3.49,-7.56 8.38,-7.56 4.23,0 8.26,2.39 10.7,4.48 4.58,3.92 5.49,7.56 6.38,11.11 1.84,7.22 4.23,16.28 7.97,20.47 0.79,0.89 1,1.05 2.15,1.14 2.24,0.16 3.92,1.84 3.92,2.39 0,0.31 -0.04,0.36 -1.14,0.36 z"
           inkscape:connector-curvature="0"
           style="fill:#000000;stroke-width:0" /><path
           id="path26539"
           d="m 524.4,432.07 0.06,0 0.05,0 0.11,0.01 0.12,0 0.06,0 0.06,0.01 0.06,0 0.05,0.01 0.06,0.01 0.06,0.01 0.06,0.01 0.05,0.01 0.06,0.02 0.05,0.02 0.05,0.02 0.05,0.02 0.05,0.03 0.04,0.03 0.04,0.03 0.04,0.04 0.04,0.04 0.02,0.02 0.01,0.02 0.02,0.02 0.02,0.03 0.01,0.02 0.01,0.03 0.02,0.02 0.01,0.03 0.01,0.03 0.01,0.03 0,0.03 0.01,0.03 0.01,0.04 0,0.03 0.01,0.03 0,0.04 0,0.04 0,0.04 c 0,0.86 -0.79,0.86 -1.39,0.86 h -20.76 c -0.57,0 -1.39,0 -1.39,-0.83 0,-0.88 0.79,-0.88 1.39,-0.88 z"
           inkscape:connector-curvature="0"
           style="fill:#000000;stroke-width:0" /></g></g><g
       id="g25596"
       transform="matrix(0.65775132,0,0,0.65775132,402.92412,152.57998)"><g
         word-spacing="normal"
         letter-spacing="normal"
         font-size-adjust="none"
         font-stretch="normal"
         font-weight="normal"
         font-variant="normal"
         font-style="normal"
         stroke-miterlimit="10.433"
         xml:space="preserve"
         transform="matrix(0.64182857,0,0,-0.64182857,-112.32,337.5)"
         id="g25598"
         style="font-style:normal;font-variant:normal;font-weight:normal;font-stretch:normal;letter-spacing:normal;word-spacing:normal;text-anchor:start;fill:none;stroke:#000000;stroke-linecap:butt;stroke-linejoin:miter;stroke-miterlimit:10.43299961;stroke-opacity:1;stroke-dasharray:none;stroke-dashoffset:0"><path
           id="path25600"
           d="m 469.68,437.34 -0.01,0.09 0,0.09 -0.01,0.1 -0.02,0.08 -0.01,0.09 -0.03,0.09 -0.02,0.08 -0.03,0.08 -0.03,0.08 -0.04,0.08 -0.04,0.08 -0.05,0.07 -0.04,0.07 -0.06,0.07 -0.05,0.06 -0.06,0.06 -0.06,0.06 -0.06,0.06 -0.07,0.05 -0.07,0.05 -0.08,0.05 -0.07,0.04 -0.09,0.04 -0.08,0.04 -0.08,0.03 -0.09,0.03 -0.1,0.02 -0.09,0.02 -0.1,0.02 -0.1,0.01 -0.1,0 -0.11,0.01 c -1.36,0 -2.7,-1.3 -2.7,-2.64 0,-0.96 0.7,-1.8 1.91,-1.8 1.14,0 2.64,1.14 2.64,2.64 z"
           inkscape:connector-curvature="0"
           style="fill:#000000;stroke-width:0" /><path
           id="path25602"
           d="m 465.88,418.61 0.05,0.13 0.05,0.12 0.05,0.12 0.05,0.11 0.04,0.1 0.04,0.1 0.03,0.09 0.04,0.09 0.03,0.09 0.04,0.08 0.03,0.08 0.02,0.08 0.03,0.07 0.03,0.07 0.05,0.15 0.05,0.14 0.05,0.14 0.03,0.07 0.03,0.08 0.03,0.08 0.02,0.08 0.04,0.08 0.03,0.09 0.03,0.1 0.04,0.09 0.03,0.11 0.04,0.11 0.05,0.11 0.04,0.13 c 0.41,1 0.66,1.68 0.66,2.64 0,2.23 -1.59,4.07 -4.09,4.07 -4.68,0 -6.58,-7.21 -6.58,-7.67 0,-0.5 0.5,-0.5 0.61,-0.5 0.5,0 0.54,0.11 0.79,0.91 1.35,4.69 3.33,6.17 5.03,6.17 0.4,0 1.25,0 1.25,-1.59 0,-1.05 -0.35,-2.1 -0.56,-2.6 -0.39,-1.29 -2.64,-7.06 -3.44,-9.22 -0.48,-1.28 -1.14,-2.93 -1.14,-3.98 0,-2.33 1.69,-4.08 4.1,-4.08 4.67,0 6.51,7.22 6.51,7.67 0,0.5 -0.43,0.5 -0.59,0.5 -0.5,0 -0.5,-0.15 -0.75,-0.9 -0.89,-3.13 -2.53,-6.17 -5.08,-6.17 -0.84,0 -1.2,0.5 -1.2,1.64 0,1.25 0.31,1.95 1.45,4.98 z"
           inkscape:connector-curvature="0"
           style="fill:#000000;stroke-width:0" /><path
           id="path25604"
           d="m 490.66,435.31 0,0.71 -0.02,0.68 -0.03,0.66 -0.04,0.64 -0.06,0.62 -0.07,0.59 -0.09,0.58 -0.11,0.56 -0.13,0.55 -0.15,0.52 -0.17,0.52 -0.19,0.5 -0.21,0.49 -0.24,0.48 -0.26,0.47 -0.14,0.23 -0.15,0.23 c -1.08,1.61 -3.23,3 -6.03,3 -8.08,0 -8.08,-9.52 -8.08,-12.03 0,-2.5 0,-11.81 8.08,-11.81 v 0.98 c -1.59,0 -3.72,0.94 -4.42,3.8 -0.49,2.04 -0.49,4.9 -0.49,7.48 0,2.55 0,5.2 0.52,7.11 0.73,2.75 2.97,3.49 4.39,3.49 1.89,0 3.7,-1.15 4.33,-3.18 0.56,-1.87 0.59,-4.39 0.59,-7.42 0,-2.58 0,-5.15 -0.45,-7.34 -0.7,-3.17 -3.06,-3.94 -4.47,-3.94 h 0 v -0.98 c 8.09,0 8.09,9.31 8.09,11.81 z"
           inkscape:connector-curvature="0"
           style="fill:#000000;stroke-width:0" /></g></g></g></svg>