<?xml version="1.0" encoding="UTF-8" standalone="no"?>
<!-- Created with Inkscape (http://www.inkscape.org/) -->

<svg
   xmlns:dc="http://purl.org/dc/elements/1.1/"
   xmlns:cc="http://creativecommons.org/ns#"
   xmlns:rdf="http://www.w3.org/1999/02/22-rdf-syntax-ns#"
   xmlns:svg="http://www.w3.org/2000/svg"
   xmlns="http://www.w3.org/2000/svg"
   xmlns:sodipodi="http://sodipodi.sourceforge.net/DTD/sodipodi-0.dtd"
   xmlns:inkscape="http://www.inkscape.org/namespaces/inkscape"
   id="svg3004"
   version="1.1"
   inkscape:version="0.48.2 r9819"
   width="478.10098"
   height="295.71017"
   xml:space="preserve"
   sodipodi:docname="Rt.pdf"><sodipodi:namedview
     pagecolor="#ffffff"
     bordercolor="#666666"
     borderopacity="1"
     objecttolerance="10"
     gridtolerance="10"
     guidetolerance="10"
     inkscape:pageopacity="0"
     inkscape:pageshadow="2"
     inkscape:window-width="1170"
     inkscape:window-height="615"
     id="namedview3006"
     showgrid="false"
     inkscape:zoom="1.22"
     inkscape:cx="232.23295"
     inkscape:cy="152.63365"
     inkscape:window-x="0"
     inkscape:window-y="0"
     inkscape:window-maximized="0"
     inkscape:current-layer="g3012"
     fit-margin-top="0"
     fit-margin-left="0"
     fit-margin-right="0"
     fit-margin-bottom="0" /><metadata
     id="metadata3010"><rdf:RDF><cc:Work
         rdf:about=""><dc:format>image/svg+xml</dc:format><dc:type
           rdf:resource="http://purl.org/dc/dcmitype/StillImage" /><dc:title></dc:title></cc:Work></rdf:RDF></metadata><defs
     id="defs3008"><marker
       inkscape:stockid="Arrow1Mend"
       orient="auto"
       refY="0"
       refX="0"
       id="Arrow1Mend"
       style="overflow:visible"><path
         id="path3924"
         d="M 0,0 5,-5 -12.5,0 5,5 0,0 z"
         style="fill-rule:evenodd;stroke:#000000;stroke-width:1pt;marker-start:none"
         transform="matrix(-0.4,0,0,-0.4,-4,0)"
         inkscape:connector-curvature="0" /></marker><clipPath
       clipPathUnits="userSpaceOnUse"
       id="clipPath3016"><path
         d="m 47,12 0,199 360,0 0,-199"
         clip-rule="evenodd"
         id="path3018"
         inkscape:connector-curvature="0" /></clipPath><clipPath
       clipPathUnits="userSpaceOnUse"
       id="clipPath3028"><path
         d="m 0,4 0,215 535,0 0,-215"
         clip-rule="evenodd"
         id="path3030"
         inkscape:connector-curvature="0" /></clipPath><clipPath
       clipPathUnits="userSpaceOnUse"
       id="clipPath3042"><path
         d="m 45,10 0,203 364,0 0,-203"
         clip-rule="evenodd"
         id="path3044"
         inkscape:connector-curvature="0" /></clipPath><clipPath
       clipPathUnits="userSpaceOnUse"
       id="clipPath3052"><path
         d="m 47,12 0,180 360,0 0,-180"
         clip-rule="evenodd"
         id="path3054"
         inkscape:connector-curvature="0" /></clipPath><clipPath
       clipPathUnits="userSpaceOnUse"
       id="clipPath3060"><path
         d="m 47,12 0,180 360,0 0,-180"
         clip-rule="evenodd"
         id="path3062"
         inkscape:connector-curvature="0" /></clipPath><clipPath
       clipPathUnits="userSpaceOnUse"
       id="clipPath3068"><path
         d="m 47,12 0,180 360,0 0,-180"
         clip-rule="evenodd"
         id="path3070"
         inkscape:connector-curvature="0" /></clipPath><clipPath
       clipPathUnits="userSpaceOnUse"
       id="clipPath3082"><path
         d="m 106,194 0,18 2,0 0,-18"
         clip-rule="evenodd"
         id="path3084"
         inkscape:connector-curvature="0" /></clipPath><clipPath
       clipPathUnits="userSpaceOnUse"
       id="clipPath3094"><path
         d="m -2.24,-2 0,20 4,0 0,-20"
         clip-rule="evenodd"
         id="path3096"
         inkscape:connector-curvature="0" /></clipPath><clipPath
       clipPathUnits="userSpaceOnUse"
       id="clipPath3108"><path
         d="m 346,194 0,18 2,0 0,-18"
         clip-rule="evenodd"
         id="path3110"
         inkscape:connector-curvature="0" /></clipPath><clipPath
       clipPathUnits="userSpaceOnUse"
       id="clipPath3120"><path
         d="m -1.76,-2 0,20 4,0 0,-20"
         clip-rule="evenodd"
         id="path3122"
         inkscape:connector-curvature="0" /></clipPath><clipPath
       clipPathUnits="userSpaceOnUse"
       id="clipPath3138"><path
         d="m 47,12 0,180 360,0 0,-180"
         clip-rule="evenodd"
         id="path3140"
         inkscape:connector-curvature="0" /></clipPath><clipPath
       id="clipPath4597"
       clipPathUnits="userSpaceOnUse"><path
         id="path4599"
         clip-rule="evenodd"
         d="m 45,10 0,184 364,0 0,-184"
         inkscape:connector-curvature="0" /></clipPath><clipPath
       id="clipPath4583"
       clipPathUnits="userSpaceOnUse"><path
         id="path4585"
         clip-rule="evenodd"
         d="m 0,4 0,196 535,0 0,-196"
         inkscape:connector-curvature="0" /></clipPath><clipPath
       id="clipPath4571"
       clipPathUnits="userSpaceOnUse"><path
         id="path4573"
         clip-rule="evenodd"
         d="m 47,12 0,180 360,0 0,-180"
         inkscape:connector-curvature="0" /></clipPath></defs><g
     id="g3012"
     inkscape:groupmode="layer"
     inkscape:label="Rt"
     transform="matrix(1.25,0,0,1.25,-52.565766,12.158226)"><g
       inkscape:label="Rt"
       id="g4567"
       transform="translate(0.97319056,4.8443927)"><g
         clip-path="url(#clipPath4571)"
         id="g4569"><g
           id="g4575" /><g
           id="g4577"><g
             id="g4579"><g
               clip-path="url(#clipPath4583)"
               id="g4581"><g
                 id="g4587"><path
                   id="path4589"
                   style="fill:#ffffff;fill-opacity:1;fill-rule:evenodd;stroke:none"
                   d="M 39,4 487,4 487,200 39,200 39,4 z"
                   inkscape:connector-curvature="0" /></g></g></g><g
             id="g4591"><g
               id="g4593"><g
                 clip-path="url(#clipPath4597)"
                 id="g4595"><g
                   id="g4601"><g
                     id="g4603" /><g
                     id="g4605" /><g
                     id="g4607"><path
                       id="path4609"
                       style="fill:none;stroke:#426ab5;stroke-width:1.79999995;stroke-linecap:square;stroke-linejoin:miter;stroke-miterlimit:3.25;stroke-opacity:1;stroke-dasharray:none"
                       d="m 89.648,12 0.096,3.315 0.099,3.147 0.098,3.097 0.197,6.045 0.393,11.522 0.098,2.766 0.099,2.722 0.196,5.313 0.394,10.121 0.098,2.429 0.099,2.389 0.196,4.664 0.394,8.879 0.787,16.091 0.098,1.864 0.098,1.834 0.197,3.576 0.393,6.8 0.099,1.629 0.098,1.601 0.197,3.122 0.393,5.931 0.099,1.42 0.098,1.395 0.197,2.718 0.393,5.158 0.787,9.276 0.092,0.997 0.091,0.98 0.184,1.91 0.367,3.628 0.092,0.868 0.091,0.853 0.184,1.662 0.367,3.15 0.091,0.752 0.092,0.739 0.184,1.439 0.367,2.721 0.734,4.862 0.091,0.556 0.092,0.545 0.184,1.059 0.367,1.993 0.091,0.473 0.092,0.463 0.184,0.897 0.366,1.684 0.092,0.398 0.092,0.39 0.183,0.753 0.367,1.407 0.092,0.331 0.092,0.324 0.183,0.624 0.367,1.158 0.1,0.294 0.099,0.286 0.199,0.547 0.1,0.262 0.099,0.254 0.199,0.485 0.1,0.231 0.099,0.224 0.199,0.426 0.398,0.769 0.1,0.176 0.099,0.169 0.199,0.319 0.099,0.15 0.1,0.144 0.199,0.271 0.099,0.126 0.1,0.12 0.199,0.225 0.099,0.104 0.1,0.098 0.199,0.181 0.099,0.083 0.1,0.077 0.099,0.073 0.1,0.068 0.099,0.063 0.1,0.058 0.099,0.053 0.1,0.049 0.099,0.044 0.1,0.04 0.099,0.035 0.1,0.031 0.099,0.027 0.1,0.023 0.099,0.018 0.1,0.015 0.099,0.01 0.099,0.006 0.1,0.003 0.099,-0.001 0.1,-0.005 0.099,-0.009 0.1,-0.013 0.099,-0.015 0.1,-0.02 0.099,-0.023 0.1,-0.026 0.099,-0.03 0.1,-0.033 0.099,-0.036 0.199,-0.082 0.093,-0.042 0.093,-0.046 0.186,-0.098 0.093,-0.052 0.092,-0.056 0.186,-0.118 0.093,-0.062 0.093,-0.065 0.186,-0.137 0.371,-0.299 0.093,-0.08 0.093,-0.082 0.186,-0.171 0.371,-0.364 0.743,-0.813 0.093,-0.109 0.093,-0.11 0.186,-0.226 0.371,-0.469 0.743,-1.003 1.486,-2.221 0.091,-0.144 0.091,-0.145 0.182,-0.292 0.364,-0.593 0.729,-1.217 1.456,-2.538 2.914,-5.312 6.322,-11.498 0.092,-0.161 0.092,-0.16 0.185,-0.32 0.368,-0.637 0.738,-1.258 1.475,-2.454 2.949,-4.632 0.1,-0.15 0.1,-0.15 0.2,-0.298 0.4,-0.59 0.799,-1.158 1.598,-2.227 0.1,-0.135 0.1,-0.135 0.2,-0.268 0.4,-0.53 0.799,-1.037 1.599,-1.984 0.098,-0.118 0.098,-0.117 0.196,-0.234 0.392,-0.461 0.785,-0.901 1.569,-1.716 0.099,-0.104 0.098,-0.103 0.196,-0.205 0.392,-0.404 0.785,-0.788 1.569,-1.495 0.092,-0.084 0.091,-0.083 0.183,-0.166 0.366,-0.327 0.732,-0.638 1.463,-1.208 0.092,-0.072 0.091,-0.072 0.183,-0.144 0.366,-0.283 0.732,-0.549 1.464,-1.036 0.099,-0.067 0.099,-0.067 0.199,-0.133 0.396,-0.26 0.794,-0.504 1.588,-0.939 0.099,-0.056 0.099,-0.055 0.198,-0.11 0.397,-0.215 0.794,-0.415 1.587,-0.766 0.093,-0.042 0.093,-0.042 0.185,-0.082 0.37,-0.163 0.741,-0.312 0.093,-0.038 0.092,-0.037 0.186,-0.074 0.37,-0.146 0.741,-0.278 0.092,-0.034 0.093,-0.033 0.185,-0.066 0.371,-0.129 0.74,-0.246 1.482,-0.447 0.101,-0.028 0.1,-0.027 0.201,-0.055 0.401,-0.106 0.803,-0.2 0.1,-0.024 0.1,-0.023 0.201,-0.046 0.401,-0.09 0.803,-0.166 0.101,-0.02 0.1,-0.02 0.201,-0.038 0.401,-0.073 0.1,-0.018 0.101,-0.018 0.2,-0.034 0.402,-0.066 0.1,-0.016 0.1,-0.015 0.201,-0.031 0.401,-0.058 0.803,-0.106 0.099,-0.012 0.098,-0.011 0.197,-0.023 0.394,-0.044 0.099,-0.01 0.098,-0.01 0.197,-0.019 0.395,-0.037 0.098,-0.008 0.099,-0.009 0.197,-0.016 0.394,-0.03 0.098,-0.007 0.099,-0.007 0.197,-0.013 0.394,-0.024 0.098,-0.005 0.099,-0.005 0.197,-0.01 0.098,-0.005 0.099,-0.004 0.197,-0.008 0.098,-0.004 0.099,-0.004 0.098,-0.004 0.099,-0.003 0.099,-0.003 0.098,-0.003 0.197,-0.005 0.099,-0.003 0.098,-0.002 0.099,-0.002 0.098,-0.002 0.099,-0.001 0.098,-0.002 0.099,-0.001 0.098,-0.001 0.099,-10e-4 0.098,-0.001 0.099,0 0.098,-10e-4 0.099,0 0.098,0 0.099,0 0.098,0 0.092,10e-4 0.092,0 0.092,0.001 0.092,10e-4 0.092,0.001 0.092,0.001 0.092,0.002 0.092,0.001 0.092,0.002 0.091,0.002 0.092,0.002 0.092,0.002 0.092,0.002 0.092,0.002 0.184,0.006 0.092,0.003 0.092,0.003 0.184,0.006 0.091,0.003 0.092,0.004 0.184,0.007 0.092,0.004 0.092,0.005 0.184,0.008 0.367,0.019 0.092,0.005 0.092,0.006 0.184,0.011 0.368,0.023 0.092,0.006 0.091,0.007 0.184,0.013 0.368,0.027 0.092,0.008 0.092,0.007 0.184,0.015 0.367,0.032 0.735,0.07 0.1,0.011 0.1,0.01 0.199,0.021 0.399,0.043 0.797,0.095 0.099,0.012 0.1,0.013 0.199,0.025 0.399,0.053 0.797,0.112 0.1,0.014 0.099,0.015 0.2,0.03 0.398,0.061 0.797,0.129 1.595,0.28 0.093,0.018 0.093,0.017 0.186,0.035 0.372,0.072 0.744,0.148 1.489,0.315 2.977,0.699 0.091,0.023 0.092,0.023 0.182,0.046 0.365,0.093 0.73,0.189 1.459,0.394 2.919,0.842 6.332,2.045 5.91,2.129 6.405,2.495 6.288,2.594 5.865,2.515 6.36,2.803 5.938,2.664 5.82,2.641 6.316,2.88 5.892,2.689 6.388,2.907 5.965,2.697 5.848,2.622 6.343,2.814 5.921,2.593 6.415,2.771 6.299,2.676 5.875,2.456 6.371,2.617 5.948,2.4 5.831,2.309 6.326,2.459 5.903,2.249 0.103,0.039 0.103,0.039 0.206,0.077 0.412,0.155 0.824,0.31 1.647,0.617 0.103,0.038 0.103,0.039 0.206,0.076 0.412,0.154 0.824,0.306 0.103,0.038 0.102,0.038 0.206,0.077 0.412,0.152 0.103,0.038 0.103,0.039 0.206,0.076 0.103,0.038 0.103,0.038 0.103,0.038 0.103,0.038"
                       inkscape:connector-curvature="0" /></g><g
                     id="g4611" /></g></g></g></g></g></g></g><path
       style="fill:none;stroke:#000000;stroke-width:1.5;stroke-linecap:butt;stroke-linejoin:miter;stroke-miterlimit:4;stroke-opacity:1;stroke-dasharray:none;marker-end:url(#Arrow1Mend)"
       d="M 0,224.10385 0,-0.35220434"
       id="path3142"
       inkscape:connector-curvature="0"
       transform="matrix(0.8,0,0,0.8,47,12)" /><path
       style="fill:none;stroke:#000000;stroke-width:1.5;stroke-linecap:butt;stroke-linejoin:miter;stroke-miterlimit:4;stroke-opacity:1;stroke-dasharray:none;marker-end:url(#Arrow1Mend)"
       d="m 0,224.10385 448.9121,0"
       id="path4356"
       inkscape:connector-curvature="0"
       transform="matrix(0.8,0,0,0.8,47,12)" /><path
       style="fill:none;stroke:#000000;stroke-width:0.80000001;stroke-linecap:butt;stroke-linejoin:miter;stroke-miterlimit:4;stroke-opacity:1;stroke-dasharray:none"
       d="m 107.55912,191.19912 0,5.80088"
       id="path4636"
       inkscape:connector-curvature="0" /><path
       inkscape:connector-curvature="0"
       id="path4638"
       d="m 347.87473,191.19912 0,5.80088"
       style="fill:none;stroke:#000000;stroke-width:0.80000001;stroke-linecap:butt;stroke-linejoin:miter;stroke-miterlimit:4;stroke-opacity:1;stroke-dasharray:none" /><g
       id="g4696"
       transform="matrix(0.95045531,0,0,0.95045531,0.39235165,30.609962)"><g
         id="content"
         transform="matrix(0.35535714,0,0,-0.35535714,-62.1875,337.5)"
         xml:space="preserve"
         stroke-miterlimit="10.433"
         font-style="normal"
         font-variant="normal"
         font-weight="normal"
         font-stretch="normal"
         font-size-adjust="none"
         letter-spacing="normal"
         word-spacing="normal"
         style="font-style:normal;font-variant:normal;font-weight:normal;font-stretch:normal;letter-spacing:normal;word-spacing:normal;text-anchor:start;fill:none;stroke:#000000;stroke-linecap:butt;stroke-linejoin:miter;stroke-miterlimit:10.43299961;stroke-opacity:1;stroke-dasharray:none;stroke-dashoffset:0"><path
           d="m 461.85,410.04 5.28,5.13 c 7.76,6.87 10.76,9.56 10.76,14.54 0,5.69 -4.48,9.68 -10.56,9.68 -5.64,0 -9.33,-4.6 -9.33,-9.03 0,-2.79 2.5,-2.79 2.64,-2.79 0.86,0 2.6,0.6 2.6,2.64 0,1.3 -0.89,2.6 -2.64,2.6 -0.39,0 -0.5,0 -0.64,-0.05 1.14,3.24 3.83,5.08 6.72,5.08 4.53,0 6.68,-4.05 6.68,-8.13 0,-3.98 -2.5,-7.92 -5.23,-11.01 l -9.56,-10.66 C 458,407.5 458,407.4 458,406.2 h 18.49 l 1.4,8.67 h -1.25 c -0.25,-1.5 -0.59,-3.69 -1.09,-4.44 -0.36,-0.39 -3.64,-0.39 -4.73,-0.39 z"
           id="path4699"
           inkscape:connector-curvature="0"
           style="fill:#000000;stroke-width:0" /><path
           d="m 526.62,436.39 0.04,0.16 0.04,0.16 0.03,0.15 0.04,0.14 0.04,0.14 0.04,0.13 0.05,0.12 0.05,0.11 0.05,0.11 0.05,0.11 0.06,0.09 0.07,0.09 0.07,0.09 0.08,0.08 0.09,0.07 0.1,0.07 0.11,0.06 0.12,0.06 0.13,0.05 0.14,0.05 0.15,0.04 0.08,0.02 0.09,0.02 0.09,0.02 0.09,0.02 0.1,0.01 0.1,0.02 0.1,0.01 0.11,0.01 0.11,0.02 0.11,0.01 0.12,0.01 0.13,0 0.13,0.01 0.13,0.01 0.14,0.01 0.14,0 0.15,0 0.15,0.01 0.16,0 0.16,0 0.17,0 0.17,0 c 1.14,0 1.59,0 1.59,1 0,0.55 -0.5,0.55 -1.34,0.55 h -6.58 c -1.3,0 -1.34,0 -1.94,-0.95 l -18.18,-28.39 -3.9,28.18 c -0.15,1.16 -0.25,1.16 -1.54,1.16 h -6.83 c -0.94,0 -1.48,0 -1.48,-0.95 0,-0.6 0.43,-0.6 1.43,-0.6 0.66,0 1.55,-0.04 2.14,-0.09 0.8,-0.11 1.1,-0.25 1.1,-0.8 0,-0.2 -0.05,-0.36 -0.19,-0.95 l -6.33,-25.36 c -0.5,-2 -1.34,-3.59 -5.39,-3.73 -0.25,0 -0.89,-0.05 -0.89,-0.96 0,-0.43 0.3,-0.59 0.7,-0.59 1.6,0 3.33,0.16 4.97,0.16 1.71,0 3.5,-0.16 5.14,-0.16 0.25,0 0.89,0 0.89,1 0,0.55 -0.54,0.55 -0.89,0.55 -2.84,0.04 -3.39,1.04 -3.39,2.18 0,0.35 0.05,0.6 0.21,1.14 l 6.76,27.16 h 0.06 l 4.28,-30.89 c 0.1,-0.59 0.15,-1.14 0.75,-1.14 0.55,0 0.85,0.55 1.1,0.89 l 20.12,31.55 h 0.05 l -7.12,-28.55 c -0.5,-1.95 -0.6,-2.34 -4.54,-2.34 -0.84,0 -1.39,0 -1.39,-0.96 0,-0.59 0.6,-0.59 0.75,-0.59 1.39,0 4.78,0.16 6.18,0.16 2.04,0 4.18,-0.16 6.23,-0.16 0.3,0 0.94,0 0.94,1 0,0.55 -0.46,0.55 -1.39,0.55 -1.85,0 -3.24,0 -3.24,0.89 0,0.2 0,0.29 0.25,1.2 z"
           id="path4701"
           inkscape:connector-curvature="0"
           style="fill:#000000;stroke-width:0" /></g></g><g
       id="g4821"
       transform="matrix(1.1482673,0,0,1.1482673,216.354,-2.091566)"><g
         word-spacing="normal"
         letter-spacing="normal"
         font-size-adjust="none"
         font-stretch="normal"
         font-weight="normal"
         font-variant="normal"
         font-style="normal"
         stroke-miterlimit="10.433"
         xml:space="preserve"
         transform="matrix(0.35535714,0,0,-0.35535714,-62.1875,337.5)"
         id="g4823"
         style="font-style:normal;font-variant:normal;font-weight:normal;font-stretch:normal;letter-spacing:normal;word-spacing:normal;text-anchor:start;fill:none;stroke:#000000;stroke-linecap:butt;stroke-linejoin:miter;stroke-miterlimit:10.43299961;stroke-opacity:1;stroke-dasharray:none;stroke-dashoffset:0"><path
           id="path4825"
           d="m 491.83,432.11 h -1.19 c -0.09,-0.77 -0.45,-2.83 -0.9,-3.18 -0.27,-0.2 -2.95,-0.2 -3.44,-0.2 h -6.42 c 3.66,3.23 4.87,4.2 6.97,5.84 2.58,2.07 4.98,4.22 4.98,7.54 0,4.21 -3.69,6.79 -8.15,6.79 -4.32,0 -7.25,-3.03 -7.25,-6.23 0,-1.78 1.5,-1.96 1.86,-1.96 0.82,0 1.84,0.6 1.84,1.85 0,0.62 -0.25,1.84 -2.06,1.84 1.07,2.47 3.45,3.24 5.09,3.24 3.48,0 5.3,-2.71 5.3,-5.53 0,-3.04 -2.16,-5.44 -3.28,-6.69 l -8.39,-8.3 c -0.36,-0.31 -0.36,-0.39 -0.36,-1.36 h 14.36 z"
           inkscape:connector-curvature="0"
           style="fill:#000000;stroke-width:0" /><path
           id="path4827"
           d="m 529.61,446.73 0.03,0.12 0.03,0.11 0.03,0.11 0.02,0.1 0.03,0.1 0.03,0.09 0.03,0.08 0.03,0.08 0.04,0.08 0.04,0.07 0.04,0.07 0.05,0.06 0.05,0.06 0.05,0.05 0.06,0.05 0.07,0.05 0.07,0.04 0.09,0.04 0.08,0.03 0.1,0.03 0.11,0.03 0.05,0.01 0.06,0.01 0.06,0.02 0.07,0.01 0.06,0.01 0.07,0 0.07,0.01 0.08,0.01 0.07,0.01 0.08,0 0.09,0.01 0.08,0.01 0.09,0 0.09,0 0.1,0.01 0.09,0 0.11,0 0.1,0.01 0.11,0 0.11,0 0.12,0 0.12,0 c 0.73,0 1.18,0 1.18,0.73 0,0.52 -0.42,0.52 -1.04,0.52 h -4.74 c -1.01,0 -1.04,-0.03 -1.5,-0.69 L 513.02,429 l -3.44,19.62 c -0.19,0.91 -0.19,0.94 -1.22,0.94 h -4.98 c -0.7,0 -1.16,0 -1.16,-0.77 0,-0.48 0.42,-0.48 1.19,-0.48 0.56,0 0.69,0 1.33,-0.08 0.69,-0.06 0.76,-0.14 0.76,-0.48 0,-0.04 0,-0.24 -0.14,-0.77 l -4.39,-17.48 c -0.31,-1.19 -0.84,-2.38 -3.62,-2.49 -0.28,0 -0.74,-0.03 -0.74,-0.76 0,-0.04 0.03,-0.49 0.52,-0.49 1.05,0 2.51,0.14 3.62,0.14 0.85,0 2.86,-0.14 3.71,-0.14 0.17,0 0.68,0 0.68,0.77 0,0.45 -0.45,0.48 -0.76,0.48 -2.22,0.08 -2.22,0.99 -2.22,1.47 0,0.14 0,0.31 0.14,0.88 l 4.63,18.53 h 0.03 l 3.73,-21.19 c 0.11,-0.63 0.17,-0.94 0.7,-0.94 0.49,0 0.77,0.39 1.01,0.77 l 14.63,21.7 0.04,-0.03 -4.91,-19.72 c -0.28,-1.19 -0.36,-1.47 -3.08,-1.47 -0.62,0 -1.05,0 -1.05,-0.76 0,-0.04 0,-0.49 0.57,-0.49 0.67,0 1.47,0.11 2.15,0.11 0.71,0 1.5,0.03 2.21,0.03 0.97,0 3.45,-0.14 4.42,-0.14 0.22,0 0.73,0 0.73,0.77 0,0.48 -0.42,0.48 -1.11,0.48 -0.04,0 -0.7,0 -1.32,0.08 -0.8,0.06 -0.8,0.17 -0.8,0.52 0,0.21 0.09,0.56 0.14,0.76 z"
           inkscape:connector-curvature="0"
           style="fill:#000000;stroke-width:0" /><polyline
           id="polyline4829"
           points="462,418 549.12,418 549.12,420.04 462,420.04 "
           style="fill:#000000;fill-rule:nonzero;stroke-width:0" /><path
           id="path4831"
           d="m 473.19,411.2 0,0.04 0,0.04 0,0.04 0,0.04 0,0.04 0,0.04 0,0.04 0,0.03 -0.01,0.03 0,0.04 0,0.03 0,0.03 0,0.03 -0.01,0.03 0,0.02 0,0.03 -0.01,0.03 0,0.02 -0.01,0.02 0,0.03 -0.02,0.04 -0.01,0.04 -0.02,0.03 -0.02,0.03 -0.02,0.03 -0.02,0.02 -0.03,0.03 -0.03,0.02 -0.03,0.01 -0.04,0.02 -0.04,0.01 -0.05,0.01 -0.02,0.01 -0.02,0 -0.03,0.01 -0.03,0 -0.02,0 -0.03,0.01 -0.03,0 -0.03,0 -0.03,0 -0.04,0 -0.03,0.01 -0.04,0 -0.03,0 -0.04,0 -0.04,0 -0.04,0 -0.04,0 -0.05,0 -0.04,0 -0.05,0 c -2.23,-2.2 -5.39,-2.23 -6.82,-2.23 v -1.25 c 0.84,0 3.14,0 5.04,0.96 V 391.9 c 0,-1.16 0,-1.61 -3.48,-1.61 h -1.31 v -1.25 c 0.62,0.03 4.9,0.14 6.2,0.14 1.08,0 5.47,-0.11 6.23,-0.14 v 1.25 h -1.32 c -3.49,0 -3.49,0.45 -3.49,1.61 z"
           inkscape:connector-curvature="0"
           style="fill:#000000;stroke-width:0" /><path
           id="path4833"
           d="m 507.24,396.91 0.05,0 0.06,0 0.11,0.01 0.12,0 0.05,0 0.06,0.01 0.06,0 0.06,0.01 0.06,0.01 0.06,0.01 0.05,0.01 0.06,0.01 0.05,0.02 0.05,0.02 0.06,0.02 0.05,0.02 0.04,0.03 0.05,0.03 0.04,0.03 0.04,0.04 0.04,0.04 0.01,0.02 0.02,0.02 0.02,0.02 0.01,0.03 0.02,0.02 0.01,0.03 0.01,0.02 0.01,0.03 0.01,0.03 0.01,0.03 0.01,0.03 0.01,0.03 0,0.04 0.01,0.03 0,0.03 0.01,0.04 0,0.04 0,0.04 c 0,0.86 -0.8,0.86 -1.39,0.86 h -20.77 c -0.56,0 -1.39,0 -1.39,-0.83 0,-0.88 0.8,-0.88 1.39,-0.88 z"
           inkscape:connector-curvature="0"
           style="fill:#000000;stroke-width:0" /><path
           id="path4835"
           d="m 524.55,396.85 0.1,0 0.1,0 0.11,0.01 0.05,0 0.05,0 0.05,0.01 0.05,0 0.05,0.01 0.05,0.01 0.05,0.01 0.04,0.01 0.05,0.01 0.04,0.01 0.05,0.02 0.04,0.02 0.04,0.02 0.03,0.02 0.04,0.03 0.03,0.03 0.03,0.03 0.03,0.03 0.01,0.02 0.01,0.01 0.01,0.02 0.01,0.02 0.01,0.02 0.01,0.03 0.01,0.02 0.01,0.02 0.01,0.03 0,0.02 0.01,0.03 0,0.02 0,0.03 0.01,0.03 0,0.03 0,0.03 c 0,0.59 -0.52,0.59 -1.19,0.59 h -6.23 c 1.04,3.17 3.31,4.7 6.37,4.7 h 1.33 c 0.56,0 1.22,0 1.22,0.66 0,0.59 -0.49,0.59 -1.16,0.59 h -1.48 c -4.64,0 -9.83,-3.23 -9.83,-8.53 0,-4.07 3.09,-6.82 7.14,-6.82 1.05,0 2.5,0.17 4.36,1.21 0.69,0.38 0.76,0.49 0.76,0.69 0,0.11 0,0.7 -0.53,0.7 -0.14,0 -0.2,-0.03 -0.42,-0.17 -1.22,-0.79 -2.67,-1.47 -4.11,-1.47 -1.39,0 -4.28,0.71 -4.28,4.68 0,0.48 0,1.18 0.31,2.51 z"
           inkscape:connector-curvature="0"
           style="fill:#000000;stroke-width:0" /><path
           id="path4837"
           d="m 543.63,403.81 h -1.04 c -0.08,-0.48 -0.33,-2.01 -0.72,-2.26 -0.21,-0.16 -2.3,-0.16 -2.67,-0.16 h -4.88 c 1.64,1.22 3.48,2.61 4.98,3.61 2.24,1.55 4.33,3 4.33,5.64 0,3.19 -3.01,4.95 -6.58,4.95 -3.35,0 -5.82,-1.95 -5.82,-4.39 0,-1.29 1.09,-1.51 1.45,-1.51 0.67,0 1.47,0.45 1.47,1.47 0,0.89 -0.66,1.39 -1.42,1.46 0.68,1.13 2.14,1.88 3.81,1.88 2.41,0 4.42,-1.45 4.42,-3.89 0,-2.09 -1.44,-3.69 -3.36,-5.31 l -6.08,-5.16 c -0.25,-0.22 -0.26,-0.22 -0.29,-0.39 V 399 h 11.57 z"
           inkscape:connector-curvature="0"
           style="fill:#000000;stroke-width:0" /></g></g><g
       id="g4975"
       transform="matrix(1.0525425,0,0,1.0525425,305.54371,-6.2347123)"><g
         id="g4977"
         transform="matrix(0.35535714,0,0,-0.35535714,-62.1875,337.5)"
         xml:space="preserve"
         stroke-miterlimit="10.433"
         font-style="normal"
         font-variant="normal"
         font-weight="normal"
         font-stretch="normal"
         font-size-adjust="none"
         letter-spacing="normal"
         word-spacing="normal"
         style="font-style:normal;font-variant:normal;font-weight:normal;font-stretch:normal;letter-spacing:normal;word-spacing:normal;text-anchor:start;fill:none;stroke:#000000;stroke-linecap:butt;stroke-linejoin:miter;stroke-miterlimit:10.43299961;stroke-opacity:1;stroke-dasharray:none;stroke-dashoffset:0"><path
           d="m 481.38,423.14 0.47,0.11 0.48,0.12 0.48,0.14 0.48,0.15 0.49,0.16 0.48,0.18 0.48,0.19 0.47,0.2 0.47,0.22 0.47,0.23 0.46,0.24 0.45,0.25 0.43,0.27 0.43,0.28 0.42,0.29 0.4,0.3 0.39,0.31 0.37,0.32 0.36,0.34 0.33,0.35 0.32,0.35 0.29,0.37 0.28,0.38 0.25,0.39 0.22,0.4 0.2,0.41 0.17,0.42 0.15,0.43 0.11,0.44 0.08,0.45 0.05,0.46 0.02,0.47 c 0,4.28 -4.48,7.47 -11,7.47 h -14.2 c -1,0 -1.45,0 -1.45,-1 0,-0.55 0.45,-0.55 1.4,-0.55 0.1,0 1.05,0 1.89,-0.09 0.89,-0.11 1.35,-0.16 1.35,-0.8 0,-0.2 -0.05,-0.36 -0.21,-0.95 l -6.67,-26.75 c -0.5,-1.95 -0.59,-2.34 -4.53,-2.34 -0.91,0 -1.34,0 -1.34,-1 0,-0.55 0.59,-0.55 0.68,-0.55 1.41,0 4.89,0.16 6.29,0.16 1.39,0 4.93,-0.16 6.32,-0.16 0.41,0 1,0 1,1 0,0.55 -0.45,0.55 -1.39,0.55 -1.84,0 -3.25,0 -3.25,0.89 0,0.29 0.11,0.54 0.16,0.84 l 3.28,13.2 h 5.94 l -0.05,1.11 h -5.59 l 3.25,13 c 0.29,1.19 0.43,1.69 1.39,1.85 0.45,0.04 2.04,0.04 3.03,0.04 3.55,0 9.08,0 9.08,-4.93 0,-1.69 -0.8,-5.13 -2.75,-7.07 -1.28,-1.29 -3.92,-2.89 -8.41,-2.89 l 0.05,-1.11 c 4.53,0 5.42,-2.78 5.42,-4.53 0,-0.75 -0.39,-2.28 -0.69,-3.44 -0.36,-1.39 -0.79,-3.23 -0.79,-4.23 0,-5.37 5.96,-5.37 6.62,-5.37 4.23,0 5.97,5.03 5.97,5.73 0,0.59 -0.55,0.59 -0.59,0.59 -0.46,0 -0.55,-0.36 -0.65,-0.7 -1.25,-3.69 -3.39,-4.53 -4.54,-4.53 -1.64,0 -1.99,1.09 -1.99,3.05 0,1.53 0.3,4.07 0.5,5.67 0.1,0.7 0.21,1.64 0.21,2.34 0,3.83 -3.35,5.38 -4.69,5.88 z"
           id="path4979"
           inkscape:connector-curvature="0"
           style="fill:#000000;stroke-width:0" /></g></g><g
       id="g5123"
       transform="matrix(0.96563702,0,0,0.96563702,-54.910155,-180.48247)"><g
         word-spacing="normal"
         letter-spacing="normal"
         font-size-adjust="none"
         font-stretch="normal"
         font-weight="normal"
         font-variant="normal"
         font-style="normal"
         stroke-miterlimit="10.433"
         xml:space="preserve"
         transform="matrix(0.35535714,0,0,-0.35535714,-62.1875,337.5)"
         id="g5125"
         style="font-style:normal;font-variant:normal;font-weight:normal;font-stretch:normal;letter-spacing:normal;word-spacing:normal;text-anchor:start;fill:none;stroke:#000000;stroke-linecap:butt;stroke-linejoin:miter;stroke-miterlimit:10.43299961;stroke-opacity:1;stroke-dasharray:none;stroke-dashoffset:0"><path
           id="path5127"
           d="m 481.4,449.49 0,0.12 -0.01,0.13 -0.02,0.12 -0.02,0.13 -0.03,0.12 -0.03,0.12 -0.04,0.12 -0.05,0.12 -0.05,0.11 -0.06,0.12 -0.06,0.11 -0.07,0.1 -0.07,0.11 -0.08,0.1 -0.08,0.1 -0.09,0.09 -0.09,0.09 -0.09,0.09 -0.1,0.08 -0.1,0.08 -0.11,0.07 -0.11,0.07 -0.12,0.06 -0.11,0.06 -0.12,0.05 -0.13,0.04 -0.12,0.04 -0.13,0.03 -0.14,0.03 -0.13,0.01 -0.14,0.02 -0.14,0 c -1.69,0 -2.69,-1.39 -2.69,-2.64 0,-1.35 1.14,-2.64 2.64,-2.64 1.69,0 2.69,1.39 2.69,2.64 z"
           inkscape:connector-curvature="0"
           style="fill:#000000;stroke-width:0" /><path
           id="path5129"
           d="m 481.38,423.14 0.47,0.11 0.48,0.12 0.48,0.14 0.48,0.15 0.49,0.16 0.48,0.18 0.48,0.19 0.47,0.2 0.47,0.22 0.47,0.23 0.46,0.24 0.45,0.25 0.43,0.27 0.43,0.28 0.42,0.29 0.4,0.3 0.39,0.31 0.37,0.32 0.36,0.34 0.33,0.35 0.32,0.35 0.29,0.37 0.28,0.38 0.25,0.39 0.22,0.4 0.2,0.41 0.17,0.42 0.15,0.43 0.11,0.44 0.08,0.45 0.05,0.46 0.02,0.47 c 0,4.28 -4.48,7.47 -11,7.47 h -14.2 c -1,0 -1.45,0 -1.45,-1 0,-0.55 0.45,-0.55 1.4,-0.55 0.1,0 1.05,0 1.89,-0.09 0.89,-0.11 1.35,-0.16 1.35,-0.8 0,-0.2 -0.05,-0.36 -0.21,-0.95 l -6.67,-26.75 c -0.5,-1.95 -0.59,-2.34 -4.53,-2.34 -0.91,0 -1.34,0 -1.34,-1 0,-0.55 0.59,-0.55 0.68,-0.55 1.41,0 4.89,0.16 6.29,0.16 1.39,0 4.93,-0.16 6.32,-0.16 0.41,0 1,0 1,1 0,0.55 -0.45,0.55 -1.39,0.55 -1.84,0 -3.25,0 -3.25,0.89 0,0.29 0.11,0.54 0.16,0.84 l 3.28,13.2 h 5.94 l -0.05,1.11 h -5.59 l 3.25,13 c 0.29,1.19 0.43,1.69 1.39,1.85 0.45,0.04 2.04,0.04 3.03,0.04 3.55,0 9.08,0 9.08,-4.93 0,-1.69 -0.8,-5.13 -2.75,-7.07 -1.28,-1.29 -3.92,-2.89 -8.41,-2.89 l 0.05,-1.11 c 4.53,0 5.42,-2.78 5.42,-4.53 0,-0.75 -0.39,-2.28 -0.69,-3.44 -0.36,-1.39 -0.79,-3.23 -0.79,-4.23 0,-5.37 5.96,-5.37 6.62,-5.37 4.23,0 5.97,5.03 5.97,5.73 0,0.59 -0.55,0.59 -0.59,0.59 -0.46,0 -0.55,-0.36 -0.65,-0.7 -1.25,-3.69 -3.39,-4.53 -4.54,-4.53 -1.64,0 -1.99,1.09 -1.99,3.05 0,1.53 0.3,4.07 0.5,5.67 0.1,0.7 0.21,1.64 0.21,2.34 0,3.83 -3.35,5.38 -4.69,5.88 z"
           inkscape:connector-curvature="0"
           style="fill:#000000;stroke-width:0" /><path
           id="path5131"
           d="m 511.27,430.54 h -1.18 c -0.1,-0.76 -0.46,-2.83 -0.91,-3.17 -0.27,-0.2 -2.95,-0.2 -3.44,-0.2 h -6.42 c 3.66,3.23 4.88,4.2 6.97,5.84 2.58,2.06 4.98,4.22 4.98,7.53 0,4.22 -3.68,6.8 -8.15,6.8 -4.32,0 -7.25,-3.03 -7.25,-6.23 0,-1.79 1.5,-1.96 1.86,-1.96 0.82,0 1.84,0.6 1.84,1.85 0,0.62 -0.25,1.84 -2.06,1.84 1.08,2.47 3.45,3.23 5.09,3.23 3.49,0 5.3,-2.7 5.3,-5.53 0,-3.03 -2.16,-5.43 -3.28,-6.68 l -8.39,-8.3 c -0.36,-0.31 -0.36,-0.39 -0.36,-1.36 h 14.36 z"
           inkscape:connector-curvature="0"
           style="fill:#000000;stroke-width:0" /></g></g></g></svg>