<?xml version="1.0" encoding="UTF-8" standalone="no"?>
<!-- Created with Inkscape (http://www.inkscape.org/) -->

<svg
   xmlns:dc="http://purl.org/dc/elements/1.1/"
   xmlns:cc="http://creativecommons.org/ns#"
   xmlns:rdf="http://www.w3.org/1999/02/22-rdf-syntax-ns#"
   xmlns:svg="http://www.w3.org/2000/svg"
   xmlns="http://www.w3.org/2000/svg"
   xmlns:sodipodi="http://sodipodi.sourceforge.net/DTD/sodipodi-0.dtd"
   xmlns:inkscape="http://www.inkscape.org/namespaces/inkscape"
   id="svg3004"
   version="1.1"
   inkscape:version="0.48.2 r9819"
   width="495.80954"
   height="325.40488"
   xml:space="preserve"
   sodipodi:docname="Rtau.svg"><sodipodi:namedview
     pagecolor="#ffffff"
     bordercolor="#666666"
     borderopacity="1"
     objecttolerance="10"
     gridtolerance="10"
     guidetolerance="10"
     inkscape:pageopacity="0"
     inkscape:pageshadow="2"
     inkscape:window-width="1170"
     inkscape:window-height="615"
     id="namedview3006"
     showgrid="false"
     inkscape:zoom="1.22"
     inkscape:cx="249.94152"
     inkscape:cy="119.84677"
     inkscape:window-x="0"
     inkscape:window-y="0"
     inkscape:window-maximized="0"
     inkscape:current-layer="g3012"
     fit-margin-top="0"
     fit-margin-left="0"
     fit-margin-right="0"
     fit-margin-bottom="0" /><metadata
     id="metadata3010"><rdf:RDF><cc:Work
         rdf:about=""><dc:format>image/svg+xml</dc:format><dc:type
           rdf:resource="http://purl.org/dc/dcmitype/StillImage" /><dc:title /></cc:Work></rdf:RDF></metadata><defs
     id="defs3008"><marker
       inkscape:stockid="Arrow1Mend"
       orient="auto"
       refY="0"
       refX="0"
       id="Arrow1Mend"
       style="overflow:visible"><path
         id="path3924"
         d="M 0,0 5,-5 -12.5,0 5,5 0,0 z"
         style="fill-rule:evenodd;stroke:#000000;stroke-width:1pt;marker-start:none"
         transform="matrix(-0.4,0,0,-0.4,-4,0)"
         inkscape:connector-curvature="0" /></marker><clipPath
       clipPathUnits="userSpaceOnUse"
       id="clipPath3016"><path
         d="m 47,12 0,199 360,0 0,-199"
         clip-rule="evenodd"
         id="path3018"
         inkscape:connector-curvature="0" /></clipPath><clipPath
       clipPathUnits="userSpaceOnUse"
       id="clipPath3028"><path
         d="m 0,4 0,215 535,0 0,-215"
         clip-rule="evenodd"
         id="path3030"
         inkscape:connector-curvature="0" /></clipPath><clipPath
       clipPathUnits="userSpaceOnUse"
       id="clipPath3042"><path
         d="m 45,10 0,203 364,0 0,-203"
         clip-rule="evenodd"
         id="path3044"
         inkscape:connector-curvature="0" /></clipPath><clipPath
       clipPathUnits="userSpaceOnUse"
       id="clipPath3052"><path
         d="m 47,12 0,180 360,0 0,-180"
         clip-rule="evenodd"
         id="path3054"
         inkscape:connector-curvature="0" /></clipPath><clipPath
       clipPathUnits="userSpaceOnUse"
       id="clipPath3060"><path
         d="m 47,12 0,180 360,0 0,-180"
         clip-rule="evenodd"
         id="path3062"
         inkscape:connector-curvature="0" /></clipPath><clipPath
       clipPathUnits="userSpaceOnUse"
       id="clipPath3068"><path
         d="m 47,12 0,180 360,0 0,-180"
         clip-rule="evenodd"
         id="path3070"
         inkscape:connector-curvature="0" /></clipPath><clipPath
       clipPathUnits="userSpaceOnUse"
       id="clipPath3082"><path
         d="m 106,194 0,18 2,0 0,-18"
         clip-rule="evenodd"
         id="path3084"
         inkscape:connector-curvature="0" /></clipPath><clipPath
       clipPathUnits="userSpaceOnUse"
       id="clipPath3094"><path
         d="m -2.24,-2 0,20 4,0 0,-20"
         clip-rule="evenodd"
         id="path3096"
         inkscape:connector-curvature="0" /></clipPath><clipPath
       clipPathUnits="userSpaceOnUse"
       id="clipPath3108"><path
         d="m 346,194 0,18 2,0 0,-18"
         clip-rule="evenodd"
         id="path3110"
         inkscape:connector-curvature="0" /></clipPath><clipPath
       clipPathUnits="userSpaceOnUse"
       id="clipPath3120"><path
         d="m -1.76,-2 0,20 4,0 0,-20"
         clip-rule="evenodd"
         id="path3122"
         inkscape:connector-curvature="0" /></clipPath><clipPath
       clipPathUnits="userSpaceOnUse"
       id="clipPath3138"><path
         d="m 47,12 0,180 360,0 0,-180"
         clip-rule="evenodd"
         id="path3140"
         inkscape:connector-curvature="0" /></clipPath><clipPath
       id="clipPath4597"
       clipPathUnits="userSpaceOnUse"><path
         id="path4599"
         clip-rule="evenodd"
         d="m 45,10 0,184 364,0 0,-184"
         inkscape:connector-curvature="0" /></clipPath><clipPath
       id="clipPath4583"
       clipPathUnits="userSpaceOnUse"><path
         id="path4585"
         clip-rule="evenodd"
         d="m 0,4 0,196 535,0 0,-196"
         inkscape:connector-curvature="0" /></clipPath><clipPath
       id="clipPath4571"
       clipPathUnits="userSpaceOnUse"><path
         id="path4573"
         clip-rule="evenodd"
         d="m 47,12 0,180 360,0 0,-180"
         inkscape:connector-curvature="0" /></clipPath><clipPath
       id="clipPath5361"
       clipPathUnits="userSpaceOnUse"><path
         id="path5363"
         clip-rule="evenodd"
         d="m 45,10 0,184 364,0 0,-184"
         inkscape:connector-curvature="0" /></clipPath><clipPath
       id="clipPath5347"
       clipPathUnits="userSpaceOnUse"><path
         id="path5349"
         clip-rule="evenodd"
         d="m 0,4 0,196 535,0 0,-196"
         inkscape:connector-curvature="0" /></clipPath><clipPath
       id="clipPath5335"
       clipPathUnits="userSpaceOnUse"><path
         id="path5337"
         clip-rule="evenodd"
         d="m 47,12 0,180 360,0 0,-180"
         inkscape:connector-curvature="0" /></clipPath></defs><g
     id="g3012"
     inkscape:groupmode="layer"
     inkscape:label="Rt"
     transform="matrix(1.25,0,0,1.25,-34.857191,41.852918)"><g
       transform="translate(0.62637918,2.2186073)"
       inkscape:label="Rtauraw"
       id="g5331"><g
         clip-path="url(#clipPath5335)"
         id="g5333"><g
           id="g5339" /><g
           id="g5341"><g
             id="g5343"><g
               clip-path="url(#clipPath5347)"
               id="g5345"><g
                 id="g5351"><path
                   id="path5353"
                   style="fill:#ffffff;fill-opacity:1;fill-rule:evenodd;stroke:none"
                   d="M 39,4 487,4 487,200 39,200 39,4 z"
                   inkscape:connector-curvature="0" /></g></g></g><g
             id="g5355"><g
               id="g5357"><g
                 clip-path="url(#clipPath5361)"
                 id="g5359"><g
                   id="g5365"><g
                     id="g5367" /><g
                     id="g5369" /><g
                     id="g5371"><path
                       id="path5373"
                       style="fill:none;stroke:#426ab5;stroke-width:1.79999995;stroke-linecap:square;stroke-linejoin:miter;stroke-miterlimit:3.25;stroke-opacity:1;stroke-dasharray:none"
                       d="m 71.47,15.6 0.003,0.03 0.397,2.997 0.792,5.716 1.585,10.435 0.099,0.612 0.099,0.607 0.198,1.203 0.396,2.353 0.793,4.513 1.585,8.32 0.092,0.458 0.092,0.456 0.185,0.904 0.37,1.774 0.74,3.426 1.479,6.397 0.092,0.381 0.093,0.379 0.184,0.752 0.37,1.479 0.74,2.863 1.479,5.377 0.1,0.349 0.1,0.346 0.2,0.688 0.401,1.352 0.802,2.619 1.602,4.92 0.101,0.294 0.1,0.293 0.2,0.581 0.401,1.145 0.801,2.224 1.603,4.196 0.099,0.247 0.098,0.246 0.197,0.489 0.393,0.965 0.787,1.877 1.574,3.563 0.098,0.214 0.098,0.214 0.197,0.424 0.393,0.839 0.787,1.635 1.574,3.112 0.092,0.175 0.091,0.175 0.184,0.347 0.367,0.688 0.734,1.344 1.468,2.574 2.935,4.736 0.1,0.152 0.099,0.151 0.199,0.3 0.398,0.595 0.796,1.164 1.592,2.232 3.183,4.117 0.093,0.114 0.093,0.113 0.186,0.226 0.371,0.447 0.743,0.879 1.486,1.697 2.972,3.168 0.091,0.092 0.091,0.093 0.182,0.184 0.364,0.365 0.729,0.718 1.456,1.393 2.914,2.618 6.322,5.02 5.899,4.013 6.395,3.767 6.277,3.219 5.855,2.651 6.349,2.557 5.927,2.134 6.422,2.08 6.305,1.84 5.882,1.561 6.378,1.545 5.954,1.322 5.838,1.196 6.332,1.198 5.91,1.036 6.405,1.041 6.288,0.95 5.865,0.827 6.36,0.839 5.938,0.734 5.82,0.678 6.316,0.692 5.892,0.61 6.388,0.623 5.965,0.551 5.848,0.512 6.343,0.528 5.921,0.467 6.415,0.482 6.299,0.449 5.875,0.4 6.371,0.414 5.948,0.369 5.831,0.347 6.326,0.36 5.903,0.322 0.103,0.006 0.103,0.005 0.206,0.011 0.412,0.022 0.824,0.044 1.647,0.087 0.103,0.005 0.103,0.005 0.206,0.011 0.412,0.022 0.824,0.042 0.103,0.006 0.102,0.005 0.206,0.011 0.412,0.021 0.103,0.005 0.103,0.005 0.206,0.011 0.103,0.005 0.103,0.005 0.103,0.006 0.103,0.005"
                       inkscape:connector-curvature="0" /></g><g
                     id="g5375" /></g></g></g></g></g></g></g><path
       style="fill:none;stroke:#000000;stroke-width:1.5;stroke-linecap:butt;stroke-linejoin:miter;stroke-miterlimit:4;stroke-opacity:1;stroke-dasharray:none;marker-end:url(#Arrow1Mend)"
       d="M 0,224.10385 0,-0.35220434"
       id="path3142"
       inkscape:connector-curvature="0"
       transform="matrix(0.8,0,0,0.8,47,12)" /><path
       style="fill:none;stroke:#000000;stroke-width:1.5;stroke-linecap:butt;stroke-linejoin:miter;stroke-miterlimit:4;stroke-opacity:1;stroke-dasharray:none;marker-end:url(#Arrow1Mend)"
       d="m 0,224.10385 448.9121,0"
       id="path4356"
       inkscape:connector-curvature="0"
       transform="matrix(0.8,0,0,0.8,47,12)" /><path
       style="fill:none;stroke:#000000;stroke-width:0.80000001;stroke-linecap:butt;stroke-linejoin:miter;stroke-miterlimit:4;stroke-opacity:1;stroke-dasharray:none"
       d="m 107.55912,191.19912 0,5.80088"
       id="path4636"
       inkscape:connector-curvature="0" /><path
       inkscape:connector-curvature="0"
       id="path4638"
       d="m 347.87473,191.19912 0,5.80088"
       style="fill:none;stroke:#000000;stroke-width:0.80000001;stroke-linecap:butt;stroke-linejoin:miter;stroke-miterlimit:4;stroke-opacity:1;stroke-dasharray:none" /><g
       id="g4696"
       transform="matrix(0.95045531,0,0,0.95045531,0.39235165,30.609962)"><g
         id="content"
         transform="matrix(0.35535714,0,0,-0.35535714,-62.1875,337.5)"
         xml:space="preserve"
         stroke-miterlimit="10.433"
         font-style="normal"
         font-variant="normal"
         font-weight="normal"
         font-stretch="normal"
         font-size-adjust="none"
         letter-spacing="normal"
         word-spacing="normal"
         style="font-style:normal;font-variant:normal;font-weight:normal;font-stretch:normal;letter-spacing:normal;word-spacing:normal;text-anchor:start;fill:none;stroke:#000000;stroke-linecap:butt;stroke-linejoin:miter;stroke-miterlimit:10.43299961;stroke-opacity:1;stroke-dasharray:none;stroke-dashoffset:0"><path
           d="m 461.85,410.04 5.28,5.13 c 7.76,6.87 10.76,9.56 10.76,14.54 0,5.69 -4.48,9.68 -10.56,9.68 -5.64,0 -9.33,-4.6 -9.33,-9.03 0,-2.79 2.5,-2.79 2.64,-2.79 0.86,0 2.6,0.6 2.6,2.64 0,1.3 -0.89,2.6 -2.64,2.6 -0.39,0 -0.5,0 -0.64,-0.05 1.14,3.24 3.83,5.08 6.72,5.08 4.53,0 6.68,-4.05 6.68,-8.13 0,-3.98 -2.5,-7.92 -5.23,-11.01 l -9.56,-10.66 C 458,407.5 458,407.4 458,406.2 h 18.49 l 1.4,8.67 h -1.25 c -0.25,-1.5 -0.59,-3.69 -1.09,-4.44 -0.36,-0.39 -3.64,-0.39 -4.73,-0.39 z"
           id="path4699"
           inkscape:connector-curvature="0"
           style="fill:#000000;stroke-width:0" /><path
           d="m 526.62,436.39 0.04,0.16 0.04,0.16 0.03,0.15 0.04,0.14 0.04,0.14 0.04,0.13 0.05,0.12 0.05,0.11 0.05,0.11 0.05,0.11 0.06,0.09 0.07,0.09 0.07,0.09 0.08,0.08 0.09,0.07 0.1,0.07 0.11,0.06 0.12,0.06 0.13,0.05 0.14,0.05 0.15,0.04 0.08,0.02 0.09,0.02 0.09,0.02 0.09,0.02 0.1,0.01 0.1,0.02 0.1,0.01 0.11,0.01 0.11,0.02 0.11,0.01 0.12,0.01 0.13,0 0.13,0.01 0.13,0.01 0.14,0.01 0.14,0 0.15,0 0.15,0.01 0.16,0 0.16,0 0.17,0 0.17,0 c 1.14,0 1.59,0 1.59,1 0,0.55 -0.5,0.55 -1.34,0.55 h -6.58 c -1.3,0 -1.34,0 -1.94,-0.95 l -18.18,-28.39 -3.9,28.18 c -0.15,1.16 -0.25,1.16 -1.54,1.16 h -6.83 c -0.94,0 -1.48,0 -1.48,-0.95 0,-0.6 0.43,-0.6 1.43,-0.6 0.66,0 1.55,-0.04 2.14,-0.09 0.8,-0.11 1.1,-0.25 1.1,-0.8 0,-0.2 -0.05,-0.36 -0.19,-0.95 l -6.33,-25.36 c -0.5,-2 -1.34,-3.59 -5.39,-3.73 -0.25,0 -0.89,-0.05 -0.89,-0.96 0,-0.43 0.3,-0.59 0.7,-0.59 1.6,0 3.33,0.16 4.97,0.16 1.71,0 3.5,-0.16 5.14,-0.16 0.25,0 0.89,0 0.89,1 0,0.55 -0.54,0.55 -0.89,0.55 -2.84,0.04 -3.39,1.04 -3.39,2.18 0,0.35 0.05,0.6 0.21,1.14 l 6.76,27.16 h 0.06 l 4.28,-30.89 c 0.1,-0.59 0.15,-1.14 0.75,-1.14 0.55,0 0.85,0.55 1.1,0.89 l 20.12,31.55 h 0.05 l -7.12,-28.55 c -0.5,-1.95 -0.6,-2.34 -4.54,-2.34 -0.84,0 -1.39,0 -1.39,-0.96 0,-0.59 0.6,-0.59 0.75,-0.59 1.39,0 4.78,0.16 6.18,0.16 2.04,0 4.18,-0.16 6.23,-0.16 0.3,0 0.94,0 0.94,1 0,0.55 -0.46,0.55 -1.39,0.55 -1.85,0 -3.24,0 -3.24,0.89 0,0.2 0,0.29 0.25,1.2 z"
           id="path4701"
           inkscape:connector-curvature="0"
           style="fill:#000000;stroke-width:0" /></g></g><g
       id="g4821"
       transform="matrix(1.1482673,0,0,1.1482673,216.354,-2.091566)"><g
         word-spacing="normal"
         letter-spacing="normal"
         font-size-adjust="none"
         font-stretch="normal"
         font-weight="normal"
         font-variant="normal"
         font-style="normal"
         stroke-miterlimit="10.433"
         xml:space="preserve"
         transform="matrix(0.35535714,0,0,-0.35535714,-62.1875,337.5)"
         id="g4823"
         style="font-style:normal;font-variant:normal;font-weight:normal;font-stretch:normal;letter-spacing:normal;word-spacing:normal;text-anchor:start;fill:none;stroke:#000000;stroke-linecap:butt;stroke-linejoin:miter;stroke-miterlimit:10.43299961;stroke-opacity:1;stroke-dasharray:none;stroke-dashoffset:0"><path
           id="path4825"
           d="m 491.83,432.11 h -1.19 c -0.09,-0.77 -0.45,-2.83 -0.9,-3.18 -0.27,-0.2 -2.95,-0.2 -3.44,-0.2 h -6.42 c 3.66,3.23 4.87,4.2 6.97,5.84 2.58,2.07 4.98,4.22 4.98,7.54 0,4.21 -3.69,6.79 -8.15,6.79 -4.32,0 -7.25,-3.03 -7.25,-6.23 0,-1.78 1.5,-1.96 1.86,-1.96 0.82,0 1.84,0.6 1.84,1.85 0,0.62 -0.25,1.84 -2.06,1.84 1.07,2.47 3.45,3.24 5.09,3.24 3.48,0 5.3,-2.71 5.3,-5.53 0,-3.04 -2.16,-5.44 -3.28,-6.69 l -8.39,-8.3 c -0.36,-0.31 -0.36,-0.39 -0.36,-1.36 h 14.36 z"
           inkscape:connector-curvature="0"
           style="fill:#000000;stroke-width:0" /><path
           id="path4827"
           d="m 529.61,446.73 0.03,0.12 0.03,0.11 0.03,0.11 0.02,0.1 0.03,0.1 0.03,0.09 0.03,0.08 0.03,0.08 0.04,0.08 0.04,0.07 0.04,0.07 0.05,0.06 0.05,0.06 0.05,0.05 0.06,0.05 0.07,0.05 0.07,0.04 0.09,0.04 0.08,0.03 0.1,0.03 0.11,0.03 0.05,0.01 0.06,0.01 0.06,0.02 0.07,0.01 0.06,0.01 0.07,0 0.07,0.01 0.08,0.01 0.07,0.01 0.08,0 0.09,0.01 0.08,0.01 0.09,0 0.09,0 0.1,0.01 0.09,0 0.11,0 0.1,0.01 0.11,0 0.11,0 0.12,0 0.12,0 c 0.73,0 1.18,0 1.18,0.73 0,0.52 -0.42,0.52 -1.04,0.52 h -4.74 c -1.01,0 -1.04,-0.03 -1.5,-0.69 L 513.02,429 l -3.44,19.62 c -0.19,0.91 -0.19,0.94 -1.22,0.94 h -4.98 c -0.7,0 -1.16,0 -1.16,-0.77 0,-0.48 0.42,-0.48 1.19,-0.48 0.56,0 0.69,0 1.33,-0.08 0.69,-0.06 0.76,-0.14 0.76,-0.48 0,-0.04 0,-0.24 -0.14,-0.77 l -4.39,-17.48 c -0.31,-1.19 -0.84,-2.38 -3.62,-2.49 -0.28,0 -0.74,-0.03 -0.74,-0.76 0,-0.04 0.03,-0.49 0.52,-0.49 1.05,0 2.51,0.14 3.62,0.14 0.85,0 2.86,-0.14 3.71,-0.14 0.17,0 0.68,0 0.68,0.77 0,0.45 -0.45,0.48 -0.76,0.48 -2.22,0.08 -2.22,0.99 -2.22,1.47 0,0.14 0,0.31 0.14,0.88 l 4.63,18.53 h 0.03 l 3.73,-21.19 c 0.11,-0.63 0.17,-0.94 0.7,-0.94 0.49,0 0.77,0.39 1.01,0.77 l 14.63,21.7 0.04,-0.03 -4.91,-19.72 c -0.28,-1.19 -0.36,-1.47 -3.08,-1.47 -0.62,0 -1.05,0 -1.05,-0.76 0,-0.04 0,-0.49 0.57,-0.49 0.67,0 1.47,0.11 2.15,0.11 0.71,0 1.5,0.03 2.21,0.03 0.97,0 3.45,-0.14 4.42,-0.14 0.22,0 0.73,0 0.73,0.77 0,0.48 -0.42,0.48 -1.11,0.48 -0.04,0 -0.7,0 -1.32,0.08 -0.8,0.06 -0.8,0.17 -0.8,0.52 0,0.21 0.09,0.56 0.14,0.76 z"
           inkscape:connector-curvature="0"
           style="fill:#000000;stroke-width:0" /><polyline
           id="polyline4829"
           points="462,418 549.12,418 549.12,420.04 462,420.04 "
           style="fill:#000000;fill-rule:nonzero;stroke-width:0" /><path
           id="path4831"
           d="m 473.19,411.2 0,0.04 0,0.04 0,0.04 0,0.04 0,0.04 0,0.04 0,0.04 0,0.03 -0.01,0.03 0,0.04 0,0.03 0,0.03 0,0.03 -0.01,0.03 0,0.02 0,0.03 -0.01,0.03 0,0.02 -0.01,0.02 0,0.03 -0.02,0.04 -0.01,0.04 -0.02,0.03 -0.02,0.03 -0.02,0.03 -0.02,0.02 -0.03,0.03 -0.03,0.02 -0.03,0.01 -0.04,0.02 -0.04,0.01 -0.05,0.01 -0.02,0.01 -0.02,0 -0.03,0.01 -0.03,0 -0.02,0 -0.03,0.01 -0.03,0 -0.03,0 -0.03,0 -0.04,0 -0.03,0.01 -0.04,0 -0.03,0 -0.04,0 -0.04,0 -0.04,0 -0.04,0 -0.05,0 -0.04,0 -0.05,0 c -2.23,-2.2 -5.39,-2.23 -6.82,-2.23 v -1.25 c 0.84,0 3.14,0 5.04,0.96 V 391.9 c 0,-1.16 0,-1.61 -3.48,-1.61 h -1.31 v -1.25 c 0.62,0.03 4.9,0.14 6.2,0.14 1.08,0 5.47,-0.11 6.23,-0.14 v 1.25 h -1.32 c -3.49,0 -3.49,0.45 -3.49,1.61 z"
           inkscape:connector-curvature="0"
           style="fill:#000000;stroke-width:0" /><path
           id="path4833"
           d="m 507.24,396.91 0.05,0 0.06,0 0.11,0.01 0.12,0 0.05,0 0.06,0.01 0.06,0 0.06,0.01 0.06,0.01 0.06,0.01 0.05,0.01 0.06,0.01 0.05,0.02 0.05,0.02 0.06,0.02 0.05,0.02 0.04,0.03 0.05,0.03 0.04,0.03 0.04,0.04 0.04,0.04 0.01,0.02 0.02,0.02 0.02,0.02 0.01,0.03 0.02,0.02 0.01,0.03 0.01,0.02 0.01,0.03 0.01,0.03 0.01,0.03 0.01,0.03 0.01,0.03 0,0.04 0.01,0.03 0,0.03 0.01,0.04 0,0.04 0,0.04 c 0,0.86 -0.8,0.86 -1.39,0.86 h -20.77 c -0.56,0 -1.39,0 -1.39,-0.83 0,-0.88 0.8,-0.88 1.39,-0.88 z"
           inkscape:connector-curvature="0"
           style="fill:#000000;stroke-width:0" /><path
           id="path4835"
           d="m 524.55,396.85 0.1,0 0.1,0 0.11,0.01 0.05,0 0.05,0 0.05,0.01 0.05,0 0.05,0.01 0.05,0.01 0.05,0.01 0.04,0.01 0.05,0.01 0.04,0.01 0.05,0.02 0.04,0.02 0.04,0.02 0.03,0.02 0.04,0.03 0.03,0.03 0.03,0.03 0.03,0.03 0.01,0.02 0.01,0.01 0.01,0.02 0.01,0.02 0.01,0.02 0.01,0.03 0.01,0.02 0.01,0.02 0.01,0.03 0,0.02 0.01,0.03 0,0.02 0,0.03 0.01,0.03 0,0.03 0,0.03 c 0,0.59 -0.52,0.59 -1.19,0.59 h -6.23 c 1.04,3.17 3.31,4.7 6.37,4.7 h 1.33 c 0.56,0 1.22,0 1.22,0.66 0,0.59 -0.49,0.59 -1.16,0.59 h -1.48 c -4.64,0 -9.83,-3.23 -9.83,-8.53 0,-4.07 3.09,-6.82 7.14,-6.82 1.05,0 2.5,0.17 4.36,1.21 0.69,0.38 0.76,0.49 0.76,0.69 0,0.11 0,0.7 -0.53,0.7 -0.14,0 -0.2,-0.03 -0.42,-0.17 -1.22,-0.79 -2.67,-1.47 -4.11,-1.47 -1.39,0 -4.28,0.71 -4.28,4.68 0,0.48 0,1.18 0.31,2.51 z"
           inkscape:connector-curvature="0"
           style="fill:#000000;stroke-width:0" /><path
           id="path4837"
           d="m 543.63,403.81 h -1.04 c -0.08,-0.48 -0.33,-2.01 -0.72,-2.26 -0.21,-0.16 -2.3,-0.16 -2.67,-0.16 h -4.88 c 1.64,1.22 3.48,2.61 4.98,3.61 2.24,1.55 4.33,3 4.33,5.64 0,3.19 -3.01,4.95 -6.58,4.95 -3.35,0 -5.82,-1.95 -5.82,-4.39 0,-1.29 1.09,-1.51 1.45,-1.51 0.67,0 1.47,0.45 1.47,1.47 0,0.89 -0.66,1.39 -1.42,1.46 0.68,1.13 2.14,1.88 3.81,1.88 2.41,0 4.42,-1.45 4.42,-3.89 0,-2.09 -1.44,-3.69 -3.36,-5.31 l -6.08,-5.16 c -0.25,-0.22 -0.26,-0.22 -0.29,-0.39 V 399 h 11.57 z"
           inkscape:connector-curvature="0"
           style="fill:#000000;stroke-width:0" /></g></g><g
       id="g4975"
       transform="matrix(1.0525425,0,0,1.0525425,305.54371,-6.2347123)"><g
         id="g4977"
         transform="matrix(0.35535714,0,0,-0.35535714,-62.1875,337.5)"
         xml:space="preserve"
         stroke-miterlimit="10.433"
         font-style="normal"
         font-variant="normal"
         font-weight="normal"
         font-stretch="normal"
         font-size-adjust="none"
         letter-spacing="normal"
         word-spacing="normal"
         style="font-style:normal;font-variant:normal;font-weight:normal;font-stretch:normal;letter-spacing:normal;word-spacing:normal;text-anchor:start;fill:none;stroke:#000000;stroke-linecap:butt;stroke-linejoin:miter;stroke-miterlimit:10.43299961;stroke-opacity:1;stroke-dasharray:none;stroke-dashoffset:0"><path
           d="m 481.38,423.14 0.47,0.11 0.48,0.12 0.48,0.14 0.48,0.15 0.49,0.16 0.48,0.18 0.48,0.19 0.47,0.2 0.47,0.22 0.47,0.23 0.46,0.24 0.45,0.25 0.43,0.27 0.43,0.28 0.42,0.29 0.4,0.3 0.39,0.31 0.37,0.32 0.36,0.34 0.33,0.35 0.32,0.35 0.29,0.37 0.28,0.38 0.25,0.39 0.22,0.4 0.2,0.41 0.17,0.42 0.15,0.43 0.11,0.44 0.08,0.45 0.05,0.46 0.02,0.47 c 0,4.28 -4.48,7.47 -11,7.47 h -14.2 c -1,0 -1.45,0 -1.45,-1 0,-0.55 0.45,-0.55 1.4,-0.55 0.1,0 1.05,0 1.89,-0.09 0.89,-0.11 1.35,-0.16 1.35,-0.8 0,-0.2 -0.05,-0.36 -0.21,-0.95 l -6.67,-26.75 c -0.5,-1.95 -0.59,-2.34 -4.53,-2.34 -0.91,0 -1.34,0 -1.34,-1 0,-0.55 0.59,-0.55 0.68,-0.55 1.41,0 4.89,0.16 6.29,0.16 1.39,0 4.93,-0.16 6.32,-0.16 0.41,0 1,0 1,1 0,0.55 -0.45,0.55 -1.39,0.55 -1.84,0 -3.25,0 -3.25,0.89 0,0.29 0.11,0.54 0.16,0.84 l 3.28,13.2 h 5.94 l -0.05,1.11 h -5.59 l 3.25,13 c 0.29,1.19 0.43,1.69 1.39,1.85 0.45,0.04 2.04,0.04 3.03,0.04 3.55,0 9.08,0 9.08,-4.93 0,-1.69 -0.8,-5.13 -2.75,-7.07 -1.28,-1.29 -3.92,-2.89 -8.41,-2.89 l 0.05,-1.11 c 4.53,0 5.42,-2.78 5.42,-4.53 0,-0.75 -0.39,-2.28 -0.69,-3.44 -0.36,-1.39 -0.79,-3.23 -0.79,-4.23 0,-5.37 5.96,-5.37 6.62,-5.37 4.23,0 5.97,5.03 5.97,5.73 0,0.59 -0.55,0.59 -0.59,0.59 -0.46,0 -0.55,-0.36 -0.65,-0.7 -1.25,-3.69 -3.39,-4.53 -4.54,-4.53 -1.64,0 -1.99,1.09 -1.99,3.05 0,1.53 0.3,4.07 0.5,5.67 0.1,0.7 0.21,1.64 0.21,2.34 0,3.83 -3.35,5.38 -4.69,5.88 z"
           id="path4979"
           inkscape:connector-curvature="0"
           style="fill:#000000;stroke-width:0" /></g></g><g
       id="g5691"
       transform="matrix(0.71272956,0,0,0.71272956,-270.07062,-168.05476)"><g
         word-spacing="normal"
         letter-spacing="normal"
         font-size-adjust="none"
         font-stretch="normal"
         font-weight="normal"
         font-variant="normal"
         font-style="normal"
         stroke-miterlimit="10.433"
         xml:space="preserve"
         transform="matrix(0.4224431,0,0,-0.4224431,-73.927543,358.57573)"
         id="g5693"
         style="font-style:normal;font-variant:normal;font-weight:normal;font-stretch:normal;letter-spacing:normal;word-spacing:normal;text-anchor:start;fill:none;stroke:#000000;stroke-linecap:butt;stroke-linejoin:miter;stroke-miterlimit:10.43299961;stroke-opacity:1;stroke-dasharray:none;stroke-dashoffset:0"><path
           id="path5695"
           d="m 1189.2,272.01 0,0.02 0,0.01 0,0.02 0,0.02 0,0.02 0,0.01 -0.1,0.02 0,0.01 0,0.02 0,0.01 0,0.02 0,0.01 0,0.01 0,0.02 0,0.01 0,0.01 0,0.03 0,0.02 -0.1,0.03 0,0.02 0,0.03 0,0.03 0,0.02 -0.1,0.03 c -1.8,1.84 -5.1,5.17 -8.5,10.56 -8,12.85 -11.6,29.05 -11.6,48.22 0,13.41 1.8,30.69 10,45.55 3.9,7.06 8,11.16 10.2,13.34 0.2,0.16 0.2,0.25 0.2,0.41 0,0.5 -0.4,0.5 -1.1,0.5 -0.7,0 -0.8,0 -1.5,-0.75 -16.7,-15.2 -22,-38.02 -22,-59 0,-19.58 4.5,-39.3 17.2,-54.2 1,-1.14 2.9,-3.19 4.9,-4.99 0.6,-0.59 0.7,-0.59 1.4,-0.59 0.7,0 1.1,0 1.1,0.5 z"
           inkscape:connector-curvature="0"
           style="fill:#000000;stroke-width:0" /><path
           id="path5697"
           d="m 1222.6,386.59 0,0 0,0.01 0,0 0,0.01 0,0.02 0,0.01 0,0.02 0,0.02 0,0.02 0,0.02 0,0.02 0,0.02 -0.1,0.02 0,0.03 0,0.02 0,0.03 0,0.02 0,0.03 0,0.02 -0.1,0.02 0,0.03 0,0.01 0,0.01 0,0.01 0,0.01 0,0.01 -0.1,0.01 0,0.01 0,0.01 0,0.01 0,0.01 0,0 -0.1,0.01 0,0.01 0,0 0,0.01 0,0.01 -0.1,0 0,0 0,0.01 0,0 -0.1,0 0,0.01 0,0 -0.1,0 c -0.7,0 -5.4,-0.46 -6.3,-0.55 -0.4,-0.05 -0.7,-0.3 -0.7,-0.95 0,-0.6 0.5,-0.6 1.2,-0.6 2.4,0 2.5,-0.34 2.5,-0.84 l -0.1,-1 -3,-11.81 c -0.9,1.84 -2.4,3.18 -4.6,3.18 l 0,-1.09 c 3.3,0 4,-4.08 4,-4.37 0,-0.32 -0.1,-0.61 -0.2,-0.86 l -2.5,-9.77 c -0.2,-0.89 -0.2,-0.98 -1,-1.84 -2.2,-2.74 -4.2,-3.53 -5.6,-3.53 -2.5,0 -3.2,2.73 -3.2,4.68 0,2.49 1.6,8.61 2.7,10.91 1.6,2.94 3.8,4.78 5.8,4.78 l 0,1.09 c -5.8,0 -12,-7.31 -12,-14.59 0,-4.69 2.7,-7.97 6.6,-7.97 1,0 3.5,0.2 6.5,3.74 0.4,-2.1 2.1,-3.74 4.5,-3.74 1.7,0 2.9,1.14 3.7,2.74 0.8,1.79 1.5,4.84 1.5,4.93 0,0.5 -0.5,0.5 -0.6,0.5 -0.5,0 -0.5,-0.2 -0.7,-0.9 -0.8,-3.24 -1.8,-6.17 -3.8,-6.17 -1.3,0 -1.5,1.29 -1.5,2.29 0,1.19 0.1,1.55 0.3,2.39 z"
           inkscape:connector-curvature="0"
           style="fill:#000000;stroke-width:0" /><path
           id="path5699"
           d="m 1248.7,369.5 0.4,0.11 0.5,0.12 0.5,0.14 0.5,0.15 0.5,0.16 0.4,0.18 0.5,0.19 0.5,0.2 0.5,0.22 0.4,0.23 0.5,0.24 0.4,0.25 0.5,0.27 0.4,0.28 0.4,0.28 0.4,0.31 0.4,0.31 0.4,0.32 0.3,0.34 0.4,0.35 0.3,0.35 0.3,0.37 0.3,0.38 0.2,0.39 0.2,0.4 0.2,0.41 0.2,0.42 0.1,0.43 0.2,0.44 0,0.45 0.1,0.46 0,0.47 c 0,4.28 -4.5,7.47 -11,7.47 h -14.2 c -1,0 -1.5,0 -1.5,-1 0,-0.55 0.5,-0.55 1.5,-0.55 0,0 1,0 1.8,-0.09 0.9,-0.11 1.4,-0.16 1.4,-0.8 0,-0.2 0,-0.36 -0.2,-0.95 l -6.7,-26.75 c -0.5,-1.95 -0.6,-2.34 -4.5,-2.34 -0.9,0 -1.4,0 -1.4,-1 0,-0.55 0.6,-0.55 0.7,-0.55 1.4,0 4.9,0.15 6.3,0.15 1.4,0 5,-0.15 6.3,-0.15 0.5,0 1,0 1,1 0,0.55 -0.4,0.55 -1.3,0.55 -1.9,0 -3.3,0 -3.3,0.89 0,0.29 0.1,0.54 0.2,0.84 l 3.2,13.2 h 6 l -0.1,1.11 h -5.6 l 3.3,13 c 0.3,1.19 0.4,1.69 1.4,1.85 0.4,0.04 2,0.04 3,0.04 3.5,0 9.1,0 9.1,-4.93 0,-1.69 -0.8,-5.13 -2.8,-7.07 -1.3,-1.29 -3.9,-2.89 -8.4,-2.89 l 0.1,-1.11 c 4.5,0 5.4,-2.78 5.4,-4.53 0,-0.75 -0.4,-2.28 -0.7,-3.44 -0.4,-1.39 -0.8,-3.23 -0.8,-4.23 0,-5.38 6,-5.38 6.6,-5.38 4.3,0 6,5.04 6,5.74 0,0.59 -0.5,0.59 -0.6,0.59 -0.4,0 -0.5,-0.36 -0.6,-0.7 -1.3,-3.69 -3.4,-4.53 -4.6,-4.53 -1.6,0 -2,1.09 -2,3.05 0,1.53 0.3,4.07 0.5,5.67 0.1,0.7 0.2,1.64 0.2,2.34 0,3.83 -3.3,5.38 -4.6,5.88 z"
           inkscape:connector-curvature="0"
           style="fill:#000000;stroke-width:0" /><polyline
           id="polyline5701"
           points="1197,330 1261.2,330 1261.2,332.04 1197,332.04 "
           style="fill:#000000;fill-rule:nonzero;stroke-width:0" /><path
           id="path5703"
           d="m 1228,318.67 0,0 0,0.01 0,0.01 0,0.01 0,0.01 0,0.01 0,0.02 0,0.02 0,0.02 0,0.02 0,0.02 0,0.02 -0.1,0.03 0,0.02 0,0.02 0,0.03 0,0.02 0,0.03 0,0.02 -0.1,0.03 0,0.02 0,0.01 0,0.01 0,0.01 0,0.01 0,0.01 -0.1,0.01 0,0.01 0,0.01 0,0.01 0,0.01 0,0.01 -0.1,0 0,0.01 0,0.01 0,0 0,0.01 -0.1,0 0,0.01 0,0 0,0 -0.1,0.01 0,0 0,0 -0.1,0 c -0.7,0 -5.4,-0.45 -6.3,-0.55 -0.4,-0.05 -0.7,-0.29 -0.7,-0.95 0,-0.6 0.5,-0.6 1.2,-0.6 2.4,0 2.5,-0.34 2.5,-0.84 l -0.1,-1 -3,-11.81 c -0.9,1.84 -2.4,3.19 -4.6,3.19 l 0,-1.1 c 3.3,0 4,-4.08 4,-4.37 0,-0.31 -0.1,-0.61 -0.2,-0.86 l -2.5,-9.77 c -0.2,-0.89 -0.2,-0.98 -1,-1.84 -2.2,-2.74 -4.2,-3.53 -5.6,-3.53 -2.5,0 -3.2,2.73 -3.2,4.69 0,2.48 1.6,8.6 2.8,10.9 1.5,2.94 3.7,4.78 5.7,4.78 l 0,1.1 c -5.9,0 -12,-7.32 -12,-14.6 0,-4.68 2.7,-7.97 6.6,-7.97 1,0 3.5,0.21 6.5,3.74 0.4,-2.1 2.1,-3.74 4.5,-3.74 1.8,0 2.9,1.14 3.7,2.74 0.8,1.79 1.5,4.84 1.5,4.94 0,0.5 -0.5,0.5 -0.6,0.5 -0.5,0 -0.6,-0.21 -0.7,-0.91 -0.9,-3.24 -1.7,-6.17 -3.8,-6.17 -1.3,0 -1.5,1.29 -1.5,2.29 0,1.19 0.1,1.55 0.3,2.4 z"
           inkscape:connector-curvature="0"
           style="fill:#000000;stroke-width:0" /><path
           id="path5705"
           d="m 1242.8,303.22 h 8.4 c 0.7,0 2.5,0 2.5,1.7 0,1.19 -1.1,1.19 -2,1.19 h -14 c -1,0 -2.9,0 -5.1,-2.34 -1.7,-1.79 -3.1,-4.18 -3.1,-4.49 0,-0.05 0,-0.48 0.6,-0.48 0.4,0 0.5,0.18 0.8,0.59 2.5,3.83 5.3,3.83 6.4,3.83 h 4.1 l -4.9,-15.99 c -0.2,-0.59 -0.5,-1.64 -0.5,-1.84 0,-0.55 0.4,-1.34 1.5,-1.34 1.6,0 1.9,1.39 2,2.14 z"
           inkscape:connector-curvature="0"
           style="fill:#000000;stroke-width:0" /><path
           id="path5707"
           d="m 1293.2,331.24 0,3.67 -0.2,3.67 -0.3,3.66 -0.4,3.64 -0.5,3.61 -0.7,3.58 -0.8,3.54 -0.9,3.49 -1.1,3.44 -0.6,1.69 -0.6,1.68 -0.7,1.67 -0.7,1.64 -0.8,1.62 -0.8,1.61 -0.8,1.58 -0.9,1.56 -1,1.54 -0.9,1.51 -1.1,1.49 -1,1.47 -1.1,1.44 -1.2,1.41 c -1,1.15 -2.9,3.18 -4.9,4.98 -0.6,0.61 -0.8,0.61 -1.4,0.61 -0.6,0 -1.1,0 -1.1,-0.5 0,-0.2 0.2,-0.41 0.3,-0.5 1.7,-1.8 5.1,-5.14 8.4,-10.52 8,-12.86 11.7,-29.04 11.7,-48.23 0,-13.39 -1.8,-30.69 -10,-45.53 -4,-7.08 -8.1,-11.21 -10.2,-13.3 -0.1,-0.16 -0.2,-0.3 -0.2,-0.45 0,-0.5 0.5,-0.5 1.1,-0.5 0.6,0 0.8,0 1.5,0.75 16.7,15.2 21.9,38.01 21.9,58.98 z"
           inkscape:connector-curvature="0"
           style="fill:#000000;stroke-width:0" /><path
           id="path5709"
           d="m 1321.3,385.06 h -1.2 c -0.1,-0.76 -0.5,-2.83 -0.9,-3.17 -0.3,-0.2 -3,-0.2 -3.5,-0.2 h -6.4 c 3.7,3.23 4.9,4.2 7,5.84 2.6,2.06 5,4.22 5,7.53 0,4.22 -3.7,6.8 -8.2,6.8 -4.3,0 -7.2,-3.03 -7.2,-6.24 0,-1.78 1.5,-1.95 1.8,-1.95 0.9,0 1.9,0.6 1.9,1.85 0,0.62 -0.3,1.84 -2.1,1.84 1.1,2.47 3.5,3.23 5.1,3.23 3.5,0 5.3,-2.7 5.3,-5.53 0,-3.03 -2.2,-5.44 -3.3,-6.68 l -8.4,-8.3 c -0.3,-0.31 -0.3,-0.39 -0.3,-1.36 h 14.3 z"
           inkscape:connector-curvature="0"
           style="fill:#000000;stroke-width:0" /></g></g></g></svg>