<?xml version="1.0" encoding="UTF-8" standalone="no"?>
<!-- Created with Inkscape (http://www.inkscape.org/) -->

<svg
   xmlns:dc="http://purl.org/dc/elements/1.1/"
   xmlns:cc="http://creativecommons.org/ns#"
   xmlns:rdf="http://www.w3.org/1999/02/22-rdf-syntax-ns#"
   xmlns:svg="http://www.w3.org/2000/svg"
   xmlns="http://www.w3.org/2000/svg"
   xmlns:sodipodi="http://sodipodi.sourceforge.net/DTD/sodipodi-0.dtd"
   xmlns:inkscape="http://www.inkscape.org/namespaces/inkscape"
   id="svg3004"
   version="1.1"
   inkscape:version="0.48.2 r9819"
   width="469.88522"
   height="247.82483"
   xml:space="preserve"
   sodipodi:docname="sspot.pdf"><sodipodi:namedview
     pagecolor="#ffffff"
     bordercolor="#666666"
     borderopacity="1"
     objecttolerance="10"
     gridtolerance="10"
     guidetolerance="10"
     inkscape:pageopacity="0"
     inkscape:pageshadow="2"
     inkscape:window-width="1123"
     inkscape:window-height="707"
     id="namedview3006"
     showgrid="false"
     fit-margin-top="0"
     fit-margin-left="0"
     fit-margin-right="0"
     fit-margin-bottom="0"
     inkscape:zoom="0.93"
     inkscape:cx="45.390734"
     inkscape:cy="166.2119"
     inkscape:window-x="0"
     inkscape:window-y="0"
     inkscape:window-maximized="0"
     inkscape:current-layer="g3012" /><metadata
     id="metadata3010"><rdf:RDF><cc:Work
         rdf:about=""><dc:format>image/svg+xml</dc:format><dc:type
           rdf:resource="http://purl.org/dc/dcmitype/StillImage" /><dc:title></dc:title></cc:Work></rdf:RDF></metadata><defs
     id="defs3008"><marker
       inkscape:stockid="Arrow1Mstart"
       orient="auto"
       refY="0"
       refX="0"
       id="Arrow1Mstart"
       style="overflow:visible"><path
         id="path3881"
         d="M 0,0 5,-5 -12.5,0 5,5 0,0 z"
         style="fill-rule:evenodd;stroke:#000000;stroke-width:1pt;marker-start:none"
         transform="matrix(0.4,0,0,0.4,4,0)"
         inkscape:connector-curvature="0" /></marker><marker
       inkscape:stockid="Arrow1Mend"
       orient="auto"
       refY="0"
       refX="0"
       id="Arrow1Mend"
       style="overflow:visible"><path
         id="path3884"
         d="M 0,0 5,-5 -12.5,0 5,5 0,0 z"
         style="fill-rule:evenodd;stroke:#000000;stroke-width:1pt;marker-start:none"
         transform="matrix(-0.4,0,0,-0.4,-4,0)"
         inkscape:connector-curvature="0" /></marker><clipPath
       clipPathUnits="userSpaceOnUse"
       id="clipPath3016"><path
         d="m 47,12 0,180.1 360,0 0,-180.1"
         clip-rule="evenodd"
         id="path3018"
         inkscape:connector-curvature="0" /></clipPath><clipPath
       clipPathUnits="userSpaceOnUse"
       id="clipPath3028"><path
         d="m 0,4 0,196 535,0 0,-196"
         clip-rule="evenodd"
         id="path3030"
         inkscape:connector-curvature="0" /></clipPath><clipPath
       clipPathUnits="userSpaceOnUse"
       id="clipPath3040"><path
         d="m 47,12 0,181 360,0 0,-181"
         clip-rule="evenodd"
         id="path3042"
         inkscape:connector-curvature="0" /></clipPath><clipPath
       clipPathUnits="userSpaceOnUse"
       id="clipPath3048"><path
         d="m 45,10 0,184 364,0 0,-184"
         clip-rule="evenodd"
         id="path3050"
         inkscape:connector-curvature="0" /></clipPath><clipPath
       clipPathUnits="userSpaceOnUse"
       id="clipPath3056"><path
         d="m 47,11 0,181 360,0 0,-181"
         clip-rule="evenodd"
         id="path3058"
         inkscape:connector-curvature="0" /></clipPath></defs><g
     id="g3012"
     inkscape:groupmode="layer"
     inkscape:label="sspotraw"
     transform="matrix(1.25,0,0,1.25,-48.321866,14.196365)"
     style="display:inline"><g
       clip-path="url(#clipPath3040)"
       id="g3038"><g
         id="g3044"><g
           clip-path="url(#clipPath3048)"
           id="g3046"><g
             id="g3052"><g
               clip-path="url(#clipPath3056)"
               id="g3054"><g
                 id="g3060" /><g
                 id="g3062" /><g
                 id="g3064"><path
                   inkscape:connector-curvature="0"
                   id="path3066"
                   style="fill:none;stroke:#426ab5;stroke-width:1.79900002;stroke-linecap:square;stroke-linejoin:miter;stroke-miterlimit:3.25;stroke-opacity:1;stroke-dasharray:none"
                   d="m 54.296,185.081 0.106,0 0.106,0 0.212,0 0.423,0 0.106,0 0.106,0 0.212,0 0.424,0 0.106,0 0.106,0 0.212,0 0.423,0 0.848,0 0.106,0 0.106,0 0.212,0 0.423,0 0.106,0 0.106,0 0.212,0 0.424,0 0.106,0 0.106,0 0.212,0 0.423,0 0.848,0 0.115,0 0.115,0 0.229,0 0.46,0 0.115,0 0.114,0 0.23,0 0.459,0 0.115,0 0.115,0 0.23,0 0.459,0 0.919,0 0.115,0 0.115,0 0.229,0 0.46,0 0.115,0 0.114,0 0.23,0 0.46,0 0.114,0 0.115,0 0.23,0 0.459,0 0.919,0 0.107,0 0.108,0 0.214,0 0.429,0 0.107,0 0.107,0 0.215,0 0.429,0 0.107,0 0.107,0 0.215,0 0.429,0 0.858,0 0.107,0 0.107,0 0.215,0 0.429,0 0.107,0 0.107,0 0.214,0 0.429,0 0.108,0 0.107,0 0.214,0 0.429,0 0.858,0 0.105,0 0.105,0 0.211,0 0.42,0 0.105,0 0.105,0 0.211,0 0.42,0 0.105,0 0.106,0 0.21,0 0.42,0 0.841,0 0.106,0 0.105,0 0.21,0 0.42,0 0.106,0 0.105,0 0.21,0 0.421,0 0.105,0 0.105,0 0.21,0 0.421,0 0.841,0 0.114,0 0.114,0 0.228,0 0.456,0 0.114,0 0.114,0 0.228,0 0.456,0 0.114,0 0.114,0 0.228,0 0.457,0 0.912,0 0.114,0 0.114,0 0.228,0 0.456,0 0.114,0 0.114,0 0.229,0 0.456,0 0.114,0 0.114,0 0.228,0 0.456,0 0.912,0 0.107,0 0.106,0 0.213,0 0.426,0 0.106,0 0.107,0 0.213,0 0.425,0 0.107,0 0.106,0 0.213,0 0.426,0 0.851,0 0.107,0 0.106,0 0.213,0 0.426,0 0.106,0 0.107,0 0.212,0 0.426,0 0.107,0 0.106,0 0.213,0 0.426,0 0.851,0 0.115,0 0.116,0 0.23,0 0.462,0 0.115,0 0.115,0 0.231,0 0.462,0 0.115,0 0.115,0 0.231,0 0.461,0 0.923,0 0.115,0 0.116,0 0.23,0 0.462,0 0.115,0 0.115,0 0.231,0 0.462,0 0.115,0 0.115,0 0.231,0 0.461,0 0.923,0 0.113,0 0.113,0 0.227,0 0.453,0 0.113,0 0.113,0 0.227,0 0.453,0 0.113,0 0.113,0 0.227,0 0.453,0 0.906,0 0.113,0 0.113,0 0.227,0 0.453,0 0.113,0 0.113,0 0.227,0 0.453,0 0.113,0 0.113,0 0.226,0 0.453,0 0.906,0 0.106,0 0.106,0 0.211,0 0.422,0 0.106,0 0.106,0 0.211,0 0.422,0 0.106,0 0.106,0 0.211,0 0.422,0 0.845,0 0.106,0 0.106,0 0.211,0 0.422,0 0.106,0 0.106,0 0.211,0 0.423,0 0.105,0 0.106,0 0.211,0 0.423,0 0.845,0 0.114,0 0.115,0 0.229,0 0.458,0 0.114,0 0.115,0 0.229,0 0.458,0 0.115,0 0.114,0 0.229,0 0.459,0 0.916,0 0.114,0 0.115,0 0.229,0 0.458,0 0.115,0 0.114,0 0.229,0 0.458,0 0.115,0 0.115,0 0.229,0 0.458,0 0.916,0 0.107,0 0.107,0 0.214,0 0.428,0 0.106,0 0.107,0 0.214,0 0.428,-10e-4 0.107,0 0.107,0 0.214,0 0.427,0 0.856,0 0.107,0 0.107,0 0.214,0 0.427,0 0.107,0 0.107,0 0.214,0 0.428,0 0.107,0 0.107,0 0.213,0 0.428,0 0.856,0 0.104,0 0.105,0 0.21,0 0.419,0 0.105,0 0.105,0 0.209,0 0.42,0 0.105,0 0.104,0 0.21,0 0.419,0 0.839,0 0.105,0 0.105,0 0.209,0 0.42,0 0.104,0 0.105,0 0.21,0 0.419,0 0.105,0 0.105,0 0.21,-0.001 0.419,0 0.838,0 0.114,0 0.114,0 0.227,0 0.455,0 0.114,0 0.114,0 0.227,0 0.455,0 0.114,0 0.114,0 0.227,0 0.455,-0.001 0.91,0 0.114,0 0.113,0 0.228,0 0.455,0 0.114,0 0.113,0 0.228,0 0.455,-0.001 0.113,0 0.114,0 0.228,0 0.455,0 0.91,-0.001 0.106,0 0.106,0 0.212,0 0.425,0 0.106,0 0.106,0 0.212,-0.001 0.425,0 0.106,0 0.106,0 0.212,0 0.425,-10e-4 0.849,-0.001 0.106,0 0.106,0 0.212,0 0.425,0 0.106,-0.001 0.106,0 0.212,0 0.425,-0.001 0.106,0 0.106,0 0.212,0 0.425,-0.001 0.849,-0.001 0.115,0 0.115,-10e-4 0.23,0 0.46,-0.001 0.115,0 0.115,0 0.23,-0.001 0.46,-0.001 0.115,0 0.115,0 0.23,-0.001 0.46,-0.001 0.921,-0.003 0.115,0 0.115,0 0.23,-0.001 0.46,-0.001 0.115,-0.001 0.115,0 0.23,-10e-4 0.46,-0.002 0.115,0 0.115,-0.001 0.23,-0.001 0.461,-0.002 0.92,-0.004 0.113,0 0.113,-0.001 0.226,-10e-4 0.451,-0.003 0.113,0 0.113,-0.001 0.226,-0.001 0.452,-0.003 0.113,-0.001 0.113,-0.001 0.226,-0.001 0.451,-0.004 0.904,-0.007 0.113,-0.001 0.113,-10e-4 0.225,-0.002 0.452,-0.004 0.113,-0.001 0.113,-0.001 0.226,-0.002 0.452,-0.005 0.113,-0.002 0.112,-10e-4 0.226,-0.002 0.452,-0.006 0.904,-0.012 0.105,-0.002 0.105,-10e-4 0.211,-0.003 0.421,-0.007 0.105,-0.002 0.106,-0.001 0.21,-0.004 0.422,-0.007 0.105,-0.002 0.105,-0.002 0.211,-0.004 0.421,-0.009 0.843,-0.018 0.105,-0.003 0.106,-0.002 0.21,-0.005 0.421,-0.011 0.106,-0.003 0.105,-0.003 0.211,-0.005 0.421,-0.012 0.105,-0.004 0.106,-0.003 0.21,-0.006 0.422,-0.014 0.842,-0.03 0.114,-0.004 0.115,-0.005 0.228,-0.009 0.457,-0.019 0.114,-0.005 0.114,-0.005 0.229,-0.011 0.457,-0.021 0.114,-0.006 0.114,-0.006 0.229,-0.012 0.457,-0.025 0.914,-0.055 0.114,-0.007 0.114,-0.007 0.229,-0.016 0.456,-0.032 0.115,-0.009 0.114,-0.008 0.228,-0.018 0.457,-0.037 0.115,-0.009 0.114,-0.01 0.228,-0.02 0.457,-0.042 0.914,-0.094 0.107,-0.011 0.106,-0.012 0.214,-0.025 0.426,-0.05 0.107,-0.014 0.106,-0.013 0.214,-0.028 0.426,-0.057 0.107,-0.015 0.106,-0.015 0.213,-0.031 0.427,-0.065 0.853,-0.143 0.107,-0.019 0.106,-0.019 0.213,-0.04 0.427,-0.083 0.107,-0.022 0.106,-0.022 0.213,-0.045 0.427,-0.094 0.107,-0.024 0.106,-0.025 0.213,-0.05 0.427,-0.107 0.853,-0.232 0.115,-0.034 0.116,-0.034 0.231,-0.071 0.462,-0.148 0.116,-0.038 0.115,-0.039 0.231,-0.081 0.462,-0.168 0.116,-0.044 0.115,-0.045 0.232,-0.092 0.462,-0.192 0.924,-0.425 0.115,-0.057 0.116,-0.058 0.231,-0.119 0.462,-0.25 0.116,-0.065 0.115,-0.066 0.231,-0.136 0.462,-0.285 0.116,-0.074 0.116,-0.075 0.231,-0.155 0.462,-0.324 0.924,-0.715 0.113,-0.095 0.114,-0.095 0.227,-0.196 0.453,-0.412 0.114,-0.107 0.113,-0.108 0.227,-0.223 0.454,-0.466 0.113,-0.122 0.114,-0.123 0.227,-0.252 0.453,-0.528 0.908,-1.161 0.113,-0.155 0.114,-0.158 0.226,-0.323 0.454,-0.676 0.114,-0.176 0.113,-0.178 0.227,-0.365 0.454,-0.764 0.113,-0.198 0.113,-0.201 0.227,-0.412 0.454,-0.861 0.907,-1.884 0.106,-0.235 0.106,-0.238 0.212,-0.485 0.423,-1.011 0.847,-2.194 0.105,-0.291 0.106,-0.294 0.212,-0.602 0.423,-1.251 0.847,-2.706 0.105,-0.358 0.106,-0.363 0.212,-0.739 0.423,-1.536 0.847,-3.306 0.106,-0.437 0.105,-0.441 0.212,-0.9 0.423,-1.862 0.847,-3.994 0.115,-0.569 0.114,-0.576 0.23,-1.174 0.459,-2.43 0.917,-5.205 0.115,-0.683 0.115,-0.69 0.229,-1.403 0.459,-2.895 0.918,-6.14 0.115,-0.8 0.115,-0.807 0.229,-1.637 0.459,-3.357 0.918,-7.04 1.835,-15.224 0.108,-0.927 0.107,-0.931 0.214,-1.872 0.428,-3.778 0.857,-7.66 1.714,-15.374 0.107,-0.948 0.108,-0.944 0.214,-1.879 0.428,-3.708 0.857,-7.165 0.107,-0.867 0.107,-0.859 0.215,-1.696 0.428,-3.291 0.857,-6.121 0.105,-0.702 0.105,-0.692 0.21,-1.349 0.42,-2.556 0.105,-0.608 0.105,-0.595 0.21,-1.15 0.42,-2.138 0.105,-0.5 0.105,-0.485 0.21,-0.928 0.105,-0.441 0.105,-0.427 0.21,-0.808 0.105,-0.381 0.105,-0.366 0.211,-0.684 0.105,-0.319 0.105,-0.303 0.21,-0.559 0.105,-0.255 0.105,-0.239 0.105,-0.223 0.105,-0.207 0.105,-0.191 0.105,-0.174 0.105,-0.158 0.105,-0.141 0.105,-0.126 0.105,-0.109 0.105,-0.092 0.105,-0.077 0.105,-0.06 0.105,-0.043 0.105,-0.028 0.105,-0.011 0.105,0.005 0.105,0.021 0.105,0.038 0.105,0.053 0.105,0.069 0.105,0.086 0.105,0.101 0.105,0.116 0.105,0.133 0.105,0.148 0.105,0.163 0.105,0.178 0.105,0.194 0.105,0.209 0.21,0.463 0.114,0.275 0.114,0.293 0.228,0.635 0.114,0.343 0.114,0.359 0.227,0.766 0.114,0.407 0.114,0.421 0.228,0.89 0.456,1.952 0.114,0.522 0.114,0.537 0.228,1.111 0.455,2.371 0.912,5.274 0.114,0.703 0.114,0.713 0.227,1.45 0.456,2.994 0.911,6.3 1.823,13.38 0.107,0.797 0.106,0.797 0.213,1.596 0.425,3.192 0.85,6.355 1.701,12.374 0.107,0.752 0.106,0.748 0.213,1.487 0.425,2.933 0.85,5.693 1.701,10.622 0.116,0.68 0.115,0.676 0.23,1.335 0.461,2.611 0.922,4.976 0.115,0.599 0.116,0.594 0.23,1.173 0.461,2.287 0.922,4.337 0.115,0.52 0.115,0.516 0.231,1.017 0.461,1.979 0.921,3.74 1.844,6.667 0.113,0.376 0.113,0.372 0.226,0.734 0.453,1.425 0.905,2.686 0.113,0.321 0.113,0.318 0.226,0.627 0.453,1.216 0.905,2.292 0.113,0.274 0.113,0.271 0.226,0.535 0.453,1.037 0.905,1.953 1.81,3.469 0.105,0.186 0.106,0.184 0.211,0.363 0.422,0.706 0.844,1.337 0.105,0.16 0.106,0.159 0.211,0.313 0.422,0.61 0.844,1.154 0.106,0.139 0.105,0.137 0.211,0.271 0.422,0.527 0.844,1 1.689,1.797 0.114,0.113 0.114,0.112 0.229,0.22 0.458,0.429 0.915,0.81 0.115,0.097 0.114,0.096 0.229,0.19 0.458,0.369 0.915,0.698 0.114,0.083 0.115,0.083 0.229,0.164 0.457,0.319 0.916,0.603 1.831,1.085 0.106,0.059 0.107,0.058 0.214,0.115 0.427,0.225 0.855,0.427 0.106,0.052 0.107,0.051 0.214,0.101 0.427,0.198 0.855,0.376 0.106,0.046 0.107,0.045 0.214,0.089 0.427,0.174 0.854,0.332 1.709,0.607 0.105,0.035 0.105,0.034 0.209,0.069 0.419,0.134 0.838,0.256 1.675,0.47 0.105,0.028 0.105,0.027 0.209,0.055 0.419,0.106 0.837,0.204 1.676,0.377 0.113,0.024 0.114,0.023 0.227,0.048 0.455,0.092 0.909,0.177 1.818,0.325 0.113,0.019 0.114,0.019 0.227,0.038 0.455,0.073 0.909,0.142 1.817,0.26 0.106,0.014 0.106,0.014 0.212,0.028 0.424,0.056 0.849,0.106 1.696,0.199 0.106,0.011 0.106,0.012 0.212,0.023 0.424,0.046 0.848,0.088 1.696,0.163 0.115,0.011 0.115,0.01 0.23,0.021 0.459,0.041 0.92,0.079 1.838,0.146 0.115,0.008 0.115,0.009 0.23,0.017 0.46,0.034 0.919,0.064 1.839,0.121 0.107,0.007 0.107,0.006 0.215,0.014 0.429,0.026 0.859,0.05 1.717,0.095 0.107,0.005 0.107,0.006 0.215,0.011 0.429,0.022 0.859,0.043 1.716,0.08 0.106,0.005 0.105,0.004 0.21,0.01 0.421,0.018 0.842,0.036 1.683,0.067 0.105,0.004 0.105,0.004 0.211,0.008 0.421,0.016 0.841,0.03 1.684,0.058 0.114,0.004 0.114,0.003 0.228,0.008 0.457,0.015 0.912,0.028 1.826,0.054 0.114,0.003 0.115,0.003 0.228,0.006 0.456,0.013 0.913,0.024 1.826,0.046 0.106,0.003 0.107,0.002 0.213,0.006 0.426,0.01 0.852,0.019 1.704,0.038 0.107,0.002 0.106,0.002 0.213,0.004 0.426,0.009 0.852,0.017 1.704,0.033 0.116,0.002 0.115,0.002 0.231,0.005 0.462,0.008 0.923,0.016 1.847,0.031 0.115,0.002 0.115,0.002 0.231,0.003 0.462,0.007 0.923,0.015 1.847,0.026 0.113,0.002 0.114,0.002 0.226,0.003 0.453,0.006 0.907,0.012 1.813,0.023 3.626,0.042 0.106,0.002 0.105,0.001 0.212,0.002 0.422,0.004 0.846,0.009 1.691,0.017 3.383,0.031 0.114,0.001 0.115,10e-4 0.229,0.002 0.459,0.004 0.917,0.008 1.833,0.014 3.668,0.027 0.107,0.001 0.107,0.001 0.214,0.001 0.428,0.003 0.856,0.006 1.712,0.011 3.424,0.02 0.105,0.001 0.105,0 0.21,0.001 0.419,0.003 0.839,0.004 1.679,0.009 3.356,0.016 0.114,0.001 0.114,0 0.228,0.002 0.455,0.002 0.91,0.004 1.821,0.008 3.642,0.014 0.106,0.001 0.107,0 0.212,0.001 0.425,10e-4 0.849,0.003 1.7,0.006 3.398,0.012 0.118,0 0.119,0.001 0.237,0 0.474,0.002 0.949,0.003 1.896,0.005 0.119,0.001 0.119,0 0.237,0.001 0.474,0.001 0.948,0.003 0.119,0 0.118,0 0.237,0.001 0.475,0.001 0.118,0.001 0.119,0 0.237,10e-4 0.118,0 0.119,0 0.118,0.001 0.119,0" /></g><g
                 id="g3068" /><g
                 id="g3072" /><g
                 id="g3076" /></g></g></g></g></g><path
       inkscape:connector-curvature="0"
       id="path3078"
       d="m 226.50138,186.30277 0,-180.5121234"
       style="fill:none;stroke:#000000;stroke-width:1.20000005;stroke-linecap:butt;stroke-linejoin:miter;stroke-miterlimit:4;stroke-opacity:1;stroke-dasharray:none;marker-end:url(#Arrow1Mend)" /><path
       inkscape:connector-curvature="0"
       id="path3080"
       d="m 39.276493,185.72216 374.670187,0"
       style="fill:none;stroke:#000000;stroke-width:1.23839999999999995;stroke-linecap:butt;stroke-linejoin:miter;stroke-miterlimit:4;stroke-opacity:1;stroke-dasharray:none;marker-start:url(#Arrow1Mstart);marker-end:url(#Arrow1Mend);marker-mid:none" /><g
       transform="translate(-47.311828,-42.150538)"
       id="g5241"><g
         style="font-style:normal;font-variant:normal;font-weight:normal;font-stretch:normal;letter-spacing:normal;word-spacing:normal;text-anchor:start;fill:none;stroke:#000000;stroke-linecap:butt;stroke-linejoin:miter;stroke-miterlimit:10.43299961;stroke-opacity:1;stroke-dasharray:none;stroke-dashoffset:0"
         word-spacing="normal"
         letter-spacing="normal"
         font-size-adjust="none"
         font-stretch="normal"
         font-weight="normal"
         font-variant="normal"
         font-style="normal"
         stroke-miterlimit="10.433"
         xml:space="preserve"
         transform="matrix(0.32609307,0,0,-0.32609307,-57.066288,352.41391)"
         id="g5243"><path
           style="fill:#000000;stroke-width:0"
           inkscape:connector-curvature="0"
           id="path5245"
           d="m 459.91,409.14 -0.02,-0.07 -0.01,-0.08 -0.02,-0.07 -0.01,-0.08 -0.04,-0.16 -0.04,-0.16 -0.03,-0.16 -0.04,-0.16 -0.04,-0.16 -0.04,-0.16 -0.01,-0.08 -0.02,-0.07 -0.02,-0.07 -0.01,-0.07 -0.02,-0.07 -0.01,-0.07 -0.01,-0.06 -0.01,-0.06 -0.01,-0.06 -0.01,-0.05 -0.01,-0.05 -0.01,-0.04 -0.01,-0.04 0,-0.04 0,-0.03 0,-0.02 c 0,-0.89 0.7,-1.35 1.43,-1.35 0.61,0 1.5,0.39 1.85,1.39 0.11,0.21 1.8,6.99 2,7.88 0.39,1.64 1.3,5.12 1.59,6.48 0.21,0.64 1.6,2.99 2.78,4.08 0.41,0.34 1.85,1.64 4,1.64 1.28,0 2.03,-0.59 2.08,-0.59 -1.48,-0.25 -2.58,-1.46 -2.58,-2.74 0,-0.79 0.55,-1.75 1.89,-1.75 1.35,0 2.74,1.14 2.74,2.94 0,1.75 -1.6,3.23 -4.13,3.23 -3.25,0 -5.43,-2.43 -6.39,-3.82 -0.39,2.23 -2.18,3.82 -4.53,3.82 -2.28,0 -3.23,-1.93 -3.69,-2.82 -0.89,-1.71 -1.54,-4.69 -1.54,-4.85 0,-0.5 0.5,-0.5 0.61,-0.5 0.5,0 0.54,0.07 0.84,1.16 0.84,3.53 1.84,5.92 3.64,5.92 0.84,0 1.55,-0.39 1.55,-2.28 0,-1.05 -0.16,-1.61 -0.8,-4.19 z" /><path
           style="fill:#000000;stroke-width:0"
           inkscape:connector-curvature="0"
           id="path5247"
           d="m 489.21,407.43 0.26,0.12 0.26,0.11 0.24,0.11 0.24,0.1 0.23,0.1 0.22,0.1 0.21,0.09 0.21,0.09 0.2,0.08 0.19,0.08 0.18,0.08 0.18,0.08 0.17,0.07 0.16,0.07 0.16,0.06 0.15,0.07 0.14,0.06 0.14,0.06 0.14,0.05 0.13,0.06 0.12,0.05 0.12,0.05 0.11,0.05 0.11,0.05 0.11,0.04 0.1,0.05 0.19,0.08 0.18,0.09 0.17,0.08 c 0.67,0.26 0.98,0.4 0.98,1.07 0,0.6 -0.45,1.11 -1.08,1.11 -0.25,0 -0.31,0 -0.73,-0.31 l -4.74,-3.17 0.52,5.15 c 0.08,0.63 0,1.5 -1.05,1.5 -0.42,0 -1.08,-0.28 -1.08,-1.04 0,-0.31 0.15,-1.36 0.18,-1.71 0.07,-0.59 0.31,-3.1 0.39,-3.9 l -4.71,3.17 c -0.36,0.2 -0.45,0.31 -0.76,0.31 -0.64,0 -1.1,-0.51 -1.1,-1.11 0,-0.7 0.43,-0.87 0.74,-1.01 l 5.26,-2.19 c -2.85,-1.27 -4.14,-1.75 -5.01,-2.17 -0.66,-0.28 -0.99,-0.42 -0.99,-1.08 0,-0.59 0.46,-1.11 1.1,-1.11 0.23,0 0.31,0 0.72,0.31 l 4.75,3.18 -0.57,-5.61 c 0,-0.77 0.66,-1.05 1.08,-1.05 0.42,0 1.08,0.28 1.08,1.05 0,0.31 -0.14,1.36 -0.17,1.7 -0.06,0.59 -0.31,3.09 -0.38,3.91 l 4.18,-2.8 c 0.9,-0.69 0.98,-0.69 1.29,-0.69 0.63,0 1.08,0.52 1.08,1.11 0,0.7 -0.42,0.88 -0.73,1.02 z" /><path
           style="fill:#000000;stroke-width:0"
           inkscape:connector-curvature="0"
           id="path5249"
           d="m 556.35,417.65 -0.25,-0.19 -0.25,-0.2 -0.23,-0.19 -0.23,-0.2 -0.22,-0.19 -0.22,-0.19 -0.2,-0.19 -0.2,-0.19 -0.19,-0.18 -0.18,-0.18 -0.18,-0.18 -0.17,-0.18 -0.16,-0.17 -0.15,-0.17 -0.15,-0.17 -0.14,-0.16 -0.13,-0.15 -0.13,-0.16 -0.12,-0.15 -0.11,-0.14 -0.11,-0.14 -0.1,-0.13 -0.09,-0.13 -0.09,-0.12 -0.08,-0.11 -0.08,-0.11 -0.07,-0.11 -0.06,-0.09 -0.06,-0.09 -0.05,-0.08 -0.05,-0.07 -0.04,-0.07 c -2.23,-3.44 -2.64,-6.58 -2.64,-6.62 0,-0.6 0.61,-0.6 1,-0.6 0.85,0 0.89,0.1 1.1,1 1.15,4.88 4.09,9.06 9.71,11.36 0.6,0.19 0.75,0.3 0.75,0.64 0,0.35 -0.29,0.5 -0.4,0.55 -2.19,0.84 -8.22,3.34 -10.11,11.72 -0.16,0.59 -0.2,0.73 -1.05,0.73 -0.39,0 -1,0 -1,-0.59 0,-0.1 0.46,-3.24 2.55,-6.58 1,-1.48 2.44,-3.23 4.58,-4.83 h -37.02 c -0.89,0 -1.8,0 -1.8,-1 0,-1 0.91,-1 1.8,-1 z" /><path
           style="fill:#000000;stroke-width:0"
           inkscape:connector-curvature="0"
           id="path5251"
           d="m 611.23,417.65 0.16,0 0.15,0 0.16,0.01 0.08,0 0.08,0.01 0.07,0 0.08,0.01 0.07,0.01 0.07,0.01 0.07,0.02 0.07,0.02 0.06,0.02 0.07,0.02 0.06,0.02 0.06,0.03 0.05,0.03 0.06,0.04 0.04,0.03 0.05,0.05 0.04,0.04 0.04,0.05 0.02,0.03 0.02,0.03 0.01,0.03 0.02,0.03 0.01,0.03 0.01,0.03 0.02,0.04 0.01,0.03 0.01,0.04 0,0.04 0.01,0.04 0.01,0.04 0,0.04 0,0.04 0.01,0.05 0,0.04 c 0,1 -0.91,1 -1.75,1 h -26.96 c -0.84,0 -1.73,0 -1.73,-1 0,-1 0.89,-1 1.73,-1 z" /><path
           style="fill:#000000;stroke-width:0"
           inkscape:connector-curvature="0"
           id="path5253"
           d="m 642.47,415.86 -0.25,0.31 -0.23,0.29 -0.22,0.29 -0.22,0.26 -0.2,0.26 -0.19,0.24 -0.19,0.23 -0.17,0.22 -0.17,0.2 -0.16,0.2 -0.16,0.19 -0.15,0.17 -0.14,0.17 -0.14,0.16 -0.13,0.16 -0.13,0.15 -0.12,0.14 -0.13,0.13 -0.12,0.13 -0.12,0.13 -0.23,0.23 -0.24,0.23 -0.24,0.22 -0.24,0.22 -0.26,0.22 -0.14,0.11 -0.14,0.11 c -2.8,2.25 -5.59,3.15 -8.12,3.15 -5.83,0 -9.63,-5.47 -9.63,-11.3 H 621 c 0,4.87 3.33,8.9 7.72,8.9 2.89,0 5.12,-2.09 6.17,-3.14 1.25,-1.34 2.39,-2.89 5.44,-6.81 h 0 c -2.05,-3.59 -5.74,-8.62 -11.36,-8.62 -5.28,0 -7.97,5.18 -7.97,9.67 h -1.11 c 0,-5.74 3.69,-11.27 9.42,-11.27 5.74,0 9.86,4.53 12.31,8.52 2.69,-3.39 3.29,-4.13 4.83,-5.38 2.78,-2.25 5.58,-3.14 8.13,-3.14 5.83,0 9.61,5.49 9.61,11.31 h -1.1 c 0,-4.89 -3.34,-8.92 -7.71,-8.92 -2.9,0 -5.15,2.1 -6.19,3.14 -1.24,1.35 -2.39,2.89 -5.42,6.83 h 0 c 2.03,3.58 5.71,8.61 11.35,8.61 5.29,0 7.97,-5.17 7.97,-9.66 h 1.1 c 0,5.72 -3.69,11.26 -9.42,11.26 -5.72,0 -9.86,-4.54 -12.3,-8.52 z" /></g></g><g
       transform="translate(129.89247,-220.21505)"
       id="g5345"><g
         style="font-style:normal;font-variant:normal;font-weight:normal;font-stretch:normal;letter-spacing:normal;word-spacing:normal;text-anchor:start;fill:none;stroke:#000000;stroke-linecap:butt;stroke-linejoin:miter;stroke-miterlimit:10.43299961;stroke-opacity:1;stroke-dasharray:none;stroke-dashoffset:0"
         id="g5347"
         transform="matrix(0.32609307,0,0,-0.32609307,-57.066288,352.41391)"
         xml:space="preserve"
         stroke-miterlimit="10.433"
         font-style="normal"
         font-variant="normal"
         font-weight="normal"
         font-stretch="normal"
         font-size-adjust="none"
         letter-spacing="normal"
         word-spacing="normal"><path
           style="fill:#000000;stroke-width:0"
           inkscape:connector-curvature="0"
           d="m 486.8,434.54 0.23,0.36 0.23,0.33 0.22,0.31 0.22,0.29 0.22,0.28 0.22,0.25 0.22,0.24 0.22,0.22 0.21,0.2 0.21,0.19 0.21,0.17 0.2,0.16 0.21,0.14 0.2,0.13 0.21,0.12 0.19,0.11 0.2,0.09 0.2,0.09 0.19,0.07 0.2,0.07 0.19,0.06 0.19,0.05 0.18,0.04 0.19,0.03 0.18,0.03 0.19,0.03 0.36,0.04 0.35,0.02 0.35,0.02 c 0.6,0.05 0.64,0.89 0.64,0.96 0,0.39 -0.25,0.59 -0.64,0.59 -1.3,0 -2.75,-0.16 -4.09,-0.16 -1.64,0 -3.35,0.16 -4.94,0.16 -0.3,0 -0.94,0 -0.94,-0.95 0,-0.55 0.46,-0.6 0.8,-0.6 1.34,-0.09 2.3,-0.59 2.3,-1.64 0,-0.75 -0.75,-1.84 -0.75,-1.89 l -15.3,-24.31 -3.39,26.34 c 0,0.85 1.14,1.5 3.44,1.5 0.7,0 1.25,0 1.25,1 0,0.44 -0.41,0.55 -0.71,0.55 -1.98,0 -4.14,-0.16 -6.17,-0.16 -0.9,0 -1.84,0.05 -2.75,0.05 -0.89,0 -1.84,0.11 -2.69,0.11 -0.34,0 -0.93,0 -0.93,-0.95 0,-0.6 0.43,-0.6 1.23,-0.6 2.8,0 2.84,-0.45 3,-1.68 l 3.92,-30.75 c 0.16,-1 0.36,-1.14 1,-1.14 0.8,0 1,0.25 1.41,0.89 z"
           id="path5349" /><path
           style="fill:#000000;stroke-width:0"
           inkscape:connector-curvature="0"
           d="m 494.39,421.9 0,0.01 0,0 0,0 0,0.01 0.01,0 0,0.01 0,0.01 0,0 0,0.01 0.01,0.01 0,0.01 0.01,0.02 0,0.02 0.01,0.02 0,0.02 0.01,0.02 0,0.02 0.01,0.03 0.01,0.02 0.01,0.05 0.01,0.04 0.01,0.03 0,0.02 0.01,0.02 0,0.02 0.01,0.02 0,0.02 0,0.02 0.01,0.01 0,0.01 0,0.01 0,0 0,0.01 0,0 0,0.01 0.01,0 0,0.01 0,0 0,0 0,0.01 0,0 c 0,0.19 -0.14,0.5 -0.57,0.5 -0.68,0 -3.59,-0.28 -4.45,-0.36 -0.25,-0.03 -0.73,-0.06 -0.73,-0.8 0,-0.48 0.48,-0.48 0.87,-0.48 1.67,0 1.67,-0.25 1.67,-0.53 0,-0.24 -0.07,-0.46 -0.14,-0.77 l -4.32,-17.2 c -0.11,-0.36 -0.15,-0.74 -0.15,-1.08 0,-2.23 1.99,-3.31 3.66,-3.31 0.84,0 1.89,0.28 2.8,1.84 0.73,1.28 1.22,3.35 1.22,3.49 0,0.45 -0.46,0.45 -0.57,0.45 -0.48,0 -0.54,-0.2 -0.68,-0.84 -0.46,-1.74 -1.13,-3.97 -2.63,-3.97 -0.94,0 -1.17,0.87 -1.17,1.7 0,0.39 0.09,1.05 0.2,1.44 z"
           id="path5351" /></g></g><g
       id="g5445"
       transform="translate(233.82366,-33.149027)"><g
         word-spacing="normal"
         letter-spacing="normal"
         font-size-adjust="none"
         font-stretch="normal"
         font-weight="normal"
         font-variant="normal"
         font-style="normal"
         stroke-miterlimit="10.433"
         xml:space="preserve"
         transform="matrix(0.3583143,0,0,-0.3583143,-62.705002,356.29928)"
         id="content"
         style="font-style:normal;font-variant:normal;font-weight:normal;font-stretch:normal;letter-spacing:normal;word-spacing:normal;text-anchor:start;fill:none;stroke:#000000;stroke-linecap:butt;stroke-linejoin:miter;stroke-miterlimit:10.43299961;stroke-opacity:1;stroke-dasharray:none;stroke-dashoffset:0"><path
           id="path5448"
           d="m 459.91,409.14 -0.02,-0.07 -0.01,-0.08 -0.02,-0.07 -0.01,-0.08 -0.04,-0.16 -0.04,-0.16 -0.03,-0.16 -0.04,-0.16 -0.04,-0.16 -0.04,-0.16 -0.01,-0.08 -0.02,-0.07 -0.02,-0.07 -0.01,-0.07 -0.02,-0.07 -0.01,-0.07 -0.01,-0.06 -0.01,-0.06 -0.01,-0.06 -0.01,-0.05 -0.01,-0.05 -0.01,-0.04 -0.01,-0.04 0,-0.04 0,-0.03 0,-0.02 c 0,-0.89 0.7,-1.35 1.43,-1.35 0.61,0 1.5,0.39 1.85,1.39 0.11,0.21 1.8,6.99 2,7.88 0.39,1.64 1.3,5.12 1.59,6.48 0.21,0.64 1.6,2.99 2.78,4.08 0.41,0.34 1.85,1.64 4,1.64 1.28,0 2.03,-0.59 2.08,-0.59 -1.48,-0.25 -2.58,-1.46 -2.58,-2.74 0,-0.79 0.55,-1.75 1.89,-1.75 1.35,0 2.74,1.14 2.74,2.94 0,1.75 -1.6,3.23 -4.13,3.23 -3.25,0 -5.43,-2.43 -6.39,-3.82 -0.39,2.23 -2.18,3.82 -4.53,3.82 -2.28,0 -3.23,-1.93 -3.69,-2.82 -0.89,-1.71 -1.54,-4.69 -1.54,-4.85 0,-0.5 0.5,-0.5 0.61,-0.5 0.5,0 0.54,0.07 0.84,1.16 0.84,3.53 1.84,5.92 3.64,5.92 0.84,0 1.55,-0.39 1.55,-2.28 0,-1.05 -0.16,-1.61 -0.8,-4.19 z"
           inkscape:connector-curvature="0"
           style="fill:#000000;stroke-width:0" /><path
           id="path5450"
           d="m 489.21,407.43 0.26,0.12 0.26,0.11 0.24,0.11 0.24,0.1 0.23,0.1 0.22,0.1 0.21,0.09 0.21,0.09 0.2,0.08 0.19,0.08 0.18,0.08 0.18,0.08 0.17,0.07 0.16,0.07 0.16,0.06 0.15,0.07 0.14,0.06 0.14,0.06 0.14,0.05 0.13,0.06 0.12,0.05 0.12,0.05 0.11,0.05 0.11,0.05 0.11,0.04 0.1,0.05 0.19,0.08 0.18,0.09 0.17,0.08 c 0.67,0.26 0.98,0.4 0.98,1.07 0,0.6 -0.45,1.11 -1.08,1.11 -0.25,0 -0.31,0 -0.73,-0.31 l -4.74,-3.17 0.52,5.15 c 0.08,0.63 0,1.5 -1.05,1.5 -0.42,0 -1.08,-0.28 -1.08,-1.04 0,-0.31 0.15,-1.36 0.18,-1.71 0.07,-0.59 0.31,-3.1 0.39,-3.9 l -4.71,3.17 c -0.36,0.2 -0.45,0.31 -0.76,0.31 -0.64,0 -1.1,-0.51 -1.1,-1.11 0,-0.7 0.43,-0.87 0.74,-1.01 l 5.26,-2.19 c -2.85,-1.27 -4.14,-1.75 -5.01,-2.17 -0.66,-0.28 -0.99,-0.42 -0.99,-1.08 0,-0.59 0.46,-1.11 1.1,-1.11 0.23,0 0.31,0 0.72,0.31 l 4.75,3.18 -0.57,-5.61 c 0,-0.77 0.66,-1.05 1.08,-1.05 0.42,0 1.08,0.28 1.08,1.05 0,0.31 -0.14,1.36 -0.17,1.7 -0.06,0.59 -0.31,3.09 -0.38,3.91 l 4.18,-2.8 c 0.9,-0.69 0.98,-0.69 1.29,-0.69 0.63,0 1.08,0.52 1.08,1.11 0,0.7 -0.42,0.88 -0.73,1.02 z"
           inkscape:connector-curvature="0"
           style="fill:#000000;stroke-width:0" /><path
           id="path5452"
           d="m 556.35,417.65 -0.25,-0.19 -0.25,-0.2 -0.23,-0.19 -0.23,-0.2 -0.22,-0.19 -0.22,-0.19 -0.2,-0.19 -0.2,-0.19 -0.19,-0.18 -0.18,-0.18 -0.18,-0.18 -0.17,-0.18 -0.16,-0.17 -0.15,-0.17 -0.15,-0.17 -0.14,-0.16 -0.13,-0.15 -0.13,-0.16 -0.12,-0.15 -0.11,-0.14 -0.11,-0.14 -0.1,-0.13 -0.09,-0.13 -0.09,-0.12 -0.08,-0.11 -0.08,-0.11 -0.07,-0.11 -0.06,-0.09 -0.06,-0.09 -0.05,-0.08 -0.05,-0.07 -0.04,-0.07 c -2.23,-3.44 -2.64,-6.58 -2.64,-6.62 0,-0.6 0.61,-0.6 1,-0.6 0.85,0 0.89,0.1 1.1,1 1.15,4.88 4.09,9.06 9.71,11.36 0.6,0.19 0.75,0.3 0.75,0.64 0,0.35 -0.29,0.5 -0.4,0.55 -2.19,0.84 -8.22,3.34 -10.11,11.72 -0.16,0.59 -0.2,0.73 -1.05,0.73 -0.39,0 -1,0 -1,-0.59 0,-0.1 0.46,-3.24 2.55,-6.58 1,-1.48 2.44,-3.23 4.58,-4.83 h -37.02 c -0.89,0 -1.8,0 -1.8,-1 0,-1 0.91,-1 1.8,-1 z"
           inkscape:connector-curvature="0"
           style="fill:#000000;stroke-width:0" /><path
           id="path5454"
           d="m 598.77,417.65 h 13.91 c 0.69,0 1.64,0 1.64,1 0,1 -0.95,1 -1.64,1 h -13.91 v 13.96 c 0,0.68 0,1.64 -1,1.64 -0.98,0 -0.98,-0.96 -0.98,-1.64 v -13.96 h -13.95 c -0.71,0 -1.64,0 -1.64,-1 0,-1 0.93,-1 1.64,-1 h 13.95 v -13.94 c 0,-0.7 0,-1.65 0.98,-1.65 1,0 1,0.95 1,1.65 z"
           inkscape:connector-curvature="0"
           style="fill:#000000;stroke-width:0" /><path
           id="path5456"
           d="m 642.47,419.7 -0.25,0.31 -0.23,0.29 -0.22,0.29 -0.22,0.26 -0.2,0.26 -0.19,0.24 -0.19,0.23 -0.17,0.22 -0.17,0.2 -0.16,0.2 -0.16,0.19 -0.15,0.17 -0.14,0.17 -0.14,0.16 -0.13,0.16 -0.13,0.15 -0.12,0.14 -0.13,0.13 -0.12,0.13 -0.12,0.13 -0.23,0.23 -0.24,0.23 -0.24,0.22 -0.24,0.22 -0.26,0.22 -0.14,0.11 -0.14,0.11 c -2.8,2.25 -5.59,3.14 -8.12,3.14 -5.83,0 -9.63,-5.46 -9.63,-11.29 H 621 c 0,4.87 3.33,8.9 7.72,8.9 2.89,0 5.12,-2.09 6.17,-3.14 1.25,-1.34 2.39,-2.89 5.44,-6.81 h 0 c -2.05,-3.59 -5.74,-8.62 -11.36,-8.62 -5.28,0 -7.97,5.18 -7.97,9.67 h -1.11 c 0,-5.74 3.69,-11.27 9.42,-11.27 5.74,0 9.86,4.53 12.31,8.52 2.69,-3.39 3.29,-4.13 4.83,-5.38 2.78,-2.25 5.58,-3.14 8.13,-3.14 5.83,0 9.61,5.49 9.61,11.31 h -1.1 c 0,-4.89 -3.34,-8.92 -7.71,-8.92 -2.9,0 -5.15,2.1 -6.19,3.14 -1.24,1.35 -2.39,2.89 -5.42,6.83 h 0 c 2.03,3.58 5.71,8.61 11.35,8.61 5.29,0 7.97,-5.17 7.97,-9.66 h 1.1 c 0,5.72 -3.69,11.25 -9.42,11.25 -5.72,0 -9.86,-4.53 -12.3,-8.51 z"
           inkscape:connector-curvature="0"
           style="fill:#000000;stroke-width:0" /></g></g></g></svg>